<svg xmlns="http://www.w3.org/2000/svg" width="170.035" height="30.25" viewBox="0 0 170.035 30.25"><g transform="translate(0)"><g transform="translate(0 0)"><path d="M-328.757,24.808c0,3.894-3.171,6.437-7.1,6.437h-9.232V9.265h8.6c3.83,0,6.939,2.481,6.939,6.28a5.5,5.5,0,0,1-1.916,4.3A5.672,5.672,0,0,1-328.757,24.808Zm-11.3-10.833v3.894h3.579a1.856,1.856,0,0,0,1.916-1.947,1.839,1.839,0,0,0-1.916-1.947Zm6.279,10.456a1.986,1.986,0,0,0-2.071-2.1h-4.208v4.208h4.208A1.986,1.986,0,0,0-333.782,24.431Z" transform="translate(345.085 -9.265)" fill="#aeafb1"/><path d="M-328.216,18.168h7.41a2.26,2.26,0,0,1,2.26,2.26h0a2.26,2.26,0,0,1-2.26,2.26h-7.41a2.26,2.26,0,0,1-2.26-2.26h0A2.26,2.26,0,0,1-328.216,18.168Z" transform="translate(347.428 -7.837)" fill="#aeafb1"/><path d="M-304.756,28.827h0a2.418,2.418,0,0,1-2.418,2.418h-11.4V9.265h11.241a2.417,2.417,0,0,1,2.417,2.418h0a2.416,2.416,0,0,1-2.417,2.417h-6.217v3.644h5.464A2.386,2.386,0,0,1-305.7,20.13h0a2.386,2.386,0,0,1-2.386,2.386h-5.464V26.41h6.374A2.418,2.418,0,0,1-304.756,28.827Z" transform="translate(349.337 -9.265)" fill="#aeafb1"/><path d="M-290.764,22.588a8.134,8.134,0,0,1,8.321-8.29,8.088,8.088,0,0,1,7.1,4.02l-4.114,2.387a3.248,3.248,0,0,0-3.045-1.759,3.455,3.455,0,0,0-3.548,3.642,3.455,3.455,0,0,0,3.548,3.642,3.217,3.217,0,0,0,3.045-1.758l4.114,2.354a8.013,8.013,0,0,1-7.1,4.051A8.134,8.134,0,0,1-290.764,22.588Z" transform="translate(353.797 -8.458)" fill="#aeafb1"/><path d="M-262.408,21.606v9.639h-4.711V22.3a2.59,2.59,0,0,0-2.73-2.858c-1.728,0-2.921,1-2.921,3.235v8.572h-4.71V9.265h4.71v7.756a5.369,5.369,0,0,1,4.491-1.916C-265.109,15.105-262.408,17.367-262.408,21.606Z" transform="translate(355.928 -9.265)" fill="#aeafb1"/><path d="M-247.115,14.738v15.7h-4.709V28.962a5.9,5.9,0,0,1-4.68,1.916c-4.112,0-7.5-3.611-7.5-8.29s3.391-8.29,7.5-8.29a5.9,5.9,0,0,1,4.68,1.916V14.738Zm-4.709,7.85a3.585,3.585,0,0,0-3.736-3.83,3.586,3.586,0,0,0-3.738,3.83,3.586,3.586,0,0,0,3.738,3.83A3.585,3.585,0,0,0-251.824,22.588Z" transform="translate(358.089 -8.458)" fill="#aeafb1"/><path d="M-233.028,20.8v9.639h-4.71V21.489a2.591,2.591,0,0,0-2.732-2.858c-1.728,0-2.921,1-2.921,3.235v8.572h-4.71v-15.7h4.71v1.476A5.369,5.369,0,0,1-238.9,14.3C-235.729,14.3-233.028,16.56-233.028,20.8Z" transform="translate(360.64 -8.458)" fill="#aeafb1"/><path d="M-217.734,14.738V29.652c0,5.276-4.114,7.505-8.29,7.505-3.265,0-6-1.224-7.442-3.8l4.02-2.324a3.586,3.586,0,0,0,3.58,1.978c2.2,0,3.547-1.13,3.547-3.36V28.209A5.574,5.574,0,0,1-226.9,30.25a7.775,7.775,0,0,1-7.724-7.975A7.776,7.776,0,0,1-226.9,14.3a5.578,5.578,0,0,1,4.585,2.041v-1.6Zm-4.585,7.537a3.555,3.555,0,0,0-3.8-3.644,3.556,3.556,0,0,0-3.8,3.644,3.554,3.554,0,0,0,3.8,3.641A3.553,3.553,0,0,0-222.319,22.274Z" transform="translate(362.801 -8.458)" fill="#aeafb1"/><path d="M-210.636,26.67a4.1,4.1,0,0,0,3.015-1.193l3.768,2.166a7.967,7.967,0,0,1-6.845,3.234c-5.369,0-8.7-3.611-8.7-8.29a8.05,8.05,0,0,1,8.351-8.29,7.928,7.928,0,0,1,7.976,8.29,9.071,9.071,0,0,1-.189,1.884H-214.4C-213.806,26.1-212.363,26.67-210.636,26.67Zm2.889-5.715a3.233,3.233,0,0,0-3.328-2.481,3.242,3.242,0,0,0-3.423,2.481Z" transform="translate(365.244 -8.458)" fill="#aeafb1"/><g transform="translate(45.811 6.191)"><path d="M-301.728,21.4l4.556,4.1-3.351,3.015a3.045,3.045,0,0,1-4.3-.227,3.049,3.049,0,0,1,.223-4.3Z" transform="translate(305.606 -13.509)" fill="#aeafb1"/><path d="M-289.905,17.645a3.042,3.042,0,0,1-1.011,2.265l-2.871,2.586-4.551-4.1,3.35-3.015a3.044,3.044,0,0,1,4.3.224A3.046,3.046,0,0,1-289.905,17.645Z" transform="translate(306.772 -14.601)" fill="#aeafb1"/><path d="M-293.157,21.971l-4.552,4.1-4.556-4.1,4.556-4.1Z" transform="translate(306.142 -14.076)" fill="#aeafb1"/><path d="M-297.172,18.4l-4.556,4.1L-304.6,19.91a3.042,3.042,0,0,1-1.006-2.265,3.046,3.046,0,0,1,.783-2.038,3.044,3.044,0,0,1,4.3-.224Z" transform="translate(305.606 -14.601)" fill="#aeafb1"/><path d="M-290.689,28.29a3.045,3.045,0,0,1-4.3.227l-3.35-3.015,4.551-4.1,2.871,2.582A3.046,3.046,0,0,1-290.689,28.29Z" transform="translate(306.772 -13.509)" fill="#aeafb1"/></g><g transform="translate(164.399 19.351)"><path d="M-201.138,26.614h-.786V29h-.7V26.614h-.787v-.673h2.271Z" transform="translate(203.409 -25.941)" fill="#aeafb1"/><path d="M-198.13,29h-.7V27.221l-.79,1.3h-.079l-.79-1.3V29h-.7V25.941h.7l.83,1.358.83-1.358h.7Z" transform="translate(203.766 -25.941)" fill="#aeafb1"/></g></g><g transform="translate(31.604 26.406)"><path d="M-317.849,32.128a.048.048,0,0,1,.055-.055h.652a.083.083,0,0,1,.087.055l.942,2.125h.022l.926-2.125a.085.085,0,0,1,.088-.055h.641a.048.048,0,0,1,.055.055v3.615a.048.048,0,0,1-.055.056h-.619a.048.048,0,0,1-.055-.056v-2.1h-.022l-.69,1.572a.109.109,0,0,1-.1.071h-.378a.11.11,0,0,1-.1-.071l-.689-1.572h-.022v2.1a.049.049,0,0,1-.056.056h-.618a.049.049,0,0,1-.055-.056Z" transform="translate(317.849 -32.013)" fill="#aeafb1"/><path d="M-310.463,32.128a.069.069,0,0,1,.072-.055h.689a.068.068,0,0,1,.072.055l1.26,3.615c.01.037,0,.056-.039.056h-.711a.07.07,0,0,1-.072-.056l-.214-.651h-1.3l-.209.651a.068.068,0,0,1-.071.056h-.717q-.056,0-.038-.056Zm.839,2.279-.422-1.3h-.016l-.422,1.3Z" transform="translate(318.827 -32.013)" fill="#aeafb1"/><path d="M-305.723,32.128a.048.048,0,0,1,.055-.055h.7a.048.048,0,0,1,.055.055v1.609l1.238-1.615a.106.106,0,0,1,.093-.049h.795a.029.029,0,0,1,.029.024.046.046,0,0,1-.008.046l-1.128,1.413,1.232,2.175a.044.044,0,0,1,.006.046.041.041,0,0,1-.038.02h-.805a.089.089,0,0,1-.082-.05l-.844-1.567-.487.614v.947a.049.049,0,0,1-.055.056h-.7a.049.049,0,0,1-.055-.056Z" transform="translate(319.794 -32.013)" fill="#aeafb1"/><path d="M-299.937,32.128a.048.048,0,0,1,.056-.055h.7a.048.048,0,0,1,.056.055v3.615a.049.049,0,0,1-.056.056h-.7a.049.049,0,0,1-.056-.056Z" transform="translate(320.722 -32.013)" fill="#aeafb1"/><path d="M-295.888,32.128a.048.048,0,0,1,.055-.055h.658a.1.1,0,0,1,.093.055l1.315,2.344h.028V32.128a.048.048,0,0,1,.055-.055h.62a.048.048,0,0,1,.055.055v3.615a.049.049,0,0,1-.055.056h-.653a.1.1,0,0,1-.093-.056l-1.321-2.339h-.027v2.339a.048.048,0,0,1-.055.056h-.62a.049.049,0,0,1-.055-.056Z" transform="translate(321.371 -32.013)" fill="#aeafb1"/><path d="M-290.109,34.631a5.224,5.224,0,0,1-.03-.687c0-.205,0-.388.014-.549a1.832,1.832,0,0,1,.091-.471,1.2,1.2,0,0,1,.5-.673,1.58,1.58,0,0,1,.866-.23,1.645,1.645,0,0,1,.8.2,1.132,1.132,0,0,1,.524.6.055.055,0,0,1-.023.082l-.585.247c-.041.01-.066,0-.078-.028a.707.707,0,0,0-.641-.384.566.566,0,0,0-.6.417,3.245,3.245,0,0,0-.059.795,3.279,3.279,0,0,0,.059.8.573.573,0,0,0,.608.411.706.706,0,0,0,.378-.1.5.5,0,0,0,.219-.283,1.317,1.317,0,0,0,.044-.367c0-.022-.012-.032-.034-.032h-.5a.049.049,0,0,1-.055-.056v-.524a.049.049,0,0,1,.055-.056h1.282a.049.049,0,0,1,.055.056V34.1a2.873,2.873,0,0,1-.093.838,1.241,1.241,0,0,1-.5.687,1.492,1.492,0,0,1-.86.244,1.57,1.57,0,0,1-.866-.23,1.2,1.2,0,0,1-.5-.674A2.537,2.537,0,0,1-290.109,34.631Z" transform="translate(322.293 -32.021)" fill="#aeafb1"/><path d="M-280.493,32.128a.048.048,0,0,1,.055-.055h.7a.048.048,0,0,1,.055.055v2.92c0,.022.012.032.034.032h1.643a.049.049,0,0,1,.055.055v.608a.049.049,0,0,1-.055.056h-2.428a.049.049,0,0,1-.055-.056Z" transform="translate(323.84 -32.013)" fill="#aeafb1"/><path d="M-275.155,32.128a.048.048,0,0,1,.055-.055h.7a.048.048,0,0,1,.055.055v3.615a.049.049,0,0,1-.055.056h-.7a.049.049,0,0,1-.055-.056Z" transform="translate(324.697 -32.013)" fill="#aeafb1"/><path d="M-271.107,32.128a.048.048,0,0,1,.055-.055h2.389a.048.048,0,0,1,.055.055v.586a.048.048,0,0,1-.055.055h-1.6a.03.03,0,0,0-.034.034v.783a.03.03,0,0,0,.034.032h1.337a.049.049,0,0,1,.055.055v.58a.048.048,0,0,1-.055.055h-1.337a.03.03,0,0,0-.034.034v1.4a.049.049,0,0,1-.055.056h-.7a.049.049,0,0,1-.055-.056Z" transform="translate(325.346 -32.013)" fill="#aeafb1"/><path d="M-265.736,32.128a.048.048,0,0,1,.055-.055h2.389a.048.048,0,0,1,.055.055v.586a.048.048,0,0,1-.055.055h-1.6a.03.03,0,0,0-.034.034v.739a.03.03,0,0,0,.034.032h1.337a.049.049,0,0,1,.055.055v.58a.049.049,0,0,1-.055.056H-264.9c-.022,0-.034.01-.034.032v.773c0,.022.012.032.034.032h1.6a.049.049,0,0,1,.055.055v.586a.049.049,0,0,1-.055.056h-2.389a.049.049,0,0,1-.055-.056Z" transform="translate(326.207 -32.013)" fill="#aeafb1"/><path d="M-256.472,32.128a.048.048,0,0,1,.055-.055h2.389a.048.048,0,0,1,.055.055v.586a.048.048,0,0,1-.055.055h-1.6c-.023,0-.034.01-.034.034v.739a.029.029,0,0,0,.034.032h1.336a.049.049,0,0,1,.055.055v.58a.049.049,0,0,1-.055.056h-1.336c-.023,0-.034.01-.034.032v.773c0,.022.01.032.034.032h1.6a.049.049,0,0,1,.055.055v.586a.049.049,0,0,1-.055.056h-2.389a.049.049,0,0,1-.055-.056Z" transform="translate(327.693 -32.013)" fill="#aeafb1"/><path d="M-250.021,32.128a.068.068,0,0,1,.071-.055h.69a.068.068,0,0,1,.071.055l1.26,3.615q.016.056-.038.056h-.712a.068.068,0,0,1-.071-.056l-.214-.651h-1.3l-.208.651a.069.069,0,0,1-.071.056h-.718c-.037,0-.049-.019-.038-.056Zm.838,2.279-.421-1.3h-.017l-.421,1.3Z" transform="translate(328.521 -32.013)" fill="#aeafb1"/><path d="M-244.812,35.718a1.824,1.824,0,0,1-.622-.361.063.063,0,0,1,0-.094l.415-.477c.022-.029.05-.03.082,0a1.562,1.562,0,0,0,.975.383.72.72,0,0,0,.447-.123.384.384,0,0,0,.161-.32.324.324,0,0,0-.131-.272.969.969,0,0,0-.444-.145l-.2-.027q-1.178-.165-1.178-1.117a1.041,1.041,0,0,1,.361-.829,1.417,1.417,0,0,1,.958-.311,2.32,2.32,0,0,1,.7.1,1.809,1.809,0,0,1,.57.285c.032.022.036.049.01.082l-.334.5a.051.051,0,0,1-.077.016,1.588,1.588,0,0,0-.866-.284.546.546,0,0,0-.367.113.366.366,0,0,0-.131.292q0,.329.58.411l.2.028q1.173.158,1.172,1.129a1.061,1.061,0,0,1-.381.846,1.614,1.614,0,0,1-1.081.325A2.312,2.312,0,0,1-244.812,35.718Z" transform="translate(329.46 -32.021)" fill="#aeafb1"/><path d="M-238.923,35.8a.049.049,0,0,1-.055-.056v-1.43l-1.1-2.185c-.014-.037,0-.055.038-.055h.712a.078.078,0,0,1,.081.055l.674,1.359h.017l.673-1.359a.08.08,0,0,1,.082-.055h.69a.042.042,0,0,1,.038.016.037.037,0,0,1,0,.038l-1.1,2.185v1.43a.049.049,0,0,1-.055.056Z" transform="translate(330.321 -32.013)" fill="#aeafb1"/></g></g></svg>