<svg xmlns="http://www.w3.org/2000/svg" width="134.645" height="47.97" viewBox="0 0 134.645 47.97"><g transform="translate(-0.145)"><path d="M21.05,38.85A14.87,14.87,0,1,1,31.62,13.53L36,9.12a21,21,0,1,0-.32,30l-4.5-4.25A14.81,14.81,0,0,1,21.1,38.81" fill="#aeafb1"/><path d="M21.05,28.84a4.86,4.86,0,1,1,3.55-8.17l4.13-4.19a10.74,10.74,0,1,0-.61,15.59L23.8,28a4.75,4.75,0,0,1-2.75.86" fill="#aeafb1"/><path d="M19.09,0V7.25l-5.03,3.1V0Z" fill="#aeafb1"/><path d="M14.06,37.76l5.03,1.42v8.79H14.06Z" fill="#aeafb1"/><path d="M25.81,0V8.35l-5.04-.82V0Z" fill="#aeafb1"/><path d="M20.77,39.65l5.04,1.42v6.9H20.77Z" fill="#aeafb1"/><path d="M53.12,21.26a7.538,7.538,0,0,1-6.9,1.54,7.68,7.68,0,0,1-4.53-3.48,7.45,7.45,0,0,1-.76-1.81,7.37,7.37,0,0,1-.27-2,7.563,7.563,0,0,1,5.56-7.29,7.37,7.37,0,0,1,2-.27,7.53,7.53,0,0,1,2.62.46,7.32,7.32,0,0,1,2.28,1.35L51.57,12.3a4.26,4.26,0,0,0-1.52-1.06,4.663,4.663,0,0,0-6.49,4.28,4.53,4.53,0,0,0,.37,1.8,4.67,4.67,0,0,0,1,1.47,4.61,4.61,0,0,0,1.48,1,4.37,4.37,0,0,0,1.81.37,4.75,4.75,0,0,0,1.83-.37,4.42,4.42,0,0,0,1.52-1.07Z" fill="#aeafb1"/><path d="M57.63,22.76H54.85V11.84h.68l.91,1.3a4.88,4.88,0,0,1,3.3-1.28H62.2v2.78H59.74a2.11,2.11,0,0,0-2.11,2.1Z" fill="#aeafb1"/><path d="M66.38,26.92V24.11h1.55a2.28,2.28,0,0,0,.78-.13,2.77,2.77,0,0,0,.7-.37,2.711,2.711,0,0,0,.96-1.25l-.93.39a2.48,2.48,0,0,1-1,.19,5,5,0,0,1-1.9-.36,4.47,4.47,0,0,1-1.55-1A4.55,4.55,0,0,1,64,20a5.47,5.47,0,0,1-.39-2.11v-6h2.78v6a2.64,2.64,0,0,0,.17,1,2,2,0,0,0,.45.72,1.78,1.78,0,0,0,.67.44,2.43,2.43,0,0,0,.82.14,1.8,1.8,0,0,0,.81-.2,2.57,2.57,0,0,0,.67-.52,2.64,2.64,0,0,0,.44-.74,2.3,2.3,0,0,0,.17-.85v-6h2.8v9.54A5.494,5.494,0,0,1,70,26.5a5.47,5.47,0,0,1-2.17.44Z" fill="#aeafb1"/><path d="M78.64,26.92H75.83V11.84h.68l1.11,1.32a6.821,6.821,0,0,1,.82-.67,5.54,5.54,0,0,1,.93-.55,6.07,6.07,0,0,1,1-.36,4.21,4.21,0,0,1,1.05-.14,5.54,5.54,0,0,1,2.16.42A5.32,5.32,0,0,1,85.37,13a5.77,5.77,0,0,1,1.2,1.82A6.2,6.2,0,0,1,87,17.2a6.37,6.37,0,0,1-.43,2.42,5.6,5.6,0,0,1-1.2,1.83,5.3,5.3,0,0,1-1.78,1.15,5.92,5.92,0,0,1-2.16.39,3,3,0,0,1-.73-.08,4.48,4.48,0,0,1-.71-.22,6.21,6.21,0,0,1-.7-.31c-.22-.11-.44-.23-.65-.36Zm5.57-9.72A3.26,3.26,0,0,0,84,16a2.6,2.6,0,0,0-.6-1,2.66,2.66,0,0,0-.89-.59,3,3,0,0,0-2.16,0A2.62,2.62,0,0,0,78.88,16a3.548,3.548,0,0,0,0,2.46,2.69,2.69,0,0,0,.59.93,2.79,2.79,0,0,0,3,.61,2.88,2.88,0,0,0,.89-.61,2.69,2.69,0,0,0,.59-.93,3.23,3.23,0,0,0,.22-1.22" fill="#aeafb1"/><path d="M94.27,22.76a4.81,4.81,0,0,1-1.9-.38,4.91,4.91,0,0,1-1.55-1.06,4.73,4.73,0,0,1-1-1.55,4.64,4.64,0,0,1-.38-1.9V14.64H88V11.86h1.36V7.5h2.77v4.36h4.22v2.78H92.16v3.23a2.08,2.08,0,0,0,.16.83,2.15,2.15,0,0,0,.45.66,2.28,2.28,0,0,0,.67.46,2.12,2.12,0,0,0,.83.17h2.11v2.77Z" fill="#aeafb1"/><path d="M108.82,17.2a5.87,5.87,0,0,1-1.63,4.11,5.62,5.62,0,0,1-1.77,1.21,5.48,5.48,0,0,1-2.18.44,5.42,5.42,0,0,1-2.16-.44,5.62,5.62,0,0,1-1.77-1.21,5.7,5.7,0,0,1-1.2-1.83,5.9,5.9,0,0,1-.44-2.28,6,6,0,0,1,.44-2.3,5.49,5.49,0,0,1,1.2-1.83,5.62,5.62,0,0,1,1.77-1.21,5.42,5.42,0,0,1,2.16-.44,5.64,5.64,0,0,1,2.18.42A5.07,5.07,0,0,1,107.19,13a5.58,5.58,0,0,1,1.19,1.82,6.25,6.25,0,0,1,.44,2.37m-2.8,0A3.44,3.44,0,0,0,105.8,16a3,3,0,0,0-.6-.93,2.55,2.55,0,0,0-.88-.6,2.86,2.86,0,0,0-2.15,0,2.55,2.55,0,0,0-.88.6,2.93,2.93,0,0,0-.58.93,3.23,3.23,0,0,0-.22,1.22,3.06,3.06,0,0,0,.22,1.18,2.93,2.93,0,0,0,.58.93,2.63,2.63,0,0,0,.88.63,2.6,2.6,0,0,0,1.07.23,2.77,2.77,0,0,0,1.08-.21,2.72,2.72,0,0,0,.88-.61,2.87,2.87,0,0,0,.6-.93,3.44,3.44,0,0,0,.2-1.24" fill="#aeafb1"/><path d="M56,42.12H53V31.68a1.39,1.39,0,0,0-.12-.57,1.62,1.62,0,0,0-.31-.46,1.38,1.38,0,0,0-.47-.31,1.32,1.32,0,0,0-.57-.11,1.38,1.38,0,0,0-.57.11,1.45,1.45,0,0,0-.77.77,1.38,1.38,0,0,0-.11.57V42.12H47.19V31.68a1.56,1.56,0,0,0-.11-.57,1.62,1.62,0,0,0-.31-.46,1.38,1.38,0,0,0-.47-.31,1.32,1.32,0,0,0-.57-.11,1.38,1.38,0,0,0-.57.11,1.45,1.45,0,0,0-.77.77,1.38,1.38,0,0,0-.11.57V42.12H41.35V31.68a4.23,4.23,0,0,1,.34-1.7,4.39,4.39,0,0,1,5.61-2.39,4.25,4.25,0,0,1,1.36.84A4.31,4.31,0,0,1,50,27.59a4.36,4.36,0,0,1,1.56-.29,4.42,4.42,0,0,1,1.71.34,4.48,4.48,0,0,1,1.4.94,4.34,4.34,0,0,1,.93,1.4,4.24,4.24,0,0,1,.35,1.7Z" fill="#aeafb1"/><path d="M69.05,42.12h-.67l-1.08-1.5a10.72,10.72,0,0,1-.84.67,5.86,5.86,0,0,1-.94.54,6,6,0,0,1-1,.36,4.08,4.08,0,0,1-1,.13,6.17,6.17,0,0,1-2.16-.38,5.11,5.11,0,0,1-1.77-1.13A5.21,5.21,0,0,1,58.34,39a6.43,6.43,0,0,1-.44-2.44,6.12,6.12,0,0,1,.44-2.33,5.49,5.49,0,0,1,1.2-1.83,5.26,5.26,0,0,1,1.77-1.19,5.58,5.58,0,0,1,2.16-.42,4.22,4.22,0,0,1,1.06.13,5.23,5.23,0,0,1,1,.37,5.92,5.92,0,0,1,.94.55,7.69,7.69,0,0,1,.83.68l1.08-1.3h.67Zm-2.8-5.56a3,3,0,0,0-.22-1.1,3.33,3.33,0,0,0-.6-1,2.87,2.87,0,0,0-.88-.66,2.35,2.35,0,0,0-1.08-.25,2.94,2.94,0,0,0-1.07.19,2.48,2.48,0,0,0-.88.57,2.82,2.82,0,0,0-.58.93,3.8,3.8,0,0,0,0,2.55,2.72,2.72,0,0,0,.58.93,2.48,2.48,0,0,0,.88.57,2.94,2.94,0,0,0,1.07.19,2.35,2.35,0,0,0,1.08-.25,2.87,2.87,0,0,0,.88-.66,3.33,3.33,0,0,0,.6-.95,3,3,0,0,0,.22-1.11" fill="#aeafb1"/><path d="M82.07,40.74a5.22,5.22,0,0,1-.44,2.16,5.52,5.52,0,0,1-3,3,5.38,5.38,0,0,1-2.16.44h-1.4V43.5h1.38a3.32,3.32,0,0,0,1.11-.17,2.35,2.35,0,0,0,.77-.46,2.53,2.53,0,0,0,.51-.67,5,5,0,0,0,.3-.79,1.31,1.31,0,0,1-.47.43,3.44,3.44,0,0,1-.68.27,3.39,3.39,0,0,1-.77.15,6.749,6.749,0,0,1-.75,0,6,6,0,0,1-2.17-.39,5.39,5.39,0,0,1-1.77-1.14A5.21,5.21,0,0,1,71.36,39a6.37,6.37,0,0,1-.44-2.42,6,6,0,0,1,.44-2.29,5.64,5.64,0,0,1,3-3.05,5.46,5.46,0,0,1,2.17-.43,4.19,4.19,0,0,1,1,.13,5.59,5.59,0,0,1,1,.37,6.31,6.31,0,0,1,.93.55,6.829,6.829,0,0,1,.83.68l1.08-1.3h.67Zm-2.8-4.18a2.81,2.81,0,0,0-.22-1.1,3,3,0,0,0-.6-1,2.87,2.87,0,0,0-.88-.66,2.31,2.31,0,0,0-1.07-.25,3,3,0,0,0-1.08.19,2.44,2.44,0,0,0-.87.57,2.69,2.69,0,0,0-.59.93,3.64,3.64,0,0,0-.21,1.27A3.37,3.37,0,0,0,74,37.79a2.6,2.6,0,0,0,.59.93,2.51,2.51,0,0,0,.87.6,2.81,2.81,0,0,0,1.08.21,2.31,2.31,0,0,0,1.07-.25,2.87,2.87,0,0,0,.88-.66,3,3,0,0,0,.6-.95,2.82,2.82,0,0,0,.22-1.11" fill="#aeafb1"/><path d="M95.1,42.12h-.68l-1.08-1.5a8,8,0,0,1-.84.67,5.771,5.771,0,0,1-.93.54,6.3,6.3,0,0,1-1,.36,4.14,4.14,0,0,1-1,.13,6.13,6.13,0,0,1-2.16-.38,5.25,5.25,0,0,1-1.78-1.13A5.35,5.35,0,0,1,84.38,39,6.44,6.44,0,0,1,84,36.56a6.11,6.11,0,0,1,.43-2.33,5.65,5.65,0,0,1,1.2-1.83,5.4,5.4,0,0,1,1.78-1.19,5.54,5.54,0,0,1,2.16-.42,4.14,4.14,0,0,1,1,.13,5.33,5.33,0,0,1,1,.37,5.83,5.83,0,0,1,.93.55,6.83,6.83,0,0,1,.83.68l1.08-1.3h.68Zm-2.81-5.56a2.81,2.81,0,0,0-.22-1.1,3.1,3.1,0,0,0-.59-1,3,3,0,0,0-.88-.66,2.38,2.38,0,0,0-1.08-.25,2.9,2.9,0,0,0-1.07.19,2.48,2.48,0,0,0-.88.57,2.85,2.85,0,0,0-.59.93,4,4,0,0,0,0,2.55,2.74,2.74,0,0,0,.59.93,2.48,2.48,0,0,0,.88.57,2.9,2.9,0,0,0,1.07.19,2.38,2.38,0,0,0,1.08-.25,3,3,0,0,0,.88-.66,3.1,3.1,0,0,0,.59-.95,2.82,2.82,0,0,0,.22-1.11" fill="#aeafb1"/><path d="M106.07,42.12h-9.1l4.6-8.12h-4.6V31.22h9.1l-4.6,8.13h4.6Z" fill="#aeafb1"/><path d="M111.23,28.24a1.72,1.72,0,0,1-.15.72,2,2,0,0,1-.4.59,2.1,2.1,0,0,1-.6.4,1.861,1.861,0,0,1-2.05-.4,1.87,1.87,0,0,1-.4-.59,1.71,1.71,0,0,1-.14-.72,1.78,1.78,0,0,1,.14-.72,1.76,1.76,0,0,1,.4-.59,1.87,1.87,0,0,1,.59-.4,1.878,1.878,0,0,1,2.46,1,1.79,1.79,0,0,1,.15.72m-.48,13.88h-2.81V31.2h2.81Z" fill="#aeafb1"/><path d="M116,42.12h-2.8V31.2h.67l.92,1.06a5.09,5.09,0,0,1,1.52-.94,4.89,4.89,0,0,1,1.78-.33,4.8,4.8,0,0,1,1.89.38A4.87,4.87,0,0,1,122.57,34a4.71,4.71,0,0,1,.38,1.9v6.24h-2.78V35.88a2.05,2.05,0,0,0-.16-.81,2.32,2.32,0,0,0-.45-.67,2.12,2.12,0,0,0-.66-.44,2.106,2.106,0,0,0-2.75,1.11,2.06,2.06,0,0,0-.17.81Z" fill="#aeafb1"/><path d="M129.61,39.45a1.651,1.651,0,0,0,.32.07h.33a2.88,2.88,0,0,0,.78-.11,3,3,0,0,0,.71-.32,2.61,2.61,0,0,0,.59-.51,2.64,2.64,0,0,0,.43-.67l2,2a4.93,4.93,0,0,1-.89,1,5.56,5.56,0,0,1-3.65,1.36,5.495,5.495,0,0,1-5.14-3.44,6,6,0,0,1-.44-2.32,6.2,6.2,0,0,1,.44-2.36,5.35,5.35,0,0,1,1.2-1.82,5.44,5.44,0,0,1,1.77-1.18,5.62,5.62,0,0,1,2.17-.41,5.38,5.38,0,0,1,1.33.16,5.29,5.29,0,0,1,1.24.47,5.35,5.35,0,0,1,1.1.75,4.93,4.93,0,0,1,.89,1ZM131,33.71a1.31,1.31,0,0,0-.38-.09h-.39a2.81,2.81,0,0,0-1.08.21,2.63,2.63,0,0,0-1.46,1.53,3.36,3.36,0,0,0-.21,1.22c0,.11,0,.22,0,.35v.39l.09.39a1.34,1.34,0,0,0,.13.32Z" fill="#aeafb1"/></g></svg>