<svg xmlns="http://www.w3.org/2000/svg" width="142.745" height="38.598" viewBox="0 0 142.745 38.598"><g transform="translate(0)"><path d="M-118.326-111.165c.942,1.483,1.854,2.988,2.836,4.444,2.1,3.12,4.24,6.216,6.368,9.318.2.294.44.559.8,1.008.815-1.134,1.549-2.124,2.248-3.138.963-1.4,1.889-2.82,2.857-4.212.169-.243.468-.551.714-.557,1.693-.041,3.389-.01,5.084,0,.056,0,.11.089.3.251-.751,1.129-1.5,2.285-2.28,3.424-1.745,2.562-3.458,5.146-5.279,7.653a1.51,1.51,0,0,0,.023,2.054q3.338,4.825,6.611,9.693a1.692,1.692,0,0,1,.3,1.26c-.078.237-.723.393-1.12.4-3.979.1-3.969.084-6.22-3.286-1-1.495-2.047-2.957-3.172-4.577a12.825,12.825,0,0,0-.869,1c-2.954,4.28-5.917,8.553-8.828,12.862a1.974,1.974,0,0,1-1.908.991c-1.469-.053-2.942-.015-4.655-.015.769-1.184,1.4-2.2,2.076-3.183q5.3-7.706,10.635-15.387a1.261,1.261,0,0,0-.12-1.679q-6.31-9.159-12.6-18.332Z" transform="translate(168.623 111.165)" fill="#aeafb1"/><path d="M-162.529-101.99a60.638,60.638,0,0,1,7.935.129c3.841.542,6.02,4.013,5.665,8.345a7.1,7.1,0,0,1-7.084,6.7c-2.171.064-4.343.079-6.516.116ZM-159.6-89.6c1.3,0,2.511.073,3.713-.015,2.359-.174,3.859-1.81,4.139-4.389.246-2.262-1.028-4.6-3.039-5.056a33.678,33.678,0,0,0-4.813-.417Z" transform="translate(162.529 112.625)" fill="#aeafb1"/><path d="M-50.728-99.056l1.817,1.333a3.185,3.185,0,0,1-.352.592,1.376,1.376,0,0,0-.19,1.912c1.175,2.1.567,4.5-1.4,6.242.009.065,0,.172.034.2a3.946,3.946,0,0,1,1.708,4.719c-.536,2.083-2.076,3.044-4.06,3.422-3.232.615-6.186-1.218-6.561-4.05a5.2,5.2,0,0,1,0-.608h2.444c.9,1.96,2.078,2.6,3.891,2.114a2.215,2.215,0,0,0,1.789-2.22,2.15,2.15,0,0,0-1.9-2c-.577-.113-1.172-.123-1.758-.194a4.9,4.9,0,0,1-4.5-5.008c-.1-2.933,1.558-5.212,4.225-5.646a6.17,6.17,0,0,1,2.728.082c.846.263,1.3.142,1.7-.574C-51.053-98.856-50.9-98.92-50.728-99.056Zm-.845,6.144a2.8,2.8,0,0,0-2.783-3.061,2.872,2.872,0,0,0-2.785,3.085,2.785,2.785,0,0,0,2.81,2.922A2.741,2.741,0,0,0-51.573-92.912Z" transform="translate(179.009 113.107)" fill="#aeafb1"/><path d="M-140.4-87.48l-.174-1.235a4.9,4.9,0,0,1-4.193,1.626,5.011,5.011,0,0,1-3.9-2.2,6.442,6.442,0,0,1,.693-7.681c1.924-1.843,4.806-1.887,7.327-.058l.262-1.075h2.393V-87.48Zm-.246-5.366a3.045,3.045,0,0,0-3.213-3.168,3.02,3.02,0,0,0-3.055,3.2,3.06,3.06,0,0,0,3.206,3.29A3.061,3.061,0,0,0-140.645-92.846Z" transform="translate(164.6 113.215)" fill="#aeafb1"/><path d="M-73.412-96.976l.152-1.123h2.418v10.635h-2.345l-.241-1.216a4.924,4.924,0,0,1-4.561,1.54,4.975,4.975,0,0,1-3.217-1.77,6.506,6.506,0,0,1,.219-7.894C-79.068-98.829-76.042-98.925-73.412-96.976Zm-.046,4.223a3.035,3.035,0,0,0-3.117-3.261A3.069,3.069,0,0,0-79.764-92.8a3.111,3.111,0,0,0,3.143,3.28A3.06,3.06,0,0,0-73.459-92.753Z" transform="translate(175.375 113.215)" fill="#aeafb1"/><path d="M-82.433-86.878h-2.651v-4.189c0-.516.013-1.035-.012-1.55-.079-1.629-.913-2.57-2.285-2.6a2.584,2.584,0,0,0-2.771,2.554c-.084,1.51-.034,3.026-.041,4.539,0,.367,0,.733,0,1.2h-2.667v-15.1h2.626v5.393a15.349,15.349,0,0,1,3.054-1.063A3.935,3.935,0,0,1-82.6-94.2a6.874,6.874,0,0,1,.162,1.2C-82.424-91.009-82.433-89.018-82.433-86.878Z" transform="translate(173.703 112.632)" fill="#aeafb1"/><path d="M-37.941-91.826h-8.494c.284,2.346,3.075,2.981,6.017,1.356l1.394,1.722c-1.492,1.649-4.715,2.178-7.191,1.108-2.186-.946-3.318-3.131-3.075-5.945a5.241,5.241,0,0,1,3.952-4.659c2.842-.732,5.586.2,6.562,2.467A20.643,20.643,0,0,1-37.941-91.826Zm-2.891-2.249c-.346-1.478-1.282-2.086-2.911-2.005-1.462.072-2.414.81-2.54,2.005Z" transform="translate(180.686 113.198)" fill="#aeafb1"/><path d="M-59.925-87.473h-2.6c0-1.939.042-3.841-.01-5.74a2.547,2.547,0,0,0-3.986-2.243,2.843,2.843,0,0,0-1.319,2.531c-.008,1.8,0,3.6,0,5.458h-2.58V-98.139h2.263l.247,1.145A13.536,13.536,0,0,1-65.4-98.184a4.285,4.285,0,0,1,5.425,3.928A63.4,63.4,0,0,1-59.925-87.473Z" transform="translate(177.302 113.224)" fill="#aeafb1"/><path d="M-136.588-94.971l-1.937-.123v-2.177l1.9-.132c.029-1.944.363-3.755,2.4-4.565a4.545,4.545,0,0,1,4.5.536l-.89,1.846c-2.638-.754-3.439-.215-3.2,2.241h2.995v2.263h-3.089v8.228h-2.68Z" transform="translate(166.379 112.581)" fill="#aeafb1"/><path d="M-94.28-90.441l1.615,1.529c-1.558,2.259-5.544,2.47-7.98.491-2.2-1.786-2.316-6.137-.323-8.345,1.877-2.078,6.509-2.358,8.1-.02-.326.346-.69.7-1.014,1.084a.827.827,0,0,1-1.21.237,2.954,2.954,0,0,0-4.031.8,3.386,3.386,0,0,0,.188,4.1,3.352,3.352,0,0,0,4.163.413Z" transform="translate(172.176 113.207)" fill="#aeafb1"/><path d="M-127.535-87.449h-2.618V-97.964c1.651-.44,2.292-.273,2.727.739a4.109,4.109,0,0,1,4.689-.832c.845.31,1.1.764.535,1.565a9.247,9.247,0,0,0-.624,1.179,11.551,11.551,0,0,0-2.1-.393,2.322,2.322,0,0,0-2.6,2.607C-127.562-91.257-127.535-89.415-127.535-87.449Z" transform="translate(167.722 113.207)" fill="#aeafb1"/><path d="M-121.99-87.513V-98.167h2.523v10.654Z" transform="translate(169.031 113.25)" fill="#aeafb1"/><path d="M-119.126-100.624a1.458,1.458,0,0,1-1.483,1.572,1.488,1.488,0,0,1-1.627-1.441,1.567,1.567,0,0,1,1.555-1.657A1.5,1.5,0,0,1-119.126-100.624Z" transform="translate(168.991 112.611)" fill="#aeafb1"/></g></svg>