<svg xmlns="http://www.w3.org/2000/svg" width="151.903" height="44.024" viewBox="0 0 151.903 44.024"><g transform="translate(-484.077 -2127.972)"><path d="M40.69,0H5.129A5.131,5.131,0,0,0,0,5.129V38.895a5.131,5.131,0,0,0,5.129,5.129H40.69a5.13,5.13,0,0,0,5.13-5.129V5.129A5.131,5.131,0,0,0,40.69,0M35.071,19.081h0l-1.637,9.636a6.884,6.884,0,0,1-2.385,4.147,6.464,6.464,0,0,1-4.335,1.719H10.023l2.661-15.5H35.071v0Zm.643-3.772-.285,1.676H13.043l1.3-7.541H31.03a4.556,4.556,0,0,1,3.418,1.382A4.778,4.778,0,0,1,35.8,14.3a6.525,6.525,0,0,1-.081,1.007" transform="translate(484.077 2127.972)" fill="#aeafb1"/><g transform="translate(533.961 2141.36)"><path d="M57.731,19.892c.071,4.175-2.477,8.4-8.254,8.4H42.989V11.779h6.488c5.658,0,8.181,4.035,8.254,8.113m-11.653,5.4h3.4c3.748,0,5.235-2.734,5.164-5.422-.072-2.573-1.582-5.141-5.164-5.141h-3.4Z" transform="translate(-42.989 -11.499)" fill="#aeafb1"/><path d="M65.771,16.026H68.53V27.653H65.82l-.14-1.7a4.426,4.426,0,0,1-3.775,2.053c-3.442.022-5.991-2.1-5.991-6.18,0-4.009,2.667-6.108,6.061-6.085a4.263,4.263,0,0,1,3.7,1.888Zm-6.979,5.8a3.329,3.329,0,0,0,3.442,3.537c4.528,0,4.528-7.05,0-7.05a3.31,3.31,0,0,0-3.442,3.514" transform="translate(-40.916 -10.864)" fill="#aeafb1"/><path d="M68.977,28.328V19.389h-2.17V16.866h2.17v-.779a4.208,4.208,0,0,1,4.433-4.55,5.609,5.609,0,0,1,3.018.942l-1.062,2.146a3.2,3.2,0,0,0-1.77-.614c-.991,0-1.744.663-1.744,2.076v.779h3.419v2.523H71.852v8.938Z" transform="translate(-39.169 -11.538)" fill="#aeafb1"/><path d="M77.5,16.031l.214,1.341a3.43,3.43,0,0,1,3.278-1.651,4.417,4.417,0,0,1,3,1.109l-1.3,2.5a2.866,2.866,0,0,0-2.076-.754,2.682,2.682,0,0,0-2.9,2.947v6.131H74.836V16.031Z" transform="translate(-37.881 -10.867)" fill="#aeafb1"/><path d="M85.811,13.394a1.7,1.7,0,0,1-3.4,0,1.7,1.7,0,0,1,3.4,0M82.676,28.3h2.878V16.627H82.676Z" transform="translate(-36.666 -11.51)" fill="#aeafb1"/><path d="M99.953,16.568a3.361,3.361,0,0,1-2.146,3.185,4.025,4.025,0,0,1,2.641,3.68c0,3.68-2.761,4.856-6.18,4.856h-7.83V11.779h7.83c3.255,0,5.685,1.464,5.685,4.789M89.5,18.406h4.763c1.959,0,2.593-.824,2.593-1.768,0-.754-.612-2.028-2.593-2.028H89.5Zm0,6.982h4.763c1.274,0,3.089-.424,3.089-1.982,0-1.486-1.815-2.265-3.089-2.265H89.5Z" transform="translate(-36.02 -11.499)" fill="#aeafb1"/><path d="M108.512,16.026h2.758V27.653h-2.712l-.142-1.7a4.424,4.424,0,0,1-3.772,2.053c-3.443.022-5.992-2.1-5.992-6.18,0-4.009,2.665-6.108,6.061-6.085a4.263,4.263,0,0,1,3.7,1.888Zm-6.98,5.8a3.33,3.33,0,0,0,3.443,3.537c4.528,0,4.528-7.05,0-7.05a3.311,3.311,0,0,0-3.443,3.514" transform="translate(-34.062 -10.864)" fill="#aeafb1"/><path d="M119.174,27.64V21.555c0-1.771-.968-3.112-2.807-3.112A3.058,3.058,0,0,0,113.4,21.7v5.942h-2.853V15.989h2.573l.188,1.582a5.242,5.242,0,0,1,3.82-1.744c2.736,0,4.929,2.05,4.929,5.707v6.108h-2.878Z" transform="translate(-32.155 -10.85)" fill="#aeafb1"/><path d="M124.4,11.8v9.528l3.915-4.67h3.443v.165l-4.74,5.307,5.4,5.943v.211h-3.467L124.4,23.027v5.258h-2.878V11.8Z" transform="translate(-30.394 -11.496)" fill="#aeafb1"/><path d="M66.366,29.221a1.246,1.246,0,0,1-.381.972,1.412,1.412,0,0,1-.992.331,3.62,3.62,0,0,1-.634-.051V28.1a3.514,3.514,0,0,1,.711-.064,1.393,1.393,0,0,1,.931.288,1.114,1.114,0,0,1,.364.9m-.465,0a.825.825,0,0,0-.205-.594.757.757,0,0,0-.578-.215,1.433,1.433,0,0,0-.32.032v1.666a1.315,1.315,0,0,0,.277.027.767.767,0,0,0,.618-.261,1,1,0,0,0,.208-.656" transform="translate(-39.561 -8.892)" fill="#aeafb1"/><rect width="0.435" height="2.41" transform="translate(28.952 19.186)" fill="#aeafb1"/><path d="M72.256,30.335a1.793,1.793,0,0,1-.8.191,1.3,1.3,0,0,1-.923-.337,1.179,1.179,0,0,1-.36-.9,1.22,1.22,0,0,1,.346-.927,1.29,1.29,0,0,1,.931-.32,1.891,1.891,0,0,1,.721.161l-.145.367a1.562,1.562,0,0,0-.613-.144.718.718,0,0,0-.564.223.833.833,0,0,0-.205.589,1,1,0,0,0,.2.644.753.753,0,0,0,.606.259,1.048,1.048,0,0,0,.383-.059.677.677,0,0,1-.012-.116v-.739h.434Z" transform="translate(-38.628 -8.891)" fill="#aeafb1"/><rect width="0.435" height="2.41" transform="translate(35.863 19.186)" fill="#aeafb1"/><path d="M77.9,28.45h-.747v2.03h-.435V28.45h-.7v-.38H77.9Z" transform="translate(-37.692 -8.886)" fill="#aeafb1"/><path d="M81.361,30.482h-.49l-.237-.613h-.919l-.238.61-.468,0L80,28.074h.414Zm-.869-1-.313-.812-.312.812Z" transform="translate(-37.212 -8.886)" fill="#aeafb1"/><path d="M84.2,30.482H82.78v-2.41h.437V30.1H84.2Z" transform="translate(-36.607 -8.886)" fill="#aeafb1"/><path d="M89.624,29.82q0,.7-1.012.7a3,3,0,0,1-.6-.064V28.106a3.354,3.354,0,0,1,.606-.072q.917,0,.917.68a.53.53,0,0,1-.1.311.593.593,0,0,1-.255.208v.008a.547.547,0,0,1,.324.2.625.625,0,0,1,.118.376m-.533-1.087a.276.276,0,0,0-.14-.266.766.766,0,0,0-.311-.05,1.194,1.194,0,0,0-.191.019v.62h.212c.289,0,.43-.106.43-.323m.084,1.058q0-.353-.5-.354h-.223v.681a1.349,1.349,0,0,0,.2.017c.352,0,.529-.115.529-.345" transform="translate(-35.768 -8.892)" fill="#aeafb1"/><path d="M93.392,30.482H92.9l-.236-.613h-.92l-.238.61-.468,0,.986-2.41h.414Zm-.869-1-.313-.812-.311.812Z" transform="translate(-35.282 -8.886)" fill="#aeafb1"/><path d="M96.934,30.452a.707.707,0,0,1-.259.053.539.539,0,0,1-.491-.306L95.3,28.653a.95.95,0,0,1-.046-.087h-.007v1.917h-.435v-2.41h.652l.977,1.786.053.107H96.5V28.07h.436v2.382Z" transform="translate(-34.677 -8.887)" fill="#aeafb1"/><path d="M100.475,30.482H99.9l-.715-.859a.692.692,0,0,0-.164-.155h-.007v1.018h-.436V28.074h.436v.934l.834-.934h.572l-1.07,1.178a.334.334,0,0,1,.147.1Z" transform="translate(-34.073 -8.886)" fill="#aeafb1"/><path d="M106.387,29.285a1.291,1.291,0,0,1-.291.881,1.043,1.043,0,0,1-.837.36,1.03,1.03,0,0,1-.831-.355,1.3,1.3,0,0,1-.294-.885,1.328,1.328,0,0,1,.285-.889,1.165,1.165,0,0,1,1.684,0,1.339,1.339,0,0,1,.283.889m-.466,0a1.073,1.073,0,0,0-.151-.593.615.615,0,0,0-1.022,0,1.1,1.1,0,0,0-.145.593,1.074,1.074,0,0,0,.15.588.576.576,0,0,0,.509.272.563.563,0,0,0,.508-.272,1.064,1.064,0,0,0,.151-.588" transform="translate(-33.182 -8.892)" fill="#aeafb1"/><path d="M109.317,28.45h-.956v.591h.8v.367h-.8V30.48h-.435v-2.41h1.392Z" transform="translate(-32.574 -8.886)" fill="#aeafb1"/><path d="M115.345,30.482h-.489l-.237-.613H113.7l-.238.61-.469,0,.987-2.41h.414Zm-.868-1-.314-.812-.311.812Z" transform="translate(-31.761 -8.886)" fill="#aeafb1"/><path d="M118.155,28.45H117.2v.591h.8v.367h-.8V30.48h-.435v-2.41h1.392Z" transform="translate(-31.157 -8.886)" fill="#aeafb1"/><path d="M121.558,30.487h-.515l-.484-.806a.737.737,0,0,0-.117-.159h-.035a.214.214,0,0,1-.039.006c.007,0-.046-.006-.157-.012v.971h-.435V28.112a2.808,2.808,0,0,1,.62-.073c.624,0,.938.244.938.737a.673.673,0,0,1-.149.424.594.594,0,0,1-.363.226v.007c.051,0,.116.066.2.19Zm-.681-1.725c0-.233-.152-.348-.461-.348a1.054,1.054,0,0,0-.205.021v.725a1.356,1.356,0,0,0,.2.015.52.52,0,0,0,.332-.1.386.386,0,0,0,.138-.311" transform="translate(-30.674 -8.891)" fill="#aeafb1"/><rect width="0.435" height="2.41" transform="translate(92.905 19.186)" fill="#aeafb1"/><path d="M127.15,30.363a1.437,1.437,0,0,1-.638.159,1.178,1.178,0,0,1-.881-.346,1.222,1.222,0,0,1-.339-.891,1.292,1.292,0,0,1,.316-.895,1.078,1.078,0,0,1,.848-.35,1.67,1.67,0,0,1,.687.161l-.143.36a1.375,1.375,0,0,0-.551-.138.6.6,0,0,0-.515.252.9.9,0,0,0-.176.566.946.946,0,0,0,.2.639.753.753,0,0,0,.606.254,1.068,1.068,0,0,0,.471-.113Z" transform="translate(-29.789 -8.891)" fill="#aeafb1"/><path d="M130.881,30.482h-.489l-.237-.613h-.92l-.237.61-.469,0,.987-2.41h.414Zm-.867-1-.313-.812-.31.812Z" transform="translate(-29.27 -8.886)" fill="#aeafb1"/></g></g></svg>