<svg xmlns="http://www.w3.org/2000/svg" width="213.486" height="24.246" viewBox="0 0 213.486 24.246"><g transform="translate(29.133 5.122)"><path d="M18.791-99.551H24.1a7.678,7.678,0,0,1,5.3,1.778A6.128,6.128,0,0,1,31.4-92.957a6.53,6.53,0,0,1-2.14,5.055,7.735,7.735,0,0,1-5.427,1.954H18.791ZM24.1-88.719a3.671,3.671,0,0,0,2.729-1.022A3.9,3.9,0,0,0,27.847-92.6a4.184,4.184,0,0,0-1.086-3.08,3.93,3.93,0,0,0-2.925-1.1H22.182v8.062Z" transform="translate(-18.791 100.73)" fill="#aeafb1"/><path d="M41.16-96.68v10.275H38.017v-1.282a3.922,3.922,0,0,1-3.266,1.613,4.248,4.248,0,0,1-3.193-1.375,4.864,4.864,0,0,1-1.314-3.5,5.447,5.447,0,0,1,1.716-4.1A5.758,5.758,0,0,1,36.095-96.7a8.908,8.908,0,0,1,2.915.537Zm-3.266,7.112v-4.155a3.36,3.36,0,0,0-1.757-.5,2.442,2.442,0,0,0-1.788.7,2.779,2.779,0,0,0-.714,2.068,3,3,0,0,0,.63,2.005,2.121,2.121,0,0,0,1.707.744A2.375,2.375,0,0,0,37.893-89.568Z" transform="translate(-16.954 101.187)" fill="#aeafb1"/><path d="M44.968-97.579a1.965,1.965,0,0,0-.413,1.374v.5h3.494v2.522H44.554v7.4H41.288V-96.08q0-4.487,4.548-4.487a9.69,9.69,0,0,1,3.081.476v2.563a7.383,7.383,0,0,0-2.605-.5A1.766,1.766,0,0,0,44.968-97.579Z" transform="translate(-15.183 100.567)" fill="#aeafb1"/><path d="M55.324-96.517v3.163a4.488,4.488,0,0,0-1.468-.248A3.068,3.068,0,0,0,51-91.97v5.562H47.736V-96.02l3.142-.663v2.3a4.872,4.872,0,0,1,1.468-1.674,3.122,3.122,0,0,1,1.8-.6A4.642,4.642,0,0,1,55.324-96.517Z" transform="translate(-14.149 101.19)" fill="#aeafb1"/><path d="M55.267-97.438a1.681,1.681,0,0,1-.549-1.292,1.72,1.72,0,0,1,.549-1.292,1.87,1.87,0,0,1,1.354-.528,1.907,1.907,0,0,1,1.363.528,1.7,1.7,0,0,1,.558,1.292,1.665,1.665,0,0,1-.558,1.292,1.956,1.956,0,0,1-1.363.507A1.917,1.917,0,0,1,55.267-97.438ZM55.008-95.4l3.266-.663v10.275H55.008Z" transform="translate(-13.029 100.57)" fill="#aeafb1"/><path d="M58.512-96.781v-2.77H71.02v2.77H66.472v10.833H63.08V-96.781Z" transform="translate(-12.42 100.73)" fill="#aeafb1"/><path d="M80.27-87.806a7.484,7.484,0,0,1-5.024,1.819,6.229,6.229,0,0,1-4.227-1.405A4.706,4.706,0,0,1,69.4-91.134a5.286,5.286,0,0,1,1.685-4,5.833,5.833,0,0,1,4.186-1.6,5.049,5.049,0,0,1,3.546,1.24,4.2,4.2,0,0,1,1.354,3.246,4.389,4.389,0,0,1-.331,1.757H72.7q.6,1.984,3.246,1.985a6.369,6.369,0,0,0,3.2-.931Zm-6.585-6.212a2.469,2.469,0,0,0-1,1.353h4.631a2.083,2.083,0,0,0-.641-1.323,2.022,2.022,0,0,0-1.427-.5A2.8,2.8,0,0,0,73.685-94.017Z" transform="translate(-10.675 101.181)" fill="#aeafb1"/><path d="M80.7-87.412a4.862,4.862,0,0,1-1.51-3.7,5.313,5.313,0,0,1,1.674-4.042,5.74,5.74,0,0,1,4.094-1.582,7.668,7.668,0,0,1,3.473.826V-93.1a4.919,4.919,0,0,0-3.039-1.034,2.908,2.908,0,0,0-2.068.735,2.524,2.524,0,0,0-.786,1.933,2.675,2.675,0,0,0,.745,2,2.76,2.76,0,0,0,2.026.733,5.043,5.043,0,0,0,2.791-.91l1.2,1.818a6.542,6.542,0,0,1-2.129,1.344,6.712,6.712,0,0,1-2.522.5A5.51,5.51,0,0,1,80.7-87.412Z" transform="translate(-9.104 101.181)" fill="#aeafb1"/><path d="M98.053-94.959a4.424,4.424,0,0,1,1.055,3.174v5.975H95.842v-4.962q0-2.564-1.778-2.563a2.836,2.836,0,0,0-2.255,1.22v6.306H88.544V-99.745l3.265-.661v5.851a4.628,4.628,0,0,1,3.537-1.51A3.576,3.576,0,0,1,98.053-94.959Z" transform="translate(-7.604 100.593)" fill="#aeafb1"/><path d="M108.615-95.556a4.428,4.428,0,0,1,1.054,3.174v5.975H106.4V-91.37q0-2.564-1.778-2.563a2.886,2.886,0,0,0-2.233,1.179v6.346H99.125V-96.02l3.141-.663v1.654a4.412,4.412,0,0,1,1.634-1.208,4.964,4.964,0,0,1,2.005-.425A3.581,3.581,0,0,1,108.615-95.556Z" transform="translate(-5.907 101.19)" fill="#aeafb1"/><path d="M110.725-87.474a4.813,4.813,0,0,1-1.644-3.723,5.185,5.185,0,0,1,1.7-3.958,5.973,5.973,0,0,1,4.239-1.582,5.859,5.859,0,0,1,4.1,1.5,4.847,4.847,0,0,1,1.644,3.732,5.17,5.17,0,0,1-1.7,3.939,5.975,5.975,0,0,1-4.239,1.58A5.889,5.889,0,0,1,110.725-87.474Zm6.048-1.706a3.044,3.044,0,0,0,.641-2.036,3.406,3.406,0,0,0-.693-2.253,2.339,2.339,0,0,0-1.893-.827,2.183,2.183,0,0,0-1.757.755,3.074,3.074,0,0,0-.641,2.056,3.365,3.365,0,0,0,.693,2.234,2.336,2.336,0,0,0,1.891.826A2.187,2.187,0,0,0,116.773-89.18Z" transform="translate(-4.31 101.181)" fill="#aeafb1"/><path d="M120.143-99.745l3.266-.661v14.6h-3.266Z" transform="translate(-2.536 100.593)" fill="#aeafb1"/><path d="M125.6-87.474a4.816,4.816,0,0,1-1.643-3.723,5.185,5.185,0,0,1,1.7-3.958,5.97,5.97,0,0,1,4.238-1.582,5.862,5.862,0,0,1,4.1,1.5,4.85,4.85,0,0,1,1.643,3.732,5.17,5.17,0,0,1-1.7,3.939,5.975,5.975,0,0,1-4.239,1.58A5.889,5.889,0,0,1,125.6-87.474Zm6.048-1.706a3.044,3.044,0,0,0,.641-2.036,3.406,3.406,0,0,0-.693-2.253A2.337,2.337,0,0,0,129.7-94.3a2.183,2.183,0,0,0-1.757.755,3.074,3.074,0,0,0-.641,2.056A3.371,3.371,0,0,0,128-89.252a2.336,2.336,0,0,0,1.891.826A2.187,2.187,0,0,0,131.646-89.18Z" transform="translate(-1.924 101.181)" fill="#aeafb1"/><path d="M147.2-93.584l-2.419-.166a3.172,3.172,0,0,1,.579,1.861,3.721,3.721,0,0,1-1.51,3,5.886,5.886,0,0,1-3.825,1.22,4.34,4.34,0,0,1-.5-.021l-1.612,2.564a8.349,8.349,0,0,1,4.734-1.551q3.8,0,4.115,4.2l-3.413.414a2.094,2.094,0,0,0-.672-1.468,2.3,2.3,0,0,0-1.416-.393,9.167,9.167,0,0,0-4.775,1.468L134.5-83.723l2.047-4.859a3.9,3.9,0,0,1-2.068-3.494,4.136,4.136,0,0,1,1.561-3.246,5.765,5.765,0,0,1,3.9-1.344,6.457,6.457,0,0,1,2.067.332h5.19Zm-5.624,3.048a1.949,1.949,0,0,0,.642-1.54,2.1,2.1,0,0,0-.682-1.633,2.373,2.373,0,0,0-1.654-.621,2.332,2.332,0,0,0-1.6.579,1.975,1.975,0,0,0-.651,1.551,2.053,2.053,0,0,0,.7,1.612,2.45,2.45,0,0,0,1.676.621A2.28,2.28,0,0,0,141.573-90.536Z" transform="translate(-0.236 101.193)" fill="#aeafb1"/><path d="M146.287-97.438a1.68,1.68,0,0,1-.548-1.292,1.719,1.719,0,0,1,.548-1.292,1.874,1.874,0,0,1,1.354-.528,1.906,1.906,0,0,1,1.365.528,1.7,1.7,0,0,1,.558,1.292,1.665,1.665,0,0,1-.558,1.292,1.955,1.955,0,0,1-1.365.507A1.921,1.921,0,0,1,146.287-97.438Zm-.258,2.038,3.266-.663v10.275h-3.266Z" transform="translate(1.57 100.57)" fill="#aeafb1"/><path d="M160.693-87.806a7.486,7.486,0,0,1-5.025,1.819,6.231,6.231,0,0,1-4.227-1.405,4.707,4.707,0,0,1-1.623-3.742,5.294,5.294,0,0,1,1.685-4,5.84,5.84,0,0,1,4.187-1.6,5.047,5.047,0,0,1,3.546,1.24,4.2,4.2,0,0,1,1.354,3.246,4.369,4.369,0,0,1-.332,1.757h-7.132q.6,1.984,3.246,1.985a6.369,6.369,0,0,0,3.2-.931Zm-6.585-6.212a2.467,2.467,0,0,0-1,1.353h4.63a2.083,2.083,0,0,0-.641-1.323,2.02,2.02,0,0,0-1.427-.5A2.805,2.805,0,0,0,154.108-94.017Z" transform="translate(2.224 101.181)" fill="#aeafb1"/><path d="M161.916-86.389a9.462,9.462,0,0,1-2.408-1l.847-1.944a9.393,9.393,0,0,0,4.4,1.055q1.862,0,1.861-.848a.505.505,0,0,0-.372-.507,7.308,7.308,0,0,0-1.365-.258c-.234-.028-.42-.049-.558-.061a13.565,13.565,0,0,1-1.8-.353,6.655,6.655,0,0,1-1.395-.557,2.436,2.436,0,0,1-.983-.931,2.707,2.707,0,0,1-.33-1.365,3.075,3.075,0,0,1,1.3-2.626,5.963,5.963,0,0,1,3.577-.95,10.5,10.5,0,0,1,4.155.826v2.461a6.563,6.563,0,0,0-1.9-.755,9.286,9.286,0,0,0-2.213-.278q-1.922,0-1.922.868a.524.524,0,0,0,.424.527,11.688,11.688,0,0,0,1.622.3q.827.124,1.365.227a9.868,9.868,0,0,1,1.251.341,3.626,3.626,0,0,1,1.127.567,2.846,2.846,0,0,1,.714.889,2.678,2.678,0,0,1,.3,1.282,3.009,3.009,0,0,1-1.272,2.554,5.783,5.783,0,0,1-3.5.94A10.812,10.812,0,0,1,161.916-86.389Z" transform="translate(3.778 101.181)" fill="#aeafb1"/></g><g transform="translate(0 1.847)"><path d="M-6.267-103.365c.781.793,1.505,1.535,2.237,2.269Q2.992-94.07,10.024-87.052a.428.428,0,0,1,.072.645,8.072,8.072,0,0,1-2.771,2.723.393.393,0,0,1-.57-.068Q.312-90.215-6.143-96.668a.57.57,0,0,1-.164-.36c-.009-2.045-.006-4.089,0-6.134A1.69,1.69,0,0,1-6.267-103.365Z" transform="translate(6.316 103.393)" fill="#aeafb1"/><path d="M10.752-89.208-3.421-103.389c-.03.028-.014,0,0,0,2.159.019,4.324-.034,6.48.081a7.667,7.667,0,0,1,6.014,3.12,9.884,9.884,0,0,1,1.816,4.759c.111.862.106,1.739.146,2.61A14.708,14.708,0,0,1,10.752-89.208Z" transform="translate(6.777 103.389)" fill="#aeafb1"/><path d="M-6.314-94.886,4.512-84c-.874.079-1.739.215-2.605.223-2.64.026-5.281,0-7.922,0-.343,0-.3-.207-.3-.413q.007-3.89.014-7.779c0-.838-.009-1.674-.014-2.512Z" transform="translate(6.316 104.753)" fill="#aeafb1"/></g><g transform="translate(206.108)"><g transform="translate(2.479 2.383)"><path d="M174.612-101.189h-.52v.874h-.651v-2.612h1.266a1.164,1.164,0,0,1,.766.23.761.761,0,0,1,.279.62.789.789,0,0,1-.133.453.892.892,0,0,1-.367.31l.612,1H175.1Zm-.52-.516h.556a.46.46,0,0,0,.31-.1.33.33,0,0,0,.11-.262.312.312,0,0,0-.113-.255.468.468,0,0,0-.307-.094h-.556Z" transform="translate(-173.441 102.927)" fill="#aeafb1"/></g><path d="M174.994-97.6a3.693,3.693,0,0,1-3.689-3.689,3.693,3.693,0,0,1,3.689-3.689,3.693,3.693,0,0,1,3.689,3.689A3.693,3.693,0,0,1,174.994-97.6Zm0-6.851a3.166,3.166,0,0,0-3.162,3.162,3.166,3.166,0,0,0,3.162,3.162,3.166,3.166,0,0,0,3.162-3.162A3.166,3.166,0,0,0,174.994-104.454Z" transform="translate(-171.305 104.981)" fill="#aeafb1"/></g></svg>