<svg xmlns="http://www.w3.org/2000/svg" width="99.635" height="52.618" viewBox="0 0 99.635 52.618"><path d="M31.523-208.821c.745-.157,1.488-.326,2.235-.468a50.4,50.4,0,0,1,10.815-.9,41.175,41.175,0,0,1,11.619,1.861c.824.267.823.272,1.049,1.081q2.078,7.455,4.158,14.911c.036.128.063.26.094.39l-.07.05a1.867,1.867,0,0,0-.1-.174,35.2,35.2,0,0,0-8.2-7.565,56.692,56.692,0,0,0-11.593-5.985,81.079,81.079,0,0,0-9.62-3.02c-.131-.032-.261-.071-.391-.106Z" transform="translate(3.217 217.198)" fill="#aeafb1"/><path d="M25.534-201.422a4.191,4.191,0,0,1-.436-2.163,2.622,2.622,0,0,1,2.158-2.36,2.476,2.476,0,0,1,1.1-.07c-.168.151-.3.261-.421.378-.386.364-.788.714-1.15,1.1a1.838,1.838,0,0,0-.509,1.22c0,.147.017.3.03.483a3.218,3.218,0,0,0,.332-.093c.57-.226,1.141-.449,1.7-.688a15.623,15.623,0,0,1,6.306-1.148,25.815,25.815,0,0,1,7.88,1.459,49.323,49.323,0,0,1,11.28,5.5c2.18,1.4,4.278,2.915,6.338,4.484.355.27.688.571,1.1.914-.2.016-.309.034-.421.034-4.51-.006-9.022-.019-13.532-.013a1.518,1.518,0,0,1-1.214-.553,3.232,3.232,0,0,1-.224-.291A22.3,22.3,0,0,0,33.583-202.1a20.121,20.121,0,0,0-3.336-.777,5.217,5.217,0,0,0-4.564,1.365A1.15,1.15,0,0,1,25.534-201.422Z" transform="translate(2.185 217.864)" fill="#aeafb1"/><path d="M67.244-168.159l-1.615-.934a.882.882,0,0,1,.049-.171,17.218,17.218,0,0,0,1.7-4.965,28.484,28.484,0,0,0,.466-6.629,10.535,10.535,0,0,0-.392-2.7,6.049,6.049,0,0,0-.429-1.056,2.947,2.947,0,0,0-4.958-.219,5.7,5.7,0,0,0-.741,1.933,11.486,11.486,0,0,0-.2,2.316c-.013.98,0,1.962,0,2.944,0,.1.016.21.029.357h4.726v1.842c-1.568.023-3.14,0-4.755.015v3.843H56.73c-.009-.137-.026-.255-.026-.374q0-3.923,0-7.849a8.845,8.845,0,0,1,.782-3.689,7.38,7.38,0,0,1,7.225-4.384,7.091,7.091,0,0,1,5.686,3.067,8.937,8.937,0,0,1,1.709,5.116,15.212,15.212,0,0,1-1.7,7.2,14.254,14.254,0,0,1-2.8,4C67.5-168.381,67.374-168.276,67.244-168.159Z" transform="translate(7.256 220.777)" fill="#aeafb1"/><path d="M1.584-171.63v-15.937c.143-.007.262-.02.382-.02,2.262,0,4.523-.023,6.785.006a8.4,8.4,0,0,1,6.383,2.823,7.8,7.8,0,0,1-1.72,11.767,8.421,8.421,0,0,1-4.555,1.374c-2.316.017-4.632,0-6.948,0C1.817-171.612,1.723-171.622,1.584-171.63Zm4.411-1.538a18.452,18.452,0,0,0,2.049-.055,4.768,4.768,0,0,0,1.977-.724,5.2,5.2,0,0,0,2.141-2.9,9.1,9.1,0,0,0-.01-5.627,5.039,5.039,0,0,0-2.417-3.016,5.291,5.291,0,0,0-2.4-.594c-.443-.017-.888,0-1.345,0Z" transform="translate(-1.584 220.824)" fill="#aeafb1"/><path d="M26.871-182.069l.3-.5c.4-.666.8-1.329,1.191-2a.446.446,0,0,1,.455-.261c.364.016.73,0,1.083,0,.089.334.11,12.273.03,12.794h-3.7v-1.413c-.135.118-.205.167-.261.23a4.225,4.225,0,0,1-3.087,1.459,6.27,6.27,0,0,1-2.839-.453,5.632,5.632,0,0,1-3.108-3.141,7.856,7.856,0,0,1,0-6.167,5.793,5.793,0,0,1,6.27-3.56,4.325,4.325,0,0,1,3.442,2.528c.036.073.065.15.1.224Zm-6.735,3.861c.036.356.066.942.158,1.519a4.964,4.964,0,0,0,.8,2.12,2.442,2.442,0,0,0,3.933.079,5.108,5.108,0,0,0,.81-1.637,8.825,8.825,0,0,0,.195-4.124,5.508,5.508,0,0,0-.6-1.768,2.588,2.588,0,0,0-4.525.026,6.147,6.147,0,0,0-.388.9A9.53,9.53,0,0,0,20.136-178.208Z" transform="translate(0.778 221.219)" fill="#aeafb1"/><path d="M59.433-215.177c-.118.137-.193.233-.277.318-1.276,1.286-2.56,2.566-3.83,3.857a.688.688,0,0,1-.653.208c-1.591-.215-3.182-.451-4.78-.608a41.112,41.112,0,0,0-5.185-.171,42.388,42.388,0,0,0-7.261.794,32.939,32.939,0,0,0-9.849,3.616.566.566,0,0,1-.291.092c.08-.088.155-.181.243-.262a32.227,32.227,0,0,1,13.4-7.623,34.4,34.4,0,0,1,10.5-1.258,43.183,43.183,0,0,1,7.612.936C59.171-215.256,59.274-215.221,59.433-215.177Z" transform="translate(2.542 216.231)" fill="#aeafb1"/><path d="M35.81-183.956h3.846v1.491H35.793v11.32H32.03c-.006-1.247,0-2.494,0-3.741s0-2.506,0-3.761v-3.794H29.718c-.062-.511-.016-.978-.03-1.467a5.6,5.6,0,0,1,1.157-.046c.377-.009.757,0,1.15,0,.042-.552.072-1.066.122-1.577a7.45,7.45,0,0,1,.441-1.9,4.463,4.463,0,0,1,3.191-2.9,9.6,9.6,0,0,1,5.165.072,5.909,5.909,0,0,1,2.027,1.063l-2.091,3.463c-.089-.428-.145-.759-.229-1.083a2.969,2.969,0,0,0-.779-1.413,2.47,2.47,0,0,0-2.772-.389,1.741,1.741,0,0,0-.827.977,7.51,7.51,0,0,0-.31,1.222,12.623,12.623,0,0,0-.12,1.343C35.8-184.734,35.81-184.38,35.81-183.956Z" transform="translate(2.923 220.333)" fill="#aeafb1"/><path d="M48.75-180.206c-.144-.393-.252-.716-.378-1.03a4.017,4.017,0,0,0-1.2-1.768,1.614,1.614,0,0,0-2.162.093,2.582,2.582,0,0,0-.552.75,8.4,8.4,0,0,0-.486,1.381,9.5,9.5,0,0,0-.254,2.39q0,2.942,0,5.884v.47H39.969v-12.791h1.276c.175,0,.216.143.276.262q.576,1.128,1.15,2.256c.062.12.129.237.219.4.071-.116.122-.2.174-.282a14.662,14.662,0,0,1,.942-1.475,3.815,3.815,0,0,1,2.981-1.461,5.889,5.889,0,0,1,2.744.511,2.4,2.4,0,0,1,1.113.929Z" transform="translate(4.572 221.22)" fill="#aeafb1"/><path d="M88.954-183.667l-2.064,3.423c-.061-.121-.1-.194-.137-.272-.219-.512-.42-1.033-.663-1.534a2.71,2.71,0,0,0-.812-.961,1.639,1.639,0,0,0-2.166.1,3.079,3.079,0,0,0-.772,1.237,7.785,7.785,0,0,0-.482,2.557c-.027,1.362-.017,2.726-.021,4.088,0,.859,0,1.716,0,2.575,0,.133-.012.266-.019.421H78.132c-.078-.3-.1-12.188-.022-12.794.42,0,.852-.016,1.28.013.093.007.2.162.259.273.385.736.758,1.478,1.136,2.217.066.13.138.255.233.432.087-.162.144-.282.212-.395a13.806,13.806,0,0,1,.779-1.244,3.913,3.913,0,0,1,3.166-1.6,5.9,5.9,0,0,1,2.7.526A2.155,2.155,0,0,1,88.954-183.667Z" transform="translate(10.682 221.22)" fill="#aeafb1"/><path d="M50.725-184.836h3.723v12.714a28.968,28.968,0,0,1-3.723.027Z" transform="translate(6.297 221.267)" fill="#aeafb1"/><path d="M43.432-195.045c-.465.081-.929.169-1.395.245a20.125,20.125,0,0,1-4.273.284c-.367-.02-.732-.068-1.1-.124a5.643,5.643,0,0,1-3.6-2.354c-.117-.15-.223-.31-.328-.469a5.883,5.883,0,0,0-4.418-2.689,6.994,6.994,0,0,1-2.515-.8c-.072-.038-.143-.08-.211-.125-.019-.012-.026-.043-.055-.1a6.292,6.292,0,0,1,1.352-.211,19.59,19.59,0,0,1,8.97,1.571,28.874,28.874,0,0,1,7.462,4.568,1.231,1.231,0,0,0,.139.088Z" transform="translate(2.259 218.605)" fill="#aeafb1"/><path d="M75.835-172.072H72.117v-12.712a26.193,26.193,0,0,1,3.718-.019Z" transform="translate(9.728 221.263)" fill="#aeafb1"/><path d="M54.669-187.258a2.08,2.08,0,0,1-2.047,2.068,2.069,2.069,0,0,1-2.063-2.047,2.045,2.045,0,0,1,2.042-2.056A2.052,2.052,0,0,1,54.669-187.258Z" transform="translate(6.271 220.552)" fill="#aeafb1"/><path d="M74-189.292a2.032,2.032,0,0,1,2.046,2.047A2.056,2.056,0,0,1,74-185.19a2.061,2.061,0,0,1-2.047-2.059A2.036,2.036,0,0,1,74-189.292Z" transform="translate(9.702 220.552)" fill="#aeafb1"/><path d="M29.244-206.668l5.918-1.075.035.074c-.13.07-.258.144-.391.208a5.564,5.564,0,0,0-1.476,1,2.883,2.883,0,0,1-3.96-.036A1.583,1.583,0,0,1,29.244-206.668Z" transform="translate(2.852 217.593)" fill="#aeafb1"/></svg>