<svg xmlns="http://www.w3.org/2000/svg" width="135.787" height="33.634" viewBox="0 0 135.787 33.634"><path d="M-334.552-77.175c.33-1.932.638-3.761.953-5.588.831-4.847,1.672-9.692,2.487-14.541.075-.449.229-.609.683-.608q14.436.014,28.874.01a3.818,3.818,0,0,1,.478.067c-.375,2.194-.741,4.35-1.111,6.506-.385,2.245-.715,4.5-1.17,6.733a9.421,9.421,0,0,1-9.166,7.421q-10.515,0-21.03,0Z" transform="translate(334.552 110.809)" fill="#aeafb1"/><path d="M-331.06-98.958c.269-1.615.523-3.171.788-4.726.26-1.534.554-3.063.782-4.6.082-.551.289-.741.851-.739,7.179.015,14.357-.022,21.536.023a6.239,6.239,0,0,1,6.4,7.23c-.1.932-.277,1.857-.424,2.814Z" transform="translate(335.112 109.026)" fill="#aeafb1"/><path d="M-301.019-84.239v-16.406a3.6,3.6,0,0,1,.5-.067c2.417.026,4.85-.11,7.247.126a7.355,7.355,0,0,1,6.853,7.327,11.481,11.481,0,0,1-.5,3.927,7.049,7.049,0,0,1-5.865,4.937,8.58,8.58,0,0,1-1.491.149C-296.495-84.23-298.714-84.239-301.019-84.239Zm3.089-2.993c1.136,0,2.19.012,3.243,0,3.163-.041,5.011-1.79,5.238-4.949a4.846,4.846,0,0,0-4.052-5.448,32.513,32.513,0,0,0-4.429-.036Z" transform="translate(339.93 110.357)" fill="#aeafb1"/><path d="M-252.6-100.654c2.931,0,5.808-.19,8.647.05,3.33.281,5.325,2.933,5.087,6.254a5.666,5.666,0,0,1-5.84,5.264c-1.579.023-3.16,0-4.809,0v4.776H-252.6ZM-249.5-92c1.8,0,3.5.107,5.181-.031a2.616,2.616,0,0,0,2.372-2.844,2.679,2.679,0,0,0-2.447-2.8c-1.68-.115-3.374-.027-5.106-.027Z" transform="translate(347.696 110.357)" fill="#aeafb1"/><path d="M-230.279-96.454h2.643V-84.92h-2.631l-.126-1.149a14.134,14.134,0,0,1-2.725,1.356c-3.586.92-6.592-1.4-6.99-5.282-.459-4.486,3.238-7.789,7.373-6.533a13.615,13.615,0,0,1,2.292,1.2Zm-.208,5.814a3.291,3.291,0,0,0-3.266-3.553,3.279,3.279,0,0,0-3.487,3.5,3.293,3.293,0,0,0,3.394,3.516A3.28,3.28,0,0,0-230.487-90.64Z" transform="translate(349.693 110.988)" fill="#aeafb1"/><path d="M-274.7-84.929h-2.625l-.173-1.351c-2.7,2.284-6.068,2.26-8.181,0a6.969,6.969,0,0,1,.074-8.81,5.89,5.89,0,0,1,8.072-.065l.18-1.294h2.653ZM-284.3-90.7a3.292,3.292,0,0,0,3.4,3.512,3.288,3.288,0,0,0,3.357-3.546,3.28,3.28,0,0,0-3.352-3.467A3.275,3.275,0,0,0-284.3-90.7Z" transform="translate(342.145 111)" fill="#aeafb1"/><path d="M-225.989-80.065c.682-1.591,1.323-3,1.882-4.443a1.858,1.858,0,0,0,.009-1.238c-1.3-3.306-2.653-6.592-3.987-9.885-.1-.253-.194-.509-.345-.906,1.079,0,2.063-.034,3.04.029.188.012.426.376.514.622.774,2.17,1.52,4.349,2.275,6.526.1.282.2.562.359.991.215-.53.378-.932.541-1.334.841-2.085,1.692-4.166,2.516-6.258a.763.763,0,0,1,.852-.591c.8.041,1.609.01,2.547.01-.117.327-.191.578-.295.817-2.137,4.973-4.29,9.941-6.4,14.925a1.02,1.02,0,0,1-1.173.748C-224.371-80.105-225.092-80.065-225.989-80.065Z" transform="translate(351.573 111.026)" fill="#aeafb1"/><path d="M-275.273-93.126V-95.64h2.1c-.07-2.256.434-4.2,2.763-5.007a5.126,5.126,0,0,1,4.667.668l-1.01,2.078c-.964-.4-1.944-.921-2.893-.151-.726.588-.689,1.449-.607,2.379.918,0,1.8.03,2.683-.01.56-.026.739.187.707.721-.034.552-.008,1.109-.008,1.772h-3.422v8.942h-2.823v-8.878Z" transform="translate(344.059 110.323)" fill="#aeafb1"/><path d="M-263.3-95.477c1.982-1.625,4.472-1.713,6.09-.123l-1.152,2.219a13.235,13.235,0,0,0-2.364-.477,2.456,2.456,0,0,0-2.671,2.575c-.059,1.807-.028,3.616-.035,5.424,0,.3,0,.594,0,.979-.88,0-1.652.024-2.422-.021a.627.627,0,0,1-.428-.434c-.024-3.666-.019-7.332-.019-11.172a13.073,13.073,0,0,1,2.294.044C-263.73-96.412-263.553-95.855-263.3-95.477Z" transform="translate(345.499 110.996)" fill="#aeafb1"/><path d="M-254.691-84.962h-2.765V-96.495h2.765Z" transform="translate(346.917 111.036)" fill="#aeafb1"/><path d="M-256.023-97.4a1.6,1.6,0,0,1-1.714-1.632,1.6,1.6,0,0,1,1.7-1.724,1.578,1.578,0,0,1,1.662,1.672A1.586,1.586,0,0,1-256.023-97.4Z" transform="translate(346.872 110.353)" fill="#aeafb1"/></svg>