<svg xmlns="http://www.w3.org/2000/svg" width="172.257" height="51.753" viewBox="0 0 172.257 51.753"><g transform="translate(69.374 14.57)"><path d="M59.785,33.933V12.556h4.642q3.467,0,4.892,1.572t1.425,4.951v7.864A8.209,8.209,0,0,1,69.331,32.2q-1.412,1.734-4.687,1.735Zm2.978-2.141h1.676a4.774,4.774,0,0,0,1.207-.136,3.916,3.916,0,0,0,.869-.321,1.53,1.53,0,0,0,.587-.6,3.587,3.587,0,0,0,.548-1.793q.064-.682.078-1.166t.013-1.4v-6.95c0-.515-.008-.95-.027-1.3s-.051-.7-.1-1.057a3.192,3.192,0,0,0-.233-.863,2.943,2.943,0,0,0-.4-.638,1.606,1.606,0,0,0-.606-.465,3.749,3.749,0,0,0-.851-.251,6.392,6.392,0,0,0-1.148-.091H62.763Z" transform="translate(-59.785 -12.556)" fill="#aeafb1"/><path d="M74.341,33.336a2.718,2.718,0,0,1-2.185-1.078,3.782,3.782,0,0,1-.883-2.468,5.257,5.257,0,0,1,.354-1.967,6.553,6.553,0,0,1,.754-1.424,4.74,4.74,0,0,1,1.387-1.128,17.058,17.058,0,0,1,1.528-.832q.54-.245,1.895-.8c.052-.026.089-.042.116-.052v-1.1a5.239,5.239,0,0,0-.3-2.107,1.231,1.231,0,0,0-1.231-.625q-1.6,0-1.6,2.166v.76l-2.8-.1c0-.154.008-.343.026-.567a4.679,4.679,0,0,1,1.276-3.327,4.723,4.723,0,0,1,3.287-1.043,3.874,3.874,0,0,1,3.185,1.2,5.674,5.674,0,0,1,.979,3.63v6.975a27.616,27.616,0,0,0,.259,3.662h-2.58a22.449,22.449,0,0,1-.374-2.256,3.954,3.954,0,0,1-1.1,1.752A2.816,2.816,0,0,1,74.341,33.336Zm1.122-2.45a1.676,1.676,0,0,0,1.064-.427,3.535,3.535,0,0,0,.78-.838V25.3a15.313,15.313,0,0,0-1.96,1.237,3,3,0,0,0-1.238,2.386,2.56,2.56,0,0,0,.349,1.444A1.137,1.137,0,0,0,75.463,30.886Z" transform="translate(-57.943 -11.74)" fill="#aeafb1"/><path d="M82.283,33.829V20.666H80.44v-2.1h1.843v-.786c0-.62.022-1.143.065-1.573a5.607,5.607,0,0,1,.27-1.25,2.506,2.506,0,0,1,.562-.968,2.459,2.459,0,0,1,.954-.573,4.331,4.331,0,0,1,1.45-.214,15.576,15.576,0,0,1,1.831.142v2.115q-1.032-.129-1.044-.129a1.047,1.047,0,0,0-1.026.483,3.338,3.338,0,0,0-.252,1.477v1.275h2.334v2.1H85.093V33.829Z" transform="translate(-56.472 -12.453)" fill="#aeafb1"/><path d="M87.839,33.115V17.849h2.823v2.18a5.436,5.436,0,0,1,1.619-1.845,3.23,3.23,0,0,1,1.76-.528,3.72,3.72,0,0,1,.463.026V20.8a4.373,4.373,0,0,0-1.547-.3,2.4,2.4,0,0,0-1.244.314,3.356,3.356,0,0,0-1.051,1.141V33.115Z" transform="translate(-55.286 -11.738)" fill="#aeafb1"/><path d="M95.249,16.288V13.322h2.837v2.966Zm0,17.522V18.544h2.824V33.81Z" transform="translate(-54.097 -12.433)" fill="#aeafb1"/><path d="M100.505,33.933V12.556h8.277v2.2h-5.3v7.066h4.306v2.127h-4.306v7.838h5.363v2.141Z" transform="translate(-53.254 -12.556)" fill="#aeafb1"/><path d="M112.7,33.336a4,4,0,0,1-3-1.167,4.9,4.9,0,0,1-1.308-3.127l2.359-.709a4.941,4.941,0,0,0,.657,2.2,1.6,1.6,0,0,0,1.405.715,1.639,1.639,0,0,0,1.238-.5,1.612,1.612,0,0,0,.437-1.258,3.083,3.083,0,0,0-1.237-2.14l-2.6-2.23a6.246,6.246,0,0,1-1.418-1.643,3.945,3.945,0,0,1-.464-2.083,3.771,3.771,0,0,1,1.1-2.772,4,4,0,0,1,2.849-.979,3.456,3.456,0,0,1,2.727,1.128,4.852,4.852,0,0,1,1.153,2.881l-1.907.71a4.952,4.952,0,0,0-.594-1.967,1.407,1.407,0,0,0-1.276-.677,1.453,1.453,0,0,0-1.108.45,1.51,1.51,0,0,0-.413,1.109,2.016,2.016,0,0,0,.76,1.547l2.708,2.476a7.873,7.873,0,0,1,1.592,1.843,4.354,4.354,0,0,1,.573,2.282,3.653,3.653,0,0,1-1.141,2.907A4.515,4.515,0,0,1,112.7,33.336Z" transform="translate(-51.989 -11.74)" fill="#aeafb1"/><path d="M121.737,33.922a3.1,3.1,0,0,1-2.508-.916,4.271,4.271,0,0,1-.793-2.734V20.319h-1.6V18.437h1.6V13.989h2.823v4.448h2.45v1.882h-2.45v9.76a2.158,2.158,0,0,0,.29,1.29,1.338,1.338,0,0,0,1.1.374,7.3,7.3,0,0,0,1.044-.065v2.089A16.711,16.711,0,0,1,121.737,33.922Z" transform="translate(-50.635 -12.326)" fill="#aeafb1"/><path d="M127.351,33.336a2.717,2.717,0,0,1-2.185-1.078,3.782,3.782,0,0,1-.883-2.468,5.235,5.235,0,0,1,.354-1.967,6.5,6.5,0,0,1,.754-1.424,4.7,4.7,0,0,1,1.385-1.128,17.057,17.057,0,0,1,1.528-.832q.541-.245,1.895-.8c.052-.026.091-.042.116-.052v-1.1a5.219,5.219,0,0,0-.3-2.107,1.231,1.231,0,0,0-1.231-.625q-1.6,0-1.6,2.166v.76l-2.8-.1c0-.154.008-.343.026-.567a4.673,4.673,0,0,1,1.275-3.327,4.726,4.726,0,0,1,3.289-1.043,3.872,3.872,0,0,1,3.184,1.2,5.674,5.674,0,0,1,.981,3.63v6.975a27.8,27.8,0,0,0,.258,3.662h-2.578a22.127,22.127,0,0,1-.374-2.256,3.956,3.956,0,0,1-1.1,1.752A2.815,2.815,0,0,1,127.351,33.336Zm1.122-2.45a1.676,1.676,0,0,0,1.063-.427,3.511,3.511,0,0,0,.78-.838V25.3a15.313,15.313,0,0,0-1.96,1.237,3,3,0,0,0-1.237,2.386,2.56,2.56,0,0,0,.348,1.444A1.141,1.141,0,0,0,128.473,30.886Z" transform="translate(-49.441 -11.74)" fill="#aeafb1"/><path d="M138.236,33.922a3.1,3.1,0,0,1-2.508-.916,4.27,4.27,0,0,1-.793-2.734V20.319h-1.6V18.437h1.6V13.989h2.823v4.448h2.45v1.882h-2.45v9.76a2.166,2.166,0,0,0,.29,1.29,1.338,1.338,0,0,0,1.1.374,7.3,7.3,0,0,0,1.044-.065v2.089A16.711,16.711,0,0,1,138.236,33.922Z" transform="translate(-47.988 -12.326)" fill="#aeafb1"/><path d="M145.339,33.336a5.7,5.7,0,0,1-2.23-.381,2.942,2.942,0,0,1-1.385-1.186,5.448,5.448,0,0,1-.7-1.883,14.8,14.8,0,0,1-.2-2.649V23.743a14.145,14.145,0,0,1,.214-2.675,5.43,5.43,0,0,1,.715-1.882,2.964,2.964,0,0,1,1.387-1.167,5.61,5.61,0,0,1,2.185-.374,6.162,6.162,0,0,1,1.445.154,4,4,0,0,1,1.088.426,2.514,2.514,0,0,1,.78.728,4.625,4.625,0,0,1,.522.968,6.026,6.026,0,0,1,.317,1.237,14.141,14.141,0,0,1,.154,1.45q.038.722.038,1.69l-.013,1.238H143.65v2.2c0,.429,0,.747.006.954s.021.475.051.805a2.649,2.649,0,0,0,.149.741,3.173,3.173,0,0,0,.283.516.97.97,0,0,0,.471.379,2,2,0,0,0,.7.109,1.275,1.275,0,0,0,1.244-.624,4.222,4.222,0,0,0,.328-1.889V27.8h2.759V28.4Q149.645,33.335,145.339,33.336ZM143.65,24h3.235v-1.38q0-.606-.032-1.018a4.731,4.731,0,0,0-.129-.8,1.645,1.645,0,0,0-.263-.606A1.143,1.143,0,0,0,146,19.85a1.709,1.709,0,0,0-.7-.129,1.3,1.3,0,0,0-1.329.721,7.713,7.713,0,0,0-.321,2.734Z" transform="translate(-46.787 -11.74)" fill="#aeafb1"/></g><path d="M47.359,30.254v4.739C28.543,38.423,12.2,49.617,12.2,49.617L9.925,45.386A141.7,141.7,0,0,1,38.664,32.729C42.447,31.522,45.479,30.716,47.359,30.254Zm0-4.371a57.561,57.561,0,0,0-10.442,2.264c-2.24.681-4.441,1.481-6.579,2.334a129.074,129.074,0,0,0-22.2,11.648L5.53,39.034A109.049,109.049,0,0,1,24.706,28.5c2.012-.854,3.956-1.606,5.8-2.264,2.921-1.05,5.616-1.865,8-2.5a83.154,83.154,0,0,1,8.851-1.864v4.01Zm0-12.565a76.466,76.466,0,0,0-8.711,1.426c-2.459.549-5.255,1.276-8.311,2.256-1.786.572-3.666,1.23-5.624,1.982-1.872.721-3.814,1.535-5.811,2.452-1.543.7-3.126,1.473-4.724,2.3A110.545,110.545,0,0,0,0,32.525l2.93,3.423a86.949,86.949,0,0,1,15.978-9.9c1.583-.783,3.266-1.56,5.045-2.3,2.06-.877,4.245-1.723,6.54-2.506,2.045-.689,4.175-1.331,6.391-1.9a83.362,83.362,0,0,1,10.474-2.021l.234-.023c-.071-.023-.149-.039-.234-.063Z" transform="translate(0 2.136)" fill="#aeafb1"/><path d="M47.359,14.616v4.747c-1.88-.462-4.92-1.269-8.711-2.483A141.731,141.731,0,0,1,9.925,4.23L12.2,0S28.543,11.186,47.359,14.616ZM36.885,21.471c-2.224-.689-4.426-1.481-6.548-2.335A128.816,128.816,0,0,1,8.139,7.481L5.53,10.575A109.212,109.212,0,0,0,24.713,21.118c2.005.854,3.941,1.606,5.781,2.256,2.93,1.05,5.633,1.865,8.014,2.5a82.931,82.931,0,0,0,8.851,1.865v-4A57.9,57.9,0,0,1,36.885,21.471ZM47.359,32.3a81.844,81.844,0,0,1-10.442-2.013c-2.216-.564-4.355-1.214-6.406-1.911-2.3-.776-4.5-1.622-6.556-2.491-1.787-.76-3.471-1.535-5.052-2.31a87.518,87.518,0,0,1-15.972-9.9L0,17.084a109.5,109.5,0,0,0,14.178,8.788c1.606.839,3.189,1.606,4.731,2.311,1.99.917,3.933,1.723,5.8,2.452q2.936,1.128,5.631,1.982c3.062.978,5.867,1.707,8.327,2.248a72.72,72.72,0,0,0,8.695,1.425v-3.9c.094-.024.18-.048.258-.063C47.531,32.319,47.445,32.3,47.359,32.3Z" fill="#aeafb1"/><path d="M41.047,16.75l-.234.023v-.086C40.9,16.71,40.977,16.726,41.047,16.75Z" transform="translate(6.546 2.676)" fill="#aeafb1"/><path d="M40.813,27.832c.086.007.172.023.258.031-.078.015-.164.038-.258.063Z" transform="translate(6.546 4.464)" fill="#aeafb1"/><line y1="0.282" transform="translate(47.358 27.737)" stroke="#aeafb1" stroke-width="1"/></svg>