<svg xmlns="http://www.w3.org/2000/svg" width="183.891" height="28.574" viewBox="0 0 183.891 28.574"><path d="M43.654,23.979c0-.038,0-.05.056-.05h1.259a1.327,1.327,0,0,1,.749.195,1.007,1.007,0,0,1,.428.566,5.042,5.042,0,0,1,0,1.889,1.1,1.1,0,0,1-.39.547,1.261,1.261,0,0,1-.787.22H43.71c-.038,0-.056,0-.056-.05Zm.767,2.694h.384c.346,0,.56-.126.63-.371a2.5,2.5,0,0,0,.056-.674,2.375,2.375,0,0,0-.056-.667c-.076-.252-.29-.378-.63-.378h-.384v2.033S44.4,26.673,44.421,26.673Z" fill="#aeafb1"/><path d="M49.016,23.979c0-.038,0-.05.05-.05h.63c.037,0,.05,0,.05.05v3.3a.05.05,0,0,1-.05.051h-.63a.044.044,0,0,1-.05-.037.033.033,0,0,1,0-.014Z" fill="#aeafb1"/><path d="M52.547,26.245a4.715,4.715,0,0,1,0-.629v-.5a1.644,1.644,0,0,1,.081-.428,1.119,1.119,0,0,1,.46-.629,1.455,1.455,0,0,1,.793-.208,1.511,1.511,0,0,1,.73.176,1.043,1.043,0,0,1,.478.548.051.051,0,0,1,.005.071l-.005,0-.535.227h-.069a.632.632,0,0,0-.585-.353.517.517,0,0,0-.548.384,4.726,4.726,0,0,0,0,1.454.522.522,0,0,0,.56.378.629.629,0,0,0,.34-.095.435.435,0,0,0,.2-.258,1.014,1.014,0,0,0,.044-.333h-.46c-.038,0-.05,0-.05-.05v-.479a.049.049,0,0,1,.05-.05h1.171a.043.043,0,0,1,.05.037.029.029,0,0,1,0,.013V25.8a2.552,2.552,0,0,1-.088.768,1.131,1.131,0,0,1-.453.629,1.356,1.356,0,0,1-.787.221,1.464,1.464,0,0,1-.793-.208,1.1,1.1,0,0,1-.459-.629A2.575,2.575,0,0,1,52.547,26.245Z" fill="#aeafb1"/><path d="M57.959,23.979c0-.038,0-.05.051-.05h.629c.038,0,.05,0,.05.05v3.3a.05.05,0,0,1-.05.051H58.01a.045.045,0,0,1-.051-.037V23.979Z" fill="#aeafb1"/><path d="M62.3,27.334c-.032,0-.044,0-.044-.051V24.615h-.894a.044.044,0,0,1-.05-.037.029.029,0,0,1,0-.013v-.554c0-.038,0-.051.05-.051h2.518c.031,0,.05,0,.05.051v.554a.044.044,0,0,1-.037.05h-.9v2.668a.052.052,0,0,1-.056.051Z" fill="#aeafb1"/><path d="M67.148,23.979a.056.056,0,0,1,.062-.05h.63a.056.056,0,0,1,.063.05h0l1.158,3.3s0,.051-.037.051h-.63a.07.07,0,0,1-.063-.051l-.195-.629H66.947l-.195.629a.064.064,0,0,1-.063.051h-.63s-.044,0-.037-.051Zm.762,2.083-.384-1.195h0l-.39,1.195Z" fill="#aeafb1"/><path d="M71.661,23.979c0-.038,0-.05.05-.05h.629a.05.05,0,0,1,.051.05v2.669H73.92c.038,0,.051,0,.051.05v.56a.05.05,0,0,1-.051.051H71.705a.046.046,0,0,1-.051-.037v-.014Z" fill="#aeafb1"/><path d="M76.62,23.979c0-.038,0-.05.051-.05H77.3a.049.049,0,0,1,.05.05v3.3a.044.044,0,0,1-.036.051h-.643a.045.045,0,0,1-.051-.037V23.979Z" fill="#aeafb1"/><path d="M80.617,27.252a1.5,1.5,0,0,1-.567-.334v-.081l.378-.435H80.5a1.441,1.441,0,0,0,.894.353.674.674,0,0,0,.409-.114.361.361,0,0,0,.145-.3.282.282,0,0,0-.12-.246.859.859,0,0,0-.4-.132h-.183c-.717-.1-1.076-.441-1.076-1.026a.951.951,0,0,1,.327-.755,1.308,1.308,0,0,1,.881-.283,2.166,2.166,0,0,1,.63.094,1.645,1.645,0,0,1,.516.258c.031,0,.038.044,0,.076l-.3.459a.051.051,0,0,1-.071,0l0,0a1.459,1.459,0,0,0-.787-.258.51.51,0,0,0-.339.1.344.344,0,0,0-.12.264c0,.2.176.327.535.378h.176c.718.1,1.076.44,1.076,1.032a.971.971,0,0,1-.352.774,1.457,1.457,0,0,1-.988.3A2.136,2.136,0,0,1,80.617,27.252Z" fill="#aeafb1"/><path d="M85.4,23.979c0-.038,0-.05.05-.05h.63c.031,0,.05,0,.05.05v3.3a.045.045,0,0,1-.037.051H85.45a.044.044,0,0,1-.05-.037.033.033,0,0,1,0-.014Z" fill="#aeafb1"/><path d="M88.994,23.979c0-.038,0-.05.05-.05h.629a.1.1,0,0,1,.089.05l1.2,2.14h0v-2.14c0-.038,0-.05.05-.05h.566c.032,0,.045,0,.045.05v3.3s0,.051-.045.051h-.6a.1.1,0,0,1-.089-.051l-1.2-2.139h0v2.139a.044.044,0,0,1-.036.051h-.58c-.038,0-.051,0-.051-.051Z" fill="#aeafb1"/><path d="M94.413,26.245a4.715,4.715,0,0,1,0-.629v-.5a1.686,1.686,0,0,1,.081-.428,1.119,1.119,0,0,1,.46-.629,1.455,1.455,0,0,1,.793-.208,1.546,1.546,0,0,1,.736.176,1.1,1.1,0,0,1,.479.548.056.056,0,0,1,0,.075l-.535.227h-.07a.63.63,0,0,0-.585-.353.516.516,0,0,0-.547.384,5.207,5.207,0,0,0,0,1.454.528.528,0,0,0,.56.378.629.629,0,0,0,.34-.095.433.433,0,0,0,.2-.258,1.014,1.014,0,0,0,.044-.333m-.031,0h-.46c-.038,0-.05,0-.05-.05v-.479a.049.049,0,0,1,.05-.05H97.05a.043.043,0,0,1,.05.037.029.029,0,0,1,0,.013V25.8a2.584,2.584,0,0,1-.088.768,1.131,1.131,0,0,1-.453.629,1.356,1.356,0,0,1-.787.221,1.464,1.464,0,0,1-.793-.208,1.1,1.1,0,0,1-.459-.629,2.647,2.647,0,0,1-.107-.334Z" fill="#aeafb1"/><path d="M104.13,23.979a.063.063,0,0,1,.069-.05h.63a.056.056,0,0,1,.063.05h0l1.152,3.3s0,.051-.032.051h-.629a.069.069,0,0,1-.063-.051l-.195-.629H103.9l-.195.629a.065.065,0,0,1-.063.051h-.63c-.038,0-.044,0-.038-.051Zm.768,2.083-.384-1.195h0l-.384,1.195Z" fill="#aeafb1"/><path d="M108.649,23.979c0-.038,0-.05.051-.05h2.183a.045.045,0,0,1,.044.05v.535s0,.051-.044.051h-1.472v.717h1.227c.031,0,.044,0,.044.05v.529c0,.038,0,.05-.044.05h-1.227V27.17a.046.046,0,0,1-.037.051h-.643c-.038,0-.05,0-.05-.051Z" fill="#aeafb1"/><path d="M115.522,27.334a.075.075,0,0,1-.069-.051l-.592-1.258h-.485v1.221a.049.049,0,0,1-.05.05H113.7a.045.045,0,0,1-.051-.037v-3.28c0-.038,0-.05.051-.05h1.359a1.174,1.174,0,0,1,.837.3.974.974,0,0,1,.321.755,1.037,1.037,0,0,1-.163.573.973.973,0,0,1-.447.377l.673,1.341a.037.037,0,0,1,0,.038.033.033,0,0,1-.038,0Zm-.183-2.046a.385.385,0,0,0,.133-.308.379.379,0,0,0-.133-.3.464.464,0,0,0-.327-.113h-.661v.786m.032,0h.629a.443.443,0,0,0,.327-.063Z" fill="#aeafb1"/><path d="M118.971,23.979c0-.038,0-.05.05-.05h.63c.037,0,.05,0,.05.05v3.3a.05.05,0,0,1-.05.051h-.63a.044.044,0,0,1-.05-.037.033.033,0,0,1,0-.014Z" fill="#aeafb1"/><path d="M122.5,26.245a4.4,4.4,0,0,1,0-.629V25.15a1.624,1.624,0,0,1,.088-.453,1.135,1.135,0,0,1,.447-.63,1.472,1.472,0,0,1,1.5,0,1.15,1.15,0,0,1,.453.56v.063l-.548.246h-.069a.56.56,0,0,0-.541-.384.5.5,0,0,0-.51.378,3.026,3.026,0,0,0-.05.73,2.934,2.934,0,0,0,.05.73.5.5,0,0,0,.51.377.553.553,0,0,0,.541-.384c0-.037.044-.044.069,0l.548.246s.044,0,0,.057a1.15,1.15,0,0,1-.453.56,1.333,1.333,0,0,1-.73.195,1.36,1.36,0,0,1-.768-.208,1.167,1.167,0,0,1-.447-.629A2.115,2.115,0,0,1,122.5,26.245Z" fill="#aeafb1"/><path d="M128.569,23.979a.056.056,0,0,1,.062-.05h.63a.062.062,0,0,1,.069.05l1.152,3.3s0,.051-.038.051h-.629a.07.07,0,0,1-.069-.051l-.2-.629h-1.19l-.189.629a.069.069,0,0,1-.069.051h-.629s-.044,0,0-.051Zm.768,2.083-.39-1.195h0l-.384,1.195Z" fill="#aeafb1"/><path d="M49.6,1.756a7.75,7.75,0,0,1,3.1.585,7,7,0,0,1,2.285,1.574A6.857,6.857,0,0,1,56.4,6.162a7.125,7.125,0,0,1,.491,2.605,7.258,7.258,0,0,1-.484,2.606,6.759,6.759,0,0,1-1.41,2.247,7,7,0,0,1-2.3,1.573,7.8,7.8,0,0,1-3.1.592H44.44V1.756Zm-1.888,2.8v8.421H49.45a4.223,4.223,0,0,0,1.756-.353,3.928,3.928,0,0,0,1.3-.944,4.172,4.172,0,0,0,.812-1.34,4.577,4.577,0,0,0,0-3.147,4.15,4.15,0,0,0-.812-1.353,3.928,3.928,0,0,0-1.3-.944,4.223,4.223,0,0,0-1.756-.353Z" fill="#aeafb1"/><path d="M68.149,6.105v9.661H65.084V14.4a2.514,2.514,0,0,1-.479.629,3.061,3.061,0,0,1-.692.5,4.544,4.544,0,0,1-.856.34,3.283,3.283,0,0,1-.919.132,4.665,4.665,0,0,1-1.888-.39,4.505,4.505,0,0,1-1.491-1.064,4.655,4.655,0,0,1-.963-1.6,6.126,6.126,0,0,1,0-4.028,4.662,4.662,0,0,1,.937-1.554,4.416,4.416,0,0,1,1.492-1.058,4.566,4.566,0,0,1,1.888-.4,3.283,3.283,0,0,1,.919.132,4.124,4.124,0,0,1,.856.352,3.158,3.158,0,0,1,.692.523,3.024,3.024,0,0,1,.479.629V6.105ZM62.78,13.4a2.155,2.155,0,0,0,.938-.2,2.263,2.263,0,0,0,.724-.529,2.414,2.414,0,0,0,.472-.786,2.661,2.661,0,0,0,.17-.951,2.628,2.628,0,0,0-.17-.944,2.593,2.593,0,0,0-.472-.78,2.277,2.277,0,0,0-.724-.541,2.156,2.156,0,0,0-.938-.2,2.214,2.214,0,0,0-.944.2,2.264,2.264,0,0,0-.73.585,2.593,2.593,0,0,0-.472.78,2.628,2.628,0,0,0-.17.944,2.661,2.661,0,0,0,.17.951,2.4,2.4,0,0,0,.472.786,2.075,2.075,0,0,0,1.674.7Z" fill="#aeafb1"/><path d="M76.029,4c-.164-.038-.315-.07-.454-.089a3.643,3.643,0,0,0-.49-.031,4.456,4.456,0,0,0-.5.031.868.868,0,0,0-.711.529,1.712,1.712,0,0,0-.107.661V6.105h2.266V8.39H73.782v7.376H70.717V8.408H68.973v-2.3h1.744V5.28a4.844,4.844,0,0,1,.352-2.064,2.749,2.749,0,0,1,.888-1.12,2.6,2.6,0,0,1,1.183-.472,8.455,8.455,0,0,1,1.221-.095,5.452,5.452,0,0,1,.963.082,4.805,4.805,0,0,1,.705.183Z" fill="#aeafb1"/><path d="M83.7,8.906a5.243,5.243,0,0,0-.542-.107,4.069,4.069,0,0,0-.541,0,2.748,2.748,0,0,0-2.02.742,3.4,3.4,0,0,0-.762,2.518v3.776H76.765V6.105h3.071V7.666a3.139,3.139,0,0,1,1.133-1.2,3.23,3.23,0,0,1,1.813-.523,2.37,2.37,0,0,1,.919.164Z" fill="#aeafb1"/><path d="M83.883,2.914A1.888,1.888,0,0,1,85.712.969q.068,0,.135,0a2.007,2.007,0,0,1,.78.151,2.066,2.066,0,0,1,.63.409,1.85,1.85,0,0,1,.421.63,1.95,1.95,0,0,1,.151.761,1.954,1.954,0,0,1-1.2,1.794,2.007,2.007,0,0,1-.78.151A1.941,1.941,0,0,1,83.883,2.92Zm.441,3.21h3.065v9.661H84.324Z" fill="#aeafb1"/><path d="M97.012,8.364h7.276v2.43H102.84a7.01,7.01,0,0,1-.762,2.184,5.423,5.423,0,0,1-1.422,1.68,6.564,6.564,0,0,1-2.071,1.1,8.7,8.7,0,0,1-2.7.39,7.7,7.7,0,0,1-3.146-.629,6.72,6.72,0,0,1-2.3-1.611,6.913,6.913,0,0,1-1.422-2.348,8.054,8.054,0,0,1-.491-2.813,7.809,7.809,0,0,1,.5-2.776,7.02,7.02,0,0,1,1.454-2.353,7.161,7.161,0,0,1,2.316-1.637,7.553,7.553,0,0,1,3.084-.629,7.9,7.9,0,0,1,2.517.39,6.638,6.638,0,0,1,2,1.064,5.332,5.332,0,0,1,1.341,1.561,4.883,4.883,0,0,1,.629,1.888H98.869a2.194,2.194,0,0,0-.321-.8,2.523,2.523,0,0,0-.63-.673,3.326,3.326,0,0,0-.912-.459,4.114,4.114,0,0,0-2.908.214,3.77,3.77,0,0,0-1.259,1.019,4.389,4.389,0,0,0-.761,1.473,6.02,6.02,0,0,0,0,3.487,4.173,4.173,0,0,0,.786,1.466,3.976,3.976,0,0,0,1.347,1,4.556,4.556,0,0,0,1.888.371,3.935,3.935,0,0,0,1.322-.214,3.055,3.055,0,0,0,1-.573,2.869,2.869,0,0,0,.68-.83,3.02,3.02,0,0,0,.346-.989H96.962Z" fill="#aeafb1"/><path d="M112.086,8.906c-.214-.051-.4-.088-.542-.107a4.069,4.069,0,0,0-.541,0,2.78,2.78,0,0,0-2.027.742,3.433,3.433,0,0,0-.755,2.518v3.776H105.15V6.105h3.071V7.666a3.137,3.137,0,0,1,1.127-1.2,3.249,3.249,0,0,1,1.819-.523,2.37,2.37,0,0,1,.919.164Z" fill="#aeafb1"/><path d="M116.913,16.043a5.846,5.846,0,0,1-2.234-.409,5.2,5.2,0,0,1-1.687-1.1,4.921,4.921,0,0,1-1.064-1.617,5.381,5.381,0,0,1,0-3.928,4.824,4.824,0,0,1,1.064-1.623,4.986,4.986,0,0,1,1.687-1.1,5.733,5.733,0,0,1,2.234-.415,5.793,5.793,0,0,1,2.253.415,4.967,4.967,0,0,1,1.68,1.1,4.632,4.632,0,0,1,1.064,1.611,5.378,5.378,0,0,1,0,3.927,4.716,4.716,0,0,1-1.064,1.618,5.154,5.154,0,0,1-1.68,1.1A5.931,5.931,0,0,1,116.913,16.043Zm0-2.625a2.333,2.333,0,0,0,.95-.189,2.132,2.132,0,0,0,.73-.534,2.507,2.507,0,0,0,.472-.781,2.771,2.771,0,0,0,0-1.888,2.37,2.37,0,0,0-.472-.78,2.32,2.32,0,0,0-.73-.535,2.238,2.238,0,0,0-.95-.2,2.211,2.211,0,0,0-.944.2,2.452,2.452,0,0,0-.737.541,2.356,2.356,0,0,0-.459.78,2.989,2.989,0,0,0,0,1.888,2.49,2.49,0,0,0,.459.781,2.27,2.27,0,0,0,.724.535A2.3,2.3,0,0,0,116.913,13.418Z" fill="#aeafb1"/><path d="M132.987,6.105v9.661h-3.071V14.381a2.758,2.758,0,0,1-1.209,1.19A4.109,4.109,0,0,1,126.75,16a4.232,4.232,0,0,1-1.624-.289,2.69,2.69,0,0,1-1.082-.8,2.913,2.913,0,0,1-.6-1.3,9.516,9.516,0,0,1-.139-1.775V6.105h3.046v4.947a3.406,3.406,0,0,0,.366,1.693,1.409,1.409,0,0,0,1.334.629,1.6,1.6,0,0,0,1.416-.661,3.149,3.149,0,0,0,.447-1.787V6.105Z" fill="#aeafb1"/><path d="M137.852,7.5a2.878,2.878,0,0,1,.485-.629,3.071,3.071,0,0,1,.7-.523A4.457,4.457,0,0,1,139.891,6a3.27,3.27,0,0,1,.932-.132,4.6,4.6,0,0,1,1.888.4,4.535,4.535,0,0,1,1.517,1.1,4.67,4.67,0,0,1,.963,1.605,6.139,6.139,0,0,1,0,4.028,4.551,4.551,0,0,1-4.368,3.058,3.235,3.235,0,0,1-.932-.132,4.092,4.092,0,0,1-.856-.352,3.232,3.232,0,0,1-.7-.51,2.513,2.513,0,0,1-.485-.629v5.752h-3.065V6.105h3.065Zm2.329.982a2.287,2.287,0,0,0-.957.2,2.418,2.418,0,0,0-.705.567,2.387,2.387,0,0,0-.472.78,2.748,2.748,0,0,0,0,1.888,2.419,2.419,0,0,0,.472.787,2.261,2.261,0,0,0,1.687.73,2.112,2.112,0,0,0,.919-.2,2.263,2.263,0,0,0,.724-.529,2.419,2.419,0,0,0,.472-.787,2.748,2.748,0,0,0,0-1.888,2.339,2.339,0,0,0-1.2-1.315A2.111,2.111,0,0,0,140.181,8.484Z" fill="#aeafb1"/><path d="M150.861,1.756h5.872a5.132,5.132,0,0,1,2.1.409,5,5,0,0,1,1.617,1.1,4.8,4.8,0,0,1,1.032,1.612,5.442,5.442,0,0,1,0,3.889,4.733,4.733,0,0,1-1.032,1.611,4.868,4.868,0,0,1-1.617,1.1,5.131,5.131,0,0,1-2.1.415h-2.624v3.89h-3.248Zm5.47,7.5a2.168,2.168,0,0,0,.925-.195,2.332,2.332,0,0,0,.711-.535,2.5,2.5,0,0,0,.453-.768,2.7,2.7,0,0,0,.158-.925,2.641,2.641,0,0,0-.158-.919,2.513,2.513,0,0,0-.453-.774,2.2,2.2,0,0,0-.711-.529,2.058,2.058,0,0,0-.925-.2h-2.222V9.252Z" fill="#aeafb1"/><path d="M170.02,12.978v2.807h-7.232V1.756h3.248V12.978Z" fill="#aeafb1"/><path d="M183.891,10.75a6.3,6.3,0,0,1-.774,2.108,6.154,6.154,0,0,1-1.473,1.712,7.056,7.056,0,0,1-2.1,1.152,8.585,8.585,0,0,1-5.822-.183,7.1,7.1,0,0,1-2.366-1.611,6.919,6.919,0,0,1-1.485-2.354,7.978,7.978,0,0,1-.007-5.6A7.06,7.06,0,0,1,173.638,2a7.556,7.556,0,0,1,3.091-.629,8.61,8.61,0,0,1,2.895.459,6.753,6.753,0,0,1,2.165,1.259,5.853,5.853,0,0,1,1.416,1.851,7.135,7.135,0,0,1,.686,2.265H180.5a3.673,3.673,0,0,0-.409-1.145,3.464,3.464,0,0,0-.743-.913,3.318,3.318,0,0,0-1.057-.629,4.024,4.024,0,0,0-1.354-.22,4.246,4.246,0,0,0-1.818.371,4.012,4.012,0,0,0-1.354,1,4.19,4.19,0,0,0-.824,1.416,4.919,4.919,0,0,0-.283,1.661,5.028,5.028,0,0,0,.295,1.731,3.913,3.913,0,0,0,.863,1.422,3.994,3.994,0,0,0,1.378.963,4.718,4.718,0,0,0,1.888.353,3.465,3.465,0,0,0,1.146-.189,3.849,3.849,0,0,0,.988-.522,3.375,3.375,0,0,0,.774-.781,3.018,3.018,0,0,0,.459-.975Z" fill="#aeafb1"/><path d="M36.076,14.419,21.865,28.379Q18.428,25,14.941,21.562l-1.416-1.391-.774-.761-1.41-1.347L9.95,16.691l-.793-.78,1.083-1.083c.289-.283.214-.434,0-.629L9.088,13.028l1.328-1.34,2.228-2.31h.038l1.347-1.385L21.927,0l2.518,2.423c.277.271.535.567.831.806s.245.453,0,.7Q21.5,7.8,17.679,11.675l-1.366,1.353h-.037l-1.014,1.039c-.075.075-.138.169-.251.3L16.42,15.8l.768.768,1.4,1.4.327.321c.856.85,1.725,1.693,2.568,2.562.277.283.478.3.774,0q3.368-3.21,6.76-6.4c3.392-3.191,0-.063,0-.031-.63-.693-1.259-1.366-1.933-2.014a.485.485,0,0,0-.472.056c-.541.516-1.044,1.077-1.586,1.605a.834.834,0,0,1-.51.252L22,11.857l5.438-6.029Z" fill="#aeafb1"/><path d="M15.011,14.4l2.177,2.165-3.669,3.606-2.178-2.108C9.183,20.234,7.03,22.425,4.871,24.6c-.446.447-.906.887-1.365,1.328L2.115,24.483c.931-.907,1.888-1.769,2.756-2.669L9.95,16.691c.447-.453.894-.9,1.335-1.353l1.07-1.064c.283-.289.214-.434,0-.661l-1.888-1.925L3.392,4.638,5.721,2.272l6.923,7.106L14.9,7.106Q16.7,8.95,18.51,10.787c-.453.466-1.8,1.819-2.253,2.279L15.243,14.1C15.162,14.18,15.124,14.287,15.011,14.4Z" fill="#aeafb1"/><path d="M18.592,17.962l-3.657,3.6-1.416-1.391-2.178-2.108,1.014-1.013c.283-.283.214-.434,0-.63-.347-.352-.7-.7-1.051-1.051L9.032,13.028,2.656,6.684c-.629-.629-.629-.629,0-1.259l.762-.768,2.3-2.385,6.923,7.106c1.209,1.258,2.411,2.461,3.613,3.688L15.243,14.1c-.075.076-.138.17-.251.3l2.177,2.165Z" fill="#aeafb1"/><path d="M17.742,14.495,16.42,15.8,12.745,19.41l-9.3,9.164L0,24.986c.938-.9,1.888-1.768,2.757-2.668q3.21-3.224,6.4-6.458l1.083-1.082c.289-.283.214-.435,0-.63l-1.152-1.12L.548,4.462c-.63-.629-.63-.629-.032-1.258C1.536,2.178,2.549,1.139,3.6.057l9.1,9.3,3.612,3.675Z" fill="#aeafb1"/></svg>