<svg xmlns="http://www.w3.org/2000/svg" width="144" height="31.648" viewBox="0 0 144 31.648"><g transform="translate(0 -0.009)"><path d="M170.8,25.37h-.2a1.216,1.216,0,0,0-.616.7.493.493,0,0,0,0,.067,1.149,1.149,0,0,1-.366.4,3.28,3.28,0,0,0-.591.575l-.15.075a1.1,1.1,0,0,0-.774.708,1.666,1.666,0,0,0-.1.983v.1a.833.833,0,0,1-.175.225,1.366,1.366,0,0,0-.45.733,1.149,1.149,0,0,0,.067.833v.117a1.183,1.183,0,0,0,.25.983,1.108,1.108,0,0,0,.833.366,1.574,1.574,0,0,0,1.108-.458,3.048,3.048,0,0,0,.525-.833,3.556,3.556,0,0,1,.633-1.041,1.749,1.749,0,0,0,.425-1.507.72.72,0,0,1,0-.133h0a1.091,1.091,0,0,0,.416-.883,3.912,3.912,0,0,0-.383-1.816.575.575,0,0,0-.45-.192Zm-.183,1.974c0,.1,0,.1-.083.175a2.07,2.07,0,0,0-.192.192,1.008,1.008,0,0,0-.133.775,1.265,1.265,0,0,1-.1.683,4.83,4.83,0,0,0-.833,1.332,3.331,3.331,0,0,1-.325.6.633.633,0,0,1-.4.15.317.317,0,0,1-.108,0,.375.375,0,0,1,0-.2,1.132,1.132,0,0,0-.1-.641.2.2,0,0,1,0-.183c0-.1.058-.142.183-.258a1.457,1.457,0,0,0,.425-.65,1.008,1.008,0,0,0,0-.516.708.708,0,0,1,.042-.466c0-.108,0-.108.158-.142a1.2,1.2,0,0,0,.633-.416,1.849,1.849,0,0,1,.4-.383,2.041,2.041,0,0,0,.425-.4A2.782,2.782,0,0,1,170.62,27.344Z" transform="translate(-27.977 -4.24)" fill="#aeafb1"/><path d="M162.648,20.955V20.8a4.364,4.364,0,0,0-.458-1.307c-.208-.425-.241-.491,0-.891.125-.175,1.158-1.666,1.441-2.007a6.378,6.378,0,0,1,1.033-1,4.489,4.489,0,0,0,1.524-1.915c.1-.258.217-.5.316-.725a3.681,3.681,0,0,0,.483-1.616.991.991,0,0,0-1.058-.908,2.5,2.5,0,0,0-1.033.275,3.873,3.873,0,0,1-1.091.4h-.075a1.149,1.149,0,0,0-.125-.25,2.682,2.682,0,0,0-.733-1.074,2.207,2.207,0,0,0-.5-.316c-.183-.1-.483-.258-.508-.366a2.415,2.415,0,0,0-.75-1.382.708.708,0,0,1-.275-.441A1.882,1.882,0,0,0,160.207,6a1.34,1.34,0,0,1-.183-.192,2,2,0,0,1-.575-1.8,1.666,1.666,0,0,0-.4-1.507c-.516-.575-1.141-.625-2.165-.083a.75.75,0,0,1-.366.108,2.016,2.016,0,0,1-.608-.125,3.973,3.973,0,0,0-1.341-.275,2.307,2.307,0,0,0-1.607.625l-.158.125h0a5.663,5.663,0,0,0-1.666-.974c-.358-.133-.383-.266-.433-.575a1.432,1.432,0,0,0-.491-.941,1.183,1.183,0,0,0-.758-.25,2.656,2.656,0,0,0-.375,0,1.666,1.666,0,0,1-.7,0,3.331,3.331,0,0,0-1.816,0,4.256,4.256,0,0,1-.966.117,5.3,5.3,0,0,1-.641,0H144.4a2.574,2.574,0,0,0-1.849.783,2.573,2.573,0,0,0-.724,1.24,1.016,1.016,0,0,1-.7.833A3.331,3.331,0,0,0,139.1,5a2.566,2.566,0,0,1-.35.5,2.54,2.54,0,0,0-.633,2.257,1.832,1.832,0,0,1-.3,1.349,1.6,1.6,0,0,0-.175,1.666,2.39,2.39,0,0,0,.458.683l.633-.791a1.09,1.09,0,0,1-.175-.275c-.133-.325-.075-.416.117-.733a2.807,2.807,0,0,0,.425-1.982,1.666,1.666,0,0,1,.416-1.507,3.405,3.405,0,0,0,.475-.7,2.432,2.432,0,0,1,1.549-1.449A1.982,1.982,0,0,0,142.81,2.5a1.607,1.607,0,0,1,.45-.833,1.557,1.557,0,0,1,1.174-.525h.475a6.187,6.187,0,0,0,.725.042,5.288,5.288,0,0,0,1.191-.142,2.432,2.432,0,0,1,1.316,0,2.94,2.94,0,0,0,1.1.05h.242a.258.258,0,0,1,.158,0c.058.05.075.117.117.333a1.532,1.532,0,0,0,1.066,1.332,5.347,5.347,0,0,1,1.382.833.991.991,0,0,0,.633.242,1.2,1.2,0,0,0,.783-.366,1.366,1.366,0,0,1,.949-.35,3.223,3.223,0,0,1,.991.192,2.973,2.973,0,0,0,.916.175,1.757,1.757,0,0,0,.833-.217,1.782,1.782,0,0,1,.733-.258c.067,0,.125,0,.233.125s.233.266.175.75a3.031,3.031,0,0,0,.833,2.582l.25.25a.966.966,0,0,1,.341.716,1.666,1.666,0,0,0,.55.991,1.441,1.441,0,0,1,.475.883,1.666,1.666,0,0,0,1.024,1.049,1.666,1.666,0,0,1,.316.183,1.774,1.774,0,0,1,.466.716,1.124,1.124,0,0,0,1.041.833h.2a4.888,4.888,0,0,0,1.366-.483c.575-.266.716-.175.683-.158a5.064,5.064,0,0,1-.408,1.1c-.1.233-.217.491-.325.75a3.589,3.589,0,0,1-1.233,1.532,7.386,7.386,0,0,0-1.133,1.149c-.325.4-1.391,1.932-1.491,2.065a1.591,1.591,0,0,0-.1,1.907,3.131,3.131,0,0,1,.366,1.024v.167c.167.941.292,1.666-.833,2.307a2.748,2.748,0,0,0-1.616,2.615c0,.383,0,.525-.158.65l-.208.2a14.159,14.159,0,0,0-1.6,1.832,11.79,11.79,0,0,1-.833,1.024c-.583.6-.949.725-1.158.725a.375.375,0,0,1-.167,0,1.84,1.84,0,0,0-.633-.108,2.923,2.923,0,0,0-.833.15,1.608,1.608,0,0,1-.408.092.3.3,0,0,1-.158,0c-.208-.142-.275-.375-.383-.833a5.222,5.222,0,0,0-.9-2.049.833.833,0,0,1-.133-.666,9.161,9.161,0,0,1-1.008.15,1.757,1.757,0,0,0,.341,1.116,4.247,4.247,0,0,1,.733,1.666,2.082,2.082,0,0,0,.833,1.432,1.224,1.224,0,0,0,.708.217,2.324,2.324,0,0,0,.7-.133,1.241,1.241,0,0,1,.833-.058c.716.258,1.507,0,2.39-.933a12.662,12.662,0,0,0,.924-1.116,14,14,0,0,1,1.666-1.9,1.666,1.666,0,0,0,.483-1.366c0-.575,0-1.124,1.133-1.782A2.858,2.858,0,0,0,162.648,20.955Z" transform="translate(-22.987 0)" fill="#aeafb1"/><path d="M18.23,10.141A9.147,9.147,0,0,0,12.492,8.6h-.566c-.766,0-1.84,0-3.231.075H7.862c-1.474,0-2.6,0-3.331-.075l-.075.508a2.582,2.582,0,0,1,1.374.275.924.924,0,0,1,.375.833A4.247,4.247,0,0,1,6,11.315L2.623,23.924A6.129,6.129,0,0,1,2.1,25.314a1.307,1.307,0,0,1-.716.591,4.839,4.839,0,0,1-1.308.208l-.075.5q1.349-.075,3.823-.075c.741,0,1.607,0,2.59.05H7.987a12.617,12.617,0,0,0,6.529-1.757,11.426,11.426,0,0,0,4.264-4.5,12.226,12.226,0,0,0,1.432-5.68,5.4,5.4,0,0,0-1.982-4.514ZM15.082,19.71a11.576,11.576,0,0,1-2.915,4.639A6.321,6.321,0,0,1,8,26.147H7.5a1.666,1.666,0,0,1-.833-.167.675.675,0,0,1-.291-.616,8.686,8.686,0,0,1,.291-1.4L9.994,11.248a8.861,8.861,0,0,1,.458-1.432,1.258,1.258,0,0,1,.525-.6,2.2,2.2,0,0,1,.974-.167,3.806,3.806,0,0,1,3.131,1.216,5.546,5.546,0,0,1,.991,3.6A17.489,17.489,0,0,1,15.082,19.71Z" transform="translate(0 -1.436)" fill="#aeafb1"/><path d="M38.272,14a18.988,18.988,0,0,1-3.689.391l-.375,1.274a1.924,1.924,0,0,0-.491-1.224A1.549,1.549,0,0,0,32.609,14a5.488,5.488,0,0,0-3.639,1.707A13.691,13.691,0,0,0,25.9,19.946a11.143,11.143,0,0,0-1.208,4.8,3.39,3.39,0,0,0,.725,2.307,2.673,2.673,0,0,0,2.124.833,3.623,3.623,0,0,0,2.332-.833,7.337,7.337,0,0,0,1.924-2.723,5.538,5.538,0,0,0-.233,1.5,2,2,0,0,0,.358,1.274,2.149,2.149,0,0,0,1.882.791,3.448,3.448,0,0,0,1.974-.616,3.839,3.839,0,0,0,1.407-2.024l.641-1.857h-.483l-.458,1.224c-.458,1.332-.983,2.007-1.582,2.007-.316,0-.483-.183-.483-.558a2.748,2.748,0,0,1,.125-.716Zm-4.331,2.623-1.133,4.039.125-.608a19.6,19.6,0,0,1-1.183,3.473c-.108.242-.225.475-.333.683A8.137,8.137,0,0,1,30.4,25.767a1.8,1.8,0,0,1-1.233.775.575.575,0,0,1-.55-.366,3.265,3.265,0,0,1-.167-1.216,14.707,14.707,0,0,1,.775-4.53,14.841,14.841,0,0,1,1.89-3.931c.733-1.033,1.391-1.557,1.974-1.557a.725.725,0,0,1,.641.333,1.308,1.308,0,0,1,.167.408,2.732,2.732,0,0,1,.058.558,1.949,1.949,0,0,1-.033.383Z" transform="translate(-4.127 -2.339)" fill="#aeafb1"/><path d="M51.2,7.026a2.09,2.09,0,0,0-1.382-.416,2.765,2.765,0,0,0-1.832.608,2.107,2.107,0,0,0-.766,1.666,1.407,1.407,0,0,0,.433,1.208,1.99,1.99,0,0,0,1.4.45,2.765,2.765,0,0,0,1.882-.666A2.132,2.132,0,0,0,51.7,8.208a1.432,1.432,0,0,0-.5-1.183Z" transform="translate(-7.893 -1.103)" fill="#aeafb1"/><path d="M48.753,17.563a4.222,4.222,0,0,0,.283-1.5,2.1,2.1,0,0,0-.533-1.491A2.232,2.232,0,0,0,46.837,14,3.523,3.523,0,0,0,43.3,16.622l-.708,1.932h.483l.508-1.291a5.6,5.6,0,0,1,.833-1.541,1.074,1.074,0,0,1,.833-.475c.308,0,.458.175.458.508a3.514,3.514,0,0,1-.283.741l-2.5,7.329a5.9,5.9,0,0,0-.383,1.932c0,1.407.766,2.115,2.315,2.115a3.4,3.4,0,0,0,3.431-2.623l.666-1.857H48.47l-.458,1.224a5.155,5.155,0,0,1-.833,1.574,1.066,1.066,0,0,1-.775.433c-.341,0-.508-.175-.508-.533a2.565,2.565,0,0,1,.15-.741Z" transform="translate(-7.113 -2.338)" fill="#aeafb1"/><path d="M57.525,23.9l.641-1.857h-.491l-.458,1.224c-.491,1.341-1,2.007-1.524,2.007-.358,0-.533-.208-.533-.633a2.232,2.232,0,0,1,.1-.641L60.607,5.94a15.3,15.3,0,0,1-2.748.758,18.746,18.746,0,0,1-3.156.283l-.175.533a2.757,2.757,0,0,1,1.332.233.775.775,0,0,1,.391.733,2.923,2.923,0,0,1-.125.716l-4,13.325a6.229,6.229,0,0,0-.3,1.782,2.265,2.265,0,0,0,.583,1.666,2.315,2.315,0,0,0,1.732.6,3.548,3.548,0,0,0,1.99-.641A3.773,3.773,0,0,0,57.525,23.9Z" transform="translate(-8.665 -0.992)" fill="#aeafb1"/><path d="M70.448,14a1.666,1.666,0,0,0-1.241.475,1.716,1.716,0,0,0-.475,1.258,2.857,2.857,0,0,0,.633,1.857,5,5,0,0,0,1.666,1.424,16.506,16.506,0,0,1-1.2,3.2A24.567,24.567,0,0,1,67.9,25.484l-1.116-8.728a3.781,3.781,0,0,0-.833-2.14A2.282,2.282,0,0,0,64.285,14a2.973,2.973,0,0,0-1.849.591,4.256,4.256,0,0,0-1.283,2.032l-.641,1.857H61l.458-1.241a8.186,8.186,0,0,1,.608-1.507.7.7,0,0,1,.533-.383.441.441,0,0,1,.4.25,3.606,3.606,0,0,1,.266.949l1.982,12.167a12.492,12.492,0,0,1-3.331,2.34A3.39,3.39,0,0,0,59.2,29.3a1.824,1.824,0,0,0-1.266.45,1.449,1.449,0,0,0-.491,1.124,1.3,1.3,0,0,0,.466,1.049A2.032,2.032,0,0,0,59.2,32.3,5.38,5.38,0,0,0,61,31.921a11.234,11.234,0,0,0,3.215-1.757,17.855,17.855,0,0,0,2.865-2.748,25.592,25.592,0,0,0,3.539-5.638A13.391,13.391,0,0,0,72.1,16.323C72.13,14.774,71.572,14,70.448,14Z" transform="translate(-9.604 -2.339)" fill="#aeafb1"/><path d="M87.176,8.45H82.888L76.35,26.563v.092h4.039l1.1-3.106h7.329L89.9,26.613h3.839L87.193,8.5ZM82.721,20.084l2.432-6.862,2.44,6.862Z" transform="translate(-12.765 -1.411)" fill="#aeafb1"/><path d="M103.275,11.9c0-.941.441-1.407,1.357-1.407a4.3,4.3,0,0,1,.55,0h.083V7.287l-1.141-.058a4.639,4.639,0,0,0-3.331,1.191,4.772,4.772,0,0,0-1.233,3.564v1H97.62v2.981h1.907V26.45h3.748V15.965h2.065V12.984h-2.065Z" transform="translate(-16.322 -1.206)" fill="#aeafb1"/><path d="M112.733,15.663V14.114H109.26V27.58h3.748V20.918a3.723,3.723,0,0,1,.783-2.607,3.14,3.14,0,0,1,2.357-.833,3.581,3.581,0,0,1,.7.075h.083V14h-.5a4.206,4.206,0,0,0-3.7,1.666Z" transform="translate(-18.268 -2.337)" fill="#aeafb1"/><path d="M124.231,6.829a2.165,2.165,0,0,0-1.666.65A2.215,2.215,0,0,0,122,9.086a2.307,2.307,0,0,0,3.881,1.607,2.174,2.174,0,0,0,.633-1.607,2.19,2.19,0,0,0-2.257-2.257Z" transform="translate(-20.397 -1.14)" fill="#aeafb1"/><path d="M120.5,17.38h1.607V27.606h3.748V14.14H120.5Z" transform="translate(-20.147 -2.363)" fill="#aeafb1"/><path d="M140.6,16.116l.949-1.083,1.807-2.049h-4.714l-.1.125-.766.949-3.9,4.855V7.23H130.13V26.451h3.748V23.428l1.94-2.2,3.431,5.222h4.439l-5.388-7.72Z" transform="translate(-21.757 -1.207)" fill="#aeafb1"/><path d="M155.336,26.217v1.324h3.331V18.8a4.714,4.714,0,0,0-1.5-3.714,6.537,6.537,0,0,0-4.422-1.316,6.421,6.421,0,0,0-4.422,1.341,3.467,3.467,0,0,0-.35.35,4.88,4.88,0,0,0-1.308,2.981v.067h3.706v-.058a1.665,1.665,0,0,1,.291-.783,2.24,2.24,0,0,1,2.007-.783c1.557,0,2.324.591,2.324,1.816v.491h-2.582a9.727,9.727,0,0,0-1.424.067,8.4,8.4,0,0,0-.991.133,5.663,5.663,0,0,0-2.124.833,3.731,3.731,0,0,0-1.507,3.331,4.281,4.281,0,0,0,1.158,3.115,4.814,4.814,0,0,0,3.589,1.208h.533a6.312,6.312,0,0,0,1.083-.133,4,4,0,0,0,2.607-1.524Zm-4.164-1.374A1.258,1.258,0,0,1,150,23.527a1.133,1.133,0,0,1,.691-1.191,3.031,3.031,0,0,1,.758-.192,7.1,7.1,0,0,1,1.033-.092h2.5v.083a2.9,2.9,0,0,1-.683,2.082,3.015,3.015,0,0,1-2.1.7h-.258A3.781,3.781,0,0,1,151.172,24.843Z" transform="translate(-24.47 -2.297)" fill="#aeafb1"/></g></svg>