<svg xmlns="http://www.w3.org/2000/svg" width="132.21" height="14.707" viewBox="0 0 132.21 14.707"><g transform="translate(0 0.022)"><path d="M101.22.41c-.19,1.09-.37,2.15-.58,3.21,0,.15-.21.29-.34.41L94.14,10.1l-.22.24h5.71c-.24,1.32-.46,2.58-.68,3.86H83.13l-.32-2a.57.57,0,0,0-.14,0H78.6a.5.5,0,0,0-.35.22c-.31.54-.59,1.1-.91,1.64a.47.47,0,0,1-.34.23H72.14l.56-.93-.41.17a10.8,10.8,0,0,1-7,.94,5.63,5.63,0,0,1-4.8-6A8.28,8.28,0,0,1,63.33,2a7.94,7.94,0,0,1,5.89-2,8.66,8.66,0,0,1,3.25.74A4.27,4.27,0,0,1,74.06,2l-3,3.2a2.66,2.66,0,0,0-1.56-1,3.41,3.41,0,0,0-4.1,2.53,5.69,5.69,0,0,0-.1,1.93,2,2,0,0,0,1.8,1.89,8.77,8.77,0,0,0,1.7,0,.4.4,0,0,0,.43-.44,7.5,7.5,0,0,1,.15-.84H67.12l.63-3.56H74l-1.3,7.4h.05l.25-.38L80.4.76a.69.69,0,0,1,.68-.39h4.34l2.24,12.79h.08c.14-.8.27-1.59.43-2.38a1.37,1.37,0,0,1,.33-.63q2.93-2.88,5.87-5.74a3,3,0,0,0,.21-.23h-5L90.21.41ZM80.14,8.6h2.29L82,5.18Z" fill="#aeafb1"/><path d="M41.65,6.28c-.38.74-.75,1.48-1.13,2.21-.92,1.81-1.85,3.62-2.76,5.44a.45.45,0,0,1-.47.3h-2.9L33.17,6.3H33.1l-1.18,7.9H27.67c.18-1,.35-2,.52-3L30.05.71c0-.24.11-.34.36-.33h5.48c.4,2.51.8,5,1.22,7.64.34-.72.64-1.33.93-1.95q1.29-2.7,2.56-5.4c.09-.19.17-.32.42-.32h6.05L44.75,13.59h.08l.33-.52L52.75.73A.65.65,0,0,1,53.4.37h4.35c.8,4.61,1.61,9.2,2.42,13.81H55.45c-.09-.6-.18-1.19-.26-1.78,0-.22-.09-.31-.33-.31H50.94a.47.47,0,0,0-.35.21c-.32.54-.6,1.1-.92,1.64a.51.51,0,0,1-.37.24H40.22L41.73,6.3ZM52.47,8.6h2.29l-.37-3.29h-.08Z" fill="#aeafb1"/><path d="M106.25,14.2c.82-4.62,1.62-9.2,2.44-13.82h4.04a.5.5,0,0,1,.56.38c.83,2.17,1.67,4.32,2.51,6.49l.12.31c0-.13.09-.2.11-.27.34-2.19.69-4.38,1-6.56,0-.18,0-.34.27-.34h4.2c-.82,4.64-1.63,9.23-2.44,13.84h-4.38c-.11,0-.26-.18-.31-.31-.82-2-1.62-4-2.43-6.05,0-.14-.12-.28-.22-.52-.37,2.36-.72,4.6-1.08,6.87Z" fill="#aeafb1"/><path d="M17,10.07l-1.1,1.41c-.65.81-1.29,1.64-2,2.44a.66.66,0,0,1-.43.26h-5a.85.85,0,0,1-.15,0l.23-.28q2.92-3.27,5.88-6.55a.5.5,0,0,0,.08-.67c-1-1.87-1.91-3.74-2.87-5.61-.08-.17-.16-.35-.27-.56a2.63,2.63,0,0,1,.33,0h4.35a.48.48,0,0,1,.52.35c.37,1,.77,1.91,1.16,2.86.05.13.11.26.19.43a2.64,2.64,0,0,0,.25-.29c.8-1,1.6-2.06,2.41-3.08A.68.68,0,0,1,21,.45h5.1l-.27.33c-1.77,1.94-3.53,3.88-5.3,5.81a.55.55,0,0,0-.1.74c1.13,2.17,2.23,4.36,3.35,6.54a.886.886,0,0,0,.12.29H19.25a.61.61,0,0,1-.68-.46c-.43-1.07-.89-2.14-1.35-3.21A4.683,4.683,0,0,0,17,10.07Z" fill="#aeafb1"/><path d="M125.64,10.44H131c-.22,1.28-.43,2.5-.65,3.75h-9.63c.18-1,.35-2,.52-2.95.62-3.52,1.25-7,1.86-10.55,0-.22.1-.31.34-.31h8.77c-.22,1.26-.44,2.5-.66,3.77h-4.77l-.23,1.28h4.56L130.44,9h-4.11c-.36,0-.51.1-.53.47a6.722,6.722,0,0,1-.16.97Z" fill="#aeafb1"/><path d="M0,14.13c.22-1.24.43-2.47.64-3.7C1.21,7.22,1.78,4,2.34.81c.05-.27.15-.37.43-.37h8.47c-.09.52-.17,1-.25,1.5s-.22,1.24-.32,1.85c0,.27-.14.37-.43.36H6.52c-.31,0-.44.09-.48.41s-.13.76-.22,1.23h4.24c-.18,1-.34,2-.51,2.92-.13.7-.14.69-.84.69H5.58c-.31,0-.41.12-.45.39-.23,1.35-.47,2.69-.71,4,0,.19,0,.35-.31.35h-4S.07,14.17,0,14.13Z" fill="#aeafb1"/><path d="M104.65,14.2h-4.58Q101.3,7.3,102.51.41h4.58Z" fill="#aeafb1"/></g></svg>