<svg xmlns="http://www.w3.org/2000/svg" width="107" height="35.31" viewBox="0 0 107 35.31"><g transform="translate(0 0.007)"><path d="M8.44,12.448v.39q.149,5.112.29,10.233l.124,4.739c0,.448,0,.456-.432.456H.44c-.44,0-.44,0-.44-.456V0H12a.415.415,0,0,1,.448.349L17.3,14.789a.606.606,0,0,0,.124.149,1.071,1.071,0,0,0,.133.149c.041-.058.108-.1.124-.166.124-.4.241-.83.357-1.212Q19.968,7.021,21.91.332C21.976.1,22.059,0,22.316,0H34.765V27.785c0,.465,0,.465-.473.465h-8.3c-.44,0-.44,0-.44-.423q.091-4.979.166-9.9l.1-4.979v-.465H25.7a2.731,2.731,0,0,0-.174.349c-.739,2.108-1.461,4.183-2.125,6.258q-1.452,4.432-2.921,8.855c-.075.249-.207.307-.448.307H14.125a.473.473,0,0,1-.539-.4q-2.44-7.569-4.9-15.113c-.041-.116-.1-.224-.149-.332Z" transform="translate(0 -0.001)" fill="#aeafb1"/><path d="M95.139,12.447c-.05.108-.124.207-.166.324-.78,2.365-1.569,4.73-2.349,7.1-.888,2.689-1.784,5.386-2.664,8.083a.373.373,0,0,1-.415.3H83.529a.4.4,0,0,1-.448-.349q-2.49-7.577-4.93-15.171a2.63,2.63,0,0,0-.141-.315h-.1v.3q.158,6.141.332,12.274c0,.938,0,1.884.075,2.822,0,.307-.066.415-.39.415H69.868c-.307,0-.4-.108-.4-.4V.007H81.529a.415.415,0,0,1,.465.349l3.818,11.378,1.046,3.1a1.427,1.427,0,0,0,.183.274,1.427,1.427,0,0,0,.149-.266Q89.272,7.609,91.363.381A.44.44,0,0,1,91.869,0h12.349V27.8c0,.456,0,.456-.473.456h-8.3c-.448,0-.456,0-.448-.456q.116-6.465.232-12.922V12.5Z" transform="translate(-11.816)" fill="#aeafb1"/><path d="M64.522,19.925v7.843c0,.506,0,.506-.5.506H46.19c-.49,0-.49,0-.49-.481V.04h9.527V19.925Z" transform="translate(-7.773 -0.008)" fill="#aeafb1"/><path d="M103.5,41.1H86.408c-.689,0-.888-.2-.888-.9V35.22c0-.556.232-.83.83-.83h34.366c.556,0,.83.241.83.83v5.1c0,.564-.232.83-.83.83Zm1.776-1.826c-.307-.988-.631-2.042-.963-3.087-.116-.365-.149-.83-.4-1.029s-.73-.041-1.1-.066c-.249,0-.332.083-.4.307-.4,1.311-.83,2.623-1.22,3.934-.1.3-.191.606-.29.946h1.378c.05-.207.091-.423.158-.631s.124-.2.191-.207h1.328c.05.2.108.365.133.531a.4.4,0,0,0,.423.349h4.9v-1.17h-2.423c.091-.133.149-.216.216-.3.6-.755,1.162-1.544,1.809-2.249.423-.473.3-.971.315-1.486h-3.743v1.112H107.7Zm-13.4-4.15H90.3c-.075,0-.191.141-.216.241-.166.73-.315,1.477-.473,2.216a1.751,1.751,0,0,1-.124.44c-.232-.88-.415-1.743-.606-2.606,0-.108-.116-.282-.183-.282H87.08v5.2h.788c.257,0,.307-.075.307-.315V36.871h.066l.73,3.436h.158c.83,0,.83,0,1.012-.78.2-.938.407-1.876.606-2.805h.058v3.552h1.071Zm23.984,0h-1.286v2.755l-.224-.373-1.237-2.174c-.05-.091-.149-.216-.232-.224h-1.137v5.179h1.27V37.66a10.673,10.673,0,0,1,1.129,1.809,1.2,1.2,0,0,0,1.461.83c.232,0,.307-.083.307-.324v-3.6ZM100.79,36.506a1.3,1.3,0,0,0,0-.207,1.66,1.66,0,0,0-1.66-1.286,2.116,2.116,0,0,0-2.49,1.66,3.759,3.759,0,0,0,.066,2.374,1.818,1.818,0,0,0,1.237,1.237,2.921,2.921,0,0,0,2.788-.631.266.266,0,0,0,.116-.183v-2.1H98.807v1.079h.888a.949.949,0,0,1-.066.456.988.988,0,0,1-1.6-.158,2.564,2.564,0,0,1,0-2.083.764.764,0,0,1,1.087-.382,3.32,3.32,0,0,1,.465.49Zm18.988.515H117.77v-.83h2.174V35.112h-3.519v5.162H120V39.046h-2.224v-.954h2.008ZM91.968,40.3h1.145c.191,0,.257-.066.307-.241.166-.631.174-.631.83-.631h.133c.639,0,.631,0,.83.622,0,.091.124.232.191.232h1.27c-.05-.174-.083-.307-.124-.44L95.4,36.2c-.108-.365-.133-.83-.373-1.037s-.755-.058-1.137-.083a.333.333,0,0,0-.39.282c-.307,1.046-.639,2.083-.963,3.12Zm17.793,0h1c.315,0,.357-.066.349-.34V35.12h-1.328Z" transform="translate(-14.546 -5.851)" fill="#aeafb1"/><path d="M107.208,38.75h-.888l.415-1.66h.058Z" transform="translate(-18.084 -6.31)" fill="#aeafb1"/><path d="M96.458,38.74H95.57l.415-1.66h.066Z" transform="translate(-16.256 -6.308)" fill="#aeafb1"/></g></svg>