<svg xmlns="http://www.w3.org/2000/svg" xmlns:xlink="http://www.w3.org/1999/xlink" width="80.338" height="110.09" viewBox="0 0 80.338 110.09"><defs><clipPath id="a"><path d="M166.309,104.58l-37.716,65.325h75.431Z" transform="translate(-128.594 -104.58)" fill="none"/></clipPath></defs><g transform="translate(-125.25 -104.58)"><g transform="translate(127.703 104.58)"><g clip-path="url(#a)"><g transform="translate(-19.646 1.863)"><path d="M160.148,161.511c-.046-.009-.167-.036-.288-.055a7.345,7.345,0,0,1-5.608-4.227.934.934,0,0,0-.8-.589,2.731,2.731,0,0,1-2.1-2.757,2,2,0,0,0,1.8.227,2.261,2.261,0,0,0,0-.248,15.4,15.4,0,0,1,1.165-7.536,9.491,9.491,0,0,0,.53-2.144,4.758,4.758,0,0,0-.871-3.764,2.192,2.192,0,0,1,2.747,1.834l2.77-2.455c-.063-.092-.077-.131-.1-.15a18.792,18.792,0,0,0-8.725-3.293,9.529,9.529,0,0,0-6.672,1.69,5.789,5.789,0,0,0-2.062,7.122,4.981,4.981,0,0,0,3.565,3.126,5.663,5.663,0,0,0,6.1-2.847c.175-.3.329-.606.493-.91a2.987,2.987,0,0,1-.057.88,5.025,5.025,0,0,1-5.011,4.317,6.691,6.691,0,0,1-6.212-4.3c-.249-.674-.417-1.378-.627-2.081-.978,1.326-1.892,1.7-3.116,1.3-1-.329-1.749-1.113-1.748-1.833a5.171,5.171,0,0,0,1.1-.082,1.942,1.942,0,0,0,1.036-.541,7.207,7.207,0,0,1,2.616-2.168A10.456,10.456,0,0,0,143.1,136.9c-1.533.486-2.461-.2-3.348-1.168.243-.2.446-.384.664-.547a10.078,10.078,0,0,1,5.426-1.877A17.731,17.731,0,0,1,156.355,136c.375.222.738.464,1,.632,0-.839.014-1.7-.005-2.565a12.861,12.861,0,0,0-.123-1.656,2.048,2.048,0,0,0-1.36-1.86,1.62,1.62,0,0,0-1.137.131.971.971,0,0,0-.023,1.688.72.72,0,0,0,.591-.048c.076-.045.016-.345-.009-.526-.01-.072-.091-.134-.14-.2a.8.8,0,0,1,1.086-.127,1.023,1.023,0,0,1,.381,1.183,1.628,1.628,0,0,1-2.561.678,2.093,2.093,0,0,1-.6-2.764,2.157,2.157,0,0,1,2.768-.954c.252.107.489.252.766.4l.278-.665c.17.209.281.357.4.495a4.746,4.746,0,0,1,.976,3.749,18.257,18.257,0,0,0-.066,2.435,3.266,3.266,0,0,0,1.8,2.729c2.223-2.1,2.333-9.79-1.271-12.706a6.591,6.591,0,0,1,4.988,1.145c1.955,1.562,1.881,3.7,1.51,5.9a12.372,12.372,0,0,0,1.64-3.485,3.707,3.707,0,0,0-1.23-4.044c-.4-.351-.817-.7-1.227-1.04a4.215,4.215,0,0,1-1.67-4.352,6.005,6.005,0,0,1,1.339-2.58,3.029,3.029,0,0,0,.763-2.032,1.4,1.4,0,0,0-1.146-1.315,1.239,1.239,0,0,0-1.409.818,1.871,1.871,0,0,0,.139,1.136c.09.206.456.293.7.433l.092-.178c-.056-.027-.136-.04-.167-.085a1.344,1.344,0,0,1-.31-.55c-.008-.111.273-.354.393-.335a.854.854,0,0,1,.554.356.779.779,0,0,1-.45,1.045,1.359,1.359,0,0,1-1.935-1.23,2.869,2.869,0,0,1,2.377-2.971c.525-.125,1.065-.185,1.624-.279l-.383-.707,1.153-.08a2.918,2.918,0,0,1,.5-3.142,9.166,9.166,0,0,1,.894-.893v-.433c.077.073.156.145.235.217.087-.079.174-.158.258-.24v.478a9.162,9.162,0,0,1,.894.893,2.917,2.917,0,0,1,.5,3.142l1.153.08-.383.707c.558.094,1.1.154,1.624.279a2.868,2.868,0,0,1,2.376,2.97,1.359,1.359,0,0,1-1.935,1.231.78.78,0,0,1-.45-1.045.856.856,0,0,1,.554-.356c.12-.018.4.225.393.335-.013.191-.189.373-.31.551-.031.045-.109.057-.167.085l.092.178c.242-.14.607-.227.7-.434a1.874,1.874,0,0,0,.14-1.136,1.24,1.24,0,0,0-1.41-.818,1.4,1.4,0,0,0-1.146,1.315,3.031,3.031,0,0,0,.763,2.032,6.006,6.006,0,0,1,1.339,2.58,4.217,4.217,0,0,1-1.669,4.352c-.412.344-.823.688-1.227,1.04a3.706,3.706,0,0,0-1.231,4.044,12.382,12.382,0,0,0,1.641,3.485c-.371-2.2-.445-4.334,1.51-5.9a6.592,6.592,0,0,1,4.988-1.145c-3.6,2.916-3.494,10.6-1.271,12.705a3.264,3.264,0,0,0,1.8-2.728,18.257,18.257,0,0,0-.066-2.435,4.747,4.747,0,0,1,.976-3.749c.123-.137.234-.285.4-.494l.278.665c.277-.146.514-.291.766-.4a2.156,2.156,0,0,1,2.768.954,2.093,2.093,0,0,1-.6,2.764,1.628,1.628,0,0,1-2.561-.678,1.023,1.023,0,0,1,.381-1.183.8.8,0,0,1,1.086.127c-.048.067-.131.129-.14.2-.025.181-.085.481-.009.525a.718.718,0,0,0,.591.049.972.972,0,0,0-.023-1.688,1.623,1.623,0,0,0-1.138-.131,2.048,2.048,0,0,0-1.36,1.86,12.725,12.725,0,0,0-.122,1.655c-.02.863-.005,1.726-.005,2.566.266-.168.629-.409,1-.632a17.726,17.726,0,0,1,10.516-2.685,10.078,10.078,0,0,1,5.426,1.877c.218.162.421.346.665.546-.888.964-1.817,1.654-3.349,1.168a10.439,10.439,0,0,0,3.043,3.122,7.214,7.214,0,0,1,2.616,2.168,1.945,1.945,0,0,0,1.037.541,5.114,5.114,0,0,0,1.1.081c0,.721-.751,1.506-1.747,1.833-1.224.4-2.139.026-3.117-1.3-.209.7-.378,1.407-.627,2.081a6.692,6.692,0,0,1-6.212,4.3,5.025,5.025,0,0,1-5.011-4.317,2.964,2.964,0,0,1-.057-.88c.164.3.317.613.493.91a5.662,5.662,0,0,0,6.1,2.847,4.981,4.981,0,0,0,3.565-3.127,5.788,5.788,0,0,0-2.062-7.121,9.528,9.528,0,0,0-6.671-1.69,18.778,18.778,0,0,0-8.725,3.293c-.028.018-.042.057-.1.15l2.77,2.454a2.192,2.192,0,0,1,2.747-1.834,4.757,4.757,0,0,0-.87,3.764,9.45,9.45,0,0,0,.53,2.144,15.387,15.387,0,0,1,1.165,7.536,2.286,2.286,0,0,0,0,.248,2,2,0,0,0,1.8-.227,2.731,2.731,0,0,1-2.1,2.757.935.935,0,0,0-.8.589,7.346,7.346,0,0,1-5.608,4.227c-.121.019-.242.046-.288.054a9.753,9.753,0,0,1,.554,1.9,4.538,4.538,0,0,1-3.888,4.539,6.436,6.436,0,0,1-4.635-1.075,6.421,6.421,0,0,1-4.6,1.052,4.538,4.538,0,0,1-3.888-4.538A9.788,9.788,0,0,1,160.148,161.511Zm-20.213-20.253a3.243,3.243,0,0,1-2.343,2.258C138.744,143.977,140.03,142.555,139.935,141.258Zm58.671,2.28a3.242,3.242,0,0,1-2.342-2.258C196.169,142.577,197.455,144,198.606,143.538Zm-43.516,5.013a10.53,10.53,0,0,0-.31,5.168l4.2-2.1-.03-.177a1.833,1.833,0,0,1-1.8-1.124,1.516,1.516,0,0,1,.18-1.537c.318.792.877.89,1.6.738a1.755,1.755,0,0,1,1.081.136,2.721,2.721,0,0,0,2.2.046,4.427,4.427,0,0,1,4.223.507c.1.073.216.123.414.236-.315-1.865-.632-3.63-1.992-4.968a2.211,2.211,0,0,0-3.337.079,1.045,1.045,0,0,0,.164,1.632,3.345,3.345,0,0,1,.441-1.056.935.935,0,0,1,1.27-.094,1.25,1.25,0,0,1,.427,1.388,1.78,1.78,0,0,1-1.545,1.178,1.956,1.956,0,0,1-1.922-.861,2.382,2.382,0,0,1,.811-3.446,3.258,3.258,0,0,1,2.725-.272l.112-.12-3.116-3.221C158.625,143.15,156.2,145.364,155.09,148.551Zm4.313,1.939-1.613-.283A1.2,1.2,0,0,0,159.4,150.49Zm.627,3.408a1.328,1.328,0,0,0-.093,1.412,1.7,1.7,0,0,0,1.494.943A2.182,2.182,0,0,1,160.03,153.9Zm1.787-26.54a7.765,7.765,0,0,1,1.757,6.759A4.621,4.621,0,0,0,161.817,127.358Zm3.9-13.4c1.134.918.747,1.988.432,3.043-.263.883-.6,1.745-.811,2.64-.4,1.716.387,2.766,2.248,3.008a3.1,3.1,0,0,1-.951-3.106c.147-1.095.372-2.179.55-3.269a4.873,4.873,0,0,0,.054-.828C167.227,114.416,166.85,114.029,165.712,113.955Zm2.376-5.717a3.438,3.438,0,0,0-.817,3.193c.025.162.081.319.111.481a1.192,1.192,0,0,0,.743,1.034,1.21,1.21,0,0,0,.692-1.011c.029-.162.086-.319.111-.482A3.429,3.429,0,0,0,168.088,108.239Zm2.777,11.422c-.207-.894-.547-1.757-.811-2.64-.315-1.054-.7-2.125.432-3.043-1.138.073-1.515.461-1.523,1.488a4.863,4.863,0,0,0,.054.827c.178,1.091.4,2.175.55,3.27a3.1,3.1,0,0,1-.951,3.106C170.478,122.426,171.261,121.376,170.865,119.66Zm3.516,7.72a4.62,4.62,0,0,0-1.757,6.758A7.764,7.764,0,0,1,174.382,127.381Zm-2.965,9.228a26.433,26.433,0,0,1-3.324-4.817,26.465,26.465,0,0,1-3.312,4.795c-.954,1.1-1.957,2.158-2.991,3.292,2.43,2.211,4.624,4.63,5.621,7.9l.163-.041a3.415,3.415,0,0,0-.5-1.951c-1.172-2.034-.77-4.031.17-5.987a4.429,4.429,0,0,1,.61-.886v-.583c.076.1.156.2.237.3.088-.106.175-.211.256-.32v.627a4.487,4.487,0,0,1,.611.887c.94,1.956,1.342,3.952.169,5.987a3.411,3.411,0,0,0-.5,1.95l.163.042c1-3.271,3.191-5.691,5.621-7.9C173.374,138.767,172.371,137.71,171.417,136.609Zm-3.311,7.6a3.051,3.051,0,0,0-.012-2.709A3.043,3.043,0,0,0,168.106,144.2Zm13,4.37c-1.11-3.187-3.534-5.4-5.8-7.866l-3.116,3.22.112.12a3.255,3.255,0,0,1,2.725.272,2.382,2.382,0,0,1,.811,3.445,1.955,1.955,0,0,1-1.922.861,1.781,1.781,0,0,1-1.545-1.178,1.25,1.25,0,0,1,.427-1.388.935.935,0,0,1,1.27.094,3.346,3.346,0,0,1,.441,1.056,1.045,1.045,0,0,0,.164-1.632,2.21,2.21,0,0,0-3.337-.079c-1.36,1.337-1.676,3.1-1.992,4.968.2-.112.314-.164.414-.236a4.428,4.428,0,0,1,4.224-.506,2.721,2.721,0,0,0,2.2-.046,1.753,1.753,0,0,1,1.081-.136c.723.152,1.282.054,1.6-.739a1.517,1.517,0,0,1,.179,1.538,1.833,1.833,0,0,1-1.8,1.124l-.029.177,4.2,2.1A10.53,10.53,0,0,0,181.108,148.574Zm-6.34,7.7a1.694,1.694,0,0,0,1.494-.942,1.328,1.328,0,0,0-.093-1.412A2.181,2.181,0,0,1,174.768,156.274Zm2.027-5.762a1.2,1.2,0,0,0,1.613-.282Zm3.719,5.947a3.907,3.907,0,0,1-2.61-1.981,3.327,3.327,0,0,1-2.622,2.919,2.6,2.6,0,0,1-2.641-1.365c.211-.065.42-.121.622-.194a2.776,2.776,0,0,0,1.83-3.307,2.647,2.647,0,0,0-2.93-1.995,2.681,2.681,0,0,0-2.654,2.551,6.7,6.7,0,0,0,2.344,5.347,4.924,4.924,0,0,0,2.928,1.444A6.266,6.266,0,0,0,180.514,156.459Zm-18.049,9.458a4.964,4.964,0,0,0,4.481.027,9.622,9.622,0,0,0,.907-.417v-.222c.075.036.149.073.224.111.09-.045.179-.09.269-.133v.267a9.821,9.821,0,0,0,.907.417,4.964,4.964,0,0,0,4.481-.028,2.582,2.582,0,0,0,.852-3.649,1.447,1.447,0,0,0-1.456-.607,1.03,1.03,0,0,0-.259,1.968c-.812.563-1.522.588-1.937-.029a2.839,2.839,0,0,1-.412-1.332c-.059-.839.511-1.365,1.192-1.823a8.5,8.5,0,0,1-2.893-3.13l-.475.423v.417l-.234-.209-.259.232v-.463l-.475-.423a8.5,8.5,0,0,1-2.893,3.13c.682.459,1.252.985,1.192,1.823a2.839,2.839,0,0,1-.412,1.332c-.415.618-1.125.593-1.937.029a1.03,1.03,0,0,0-.259-1.968,1.448,1.448,0,0,0-1.456.607A2.582,2.582,0,0,0,162.465,165.918Zm-1.048-6.062a4.921,4.921,0,0,0,2.928-1.443,6.7,6.7,0,0,0,2.344-5.347,2.681,2.681,0,0,0-2.654-2.552,2.646,2.646,0,0,0-2.93,1.995,2.775,2.775,0,0,0,1.829,3.307c.2.073.412.129.622.194a2.6,2.6,0,0,1-2.641,1.364,3.326,3.326,0,0,1-2.622-2.919,3.907,3.907,0,0,1-2.61,1.981A6.265,6.265,0,0,0,161.418,159.855Z" transform="translate(-110.735 -107.119)" fill="#aeafb1"/><path d="M149.972,183.579c.15.53.245,1.075.365,1.613a10.793,10.793,0,0,0-3.8-5.288,7.107,7.107,0,0,0-6.254-1.216,4.253,4.253,0,0,1,1.048-2.894,3.334,3.334,0,0,1,3.412-.712c-.9-1.138-1.825-1.968-3.218-1.911a3.609,3.609,0,0,0-3.223,2.23,4.327,4.327,0,0,1-2.237-1.958c-.591-1.288-.04-2.386.709-3.442a5.02,5.02,0,0,0-5.373,2.791,7.459,7.459,0,0,0-.319,5.406,5.735,5.735,0,0,0,.395.832,2.113,2.113,0,0,1,1.251-2.064,2.008,2.008,0,0,1,2.335.475,1.973,1.973,0,0,1,.346,2.263,3.03,3.03,0,0,1-1.839,1.583,5.659,5.659,0,0,1-6.117-1.769,8.58,8.58,0,0,1-1.718-7.676c.961-4.28,3.932-6.605,8.042-7.437,3.494-.707,6.6.489,9.347,2.662a22.873,22.873,0,0,1,6.319,8.518c.489,1.041.924,2.109,1.391,3.18,1.618-2.218,3.7-2.667,5.682-1.227-.134.1-.26.2-.388.3a8.153,8.153,0,0,0-3.163,4.5c-.317,1.247-.454,2.54-.672,3.812h-.333c-.019-.385-.032-.771-.059-1.156-.159-2.25.031-4.408,1.622-6.2a.961.961,0,0,0,.1-.179c-2.212.712-2.129,2.649-2.383,4.5-.076-.149-.119-.222-.153-.3-.943-2.167-1.815-4.368-2.844-6.492a23.13,23.13,0,0,0-5.2-7.194,9.785,9.785,0,0,0-8.705-2.723c-3.516.649-6.117,3.153-6.288,6.784a6.959,6.959,0,0,0,.9,3.833.813.813,0,0,0-.027-.322,6.825,6.825,0,0,1,3.108-7.811,9.153,9.153,0,0,1,6.186-1.2,6.691,6.691,0,0,1,4.126,2.073,11.975,11.975,0,0,1,.755,1,1.305,1.305,0,0,1-.542-.13,3.767,3.767,0,0,0-4.04.665,1.674,1.674,0,0,0-.588,1.632c.217-.187.378-.329.543-.466a3.927,3.927,0,0,1,5.1-.368,14.048,14.048,0,0,1,5.022,6.572c-1.393-1.531-3-2.432-5.141-1.9a5.617,5.617,0,0,1,2.919,1.049A10.407,10.407,0,0,1,149.972,183.579Z" transform="translate(-108.118 -122.321)" fill="#aeafb1"/><path d="M139.389,185.12a5.7,5.7,0,0,0,2.9,1,31.861,31.861,0,0,1,3.6.607,3.908,3.908,0,0,1,2.635,4.147,30.268,30.268,0,0,0-2.5-1.743,3.758,3.758,0,0,0-4.056.061,6.8,6.8,0,0,0-2.349,2.53H133.74c2.092-1.331,3.915-3.134,6.486-3.638A4.446,4.446,0,0,1,139.389,185.12Z" transform="translate(-110.318 -127.893)" fill="#aeafb1"/><path d="M118.463,191.564a3.142,3.142,0,0,1,4.055,1.827h-9.657q1.621-.529,3.243-1.058C116.89,192.075,117.664,191.771,118.463,191.564Z" transform="translate(-104.758 -129.566)" fill="#aeafb1"/><path d="M146.937,192.422a4.958,4.958,0,0,1,3.993,1.223h-5.995A2.853,2.853,0,0,1,146.937,192.422Z" transform="translate(-113.3 -129.82)" fill="#aeafb1"/><path d="M153.723,188.848a3.266,3.266,0,0,1,2.212,3.863h-1.887C154.762,191.37,154.332,190.111,153.723,188.848Z" transform="translate(-115.64 -128.886)" fill="#aeafb1"/><path d="M104.546,192.661c.927.263,1.808.685,2.709,1.036h-5.439A2.329,2.329,0,0,1,104.546,192.661Z" transform="translate(-101.816 -129.872)" fill="#aeafb1"/><path d="M150.04,154.644a1.646,1.646,0,0,1,.185-1.913,1.608,1.608,0,0,1,1.8-.512,2.36,2.36,0,0,1,1.621,2.688,4.02,4.02,0,0,1-4.032,3.271,4.188,4.188,0,0,1-3.941-3.99A5.79,5.79,0,0,1,149.6,149a10.575,10.575,0,0,1,7.461.462,8.665,8.665,0,0,1,1.075.627l-.069.131c-.706-.128-1.408-.277-2.117-.378a12.281,12.281,0,0,0-5.6.281,4.041,4.041,0,0,0-3.056,3.178,2.771,2.771,0,0,0,1.87,3.186A2.242,2.242,0,0,0,152,155.456l-.225.029A1.671,1.671,0,0,1,150.04,154.644Z" transform="translate(-113.497 -118.145)" fill="#aeafb1"/><path d="M118.591,188.274a2.093,2.093,0,0,1,1.1-2.231,3.33,3.33,0,0,1-2.461-1.447,9.873,9.873,0,0,0-1.181-1.155,7.49,7.49,0,0,1,5.057-.045c2.754,1,4.228,4.133,4.4,7.49C123.491,189.14,121.334,187.906,118.591,188.274Zm3.571-.981a3.148,3.148,0,0,0-3.023-2.9,11.171,11.171,0,0,1,1.771,1.18A11.015,11.015,0,0,1,122.162,187.293Z" transform="translate(-105.608 -127.322)" fill="#aeafb1"/><path d="M157.359,126.883a4.512,4.512,0,0,1,4.928-2.167c2.745.547,4.639,2.352,6.4,4.344a.678.678,0,0,1-.263-.153,11.159,11.159,0,0,0-5.454-2.653,3.526,3.526,0,0,0-4.142,2.577,3.8,3.8,0,0,0,.709,3.026A3.38,3.38,0,0,1,157.359,126.883Z" transform="translate(-116.49 -111.78)" fill="#aeafb1"/><path d="M132.627,192.277c-1.178-.155-2.21-.234-3.215-.445a5.2,5.2,0,0,1-1.66-.712,1.559,1.559,0,0,1-.735-1.861,2.367,2.367,0,0,1,1.811-1.6c-.395,1.17.367,1.616,1.237,1.988.051.022.1.042.151.068A5.587,5.587,0,0,1,132.627,192.277Z" transform="translate(-108.508 -128.57)" fill="#aeafb1"/><path d="M164.839,133.243a3.117,3.117,0,0,1-3.068-.719,2.522,2.522,0,0,1,.742-4.17,1.85,1.85,0,0,1,2.329.827,1.344,1.344,0,0,1-.453,1.622,1.094,1.094,0,0,1-1.536-.2c-.111-.114-.215-.236-.327-.359C161.658,131.386,162.763,132.774,164.839,133.243Z" transform="translate(-117.571 -112.74)" fill="#aeafb1"/><path d="M131.523,162.373a.588.588,0,0,1-.1.054,1.428,1.428,0,0,1-1.651-.178,1.257,1.257,0,0,1-.282-1.473,1.64,1.64,0,0,1,1.336-1.12,5.993,5.993,0,0,1,5.053,1.587A4.99,4.99,0,0,0,131.523,162.373Z" transform="translate(-109.157 -121.089)" fill="#aeafb1"/><path d="M149.573,135.878a1.344,1.344,0,0,1-1.2-.845,1.245,1.245,0,0,1,.288-1.379,1.772,1.772,0,0,1,1.928-.487,5.724,5.724,0,0,1,3.018,2.139,13.45,13.45,0,0,1,.831,1.27l-.131.141a4.549,4.549,0,0,0-4.236-.861A1.605,1.605,0,0,1,149.573,135.878Z" transform="translate(-114.188 -114.032)" fill="#aeafb1"/><path d="M107.264,189.961a2.112,2.112,0,0,1,1.264-2.038c-.078,1.18.731,1.443,1.629,1.655a5.376,5.376,0,0,1,2.8,1.8,8.813,8.813,0,0,1-4.252.073A1.749,1.749,0,0,1,107.264,189.961Z" transform="translate(-103.264 -128.639)" fill="#aeafb1"/><path d="M144.123,140.447a.775.775,0,0,1-.758.736.788.788,0,0,1-.773-.782.756.756,0,0,1,.725-.761A.793.793,0,0,1,144.123,140.447Z" transform="translate(-112.676 -115.78)" fill="#aeafb1"/><path d="M120.559,180.565a.641.641,0,0,1-.642-.747.67.67,0,0,1,.668-.679.7.7,0,0,1,.726.79A.648.648,0,0,1,120.559,180.565Z" transform="translate(-106.637 -126.3)" fill="#aeafb1"/><path d="M146.644,139.718a.681.681,0,0,1-.681.726.694.694,0,0,1-.045-1.388A.674.674,0,0,1,146.644,139.718Z" transform="translate(-113.384 -115.625)" fill="#aeafb1"/><path d="M120.366,176.885a.622.622,0,0,1,.712.6c-.016.408-.2.685-.621.7a.6.6,0,0,1-.679-.635A.6.6,0,0,1,120.366,176.885Z" transform="translate(-106.6 -125.698)" fill="#aeafb1"/><path d="M148.553,140.068a.543.543,0,0,1-.646-.584c.025-.258.289-.493.447-.739l.271-.007c.17.237.437.456.487.716C149.18,139.8,148.915,140.045,148.553,140.068Z" transform="translate(-114.091 -115.54)" fill="#aeafb1"/><path d="M121.1,175.4c0,.346-.221.639-.588.581-.249-.04-.469-.272-.7-.419l-.01-.258c.218-.172.417-.449.658-.494A.543.543,0,0,1,121.1,175.4Z" transform="translate(-106.606 -125.144)" fill="#aeafb1"/><path d="M151.193,138.917c.134.222.387.457.366.664a.77.77,0,0,1-.523.5.448.448,0,0,1-.529-.538c.038-.229.274-.424.421-.635Z" transform="translate(-114.782 -115.585)" fill="#aeafb1"/><path d="M120.822,174.088c-.149-.214-.411-.428-.412-.642,0-.182.271-.464.475-.525a.437.437,0,0,1,.57.485c-.022.235-.251.45-.388.674Z" transform="translate(-106.768 -124.638)" fill="#aeafb1"/><path d="M121.048,171.664c.179-.17.339-.439.543-.478.146-.028.35.254.657.5-.328.214-.532.45-.706.43S121.212,171.826,121.048,171.664Z" transform="translate(-106.938 -124.181)" fill="#aeafb1"/><path d="M154.214,140.019c-.335.222-.546.467-.707.438a.681.681,0,0,1-.418-.5c-.014-.13.282-.41.44-.41C153.71,139.549,153.892,139.784,154.214,140.019Z" transform="translate(-115.471 -115.756)" fill="#aeafb1"/><path d="M122.442,170.372a.674.674,0,0,1-.442-.429c-.021-.151.216-.338.448-.661.2.335.4.522.386.691C122.822,170.126,122.542,170.4,122.442,170.372Z" transform="translate(-107.191 -123.675)" fill="#aeafb1"/><path d="M156.314,140.745c.018.124-.194.282-.4.552-.172-.3-.353-.475-.34-.635.012-.134.249-.249.387-.371C156.086,140.441,156.29,140.58,156.314,140.745Z" transform="translate(-116.133 -115.954)" fill="#aeafb1"/><path d="M123.5,168.18c.133.145.346.279.37.44.018.119-.214.274-.417.508-.157-.26-.339-.427-.32-.567S123.366,168.305,123.5,168.18Z" transform="translate(-107.492 -123.381)" fill="#aeafb1"/><path d="M158.607,141.652c0,.1-.211.266-.321.26s-.3-.192-.293-.291c.007-.136.165-.263.331-.5C158.468,141.375,158.612,141.517,158.607,141.652Z" transform="translate(-116.777 -116.176)" fill="#aeafb1"/><path d="M124.672,167.518c-.081.009-.271-.219-.258-.321.018-.137.183-.256.36-.476.133.245.291.4.264.524A.487.487,0,0,1,124.672,167.518Z" transform="translate(-107.834 -122.993)" fill="#aeafb1"/><path d="M192.607,177.869c-.128-.1-.254-.2-.387-.3,1.984-1.439,4.064-.99,5.682,1.227.467-1.072.9-2.139,1.391-3.18a22.893,22.893,0,0,1,6.319-8.518c2.743-2.172,5.853-3.368,9.347-2.661,4.109.831,7.081,3.158,8.042,7.437a8.581,8.581,0,0,1-1.718,7.676,5.66,5.66,0,0,1-6.117,1.769,3.032,3.032,0,0,1-1.839-1.583,1.973,1.973,0,0,1,.346-2.263,2.009,2.009,0,0,1,2.335-.475,2.113,2.113,0,0,1,1.251,2.064,5.817,5.817,0,0,0,.4-.832,7.466,7.466,0,0,0-.319-5.406,5.022,5.022,0,0,0-5.373-2.791c.75,1.056,1.3,2.155.709,3.442a4.325,4.325,0,0,1-2.237,1.959,3.609,3.609,0,0,0-3.223-2.23c-1.393-.056-2.317.773-3.218,1.911a3.336,3.336,0,0,1,3.412.712,4.257,4.257,0,0,1,1.048,2.9,7.107,7.107,0,0,0-6.254,1.216,10.789,10.789,0,0,0-3.8,5.288c.12-.539.215-1.084.365-1.613a10.405,10.405,0,0,1,3.6-5.767,5.613,5.613,0,0,1,2.919-1.049c-2.139-.534-3.748.367-5.141,1.9a14.058,14.058,0,0,1,5.022-6.572,3.93,3.93,0,0,1,5.1.368c.164.137.326.28.542.466a1.676,1.676,0,0,0-.588-1.632,3.77,3.77,0,0,0-4.041-.665,1.305,1.305,0,0,1-.542.13,12.112,12.112,0,0,1,.755-1,6.69,6.69,0,0,1,4.126-2.072,9.148,9.148,0,0,1,6.186,1.2,6.826,6.826,0,0,1,3.109,7.811.8.8,0,0,0-.028.323,6.96,6.96,0,0,0,.9-3.833c-.172-3.632-2.772-6.135-6.288-6.784a9.785,9.785,0,0,0-8.705,2.723,23.13,23.13,0,0,0-5.2,7.194c-1.029,2.125-1.9,4.325-2.844,6.492-.034.078-.077.152-.153.3-.253-1.85-.171-3.786-2.383-4.5a.956.956,0,0,0,.1.178c1.591,1.793,1.781,3.95,1.623,6.2-.027.384-.04.77-.059,1.155h-.333c-.218-1.272-.355-2.564-.672-3.811A8.151,8.151,0,0,0,192.607,177.869Z" transform="translate(-125.893 -122.329)" fill="#aeafb1"/><path d="M208.74,186.753a31.7,31.7,0,0,1,3.6-.607,5.7,5.7,0,0,0,2.9-1,4.447,4.447,0,0,1-.837,2.96c2.572.5,4.394,2.307,6.486,3.637h-5.883a6.807,6.807,0,0,0-2.348-2.53,3.759,3.759,0,0,0-4.056-.061c-.888.5-1.685,1.169-2.5,1.742A3.908,3.908,0,0,1,208.74,186.753Z" transform="translate(-129.581 -127.901)" fill="#aeafb1"/><path d="M238.04,191.595c.8.208,1.573.511,2.359.769q1.621.53,3.243,1.057h-9.657A3.144,3.144,0,0,1,238.04,191.595Z" transform="translate(-137.016 -129.574)" fill="#aeafb1"/><path d="M210.895,192.452a2.858,2.858,0,0,1,2,1.223H206.9A4.962,4.962,0,0,1,210.895,192.452Z" transform="translate(-129.803 -129.828)" fill="#aeafb1"/><path d="M205.465,188.879c-.609,1.263-1.039,2.522-.324,3.862h-1.888A3.265,3.265,0,0,1,205.465,188.879Z" transform="translate(-128.819 -128.894)" fill="#aeafb1"/><path d="M256.217,193.727h-5.439c.9-.351,1.783-.772,2.709-1.035A2.329,2.329,0,0,1,256.217,193.727Z" transform="translate(-141.489 -129.88)" fill="#aeafb1"/><path d="M180.857,179.963a14.325,14.325,0,0,1-.55,2.183,3.477,3.477,0,0,1-.543.833v.588c-.075-.1-.156-.2-.237-.3-.088.106-.175.213-.256.323v-.633a3.5,3.5,0,0,1-.543-.833,14.328,14.328,0,0,1-.55-2.183l1.373.45Z" transform="translate(-122.154 -126.513)" fill="#aeafb1"/><path d="M180.12,112.284a.255.255,0,0,0-.493.022v-.594a1.664,1.664,0,0,1,0-1.2v-.646a1.358,1.358,0,0,1,.236.227,1.4,1.4,0,0,1,.257-.249v.692a1.656,1.656,0,0,1,0,1.2Z" transform="translate(-122.509 -107.844)" fill="#aeafb1"/><path d="M205.135,150.151a12.27,12.27,0,0,0-5.6-.281c-.709.1-1.412.25-2.117.378l-.069-.131a8.662,8.662,0,0,1,1.075-.627,10.57,10.57,0,0,1,7.461-.462,5.79,5.79,0,0,1,3.922,5.19,4.186,4.186,0,0,1-3.941,3.989,4.019,4.019,0,0,1-4.032-3.27,2.359,2.359,0,0,1,1.621-2.688,1.609,1.609,0,0,1,1.8.511,1.646,1.646,0,0,1,.186,1.913,1.67,1.67,0,0,1-1.731.842l-.225-.029a2.241,2.241,0,0,0,2.83,1.028,2.77,2.77,0,0,0,1.87-3.186A4.04,4.04,0,0,0,205.135,150.151Z" transform="translate(-127.26 -118.153)" fill="#aeafb1"/><path d="M235.463,183.427a7.488,7.488,0,0,1,5.056.046,9.816,9.816,0,0,0-1.181,1.155,3.325,3.325,0,0,1-2.461,1.446,2.094,2.094,0,0,1,1.1,2.232c-2.742-.368-4.9.866-6.925,2.612C231.234,187.56,232.708,184.427,235.463,183.427Zm.2,2.175a11.165,11.165,0,0,1,1.77-1.18,3.149,3.149,0,0,0-3.023,2.9A10.939,10.939,0,0,1,235.664,185.6Z" transform="translate(-136.236 -127.33)" fill="#aeafb1"/><path d="M187.043,129.092c1.764-1.992,3.657-3.8,6.4-4.344a4.512,4.512,0,0,1,4.928,2.167,3.38,3.38,0,0,1-2.18,4.976,3.8,3.8,0,0,0,.709-3.026,3.525,3.525,0,0,0-4.142-2.577,11.159,11.159,0,0,0-5.454,2.653A.687.687,0,0,1,187.043,129.092Z" transform="translate(-124.514 -111.788)" fill="#aeafb1"/><path d="M230.193,191.666a5.212,5.212,0,0,1-1.66.712c-1.005.211-2.037.29-3.215.445a5.585,5.585,0,0,1,2.41-2.558c.048-.026.1-.046.152-.068.869-.373,1.631-.818,1.236-1.988a2.368,2.368,0,0,1,1.812,1.6A1.561,1.561,0,0,1,230.193,191.666Z" transform="translate(-134.708 -128.715)" fill="#aeafb1"/><path d="M195.708,130.633a1.094,1.094,0,0,1-1.536.2,1.345,1.345,0,0,1-.453-1.623,1.851,1.851,0,0,1,2.329-.827,2.523,2.523,0,0,1,.742,4.171,3.117,3.117,0,0,1-3.068.719c2.076-.47,3.181-1.857,2.312-3C195.923,130.4,195.82,130.518,195.708,130.633Z" transform="translate(-126.263 -112.748)" fill="#aeafb1"/><path d="M226.22,162.458a.688.688,0,0,1-.1-.054,4.99,4.99,0,0,0-4.359-1.129,5.994,5.994,0,0,1,5.053-1.588,1.64,1.64,0,0,1,1.336,1.12,1.257,1.257,0,0,1-.282,1.473A1.427,1.427,0,0,1,226.22,162.458Z" transform="translate(-133.761 -121.097)" fill="#aeafb1"/><path d="M204.164,135.336a5.721,5.721,0,0,1,3.018-2.139,1.772,1.772,0,0,1,1.928.487,1.245,1.245,0,0,1,.288,1.379,1.343,1.343,0,0,1-1.2.844,1.628,1.628,0,0,1-.5-.023,4.549,4.549,0,0,0-4.236.861l-.131-.141A13.5,13.5,0,0,1,204.164,135.336Z" transform="translate(-128.853 -114.041)" fill="#aeafb1"/><path d="M247.78,189.609c.9-.212,1.707-.475,1.629-1.655a2.111,2.111,0,0,1,1.264,2.037,1.749,1.749,0,0,1-1.444,1.491,8.813,8.813,0,0,1-4.252-.073A5.376,5.376,0,0,1,247.78,189.609Z" transform="translate(-139.944 -128.648)" fill="#aeafb1"/><path d="M216.86,140.432a.788.788,0,0,1-.773.782.776.776,0,0,1-.758-.737.793.793,0,0,1,.806-.806A.756.756,0,0,1,216.86,140.432Z" transform="translate(-132.048 -115.788)" fill="#aeafb1"/><path d="M238.941,180.6a.647.647,0,0,1-.751-.637.7.7,0,0,1,.726-.789.669.669,0,0,1,.667.679A.642.642,0,0,1,238.941,180.6Z" transform="translate(-138.135 -126.308)" fill="#aeafb1"/><path d="M214.252,139.8a.644.644,0,0,1-.713.673.681.681,0,0,1-.681-.726.674.674,0,0,1,.726-.662A.643.643,0,0,1,214.252,139.8Z" transform="translate(-131.389 -115.633)" fill="#aeafb1"/><path d="M239.078,178.221c-.423-.018-.605-.3-.621-.7a.622.622,0,0,1,.713-.6.6.6,0,0,1,.587.67A.6.6,0,0,1,239.078,178.221Z" transform="translate(-138.207 -125.707)" fill="#aeafb1"/><path d="M211.212,138.777c.157.246.421.481.446.739.037.369-.251.609-.646.584-.362-.023-.627-.27-.56-.613.051-.26.317-.479.487-.716Z" transform="translate(-130.746 -115.549)" fill="#aeafb1"/><path d="M238.436,175.429a.543.543,0,0,1,.641-.59c.241.045.44.321.658.494l-.01.258c-.233.146-.451.379-.7.418C238.657,176.067,238.436,175.775,238.436,175.429Z" transform="translate(-138.202 -125.152)" fill="#aeafb1"/><path d="M209.116,139.572a.448.448,0,0,1-.528.538.769.769,0,0,1-.524-.5c-.021-.206.233-.441.366-.663l.265-.011C208.842,139.147,209.077,139.343,209.116,139.572Z" transform="translate(-130.112 -115.593)" fill="#aeafb1"/><path d="M238.742,172.951c.2.061.476.344.475.526,0,.214-.263.428-.412.642l-.245-.008c-.136-.225-.366-.439-.388-.674A.438.438,0,0,1,238.742,172.951Z" transform="translate(-138.131 -124.646)" fill="#aeafb1"/><path d="M237.981,171.216c.2.039.364.308.543.478-.164.161-.314.433-.495.454s-.378-.217-.706-.43C237.631,171.471,237.835,171.189,237.981,171.216Z" transform="translate(-137.905 -124.189)" fill="#aeafb1"/><path d="M206.51,139.99a.682.682,0,0,1-.418.5c-.161.029-.372-.216-.707-.438.322-.236.5-.47.685-.469C206.228,139.581,206.524,139.861,206.51,139.99Z" transform="translate(-129.399 -115.765)" fill="#aeafb1"/><path d="M236.871,170c-.013-.17.186-.356.386-.692.233.324.47.511.448.662a.674.674,0,0,1-.442.429C237.163,170.429,236.882,170.156,236.871,170Z" transform="translate(-137.785 -123.683)" fill="#aeafb1"/><path d="M204.166,140.693c.013.16-.168.335-.34.635-.208-.27-.42-.428-.4-.552.024-.165.227-.3.354-.454C203.916,140.445,204.154,140.559,204.166,140.693Z" transform="translate(-128.877 -115.962)" fill="#aeafb1"/><path d="M235.874,168.651c.023-.161.238-.295.37-.44.131.125.348.24.367.381s-.162.307-.32.567C236.088,168.925,235.856,168.769,235.874,168.651Z" transform="translate(-137.519 -123.389)" fill="#aeafb1"/><path d="M201.5,141.944a.414.414,0,0,1-.321-.26c-.005-.136.14-.278.283-.525.166.233.324.359.331.5C201.8,141.752,201.608,141.939,201.5,141.944Z" transform="translate(-128.279 -116.184)" fill="#aeafb1"/><path d="M235.108,167.548a.489.489,0,0,1-.366-.273c-.026-.12.131-.279.264-.525.178.22.343.339.36.477C235.38,167.33,235.189,167.557,235.108,167.548Z" transform="translate(-137.217 -123.001)" fill="#aeafb1"/><path d="M174.97,140.915s-4.619,7.114-7.071,8.771-5.783,7.472-6.06,8.789c-.335,1.594-1.342,10.319,7.215,10.235,0,0,3.02-.671,4.53-4.7s3.943,2.013,3.943,2.013,3.691,5.537,8.473,1.343,2.233-11.625-.588-14.178A127.929,127.929,0,0,1,174.97,140.915Z" transform="translate(-117.744 -116.12)" fill="#fff"/></g></g><circle cx="9.879" cy="9.879" r="9.879" transform="translate(27.865 34.019)" fill="#fff"/><g transform="translate(29.588 33.631)"><path d="M185.383,159.524c0,5.026-3.836,9.1-8.23,9.1s-8.231-4.078-8.231-9.1,3.836-9.1,8.231-9.1S185.383,154.5,185.383,159.524Zm-3.059-.122c0-4.758-2.015-8.667-5.172-8.667-3.132,0-5.172,3.909-5.172,8.667s2.04,8.911,5.172,8.911C180.309,168.314,182.325,164.162,182.325,159.4Z" transform="translate(-168.922 -150.42)" fill="#aeafb1"/></g></g><g transform="translate(125.25 178.95)"><path d="M139.565,213.864c0,4.37-3.336,7.918-7.158,7.918s-7.158-3.547-7.158-7.918,3.336-7.918,7.158-7.918S139.565,209.493,139.565,213.864Zm-2.66-.1c0-4.139-1.753-7.538-4.5-7.538-2.724,0-4.5,3.4-4.5,7.538s1.773,7.748,4.5,7.748C135.152,221.507,136.905,217.9,136.905,213.759Z" transform="translate(-125.25 -205.946)" fill="#aeafb1"/><path d="M161.721,208.33v11.74c0,1.583,1.309,1.562,1.985,1.562v.3h-6.081v-.3c.718,0,1.858-.063,1.858-1.519V208.119l-5.257,13.808h-.274l-5.742-14.209v10.831c0,2.386,1.626,3.082,2.555,3.082v.3h-5.426v-.3c1.014,0,2.6-.633,2.6-3.062V208.225c0-1.394-1.583-1.373-1.943-1.373v-.359h4.244l4.982,11.972,4.539-11.972h3.653v.3C161.806,206.789,161.721,207.718,161.721,208.33Z" transform="translate(-130.6 -206.092)" fill="#aeafb1"/><path d="M187.134,221.645v.274h-5.343v-.274c1.12,0,1.648-.76,1.267-1.9l-1.393-3.547h-5.426l-.718,1.858c-1.183,2.935.844,3.589,1.837,3.589v.274H172.1v-.274c1.626,0,2.26-1.689,2.745-2.85.147-.359,3.969-9.924,3.864-10.114a1.386,1.386,0,0,0-.992-.8,4.7,4.7,0,0,0,2.47-1.415s5.151,13.154,5.194,13.238C186.12,221.392,186.311,221.645,187.134,221.645Zm-5.574-5.764-2.6-6.651-2.618,6.651Z" transform="translate(-137.727 -206.084)" fill="#aeafb1"/><path d="M207.324,208.31v11.8a1.45,1.45,0,0,0,1.626,1.541v.274h-5.384v-.274c.824,0,1.6-.19,1.6-1.52v-5.764h-7.052v5.764c0,1.33.8,1.52,1.627,1.52v.274h-5.427v-.274a1.457,1.457,0,0,0,1.647-1.541V208.33a1.474,1.474,0,0,0-1.647-1.563v-.274h5.427v.274c-.824,0-1.627.191-1.627,1.542v5.764h7.052v-5.786c0-1.329-.823-1.52-1.647-1.52v-.274h5.384v.274A1.421,1.421,0,0,0,207.324,208.31Z" transform="translate(-143.644 -206.092)" fill="#aeafb1"/><path d="M229.294,221.645v.274h-5.342v-.274c1.119,0,1.647-.76,1.266-1.9l-1.393-3.547H218.4l-.718,1.858c-1.183,2.935.844,3.589,1.837,3.589v.274h-5.258v-.274c1.625,0,2.259-1.689,2.745-2.85.147-.359,3.969-9.924,3.864-10.114a1.386,1.386,0,0,0-.992-.8,4.7,4.7,0,0,0,2.47-1.415s5.152,13.154,5.194,13.238C228.28,221.392,228.471,221.645,229.294,221.645Zm-5.574-5.764-2.6-6.651-2.618,6.651Z" transform="translate(-148.956 -206.084)" fill="#aeafb1"/></g><g transform="translate(133.077 199.962)"><path d="M142.484,237.278a.469.469,0,0,1-.467-.475c0-.15.07-.212.114-.212.026,0,.043.018.048.048a3.5,3.5,0,0,0,1.262-1.1c0-.026-.018-.04-.052-.04-.293,0-1.035.388-2.415,2.448-.558.834-1,1.544-1.423,2.1a14.6,14.6,0,0,0,3.2.6,1.17,1.17,0,0,0,.695-.155.041.041,0,0,1,.038.045.118.118,0,0,1-.017.057,3.14,3.14,0,0,1-.445.613,2.126,2.126,0,0,1-.843.128,12.055,12.055,0,0,1-3.183-.671,2.682,2.682,0,0,1-1.938.732c-1.083,0-1.139-.5-1.139-.852s.28-.855,1.6-.855a5.7,5.7,0,0,1,1.153.154,24.9,24.9,0,0,0,1.62-2.368c1.07-1.57,2.161-2.717,3.326-2.717a.62.62,0,0,1,.707.631C144.327,236.185,142.842,237.278,142.484,237.278ZM137.4,240.4c-.419,0-.572.07-.572.137s.148.132.332.132a1.6,1.6,0,0,0,.816-.225A4.388,4.388,0,0,0,137.4,240.4Z" transform="translate(-135.918 -234.632)" fill="#aeafb1"/><path d="M149.691,241.282a.473.473,0,0,1-.026.19,2.1,2.1,0,0,1-1.367.956.591.591,0,0,1-.638-.569,1.631,1.631,0,0,1,.188-.776c-.428.543-1.144,1.372-1.7,1.372a.562.562,0,0,1-.547-.577,5.261,5.261,0,0,1,.817-1.981c.423-.75.585-1.072.82-1.072a.365.365,0,0,1,.3.287,24.225,24.225,0,0,0-1.157,2.426c0,.043.013.065.048.065.31,0,1.873-1.821,2.021-2.112a2.173,2.173,0,0,1,.428-.631,1.144,1.144,0,0,1,.485-.132.366.366,0,0,1,.07,0c.044.009.1.142.1.185a.023.023,0,0,1,0,.014c-.376.731-.58,1.032-.685,1.248a4.938,4.938,0,0,0-.515,1.4c0,.115.039.186.139.186.367-.053.93-.767,1.009-.838a.158.158,0,0,1,.1-.04.091.091,0,0,1,.092.084A2.364,2.364,0,0,1,149.691,241.282Z" transform="translate(-138.498 -235.689)" fill="#aeafb1"/><path d="M152.362,240.272c-.021.264-.035.52-.035.732,0,.352.035.6.119.6.367-.053.93-.767,1.009-.838a.136.136,0,0,1,.092-.04c.113,0,.117.159.117.406a.5.5,0,0,1-.022.177,2.081,2.081,0,0,1-1.376.956c-.532,0-.632-.449-.632-.882,0-.154.013-.309.026-.436-.332.352-.8.864-1.174,1.345a.143.143,0,0,1-.118.048c-.17,0-.406-.172-.406-.348a.333.333,0,0,1,.017-.106,8.375,8.375,0,0,1,1.734-1.87c-.009-.19-.018-.454-.018-.759,0-.022-.009-.031-.022-.031-.065,0-.249.256-.367.256-.135,0-.218-.282-.218-.375a.218.218,0,0,1,.009-.057c.061-.164.515-.724.938-.724.087,0,.332.119.346.26.017.265.03.525.03.767a7.984,7.984,0,0,1,1.349-1.217.211.211,0,0,1,.118-.035.519.519,0,0,1,.257.088c.062.048.171.132.171.229a.161.161,0,0,1-.066.124C154.108,238.657,152.965,239.72,152.362,240.272Z" transform="translate(-139.658 -235.521)" fill="#aeafb1"/><path d="M159.046,241.282a.472.472,0,0,1-.026.19,2.093,2.093,0,0,1-1.366.956.591.591,0,0,1-.638-.569,1.637,1.637,0,0,1,.187-.776c-.428.543-1.143,1.372-1.7,1.372a.562.562,0,0,1-.546-.577,5.273,5.273,0,0,1,.817-1.981c.423-.75.585-1.072.82-1.072a.366.366,0,0,1,.3.287,24.219,24.219,0,0,0-1.158,2.426c0,.043.013.065.048.065.31,0,1.873-1.821,2.021-2.112a2.144,2.144,0,0,1,.428-.631,1.137,1.137,0,0,1,.485-.132.374.374,0,0,1,.07,0c.043.009.1.142.1.185a.023.023,0,0,1,0,.014c-.375.731-.58,1.032-.685,1.248a4.917,4.917,0,0,0-.516,1.4c0,.115.039.186.14.186.366-.053.93-.767,1.008-.838a.158.158,0,0,1,.1-.04.091.091,0,0,1,.092.084A2.235,2.235,0,0,1,159.046,241.282Z" transform="translate(-140.989 -235.689)" fill="#aeafb1"/><path d="M162.851,240.316a.291.291,0,0,1-.536-.2,1.159,1.159,0,0,1,.323-.688l-.009-.009A9.708,9.708,0,0,0,161,240.938a14.246,14.246,0,0,0-.921,1.138c-.057.079-.167.189-.266.189a1.188,1.188,0,0,1-.4-.154.069.069,0,0,1-.03-.07,1.51,1.51,0,0,1,.261-.543c.376-.661.76-1.31,1.145-1.958a5.712,5.712,0,0,1,.384-.626.849.849,0,0,1,.664-.252c.087,0,.1.1.1.172a4.107,4.107,0,0,1-.563,1.019c.41-.468,1.092-1.182,1.755-1.182a.387.387,0,0,1,.411.4A4.247,4.247,0,0,1,162.851,240.316Z" transform="translate(-142.167 -235.672)" fill="#aeafb1"/><path d="M164.6,245.007c-.043,0-.083.009-.123.009a.364.364,0,0,1-.4-.41,1.48,1.48,0,0,1,.183-.644,6.114,6.114,0,0,1,1.091-1.318c.074-.111.258-.481.654-1.24a2.931,2.931,0,0,1-1.467,1.076H164.5a.636.636,0,0,1-.344-.119.469.469,0,0,1-.158-.388.267.267,0,0,1,0-.062c.053-.653.275-.777.852-1.844.41-.639.572-1.164.738-1.164.082,0,.332.128.332.335,0,.278-1.145,2.1-1.145,2.382,0,.026.013.036.035.036a7.708,7.708,0,0,0,2.209-2.183c.188-.282.367-.587.529-.587.038,0,.279.026.332.1s.083.084.083.136a.391.391,0,0,1-.057.154c-.074.145-1.366,2.285-1.886,3.37.615-.525,1.3-1.147,1.868-1.672a.147.147,0,0,1,.1-.04c.1,0,.136.176.136.419a.228.228,0,0,1-.044.164,18.308,18.308,0,0,0-2.458,2.267C165.536,243.877,165.073,244.945,164.6,245.007Z" transform="translate(-143.398 -235.731)" fill="#aeafb1"/><path d="M178.835,235.609c-.052.1-.1.11-.161.162-.258.225-1.288.181-1.376.235a.079.079,0,0,1-.04.017c-.026,0-.078-.04-.078-.132a.651.651,0,0,1,.169-.309c-1.519.089-3.226,1.318-3.226,1.663,0,.141.144.322,1.083.569s2.2.609,2.2,1.553c0,.869-1.476,2-3.864,2-1.026,0-1.367-.459-1.367-.825a.61.61,0,0,1,.5-.569c.048,0,.079.022.079.053s-.057.08-.057.119c0,.172.594.362,1.087.362,1.332,0,2.746-.785,2.746-1.182,0-.278-.769-.489-1.747-.723-1.034-.243-1.562-.618-1.562-1.249,0-1.381,2.842-2.519,4.4-2.519.838,0,1.27.243,1.27.423A.977.977,0,0,1,178.835,235.609Z" transform="translate(-145.575 -234.652)" fill="#aeafb1"/><path d="M179.837,242.008a.457.457,0,0,1-.481-.507c-.861,1.329-1.8,2.89-1.877,2.99-.044.057-.075.084-.106.084a.46.46,0,0,1-.314-.375.772.772,0,0,1,.1-.423c.144-.242,3.872-6.422,4.1-6.569a.275.275,0,0,1,.157-.052c.031,0,.057,0,.083,0s.052-.01.079-.01c.043,0,.073.023.109.133a.367.367,0,0,1,.035.114.31.31,0,0,1-.087.172l-1.245,1.914s1.092-1.081,1.791-1.081a.462.462,0,0,1,.484.5C182.666,239.667,181.234,242.008,179.837,242.008Zm1.96-2.91c-.332,0-1.654,1.319-2.209,2.069a.375.375,0,0,0,.305.141c.708,0,1.991-1.478,1.991-2.117A.087.087,0,0,0,181.8,239.1Z" transform="translate(-146.875 -235.269)" fill="#aeafb1"/><path d="M188.526,241.339a.486.486,0,0,1-.026.19,2.093,2.093,0,0,1-1.37.956.659.659,0,0,1-.651-.736,1.044,1.044,0,0,1,.087-.419,2.7,2.7,0,0,1-1.624,1.138.692.692,0,0,1-.681-.6,1.236,1.236,0,0,1-.018-.22,3.219,3.219,0,0,1,2.611-2.7c.336,0,.524.133.572.278.144-.225.214-.243.393-.243s.332.071.332.23a.284.284,0,0,1-.061.186,7.2,7.2,0,0,0-.938,2.068.482.482,0,0,0-.013.124c0,.109.03.242.14.242.348,0,.964-.78,1.034-.842a.147.147,0,0,1,.1-.04.091.091,0,0,1,.092.084A2.236,2.236,0,0,1,188.526,241.339Zm-2.833-1.032a2.937,2.937,0,0,0-.76,1.337c0,.07.026.11.087.11a6.254,6.254,0,0,0,1.493-1.292c.2-.252.494-.679.725-.993A2.21,2.21,0,0,0,185.693,240.307Z" transform="translate(-148.788 -235.747)" fill="#aeafb1"/><path d="M196.421,235.931l.087.005c.205.017.423.158.423.348,0,.561-.7.776-1.048.776h-.044l-.169.345c.017,0,.03-.005.048-.005a.4.4,0,0,1,.14.031c.092.036.187.291.187.362,0,.093-.131.155-.187.208a1.062,1.062,0,0,1-.5.172l-.083.026c-.161.317-.332.67-.519,1.049a4.322,4.322,0,0,0,1.475-.86c.034-.058.078-.146.148-.146a.38.38,0,0,1,.244.376c0,.573-1.131,1.367-2.252,1.486-.188.428-.415.953-.463,1.033a.317.317,0,0,1-.271.123.33.33,0,0,1-.065.008c-.109,0-.219-.052-.227-.1a.662.662,0,0,1-.04-.133.165.165,0,0,1,.012-.057c.088-.225.223-.534.394-.886a.8.8,0,0,1-.7-.781,1.506,1.506,0,0,1,.934-1.252.655.655,0,0,1-.354-.591c0-.723,1.122-1.337,2.144-1.5.31-.613.523-1.036.546-1.072.113-.211.58-.3.65-.3a.122.122,0,0,1,.114.119.117.117,0,0,1-.013.053C197.011,234.811,196.832,235.128,196.421,235.931Zm-2.563,3.242c0,.155.078.208.174.221.145-.282.289-.591.442-.9C193.99,238.741,193.859,239,193.859,239.173Zm.453-1.69c0,.049.062.071.162.071.031,0,.2-.022.489-.049.127-.247.245-.489.358-.714C194.815,237.008,194.312,237.369,194.312,237.483Z" transform="translate(-151.124 -234.586)" fill="#aeafb1"/><path d="M205.028,238.158c.642.07,1.41.415,1.41,1.164,0,.9-1.428,1.941-2.912,1.941-1.092,0-1.389-.516-1.389-.667a.719.719,0,0,1,.065-.273c-.144.265-.3.551-.467.878a.263.263,0,0,1-.261.131.371.371,0,0,1-.419-.374.57.57,0,0,1,.038-.2,42.267,42.267,0,0,1,2.843-4.657c.1-.123.262-.172.633-.172.1,0,.2.009.2.088a.3.3,0,0,1-.052.137c-.454.749-.82,1.319-1.135,1.826,1.153-.335,2.825-1.213,2.825-1.879,0-.406-.589-.517-1.109-.517a3.754,3.754,0,0,0-2.781,1.094c0,.036.017.044.043.044s.1-.031.127-.031.026.009.026.026a.532.532,0,0,1-.489.3.423.423,0,0,1-.476-.445c0-.873,1.926-1.742,3.388-1.742s2.1.542,2.1,1.284C207.228,237.055,205.941,237.831,205.028,238.158Zm-.852.551a2.033,2.033,0,0,0-.833.12c-.057,0-.1-.04-.175-.186-.3.481-.563.94-.869,1.492a.683.683,0,0,1,.6-.287c.206,0,.263.035.263.066,0,.075-.232.048-.232.247,0,.119.1.317.668.317,1.127,0,2.031-.851,2.031-1.222C205.626,239.08,205.242,238.709,204.176,238.709Z" transform="translate(-153.266 -234.652)" fill="#aeafb1"/><path d="M212.307,241.652a2.282,2.282,0,0,1-1.34.758.74.74,0,0,1-.733-.714,4.122,4.122,0,0,1,.843-1.853,2.036,2.036,0,0,0,.231-.415l-.009-.009a9.705,9.705,0,0,0-1.628,1.517c-.328.366-.625.75-.913,1.138-.061.079-.171.189-.275.189a1.277,1.277,0,0,1-.4-.154.069.069,0,0,1-.03-.07,1.539,1.539,0,0,1,.261-.543c.376-.661.76-1.31,1.145-1.958a5.712,5.712,0,0,1,.384-.626.85.85,0,0,1,.663-.252c.1,0,.106.1.106.172a4.107,4.107,0,0,1-.563,1.019c.42-.468,1.092-1.182,1.764-1.182a.391.391,0,0,1,.409.4,4.515,4.515,0,0,1-.7,1.248,4.079,4.079,0,0,0-.632,1.262c0,.141.135.194.261.194.415,0,1.123-.9,1.249-.9s.114.318.114.4A.429.429,0,0,1,212.307,241.652Z" transform="translate(-155.129 -235.672)" fill="#aeafb1"/><path d="M218.492,238.158c.642.07,1.41.415,1.41,1.164,0,.9-1.427,1.941-2.911,1.941-1.092,0-1.389-.516-1.389-.667a.719.719,0,0,1,.065-.273c-.144.265-.3.551-.467.878a.263.263,0,0,1-.261.131.372.372,0,0,1-.42-.374.57.57,0,0,1,.039-.2A42.262,42.262,0,0,1,217.4,236.1c.1-.123.262-.172.632-.172.1,0,.2.009.2.088a.3.3,0,0,1-.052.137c-.454.749-.82,1.319-1.135,1.826,1.153-.335,2.824-1.213,2.824-1.879,0-.406-.588-.517-1.108-.517a3.754,3.754,0,0,0-2.781,1.094c0,.036.017.044.043.044s.1-.031.127-.031.026.009.026.026a.532.532,0,0,1-.489.3.423.423,0,0,1-.476-.445c0-.873,1.926-1.742,3.388-1.742s2.1.542,2.1,1.284C220.692,237.055,219.405,237.831,218.492,238.158Zm-.851.551a2.033,2.033,0,0,0-.833.12c-.057,0-.1-.04-.175-.186-.3.481-.563.94-.869,1.492a.683.683,0,0,1,.6-.287c.205,0,.263.035.263.066,0,.075-.232.048-.232.247,0,.119.1.317.668.317,1.126,0,2.031-.851,2.031-1.222C219.091,239.08,218.706,238.709,217.641,238.709Z" transform="translate(-156.852 -234.652)" fill="#aeafb1"/></g><g transform="translate(152.108 213.165)"><path d="M162.684,253.751a.112.112,0,0,0,.055-.1.115.115,0,0,0-.059-.1.551.551,0,0,0-.147-.066l-.193-.056a1.223,1.223,0,0,1-.194-.074.388.388,0,0,1-.148-.131.369.369,0,0,1-.059-.211.388.388,0,0,1,.156-.308.6.6,0,0,1,.4-.13.666.666,0,0,1,.563.265l-.214.206a.478.478,0,0,0-.362-.173c-.143,0-.216.045-.216.132a.1.1,0,0,0,.061.084.678.678,0,0,0,.147.059l.194.055a1.1,1.1,0,0,1,.194.074.379.379,0,0,1,.147.134.383.383,0,0,1,.059.214.408.408,0,0,1-.156.326.588.588,0,0,1-.388.131.816.816,0,0,1-.416-.1.63.63,0,0,1-.251-.253l.233-.193a.528.528,0,0,0,.183.181.471.471,0,0,0,.242.066A.305.305,0,0,0,162.684,253.751Z" transform="translate(-161.857 -252.582)" fill="#aeafb1"/><path d="M164.965,253.338a.732.732,0,1,1,.216.531A.718.718,0,0,1,164.965,253.338Zm.451-.315a.472.472,0,0,0,0,.629.413.413,0,0,0,.583,0,.434.434,0,0,0,.117-.315.425.425,0,0,0-.123-.315.4.4,0,0,0-.577,0Z" transform="translate(-162.685 -252.585)" fill="#aeafb1"/><path d="M169.767,252.627v.822a.783.783,0,0,1-.034.238.6.6,0,0,1-.092.179.539.539,0,0,1-.137.121.562.562,0,0,1-.165.071.738.738,0,0,1-.181.021.656.656,0,0,1-.459-.168.61.61,0,0,1-.185-.475v-.81h.318v.773a.432.432,0,0,0,.084.279.3.3,0,0,0,.241.1q.292,0,.292-.374v-.781Z" transform="translate(-163.63 -252.594)" fill="#aeafb1"/><path d="M171.665,252.925v-.3h1.241v.3h-.462v1.142h-.318v-1.142Z" transform="translate(-164.469 -252.594)" fill="#aeafb1"/><path d="M175.788,254.066v-.576h-.64v.576h-.318v-1.439h.318v.565h.64v-.565h.318v1.439Z" transform="translate(-165.312 -252.594)" fill="#aeafb1"/><path d="M179.98,254.066l.626-1.439h.242l.626,1.439h-.328l-.116-.267h-.606l-.116.267Zm.747-.967-.187.43h.373Z" transform="translate(-166.684 -252.594)" fill="#aeafb1"/><path d="M183.483,254.066v-1.439h1.09v.3H183.8v.315h.72v.3h-.72v.529Z" transform="translate(-167.617 -252.594)" fill="#aeafb1"/><path d="M186.828,254.066h-.318v-1.439h.582a.887.887,0,0,1,.282.04.409.409,0,0,1,.181.107.454.454,0,0,1,.091.147.53.53,0,0,1,.028.175.455.455,0,0,1-.076.255.434.434,0,0,1-.205.167l.4.549h-.384l-.351-.492h-.229Zm.258-1.142h-.258v.352h.269a.3.3,0,0,0,.182-.048.157.157,0,0,0,.063-.134.15.15,0,0,0-.056-.128A.343.343,0,0,0,187.085,252.925Z" transform="translate(-168.423 -252.594)" fill="#aeafb1"/><path d="M189.743,254.066v-1.439h.319v1.439Z" transform="translate(-169.284 -252.594)" fill="#aeafb1"/><path d="M192.908,253.582l.189.2a.644.644,0,0,1-.258.219.813.813,0,0,1-.354.076.719.719,0,0,1-.536-.2.74.74,0,0,1-.2-.54.732.732,0,0,1,.208-.529.712.712,0,0,1,.537-.215.8.8,0,0,1,.348.074.558.558,0,0,1,.234.2l-.216.2a.409.409,0,0,0-.156-.12.46.46,0,0,0-.187-.042.431.431,0,0,0-.316.118.438.438,0,0,0,.312.753A.484.484,0,0,0,192.908,253.582Z" transform="translate(-169.818 -252.585)" fill="#aeafb1"/><path d="M194.822,254.066l.626-1.439h.242l.625,1.439h-.327l-.116-.267h-.606l-.117.267Zm.747-.967-.187.43h.373Z" transform="translate(-170.636 -252.594)" fill="#aeafb1"/></g></g></svg>