<svg xmlns="http://www.w3.org/2000/svg" width="68.594" height="94.996" viewBox="0 0 68.594 94.996"><g transform="translate(0 70.154)"><path d="M-120.4-167.39c0,3.667-2.8,6.643-6.006,6.643s-6.006-2.976-6.006-6.643,2.8-6.644,6.006-6.644S-120.4-171.058-120.4-167.39Zm-2.233-.089c0-3.472-1.47-6.324-3.774-6.324-2.286,0-3.774,2.852-3.774,6.324s1.488,6.5,3.774,6.5C-124.105-160.977-122.635-164.006-122.635-167.479Z" transform="translate(132.415 174.034)" fill="#aeafb1"/><path d="M-106.285-173.744v.248c-1.346,0-1.417.78-1.417,1.293v10.347a1.667,1.667,0,0,0,.266,1.063l-2.144-1.346v-10.242l-4.411,11.588h-.231l-4.819-11.923v9.088a2.281,2.281,0,0,0,2.144,2.587v.248h-4.553v-.248c.851,0,2.179-.531,2.179-2.569v-8.681c0-1.17-1.329-1.152-1.63-1.152v-.3h3.561l4.181,10.045,3.81-10.045Z" transform="translate(134.174 174.081)" fill="#aeafb1"/><path d="M-94.541-161.021v.231h-4.483v-.231c.939,0,1.382-.637,1.063-1.594l-1.17-2.976h-4.553l-.6,1.56c-.992,2.462.709,3.011,1.542,3.011v.231h-4.412v-.231c1.365,0,1.9-1.417,2.3-2.392.125-.3,3.331-8.327,3.243-8.486l-.6-1.294a1.3,1.3,0,0,0-.55-.566l2.5.443s4.217,10.594,4.252,10.665C-95.392-161.234-95.233-161.021-94.541-161.021Zm-4.678-4.836-2.179-5.58-2.2,5.58Z" transform="translate(136.466 174.078)" fill="#aeafb1"/><path d="M-84.148-172.22v9.9a1.216,1.216,0,0,0,1.363,1.293v.231H-87.3v-.231c.69,0,1.347-.159,1.347-1.275v-4.836h-5.918v4.836c0,1.116.673,1.275,1.365,1.275v.231h-4.553v-.231a1.223,1.223,0,0,0,1.382-1.293V-172.2a1.236,1.236,0,0,0-1.382-1.31v-.231h4.553v.231c-.692,0-1.365.159-1.365,1.293v4.836h5.918v-4.854c0-1.116-.692-1.275-1.383-1.275v-.231h4.519v.231A1.191,1.191,0,0,0-84.148-172.22Z" transform="translate(138.406 174.081)" fill="#aeafb1"/><path d="M-71.558-161.021v.231h-4.483v-.231c.939,0,1.382-.637,1.063-1.594l-1.17-2.976H-80.7l-.6,1.56c-.992,2.462.709,3.011,1.542,3.011v.231h-4.412v-.231c1.365,0,1.9-1.417,2.3-2.392.124-.3,3.33-8.327,3.242-8.486l-.6-1.294a1.3,1.3,0,0,0-.55-.566l2.5.443s4.217,10.594,4.253,10.665C-72.409-161.234-72.25-161.021-71.558-161.021Zm-4.678-4.836-2.179-5.58-2.2,5.58Z" transform="translate(140.152 174.078)" fill="#aeafb1"/></g><g transform="translate(2.942 90.947)"><path d="M-129.88-152.179v-3.864h.486v1.526h2.278v-1.526h.483v3.864h-.483v-1.894h-2.278v1.894Z" transform="translate(129.88 156.127)" fill="#aeafb1"/><path d="M-122.612-152.065a1.929,1.929,0,0,1-1.433-.573,1.974,1.974,0,0,1-.565-1.449,1.981,1.981,0,0,1,.567-1.455,1.93,1.93,0,0,1,1.431-.572,1.944,1.944,0,0,1,1.439.574,1.978,1.978,0,0,1,.57,1.453,1.971,1.971,0,0,1-.567,1.449A1.947,1.947,0,0,1-122.612-152.065Zm0-.451a1.432,1.432,0,0,0,1.078-.444,1.558,1.558,0,0,0,.427-1.127,1.572,1.572,0,0,0-.425-1.131,1.432,1.432,0,0,0-1.08-.444,1.434,1.434,0,0,0-1.078.447,1.566,1.566,0,0,0-.426,1.129,1.562,1.562,0,0,0,.426,1.127A1.436,1.436,0,0,0-122.612-152.517Z" transform="translate(130.725 156.115)" fill="#aeafb1"/><path d="M-117.9-152.179v-3.42h-1.625v-.444h3.735v.444h-1.628v3.42Z" transform="translate(131.541 156.127)" fill="#aeafb1"/><path d="M-114.395-152.179v-3.864h3.038v.444h-2.557v1.135h1.547v.444h-1.547v1.4h2.715v.444Z" transform="translate(132.364 156.127)" fill="#aeafb1"/><path d="M-109.293-152.179v-3.864h.479v3.42h2.523v.444Z" transform="translate(133.182 156.127)" fill="#aeafb1"/><path d="M-97.685-153.213v-.567h-1.054v-.444h1.533v1.162a1.97,1.97,0,0,1-.73.74,2.013,2.013,0,0,1-1.02.258,1.929,1.929,0,0,1-1.433-.573,1.974,1.974,0,0,1-.565-1.449,1.985,1.985,0,0,1,.566-1.455,1.933,1.933,0,0,1,1.432-.572,2.038,2.038,0,0,1,.976.234,1.9,1.9,0,0,1,.718.668l-.4.288a1.328,1.328,0,0,0-.524-.543,1.53,1.53,0,0,0-.767-.2,1.43,1.43,0,0,0-1.078.447,1.567,1.567,0,0,0-.427,1.129,1.563,1.563,0,0,0,.427,1.127,1.432,1.432,0,0,0,1.078.444,1.465,1.465,0,0,0,.723-.175A1.6,1.6,0,0,0-97.685-153.213Z" transform="translate(134.519 156.115)" fill="#aeafb1"/><path d="M-95.159-152.179v-3.864h2.215a1.293,1.293,0,0,1,.889.285,1,1,0,0,1,.323.789,1.076,1.076,0,0,1-.252.719,1.088,1.088,0,0,1-.665.372l.965,1.7h-.531l-.967-1.691h-1.5v1.691Zm.479-2.142h1.7a.826.826,0,0,0,.551-.16.589.589,0,0,0,.188-.473.6.6,0,0,0-.188-.473.752.752,0,0,0-.526-.171h-1.73Z" transform="translate(135.449 156.127)" fill="#aeafb1"/><path d="M-87.99-152.065a1.929,1.929,0,0,1-1.433-.573,1.974,1.974,0,0,1-.565-1.449,1.981,1.981,0,0,1,.567-1.455,1.928,1.928,0,0,1,1.431-.572,1.944,1.944,0,0,1,1.439.574,1.978,1.978,0,0,1,.57,1.453,1.968,1.968,0,0,1-.569,1.449A1.943,1.943,0,0,1-87.99-152.065Zm0-.451a1.432,1.432,0,0,0,1.078-.444,1.563,1.563,0,0,0,.427-1.127,1.572,1.572,0,0,0-.425-1.131,1.432,1.432,0,0,0-1.08-.444,1.432,1.432,0,0,0-1.078.447,1.567,1.567,0,0,0-.427,1.129,1.563,1.563,0,0,0,.427,1.127A1.434,1.434,0,0,0-87.99-152.517Z" transform="translate(136.278 156.115)" fill="#aeafb1"/><path d="M-83.686-156.043v2.5a1.087,1.087,0,0,0,.225.806,1.373,1.373,0,0,0,.888.205,1.363,1.363,0,0,0,.885-.205,1.087,1.087,0,0,0,.224-.806v-2.5h.484v2.633a1.265,1.265,0,0,1-.371,1.023,1.908,1.908,0,0,1-1.222.31,1.911,1.911,0,0,1-1.222-.31,1.264,1.264,0,0,1-.37-1.023v-2.633Z" transform="translate(137.212 156.127)" fill="#aeafb1"/><path d="M-78.79-152.179v-3.864h2.216a1.316,1.316,0,0,1,.888.281.963.963,0,0,1,.323.766,1.1,1.1,0,0,1-.312.816,1.132,1.132,0,0,1-.835.311h-1.8v1.691Zm.48-2.142h1.7a.828.828,0,0,0,.551-.16.592.592,0,0,0,.187-.473.607.607,0,0,0-.187-.473.755.755,0,0,0-.527-.171H-78.31Z" transform="translate(138.074 156.127)" fill="#aeafb1"/></g><path d="M-92.847-186.786a11.446,11.446,0,0,0,2.953-.11,3.247,3.247,0,0,0,1.746-.964,3.067,3.067,0,0,1,1.2-.681,5.555,5.555,0,0,1-.187.6,3.148,3.148,0,0,1-2.419,1.808c-1.448.266-2.92.4-4.38.6-.162.022-.207,0-.194-.178a3.354,3.354,0,0,1,1.544-2.71,19.937,19.937,0,0,1,4.615-2.231,15.988,15.988,0,0,0,1.579-.613,2.876,2.876,0,0,0,1.663-2.3c.028-.166.05-.332.082-.551a76,76,0,0,0-13.975,7.048,1.838,1.838,0,0,0,.268.15A3.488,3.488,0,0,1-96.57-185.3a4.373,4.373,0,0,1,.617,3.369,3.432,3.432,0,0,1-4.056,2.407A3.464,3.464,0,0,1-102.5-182a3.026,3.026,0,0,1,.137-1.937c.254-.615.564-1.207.859-1.8a.314.314,0,0,1,.427-.172,4.229,4.229,0,0,1,2.424,2.213,2.4,2.4,0,0,1,.108,1.442.523.523,0,0,1-.772.306.215.215,0,0,1-.044-.19,2.2,2.2,0,0,0-1.531-2.592.234.234,0,0,0-.205.059,2.636,2.636,0,0,0-.485,2.683,2.548,2.548,0,0,0,2.039,1.7,2.568,2.568,0,0,0,2.791-2.036,3.67,3.67,0,0,0-.535-2.521,4.463,4.463,0,0,0-1.62-1.713c-2.848-1.707-5.7-3.4-8.7-4.839-1.21-.579-2.447-1.1-3.67-1.652a3.949,3.949,0,0,1-.468-.253.805.805,0,0,1-.352-.929,2.931,2.931,0,0,1,.388.108,97.323,97.323,0,0,1,11.126,5.422c.218.129.428.274.653.386a1.376,1.376,0,0,0,1.4-.026,74.455,74.455,0,0,1,8.712-4.481c1.589-.707,3.189-1.389,4.781-2.086a5.639,5.639,0,0,0,2.128-1.427,3.37,3.37,0,0,0,.776-2.765c-.2-1.383-.466-2.756-.7-4.133a5.285,5.285,0,0,1,.244-3.106,4.479,4.479,0,0,1,1.459-1.817.973.973,0,0,1,.117-.062.761.761,0,0,1,.074.109c.577,1.4,1.184,2.78,1.715,4.192a2.92,2.92,0,0,1-.486,3.047,1.151,1.151,0,0,1-.266.283,1.473,1.473,0,0,1-.153-.979,4.331,4.331,0,0,0-.45-3.553c-.125-.24-.273-.47-.374-.719a.521.521,0,0,0-.577-.357c-.251,0-.342.081-.363.319a9.62,9.62,0,0,0-.146,1.479c.055.846.2,1.688.321,2.528.147.982.385,1.956.46,2.943a4.307,4.307,0,0,1-1.819,3.913,1.538,1.538,0,0,0-.63,1.056,5.5,5.5,0,0,1-.651,1.956c-.024.043-.039.091-.078.182.24-.021.453-.031.661-.058a14.636,14.636,0,0,0,5.99-2.324A37.226,37.226,0,0,0-74.141-197a4.806,4.806,0,0,1,.457-.362,1.1,1.1,0,0,0,.456-1.236,8.425,8.425,0,0,1,.381-4.383,3.946,3.946,0,0,1,.341-.65,1.193,1.193,0,0,1,1.44-.55,1.172,1.172,0,0,1,.884,1.185,6.258,6.258,0,0,1-.926,3.473,17.291,17.291,0,0,1-.965,1.456.808.808,0,0,0-.1.913c.592,1.222,1.159,2.457,1.743,3.683a3.446,3.446,0,0,1-1.043,4.452,7.24,7.24,0,0,1-3.655,1.491c-.384.048-.772.068-1.158.1-.062.006-.122.022-.225.041.436.527.842,1.021,1.252,1.513.292.349.295.35.706.146a8.564,8.564,0,0,1,2.166-.757,2.015,2.015,0,0,1,2.431,1.382A1.575,1.575,0,0,1-71.5-183.01a1.285,1.285,0,0,1-1.15-1.878c.055-.13.182-.2.275-.078a1.46,1.46,0,0,1,.306.564c.085.4.194.6.468.643a.807.807,0,0,0,.876-.414,1.1,1.1,0,0,0-.412-1.379,1.4,1.4,0,0,0-1.187-.2c-.777.249-1.54.542-2.35.831a20.066,20.066,0,0,1,1.725,5.253c-.378-.079-.706-.139-1.029-.216a18.819,18.819,0,0,1-3.9-1.379c-.188-.091-.259-.045-.347.122a6.585,6.585,0,0,0-.878,2.383,1.25,1.25,0,0,0,.549,1.17,1.028,1.028,0,0,0,1.166.087.787.787,0,0,0,.37-.826c-.068-.3-.319-.379-.574-.417a1.109,1.109,0,0,1-.693-.418,1.161,1.161,0,0,1,1.715.121,1.527,1.527,0,0,1-.6,2.27,1.907,1.907,0,0,1-2.576-1.358,3.421,3.421,0,0,1,.275-2.1c.131-.319.295-.627.453-.934.236-.456.182-.645-.226-.941-.369-.267-.717-.562-1.073-.846-.1-.077-.189-.16-.326-.277-.032.295-.065.533-.084.773a7.534,7.534,0,0,1-1.815,4.548,3.52,3.52,0,0,1-4.308.7,34.06,34.06,0,0,0-3.706-1.752.829.829,0,0,0-.823.172c-.721.454-1.439.917-2.191,1.311a5.4,5.4,0,0,1-2.159.581,3.676,3.676,0,0,1-.731-.038,1.234,1.234,0,0,1-1.044-1,1.193,1.193,0,0,1,.654-1.348,6.871,6.871,0,0,1,3.879-.687,15.474,15.474,0,0,0,1.673,0,.577.577,0,0,0,.355-.164,20.187,20.187,0,0,0,5.591-9.394c.12-.477.161-.972.243-1.479-.07.013-.1.01-.116.023a11.652,11.652,0,0,1-3.029,1.377c-1.1.4-2.17.887-3.244,1.355A3.54,3.54,0,0,0-92.847-186.786Zm7.757,7.655a1.278,1.278,0,0,1,.346-.754.659.659,0,0,0-.071-1.084,1.652,1.652,0,0,0-1.713.016,1.981,1.981,0,0,0,.162,3.176,2.527,2.527,0,0,0,2.007.185,3.307,3.307,0,0,0,1.8-1.483,7.281,7.281,0,0,0,1.13-4.087c.008-.918-.063-1.837-.042-2.754a2.337,2.337,0,0,1,1.817-2.2,6.219,6.219,0,0,1,1.686-.065c.818.022,1.638,0,2.457-.041a6.08,6.08,0,0,0,3.833-1.578,2.66,2.66,0,0,0,.913-2.406,1.893,1.893,0,0,0-2.175-1.759,1.642,1.642,0,0,0-1.544,1.742.979.979,0,0,0,.607.969c.339.128.528.057.8-.288.124-.156.482-.269.553-.147a.671.671,0,0,1,.057.484.985.985,0,0,1-.638.641,1.482,1.482,0,0,1-1.72-.508,2.121,2.121,0,0,1-.338-1.853,2.385,2.385,0,0,1,2.217-1.736c.319-.006.637,0,1,0L-72.962-197c-.066.055-.106.084-.142.117a26.208,26.208,0,0,1-4.1,3.182,16.789,16.789,0,0,1-6.655,2.566c-.5.073-.5.1-.583.589-.081.507-.161,1.017-.29,1.512a18.524,18.524,0,0,1-2.23,5.08,25.223,25.223,0,0,1-2.939,3.839c-.126.137-.278.251-.45.4l2.375,1.022c0-.3,0-.545,0-.789a2.373,2.373,0,0,1,2.7-2.451,1.707,1.707,0,0,1,1.47,1.184A1.207,1.207,0,0,1-85.09-179.131Zm9.4-6.073c-.32-.413-.574-.788-.876-1.121a3.107,3.107,0,0,0-2.585-1.152,1.737,1.737,0,0,0-1.614,1.909,3.247,3.247,0,0,0,1.022,2.17,4.231,4.231,0,0,0,1.287.9,10.551,10.551,0,0,0-.009-1.23,3.437,3.437,0,0,0-.916-1.855c-.174-.2-.078-.311.056-.439s.239-.242.465-.08a7.854,7.854,0,0,0,1.253.747A3.748,3.748,0,0,0-75.69-185.2Zm-2.084.7c0,.036-.01.11-.01.185,0,.634,0,1.267,0,1.9a.525.525,0,0,0,.367.543c.692.27,1.377.554,2.074.811.478.176.97.317,1.506.491-.032-.13-.044-.194-.065-.254-.167-.494-.331-.991-.508-1.483q-.3-.844-.63-1.681a.564.564,0,0,0-.5-.434Zm-14.189,5.243c-.226,0-.453,0-.679,0a8.3,8.3,0,0,0-3.488.421,1.62,1.62,0,0,0-.479.266.512.512,0,0,0,.241.9A3.644,3.644,0,0,0-95.2-177.7,8.6,8.6,0,0,0-91.964-179.262Zm19.4-19.586.1.01c.052-.075.1-.154.159-.226a6.648,6.648,0,0,0,1.427-3.695.631.631,0,0,0-.447-.728.572.572,0,0,0-.678.4,4.858,4.858,0,0,0-.4,1.221C-72.5-200.866-72.514-199.856-72.563-198.849Zm-42.132,3.22c.05-.381.1-.717.14-1.056.135-1.121.274-2.241.4-3.363q.153-1.408.266-2.82c.094-1.168.205-2.337.24-3.508.043-1.452.013-2.9.019-4.356,0-.2-.1-.188-.248-.157-.651.139-1.3.317-1.954.4a4.367,4.367,0,0,1-3.83-1.159,3.2,3.2,0,0,1-.87-1.926,3.449,3.449,0,0,1,.125-1.549,3.2,3.2,0,0,1,2.146-2,3.044,3.044,0,0,1,3.641,1.11c.389.5.724,1.04,1.088,1.558.147.21.051.368-.1.508a3.588,3.588,0,0,1-1.575.775,3.6,3.6,0,0,1-1.9.068,2.516,2.516,0,0,1-.822-.419.51.51,0,0,1-.057-.8c.1-.131.187-.109.321-.048a7.025,7.025,0,0,0,1.209.5,1.912,1.912,0,0,0,1.784-.628.2.2,0,0,0,.02-.176,2.7,2.7,0,0,0-2.555-1.8,2.416,2.416,0,0,0-2.511,2.091,2.583,2.583,0,0,0,1.7,2.834,4.553,4.553,0,0,0,3.917-.263,106.99,106.99,0,0,0,9.349-5.687c.767-.54,1.508-1.115,2.267-1.666a4.012,4.012,0,0,1,.668-.406.834.834,0,0,1,.972.185,2.152,2.152,0,0,1-.179.165,105.849,105.849,0,0,1-9.269,6.374c-.537.319-1.081.627-1.629.928a1.552,1.552,0,0,0-.863,1.67c.052.909.019,1.823.009,2.734-.006.506-.024,1.013-.059,1.518-.094,1.354-.187,2.708-.3,4.06-.1,1.184-.232,2.365-.362,3.546-.1.929-.224,1.857-.334,2.785a5.828,5.828,0,0,0,.1,2.31,3.411,3.411,0,0,0,1.99,2.235c.914.408,1.871.722,2.813,1.065a11.6,11.6,0,0,1,2.742,1.225,4.375,4.375,0,0,1,1.908,3.121.34.34,0,0,1,0,.077.447.447,0,0,1-.028.084c-.239-.02-.489-.031-.735-.063-1.279-.166-2.561-.308-3.833-.514a3.017,3.017,0,0,1-2.216-1.491c-.122-.211-.237-.252-.434-.126a2.9,2.9,0,0,1-.273.133c.284.6.547,1.189.844,1.763a24.208,24.208,0,0,0,3.637,5.045c.158.175.309.357.458.541a.758.758,0,0,0,.765.276,9.2,9.2,0,0,1,4.059.144,5.975,5.975,0,0,1,1.428.687,1.107,1.107,0,0,1,.356,1.341,1.157,1.157,0,0,1-1.145.83,6.47,6.47,0,0,1-3.655-1.006c-.45-.265-.876-.573-1.3-.88a.81.81,0,0,0-.9-.1c-1.211.577-2.434,1.129-3.639,1.72a3.521,3.521,0,0,1-4.665-1.2,7.445,7.445,0,0,1-1.377-3.651c-.042-.368-.074-.738-.113-1.127a.444.444,0,0,0-.11.044c-.486.381-.962.773-1.456,1.142a.444.444,0,0,0-.158.593c.232.588.469,1.175.69,1.767a2.508,2.508,0,0,1,.172,1.385,1.943,1.943,0,0,1-2.726,1.412,1.452,1.452,0,0,1-.775-1.359,1.235,1.235,0,0,1,.667-1.167,1.335,1.335,0,0,1,1.173-.03.178.178,0,0,1,.052.328,1.494,1.494,0,0,1-.509.252c-.458.088-.675.275-.671.646a.838.838,0,0,0,.724.79,1.16,1.16,0,0,0,1.308-1.3,6.769,6.769,0,0,0-.925-2.7,20.167,20.167,0,0,1-5.176,1.684c.089-.385.137-.718.244-1.03.417-1.23.852-2.454,1.28-3.68.168-.48.158-.512-.319-.7-.823-.32-1.649-.634-2.534-.972l.1.236c-.1.041-.2.078-.3.12a1.17,1.17,0,0,0-.741,1.338.787.787,0,0,0,.94.606.6.6,0,0,0,.449-.494c.084-.278.194-.548.3-.838a1.18,1.18,0,0,1-.263,1.93,1.559,1.559,0,0,1-2.177-1.131,1.993,1.993,0,0,1,2.4-2.2c.592.159,1.165.39,1.745.592.135.048.263.114.4.169.565.24.559.236.935-.251.319-.413.651-.816.984-1.232a1.38,1.38,0,0,0-.813-.259,7.443,7.443,0,0,1-4.3-1.722,3.428,3.428,0,0,1-1.191-2.329,3.887,3.887,0,0,1,.524-2.272c.591-1.146,1.106-2.332,1.65-3.5a.712.712,0,0,0-.146-.729c-.37-.565-.769-1.115-1.094-1.7a5.847,5.847,0,0,1-.823-2.965,3.323,3.323,0,0,1,.063-.578,1.149,1.149,0,0,1,1.1-.948,1.072,1.072,0,0,1,1.135.589,6.416,6.416,0,0,1,.832,2.734,11.792,11.792,0,0,1-.1,2.6.749.749,0,0,0,.209.674,20.924,20.924,0,0,0,7.958,5.134c.519.175,1.048.321,1.579.453a2.5,2.5,0,0,0,.591.008c-.138-.429-.277-.833-.4-1.242-.058-.2-.072-.415-.12-.62a2.365,2.365,0,0,0-.907-1.334,4.023,4.023,0,0,1-1.529-2.516,5.343,5.343,0,0,1,.06-1.911c.237-1.326.5-2.647.711-3.978a4.174,4.174,0,0,0-.355-2.423c-.1-.2-.191-.406-.309-.656-.2.379-.374.714-.544,1.049a8.779,8.779,0,0,0-.88,2.121,3.148,3.148,0,0,0,.046,1.673,2.253,2.253,0,0,1-.017,1.3,1.526,1.526,0,0,1-.187-.126,2.2,2.2,0,0,1-.722-1.518,5.028,5.028,0,0,1,.347-2.332q.745-1.734,1.486-3.467c.02-.045.049-.087.093-.164.116.081.226.151.328.232a4,4,0,0,1,1.528,3.1,14.617,14.617,0,0,1-.331,3.062c-.166,1.013-.368,2.025-.463,3.046a3.069,3.069,0,0,0,1.2,2.765C-115-195.864-114.867-195.763-114.7-195.629Zm4.941,16.954,2.336-1.016c-.074-.085-.131-.145-.183-.209-.761-.926-1.563-1.823-2.276-2.785a17.587,17.587,0,0,1-3.42-7.913.586.586,0,0,0-.515-.531c-.837-.19-1.69-.334-2.5-.6a21.326,21.326,0,0,1-7.511-4.445c-.309-.27-.615-.543-.932-.823l-1,2.33c.361,0,.7-.022,1.027,0a2.308,2.308,0,0,1,2.224,1.995,1.819,1.819,0,0,1-1.338,2.179,1.226,1.226,0,0,1-1.476-1.346,1.387,1.387,0,0,1,.754.359.648.648,0,0,0,1.08-.022,1.7,1.7,0,0,0-.173-1.974,1.979,1.979,0,0,0-3.082.547,2.751,2.751,0,0,0,.7,3.123,6.585,6.585,0,0,0,4.239,1.623c.892.034,1.789-.027,2.684-.031a4.618,4.618,0,0,1,.931.067,2.543,2.543,0,0,1,2,2.845c-.039,1.094-.055,2.2.01,3.287a5.91,5.91,0,0,0,1.4,3.436,2.759,2.759,0,0,0,3.2.916,1.891,1.891,0,0,0,1.136-1.965,1.664,1.664,0,0,0-1.425-1.585,1.17,1.17,0,0,0-1.206.412.6.6,0,0,0,.162.95c.088.061.207.14.223.227a.925.925,0,0,1-.05.428c-.014.043-.14.084-.208.073a1.182,1.182,0,0,1-.985-.964,1.48,1.48,0,0,1,.667-1.535,2.164,2.164,0,0,1,1.874-.224,2.5,2.5,0,0,1,1.673,2.723C-109.735-178.986-109.741-178.855-109.755-178.674Zm-9.444-3.794c.258-.179.512-.343.752-.524a3.594,3.594,0,0,0,1.493-2.35,1.786,1.786,0,0,0-1.343-2.1,2.557,2.557,0,0,0-1.49.146,4.135,4.135,0,0,0-1.887,1.63c-.1.14-.188.285-.309.471a10.645,10.645,0,0,0,1.312-.01,3.764,3.764,0,0,0,1.865-.91.3.3,0,0,1,.249-.06,3.451,3.451,0,0,1,.431.341A3.688,3.688,0,0,0-119.2-182.469Zm13.459-4.7a4.8,4.8,0,0,0-2.034-1.44c-1.557-.6-3.1-1.233-4.651-1.851a.72.72,0,0,0-.151-.016l.548,2.335c.233-.092.4-.16.571-.222.056-.02.135-.045.175-.022a6.131,6.131,0,0,1,.983.6,3.656,3.656,0,0,0,1.715.931c.618.11,1.251.16,1.879.217C-105.892-186.56-106.125-186.492-105.74-187.165Zm-18.043,6.608c.077-.021.133-.031.186-.05.609-.222,1.22-.441,1.828-.667.473-.176.942-.364,1.416-.541a.493.493,0,0,0,.378-.572,4.578,4.578,0,0,1-.038-.806c.026-.424.086-.846.136-1.3h-.266c-.6,0-1.2.02-1.792-.008a.635.635,0,0,0-.678.428,16.267,16.267,0,0,0-1.167,3.331A.865.865,0,0,0-123.783-180.556Zm18.151,1.345c.183.123.309.205.433.29a7.427,7.427,0,0,0,2.972,1.283,1.317,1.317,0,0,0,1.14-.267.394.394,0,0,0,.01-.653,1.907,1.907,0,0,0-.473-.285,6.705,6.705,0,0,0-3.075-.453C-104.939-179.283-105.252-179.244-105.632-179.211Zm-19.583-19.576c.026-.573.058-1.092.07-1.612a5.586,5.586,0,0,0-.463-2.486.953.953,0,0,0-.5-.509c-.364-.157-.624-.035-.68.363a3.159,3.159,0,0,0-.006.824A7.727,7.727,0,0,0-125.214-198.787Zm2.153-27.488a19.094,19.094,0,0,1-1.691-5.17c.473.1.906.189,1.334.294a18.754,18.754,0,0,1,3.609,1.312c.184.088.261.061.339-.124.219-.52.473-1.027.681-1.551a1.99,1.99,0,0,0,.185-.829,1.534,1.534,0,0,0-.385-1.051,1.184,1.184,0,0,0-.942-.348.813.813,0,0,0-.77.818.525.525,0,0,0,.485.53,1.416,1.416,0,0,1,.818.45,1.2,1.2,0,0,1-1.94-.509A1.458,1.458,0,0,1-121-234a1.572,1.572,0,0,1,1.677-.408,1.951,1.951,0,0,1,1.39,2.192,7.244,7.244,0,0,1-.723,2.227c-.128.252-.226.519-.31.714a6.868,6.868,0,0,1,.714.426c.406.313.793.653,1.189.984.057-.519.1-1.054.175-1.583a6.928,6.928,0,0,1,1.814-3.856,3.5,3.5,0,0,1,4.112-.647c1.2.58,2.417,1.126,3.616,1.712a.9.9,0,0,0,1.047-.123A8.912,8.912,0,0,1-103-234.044a5.287,5.287,0,0,1,1.78-.131,1.193,1.193,0,0,1,1.011.968,1.164,1.164,0,0,1-.579,1.337,7.254,7.254,0,0,1-3.877.736,14.059,14.059,0,0,0-1.742-.012.652.652,0,0,0-.393.194,20.021,20.021,0,0,0-5.539,9.338c-.131.536-.168,1.1-.247,1.645-.012.075-.01.152-.02.227a.41.41,0,0,1-.427.426,13.474,13.474,0,0,0-3.764.823,18.647,18.647,0,0,0-4.732,2.662c-.953.725-1.847,1.528-2.749,2.317a.774.774,0,0,0-.223.531c0,.446.088.888.116,1.333a7.935,7.935,0,0,1-.535,3.671,2.785,2.785,0,0,1-.313.548,1.253,1.253,0,0,1-1.435.479,1.271,1.271,0,0,1-.864-1.216,6.455,6.455,0,0,1,.921-3.4,16.324,16.324,0,0,1,.975-1.478.845.845,0,0,0,.094-.96c-.592-1.214-1.159-2.439-1.739-3.659a3.522,3.522,0,0,1,1.051-4.442,7.368,7.368,0,0,1,3.882-1.52c.367-.036.735-.05,1.141-.077-.129-.169-.24-.323-.359-.472-.309-.391-.625-.777-.928-1.173a.337.337,0,0,0-.435-.137c-.527.2-1.051.414-1.586.6a5.393,5.393,0,0,1-1.145.3,1.833,1.833,0,0,1-1.788-.835,1.752,1.752,0,0,1-.161-1.888,1.541,1.541,0,0,1,1.631-.772,1.271,1.271,0,0,1,1.04,1.073,1.28,1.28,0,0,1-.32,1.015,3.55,3.55,0,0,1-.382-.742c-.1-.426-.207-.592-.54-.614a.784.784,0,0,0-.859.556,1.151,1.151,0,0,0,1.1,1.448,5.869,5.869,0,0,0,2.276-.613C-123.467-226.045-123.28-226.162-123.062-226.275Zm10.441-5.693a1.284,1.284,0,0,1-.353.73.658.658,0,0,0,.024,1.055,1.62,1.62,0,0,0,1.988-.151,1.975,1.975,0,0,0-.375-2.995,2.674,2.674,0,0,0-2.965.309,5.509,5.509,0,0,0-1.431,1.974,7.4,7.4,0,0,0-.448,2.754c-.05.848-.008,1.7-.017,2.554a3.128,3.128,0,0,1-.487,1.806,2.648,2.648,0,0,1-2.374,1.042c-1.08.006-2.162-.028-3.241.01a5.831,5.831,0,0,0-3.442,1.311,2.769,2.769,0,0,0-1.206,2.631,1.9,1.9,0,0,0,1.159,1.655,1.9,1.9,0,0,0,2-.273,1.562,1.562,0,0,0,.411-1.9.739.739,0,0,0-1.28-.129.968.968,0,0,1-.677.267,1.2,1.2,0,0,1,.962-1.3,1.4,1.4,0,0,1,1.192.291,2,2,0,0,1,.612,2.162,2.351,2.351,0,0,1-2.222,1.727c-.31.008-.621,0-.976,0l.992,2.287.146-.117a33.95,33.95,0,0,1,3.912-3.015,16.49,16.49,0,0,1,6.646-2.647,1.594,1.594,0,0,0,1.133-.651l-.313-.045c.009-.121.012-.222.026-.321a13.271,13.271,0,0,1,.827-2.938,22.993,22.993,0,0,1,4.571-7.1c.123-.135.224-.289.363-.47l-2.285-.981a10.746,10.746,0,0,1-.006,1.133,2.32,2.32,0,0,1-2.532,2.123,1.643,1.643,0,0,1-1.665-1.774A1.146,1.146,0,0,1-112.621-231.968Zm-6.593,3.387a2.706,2.706,0,0,0,.115,1.719,13.751,13.751,0,0,0,.818,1.387c.1.147.135.241-.017.356a.669.669,0,0,0-.125.124c-.113.143-.214.142-.359.027a6.937,6.937,0,0,0-.746-.522,3.235,3.235,0,0,0-2.455-.4c.207.287.386.562.589.818a3.62,3.62,0,0,0,2.253,1.424,1.793,1.793,0,0,0,2.2-1.812,3.4,3.4,0,0,0-.926-2.19A3.16,3.16,0,0,0-119.214-228.581Zm-4.564-1.927a.527.527,0,0,0-.015.122,16.838,16.838,0,0,0,1.247,3.468.473.473,0,0,0,.471.3c.634-.006,1.268-.01,1.9,0,.214.006.252-.081.249-.268q-.016-.924,0-1.851a.46.46,0,0,0-.341-.493c-.7-.251-1.392-.514-2.089-.769C-122.823-230.165-123.288-230.331-123.778-230.509Zm-1.388,18.08a.848.848,0,0,0-.1.092,9.351,9.351,0,0,0-1.38,2.714,3.376,3.376,0,0,0-.154,1.517.492.492,0,0,0,.354.446.53.53,0,0,0,.631-.195,3.394,3.394,0,0,0,.252-.465,5.931,5.931,0,0,0,.448-2.264C-125.1-211.186-125.146-211.789-125.166-212.429Zm19.322-19.417c.472,0,.869,0,1.265,0a7.221,7.221,0,0,0,2.06-.158c.413-.116.82-.254,1.225-.4a.518.518,0,0,0,.382-.46c.014-.224-.157-.332-.318-.45a1.33,1.33,0,0,0-1.106-.155A9.761,9.761,0,0,0-105.844-231.845Zm29.3,8.106c.7.088,1.4.145,2.093.269a6.443,6.443,0,0,1,3.38,1.724,3.646,3.646,0,0,1,.566,4.3c-.641,1.2-1.172,2.45-1.75,3.678-.123.262.02.469.155.676.375.572.782,1.126,1.109,1.724a5.834,5.834,0,0,1,.812,3.118c-.036.729-.314,1.171-.928,1.308a1.134,1.134,0,0,1-1.387-.552,5.71,5.71,0,0,1-.813-2.888c-.006-.806.048-1.614.1-2.421a.977.977,0,0,0-.339-.824,22.257,22.257,0,0,0-6.1-4.311,15.893,15.893,0,0,0-3.638-1.216c-.428-.085-.868-.107-1.3-.178-.378-.061-.468-.182-.5-.569a14.134,14.134,0,0,0-1.612-5.34,24.026,24.026,0,0,0-3.822-5.342c-.081-.086-.158-.176-.233-.267a.969.969,0,0,0-.975-.337,9.109,9.109,0,0,1-4.205-.232A4.409,4.409,0,0,1-97-231.93a1.129,1.129,0,0,1-.506-1.254,1.1,1.1,0,0,1,.887-.964,5.42,5.42,0,0,1,1.211,0,7.381,7.381,0,0,1,2.954,1.189c.378.205.745.434,1.112.659a.98.98,0,0,0,1.025.049c1.189-.584,2.389-1.143,3.586-1.714a3.53,3.53,0,0,1,4.66,1.354,7.608,7.608,0,0,1,1.29,3.552c.035.359.077.717.118,1.1a.9.9,0,0,0,.162-.075q.691-.538,1.377-1.079a.471.471,0,0,0,.162-.681c-.208-.5-.446-.984-.61-1.5a3.288,3.288,0,0,1-.132-1.842,1.907,1.907,0,0,1,2.293-1.3,1.551,1.551,0,0,1,1.033,2.007,1.26,1.26,0,0,1-2,.451,3.905,3.905,0,0,1,.748-.368c.437-.107.618-.255.607-.63a.8.8,0,0,0-.7-.772,1.174,1.174,0,0,0-1.346,1.122,1.563,1.563,0,0,0,.059.587c.237.738.5,1.469.751,2.2a.989.989,0,0,0,.056.108,19.935,19.935,0,0,1,5.236-1.712c-.046.26-.079.5-.13.725a19.374,19.374,0,0,1-1.427,4.153c-.1.2-.056.3.128.4a6.254,6.254,0,0,0,2.36.866,1.3,1.3,0,0,0,1.151-.5,1.047,1.047,0,0,0,.173-1.116.788.788,0,0,0-.86-.44c-.274.03-.4.2-.5.583a7.218,7.218,0,0,1-.31.766,1.215,1.215,0,0,1-.352-1.106,1.306,1.306,0,0,1,1.685-.948,1.633,1.633,0,0,1,.924,2.419,1.994,1.994,0,0,1-2.494.939c-.739-.227-1.455-.534-2.175-.822-.168-.066-.247-.06-.367.094-.408.527-.842,1.034-1.267,1.548C-76.469-223.822-76.518-223.768-76.543-223.739Zm-11.43-8.7-2.313,1.01c.051.066.075.1.1.131.623.735,1.272,1.448,1.865,2.206a18.461,18.461,0,0,1,3.28,5.988c.277.916.437,1.867.644,2.8.037.166.091.266.284.288a13.676,13.676,0,0,1,3.119.732A22.41,22.41,0,0,1-74.1-215.14c.379.32.747.653,1.149,1l1-2.3c-.334,0-.621,0-.906,0a2.437,2.437,0,0,1-2.3-1.743,2,2,0,0,1,.822-2.279,1.263,1.263,0,0,1,1.916.714c.024.1.019.283-.043.326a.382.382,0,0,1-.512-.014c-.078-.074-.115-.2-.2-.258-.137-.1-.3-.236-.446-.229a.758.758,0,0,0-.744.518,2.175,2.175,0,0,0-.092.938,1.67,1.67,0,0,0,1.714,1.329,1.942,1.942,0,0,0,2.009-2.046,2.872,2.872,0,0,0-1.071-2.256,6,6,0,0,0-4.031-1.444c-1.131-.009-2.267.028-3.393-.061a2.43,2.43,0,0,1-2.286-2.682c.006-1.037.059-2.075.028-3.11a6.306,6.306,0,0,0-1.165-3.452,2.938,2.938,0,0,0-2.647-1.449,1.928,1.928,0,0,0-1.744,1.026,1.886,1.886,0,0,0,.136,2.059,1.551,1.551,0,0,0,2.027.46.683.683,0,0,0,.042-1.214.546.546,0,0,1-.211-.243c-.094-.2.066-.486.246-.465a1.263,1.263,0,0,1,1.022.935,1.578,1.578,0,0,1-1.12,1.8,2.364,2.364,0,0,1-3.075-2.253C-87.975-231.815-87.973-232.1-87.973-232.437Zm12.215,6.484c-.408,0-.771-.03-1.126.007a3.808,3.808,0,0,0-1.992.922c-.062.05-.179.126-.205.106a1.807,1.807,0,0,1-.39-.385c-.027-.039.075-.181.133-.266.126-.189.274-.365.4-.558a3.317,3.317,0,0,0,.432-2.528c-.268.19-.519.359-.758.541a3.537,3.537,0,0,0-1.5,2.376,1.765,1.765,0,0,0,1.341,2.05,2.551,2.551,0,0,0,1.143-.038A3.9,3.9,0,0,0-75.758-225.953Zm1.859-4.49c-.06-.019-.077-.03-.091-.027a16.25,16.25,0,0,0-3.58,1.289.4.4,0,0,0-.218.414c0,.634.008,1.267-.006,1.9,0,.214.078.254.266.251q.963-.014,1.925,0a.438.438,0,0,0,.458-.318c.347-.923.7-1.843,1.039-2.768C-74.017-229.945-73.966-230.2-73.9-230.442Zm-18.249-1.4.019-.1c-.246-.161-.49-.324-.737-.483a6.529,6.529,0,0,0-2.534-1.034,1.877,1.877,0,0,0-1,.02.5.5,0,0,0-.2.889.968.968,0,0,0,.371.254,10.616,10.616,0,0,0,1.782.435C-93.684-231.788-92.914-231.845-92.148-231.845ZM-72.5-212.223c-.012.225-.019.45-.036.675a6.957,6.957,0,0,0,.342,3.111,1.936,1.936,0,0,0,.368.623.5.5,0,0,0,.887-.246,2.912,2.912,0,0,0,.009-.9A6.708,6.708,0,0,0-72.5-212.223Zm-36.968-4.543a12.43,12.43,0,0,0,3.329-1.955c.707-.577,1.367-1.21,2.067-1.8a3.534,3.534,0,0,1,1.969-.848,4.189,4.189,0,0,1,2.894.875c1.45,1.05,2.878,2.134,4.326,3.189a76.807,76.807,0,0,0,8.571,5.541,1.169,1.169,0,0,1,.615.883,12.332,12.332,0,0,1,.1,1.309c.042.834.072,1.67.1,2.505.053,1.433.1,2.867.16,4.3.026.615.059,1.23.117,1.843.081.855.187,1.709.287,2.562.049.424.109.845.165,1.271a.935.935,0,0,0,.722-1.065c-.041-.5-.106-.99-.158-1.484-.113-1.072-.269-2.142-.326-3.218-.078-1.475-.1-2.954-.108-4.432-.01-1.732.015-3.465.032-5.2a4.293,4.293,0,0,1,1.626-3.352,2.511,2.511,0,0,1,2.09-.613,2.378,2.378,0,0,1,2.1,2.862,2.725,2.725,0,0,1-2.733,2.238.621.621,0,0,1-.634-.647,2.047,2.047,0,0,1,.628-1.6,5.062,5.062,0,0,1,.891-.554c.094-.056.247-.056.2-.233a.734.734,0,0,0-.629-.472,1.325,1.325,0,0,0-.954.511A4.251,4.251,0,0,0-83-212.4a3.324,3.324,0,0,0-.048,1.529.375.375,0,0,0,.4.345c.672-.052,1.35-.081,2.012-.191a3.093,3.093,0,0,0,2.59-2.244,3.165,3.165,0,0,0-.736-3.354,3.527,3.527,0,0,0-5.011.059,5.989,5.989,0,0,0-1.495,2.636c-.122.4-.256.795-.395,1.22a98.423,98.423,0,0,1-12.746-8.568,3.941,3.941,0,0,1,2.538-.311,5.02,5.02,0,0,1,1.846,1.121c1.131.9,2.242,1.825,3.4,2.68a4.238,4.238,0,0,0,3.162.884,3.808,3.808,0,0,0,1.329-.419c-.048-.079-.078-.138-.116-.19q-.886-1.206-1.773-2.409a5.589,5.589,0,0,0-2.708-2.121,2.335,2.335,0,0,0-1.165-.094c-.132.022-.263.051-.4.077l-.015.1c.444.216.877.462,1.337.639a3.668,3.668,0,0,1,1.748,1.249c.391.548.714,1.143,1.059,1.722.1.162.171.341.281.566a3.961,3.961,0,0,1-1.985-.493,36.962,36.962,0,0,1-3.781-2.979,4.544,4.544,0,0,0-4.9-.927,2.135,2.135,0,0,1-1.51-.036,4.6,4.6,0,0,0-2.784-.169,6.14,6.14,0,0,0-2.2,1.3c-1.225.97-2.465,1.92-3.705,2.871a4.34,4.34,0,0,1-1.488.5,4.144,4.144,0,0,1-.2-.442.332.332,0,0,1,.01-.251c.317-.5.627-1,.976-1.481a3.76,3.76,0,0,1,2.336-1.534,2,2,0,0,0,.9-.6,2.166,2.166,0,0,0-.332-.117,2.72,2.72,0,0,0-2.668.855c-.8.905-1.538,1.864-2.3,2.8-.3.366-.581.74-.9,1.148A3.55,3.55,0,0,0-109.467-216.766Zm10.317,6.39a7.112,7.112,0,0,0-2.777.574,7.09,7.09,0,0,0-3.685,3.666,7.093,7.093,0,0,0,3,9.075c1.434.747,4.978,1.166,5.375.566-.055,0-.1-.013-.149-.013a14.7,14.7,0,0,1-1.864.014,5.7,5.7,0,0,1-4.369-2.823,8.628,8.628,0,0,1-.927-6.692,5.221,5.221,0,0,1,4.768-4.2l.637-.074Zm.66.1c.208.029.418.05.623.09a5.774,5.774,0,0,1,4.412,3.605,9.222,9.222,0,0,1,.369,5.978,5.181,5.181,0,0,1-3.414,3.876.742.742,0,0,0-.146.1l.028.065a3.332,3.332,0,0,0,.325-.078,6.915,6.915,0,0,0,3.638-2.735,7.517,7.517,0,0,0,1.173-5.48,6.073,6.073,0,0,0-1.908-3.625,7.624,7.624,0,0,0-4.846-1.907,1.536,1.536,0,0,0-.252.022Zm17.609,21.093a1.564,1.564,0,0,1-1.578,1.59,1.588,1.588,0,0,1-1.583-1.582,1.592,1.592,0,0,1,1.573-1.587A1.555,1.555,0,0,1-80.881-189.179Zm-1.584-.832a.8.8,0,0,0-.815.866.82.82,0,0,0,.842.823.826.826,0,0,0,.817-.851A.8.8,0,0,0-82.465-190.011Zm-32.786-.747a1.614,1.614,0,0,1,1.591,1.58,1.621,1.621,0,0,1-1.585,1.59,1.593,1.593,0,0,1-1.592-1.6A1.585,1.585,0,0,1-115.25-190.758Zm-.006.746a.813.813,0,0,0-.835.851.834.834,0,0,0,.854.84.858.858,0,0,0,.833-.847A.831.831,0,0,0-115.256-190.012Zm-1.58-31.933a1.584,1.584,0,0,1,1.579-1.578,1.611,1.611,0,0,1,1.6,1.571,1.641,1.641,0,0,1-1.6,1.6A1.612,1.612,0,0,1-116.836-221.945Zm1.6-.839a.81.81,0,0,0-.859.825.833.833,0,0,0,.83.867.866.866,0,0,0,.858-.852A.827.827,0,0,0-115.233-222.784Zm34.352.849a1.6,1.6,0,0,1-1.573,1.584,1.6,1.6,0,0,1-1.585-1.583,1.555,1.555,0,0,1,1.6-1.585A1.56,1.56,0,0,1-80.881-221.934Zm-2.4-.027a.816.816,0,0,0,.818.868.825.825,0,0,0,.844-.845.8.8,0,0,0-.809-.846A.8.8,0,0,0-83.28-221.961Z" transform="translate(133.151 234.491)" fill="#aeafb1"/></svg>