<svg xmlns="http://www.w3.org/2000/svg" width="76.107" height="61.091" viewBox="0 0 76.107 61.091"><g transform="translate(-274 -17.482)"><g transform="translate(274 62.929)"><path d="M282.713,60.631l1.557,2.524H280.4L279.185,61.1h-1.921v2.059H274V54.366h6.9a3.405,3.405,0,0,1,1.808,6.265Zm-5.448-2.3h3.014c.327,0,.728,0,.728-.6s-.4-.6-.728-.6h-3.014Z" transform="translate(-274 -53.111)" fill="#aeafb1"/><path d="M285.819,53.375v2.008h-3.012V53.375Zm0,2.51v7.534h-3.012V55.885Z" transform="translate(-271.656 -53.375)" fill="#aeafb1"/><path d="M291,55.258c2.976,0,4.847.955,5.1,3.328h-3.076c-.239-.641-.942-.815-2.022-.815-1.343,0-2.108.276-2.108,1.38s.765,1.381,2.108,1.381c1.08,0,1.783-.176,2.022-.817H296.1c-.251,2.373-2.122,3.328-5.1,3.328-3.2,0-5.122-1.1-5.122-3.892S287.8,55.258,291,55.258Z" transform="translate(-270.837 -52.874)" fill="#aeafb1"/><path d="M304.918,59.011v4.408H301.9V60.242c0-1.293-.465-1.845-1.821-1.845a3.67,3.67,0,0,0-2.422.953v4.068h-3.014V53.375h3.014V56.89a6.149,6.149,0,0,1,3.64-1.131C303,55.759,304.918,56.287,304.918,59.011Z" transform="translate(-268.504 -53.375)" fill="#aeafb1"/><path d="M310.411,58.271l5.323,4.884h-3.126L308.74,59.5l-2.7,1.97v1.683h-2.259V54.366h2.259v4.558l6.265-4.558h3.428Z" transform="translate(-266.072 -53.111)" fill="#aeafb1"/><path d="M316.311,53.375v1.87h-2.146v-1.87Zm0,2.649v7.395h-2.146V56.024Z" transform="translate(-263.308 -53.375)" fill="#aeafb1"/><path d="M327.147,53.375V63.418H325V62.264a4.992,4.992,0,0,1-3.692,1.28c-2.372,0-4.406-.991-4.406-3.816s2.035-3.829,4.406-3.829A4.992,4.992,0,0,1,325,57.179v-3.8ZM325,59.727c0-1.469-1.055-2.034-2.976-2.034s-2.964.565-2.964,2.034,1.042,2.021,2.964,2.021S325,61.184,325,59.727Z" transform="translate(-262.58 -53.375)" fill="#aeafb1"/><path d="M328.183,60.288c0,.791.815,1.093,3.214,1.093,2.323,0,2.7-.151,2.7-.728s-.352-.6-2.95-.766c-3.252-.187-4.847-.439-4.847-2.222,0-1.933,2.26-2.3,4.9-2.3,2.788,0,4.809.363,4.809,2.4h-2.159c0-.614-.779-.766-2.774-.766-2.035,0-2.612.152-2.612.579,0,.463.389.539,2.938.728,2.888.213,4.858.289,4.858,2.259,0,2.084-1.883,2.449-4.733,2.449s-5.486-.365-5.486-2.725Z" transform="translate(-260.148 -52.844)" fill="#aeafb1"/></g><path d="M347.587,47.967a3.787,3.787,0,0,0-7.108.329,7.693,7.693,0,0,0-.157,1.043,1.787,1.787,0,0,0,.661-.623,2.489,2.489,0,0,1,3.121-.728,2.43,2.43,0,0,1,1.441,2.62,2.389,2.389,0,0,1-2.387,2.139,7.387,7.387,0,0,1-3.82-.547,34.823,34.823,0,0,1-4.082-2.3c-3.453-2.364-6.32-5.4-9.3-8.316-.682-.667-1.336-1.373-1.913-1.98l-.113-.091-.015-.014-.976-1.194-1.005-1.223,3.13-3.633,2.349-2.731,1.839-2.132.008-.008.376-.48h1.628a1.014,1.014,0,0,0,.337-.1c.105-.052.151-.18.225-.346h-8.758v.466h.023l.248.023h2.469l-.586.877-.015.015-1.426,1.644L319.2,35.973l-2.079,2.4a2.229,2.229,0,0,1-.015-.224c-.008-2.455-.023-4.909,0-7.363v-3q-2.623-.023-5.238-.03h-.39c-2.32.008-4.646.015-6.965.046h-.42c-.653,0-1.3.008-1.951.015a9.246,9.246,0,0,0-4.12,1.088,5.184,5.184,0,0,0-1.584,8.278,26.147,26.147,0,0,0,2.86,2.425c-.579.608-1.232,1.313-1.914,1.98-2.979,2.912-5.846,5.952-9.3,8.316A34.726,34.726,0,0,1,284,52.2a7.387,7.387,0,0,1-3.82.547,2.389,2.389,0,0,1-2.387-2.139,2.43,2.43,0,0,1,1.441-2.62,2.49,2.49,0,0,1,3.122.728,1.772,1.772,0,0,0,.66.623,7.7,7.7,0,0,0-.157-1.043,3.786,3.786,0,0,0-7.107-.329,3.768,3.768,0,0,0,.893,4.195,6.488,6.488,0,0,0,4.33,1.861,15.081,15.081,0,0,0,9.742-2.822,48.832,48.832,0,0,0,8.353-7.138c.848-.862,1.741-1.688,2.536-2.6a3.25,3.25,0,0,1,2.559-1.2,3.986,3.986,0,0,1,.42.023c.481.046.969.008,1.531.008a11.455,11.455,0,0,1,.12,1.156c.015,1.478.023,2.964-.008,4.435-.029,1.771-.405,2.2-2.116,2.536a2.9,2.9,0,0,0-.781.158c-.149.075-.195.329-.344.629H320.35c-.149-.3-.2-.555-.344-.629a2.9,2.9,0,0,0-.781-.158c-1.711-.338-2.085-.765-2.116-2.536-.023-1.051-.023-2.117-.015-3.176l2.1-2.446c.8-.77,1.831.4,2.536,1.2.8.908,1.689,1.733,2.536,2.6a48.889,48.889,0,0,0,8.354,7.138,15.075,15.075,0,0,0,9.741,2.822,6.485,6.485,0,0,0,4.33-1.861A3.768,3.768,0,0,0,347.587,47.967ZM306.233,38.15a8.325,8.325,0,0,1-.113.931h-1.951c-.428,0-.847,0-1.267-.008a4.652,4.652,0,0,1-4.466-3.55,4.857,4.857,0,0,1,2.2-5.666,6.72,6.72,0,0,1,3.459-.81c.143,0,.277,0,.42.008,1.471.06,1.711.262,1.718,1.733C306.256,33.241,306.241,35.695,306.233,38.15Zm7.709,7.7c-.023,1.892-.489,2.431-2.274,2.6-1.787-.166-2.253-.705-2.274-2.6-.023-2.461,0-4.923,0-7.392h-.008c0-2.417-.008-4.833,0-7.258.008-1.823.518-2.439,2.282-2.641,1.764.2,2.274.818,2.282,2.641.006,2.425,0,4.841,0,7.258h-.008C313.942,40.927,313.963,43.388,313.942,45.85Z" transform="translate(0.386 2.709)" fill="#aeafb1"/><g transform="translate(288.522 76.474)"><path d="M285.66,65.631a.91.91,0,0,0,.539.168.537.537,0,0,0,.275-.058.175.175,0,0,0,.1-.157.179.179,0,0,0-.052-.133.4.4,0,0,0-.132-.086c-.052-.022-.128-.048-.225-.08a2.467,2.467,0,0,1-.33-.122.593.593,0,0,1-.222-.18.494.494,0,0,1-.091-.308.56.56,0,0,1,.09-.314.579.579,0,0,1,.254-.213.894.894,0,0,1,.381-.076,1.215,1.215,0,0,1,.376.058,1.134,1.134,0,0,1,.329.166l-.2.322a.826.826,0,0,0-.5-.177.424.424,0,0,0-.234.056.165.165,0,0,0-.033.265.426.426,0,0,0,.127.081c.051.022.123.047.217.077a2.622,2.622,0,0,1,.336.123.62.62,0,0,1,.225.186.524.524,0,0,1,.094.322.547.547,0,0,1-.1.323.627.627,0,0,1-.275.218,1.024,1.024,0,0,1-.412.079,1.387,1.387,0,0,1-.386-.052,1.154,1.154,0,0,1-.333-.148Z" transform="translate(-285.469 -64.071)" fill="#aeafb1"/><path d="M289.693,66.167a1.084,1.084,0,0,1-.538-.134.956.956,0,0,1-.371-.374,1.148,1.148,0,0,1,0-1.078.961.961,0,0,1,.371-.372,1.158,1.158,0,0,1,1.077,0,.968.968,0,0,1,.374.372,1.149,1.149,0,0,1,0,1.078.963.963,0,0,1-.374.374A1.092,1.092,0,0,1,289.693,66.167Zm0-.377a.649.649,0,0,0,.333-.086.6.6,0,0,0,.232-.237.707.707,0,0,0,.084-.347.7.7,0,0,0-.084-.344.613.613,0,0,0-.232-.237.7.7,0,0,0-.666,0,.609.609,0,0,0-.23.237.71.71,0,0,0-.082.344.72.72,0,0,0,.082.347.6.6,0,0,0,.23.237A.652.652,0,0,0,289.693,65.79Z" transform="translate(-284.622 -64.071)" fill="#aeafb1"/><path d="M292.774,66.049a.783.783,0,0,1-.308-.318,1.025,1.025,0,0,1-.109-.481V64.1h.4v1.123a.638.638,0,0,0,.127.424.43.43,0,0,0,.348.151.438.438,0,0,0,.349-.151.638.638,0,0,0,.128-.424V64.1h.4V65.25a1.025,1.025,0,0,1-.109.481.772.772,0,0,1-.306.318.989.989,0,0,1-.917,0Z" transform="translate(-283.635 -64.065)" fill="#aeafb1"/><path d="M297.536,64.475h-.713v1.657h-.4V64.475h-.714V64.1h1.828Z" transform="translate(-282.743 -64.065)" fill="#aeafb1"/><path d="M300.9,64.1v2.035h-.4v-.841h-.967v.841h-.4V64.1h.4v.817h.967V64.1Z" transform="translate(-281.83 -64.065)" fill="#aeafb1"/><path d="M302.6,65.254v-.379h.967v.379Z" transform="translate(-280.91 -63.858)" fill="#aeafb1"/><path d="M306.711,65.622h-.837l-.191.51h-.43l.79-2.035h.5l.794,2.035h-.43Zm-.135-.366-.282-.75-.284.75Z" transform="translate(-280.203 -64.065)" fill="#aeafb1"/><path d="M309.283,64.469v.472h.9v.371h-.9v.82h-.4V64.1h1.407v.371Z" transform="translate(-279.236 -64.065)" fill="#aeafb1"/><path d="M313.156,66.133l-.5-.676h-.275v.676h-.4V64.1h.876a.747.747,0,0,1,.529.182.649.649,0,0,1,.2.5.687.687,0,0,1-.124.415.626.626,0,0,1-.346.232l.519.708Zm-.77-1.029h.443a.4.4,0,0,0,.267-.085.34.34,0,0,0,0-.471.4.4,0,0,0-.267-.081h-.443Z" transform="translate(-278.41 -64.065)" fill="#aeafb1"/><path d="M315.324,66.133V64.1h.4v2.035Z" transform="translate(-277.522 -64.065)" fill="#aeafb1"/><path d="M318.225,66.037a.983.983,0,0,1-.376-.372,1.154,1.154,0,0,1,0-1.085.978.978,0,0,1,.376-.374,1.1,1.1,0,0,1,.547-.134.978.978,0,0,1,.752.315l-.277.275a.61.61,0,0,0-.477-.206.7.7,0,0,0-.339.082.587.587,0,0,0-.234.234.773.773,0,0,0,0,.7.58.58,0,0,0,.234.234.688.688,0,0,0,.339.084.619.619,0,0,0,.48-.2l.275.271a.978.978,0,0,1-.752.315A1.1,1.1,0,0,1,318.225,66.037Z" transform="translate(-276.886 -64.072)" fill="#aeafb1"/><path d="M322.454,65.622h-.837l-.192.51h-.429l.79-2.035h.5l.794,2.035h-.431Zm-.135-.366-.284-.75-.282.75Z" transform="translate(-276.012 -64.065)" fill="#aeafb1"/></g><g transform="translate(301.094 17.482)"><path d="M295.4,21.768l3.223-4.287v4.287Z" transform="translate(-295.398 -17.482)" fill="#aeafb1"/><path d="M298.447,21.768V17.482h3.527Z" transform="translate(-294.586 -17.482)" fill="#aeafb1"/><path d="M299.192,21.768l3.709-4.287,1.976,4.287Z" transform="translate(-294.388 -17.482)" fill="#aeafb1"/><path d="M304.291,21.039l2.189-3.557h-3.831Z" transform="translate(-293.468 -17.482)" fill="#aeafb1"/><path d="M304.282,21.679l2.219-3.861,3.739,3.861Z" transform="translate(-293.033 -17.392)" fill="#aeafb1"/><path d="M310.352,21.586v-4.1h-3.861Z" transform="translate(-292.445 -17.482)" fill="#aeafb1"/><path d="M310.044,21.768V17.482l3.375,4.287Z" transform="translate(-291.499 -17.482)" fill="#aeafb1"/><path d="M295.662,21.4h2.888l-1.186,1.794Z" transform="translate(-295.328 -16.44)" fill="#aeafb1"/><path d="M299.672,21.4h4.408L302.134,23.4Z" transform="translate(-294.26 -16.44)" fill="#aeafb1"/><path d="M304.882,21.4h4.682l-2.371,1.794Z" transform="translate(-292.873 -16.44)" fill="#aeafb1"/><path d="M310.044,21.4h3.071l-1.93,1.93Z" transform="translate(-291.499 -16.44)" fill="#aeafb1"/><path d="M310.741,21.4l1.186,2.4-7.357,6.324,3.071-6.232Z" transform="translate(-292.956 -16.44)" fill="#aeafb1"/><path d="M304.425,21.4l2.767,2.523-2.767,5.959-2.28-5.959Z" transform="translate(-293.602 -16.44)" fill="#aeafb1"/><path d="M299.044,21.4l3.709,3.04,2.31,5.442-7.6-6.141Z" transform="translate(-294.848 -16.44)" fill="#aeafb1"/></g></g></svg>