<svg xmlns="http://www.w3.org/2000/svg" width="88.37" height="51.483" viewBox="0 0 88.37 51.483"><g transform="translate(0.03)"><path d="M11.15,8.23a2.16,2.16,0,0,1,.75,1.66,2,2,0,0,1-.46,1.32,1.52,1.52,0,0,1-1.23.54,1.59,1.59,0,0,1-1.11-.41,1.47,1.47,0,0,1-.46-1.13,1.85,1.85,0,0,1,1-1.6A.72.72,0,0,0,9,8.32a3,3,0,0,0-2.1.9,6.23,6.23,0,0,0-1.48,2.21,6.41,6.41,0,0,0-.54,2.46v6.27a2.15,2.15,0,0,0,.79,1.9,4.26,4.26,0,0,0,2.35.53v.62H7.31c-2-.06-3.29-.09-3.85-.09s-1.67,0-3.49.12v-.62a2.59,2.59,0,0,0,1.75-.46,2.23,2.23,0,0,0,.5-1.67v-9.3a3.16,3.16,0,0,0-.5-2A2.13,2.13,0,0,0,0,8.59V8c.63.06,1.24.09,1.84.09a9.83,9.83,0,0,0,3.07-.41v3.7A7.07,7.07,0,0,1,6.62,8.7,3.6,3.6,0,0,1,9.21,7.55,2.82,2.82,0,0,1,11.15,8.23Z" fill="#aeafb1"/><path d="M22.93,9.55q1.84,2,1.85,6t-1.85,6a6.36,6.36,0,0,1-4.87,2,6.36,6.36,0,0,1-4.87-2q-1.84-2-1.85-6t1.85-6a6.33,6.33,0,0,1,4.87-2,6.33,6.33,0,0,1,4.87,2ZM15.25,10a11.84,11.84,0,0,0-1,5.64,11.74,11.74,0,0,0,1,5.63,3.09,3.09,0,0,0,5.62,0,11.74,11.74,0,0,0,1-5.63,11.84,11.84,0,0,0-1-5.64,3.08,3.08,0,0,0-5.62,0Z" fill="#aeafb1"/><path d="M38.75,8v.6a1.66,1.66,0,0,0-1,.53,4.81,4.81,0,0,0-.87,1.54L32,23.36l-1,2.57A5.31,5.31,0,0,1,29.69,28a2.62,2.62,0,0,1-1.06.59,4.48,4.48,0,0,1-1.24.18,2.13,2.13,0,0,1-1.45-.48,1.59,1.59,0,0,1-.57-1.3,1.57,1.57,0,0,1,.42-1.14,1.5,1.5,0,0,1,1.15-.43A1.56,1.56,0,0,1,28,25.8a1.27,1.27,0,0,1,.43,1,1.43,1.43,0,0,1-.8,1.34h.18c1.09,0,1.92-.76,2.52-2.3l1-2.7L26,10.24a3.38,3.38,0,0,0-1-1.33,1.82,1.82,0,0,0-1-.32V8a21,21,0,0,0,2.9.18c1,0,2.27-.06,3.85-.18v.63a4.88,4.88,0,0,0-1.55.17.8.8,0,0,0-.49.86,3.85,3.85,0,0,0,.35,1.45l3.56,8.83,3.28-8.56A4.31,4.31,0,0,0,36.24,10a1.11,1.11,0,0,0-.53-1A3.81,3.81,0,0,0,34,8.56V8c1,.06,1.87.09,2.48.09Q37.8,8.05,38.75,8Z" fill="#aeafb1"/><path d="M39.15,22.49a3.6,3.6,0,0,1-.9-2.59A3.28,3.28,0,0,1,39,17.7a5.5,5.5,0,0,1,1.71-1.36,21.88,21.88,0,0,1,2.62-1.06,13.63,13.63,0,0,0,2.46-1,1.44,1.44,0,0,0,.8-1.27V11.13a3.05,3.05,0,0,0-.72-2.35,3,3,0,0,0-2-.64,3.56,3.56,0,0,0-2.93,1.07,1.87,1.87,0,0,1,1,.62,1.79,1.79,0,0,1,.4,1.18,1.47,1.47,0,0,1-.48,1.17,1.71,1.71,0,0,1-1.21.43,1.47,1.47,0,0,1-1.24-.52,1.91,1.91,0,0,1-.42-1.25,2,2,0,0,1,.34-1.19,4.53,4.53,0,0,1,1-1,6.48,6.48,0,0,1,1.81-.83,8.65,8.65,0,0,1,2.4-.32A5,5,0,0,1,48,8.64a3.36,3.36,0,0,1,1,1.65,10.12,10.12,0,0,1,.26,2.53v8.23a2.09,2.09,0,0,0,.2,1.07.8.8,0,0,0,.71.32,1.41,1.41,0,0,0,.67-.16,3.84,3.84,0,0,0,.67-.46l.32.5a6.92,6.92,0,0,1-1.32.85,3.39,3.39,0,0,1-1.37.25,2.43,2.43,0,0,1-2-.71,3.08,3.08,0,0,1-.56-1.93,5.1,5.1,0,0,1-2,2.06,5.69,5.69,0,0,1-2.61.58,3.72,3.72,0,0,1-2.82-.93ZM46.57,20V14.2a2,2,0,0,1-.74.68c-.32.18-.8.42-1.45.71a13.3,13.3,0,0,0-1.82.91,4,4,0,0,0-1.2,1.16,3.3,3.3,0,0,0-.5,1.9,2.76,2.76,0,0,0,.65,2,2.23,2.23,0,0,0,1.72.68A4,4,0,0,0,46.57,20Z" fill="#aeafb1"/><path d="M55.63,20.46a2.23,2.23,0,0,0,.5,1.67,2.59,2.59,0,0,0,1.75.46v.62c-1.82-.08-3-.12-3.58-.12s-1.77,0-3.58.12v-.62a2.56,2.56,0,0,0,1.74-.46A2.19,2.19,0,0,0,53,20.46V3.55a3.11,3.11,0,0,0-.51-2A2.1,2.1,0,0,0,50.72,1V.33c.61,0,1.22.08,1.83.08A9.61,9.61,0,0,0,55.63,0Z" fill="#aeafb1"/><path d="M4.91,43.16a2.22,2.22,0,0,0,.51,1.68,2.61,2.61,0,0,0,1.74.46v.62c-1.81-.08-3-.12-3.58-.12s-1.76,0-3.58.12V45.3a2.64,2.64,0,0,0,1.75-.46,2.26,2.26,0,0,0,.5-1.68V33.9a3.21,3.21,0,0,0-.5-2A2.16,2.16,0,0,0,0,31.29v-.62c.63.06,1.24.09,1.84.09a9.51,9.51,0,0,0,3.07-.42Zm-.2-19.33a1.87,1.87,0,0,1,0,2.67A1.87,1.87,0,0,1,2,26.5a1.9,1.9,0,0,1,1.33-3.23A1.85,1.85,0,0,1,4.71,23.83Z" fill="#aeafb1"/><path d="M20.43,30.67v.59a1.63,1.63,0,0,0-1.05.54,4.52,4.52,0,0,0-.88,1.54L13.65,46.07h-.51L7.7,33a3.6,3.6,0,0,0-.86-1.33A1.37,1.37,0,0,0,6,31.29v-.62q1.54.12,2.61.12,2.28,0,3.84-.12v.62a5.46,5.46,0,0,0-1.59.17c-.34.1-.51.39-.51.84a4.23,4.23,0,0,0,.33,1.3l3.64,9,3.26-8.55a4.6,4.6,0,0,0,.32-1.4,1.07,1.07,0,0,0-.52-1,4.09,4.09,0,0,0-1.67-.4v-.59q1.55.09,2.49.09A22.014,22.014,0,0,0,20.43,30.67Z" fill="#aeafb1"/><path d="M33.37,30.67v.59a1.68,1.68,0,0,0-1.06.54,4.7,4.7,0,0,0-.87,1.54L26.59,46.07l-1,2.57a5.3,5.3,0,0,1-1.27,2.07,2.57,2.57,0,0,1-1.07.6,4.81,4.81,0,0,1-1.24.17A2.13,2.13,0,0,1,20.55,51a1.61,1.61,0,0,1-.57-1.3,1.54,1.54,0,0,1,.42-1.14,1.5,1.5,0,0,1,1.15-.43,1.56,1.56,0,0,1,1.08.37,1.27,1.27,0,0,1,.43,1,1.42,1.42,0,0,1-.8,1.33.42.42,0,0,0,.18,0q1.64,0,2.52-2.31l1-2.69L20.64,33a3.48,3.48,0,0,0-1-1.33,1.83,1.83,0,0,0-1-.33v-.62a21,21,0,0,0,2.9.18c1,0,2.27-.06,3.85-.18v.62a4.82,4.82,0,0,0-1.55.18.8.8,0,0,0-.49.86,3.74,3.74,0,0,0,.36,1.45l3.55,8.82,3.28-8.55a4.36,4.36,0,0,0,.33-1.37,1.09,1.09,0,0,0-.53-1,3.93,3.93,0,0,0-1.69-.42v-.59c1.05.06,1.87.09,2.49.09Q32.41,30.76,33.37,30.67Z" fill="#aeafb1"/><path d="M47.74,41.21,47,43.37c-.71,2-1.9,3.05-3.58,3.05a2,2,0,0,1-1.86-.86,1.7,1.7,0,0,1-.24-1,8.09,8.09,0,0,1,.5-2.31l2.82-8.47a5.82,5.82,0,0,0,.29-1.45c0-.69-.31-1-1-1a3.968,3.968,0,0,0-2.56,1.65,20.39,20.39,0,0,0-2.82,4.51,39.85,39.85,0,0,0-2.4,6.37L35.67,46H33.09l3.55-12.7a4.92,4.92,0,0,0,.21-1.1c0-.49-.22-.74-.65-.74a1.46,1.46,0,0,0-1.16.65,9.78,9.78,0,0,0-1.12,2.37l-.39,1.1H33l.74-2.16c.71-2,1.89-3.05,3.52-3.05a1.73,1.73,0,0,1,1.35.45,1.9,1.9,0,0,1,.4,1.29,10.77,10.77,0,0,1-.41,2.4l-1,4.06a22.44,22.44,0,0,1,3.63-6.34A5.12,5.12,0,0,1,45,30.38q2.4,0,2.4,2.22a7.11,7.11,0,0,1-.44,2.25L44,43.49a4,4,0,0,0-.23,1.13.63.63,0,0,0,.71.71,1.52,1.52,0,0,0,1.14-.67,8.49,8.49,0,0,0,1.14-2.35l.38-1.1Z" fill="#aeafb1"/><path d="M60.92,41.18h.56l-.74,2.16a5.19,5.19,0,0,1-1.51,2.36,3,3,0,0,1-1.89.72,2.28,2.28,0,0,1-1-.2,1.64,1.64,0,0,1-.65-.57,1.93,1.93,0,0,1-.27-1,5.41,5.41,0,0,1,.21-1.4l.27-1,.53-2.13a16,16,0,0,1-2.89,4.81,4.32,4.32,0,0,1-3.06,1.49,2.39,2.39,0,0,1-2.07-1,4.32,4.32,0,0,1-.72-2.61A13.77,13.77,0,0,1,49,37.48a16.24,16.24,0,0,1,3.31-5,5.93,5.93,0,0,1,4.15-2.07,1.6,1.6,0,0,1,1.3.59,2.84,2.84,0,0,1,.59,1.66l.48-1.84a10.47,10.47,0,0,0,2.72-.41l-3.7,13.08-.12.46a2.53,2.53,0,0,0-.09.64c0,.49.22.74.65.74q1.3,0,2.28-3Zm-7.58,3a16.44,16.44,0,0,0,2.26-3.39,25.33,25.33,0,0,0,1.83-4.51L58,34.2a5.62,5.62,0,0,0,0-.66,3.7,3.7,0,0,0-.43-1.91,1.35,1.35,0,0,0-1.2-.69c-.85,0-1.75.65-2.69,2a17.84,17.84,0,0,0-2.39,4.85,17.31,17.31,0,0,0-1,5.44,4.1,4.1,0,0,0,.27,1.74.82.82,0,0,0,.77.54,3.289,3.289,0,0,0,2.01-1.31Z" fill="#aeafb1"/><path d="M66.07,32.21c0-.49-.22-.74-.65-.74a1.52,1.52,0,0,0-1.21.71,9.48,9.48,0,0,0-1.13,2.31l-.41,1.1H62.1l.77-2.16a4.62,4.62,0,0,1,1.59-2.37,3.56,3.56,0,0,1,2.08-.68c1.31,0,2,.62,2,1.86A6.75,6.75,0,0,1,68,34.52l-3.16,9a3.71,3.71,0,0,0-.24,1.1.64.64,0,0,0,.71.74,1.49,1.49,0,0,0,1.15-.68,9.62,9.62,0,0,0,1.16-2.34l.41-1.1h.57l-.77,2.16a4.9,4.9,0,0,1-1.56,2.34,3.4,3.4,0,0,1-2.08.71c-1.39,0-2.08-.6-2.08-1.8a7.26,7.26,0,0,1,.54-2.34l3.16-9A3.78,3.78,0,0,0,66.07,32.21Zm1.32-8a2.05,2.05,0,0,1,1.52-.69A1.45,1.45,0,0,1,70,24a1.58,1.58,0,0,1,.41,1.1,2.33,2.33,0,0,1-2.21,2.2,1.42,1.42,0,0,1-1.06-.43,1.49,1.49,0,0,1-.42-1.08,2.22,2.22,0,0,1,.67-1.59Z" fill="#aeafb1"/><path d="M71.16,44.53c0,.53.23.8.68.8A1.43,1.43,0,0,0,73,44.65a9.16,9.16,0,0,0,1.11-2.34l.39-1.1H75l-.74,2.16c-.69,2-1.87,3.05-3.55,3.05q-2,0-2-1.92a8.79,8.79,0,0,1,.41-2.22l4.83-16a3.64,3.64,0,0,0,.14-.83.92.92,0,0,0-.46-.86,3.37,3.37,0,0,0-1.55-.26l.21-.62a13.41,13.41,0,0,0,2.83-.33,11.19,11.19,0,0,0,2.44-.89l-6.19,21a3.9,3.9,0,0,0-.21,1.04Z" fill="#aeafb1"/><path d="M77.07,45.77a4,4,0,0,0,.78.06A3,3,0,0,0,80,45a2.94,2.94,0,0,0,.83-2.25,4.94,4.94,0,0,0-.35-1.85,9.77,9.77,0,0,0-1.19-2.06,17.35,17.35,0,0,1-1.46-2.23,4.32,4.32,0,0,1-.46-2.06A4,4,0,0,1,78,32.4a4.22,4.22,0,0,1,1.67-1.49,5,5,0,0,1,2.3-.53,5.28,5.28,0,0,1,2.57.57,2.09,2.09,0,0,1,1,2,1.81,1.81,0,0,1-.34,1,1.17,1.17,0,0,1-1,.5,1.15,1.15,0,0,1-.85-.35,1.28,1.28,0,0,1-.34-.89,3.29,3.29,0,0,1,.83-2,2.79,2.79,0,0,0-1.48-.35,2.47,2.47,0,0,0-1.85.75,2.87,2.87,0,0,0-.72,2.06A3.11,3.11,0,0,0,80.07,35a17.45,17.45,0,0,0,1,1.61l.53.77a16.75,16.75,0,0,1,1.32,2.34,4.88,4.88,0,0,1,.43,2,4.25,4.25,0,0,1-.7,2.4,4.67,4.67,0,0,1-1.86,1.66,5.45,5.45,0,0,1-2.53.59,5.25,5.25,0,0,1-2.84-.72,2.44,2.44,0,0,1-1.16-2.21,1.61,1.61,0,0,1,.28-.92,1,1,0,0,1,.88-.41,1.06,1.06,0,0,1,1,.53A2.5,2.5,0,0,1,76.7,44a8.55,8.55,0,0,1-.21,1.54A2.4,2.4,0,0,0,77.07,45.77Z" fill="#aeafb1"/><circle cx="1.64" cy="1.64" r="1.64" transform="translate(85.06 42.54)" fill="#aeafb1"/></g></svg>