<svg xmlns="http://www.w3.org/2000/svg" width="105" height="56.667" viewBox="0 0 105 56.667"><g transform="translate(0)"><g transform="translate(40.411 0)"><g transform="translate(0.043 17.185)"><path d="M-452.4-102.3a7.212,7.212,0,0,0-.234-1.838h-4.777a2.555,2.555,0,0,1,.6,1.838c0,2.574-2.059,2.574-3.381,2.574h-7.842v-4.412h-4.412v12.7h4.412v-4.584h7.106l2.77,4.584h5.2l-3.161-5.1A5.85,5.85,0,0,0-452.4-102.3Z" transform="translate(472.448 104.141)" fill="#aeafb1"/></g><g transform="translate(0 5.221)"><path d="M-472.485-104.324v-9.911l10.664,9.786S-472.548-104.387-472.485-104.324Z" transform="translate(472.485 114.486)" fill="#aeafb1"/><path d="M-461.464-104.352l-6.21-5.9,4.2-4.2,10.036,10.036Z" transform="translate(473.257 114.451)" fill="#aeafb1"/><path d="M-454.8-105.416v-8.656l-4.391,4.14Z" transform="translate(474.618 114.512)" fill="#aeafb1"/></g><rect width="2.738" height="2.738" transform="translate(10.036 0) rotate(45)" fill="#aeafb1"/></g><g transform="translate(0 42.556)"><path d="M-492.637-68.166a11.191,11.191,0,0,1-8.439-4.1l-.384-.45c-.687-.818-1.217-1.442-1.847-1.442h-.219v-.311h.841c2.052,0,3.419-1.5,3.419-3.747a3.585,3.585,0,0,0-3.419-3.729h-1.9v.017a1.273,1.273,0,0,1,.311.952v10.712c0,.878.109.969.986.969h1.061v.165h-5.083V-69.3h.641c.877,0,.969-.09.969-.969V-81.143c0-.877-.092-.969-.969-.969h-.641v-.165h4.771c2.917,0,4.862,1.623,4.862,4.059a4.062,4.062,0,0,1-3.875,3.948l-.366.019v.109a3.237,3.237,0,0,1,1.992,1.252c2.814,3.13,5.8,4.177,8.19,4.177a9.634,9.634,0,0,0,5.859-2.068l.1.13A10.757,10.757,0,0,1-492.637-68.166Z" transform="translate(507.311 82.277)" fill="#aeafb1"/><path d="M-497.056-75.84a4.8,4.8,0,0,1,5.045-4.515c3.005,0,5.008,1.806,5.008,4.515a4.79,4.79,0,0,1-5.008,4.534C-495.038-71.306-497.056-73.12-497.056-75.84Zm8.464.347c0-2.5-1.565-4.534-3.492-4.534-2.029,0-3.383,1.543-3.383,3.858,0,2.5,1.572,4.532,3.51,4.532C-489.938-71.636-488.592-73.178-488.592-75.493Z" transform="translate(508.956 82.585)" fill="#aeafb1"/><path d="M-485.923-69.3h1.572c.877,0,.969-.09.969-.969v-5.064l-2.87-5.52c-.44-.841-.677-1.28-1.207-1.28h-.384v-.146h3.454v.146h-1.133v.037c.237.091.456.475.748,1.023l2.359,4.5a2.814,2.814,0,0,1,.237.585h.129a3.217,3.217,0,0,1,.238-.585l2.193-4.241a1.916,1.916,0,0,0,.268-.805c0-.305-.2-.511-.78-.511h-1.1v-.146h3.528v.146h-.311c-.53,0-.74.362-1.224,1.3l-2.706,5.228v5.338c0,.878.092.969.969.969h1.353v.165h-6.307Z" transform="translate(510.434 82.277)" fill="#aeafb1"/><path d="M-479.1-69.3h.292c.457,0,.731-.512,1.006-1.134l5.132-11.845h1.411v.219A3.466,3.466,0,0,0-471.093-81l4.314,10.565c.366.877.476,1.134,1.078,1.134h.146v.165h-3.49V-69.3h1.408v-.037c-.238-.091-.439-.548-.567-.859l-1.02-2.5h-7.24l-.99,2.266a1.061,1.061,0,0,0-.094.418c0,.425.332.716.88.716h.9v.165H-479.1Zm9.741-3.729-3.105-7.623a1.708,1.708,0,0,1-.146-.731h-.165a2.244,2.244,0,0,1-.219.731l-3.328,7.623Z" transform="translate(511.836 82.277)" fill="#aeafb1"/><path d="M-465.113-69.3h.64c.877,0,.969-.219.969-1.1V-81.162c0-.877-.092-.95-.969-.95h-.64v-.165h4.661v.165h-.639c-.877,0-.987.073-.987.95v10.73a1.345,1.345,0,0,1-.4.95v.019h2.467c1.756,0,2.925-.347,3.071-2.1l.146-1.829h.366L-456.8-68.2l-.182-.017.073-1.079h-.019c-.128.128-.2.165-.493.165h-7.7Z" transform="translate(514.079 82.277)" fill="#aeafb1"/><path d="M-449.031-69.3h.641c.877,0,.969-.073.969-.95V-81.162c0-.877-.092-.95-.969-.95h-.641v-.165h4.661v.2h-.638c-.878,0-.988.073-.988.952v10.876c0,.877.109.95.988.95h.638v.165h-4.661Z" transform="translate(516.658 82.277)" fill="#aeafb1"/><path d="M-439.095-82.277v.165H-440.5v.036c.256.092.457.53.566.841l4.205,10.182a2.132,2.132,0,0,1,.146.658h.237a1.907,1.907,0,0,1,.183-.731l4.1-9.853a1.315,1.315,0,0,0,.121-.507c0-.376-.262-.627-.889-.627h-1.572v-.165h3.986v.165h-.219c-.586,0-.732.328-1.061,1.134l-4.826,11.936-.987.074-4.843-12.01c-.335-.831-.476-1.134-1.079-1.134h-.274v-.165Z" transform="translate(517.671 82.277)" fill="#aeafb1"/><path d="M-427.17-69.3h1.571c.877,0,.969-.09.969-.969v-5.064l-2.87-5.52c-.439-.841-.677-1.28-1.207-1.28h-.383v-.146h3.454v.146h-1.134v.037c.238.091.457.475.75,1.023l2.358,4.5a2.828,2.828,0,0,1,.238.585h.128a3.406,3.406,0,0,1,.238-.585l2.194-4.241a1.917,1.917,0,0,0,.268-.805c0-.305-.2-.511-.781-.511h-1.1v-.146h3.529v.146h-.311c-.53,0-.74.362-1.225,1.3l-2.7,5.228v5.338c0,.878.092.969.969.969h1.353v.165h-6.307Z" transform="translate(519.857 82.277)" fill="#aeafb1"/><g transform="translate(100.836 8.892)"><g transform="translate(1.208 0.95)"><path d="M-418.121-71.533a.05.05,0,0,1-.05-.034l-.389-.827h-.3a.017.017,0,0,0-.02.02v.808a.03.03,0,0,1-.034.034h-.422c-.022,0-.033-.012-.033-.034v-2.194c0-.022.01-.034.033-.034h.9a.788.788,0,0,1,.555.2.655.655,0,0,1,.214.506.684.684,0,0,1-.108.379.673.673,0,0,1-.295.249l.446.891a.027.027,0,0,1,0,.027.024.024,0,0,1-.023.013Zm-.121-1.355a.269.269,0,0,0,.085-.2.263.263,0,0,0-.085-.2.32.32,0,0,0-.222-.077h-.4a.018.018,0,0,0-.02.02v.522c0,.014.007.021.02.021h.4A.316.316,0,0,0-418.242-72.889Z" transform="translate(419.371 73.795)" fill="#aeafb1"/></g><path d="M-418.33-70.451a2.084,2.084,0,0,1-2.082-2.082,2.084,2.084,0,0,1,2.082-2.082,2.083,2.083,0,0,1,2.082,2.082A2.084,2.084,0,0,1-418.33-70.451Zm0-3.886a1.806,1.806,0,0,0-1.8,1.8,1.807,1.807,0,0,0,1.8,1.8,1.806,1.806,0,0,0,1.8-1.8A1.806,1.806,0,0,0-418.33-74.337Z" transform="translate(420.412 74.614)" fill="#aeafb1"/></g></g></g></svg>