<svg xmlns="http://www.w3.org/2000/svg" width="142.745" height="62.26" viewBox="0 0 142.745 62.26"><g transform="translate(0 0)"><path d="M3.468,51.71A3.233,3.233,0,0,0,4.64,53.885a4.22,4.22,0,0,0,2.692.808,3.735,3.735,0,0,0,2.32-.614,1.908,1.908,0,0,0,.808-1.568,1.851,1.851,0,0,0-.5-1.253A3.1,3.1,0,0,0,8.342,50.4l-3.314-.808Q.178,48.485.218,44.452a4.979,4.979,0,0,1,.428-2.207A4.85,4.85,0,0,1,2,40.555a6.337,6.337,0,0,1,2.045-1.107,7.93,7.93,0,0,1,2.522-.388,7.962,7.962,0,0,1,2.651.428,6.758,6.758,0,0,1,2.1,1.18,6.354,6.354,0,0,1,1.5,1.811,6.944,6.944,0,0,1,.752,2.344H10.056a3.646,3.646,0,0,0-1.164-2.061,3.589,3.589,0,0,0-2.377-.744,3.338,3.338,0,0,0-2,.566A1.859,1.859,0,0,0,3.7,44.2a1.73,1.73,0,0,0,.582,1.35,3.387,3.387,0,0,0,1.617.76l3.29.808a6.952,6.952,0,0,1,3.7,1.835,4.672,4.672,0,0,1,1.132,3.282,4.915,4.915,0,0,1-.509,2.134,5.149,5.149,0,0,1-1.35,1.722,6.467,6.467,0,0,1-2.11,1.148,8.7,8.7,0,0,1-2.781.364,8.892,8.892,0,0,1-2.8-.428,7.178,7.178,0,0,1-2.231-1.188A6.313,6.313,0,0,1,.7,54.119,5.941,5.941,0,0,1,0,51.694Z" transform="translate(0 -7.486)" fill="#aeafb1"/><path d="M36.326,57.412H32.47l-1.512-4.349H23.683l-1.52,4.349H18.51l6.685-18h4.478Zm-6.467-7.461-2.546-7.218-2.506,7.218Z" transform="translate(-3.548 -7.553)" fill="#aeafb1"/><path d="M42.91,39.41H55.221v3.112H46.483v4.349H54.97v3.056H46.483V54.3h8.738v3.112H42.91Z" transform="translate(-8.224 -7.553)" fill="#aeafb1"/><path d="M73.823,46.04a4.271,4.271,0,0,0-7.477-2.425,5.61,5.61,0,0,0-1.213,3.864v1.673a7.057,7.057,0,0,0,.323,2.239,4.737,4.737,0,0,0,.905,1.657,3.84,3.84,0,0,0,1.415,1.027,4.632,4.632,0,0,0,1.827.348,4.2,4.2,0,0,0,2.8-.986,4.486,4.486,0,0,0,1.423-2.813h3.427a8.342,8.342,0,0,1-.808,2.926,7.275,7.275,0,0,1-1.673,2.215,7.194,7.194,0,0,1-2.368,1.4,8.083,8.083,0,0,1-2.853.5,8.666,8.666,0,0,1-3.29-.606,7.348,7.348,0,0,1-2.554-1.706,7.825,7.825,0,0,1-1.641-2.611,9.6,9.6,0,0,1-.59-3.419V47.358a9.531,9.531,0,0,1,.59-3.411,7.833,7.833,0,0,1,1.665-2.635,7.275,7.275,0,0,1,2.554-1.706A8.665,8.665,0,0,1,69.579,39a8.083,8.083,0,0,1,2.91.5,7.275,7.275,0,0,1,2.344,1.423,7.461,7.461,0,0,1,1.617,2.231,8.657,8.657,0,0,1,.808,2.886Z" transform="translate(-11.783 -7.475)" fill="#aeafb1"/><path d="M84.7,39.41H97.019v3.112H88.273v4.349H96.76v3.056H88.273V54.3h8.746v3.112H84.7Z" transform="translate(-16.234 -7.553)" fill="#aeafb1"/><path d="M103.272,47.358a9.029,9.029,0,0,1,.614-3.411,7.825,7.825,0,0,1,1.714-2.635,7.542,7.542,0,0,1,2.619-1.706,9.7,9.7,0,0,1,6.758,0,7.5,7.5,0,0,1,2.619,1.706,7.8,7.8,0,0,1,1.706,2.635,9.029,9.029,0,0,1,.622,3.411v1.924A9.1,9.1,0,0,1,119.3,52.7a7.792,7.792,0,0,1-1.706,2.651,7.5,7.5,0,0,1-2.627,1.706,9.7,9.7,0,0,1-6.758,0,7.542,7.542,0,0,1-2.619-1.706,7.817,7.817,0,0,1-1.738-2.611,9.1,9.1,0,0,1-.614-3.419Zm3.621,1.795a6.612,6.612,0,0,0,.348,2.239,4.971,4.971,0,0,0,.962,1.657,3.937,3.937,0,0,0,1.479,1.027,5.02,5.02,0,0,0,1.916.348,4.955,4.955,0,0,0,1.892-.348,3.969,3.969,0,0,0,1.487-1.027,4.624,4.624,0,0,0,1-1.657,6.612,6.612,0,0,0,.348-2.239V47.487a5.416,5.416,0,0,0-1.293-3.872,4.915,4.915,0,0,0-6.814,0,5.416,5.416,0,0,0-1.3,3.872Z" transform="translate(-19.787 -7.475)" fill="#aeafb1"/><path d="M1.379,67.565a.622.622,0,0,0,.226.428.808.808,0,0,0,.525.146.808.808,0,0,0,.428-.113.4.4,0,0,0,.154-.307.331.331,0,0,0-.105-.243.647.647,0,0,0-.315-.17l-.647-.154c-.631-.137-.938-.477-.938-.994a.962.962,0,0,1,.1-.437.865.865,0,0,1,.259-.331,1.237,1.237,0,0,1,.4-.21,1.56,1.56,0,0,1,.485-.081,1.479,1.479,0,0,1,.517.089,1.261,1.261,0,0,1,.412.226,1.124,1.124,0,0,1,.291.356,1.107,1.107,0,0,1,.146.453H2.656a.671.671,0,0,0-.226-.4.687.687,0,0,0-.461-.146.63.63,0,0,0-.388.105.372.372,0,0,0-.162.315.356.356,0,0,0,.113.267.809.809,0,0,0,.307.146l.647.154a1.334,1.334,0,0,1,.719.356.913.913,0,0,1,.218.639,1.027,1.027,0,0,1-.089.42,1.051,1.051,0,0,1-.267.331,1.261,1.261,0,0,1-.412.226,1.843,1.843,0,0,1-.534.081,1.617,1.617,0,0,1-.542-.089,1.237,1.237,0,0,1-.445-.234,1.1,1.1,0,0,1-.3-.364A1.132,1.132,0,0,1,.7,67.565Z" transform="translate(-0.134 -12.477)" fill="#aeafb1"/><path d="M7.214,67.636a1.35,1.35,0,0,1-.089.525,1.107,1.107,0,0,1-.251.4,1.18,1.18,0,0,1-.4.251,1.415,1.415,0,0,1-.5.089,1.455,1.455,0,0,1-.5-.089,1.124,1.124,0,0,1-.646-.647,1.56,1.56,0,0,1-.089-.525v-.275a1.479,1.479,0,0,1,.089-.517,1.14,1.14,0,0,1,.251-.4,1.18,1.18,0,0,1,.4-.251,1.382,1.382,0,0,1,.5-.089,1.414,1.414,0,0,1,.5.089,1.067,1.067,0,0,1,.647.647,1.35,1.35,0,0,1,.089.525ZM6.567,67.4a.808.808,0,0,0-.154-.5.5.5,0,0,0-.428-.186.5.5,0,0,0-.428.186.808.808,0,0,0-.146.5v.234a.808.808,0,0,0,.146.5.5.5,0,0,0,.428.186.5.5,0,0,0,.428-.186.808.808,0,0,0,.154-.5Z" transform="translate(-0.908 -12.669)" fill="#aeafb1"/><path d="M8.66,66.21h.671v1.617a.574.574,0,0,0,.146.4.509.509,0,0,0,.388.162.534.534,0,0,0,.388-.162.542.542,0,0,0,.146-.4V66.21h.671v2.668H10.4v-.412a.913.913,0,0,1-.323.372.9.9,0,0,1-.461.129.913.913,0,0,1-.4-.081.873.873,0,0,1-.283-.234,1.035,1.035,0,0,1-.194-.315,1.221,1.221,0,0,1-.065-.388Z" transform="translate(-1.66 -12.69)" fill="#aeafb1"/><path d="M13.051,68.51a.655.655,0,0,1-.178-.469V66.61H12.34v-.582h.534V65.26h.671v.768h.7v.582h-.7v1.3a.186.186,0,0,0,.065.154.291.291,0,0,0,.178.048h.461V68.7h-.655a.736.736,0,0,1-.542-.186" transform="translate(-2.365 -12.508)" fill="#aeafb1"/><path d="M17.809,68.632h-.671V67.016a.582.582,0,0,0-.146-.4.566.566,0,0,0-.808,0,.558.558,0,0,0-.146.4v1.617H15.4v-3.7h.671V66.4a.946.946,0,0,1,.323-.364.857.857,0,0,1,.469-.137.905.905,0,0,1,.388.081.932.932,0,0,1,.485.525,1.035,1.035,0,0,1,.073.388Z" transform="translate(-2.952 -12.445)" fill="#aeafb1"/><path d="M23.868,68.678h-.752l-.3-.849H21.41l-.3.849H20.4l1.293-3.508h.865Zm-1.261-1.455-.493-1.382-.493,1.407Z" transform="translate(-3.91 -12.491)" fill="#aeafb1"/><path d="M24.8,65.939h.534v-.485a.687.687,0,0,1,.178-.469.736.736,0,0,1,.542-.186h.631v.582h-.5a.17.17,0,0,0-.129.049.2.2,0,0,0-.049.154v.356h.679v.582H26v2.086h-.671V66.521H24.8Z" transform="translate(-4.753 -12.419)" fill="#aeafb1"/><path d="M29.115,66.843a.582.582,0,0,0-.234.049.606.606,0,0,0-.194.121.744.744,0,0,0-.137.2.752.752,0,0,0-.049.275v1.382H27.83V66.2H28.5v.525a.808.808,0,0,1,.259-.4.63.63,0,0,1,.445-.154h.2v.663Z" transform="translate(-5.334 -12.684)" fill="#aeafb1"/><path d="M30.828,65.592a.38.38,0,0,1-.275-.105.364.364,0,0,1-.113-.267.4.4,0,0,1,.113-.275.38.38,0,0,1,.275-.105.356.356,0,0,1,.267.105.388.388,0,0,1,.105.275.356.356,0,0,1-.372.372m.331,3.023h-.671V65.947h.671Z" transform="translate(-5.834 -12.427)" fill="#aeafb1"/><path d="M33.41,68.926a1.415,1.415,0,0,1-.5-.089,1.116,1.116,0,0,1-.38-.251,1.18,1.18,0,0,1-.251-.4,1.382,1.382,0,0,1-.089-.525v-.275a1.309,1.309,0,0,1,.089-.517,1.14,1.14,0,0,1,.251-.4,1.116,1.116,0,0,1,.38-.251,1.414,1.414,0,0,1,.5-.089,1.132,1.132,0,0,1,.808.283,1.164,1.164,0,0,1,.38.752h-.647a.614.614,0,0,0-.186-.323.558.558,0,0,0-.76.065.808.808,0,0,0-.146.5v.234a.808.808,0,0,0,.146.5.566.566,0,0,0,.76.073.606.606,0,0,0,.186-.331H34.6a1.4,1.4,0,0,1-.129.428,1.14,1.14,0,0,1-.259.323,1.124,1.124,0,0,1-.356.21,1.253,1.253,0,0,1-.428.073" transform="translate(-6.169 -12.674)" fill="#aeafb1"/><path d="M35.64,68.106a.679.679,0,0,1,.226-.55,1.091,1.091,0,0,1,.655-.234l.728-.057v-.1a.412.412,0,0,0-.113-.307.493.493,0,0,0-.34-.113,1.01,1.01,0,0,0-.339.065,1.73,1.73,0,0,0-.34.178l-.283-.5a1.754,1.754,0,0,1,1.051-.34,1.148,1.148,0,0,1,.42.065.849.849,0,0,1,.323.186.93.93,0,0,1,.2.3,1.051,1.051,0,0,1,.073.4V68.13a.137.137,0,0,0,.154.154h.137v.582h-.323a.582.582,0,0,1-.356-.105.509.509,0,0,1-.21-.307.881.881,0,0,1-.76.437,1.075,1.075,0,0,1-.364-.065.865.865,0,0,1-.291-.17A.808.808,0,0,1,35.7,68.4a.7.7,0,0,1-.065-.323m.647,0a.259.259,0,0,0,.113.218.485.485,0,0,0,.3.089.606.606,0,0,0,.21-.04.574.574,0,0,0,.178-.105.728.728,0,0,0,.121-.154.485.485,0,0,0,.04-.194v-.154l-.631.049c-.218,0-.331.121-.331.291" transform="translate(-6.83 -12.678)" fill="#aeafb1"/><path d="M41.969,68.862H41.3V67.245a.582.582,0,0,0-.146-.4.5.5,0,0,0-.388-.154.525.525,0,0,0-.388.154.558.558,0,0,0-.146.4v1.617H39.56V66.195h.671v.437a.962.962,0,0,1,.331-.364.808.808,0,0,1,.461-.137.857.857,0,0,1,.388.081.873.873,0,0,1,.3.21,1.035,1.035,0,0,1,.194.315,1.221,1.221,0,0,1,.065.388Z" transform="translate(-7.582 -12.675)" fill="#aeafb1"/><path d="M45.06,65.17h2.393v.606h-1.7v.849H47.4v.6H45.755v.849h1.7v.606H45.06Z" transform="translate(-8.636 -12.491)" fill="#aeafb1"/><path d="M51.319,68.862h-.671V67.245a.582.582,0,0,0-.146-.4.493.493,0,0,0-.38-.154.5.5,0,0,0-.388.154.534.534,0,0,0-.154.4v1.617H48.91V66.195h.671v.437a.962.962,0,0,1,.331-.364.808.808,0,0,1,.461-.137.857.857,0,0,1,.388.081.808.808,0,0,1,.3.21.994.994,0,0,1,.259.7Z" transform="translate(-9.374 -12.675)" fill="#aeafb1"/><path d="M53.309,68.51a.655.655,0,0,1-.178-.469V66.61H52.59v-.582h.542V65.26H53.8v.768h.736v.582h-.7v1.3a.162.162,0,0,0,.065.154.275.275,0,0,0,.178.049h.461V68.7h-.663a.728.728,0,0,1-.534-.186" transform="translate(-10.079 -12.508)" fill="#aeafb1"/><path d="M56.935,66.843a.582.582,0,0,0-.234.049.606.606,0,0,0-.194.121.6.6,0,0,0-.137.2.752.752,0,0,0-.049.275v1.382H55.65V66.2h.671v.525a.808.808,0,0,1,.259-.4.631.631,0,0,1,.445-.154h.2v.663Z" transform="translate(-10.666 -12.684)" fill="#aeafb1"/><path d="M58.05,67.4a1.31,1.31,0,0,1,.089-.517,1.2,1.2,0,0,1,.243-.4,1.164,1.164,0,0,1,.388-.259,1.374,1.374,0,0,1,.493-.089,1.067,1.067,0,0,1,.461.1.938.938,0,0,1,.356.259,1.059,1.059,0,0,1,.226.4,1.463,1.463,0,0,1,.089.509v.356H58.7a.679.679,0,0,0,.178.445.582.582,0,0,0,.428.154.873.873,0,0,0,.622-.267l.4.4a1.487,1.487,0,0,1-.445.331,1.528,1.528,0,0,1-.606.113,1.229,1.229,0,0,1-.5-.089,1.083,1.083,0,0,1-.4-.259,1.107,1.107,0,0,1-.251-.4,1.479,1.479,0,0,1-.089-.517Zm1.7-.162a.606.606,0,0,0-.121-.4.485.485,0,0,0-.356-.137.493.493,0,0,0-.364.137.614.614,0,0,0-.162.388Z" transform="translate(-11.126 -12.675)" fill="#aeafb1"/><path d="M62.451,66.195v.34a.881.881,0,0,1,.323-.3.978.978,0,0,1,.445-.105,1.108,1.108,0,0,1,.437.089,1.059,1.059,0,0,1,.348.251,1.14,1.14,0,0,1,.226.388,1.463,1.463,0,0,1,.081.509V67.7a1.39,1.39,0,0,1-.081.5,1.14,1.14,0,0,1-.226.388.954.954,0,0,1-.348.251,1.107,1.107,0,0,1-.437.089.873.873,0,0,1-.437-.105.93.93,0,0,1-.331-.283V69.97H61.78V66.195Zm0,1.56a.671.671,0,0,0,.178.428.558.558,0,0,0,.42.154.533.533,0,0,0,.445-.186.744.744,0,0,0,.154-.5v-.243a.744.744,0,0,0-.154-.5.533.533,0,0,0-.445-.186.558.558,0,0,0-.42.154.671.671,0,0,0-.178.428Z" transform="translate(-11.841 -12.675)" fill="#aeafb1"/><path d="M67.047,66.843a.663.663,0,0,0-.428.17.582.582,0,0,0-.129.2.752.752,0,0,0-.048.275v1.382H65.77V66.2h.663v.525a.873.873,0,0,1,.259-.4.647.647,0,0,1,.445-.154h.21v.663Z" transform="translate(-12.605 -12.684)" fill="#aeafb1"/><path d="M68.16,67.4a1.479,1.479,0,0,1,.089-.517,1.221,1.221,0,0,1,.251-.4,1.132,1.132,0,0,1,.38-.259,1.415,1.415,0,0,1,.5-.089,1.059,1.059,0,0,1,.453.1.881.881,0,0,1,.356.259,1.075,1.075,0,0,1,.234.4,1.463,1.463,0,0,1,.081.509v.356H68.839a.679.679,0,0,0,.178.445.582.582,0,0,0,.428.154.857.857,0,0,0,.622-.267l.388.372a1.39,1.39,0,0,1-.445.331,1.52,1.52,0,0,1-.6.113,1.3,1.3,0,0,1-.509-.089.994.994,0,0,1-.388-.259,1.124,1.124,0,0,1-.259-.4,1.479,1.479,0,0,1-.089-.517Zm1.706-.162a.614.614,0,0,0-.162-.388.477.477,0,0,0-.356-.137.509.509,0,0,0-.364.137.663.663,0,0,0-.162.388Z" transform="translate(-13.064 -12.675)" fill="#aeafb1"/><path d="M74.284,68.862h-.7V67.245a.582.582,0,0,0-.146-.4.566.566,0,0,0-.808,0,.558.558,0,0,0-.145.4v1.617H71.81V66.195h.671v.437a.9.9,0,0,1,.331-.364.808.808,0,0,1,.461-.137.857.857,0,0,1,.388.081.954.954,0,0,1,.3.21,1.035,1.035,0,0,1,.194.315,1.221,1.221,0,0,1,.065.388Z" transform="translate(-13.763 -12.675)" fill="#aeafb1"/><path d="M75.72,67.4a1.479,1.479,0,0,1,.089-.517,1.366,1.366,0,0,1,.251-.4,1.132,1.132,0,0,1,.38-.259,1.415,1.415,0,0,1,.5-.089,1.091,1.091,0,0,1,.461.1,1.01,1.01,0,0,1,.356.259,1.18,1.18,0,0,1,.226.4,1.463,1.463,0,0,1,.081.509v.356H76.383a.639.639,0,0,0,.178.445.566.566,0,0,0,.428.154.857.857,0,0,0,.614-.267l.4.4a1.39,1.39,0,0,1-.445.331,1.487,1.487,0,0,1-.6.113,1.3,1.3,0,0,1-.509-.089.994.994,0,0,1-.388-.259,1.01,1.01,0,0,1-.251-.4,1.309,1.309,0,0,1-.1-.517Zm1.706-.162a.655.655,0,0,0-.154-.388.493.493,0,0,0-.364-.137.485.485,0,0,0-.356.137.663.663,0,0,0-.17.388Z" transform="translate(-14.512 -12.675)" fill="#aeafb1"/><path d="M79.45,66.21h.671v1.617a.574.574,0,0,0,.146.4.55.55,0,0,0,.808,0,.542.542,0,0,0,.146-.4V66.21h.671v2.668h-.7v-.412a.913.913,0,0,1-.323.372.9.9,0,0,1-.461.129.857.857,0,0,1-.388-.081.905.905,0,0,1-.307-.21.881.881,0,0,1-.186-.315,1.034,1.034,0,0,1-.073-.388Z" transform="translate(-15.227 -12.69)" fill="#aeafb1"/><path d="M84.7,66.843a.663.663,0,0,0-.428.17.582.582,0,0,0-.129.2.76.76,0,0,0-.057.275v1.382H83.41V66.2h.671v.525a.873.873,0,0,1,.259-.4.647.647,0,0,1,.445-.154h.21v.663Z" transform="translate(-15.986 -12.684)" fill="#aeafb1"/><path d="M87.1,68.913a1.366,1.366,0,0,1-.453-.065,1.091,1.091,0,0,1-.364-.178.994.994,0,0,1-.267-.283,1.075,1.075,0,0,1-.137-.372h.63a.461.461,0,0,0,.194.275.671.671,0,0,0,.4.105.436.436,0,0,0,.267-.073.234.234,0,0,0,.1-.2.178.178,0,0,0-.065-.146.372.372,0,0,0-.194-.1l-.55-.129c-.493-.113-.736-.372-.736-.808a.808.808,0,0,1,.073-.34.728.728,0,0,1,.2-.267.986.986,0,0,1,.315-.17,1.2,1.2,0,0,1,.4-.065,1.439,1.439,0,0,1,.428.065,1.237,1.237,0,0,1,.356.186,1.253,1.253,0,0,1,.251.291,1.132,1.132,0,0,1,.129.372h-.647a.477.477,0,0,0-.186-.283.509.509,0,0,0-.331-.105.364.364,0,0,0-.243.073.226.226,0,0,0-.089.186q0,.194.315.267l.509.121a.8.8,0,0,1,.728.808.711.711,0,0,1-.081.348.916.916,0,0,1-.534.436,1.374,1.374,0,0,1-.412.057" transform="translate(-16.46 -12.669)" fill="#aeafb1"/><path d="M91.851,68.632H91.18V67.016a.582.582,0,0,0-.146-.4.566.566,0,0,0-.808,0,.558.558,0,0,0-.145.4v1.617H89.41v-3.7h.671V66.4a.946.946,0,0,1,.323-.364.881.881,0,0,1,.469-.137.905.905,0,0,1,.388.081.954.954,0,0,1,.3.21.881.881,0,0,1,.186.315,1.035,1.035,0,0,1,.073.388Z" transform="translate(-17.136 -12.445)" fill="#aeafb1"/><path d="M93.75,65.592a.356.356,0,0,1-.267-.105.34.34,0,0,1-.113-.267.364.364,0,0,1,.113-.275.356.356,0,0,1,.267-.105.364.364,0,0,1,.275.105.388.388,0,0,1,.105.275.356.356,0,0,1-.105.267.364.364,0,0,1-.275.105m.34,3.023h-.671V65.947h.671Z" transform="translate(-17.895 -12.427)" fill="#aeafb1"/><path d="M95.939,66.194v.34a.905.905,0,0,1,.808-.4,1.14,1.14,0,0,1,.437.089,1.027,1.027,0,0,1,.34.251,1.156,1.156,0,0,1,.234.388,1.682,1.682,0,0,1,.081.509V67.7a1.617,1.617,0,0,1-.081.5,1.156,1.156,0,0,1-.234.388.929.929,0,0,1-.339.251,1.14,1.14,0,0,1-.437.089.873.873,0,0,1-.436-.105.954.954,0,0,1-.34-.283v1.431H95.3V66.194Zm0,1.56a.679.679,0,0,0,.186.428.55.55,0,0,0,.42.154.533.533,0,0,0,.445-.186.744.744,0,0,0,.154-.5v-.243a.744.744,0,0,0-.154-.5.534.534,0,0,0-.445-.186.55.55,0,0,0-.42.154.679.679,0,0,0-.186.428Z" transform="translate(-18.265 -12.674)" fill="#aeafb1"/><path d="M3.211,73.894a.881.881,0,0,0-.283-.55.808.808,0,0,0-.542-.186.808.808,0,0,0-.631.267,1.075,1.075,0,0,0-.243.752v.348a1.237,1.237,0,0,0,.065.437.808.808,0,0,0,.178.323.7.7,0,0,0,.275.2.994.994,0,0,0,.356.065.808.808,0,0,0,.542-.218.865.865,0,0,0,.283-.55h.671a1.479,1.479,0,0,1-.162.574,1.423,1.423,0,0,1-.323.428,1.318,1.318,0,0,1-.461.275,1.544,1.544,0,0,1-.55.1,1.673,1.673,0,0,1-.647-.121,1.293,1.293,0,0,1-.493-.331A1.447,1.447,0,0,1,.923,75.2a1.8,1.8,0,0,1-.113-.671v-.372a1.73,1.73,0,0,1,.154-.663,1.479,1.479,0,0,1,.323-.517,1.4,1.4,0,0,1,.485-.331,1.673,1.673,0,0,1,.647-.121,1.617,1.617,0,0,1,.566.105,1.358,1.358,0,0,1,.4.283,1.334,1.334,0,0,1,.323.437,1.536,1.536,0,0,1,.154.558Z" transform="translate(-0.155 -13.899)" fill="#aeafb1"/><path d="M5.27,74.829a1.512,1.512,0,0,1,.081-.517,1.229,1.229,0,0,1,.251-.4,1.027,1.027,0,0,1,.38-.259,1.261,1.261,0,0,1,.5-.1,1.067,1.067,0,0,1,.461.1,1.035,1.035,0,0,1,.356.259,1.18,1.18,0,0,1,.226.4,1.463,1.463,0,0,1,.081.509v.356H5.925a.639.639,0,0,0,.178.445.566.566,0,0,0,.428.154.808.808,0,0,0,.614-.243l.412.4a1.366,1.366,0,0,1-.445.331,1.423,1.423,0,0,1-.606.081A1.3,1.3,0,0,1,6,76.252a1.067,1.067,0,0,1-.639-.655,1.309,1.309,0,0,1-.089-.517Zm1.7-.162a.606.606,0,0,0-.154-.388.493.493,0,0,0-.364-.137.485.485,0,0,0-.356.137.663.663,0,0,0-.17.388Z" transform="translate(-1.01 -14.099)" fill="#aeafb1"/><path d="M11.425,76.292h-.671V74.724a.55.55,0,0,0-.146-.388.477.477,0,0,0-.38-.162.5.5,0,0,0-.388.154.534.534,0,0,0-.154.4v1.617H9V73.633h.671v.428A.962.962,0,0,1,10,73.7a.808.808,0,0,1,.461-.137.978.978,0,0,1,.388.081.994.994,0,0,1,.3.21,1.035,1.035,0,0,1,.194.315,1.237,1.237,0,0,1,.065.4Z" transform="translate(-1.725 -14.099)" fill="#aeafb1"/><path d="M13.389,75.93a.663.663,0,0,1-.186-.469V74.03H12.67v-.582H13.2V72.64h.671v.808h.679v.582h-.711v1.326a.186.186,0,0,0,.065.154.315.315,0,0,0,.186.049h.461v.582h-.663a.728.728,0,0,1-.534-.186" transform="translate(-2.428 -13.922)" fill="#aeafb1"/><path d="M17.015,74.275a.582.582,0,0,0-.234.048.509.509,0,0,0-.194.129.525.525,0,0,0-.137.2.728.728,0,0,0-.048.275V76.3H15.73V73.644H16.4v.517a.849.849,0,0,1,.259-.4.671.671,0,0,1,.445-.146h.2v.655Z" transform="translate(-3.015 -14.11)" fill="#aeafb1"/><path d="M18.122,74.829a1.342,1.342,0,0,1,.089-.517,1.091,1.091,0,0,1,.243-.4,1.059,1.059,0,0,1,.388-.259,1.221,1.221,0,0,1,.493-.1,1.067,1.067,0,0,1,.461.1,1.035,1.035,0,0,1,.356.259,1.059,1.059,0,0,1,.226.4,1.463,1.463,0,0,1,.089.509v.356H18.777a.679.679,0,0,0,.178.445.582.582,0,0,0,.428.154.873.873,0,0,0,.622-.267l.4.4a1.366,1.366,0,0,1-.445.331,1.4,1.4,0,0,1-.606.113,1.229,1.229,0,0,1-.534-.089,1.18,1.18,0,0,1-.4-.251,1.14,1.14,0,0,1-.251-.4,1.479,1.479,0,0,1-.089-.517Zm1.7-.162a.606.606,0,0,0-.154-.388.485.485,0,0,0-.356-.137.493.493,0,0,0-.364.137.614.614,0,0,0-.162.388Z" transform="translate(-3.467 -14.099)" fill="#aeafb1"/><path d="M23.37,76.108V72.6h2.4v.606H24.065v.849h1.649v.6H24.065v1.455Z" transform="translate(-4.479 -13.915)" fill="#aeafb1"/><path d="M29.412,75.1a1.479,1.479,0,0,1-.089.517,1.059,1.059,0,0,1-.259.4,1.035,1.035,0,0,1-.388.251,1.3,1.3,0,0,1-.509.089,1.221,1.221,0,0,1-.493-.089,1.067,1.067,0,0,1-.4-.251,1.2,1.2,0,0,1-.259-.4,1.512,1.512,0,0,1-.089-.517v-.283a1.479,1.479,0,0,1,.089-.517,1.124,1.124,0,0,1,.259-.4,1.091,1.091,0,0,1,.388-.259,1.479,1.479,0,0,1,1.01,0,1.285,1.285,0,0,1,.388.251,1.2,1.2,0,0,1,.259.4,1.52,1.52,0,0,1,.089.525Zm-.663-.267a.808.808,0,0,0-.146-.5.55.55,0,0,0-.437-.186.534.534,0,0,0-.428.186.808.808,0,0,0-.146.5v.243a.808.808,0,0,0,.146.509.534.534,0,0,0,.428.186.55.55,0,0,0,.437-.186.808.808,0,0,0,.146-.509Z" transform="translate(-5.161 -14.099)" fill="#aeafb1"/><path d="M32.155,74.275a.582.582,0,0,0-.234.049.574.574,0,0,0-.323.331.6.6,0,0,0-.057.275V76.3H30.87V73.644h.671v.517a.913.913,0,0,1,.243-.4.671.671,0,0,1,.445-.146h.2v.655Z" transform="translate(-5.917 -14.11)" fill="#aeafb1"/><path d="M35.05,72.6h2.4v.606H35.745v.849H37.4v.6H35.745V75.5h1.706v.606h-2.4Z" transform="translate(-6.718 -13.915)" fill="#aeafb1"/><path d="M39.416,74.966l-.97-1.326h.768l.574.833.582-.833h.744l-.978,1.318,1,1.35H40.37l-.606-.857-.59.857H38.43Z" transform="translate(-7.365 -14.114)" fill="#aeafb1"/><rect width="1.746" height="0.59" transform="translate(34.08 60.399)" fill="#aeafb1"/><path d="M45.19,74.153a1.9,1.9,0,0,1,.113-.663,1.512,1.512,0,0,1,.34-.517,1.39,1.39,0,0,1,.509-.331,1.713,1.713,0,0,1,.655-.121,1.762,1.762,0,0,1,.663.121,1.544,1.544,0,0,1,.509.331,1.617,1.617,0,0,1,.331.517,1.73,1.73,0,0,1,.121.663v.372a1.73,1.73,0,0,1-.121.663,1.536,1.536,0,0,1-.331.517,1.423,1.423,0,0,1-.509.331,1.762,1.762,0,0,1-.663.121,1.714,1.714,0,0,1-.655-.121,1.293,1.293,0,0,1-.509-.331,1.439,1.439,0,0,1-.34-.517,1.9,1.9,0,0,1-.113-.663Zm.7.348a1.455,1.455,0,0,0,.065.437.986.986,0,0,0,.194.323.727.727,0,0,0,.283.2,1.1,1.1,0,0,0,.744,0,.808.808,0,0,0,.291-.2.849.849,0,0,0,.186-.323,1.237,1.237,0,0,0,.073-.436v-.323a1.051,1.051,0,0,0-.259-.752.954.954,0,0,0-1.326,0,1.043,1.043,0,0,0-.251.752Z" transform="translate(-8.661 -13.899)" fill="#aeafb1"/><path d="M49.78,73.37h.534v-.525a.622.622,0,0,1,.178-.461.7.7,0,0,1,.534-.194h.639v.655h-.5a.17.17,0,0,0-.129.049.218.218,0,0,0-.049.154v.364h.679v.574h-.679V76.07h-.671V73.944H49.78Z" transform="translate(-9.541 -13.836)" fill="#aeafb1"/><path d="M52.5,73.37h.534v-.525a.631.631,0,0,1,.186-.461.687.687,0,0,1,.534-.194h.639v.655h-.5a.194.194,0,0,0-.137.049.218.218,0,0,0-.049.154v.364h.687v.574h-.679V76.07h-.671V73.944H52.5Z" transform="translate(-10.062 -13.836)" fill="#aeafb1"/><path d="M55.2,74.829a1.512,1.512,0,0,1,.089-.517,1.01,1.01,0,0,1,.251-.4,1.027,1.027,0,0,1,.38-.259,1.228,1.228,0,0,1,.5-.1,1.059,1.059,0,0,1,.453.1,1.035,1.035,0,0,1,.356.259,1.2,1.2,0,0,1,.234.4,1.681,1.681,0,0,1,.081.509v.356h-1.7a.679.679,0,0,0,.178.445.582.582,0,0,0,.428.154.857.857,0,0,0,.622-.267l.4.4a1.366,1.366,0,0,1-.445.331,1.39,1.39,0,0,1-.6.113,1.3,1.3,0,0,1-.509-.089,1.075,1.075,0,0,1-.388-.251,1.156,1.156,0,0,1-.259-.4,1.479,1.479,0,0,1-.089-.517Zm1.706-.162a.614.614,0,0,0-.162-.388.485.485,0,0,0-.356-.137.493.493,0,0,0-.364.137.614.614,0,0,0-.162.388Z" transform="translate(-10.578 -14.099)" fill="#aeafb1"/><path d="M61.339,76.292h-.671V74.724a.55.55,0,0,0-.146-.388.477.477,0,0,0-.388-.162.5.5,0,0,0-.388.154.558.558,0,0,0-.146.4v1.617H58.93V73.633H59.6v.428a.946.946,0,0,1,.323-.364.881.881,0,0,1,.469-.137,1.043,1.043,0,0,1,.388.081,1.107,1.107,0,0,1,.3.21.881.881,0,0,1,.186.315,1.051,1.051,0,0,1,.073.4Z" transform="translate(-11.295 -14.099)" fill="#aeafb1"/><path d="M64.62,76.062v-.348a.978.978,0,0,1-.323.307.913.913,0,0,1-.453.105,1.035,1.035,0,0,1-.808-.331,1.342,1.342,0,0,1-.234-.388,1.681,1.681,0,0,1-.081-.509v-.331a1.681,1.681,0,0,1,.081-.509,1.124,1.124,0,0,1,.574-.639,1.14,1.14,0,0,1,.437-.089,1,1,0,0,1,.445.105.873.873,0,0,1,.331.291V72.36h.671v3.7Zm0-1.455a.76.76,0,0,0-.154-.5.574.574,0,0,0-.453-.186.558.558,0,0,0-.445.186.76.76,0,0,0-.154.5v.243a.808.808,0,0,0,.154.509.558.558,0,0,0,.445.186.574.574,0,0,0,.453-.186.808.808,0,0,0,.154-.509Z" transform="translate(-12.021 -13.869)" fill="#aeafb1"/><path d="M66.76,74.829a1.342,1.342,0,0,1,.089-.517,1.091,1.091,0,0,1,.243-.4.994.994,0,0,1,.388-.259,1.2,1.2,0,0,1,.493-.1,1.067,1.067,0,0,1,.461.1,1.035,1.035,0,0,1,.356.259,1.18,1.18,0,0,1,.226.4,1.463,1.463,0,0,1,.089.509v.356H67.415a.639.639,0,0,0,.178.445.566.566,0,0,0,.428.154.873.873,0,0,0,.622-.267l.4.4a1.366,1.366,0,0,1-.445.331,1.4,1.4,0,0,1-.606.113,1.3,1.3,0,0,1-.509-.089,1.067,1.067,0,0,1-.639-.655,1.31,1.31,0,0,1-.089-.517Zm1.7-.162a.606.606,0,0,0-.154-.388.493.493,0,0,0-.364-.137.485.485,0,0,0-.356.137.663.663,0,0,0-.17.388Z" transform="translate(-12.795 -14.099)" fill="#aeafb1"/><path d="M71.765,74.275a.606.606,0,0,0-.234.049.574.574,0,0,0-.323.331.719.719,0,0,0-.057.275V76.3H70.48V73.644h.671v.517a.914.914,0,0,1,.259-.4.687.687,0,0,1,.445-.146h.21v.655Z" transform="translate(-13.508 -14.11)" fill="#aeafb1"/><path d="M74.151,76.331a1.617,1.617,0,0,1-.453-.057,1.108,1.108,0,0,1-.364-.186.994.994,0,0,1-.267-.283,1.075,1.075,0,0,1-.137-.372h.631a.5.5,0,0,0,.194.283.736.736,0,0,0,.4.1.437.437,0,0,0,.267-.073.234.234,0,0,0,.1-.194.194.194,0,0,0-.065-.154.542.542,0,0,0-.194-.1l-.55-.129c-.493-.113-.736-.372-.736-.808a.808.808,0,0,1,.073-.348.728.728,0,0,1,.2-.267.986.986,0,0,1,.315-.17,1.2,1.2,0,0,1,.4-.065,1.415,1.415,0,0,1,.808.251,1.253,1.253,0,0,1,.251.291,1.132,1.132,0,0,1,.129.372h-.639a.525.525,0,0,0-.194-.283.509.509,0,0,0-.331-.105.364.364,0,0,0-.243.073.243.243,0,0,0-.089.186c0,.129.105.218.315.275l.509.113c.485.121.728.372.728.808a.711.711,0,0,1-.081.348.929.929,0,0,1-.21.267.946.946,0,0,1-.323.17,1.374,1.374,0,0,1-.412.057" transform="translate(-13.978 -14.089)" fill="#aeafb1"/><path d="M152.349,49.8c-8.083-12.529-6.467-26.182-4.147-39.948.251.606.477,1.229.76,1.819,2.651,5.561,5.877,6.774,11.317,3.775,3.484-1.916,6.669-4.381,10.508-6.944-9.975,12.384-20.273,24.1-18.446,41.3" transform="translate(-28.043 -1.629)" fill="#aeafb1"/><path d="M161.282,8.552a3.7,3.7,0,0,1-4.9.808,2.279,2.279,0,0,1-.485-.437c-1.754-2.077-.469-6.62,2.037-8.213,1.673-1.059,3.233-1.051,4.414.808s.808,4.721-1.067,7.024" transform="translate(-29.724 0)" fill="#aeafb1"/><path d="M143.351,47.86c-.162-14.9-9.013-25.406-18.511-35.64.121.647.275,1.285.364,1.94.849,6.095-1.18,8.892-7.38,9.377-3.961.315-7.978,0-12.594,0,15.14,4.85,30.191,8.981,38.121,24.339" transform="translate(-20.168 -2.342)" fill="#aeafb1"/><path d="M116.815,18.33a3.718,3.718,0,0,0,4.535-2.021,2.611,2.611,0,0,0,.17-.631c.315-2.7-3.233-5.788-6.216-5.739-1.989,0-3.233.9-3.233,3.112s1.9,4.4,4.753,5.278" transform="translate(-21.479 -1.905)" fill="#aeafb1"/><path d="M157.423,51.91a29.432,29.432,0,0,1-8.649,5.173,16.46,16.46,0,0,1-13.418-1.237,43.456,43.456,0,0,1-7.542-5.06,1.455,1.455,0,0,1,0-2.255,1.277,1.277,0,0,1,1.1-.081c2.174,1.019,4.284,2.174,6.467,3.128a18.341,18.341,0,0,0,9.3,1.722,12.505,12.505,0,0,0,8.431-4.511c1.617-1.875,2.934-3.929,4.405-5.893a10.266,10.266,0,0,1,4.139-3.629,2.87,2.87,0,0,1,3.12.154,2.9,2.9,0,0,1,.808,3.161A9.255,9.255,0,0,1,162.733,47c-1.73,1.681-3.549,3.25-5.311,4.915" transform="translate(-24.394 -7.452)" fill="#aeafb1"/></g></svg>