<svg xmlns="http://www.w3.org/2000/svg" width="144.02" height="24.274" viewBox="0 0 144.02 24.274"><g transform="translate(0.03 0)"><path d="M4.86,13.26a1.54,1.54,0,0,0,.19,1.07,1,1,0,0,0,.85.39,1,1,0,0,0,.7-.23.71.71,0,0,0,.26-.55.53.53,0,0,0-.09-.3.85.85,0,0,0-.29-.27,3.57,3.57,0,0,0-.57-.31c-.23-.12-.53-.25-.88-.4L3.43,12a6.67,6.67,0,0,1-1.36-.8A3.53,3.53,0,0,1,1.12,10,3.28,3.28,0,0,1,.76,8.43a3.44,3.44,0,0,1,.55-2A4.13,4.13,0,0,1,2.74,5.11a6.88,6.88,0,0,1,2-.72A12.24,12.24,0,0,1,7,4.18a7.67,7.67,0,0,1,2.78.42,4.19,4.19,0,0,1,1.61,1.07,3,3,0,0,1,.71,1.42,4.92,4.92,0,0,1,.08,1.47H7.35a1.83,1.83,0,0,0-.11-1,.74.74,0,0,0-.68-.32,1.09,1.09,0,0,0-.66.19A.65.65,0,0,0,5.61,8a.75.75,0,0,0,.4.68,6.66,6.66,0,0,0,1.25.57l1.58.61a6.32,6.32,0,0,1,1.43.78,3.91,3.91,0,0,1,1,1.14,3.37,3.37,0,0,1,.4,1.74,4.35,4.35,0,0,1-.41,1.88,4.19,4.19,0,0,1-1.21,1.48,5.67,5.67,0,0,1-2,1,9.86,9.86,0,0,1-2.68.34A9,9,0,0,1,3,17.85a4.46,4.46,0,0,1-1.76-.91,3.49,3.49,0,0,1-1-1.53A4.94,4.94,0,0,1,0,13.26Z" fill="#aeafb1"/><path d="M19.69,17.78c-.33.06-.7.11-1.1.16A14.027,14.027,0,0,1,17,18a12.09,12.09,0,0,1-1.5-.09,2.9,2.9,0,0,1-1.23-.43,2.09,2.09,0,0,1-.79-1,4.19,4.19,0,0,1-.13-1.88l.36-3.46H12.36l.32-3H14l.28-2.78h4.54l-.29,2.78h2.18l-.33,3H18.21L18,13.57a1.38,1.38,0,0,0,0,.63.81.81,0,0,0,.23.38,1,1,0,0,0,.4.19,2.67,2.67,0,0,0,.5,0,6.214,6.214,0,0,0,.89-.05Z" fill="#aeafb1"/><path d="M32.74,8.09l-1,9.69H27.18l.17-1.49a2.05,2.05,0,0,1-.38.56,3.58,3.58,0,0,1-.69.56,4.57,4.57,0,0,1-1,.43,3.76,3.76,0,0,1-1.19.18,3.67,3.67,0,0,1-1.49-.3,3.14,3.14,0,0,1-1.16-.89,4.47,4.47,0,0,1-.76-1.42,6.23,6.23,0,0,1-.27-1.9,6.58,6.58,0,0,1,.39-2.33,5.51,5.51,0,0,1,1-1.79,4.41,4.41,0,0,1,1.52-1.13,4.23,4.23,0,0,1,1.81-.4A3.51,3.51,0,0,1,26.37,8a3.29,3.29,0,0,1,.86.44,2.73,2.73,0,0,1,.56.57,1.5,1.5,0,0,1,.26.55l.15-1.51Zm-6.5,6.23a1.4,1.4,0,0,0,1-.45,1.48,1.48,0,0,0,.43-1.06,1.25,1.25,0,0,0-.34-.88,1.15,1.15,0,0,0-.88-.37,1.36,1.36,0,0,0-1,.46A1.47,1.47,0,0,0,25,13.07a1.27,1.27,0,0,0,.34.88,1.14,1.14,0,0,0,.9.37Z" fill="#aeafb1"/><path d="M42.24,12.13a5.72,5.72,0,0,0-.72-.16,4.26,4.26,0,0,0-.64-.05,3.69,3.69,0,0,0-1,.12,2.06,2.06,0,0,0-.84.41,2.4,2.4,0,0,0-.65.85,4.8,4.8,0,0,0-.36,1.42l-.32,3.06H33.23l1-9.69h4.53l-.17,1.55a4.51,4.51,0,0,1,.5-.64,3.88,3.88,0,0,1,.69-.57A3.62,3.62,0,0,1,40.67,8a3.75,3.75,0,0,1,1.1-.15,2.74,2.74,0,0,1,.9.15Z" fill="#aeafb1"/><path d="M63.17,17.78H58.54l.87-8.22L56.6,17.78H53.06L51.74,9.56l-.87,8.22H46.24l1.4-13.22H54.1l1.27,7.89L58.3,4.56h6.27Z" fill="#aeafb1"/><path d="M77.13,8.09l-1,9.69H71.58l.17-1.49a2.38,2.38,0,0,1-.39.56,3.06,3.06,0,0,1-.69.56,4.72,4.72,0,0,1-1,.43,3.85,3.85,0,0,1-1.19.18,3.69,3.69,0,0,1-1.5-.3,3.14,3.14,0,0,1-1.16-.89,4.26,4.26,0,0,1-.75-1.42,5.93,5.93,0,0,1-.28-1.9,6.58,6.58,0,0,1,.39-2.33,5.51,5.51,0,0,1,1-1.79A4.41,4.41,0,0,1,67.7,8.26a4.23,4.23,0,0,1,1.81-.4A3.51,3.51,0,0,1,70.76,8a3.29,3.29,0,0,1,.86.44,2.5,2.5,0,0,1,.56.57,1.5,1.5,0,0,1,.26.55l.16-1.51Zm-6.5,6.23a1.4,1.4,0,0,0,1-.45,1.48,1.48,0,0,0,.43-1.06,1.25,1.25,0,0,0-.34-.88,1.15,1.15,0,0,0-.88-.37,1.36,1.36,0,0,0-1,.46,1.47,1.47,0,0,0-.44,1.05,1.27,1.27,0,0,0,.34.88A1.16,1.16,0,0,0,70.63,14.32Z" fill="#aeafb1"/><path d="M89.11,16.76a9,9,0,0,1-.28,1.41,4.51,4.51,0,0,1-.45,1.06,3.57,3.57,0,0,1-.64.79,4.55,4.55,0,0,1-.81.57,8.5,8.5,0,0,1-4.3,1.08A8.63,8.63,0,0,1,80,21.28a6.68,6.68,0,0,1-.88-.32,3.56,3.56,0,0,1-.51-.27,2.75,2.75,0,0,1-.49-.45,4.429,4.429,0,0,1-.48-.67,3.62,3.62,0,0,1-.33-.81,2.33,2.33,0,0,1-.06-.87h4.54a.76.76,0,0,0,.28.64,1.22,1.22,0,0,0,.93.32,1.64,1.64,0,0,0,1-.33,1.56,1.56,0,0,0,.54-1.08l.15-1.36a3.24,3.24,0,0,1-.44.49,3.08,3.08,0,0,1-.65.45,4.12,4.12,0,0,1-.9.34,5.22,5.22,0,0,1-2.69-.1,3.07,3.07,0,0,1-1.19-.74A3.5,3.5,0,0,1,78,15.25a5.44,5.44,0,0,1-.29-1.87,7,7,0,0,1,.34-2.2,5.37,5.37,0,0,1,1-1.75A4.3,4.3,0,0,1,80.5,8.28a4.5,4.5,0,0,1,2-.42,3.66,3.66,0,0,1,1.86.44,2.21,2.21,0,0,1,1,1.3l.17-1.51H90Zm-5.35-5.2a1.33,1.33,0,0,0-.58.13,1.43,1.43,0,0,0-.47.33,1.75,1.75,0,0,0-.32.48,1.39,1.39,0,0,0-.12.57,1.23,1.23,0,0,0,.34.88,1.12,1.12,0,0,0,.88.37,1.39,1.39,0,0,0,1-.45A1.49,1.49,0,0,0,85,12.81a1.28,1.28,0,0,0-.33-.88,1.15,1.15,0,0,0-.91-.37Z" fill="#aeafb1"/><path d="M102.8,8.09l-1,9.69H97.25l.17-1.49a2.38,2.38,0,0,1-.39.56,3.06,3.06,0,0,1-.69.56,4.72,4.72,0,0,1-1,.43,3.85,3.85,0,0,1-1.19.18,3.72,3.72,0,0,1-1.5-.3,3.14,3.14,0,0,1-1.16-.89,4.26,4.26,0,0,1-.75-1.42,5.93,5.93,0,0,1-.28-1.9,6.58,6.58,0,0,1,.39-2.33,5.51,5.51,0,0,1,1-1.79,4.41,4.41,0,0,1,1.52-1.13,4.23,4.23,0,0,1,1.81-.4A3.51,3.51,0,0,1,96.43,8a3.29,3.29,0,0,1,.86.44,2.5,2.5,0,0,1,.56.57,1.73,1.73,0,0,1,.27.55l.15-1.51Zm-6.5,6.23a1.39,1.39,0,0,0,1-.45,1.49,1.49,0,0,0,.44-1.06,1.29,1.29,0,0,0-.34-.88,1.19,1.19,0,0,0-.89-.37,1.36,1.36,0,0,0-1,.46,1.47,1.47,0,0,0-.44,1.05,1.27,1.27,0,0,0,.34.88,1.16,1.16,0,0,0,.89.37Z" fill="#aeafb1"/><path d="M113.79,8.09l-4.3,6h3.28l-.37,3.69h-9.86l4.32-6h-3.21l.4-3.68Z" fill="#aeafb1"/><path d="M114.61,8.09h4.53l-1,9.69h-4.53Zm0-2.63a2.36,2.36,0,0,1,.21-1,2.51,2.51,0,0,1,.59-.78,2.57,2.57,0,0,1,.88-.52A3,3,0,0,1,117.38,3a2.52,2.52,0,0,1,1.68.56,2,2,0,0,1,.65,1.59,2.3,2.3,0,0,1-.81,1.79,2.66,2.66,0,0,1-.86.48,3.26,3.26,0,0,1-1.05.17A2.45,2.45,0,0,1,115.26,7a2,2,0,0,1-.63-1.54Z" fill="#aeafb1"/><path d="M120.65,8.09h4.53L125,9.56a3,3,0,0,1,1.29-1.24A5,5,0,0,1,129.73,8a2.32,2.32,0,0,1,1,.56,1.76,1.76,0,0,1,.45.68,3.78,3.78,0,0,1,.21.85,5.741,5.741,0,0,1,0,.94,4.857,4.857,0,0,1-.07,1l-.6,5.73H126.2l.51-4.88q.14-1.32-.84-1.32a1,1,0,0,0-.82.35,2.31,2.31,0,0,0-.39,1.24l-.5,4.61h-4.53Z" fill="#aeafb1"/><path d="M136.58,13.79a1.46,1.46,0,0,0,0,.51,1,1,0,0,0,.16.47.9.9,0,0,0,.37.35,1.33,1.33,0,0,0,.67.15,1.79,1.79,0,0,0,.92-.23,1,1,0,0,0,.5-.61h4.35a4,4,0,0,1-.72,1.48,4.87,4.87,0,0,1-1.28,1.14,6.53,6.53,0,0,1-1.76.75,9,9,0,0,1-2.21.26,6.11,6.11,0,0,1-4-1.21,4.16,4.16,0,0,1-1.44-3.38,5.77,5.77,0,0,1,.4-2.14,5.42,5.42,0,0,1,1.21-1.82,5.9,5.9,0,0,1,2-1.24,7.69,7.69,0,0,1,2.79-.47,7.4,7.4,0,0,1,2.43.36,5.07,5.07,0,0,1,1.7,1,3.53,3.53,0,0,1,1,1.38,4.49,4.49,0,0,1,.22,2.61c-.07.29-.13.52-.18.68Zm1.7-3.3a1.44,1.44,0,0,0-1,.36,1.59,1.59,0,0,0-.48,1h2.69a1.29,1.29,0,0,0-.25-1,1.19,1.19,0,0,0-.96-.36Z" fill="#aeafb1"/><path d="M70.49,6.24l-.14-.74H68.18l-.32.74H66.35L69.27.16h1.3L72,6.24ZM69.71,1.9l-1,2.5h1.47Z" fill="#aeafb1"/><path d="M74.65,1.34,74.45,3h2.3l-.14,1.16h-2.3l-.26,2.1H72.64l.74-6.1H77.1L77,1.34Z" fill="#aeafb1"/><path d="M78.16.16h2.56a2.24,2.24,0,0,1,.89.17,1.83,1.83,0,0,1,.64.48,2,2,0,0,1,.37.7,2.19,2.19,0,0,1,0,.85,2.53,2.53,0,0,1-.46,1.17,2.4,2.4,0,0,1-1,.79l1,1.92H80.57L79.7,4.56H79l-.21,1.68H77.42Zm2,3.25a1,1,0,0,0,.41-.09,1.13,1.13,0,0,0,.34-.23,1.3,1.3,0,0,0,.23-.33,1,1,0,0,0,.12-.4,1.06,1.06,0,0,0,0-.4,1,1,0,0,0-.15-.34.91.91,0,0,0-.28-.23.86.86,0,0,0-.39-.09h-1l-.25,2.11Z" fill="#aeafb1"/><path d="M83.85.16h1.43l-.75,6.08H83.11Z" fill="#aeafb1"/><path d="M92,4.06a2.84,2.84,0,0,1-.44.91,3.46,3.46,0,0,1-.73.75,3.77,3.77,0,0,1-1,.5,3.68,3.68,0,0,1-1.17.18,3.27,3.27,0,0,1-1.34-.26,2.69,2.69,0,0,1-.94-.7,2.54,2.54,0,0,1-.52-1,3.15,3.15,0,0,1-.07-1.23A3.62,3.62,0,0,1,86.13,2a3.58,3.58,0,0,1,.76-1A3.52,3.52,0,0,1,88,.27,3.38,3.38,0,0,1,89.35,0a3.52,3.52,0,0,1,1.23.2,2.38,2.38,0,0,1,.87.54,2.26,2.26,0,0,1,.52.8,2.88,2.88,0,0,1,.17,1H90.67A1.53,1.53,0,0,0,90.56,2a1.26,1.26,0,0,0-.28-.4,1.15,1.15,0,0,0-.43-.26,1.45,1.45,0,0,0-.57-.1,1.92,1.92,0,0,0-.81.16,2.13,2.13,0,0,0-.63.43,2,2,0,0,0-.43.61,2.29,2.29,0,0,0-.21.72,2.06,2.06,0,0,0,0,.75,1.48,1.48,0,0,0,.29.62,1.52,1.52,0,0,0,.55.42,1.94,1.94,0,0,0,.8.15,1.69,1.69,0,0,0,.5-.08,1.8,1.8,0,0,0,.46-.23,1.75,1.75,0,0,0,.38-.34,1.51,1.51,0,0,0,.25-.42Z" fill="#aeafb1"/><path d="M95.91,6.24l-.15-.74H93.6l-.33.74h-1.5L94.68.16H96l1.46,6.08ZM95.12,1.9,94.07,4.4h1.48Z" fill="#aeafb1"/><path d="M143.21,19.92H90.83s-.48,2.59-5.49,4.14C81,25.41,143.21,19.92,143.21,19.92Z" fill="#aeafb1"/></g></svg>