<svg xmlns="http://www.w3.org/2000/svg" width="101.054" height="42.524" viewBox="0 0 101.054 42.524"><path d="M-117.55,20.167l.465-1.479a7.514,7.514,0,0,1-2.016-2.931,29.208,29.208,0,0,1,9.948-5.124A39.011,39.011,0,0,1-96.11,9.639s6.742-3.973,11.054-5.072S-74.235,4-68.684,5.356A134.575,134.575,0,0,1-54.03,10.471s0,1.6-2.188,1.6c-2.972,0-3.963,1.329-3.963,1.329s-.615-2.734-6.685-5.225A38.525,38.525,0,0,0-77.508,5.787c-5.858-.422-9.638,1.416-14.564,4.375,0,0,8.8.149,13.9-.084a27.586,27.586,0,0,0,7.257-1.015,22.016,22.016,0,0,1-7.856,1.971c-5.053.515-15.668.121-15.668.121s-13.633-.718-19.488,2.664l2.438.007-2.005,1.45-4.639,1.184a6.264,6.264,0,0,0,1.723,2Z" transform="translate(132.205 -3.976)" fill="#aeafb1"/><path d="M-130.064,26.509l-.329-4.289L-31.162,7.41" transform="translate(130.393 -3.426)" fill="#aeafb1"/><path d="M-29.921,24.164l.329,4.289-99.231,14.81" transform="translate(130.645 -0.739)" fill="#aeafb1"/><g transform="translate(2.917 10.758)"><path d="M-127.81,34.034a5.212,5.212,0,0,1-.068-.986l.113-5.26,2.591-.463-.108,5.218a3.705,3.705,0,0,0,.051.733,1.332,1.332,0,0,0,1.774,1.169c1.086-.194,1.591-.919,1.629-2.519l.107-5.218,2.552-.456-.1,5.38c-.062,2.832-1.418,4.534-4.114,5.015C-125.782,37.075-127.448,36.062-127.81,34.034Z" transform="translate(127.88 -11.162)" fill="#aeafb1"/><path d="M-109.1,24.5l-.168,9.482-2.4.428.079-5-2.347,4.471-1.138.2-2.363-3.629-.106,5-2.381.426.195-9.487,2.106-.376,3.094,4.915,3.213-6.043Z" transform="translate(129.156 -11.442)" fill="#aeafb1"/><path d="M-107.37,26.174l-.024,1.6,4.069-.728-.034,2-4.082.73-.028,1.734,4.8-.859-.06,2.078-7.341,1.311.195-9.486,7.17-1.282-.048,2.074Z" transform="translate(130.736 -11.639)" fill="#aeafb1"/><path d="M-94.5,21.845l-.194,9.487-2.591.463.07-3.685-3.519.629-.07,3.685-2.591.463.195-9.487,2.59-.463-.067,3.55,3.519-.629.067-3.55Z" transform="translate(131.807 -11.869)" fill="#aeafb1"/><path d="M-82.01,19.66l-.168,9.483-2.4.427.079-5-2.346,4.471-1.138.2-2.364-3.629-.106,5-2.381.425.195-9.486,2.106-.377,3.094,4.917,3.213-6.044Z" transform="translate(133.501 -12.219)" fill="#aeafb1"/><path d="M-83.215,25.25a5.486,5.486,0,0,1,4.736-6.518c2.813-.5,4.85.847,5.274,3.215a5.488,5.488,0,0,1-4.736,6.519C-80.754,28.969-82.792,27.619-83.215,25.25Zm7.421-2.677a1.982,1.982,0,0,0-2.524-1.655,2.989,2.989,0,0,0-2.308,3.707A1.981,1.981,0,0,0-78.1,26.281,2.989,2.989,0,0,0-75.795,22.573Z" transform="translate(135.027 -12.385)" fill="#aeafb1"/><path d="M-72.258,19.974l-2.814.5.052-2.13,8.2-1.467-.051,2.129-2.8.5-.155,7.359-2.591.464Z" transform="translate(136.349 -12.665)" fill="#aeafb1"/><path d="M-68.546,22.627a5.486,5.486,0,0,1,4.736-6.517c2.813-.5,4.85.847,5.273,3.215a5.486,5.486,0,0,1-4.734,6.518C-66.085,26.346-68.123,25-68.546,22.627Zm7.421-2.676A1.982,1.982,0,0,0-63.65,18.3,2.988,2.988,0,0,0-65.958,22a1.982,1.982,0,0,0,2.524,1.656A2.989,2.989,0,0,0-61.126,19.951Z" transform="translate(137.38 -12.805)" fill="#aeafb1"/><path d="M-53.265,20.986l2.048,2.469-2.708.484-1.8-2.19-1.309.234-.049,2.519-2.59.463.194-9.486,3.913-.7c2.342-.419,3.884.427,4.211,2.258A3.6,3.6,0,0,1-53.265,20.986Zm-2.3-4.1-1.36.243L-57,19.912l1.544-.276c1.138-.2,1.707-.873,1.527-1.88C-54.062,16.983-54.675,16.729-55.565,16.888Z" transform="translate(138.82 -13.019)" fill="#aeafb1"/><path d="M-52.7,22.926l.674-2.119a5.842,5.842,0,0,0,3.21.359c.994-.178,1.514-.6,1.425-1.092-.219-1.23-4.546.246-5.062-2.634-.353-1.974,1.1-3.572,3.812-4.056a6.5,6.5,0,0,1,3.438.195l-.6,2.092a4.784,4.784,0,0,0-2.636-.245c-1.072.193-1.578.687-1.49,1.185.212,1.259,4.545-.259,5.05,2.567.352,1.963-1.144,3.567-3.826,4.047A7.263,7.263,0,0,1-52.7,22.926Z" transform="translate(139.937 -13.248)" fill="#aeafb1"/></g></svg>