<svg xmlns="http://www.w3.org/2000/svg" width="127.375" height="59.644" viewBox="0 0 127.375 59.644"><path d="M27.918,36.152l-7.071,9.529V14.309L32.568,29.132l6.034.173L16.192,0V59.644L34.236,35.531l.4-.538H28.776Z" transform="translate(2.597)" fill="#aeafb1"/><path d="M10,34.994v9.974L4.826,37.383V12.905L0,19.455V40.486L15.169,59.448V.149L10,5.665Z" transform="translate(0 0.024)" fill="#aeafb1"/><path d="M55.657,32.791q-2.207,1.774-6.623,1.772-9.063,0-9.064-7.785V14.662h2.79V26.778a4.965,4.965,0,0,0,1.495,3.966q1.5,1.292,4.78,1.292a7.307,7.307,0,0,0,4.794-1.307,4.722,4.722,0,0,0,1.482-3.865v-12.2H58.1V26.836q0,4.01-2.441,5.955" transform="translate(6.411 2.352)" fill="#aeafb1"/><path d="M76.936,34.36V20.473L69.413,34.36H67.407L59.884,20.473V34.36h-2.79v-19.7h2.731L68.4,30.5,77,14.662h2.731v19.7Z" transform="translate(9.157 2.352)" fill="#aeafb1"/><path d="M78.1,34.36v-19.7H94.4V17.19H80.859v5.665h12v2.527h-12v6.451H94.544V34.36Z" transform="translate(12.526 2.352)" fill="#aeafb1"/><path d="M109.555,34.36V25.382H96.511V34.36h-2.79v-19.7h2.79v8.193h13.044V14.662h2.789v19.7Z" transform="translate(15.031 2.352)" fill="#aeafb1"/><path d="M48.154,39.722H44.706V38.676h4.543c.048.42.07.708.07.867A3.007,3.007,0,0,1,48,42.135a4.923,4.923,0,0,1-2.914.833,5.113,5.113,0,0,1-3.376-1.048,3.712,3.712,0,0,1-1.319-3.043,3.83,3.83,0,0,1,1.26-3.019A4.857,4.857,0,0,1,45,34.74a5.23,5.23,0,0,1,2.605.594,3.7,3.7,0,0,1,1.651,2.581H48.095a2.638,2.638,0,0,0-1-1.635,3.632,3.632,0,0,0-2.076-.5,3.7,3.7,0,0,0-2.556.819,2.894,2.894,0,0,0-.916,2.272,2.827,2.827,0,0,0,.928,2.27,3.886,3.886,0,0,0,2.614.8,3.751,3.751,0,0,0,2.17-.607,1.889,1.889,0,0,0,.9-1.6" transform="translate(6.478 5.572)" fill="#aeafb1"/><path d="M50.646,38.419a3.015,3.015,0,0,0-.476,1.772V42.58H49.028V36.756H50.17v.535a4.085,4.085,0,0,1,2.532-.656v1.011a2.343,2.343,0,0,0-2.056.773" transform="translate(7.863 5.876)" fill="#aeafb1"/><path d="M58.382,41.867a3.462,3.462,0,0,1-2.447.844,3.426,3.426,0,0,1-2.437-.844,3.094,3.094,0,0,1,.01-4.382,3.46,3.46,0,0,1,2.45-.851,3.414,3.414,0,0,1,2.437.851,2.876,2.876,0,0,1,.9,2.194,2.837,2.837,0,0,1-.917,2.187m-.8-3.668a2.261,2.261,0,0,0-1.634-.554,2.232,2.232,0,0,0-1.622.559,1.954,1.954,0,0,0-.578,1.475,1.929,1.929,0,0,0,.584,1.462,2.237,2.237,0,0,0,1.616.557,2.264,2.264,0,0,0,1.623-.557,1.928,1.928,0,0,0,.588-1.462A1.951,1.951,0,0,0,57.58,38.2" transform="translate(8.435 5.876)" fill="#aeafb1"/><path d="M63.688,42.584v-.4a3.279,3.279,0,0,1-1.867.511,3.145,3.145,0,0,1-1.938-.547,1.994,1.994,0,0,1-.786-1.69v-3.7h1.143v3.684q0,1.238,1.58,1.236,1.866,0,1.867-1.793V36.759H64.83v5.825Z" transform="translate(9.478 5.896)" fill="#aeafb1"/><path d="M70.739,41.986a3.142,3.142,0,0,1-2.414.927,3.246,3.246,0,0,1-2.092-.677v2.342H65.093V36.767h1.141V37.3a3.65,3.65,0,0,1,4.5.225,3.459,3.459,0,0,1,.01,4.458m-.849-3.733a1.931,1.931,0,0,0-1.5-.583,2.138,2.138,0,0,0-1.576.571,2.016,2.016,0,0,0-.577,1.5,1.886,1.886,0,0,0,2.14,2.127,1.979,1.979,0,0,0,1.535-.6,2.45,2.45,0,0,0-.019-3.018" transform="translate(10.44 5.876)" fill="#aeafb1"/><path d="M75.717,42.873V34.812h1.141v7.026h5.088v1.035Z" transform="translate(12.144 5.583)" fill="#aeafb1"/><path d="M82.063,36.455a.571.571,0,0,1-.548-.427v-.88a.615.615,0,0,1,.548-.428.864.864,0,0,1,.594.369V36.1a.84.84,0,0,1-.594.355m-.548.393h1.142v6.039H81.515Z" transform="translate(13.074 5.569)" fill="#aeafb1"/><path d="M91.6,42.581V38.858a1.223,1.223,0,0,0-.3-.926,1.4,1.4,0,0,0-.981-.287,1.748,1.748,0,0,0-1.184.369,1.249,1.249,0,0,0-.422.987v3.579H87.566V38.858a1.2,1.2,0,0,0-.314-.926,1.745,1.745,0,0,0-2.194.225,1.781,1.781,0,0,0-.392,1.189v3.234H83.523V36.756h1.142v.355a2.97,2.97,0,0,1,1.7-.475,2.384,2.384,0,0,1,1.879.748,2.643,2.643,0,0,1,2.045-.748,2.723,2.723,0,0,1,1.813.541,1.953,1.953,0,0,1,.637,1.575v3.829Z" transform="translate(13.396 5.876)" fill="#aeafb1"/><path d="M93.056,36.455a.568.568,0,0,1-.547-.427v-.88a.613.613,0,0,1,.547-.428.857.857,0,0,1,.593.369V36.1a.834.834,0,0,1-.593.355m-.547.393H93.65v6.039H92.509Z" transform="translate(14.837 5.569)" fill="#aeafb1"/><path d="M96.457,38.119v4.648H95.34l-.025-4.648H94.127V37.084h1.188V35.467h1.142v1.617h1.2v1.035Z" transform="translate(15.097 5.688)" fill="#aeafb1"/><path d="M98.652,40.13q.2,1.572,2.092,1.569a2.043,2.043,0,0,0,2.082-1.295H104a3.151,3.151,0,0,1-1.416,1.9,4.055,4.055,0,0,1-1.865.4,3.284,3.284,0,0,1-2.426-.844,3.228,3.228,0,0,1,.084-4.363,3.293,3.293,0,0,1,2.4-.869,3.542,3.542,0,0,1,2.379.773,2.59,2.59,0,0,1,.9,2.07v.642Zm3.649-1.973a2.142,2.142,0,0,0-1.521-.512,2.186,2.186,0,0,0-1.533.512,1.826,1.826,0,0,0-.559.963h4.138a1.729,1.729,0,0,0-.524-.963" transform="translate(15.636 5.876)" fill="#aeafb1"/><path d="M108.862,42.885v-.571a3.262,3.262,0,0,1-2.153.689,3.123,3.123,0,0,1-2.378-.927,3.387,3.387,0,0,1,.013-4.435,3.168,3.168,0,0,1,2.412-.927,3.289,3.289,0,0,1,2.1.666V34.812H110v8.073Zm-.554-4.565a2.133,2.133,0,0,0-1.611-.571,1.921,1.921,0,0,0-1.5.6,2.2,2.2,0,0,0-.54,1.528,2.113,2.113,0,0,0,.511,1.485,1.953,1.953,0,0,0,1.533.607,2.12,2.12,0,0,0,1.576-.594,2.041,2.041,0,0,0,.588-1.5,2.14,2.14,0,0,0-.554-1.557" transform="translate(16.602 5.583)" fill="#aeafb1"/></svg>