<svg xmlns="http://www.w3.org/2000/svg" width="95.328" height="42.147" viewBox="0 0 95.328 42.147"><g transform="translate(0 12.904)"><path d="M22.793,23.477a2.234,2.234,0,0,1-1.068-.2.885.885,0,0,1-.357-.845V14.685a1.355,1.355,0,0,0-.757-1.158,5.327,5.327,0,0,0-2.627-.466H16.737a8.106,8.106,0,0,0-1.547.121,3.248,3.248,0,0,0-.99.345,1.283,1.283,0,0,0-.69,1.158v7.746a.885.885,0,0,1-.357.845,2.232,2.232,0,0,1-1.067.2,1.974,1.974,0,0,1-1.08-.222.932.932,0,0,1-.322-.823V14.685a1.365,1.365,0,0,0-.156-.634,1.351,1.351,0,0,0-.535-.524A3.236,3.236,0,0,0,9,13.182a8.089,8.089,0,0,0-1.547-.121H6.21a5.333,5.333,0,0,0-2.627.466,1.355,1.355,0,0,0-.757,1.158v7.746a.886.886,0,0,1-.354.845,2.246,2.246,0,0,1-1.07.2,2.17,2.17,0,0,1-1.057-.2A.9.9,0,0,1,0,22.431V14.685a3.223,3.223,0,0,1,1.5-2.917,7.854,7.854,0,0,1,4.219-.957h2.2a6.493,6.493,0,0,1,4.163,1.113,6.584,6.584,0,0,1,4.183-1.113h2.2a7.847,7.847,0,0,1,4.218.957,3.221,3.221,0,0,1,1.5,2.917v7.746a.9.9,0,0,1-.345.845A2.168,2.168,0,0,1,22.793,23.477Z" transform="translate(0 -10.723)" fill="#aeafb1"/><path d="M37.926,10.738a2.151,2.151,0,0,1,1.056.2.9.9,0,0,1,.346.845V19.53q0,3.874-6.3,3.873H27.709q-6.3,0-6.3-3.873V11.783a.887.887,0,0,1,.356-.845,2.226,2.226,0,0,1,1.068-.2,2.156,2.156,0,0,1,1.057.2.9.9,0,0,1,.345.845V19.53a1.352,1.352,0,0,0,.846,1.157,5.9,5.9,0,0,0,2.715.467H32.94a5.908,5.908,0,0,0,2.716-.467A1.35,1.35,0,0,0,36.5,19.53V11.783a.885.885,0,0,1,.357-.845A2.22,2.22,0,0,1,37.926,10.738Z" transform="translate(4.318 -10.738)" fill="#aeafb1"/><path d="M37.432,14.15A2.794,2.794,0,0,1,38.767,11.7a7.187,7.187,0,0,1,3.962-.89h3.05a.7.7,0,0,1,.667.278,1.808,1.808,0,0,1,.156.857,1.746,1.746,0,0,1-.156.835.7.7,0,0,1-.667.279H42.707a4.383,4.383,0,0,0-1.87.3.906.906,0,0,0-.6.812v.578a.931.931,0,0,0,.622.823,4.615,4.615,0,0,0,1.959.312h4.92a8.605,8.605,0,0,1,4.5.889,2.81,2.81,0,0,1,1.38,2.494v.711a2.717,2.717,0,0,1-1.468,2.506,6.425,6.425,0,0,1-1.959.667,15.211,15.211,0,0,1-2.871.234H38.3a.7.7,0,0,1-.668-.279,1.805,1.805,0,0,1-.156-.857,1.75,1.75,0,0,1,.156-.835.7.7,0,0,1,.668-.278h9.437a11.437,11.437,0,0,0,1.479-.078,3.787,3.787,0,0,0,.936-.222,1.047,1.047,0,0,0,.478-.345.827.827,0,0,0,.133-.467v-.8a.824.824,0,0,0-.133-.467,1.116,1.116,0,0,0-.467-.357,3.271,3.271,0,0,0-.9-.233,10.966,10.966,0,0,0-1.436-.077H42.841a7.528,7.528,0,0,1-4.051-.88A2.739,2.739,0,0,1,37.432,14.8Z" transform="translate(7.55 -10.723)" fill="#aeafb1"/><path d="M70.4,23.388q-6.3,0-6.3-3.873v-4.83q0-3.874,6.3-3.873H81.531a.7.7,0,0,1,.667.278,1.808,1.808,0,0,1,.156.857,1.746,1.746,0,0,1-.156.835.7.7,0,0,1-.667.279H70.491a5.911,5.911,0,0,0-2.716.466,1.353,1.353,0,0,0-.846,1.158v4.83a1.365,1.365,0,0,0,.846,1.146,5.791,5.791,0,0,0,2.716.478H81.6c.342,0,.56.093.657.278a1.881,1.881,0,0,1,.144.835,1.952,1.952,0,0,1-.144.846c-.1.193-.315.29-.657.29Z" transform="translate(12.929 -10.723)" fill="#aeafb1"/></g><g transform="translate(59.439 6.663)"><path d="M59.706,23.693l-10.19-13.1c4.558-6.757,14.915-6.371,18.273-.983-5.076-2.919-9.793-2.858-14.5.847,1.694,2.227,3.4,4.289,4.9,6.486,2.484,3.627,4.929,7.285,7.221,11.034a8.438,8.438,0,0,1-1.182,10.46A8.574,8.574,0,0,1,54.191,40.09a8.694,8.694,0,0,1-4.569-9.326,8.556,8.556,0,0,1,7.967-6.9C58.185,23.813,58.781,23.769,59.706,23.693Z" transform="translate(-49.463 -5.545)" fill="#aeafb1"/></g><g transform="translate(0.041)"><path d="M10.621,1.9a1.4,1.4,0,0,1,.678.129.58.58,0,0,1,.221.543V7.536q0,2.482-4.038,2.483H4.072q-4.038,0-4.038-2.483V2.571a.57.57,0,0,1,.228-.543A1.452,1.452,0,0,1,.947,1.9a1.409,1.409,0,0,1,.678.129.578.578,0,0,1,.221.543V7.536a.863.863,0,0,0,.542.741,3.769,3.769,0,0,0,1.741.3h3.3a3.772,3.772,0,0,0,1.741-.3.863.863,0,0,0,.542-.741V2.571a.573.573,0,0,1,.228-.543A1.452,1.452,0,0,1,10.621,1.9Z" transform="translate(-0.034 0.383)" fill="#aeafb1"/><path d="M25.769,10.066a1.44,1.44,0,0,1-.685-.129.569.569,0,0,1-.228-.542V4.43a.872.872,0,0,0-.484-.743,3.437,3.437,0,0,0-1.685-.3h-.8a5.27,5.27,0,0,0-.993.077,2.1,2.1,0,0,0-.634.221.822.822,0,0,0-.442.743V9.4a.569.569,0,0,1-.228.542,1.437,1.437,0,0,1-.685.129,1.265,1.265,0,0,1-.692-.143.6.6,0,0,1-.207-.528V4.43a.822.822,0,0,0-.442-.743,2.1,2.1,0,0,0-.634-.221,5.27,5.27,0,0,0-.993-.077h-.8a3.429,3.429,0,0,0-1.684.3.868.868,0,0,0-.485.743V9.4a.569.569,0,0,1-.228.542,1.437,1.437,0,0,1-.685.129,1.389,1.389,0,0,1-.678-.129.574.574,0,0,1-.221-.542V4.43a2.064,2.064,0,0,1,.963-1.869,5.022,5.022,0,0,1,2.7-.614h1.413a4.154,4.154,0,0,1,2.668.714,4.22,4.22,0,0,1,2.682-.714H23a5.016,5.016,0,0,1,2.7.614,2.064,2.064,0,0,1,.963,1.869V9.4a.574.574,0,0,1-.221.542A1.4,1.4,0,0,1,25.769,10.066Z" transform="translate(2.21 0.393)" fill="#aeafb1"/><path d="M27.385,6.8v.728a.874.874,0,0,0,.542.734,3.714,3.714,0,0,0,1.741.306H31.31c.219,0,.358.06.421.179a1.2,1.2,0,0,1,.093.536,1.242,1.242,0,0,1-.093.542c-.062.123-.2.185-.421.185h-1.7q-4.038,0-4.038-2.483V4.43q0-2.482,4.038-2.483h3.3A5.883,5.883,0,0,1,36,2.561a2.071,2.071,0,0,1,.949,1.869V6.071a.8.8,0,0,1-.157.571,1.054,1.054,0,0,1-.7.156Zm0-1.412h7.749V4.43a.843.843,0,0,0-.535-.77,4.122,4.122,0,0,0-1.748-.27H29.668a3.811,3.811,0,0,0-1.741.3.87.87,0,0,0-.542.743Z" transform="translate(5.117 0.393)" fill="#aeafb1"/><path d="M37.4,10.458a1.389,1.389,0,0,1-.678-.129.574.574,0,0,1-.221-.542V.671a.575.575,0,0,1,.221-.542A1.375,1.375,0,0,1,37.4,0a1.426,1.426,0,0,1,.685.129.57.57,0,0,1,.227.542V2.34h5.48q4.038,0,4.038,2.483V9.788a.567.567,0,0,1-.228.542,1.434,1.434,0,0,1-.685.129,1.387,1.387,0,0,1-.677-.129c-.149-.085-.221-.266-.221-.542V4.822a.869.869,0,0,0-.543-.743,3.8,3.8,0,0,0-1.741-.3H38.308V9.788a.569.569,0,0,1-.227.542A1.44,1.44,0,0,1,37.4,10.458Z" transform="translate(7.32)" fill="#aeafb1"/></g></svg>