<svg xmlns="http://www.w3.org/2000/svg" width="152.782" height="45.724" viewBox="0 0 152.782 45.724"><g transform="translate(0 0.006)"><path d="M85.5,37.238a.174.174,0,0,1-.058.142.426.426,0,0,1-.155.071,1,1,0,0,1-.2,0H84.058A.426.426,0,0,1,83.7,37.3a.839.839,0,0,1-.155-.355l-.1-.755a2.788,2.788,0,0,1-.452.523,2.994,2.994,0,0,1-.645.452,3.872,3.872,0,0,1-.865.316,4.749,4.749,0,0,1-1.1.116,4.168,4.168,0,0,1-1.755-.3,3.723,3.723,0,0,1-1.29-.968,4.258,4.258,0,0,1-.774-1.445,5.73,5.73,0,0,1-.271-1.787V27.514a.645.645,0,0,1,.142-.452.536.536,0,0,1,.413-.155h1.29a.6.6,0,0,1,.445.123.69.69,0,0,1,.11.439v5.556a2.814,2.814,0,0,0,.135.865,2.529,2.529,0,0,0,.413.755,2.013,2.013,0,0,0,.69.529,2.136,2.136,0,0,0,.961.2,2.794,2.794,0,0,0,.8-.129,2.271,2.271,0,0,0,.755-.413,2.11,2.11,0,0,0,.568-.684,1.994,1.994,0,0,0,.226-.961v-5.71a1.29,1.29,0,0,1,.071-.284.561.561,0,0,1,.155-.206.4.4,0,0,1,.258-.077h1.413a.555.555,0,0,1,.407.129.529.529,0,0,1,.129.374v9.582a.265.265,0,0,1-.135.245" transform="translate(-27.064 -9.546)" fill="#aeafb1"/><path d="M93.262,27.047a1.174,1.174,0,0,1,.529-.129h.839a.426.426,0,0,1,.361.155.916.916,0,0,1,.155.355l.09.8a4.877,4.877,0,0,1,.445-.548,2.71,2.71,0,0,1,.594-.465,3.284,3.284,0,0,1,.807-.3,4.162,4.162,0,0,1,1.078-.123,4.807,4.807,0,0,1,1.058.11,3.175,3.175,0,0,1,.858.336,3.123,3.123,0,0,1,.69.542,4.142,4.142,0,0,1,.561.742,2.387,2.387,0,0,1,.542-.716,3.342,3.342,0,0,1,.787-.561,4.465,4.465,0,0,1,.974-.355,4.839,4.839,0,0,1,1.11-.123,3.962,3.962,0,0,1,1.729.355,3.529,3.529,0,0,1,1.245.987,4.336,4.336,0,0,1,.748,1.458,5.884,5.884,0,0,1,.258,1.781V36.9a.684.684,0,0,1-.142.458.529.529,0,0,1-.406.155h-1.29a.6.6,0,0,1-.445-.129.677.677,0,0,1-.11-.439V31.364a2.936,2.936,0,0,0-.123-.858,2.117,2.117,0,0,0-.387-.736,2.071,2.071,0,0,0-.645-.516,2.284,2.284,0,0,0-1.794-.032,1.768,1.768,0,0,0-.645.465,2.233,2.233,0,0,0-.445.729,2.671,2.671,0,0,0-.161.955v5.549q0,.6-.542.6H100.3a.574.574,0,0,1-.439-.129.678.678,0,0,1-.11-.439V31.37a3.11,3.11,0,0,0-.116-.845,2.22,2.22,0,0,0-.381-.736,1.8,1.8,0,0,0-.645-.523,2.058,2.058,0,0,0-.949-.2,2.155,2.155,0,0,0-.768.142,2.2,2.2,0,0,0-.69.426,2.071,2.071,0,0,0-.723,1.574v5.807a.452.452,0,0,1-.142.348.484.484,0,0,1-.361.142H93.585a.555.555,0,0,1-.406-.129A.529.529,0,0,1,93.049,37V27.434a.394.394,0,0,1,.213-.387" transform="translate(-33.009 -9.499)" fill="#aeafb1"/><path d="M127.756,36.355a5.807,5.807,0,0,1-1.6.981,4.988,4.988,0,0,1-1.936.361,5.44,5.44,0,0,1-2.1-.452,5.562,5.562,0,0,1-1.762-1.168,5.484,5.484,0,0,1-1.207-1.736,5.162,5.162,0,0,1-.445-2.142,5.517,5.517,0,0,1,.187-1.407,5.343,5.343,0,0,1,1.336-2.4,4.994,4.994,0,0,1,1.084-.865,5.162,5.162,0,0,1,1.29-.555,5.394,5.394,0,0,1,1.465-.194,5.322,5.322,0,0,1,2.42.594,5.452,5.452,0,0,1,1.039.684,5.161,5.161,0,0,1,.852.91,5.027,5.027,0,0,1,.729,1.51,6.452,6.452,0,0,1,.232,1.787,3.57,3.57,0,0,1,0,.407.491.491,0,0,1-.1.265.477.477,0,0,1-.252.142,1.749,1.749,0,0,1-.465.045H121.1a2.871,2.871,0,0,0,.413,1.065,3.1,3.1,0,0,0,.723.781,3.136,3.136,0,0,0,.9.484,3.1,3.1,0,0,0,.987.161,3.691,3.691,0,0,0,.716-.071,3.775,3.775,0,0,0,.645-.206,2.988,2.988,0,0,0,.555-.284,3.64,3.64,0,0,0,.445-.336h0a1.454,1.454,0,0,1,.194-.142.374.374,0,0,1,.194-.058.381.381,0,0,1,.168.052.562.562,0,0,1,.187.168c.155.187.277.336.387.458l.258.31a1.207,1.207,0,0,1,.142.213.4.4,0,0,1,.045.187.645.645,0,0,1-.316.465m-3.691-7.511a2.581,2.581,0,0,0-.955.181,3.1,3.1,0,0,0-.852.484,3.439,3.439,0,0,0-.645.723,3.026,3.026,0,0,0-.419.9h5.9a3.175,3.175,0,0,0-.407-.929,3.039,3.039,0,0,0-.684-.716,2.807,2.807,0,0,0-.878-.471,3.3,3.3,0,0,0-1.058-.174" transform="translate(-42.113 -9.503)" fill="#aeafb1"/><path d="M139.286,26.4a3.078,3.078,0,0,1,.471-.49,2.7,2.7,0,0,1,.613-.394,3.317,3.317,0,0,1,.787-.258,4.716,4.716,0,0,1,1-.09,3.633,3.633,0,0,1,1.665.361,3.471,3.471,0,0,1,1.213.981,4.3,4.3,0,0,1,.748,1.452,6.1,6.1,0,0,1,.252,1.768v5.556a.606.606,0,0,1-.142.445.51.51,0,0,1-.406.155H144.2a.6.6,0,0,1-.445-.129.645.645,0,0,1-.116-.439V29.727a2.425,2.425,0,0,0-.148-.858,2.246,2.246,0,0,0-.445-.736,2.07,2.07,0,0,0-2.336-.568,2.174,2.174,0,0,0-1.207,1.1,2.046,2.046,0,0,0-.206.9v5.439a2.521,2.521,0,0,1,0,.316.916.916,0,0,1-.071.284.432.432,0,0,1-.155.2.4.4,0,0,1-.258.077h-1.4a.548.548,0,0,1-.4-.129.5.5,0,0,1-.129-.374V22.655a.471.471,0,0,1,.523-.5h1.374a.49.49,0,0,1,.348.142.465.465,0,0,1,.161.348Z" transform="translate(-48.558 -7.862)" fill="#aeafb1"/><path d="M157.4,27.858a3.11,3.11,0,0,0-2.052.768,2.871,2.871,0,0,0-.684.878,2.749,2.749,0,0,0-.3,1.136v4.3a.1.1,0,0,0,0,.039v2.316c0,.181-.084.271-.258.271h-.432a.239.239,0,0,1-.277-.271V27.31a.239.239,0,0,1,.1-.213.355.355,0,0,1,.232-.071h.342a.29.29,0,0,1,.226.084.329.329,0,0,1,.077.226v1.29a4.851,4.851,0,0,1,.645-.716,3.529,3.529,0,0,1,.7-.542,3.226,3.226,0,0,1,.813-.342,4.136,4.136,0,0,1,3.1.471A4,4,0,0,1,161,29.123a3.536,3.536,0,0,1,.6-.974,3.329,3.329,0,0,1,.819-.69,3.755,3.755,0,0,1,.994-.413,4.407,4.407,0,0,1,1.1-.136,3.781,3.781,0,0,1,3.459,2.1,4.265,4.265,0,0,1,.413,1.368,4.223,4.223,0,0,1,.052.574v6.265a.361.361,0,0,1-.09.277.3.3,0,0,1-.239.1h-.31a.31.31,0,0,1-.252-.084.452.452,0,0,1-.065-.277V30.955a3.994,3.994,0,0,0-.232-1.149,3.155,3.155,0,0,0-.594-.994,2.91,2.91,0,0,0-.936-.7,2.813,2.813,0,0,0-1.258-.265,3.033,3.033,0,0,0-1.071.181,2.93,2.93,0,0,0-.884.51,2.858,2.858,0,0,0-.645.768,2.794,2.794,0,0,0-.342.968,7.337,7.337,0,0,0-.1,1.213V37.2a.348.348,0,0,1-.1.271.31.31,0,0,1-.239.1h-.316a.329.329,0,0,1-.258-.084.452.452,0,0,1-.065-.277V30.936a1.808,1.808,0,0,0-.058-.555,3.084,3.084,0,0,0-.316-.974,2.8,2.8,0,0,0-.645-.8,2.891,2.891,0,0,0-2.007-.755" transform="translate(-54.415 -9.548)" fill="#aeafb1"/><path d="M179.221,32.641a2.388,2.388,0,0,1,.039.374,1.89,1.89,0,0,0,.071.445,4.729,4.729,0,0,0,.613,1.361,4.568,4.568,0,0,0,.961,1.058,4.517,4.517,0,0,0,1.245.69,4.188,4.188,0,0,0,1.452.245,4.769,4.769,0,0,0,.826-.065,3.943,3.943,0,0,0,.71-.187,4.219,4.219,0,0,0,.645-.284q.29-.174.561-.368a1.381,1.381,0,0,0,.168-.123l.174-.136a1.078,1.078,0,0,1,.155-.1.239.239,0,0,1,.129-.052c.045,0,.09.039.148.11s.161.239.206.31a.394.394,0,0,1,.058.168.077.077,0,0,1,0,.065.155.155,0,0,1,.045.084,2.527,2.527,0,0,1-.226.245,3.627,3.627,0,0,1-.316.245,5.885,5.885,0,0,1-1.458.748,5.026,5.026,0,0,1-1.71.277,5.323,5.323,0,0,1-2.116-.426,5.536,5.536,0,0,1-2.923-2.917,5.162,5.162,0,0,1-.439-2.11,5.414,5.414,0,0,1,.194-1.458,5.716,5.716,0,0,1,.542-1.291,5.013,5.013,0,0,1,.845-1.1,5.278,5.278,0,0,1,1.052-.858,5.639,5.639,0,0,1,1.29-.555,5.555,5.555,0,0,1,1.478-.194,5.355,5.355,0,0,1,1.407.174,5.492,5.492,0,0,1,1.291.5,5.4,5.4,0,0,1,1.1.819,5.22,5.22,0,0,1,.852,1.09,5.807,5.807,0,0,1,.568,1.342,6.646,6.646,0,0,1,.232,1.561h0c0,.187-.09.284-.265.284Zm3.265-4.71a4.22,4.22,0,0,0-1.181.529,4.71,4.71,0,0,0-.974.845,4.975,4.975,0,0,0-.716,1.09,4.755,4.755,0,0,0-.394,1.258h8.911a4.091,4.091,0,0,0-.5-1.542,4.516,4.516,0,0,0-.994-1.232,4.613,4.613,0,0,0-1.361-.819,4.446,4.446,0,0,0-1.594-.29,5.038,5.038,0,0,0-.548,0,4.213,4.213,0,0,0-.645.136" transform="translate(-63.232 -9.524)" fill="#aeafb1"/><path d="M207.551,35.62a.239.239,0,0,1-.265.271h-.432a.239.239,0,0,1-.277-.271V33.587c-.11.181-.232.368-.355.561a2.529,2.529,0,0,1-.413.477,5.162,5.162,0,0,1-3.639,1.452,5.3,5.3,0,0,1-1.439-.194,5.581,5.581,0,0,1-1.29-.555,5.49,5.49,0,0,1-1.11-.858,5.633,5.633,0,0,1-.858-1.1,5.324,5.324,0,0,1-.555-1.29,5.278,5.278,0,0,1,.536-4.2,5.278,5.278,0,0,1,.858-1.1,5.546,5.546,0,0,1,3.833-1.587,4.852,4.852,0,0,1,1.026.11,5.446,5.446,0,0,1,.968.3,6.085,6.085,0,0,1,.884.471,5.639,5.639,0,0,1,.781.613,5.02,5.02,0,0,1,.394.465l.387.548V22.341a.116.116,0,0,1,.045-.1.136.136,0,0,1,.11-.045h.587a.2.2,0,0,1,.226.226Zm-9.84-4.988a4.362,4.362,0,0,0,.342,1.736A4.685,4.685,0,0,0,199,33.813a4.588,4.588,0,0,0,1.4.987,4.188,4.188,0,0,0,1.723.361,4.478,4.478,0,0,0,1.749-.348,4.7,4.7,0,0,0,1.439-.968,4.452,4.452,0,0,0,.981-1.452,4.362,4.362,0,0,0,.361-1.755A4.316,4.316,0,0,0,206.3,28.9a4.581,4.581,0,0,0-2.381-2.452,4.33,4.33,0,0,0-3.478,0,4.387,4.387,0,0,0-1.42.987,4.717,4.717,0,0,0-.961,1.445,4.478,4.478,0,0,0-.348,1.749" transform="translate(-69.785 -7.877)" fill="#aeafb1"/><path d="M215.719,22.144a.6.6,0,0,1,.045-.258.219.219,0,0,1,.187-.116h.587a.194.194,0,0,1,.2.123.606.606,0,0,1,.045.252v.316c0,.161,0,.265-.084.31a.477.477,0,0,1-.3.065h-.3a.606.606,0,0,1-.31-.058.226.226,0,0,1-.09-.206Zm.052,3.342c0-.181.084-.271.265-.271h.439a.239.239,0,0,1,.271.271v9.982a.239.239,0,0,1-.258.271h-.432c-.194,0-.284-.09-.284-.271Z" transform="translate(-76.52 -7.725)" fill="#aeafb1"/><path d="M229.842,35.866V35.22a4.794,4.794,0,0,1-.807,1.032A4.742,4.742,0,0,1,228,37.04a4.793,4.793,0,0,1-1.219.5,4.929,4.929,0,0,1-1.349.181,5.162,5.162,0,0,1-1.445-.2,5.433,5.433,0,0,1-1.29-.555,5.762,5.762,0,0,1-1.11-.865,5.484,5.484,0,0,1-.865-1.1,5.807,5.807,0,0,1-.555-1.29,5.529,5.529,0,0,1,2.5-6.149,5.2,5.2,0,0,1,1.29-.561A5.388,5.388,0,0,1,225.4,26.8a5.162,5.162,0,0,1,1.336.174,5,5,0,0,1,1.226.5,5.279,5.279,0,0,1,1.065.781,4.969,4.969,0,0,1,.819,1.045V27.252a.232.232,0,0,1,.258-.265h.432c.187,0,.284.09.284.265v10a.232.232,0,0,1-.09.206.419.419,0,0,1-.219.065h-.342c-.213,0-.323-.1-.323-.3Zm.052-3.607a4.175,4.175,0,0,0-.368-1.723,4.762,4.762,0,0,0-.987-1.439,4.652,4.652,0,0,0-1.452-.987,4.2,4.2,0,0,0-1.71-.374h0a4.039,4.039,0,0,0-1.7.368,4.613,4.613,0,0,0-1.413.987,4.859,4.859,0,0,0-.987,1.432,4.227,4.227,0,0,0-.361,1.723,4.458,4.458,0,0,0,.348,1.736,4.652,4.652,0,0,0,.942,1.452,4.517,4.517,0,0,0,1.407,1,4.078,4.078,0,0,0,1.716.368,4.278,4.278,0,0,0,1.755-.361,4.658,4.658,0,0,0,1.445-.981,4.723,4.723,0,0,0,.994-1.432,4.291,4.291,0,0,0,.368-1.762" transform="translate(-78.036 -9.51)" fill="#aeafb1"/><path d="M13.434,14.306A1.11,1.11,0,0,0,13,14.222h0a.723.723,0,0,0-.239-.052,2.684,2.684,0,0,0-1.142.252,3.1,3.1,0,0,0-1.032.755A4.878,4.878,0,0,0,9.53,17.113,6.917,6.917,0,0,0,9.3,19.584a8.646,8.646,0,0,0,.716,2.433q.581,1.29,1.374,2.833l-.561,1.187a21.855,21.855,0,0,1-1.1,2.013,26.939,26.939,0,0,1-1.549,2.329A11.614,11.614,0,0,1,6.252,32.45a6.788,6.788,0,0,1-2.336,1.374,3.059,3.059,0,0,1-1.813.032,2.491,2.491,0,0,1-1.29-.981,3.975,3.975,0,0,1-.645-1.632A5.588,5.588,0,0,1,.1,30.437a5.362,5.362,0,0,1,.142-1.174,5.2,5.2,0,0,1,2.407-3.426,5.943,5.943,0,0,1,2.51-.787.419.419,0,0,0,.394-.419.471.471,0,0,0-.1-.3.516.516,0,0,0-.3-.161,8.459,8.459,0,0,0-4.917.374L0,24.662V7.589S1.29,2.163,5.756.64l.136.148.077.084H6l.439.477.245.277c.219.252.477.561.748.91.116.136.226.284.348.432s.355.477.542.736c.09.123.187.252.277.387s.239.336.355.51l.277.419.271.432c.071.1.136.206.206.323s.219.368.336.555l.368.645c.123.226.245.445.361.645l.361.684h0c.1.194.2.4.3.594s.194.407.29.645.252.561.374.858.245.594.361.9c.052.116.09.239.135.361a.606.606,0,0,1,.039.1c.077.219.161.439.239.645s.148.452.226.684a.361.361,0,0,0,0,.077c.077.271.161.542.239.813v.071a.161.161,0,0,0,.032.116v.084" transform="translate(0 -0.229)" fill="#aeafb1"/><path d="M13.06,42.117c.181.387.348.768.5,1.149a35.017,35.017,0,0,1-2.039,5.807c-.116.239-.226.49-.355.742s-.239.5-.368.755-.258.5-.4.761l-.413.761a40.331,40.331,0,0,1-2.465,3.871l-.568.787q-.871,1.22-1.865,2.42C3.11,58.3,1.213,56.384,0,52.512V49.183a5.607,5.607,0,0,0,1.813.116,8.072,8.072,0,0,0,1.878-.452,8.014,8.014,0,0,0,2.116-1.065,12.485,12.485,0,0,0,2.02-1.762,22.3,22.3,0,0,0,3.181-4.562l.458-.865c.142-.284.29-.574.432-.865.4.787.781,1.587,1.168,2.387" transform="translate(0 -14.097)" fill="#aeafb1"/><path d="M21.826,32.082v1.2a4.589,4.589,0,0,1-.032.645c-.032.239,0,.407-.045.613-.071-.148-.148-.3-.232-.458l-.826-1.665c.258-.761.477-1.465.645-2.123.136-.516.245-.968.329-1.374h0c.039.348.071.69.1,1.039v.29a1.582,1.582,0,0,0,0,.174V32.1" transform="translate(-7.34 -10.262)" fill="#aeafb1"/><path d="M24.744,31.953c.7-.774,1.4-1.516,2.1-2.213A12.259,12.259,0,0,0,25.783,32a27.507,27.507,0,0,0-.974,3.181c-.29,1.168-.542,2.4-.736,3.71a26.533,26.533,0,0,0-.316,3.871,20.435,20.435,0,0,0,.258,3.62,8.762,8.762,0,0,0,.929,2.807c-5.562,3.523-9.988,6.291-9.988,6.291a9.357,9.357,0,0,1-7.046.148q.981-1.2,1.845-2.407c.194-.265.381-.523.568-.794q1.328-1.873,2.465-3.871l.413-.761c.142-.258.271-.51.4-.761s.252-.51.368-.755.239-.5.355-.742a35.017,35.017,0,0,0,2.039-5.807c.161.4.3.794.426,1.174a15.563,15.563,0,0,0-.987,1.974c-.748,1.794-.942,3.084-.594,3.871a.329.329,0,0,0,.129.226,1.5,1.5,0,0,0,.3.226l.329.174a.768.768,0,0,0,.206.077,1.7,1.7,0,0,0,.568.084,2.491,2.491,0,0,0,1.555-.587,4.594,4.594,0,0,0,1.29-1.884A6.375,6.375,0,0,0,19.95,42.3,11.227,11.227,0,0,0,19.1,38.9q1.491-2.129,3.549-4.581,1.026-1.187,2.1-2.368" transform="translate(-2.806 -10.553)" fill="#aeafb1"/><path d="M30.128,15.724c-.452.407-.936.845-1.439,1.323q-.974.91-2.026,1.968t-2.116,2.2c-.71.774-1.4,1.549-2.078,2.342s-1.213,1.458-1.749,2.155-1.058,1.368-1.523,2.026c-.252-.613-.523-1.213-.819-1.8-.226-.445-.452-.89-.684-1.336,0-.206.032-.407.045-.613s0-.413.032-.645V20.467a1.582,1.582,0,0,1,0-.174V20a9.42,9.42,0,0,0-.1-1.039h0a1.856,1.856,0,0,1,.065-.329,8.491,8.491,0,0,0,.148-2.278,2.658,2.658,0,0,0-.523-1.491,1.342,1.342,0,0,0-.568-.439.323.323,0,0,0,0-.084.161.161,0,0,0-.032-.116v-.071c-.077-.271-.161-.542-.239-.813a.361.361,0,0,1,0-.077c-.077-.232-.155-.458-.226-.684s-.161-.452-.239-.645a.606.606,0,0,0-.039-.1c-.045-.123-.084-.245-.135-.361-.116-.31-.239-.607-.361-.9s-.252-.581-.374-.858-.194-.419-.29-.645-.194-.4-.3-.594h0L14.2,7.794c-.116-.226-.239-.445-.361-.645L13.475,6.5c-.116-.187-.226-.381-.336-.555S13,5.73,12.933,5.626l-.271-.432-.277-.419c-.116-.174-.239-.342-.355-.51s-.187-.265-.277-.387c-.187-.258-.368-.51-.542-.736s-.232-.3-.348-.432c-.271-.348-.529-.645-.748-.91l-.361-.3L9.3,1c2.207.645,13.55,4.472,20.828,14.705" transform="translate(-3.299 -0.357)" fill="#aeafb1"/><path d="M46.281,41.683c-2.658,1.723-5.517,3.555-8.233,5.278h0A14.9,14.9,0,0,1,37.7,43.7a27.958,27.958,0,0,1,.232-3.871,37.425,37.425,0,0,1,.794-4.11,29.16,29.16,0,0,1,1.29-3.968,22.771,22.771,0,0,1,1.749-3.484c.052-.09.11-.168.161-.252a33.869,33.869,0,0,1,4.355,13.673" transform="translate(-13.374 -9.939)" fill="#aeafb1"/><path d="M38.963,29.84l-2.891,1.9a33.869,33.869,0,0,0-4.342-13.679A10.892,10.892,0,0,1,33.807,15.7c.232-.187.336-.361.3-.51a.645.645,0,0,0-.361-.361,2.633,2.633,0,0,0-.794-.2,8.233,8.233,0,0,0-.987-.032,6.485,6.485,0,0,0-.929.123,1.5,1.5,0,0,0-.645.3l-.394.348C22.7,5.16,11.372,1.327,9.165.643L9.133.611,9.056.559,8.92.411a8.879,8.879,0,0,1,5.807.148c4.439,2.362,24.261,15.086,24.261,15.086s9.459,6.8,0,14.2" transform="translate(-3.164 0)" fill="#aeafb1"/></g></svg>