<svg xmlns="http://www.w3.org/2000/svg" width="108.773" height="47.78" viewBox="0 0 108.773 47.78"><g transform="translate(667.514 -254.461)"><path d="M-639.778,292.978H-645.6q-1.524-1.549-3.064-3.09c-.59-.607-1.171-1.241-1.788-1.831a.826.826,0,0,0-.173-.13l-.911-.911a.409.409,0,0,1-.009-.1.274.274,0,0,1-.043.052l-2.864-2.873-.1.07c.139-.2.087-.356-.121-.564a8.661,8.661,0,0,1-.955-1c-.269-.339-.434-.3-.729-.018-3.185,3.1-6.4,6.188-9.6,9.277-.373.356-.755.721-1.18,1.12l-.382.356v-33.02l4.07,1.059c-.017,5.025-.009,18.726-.009,21.781v.538c2.465-2.395,4.86-4.738,7.29-7.108.139.131.278.243.408.374l.1.1c2.491,2.508,4.973,5.016,7.472,7.515Q-643.986,288.782-639.778,292.978Z" fill="#aeafb1"/><path d="M-635.977,268.533c-.035,7.342-.07,19.845-.1,24.445v.078a1.87,1.87,0,0,1-.052.286c-.157-.147-.287-.251-.4-.364-.008,0-.017-.018-.026-.018q-3.645-3.6-7.289-7.211-5.142-5.09-10.284-10.189c-.278-.269-.278-.433.009-.694.729-.7,1.449-1.414,2.143-2.152.33-.347.53-.338.859.009q4.972,5.064,9.972,10.118c.3.313.633.6,1.05,1.007.017-.416.043-.677.043-.946V267.474Z" fill="#aeafb1"/><path d="M-619.664,262.1h2.5l1.8,7.3,2.012-7.3h1.936l2.011,7.3,1.8-7.3h2.5l-2.875,10.428h-2.712l-1.7-6.152-1.7,6.152h-2.711Z" fill="#aeafb1"/><path d="M-605.537,267.31a5.375,5.375,0,0,1,5.422-5.423,5.377,5.377,0,0,1,5.423,5.423,5.377,5.377,0,0,1-5.423,5.423A5.375,5.375,0,0,1-605.537,267.31Zm8.462,0a2.967,2.967,0,0,0-3.04-3.1,2.967,2.967,0,0,0-3.039,3.1,2.967,2.967,0,0,0,3.039,3.1A2.967,2.967,0,0,0-597.075,267.31Z" fill="#aeafb1"/><path d="M-583.516,272.524H-585.9v-6.063l-2.7,4.425h-.269l-2.7-4.425v6.063h-2.384V262.1h2.384l2.83,4.633,2.83-4.633h2.385Z" fill="#aeafb1"/><path d="M-575.767,270.23v2.294h-6.555V262.1h6.48v2.294h-4.1v1.728h3.724v2.264h-3.724v1.848Z" fill="#aeafb1"/><path d="M-566.827,262.1v10.428h-1.788l-4.022-5.66v5.66h-2.384V262.1h1.788l4.023,5.661V262.1Z" fill="#aeafb1"/><path d="M-616.536,274.169V284.6h-2.384V274.169Z" fill="#aeafb1"/><path d="M-607.149,274.169V284.6h-1.788l-4.022-5.661V284.6h-2.384V274.169h1.788l4.022,5.661v-5.661Z" fill="#aeafb1"/><path d="M-600.442,276.463v2.01h3.874v2.3h-3.874V284.6h-2.384V274.169h6.331v2.294Z" fill="#aeafb1"/><path d="M-596.12,279.382a5.375,5.375,0,0,1,5.422-5.422,5.377,5.377,0,0,1,5.423,5.422A5.376,5.376,0,0,1-590.7,284.8,5.375,5.375,0,0,1-596.12,279.382Zm8.462,0a2.967,2.967,0,0,0-3.04-3.1,2.966,2.966,0,0,0-3.039,3.1,2.967,2.967,0,0,0,3.039,3.1A2.968,2.968,0,0,0-587.658,279.382Z" fill="#aeafb1"/><path d="M-581.011,281.17h-1.132V284.6h-2.384V274.169h4.171a3.566,3.566,0,0,1,3.576,3.575,3.437,3.437,0,0,1-1.922,3.024l2.219,3.829h-2.562Zm-1.132-2.086h1.787a1.262,1.262,0,0,0,1.192-1.34,1.262,1.262,0,0,0-1.192-1.341h-1.787Z" fill="#aeafb1"/><path d="M-569.4,282.3V284.6h-6.555V274.169h6.48v2.294h-4.1v1.728h3.724v2.264h-3.724V282.3Z" fill="#aeafb1"/><path d="M-563.175,284.6l-1.758-3.01-1.758,3.01H-569.4l3.114-5.348-2.965-5.08h2.711l1.609,2.756,1.609-2.756h2.711l-2.964,5.08,3.113,5.348Z" fill="#aeafb1"/><path d="M-627.426,254.461v0Z" fill="#aeafb1"/><rect width="0.672" height="47.78" transform="translate(-627.762 254.461)" fill="#aeafb1"/><path d="M-618.209,292.692h-.5l.3-2.608h-.964l.108-.356h2.392l-.108.356h-.927Z" fill="#aeafb1"/><path d="M-616.092,291.019c.06-.069.122-.134.184-.2a1.4,1.4,0,0,1,.2-.162.978.978,0,0,1,.215-.112.728.728,0,0,1,.245-.041.572.572,0,0,1,.27.06.512.512,0,0,1,.182.16.613.613,0,0,1,.1.231.875.875,0,0,1,.009.276l-.165,1.458h-.49l.16-1.412a.519.519,0,0,0,0-.153.35.35,0,0,0-.045-.126.25.25,0,0,0-.09-.087.253.253,0,0,0-.132-.033.429.429,0,0,0-.17.037.841.841,0,0,0-.174.1,1.213,1.213,0,0,0-.169.156,2.068,2.068,0,0,0-.157.195l-.152,1.319h-.491l.37-3.241h.492Z" fill="#aeafb1"/><path d="M-613.387,292.732a.9.9,0,0,1-.342-.062.781.781,0,0,1-.27-.18.811.811,0,0,1-.175-.284,1.067,1.067,0,0,1-.063-.378,1.255,1.255,0,0,1,.05-.361,1.339,1.339,0,0,1,.141-.318,1.3,1.3,0,0,1,.213-.264,1.361,1.361,0,0,1,.265-.2,1.354,1.354,0,0,1,.3-.13,1.125,1.125,0,0,1,.314-.045.821.821,0,0,1,.292.047.628.628,0,0,1,.211.127.526.526,0,0,1,.129.18.524.524,0,0,1,.044.21.513.513,0,0,1-.083.281.73.73,0,0,1-.242.223,1.373,1.373,0,0,1-.393.149,2.37,2.37,0,0,1-.533.054h-.2a.678.678,0,0,0,.037.229.5.5,0,0,0,.112.185.527.527,0,0,0,.188.124.745.745,0,0,0,.266.044,1.024,1.024,0,0,0,.292-.044,1.4,1.4,0,0,0,.293-.131v.23a1.311,1.311,0,0,1-.206.146,1.455,1.455,0,0,1-.218.1,1.289,1.289,0,0,1-.218.055A1.2,1.2,0,0,1-613.387,292.732Zm.323-1.875a.485.485,0,0,0-.226.056.685.685,0,0,0-.194.148.929.929,0,0,0-.145.216,1.006,1.006,0,0,0-.086.258h.2a1.527,1.527,0,0,0,.327-.031.882.882,0,0,0,.241-.084.442.442,0,0,0,.15-.126.271.271,0,0,0,.051-.158.275.275,0,0,0-.02-.1.254.254,0,0,0-.06-.09.278.278,0,0,0-.1-.064A.371.371,0,0,0-613.064,290.857Z" fill="#aeafb1"/><path d="M-610.971,292.692l.338-2.964h.5l-.141,1.244h1.473l.142-1.244h.5l-.338,2.964h-.5l.154-1.363h-1.472l-.155,1.363Z" fill="#aeafb1"/><path d="M-606.906,292.732a.957.957,0,0,1-.389-.074.8.8,0,0,1-.276-.2.854.854,0,0,1-.165-.293,1.145,1.145,0,0,1-.054-.353,1.253,1.253,0,0,1,.1-.5,1.356,1.356,0,0,1,.278-.415,1.335,1.335,0,0,1,.41-.283,1.2,1.2,0,0,1,.5-.105.939.939,0,0,1,.39.075.767.767,0,0,1,.276.2.844.844,0,0,1,.166.3,1.148,1.148,0,0,1,.054.353,1.239,1.239,0,0,1-.1.5,1.342,1.342,0,0,1-.28.412,1.337,1.337,0,0,1-.411.28A1.194,1.194,0,0,1-606.906,292.732Zm.118-.349a.5.5,0,0,0,.244-.066.709.709,0,0,0,.205-.18.947.947,0,0,0,.142-.27,1.03,1.03,0,0,0,.054-.339,1.121,1.121,0,0,0-.03-.255.708.708,0,0,0-.092-.213.46.46,0,0,0-.151-.147.381.381,0,0,0-.206-.056.479.479,0,0,0-.246.067.671.671,0,0,0-.206.183.992.992,0,0,0-.142.275,1.078,1.078,0,0,0-.052.335,1.045,1.045,0,0,0,.031.254.718.718,0,0,0,.092.214.479.479,0,0,0,.15.144A.39.39,0,0,0-606.788,292.383Z" fill="#aeafb1"/><path d="M-604.994,290.547h.4l.012.5c.062-.072.125-.139.188-.2a1.632,1.632,0,0,1,.2-.172.889.889,0,0,1,.212-.118.615.615,0,0,1,.236-.044.549.549,0,0,1,.217.041.482.482,0,0,1,.164.115.536.536,0,0,1,.108.171.661.661,0,0,1,.051.209c.062-.073.125-.142.189-.206a1.52,1.52,0,0,1,.2-.172.929.929,0,0,1,.214-.116.657.657,0,0,1,.235-.042.512.512,0,0,1,.253.06.493.493,0,0,1,.173.16.579.579,0,0,1,.093.231.874.874,0,0,1,.011.276l-.166,1.458h-.49l.16-1.412a.523.523,0,0,0,0-.153.314.314,0,0,0-.044-.126.237.237,0,0,0-.082-.087.216.216,0,0,0-.12-.033.376.376,0,0,0-.155.037.844.844,0,0,0-.165.1,1.315,1.315,0,0,0-.164.156,2.058,2.058,0,0,0-.157.195v-.008l-.152,1.327h-.489l.161-1.412a.552.552,0,0,0,0-.153.348.348,0,0,0-.045-.126.255.255,0,0,0-.086-.087.213.213,0,0,0-.12-.033.36.36,0,0,0-.153.037.805.805,0,0,0-.163.1,1.246,1.246,0,0,0-.163.156,2.05,2.05,0,0,0-.156.195l-.152,1.319h-.491Z" fill="#aeafb1"/><path d="M-600.534,292.732a.9.9,0,0,1-.342-.062.777.777,0,0,1-.269-.18.828.828,0,0,1-.176-.284,1.067,1.067,0,0,1-.063-.378,1.255,1.255,0,0,1,.051-.361,1.377,1.377,0,0,1,.14-.318,1.369,1.369,0,0,1,.213-.264,1.392,1.392,0,0,1,.265-.2,1.335,1.335,0,0,1,.3-.13,1.13,1.13,0,0,1,.314-.045.827.827,0,0,1,.293.047.639.639,0,0,1,.211.127.526.526,0,0,1,.129.18.541.541,0,0,1,.043.21.513.513,0,0,1-.083.281.719.719,0,0,1-.242.223,1.366,1.366,0,0,1-.392.149,2.386,2.386,0,0,1-.534.054h-.2a.68.68,0,0,0,.037.229.52.52,0,0,0,.113.185.518.518,0,0,0,.188.124.74.74,0,0,0,.265.044,1.031,1.031,0,0,0,.293-.044,1.389,1.389,0,0,0,.292-.131v.23a1.3,1.3,0,0,1-.2.146,1.511,1.511,0,0,1-.219.1,1.279,1.279,0,0,1-.217.055A1.221,1.221,0,0,1-600.534,292.732Zm.324-1.875a.489.489,0,0,0-.227.056.682.682,0,0,0-.193.148.869.869,0,0,0-.145.216,1.006,1.006,0,0,0-.086.258h.2a1.52,1.52,0,0,0,.327-.031.877.877,0,0,0,.242-.084.438.438,0,0,0,.149-.126.27.27,0,0,0,.051-.158.274.274,0,0,0-.019-.1.271.271,0,0,0-.061-.09.265.265,0,0,0-.1-.064A.371.371,0,0,0-600.21,290.857Z" fill="#aeafb1"/><path d="M-597.363,292.732a.957.957,0,0,1-.389-.074.8.8,0,0,1-.276-.2.822.822,0,0,1-.165-.293,1.115,1.115,0,0,1-.054-.353,1.236,1.236,0,0,1,.1-.5,1.339,1.339,0,0,1,.278-.415,1.336,1.336,0,0,1,.41-.283,1.193,1.193,0,0,1,.5-.105.944.944,0,0,1,.391.075.775.775,0,0,1,.276.2.825.825,0,0,1,.165.3,1.117,1.117,0,0,1,.054.353,1.222,1.222,0,0,1-.1.5,1.323,1.323,0,0,1-.279.412,1.339,1.339,0,0,1-.411.28A1.2,1.2,0,0,1-597.363,292.732Zm.117-.349a.5.5,0,0,0,.244-.066.684.684,0,0,0,.205-.18.925.925,0,0,0,.143-.27,1.03,1.03,0,0,0,.054-.339,1.121,1.121,0,0,0-.03-.255.709.709,0,0,0-.092-.213.461.461,0,0,0-.151-.147.384.384,0,0,0-.207-.056.484.484,0,0,0-.246.067.68.68,0,0,0-.205.183.99.99,0,0,0-.142.275,1.049,1.049,0,0,0-.052.335,1,1,0,0,0,.031.254.692.692,0,0,0,.092.214.486.486,0,0,0,.149.144A.4.4,0,0,0-597.246,292.383Z" fill="#aeafb1"/><path d="M-594.972,292.269c-.013.121-.032.249-.056.387s-.052.274-.083.41-.065.267-.1.39a3.28,3.28,0,0,1-.115.321h-.307l.326-2.88h-.432l.065-.247.407-.1.012-.093a1.384,1.384,0,0,1,.109-.407,1.112,1.112,0,0,1,.22-.331.993.993,0,0,1,.321-.224.99.99,0,0,1,.409-.082,1.274,1.274,0,0,1,.183.014,1.065,1.065,0,0,1,.181.045l-.122.348-.043.02a.583.583,0,0,0-.125-.055.472.472,0,0,0-.144-.022.408.408,0,0,0-.2.047.472.472,0,0,0-.145.13.66.66,0,0,0-.1.195,1.118,1.118,0,0,0-.051.241l-.02.174h.712l-.125.35h-.625Z" fill="#aeafb1"/><path d="M-593.026,292.692l.566-2.964h.733c.049.23.1.46.148.688s.1.457.147.688l.129.593.059.366h.041l.141-.366c.039-.087.078-.173.116-.259s.077-.173.116-.26l.644-1.45h.757l-.11,2.964h-.517l.115-2.216.04-.461h-.042l-.17.442c-.019.041-.037.082-.057.123s-.037.082-.057.123l-.857,1.928h-.458l-.422-1.926-.067-.313c-.011-.064-.022-.126-.033-.188l-.032-.189h-.042c-.01.065-.019.129-.027.193s-.017.129-.026.194l-.055.321-.342,1.969Z" fill="#aeafb1"/><path d="M-587.018,292.692h-.4l-.012-.5c-.064.072-.127.14-.19.2a1.627,1.627,0,0,1-.194.173.973.973,0,0,1-.213.118.642.642,0,0,1-.236.043.528.528,0,0,1-.258-.059.508.508,0,0,1-.178-.16.626.626,0,0,1-.1-.232.867.867,0,0,1-.011-.275l.166-1.459h.492l-.162,1.413a.487.487,0,0,0,0,.153.4.4,0,0,0,.045.128.248.248,0,0,0,.086.087.221.221,0,0,0,.123.032.366.366,0,0,0,.155-.037.716.716,0,0,0,.164-.105,1.455,1.455,0,0,0,.162-.156,2.213,2.213,0,0,0,.156-.2l.152-1.32h.491Z" fill="#aeafb1"/><path d="M-585.977,289.451h.492l-.37,3.241h-.492Z" fill="#aeafb1"/><path d="M-584.8,290.9h-.432l.063-.23a1.462,1.462,0,0,0,.267-.091.661.661,0,0,0,.174-.125.852.852,0,0,0,.131-.18c.04-.071.086-.157.139-.258h.234l-.06.534h.77l-.125.35h-.669l-.124,1.077a.393.393,0,0,0,.052.293.294.294,0,0,0,.246.093.572.572,0,0,0,.187-.029,1.3,1.3,0,0,0,.2-.088v.235a1.176,1.176,0,0,1-.337.19,1.029,1.029,0,0,1-.345.064.534.534,0,0,1-.252-.053.411.411,0,0,1-.163-.149.573.573,0,0,1-.08-.225.96.96,0,0,1,0-.279Z" fill="#aeafb1"/><path d="M-582.978,290.547h.49l-.245,2.145h-.49Zm.291-.423a.256.256,0,0,1-.192-.071.24.24,0,0,1-.071-.177.274.274,0,0,1,.028-.123.29.29,0,0,1,.073-.1.355.355,0,0,1,.109-.067.349.349,0,0,1,.13-.024.307.307,0,0,1,.106.019.228.228,0,0,1,.081.053.253.253,0,0,1,.053.082.272.272,0,0,1,.019.1.28.28,0,0,1-.027.123.343.343,0,0,1-.073.1.359.359,0,0,1-.107.064A.374.374,0,0,1-582.687,290.124Z" fill="#aeafb1"/><path d="M-581.4,291.006c.067-.075.132-.144.2-.205a1.52,1.52,0,0,1,.2-.158.962.962,0,0,1,.2-.1.706.706,0,0,1,.221-.035.583.583,0,0,1,.294.073.661.661,0,0,1,.216.2.877.877,0,0,1,.133.284,1.162,1.162,0,0,1,.047.336,1.219,1.219,0,0,1-.055.37,1.319,1.319,0,0,1-.147.324,1.32,1.32,0,0,1-.223.27,1.372,1.372,0,0,1-.28.2,1.411,1.411,0,0,1-.318.128,1.289,1.289,0,0,1-.338.039,1.351,1.351,0,0,1-.173-.016c-.054-.01-.1-.02-.138-.031l-.126,1.094h-.489l.368-3.231h.4Zm-.123,1.288a.712.712,0,0,0,.194.071,1.093,1.093,0,0,0,.171.018.647.647,0,0,0,.29-.067.715.715,0,0,0,.235-.187.911.911,0,0,0,.158-.285,1.111,1.111,0,0,0,.058-.364,1.021,1.021,0,0,0-.025-.232.66.66,0,0,0-.071-.192.375.375,0,0,0-.118-.128.3.3,0,0,0-.165-.047.4.4,0,0,0-.156.033.73.73,0,0,0-.158.09,1.191,1.191,0,0,0-.155.143,1.842,1.842,0,0,0-.146.182Z" fill="#aeafb1"/><path d="M-579.148,289.451h.492l-.37,3.241h-.492Z" fill="#aeafb1"/><path d="M-577.555,292.732a.91.91,0,0,1-.343-.062.776.776,0,0,1-.269-.18.809.809,0,0,1-.175-.284,1.066,1.066,0,0,1-.064-.378,1.255,1.255,0,0,1,.051-.361,1.339,1.339,0,0,1,.141-.318,1.328,1.328,0,0,1,.212-.264,1.4,1.4,0,0,1,.266-.2,1.335,1.335,0,0,1,.3-.13,1.124,1.124,0,0,1,.314-.045.821.821,0,0,1,.292.047.629.629,0,0,1,.211.127.525.525,0,0,1,.129.18.523.523,0,0,1,.043.21.512.512,0,0,1-.082.281.723.723,0,0,1-.243.223,1.355,1.355,0,0,1-.392.149,2.37,2.37,0,0,1-.533.054h-.2a.68.68,0,0,0,.037.229.505.505,0,0,0,.112.185.528.528,0,0,0,.188.124.742.742,0,0,0,.266.044,1.024,1.024,0,0,0,.292-.044,1.4,1.4,0,0,0,.293-.131v.23a1.308,1.308,0,0,1-.206.146,1.421,1.421,0,0,1-.219.1,1.256,1.256,0,0,1-.217.055A1.21,1.21,0,0,1-577.555,292.732Zm.323-1.875a.482.482,0,0,0-.226.056.685.685,0,0,0-.194.148.9.9,0,0,0-.145.216,1,1,0,0,0-.086.258h.2a1.526,1.526,0,0,0,.327-.031.882.882,0,0,0,.241-.084.441.441,0,0,0,.15-.126.271.271,0,0,0,.051-.158.275.275,0,0,0-.02-.1.267.267,0,0,0-.06-.09.277.277,0,0,0-.1-.064A.371.371,0,0,0-577.232,290.857Z" fill="#aeafb1"/><path d="M-574.33,292.376a.882.882,0,0,0,.246-.032.64.64,0,0,0,.2-.092.47.47,0,0,0,.135-.143.35.35,0,0,0,.05-.184.338.338,0,0,0-.055-.189.652.652,0,0,0-.143-.15,1.3,1.3,0,0,0-.2-.126l-.232-.122c-.079-.041-.157-.086-.232-.134a1.082,1.082,0,0,1-.2-.164.788.788,0,0,1-.143-.21.641.641,0,0,1-.054-.272.757.757,0,0,1,.083-.351.844.844,0,0,1,.235-.275,1.146,1.146,0,0,1,.356-.18,1.5,1.5,0,0,1,.448-.064c.045,0,.1,0,.153.005s.119.011.186.019.134.021.2.035.141.032.212.053l-.125.393-.041.02a1.729,1.729,0,0,0-.2-.081c-.066-.021-.128-.039-.187-.052a1.476,1.476,0,0,0-.166-.028,1.147,1.147,0,0,0-.135-.008.766.766,0,0,0-.22.029.533.533,0,0,0-.169.083.384.384,0,0,0-.11.128.347.347,0,0,0-.04.168.346.346,0,0,0,.055.2.643.643,0,0,0,.144.158,1.371,1.371,0,0,0,.2.133l.234.125c.079.043.157.087.233.134a1.07,1.07,0,0,1,.2.158.717.717,0,0,1,.144.2.571.571,0,0,1,.055.257.731.731,0,0,1-.09.351.938.938,0,0,1-.25.293,1.234,1.234,0,0,1-.381.2,1.507,1.507,0,0,1-.481.074,1.99,1.99,0,0,1-.433-.049,1.955,1.955,0,0,1-.421-.144l.126-.385.042-.02a2.133,2.133,0,0,0,.391.18A1.182,1.182,0,0,0-574.33,292.376Z" fill="#aeafb1"/><path d="M-572.333,290.9h-.431l.063-.23a1.424,1.424,0,0,0,.266-.091.646.646,0,0,0,.174-.125.852.852,0,0,0,.131-.18c.04-.071.087-.157.139-.258h.235l-.061.534h.772l-.127.35h-.669l-.123,1.077a.394.394,0,0,0,.051.293.3.3,0,0,0,.246.093.582.582,0,0,0,.188-.029,1.29,1.29,0,0,0,.2-.088v.235a1.157,1.157,0,0,1-.336.19,1.03,1.03,0,0,1-.346.064.532.532,0,0,1-.251-.053.418.418,0,0,1-.163-.149.574.574,0,0,1-.081-.225,1.039,1.039,0,0,1,0-.279Z" fill="#aeafb1"/><path d="M-570.507,290.547h.4c0,.114,0,.226-.005.338s0,.222,0,.334q.063-.115.138-.24a1.407,1.407,0,0,1,.166-.23.857.857,0,0,1,.2-.173.474.474,0,0,1,.255-.069.539.539,0,0,1,.114.013.23.23,0,0,1,.092.041l-.1.468a.6.6,0,0,0-.086-.013.693.693,0,0,0-.078,0,.594.594,0,0,0-.22.041.7.7,0,0,0-.183.113,1.078,1.078,0,0,0-.161.178c-.052.069-.1.146-.157.231l-.126,1.117h-.492Z" fill="#aeafb1"/><path d="M-568.208,292.732a.907.907,0,0,1-.343-.062.767.767,0,0,1-.269-.18.812.812,0,0,1-.176-.284,1.065,1.065,0,0,1-.063-.378,1.255,1.255,0,0,1,.051-.361,1.265,1.265,0,0,1,.141-.318,1.262,1.262,0,0,1,.212-.264,1.393,1.393,0,0,1,.265-.2,1.342,1.342,0,0,1,.3-.13,1.123,1.123,0,0,1,.313-.045.821.821,0,0,1,.292.047.624.624,0,0,1,.212.127.536.536,0,0,1,.128.18.508.508,0,0,1,.044.21.513.513,0,0,1-.083.281.729.729,0,0,1-.242.223,1.362,1.362,0,0,1-.393.149,2.367,2.367,0,0,1-.532.054h-.2a.68.68,0,0,0,.038.229.5.5,0,0,0,.111.185.523.523,0,0,0,.189.124.735.735,0,0,0,.265.044,1.019,1.019,0,0,0,.292-.044,1.374,1.374,0,0,0,.293-.131v.23a1.308,1.308,0,0,1-.206.146,1.409,1.409,0,0,1-.218.1,1.289,1.289,0,0,1-.218.055A1.2,1.2,0,0,1-568.208,292.732Zm.323-1.875a.486.486,0,0,0-.227.056.668.668,0,0,0-.193.148.9.9,0,0,0-.146.216,1.042,1.042,0,0,0-.086.258h.2a1.523,1.523,0,0,0,.326-.031.882.882,0,0,0,.241-.084.432.432,0,0,0,.15-.126.264.264,0,0,0,.052-.158.257.257,0,0,0-.021-.1.265.265,0,0,0-.059-.09.291.291,0,0,0-.1-.064A.369.369,0,0,0-567.885,290.857Z" fill="#aeafb1"/><path d="M-564.919,292.692h-.4l-.016-.457c-.067.076-.131.144-.194.2a1.509,1.509,0,0,1-.191.158.848.848,0,0,1-.2.1.645.645,0,0,1-.217.035.574.574,0,0,1-.291-.072.638.638,0,0,1-.21-.194.894.894,0,0,1-.126-.28,1.27,1.27,0,0,1-.043-.329,1.24,1.24,0,0,1,.055-.374,1.368,1.368,0,0,1,.15-.327,1.381,1.381,0,0,1,.224-.27,1.5,1.5,0,0,1,.278-.2,1.441,1.441,0,0,1,.312-.13,1.213,1.213,0,0,1,.325-.045,1.3,1.3,0,0,1,.486.1l.307-.1Zm-.291-1.746a.622.622,0,0,0-.181-.071.784.784,0,0,0-.153-.018.624.624,0,0,0-.278.066.724.724,0,0,0-.236.187.936.936,0,0,0-.165.291,1.109,1.109,0,0,0-.061.379,1.2,1.2,0,0,0,.02.22.681.681,0,0,0,.065.185.355.355,0,0,0,.112.127.272.272,0,0,0,.162.048.383.383,0,0,0,.154-.032.7.7,0,0,0,.154-.092,1.1,1.1,0,0,0,.15-.142,1.646,1.646,0,0,0,.145-.183Z" fill="#aeafb1"/><path d="M-564,290.547h.4l.013.5c.062-.072.124-.139.188-.2a1.628,1.628,0,0,1,.2-.172.89.89,0,0,1,.212-.118.61.61,0,0,1,.235-.044.549.549,0,0,1,.217.041.5.5,0,0,1,.165.115.553.553,0,0,1,.108.171.718.718,0,0,1,.051.209c.062-.073.125-.142.189-.206a1.579,1.579,0,0,1,.2-.172.936.936,0,0,1,.215-.116.647.647,0,0,1,.234-.042.509.509,0,0,1,.253.06.487.487,0,0,1,.174.16.628.628,0,0,1,.093.231.874.874,0,0,1,.01.276l-.166,1.458h-.489l.16-1.412a.6.6,0,0,0,0-.153.348.348,0,0,0-.044-.126.247.247,0,0,0-.083-.087.213.213,0,0,0-.119-.033.369.369,0,0,0-.155.037.79.79,0,0,0-.165.1,1.392,1.392,0,0,0-.165.156,2.236,2.236,0,0,0-.157.195v-.008l-.151,1.327h-.49l.161-1.412a.556.556,0,0,0,0-.153.332.332,0,0,0-.046-.126.253.253,0,0,0-.085-.087.217.217,0,0,0-.121-.033.368.368,0,0,0-.153.037.807.807,0,0,0-.163.1,1.311,1.311,0,0,0-.163.156,2.034,2.034,0,0,0-.155.195l-.152,1.319h-.492Z" fill="#aeafb1"/><path d="M-560.327,292.208l.04-.023a1.362,1.362,0,0,0,.3.145.967.967,0,0,0,.3.053.57.57,0,0,0,.161-.022.394.394,0,0,0,.122-.057.256.256,0,0,0,.079-.082.211.211,0,0,0,.026-.1.178.178,0,0,0-.04-.114.447.447,0,0,0-.107-.091,1.338,1.338,0,0,0-.152-.079c-.057-.025-.115-.051-.174-.079a1.914,1.914,0,0,1-.174-.09.806.806,0,0,1-.152-.114.518.518,0,0,1-.107-.147.443.443,0,0,1-.04-.194.577.577,0,0,1,.065-.263.721.721,0,0,1,.189-.227.936.936,0,0,1,.3-.157,1.211,1.211,0,0,1,.388-.059,1.8,1.8,0,0,1,.28.023,1.24,1.24,0,0,1,.279.074l-.13.366-.046.026a.89.89,0,0,0-.243-.1.934.934,0,0,0-.247-.036.546.546,0,0,0-.158.021.412.412,0,0,0-.119.057.249.249,0,0,0-.074.082.2.2,0,0,0-.025.1.2.2,0,0,0,.07.153.838.838,0,0,0,.179.114c.071.035.148.07.231.1a1.333,1.333,0,0,1,.23.123.657.657,0,0,1,.178.17.42.42,0,0,1,.071.246.561.561,0,0,1-.066.264.741.741,0,0,1-.191.226.949.949,0,0,1-.3.158,1.2,1.2,0,0,1-.386.058,1.6,1.6,0,0,1-.352-.04,1.657,1.657,0,0,1-.34-.115Z" fill="#aeafb1"/></g></svg>