<?xml version="1.0" encoding="utf-8"?>
<!-- Generator: Adobe Illustrator 24.3.0, SVG Export Plug-In . SVG Version: 6.00 Build 0)  -->
<svg version="1.1" id="Layer_1" xmlns="http://www.w3.org/2000/svg" xmlns:xlink="http://www.w3.org/1999/xlink" x="0px" y="0px"
	 viewBox="0 0 64 64" style="enable-background:new 0 0 64 64;" xml:space="preserve">
<style type="text/css">
	.st0{fill:#231F20;}
	.st1{fill:#FFFFFF;}
</style>
<circle class="st0" cx="32" cy="32.9" r="28.6"/>
<g>
	<g id="Icon-Pencil" transform="translate(179.000000, 382.000000)">
		<path id="Fill-168" class="st1" d="M-162.6-333.6l2.7-11l16.8-16.8l8.3,8.3l-16.8,16.8L-162.6-333.6L-162.6-333.6z M-157.9-343.6
			l-1.8,7.1l7.1-1.8l15-15l-5.3-5.3L-157.9-343.6L-157.9-343.6z"/>
		<path id="Fill-169" class="st1" d="M-153.3-337c-0.7-2.9-3-5.1-5.9-5.9l0.5-2.1c3.6,0.9,6.4,3.7,7.3,7.3L-153.3-337"/>
		<polyline id="Fill-170" class="st1" points="-153.6,-341.1 -155,-342.6 -140.3,-357.4 -138.8,-355.9 -153.6,-341.1 		"/>
		<path id="Fill-171" class="st1" d="M-161.1-335.1l3.3-0.8c-0.3-1.2-1.3-2.1-2.4-2.4L-161.1-335.1"/>
		<path id="Fill-172" class="st1" d="M-133.9-354l-8.3-8.3l3.3-3.3l0.5,0.1c4,0.5,7.2,3.7,7.7,7.7l0.1,0.5L-133.9-354L-133.9-354z
			 M-139.2-362.3l5.3,5.3l1-1c-0.6-2.7-2.7-4.7-5.3-5.3L-139.2-362.3L-139.2-362.3z"/>
	</g>
</g>
</svg>
