<svg xmlns="http://www.w3.org/2000/svg" width="47" height="48" viewBox="0 0 47 48">
  <g id="Group_149" data-name="Group 149" transform="translate(-291 -2141)">
    <circle id="Ellipse_7" data-name="Ellipse 7" cx="13" cy="13" r="13" transform="translate(312 2163)" fill="#bfbfbf"/>
    <g id="lmCmgR" transform="translate(1875.909 2654.257)">
      <g id="Group_25" data-name="Group 25" transform="translate(-1584.909 -513.257)">
        <path id="Path_128" data-name="Path 128" d="M-1543.142-492.219a20.911,20.911,0,0,1-4.258,12.706,20.07,20.07,0,0,1-13.809,8.122,20.206,20.206,0,0,1-18.566-6.97,20.141,20.141,0,0,1-5.129-13.447,20.474,20.474,0,0,1,3.216-11.715,20.069,20.069,0,0,1,13.85-9.37c7.727-1.338,14.288,1.023,19.53,6.851a19.573,19.573,0,0,1,4.822,10.342C-1543.314-494.549-1543.254-493.38-1543.142-492.219Zm-2.6-.008c-.111-1.1-.152-2.2-.342-3.283a18.253,18.253,0,0,0-24.14-14.082,18.289,18.289,0,0,0-11.979,15.345,18.666,18.666,0,0,0,1.668,10.047,18.246,18.246,0,0,0,22.752,9.315A18.459,18.459,0,0,0-1545.745-492.226Z" transform="translate(1584.909 513.257)"/>
        <path id="Path_129" data-name="Path 129" d="M-1568.912-479.078v-2.813h-3.322v-2.785h3.3v-7.017a4.937,4.937,0,0,1-4.782-2.617,6.961,6.961,0,0,1-.971-4.1,6.65,6.65,0,0,1,1.854-4.415,4.657,4.657,0,0,1,3.906-1.446v-3.067h2.315v3.042h3.226v2.776h-3.208v7.036a4.881,4.881,0,0,1,4.64,2.379,6.921,6.921,0,0,1,1.117,4.25,6.657,6.657,0,0,1-1.829,4.465,4.716,4.716,0,0,1-3.937,1.481v2.828Zm-.013-22.406a2.8,2.8,0,0,0-3.044,1.677,3.89,3.89,0,0,0,.087,3.8,2.73,2.73,0,0,0,2.957,1.5Zm2.336,16.776a2.8,2.8,0,0,0,3.095-1.774,3.881,3.881,0,0,0-.161-3.731,2.73,2.73,0,0,0-2.933-1.455Z" transform="translate(1588.604 513.965)"/>
      </g>
    </g>
  </g>
</svg>
