<svg xmlns="http://www.w3.org/2000/svg" width="43" height="48" viewBox="0 0 43 48">
  <g id="Group_148" data-name="Group 148" transform="translate(-1016 -1846)">
    <circle id="Ellipse_5" data-name="Ellipse 5" cx="13" cy="13" r="13" transform="translate(1033 1868)" fill="#bfbfbf"/>
    <g id="Gkl1Sk" transform="translate(2610.409 2439.837)">
      <g id="Group_24" data-name="Group 24" transform="translate(-1594.409 -593.837)">
        <path id="Path_126" data-name="Path 126" d="M-1589.865-577.156c0-.186,0-.341,0-.5.011-2.081-.066-4.167.052-6.242a10.469,10.469,0,0,1,7.745-9.523,12.136,12.136,0,0,1,2.765-.388,36.864,36.864,0,0,1,4.146.058,10.592,10.592,0,0,1,9.113,7.39,11.532,11.532,0,0,1,.486,3.348v5.849c.349.054.663.086.969.152a4.48,4.48,0,0,1,3.565,4.355q.022,8.478,0,16.955a4.533,4.533,0,0,1-4.344,4.387c-.342.013-.685.006-1.028.006q-11.678,0-23.357,0a4.529,4.529,0,0,1-4.508-3.435,5.034,5.034,0,0,1-.138-1.21q-.014-8.22-.006-16.441a4.522,4.522,0,0,1,4.252-4.717C-1590.078-577.118-1590-577.134-1589.865-577.156Zm12.147,3.082h-11.932a1.535,1.535,0,0,0-1.724,1.7c0,5.426.01,10.853-.012,16.279a1.642,1.642,0,0,0,1.729,1.751q11.932-.028,23.865,0a1.651,1.651,0,0,0,1.755-1.765c-.025-5.4-.012-10.8-.012-16.2a1.555,1.555,0,0,0-1.775-1.763Zm9.085-3.071c.008-.125.018-.2.018-.28,0-1.976.02-3.953-.007-5.928a7.554,7.554,0,0,0-7.473-7.413c-1.041-.007-2.082,0-3.122,0a7.564,7.564,0,0,0-7.595,7.615q0,2.786,0,5.572v.434Z" transform="translate(1594.409 593.837)"/>
        <path id="Path_127" data-name="Path 127" d="M-1572.075-549.252c0-.514-.01-1.028,0-1.542a.555.555,0,0,0-.262-.521,2.985,2.985,0,0,1-1.146-3.286,3.026,3.026,0,0,1,2.594-2.173,3.024,3.024,0,0,1,3.137,1.853,2.95,2.95,0,0,1-.867,3.462,1.032,1.032,0,0,0-.436.957c.027.908.012,1.818.006,2.727a1.519,1.519,0,0,1-1.521,1.614,1.525,1.525,0,0,1-1.509-1.629C-1572.077-548.278-1572.074-548.764-1572.075-549.252Z" transform="translate(1587.254 581.103)"/>
      </g>
    </g>
  </g>
</svg>
