<?xml version="1.0" standalone="no"?>
<!DOCTYPE svg PUBLIC "-//W3C//DTD SVG 1.1//EN" "http://www.w3.org/Graphics/SVG/1.1/DTD/svg11.dtd" >
<svg xmlns="http://www.w3.org/2000/svg" xmlns:xlink="http://www.w3.org/1999/xlink" version="1.1">
<metadata>
Created by FontForge 20190801 at Mon Aug 18 15:21:43 2003
 By www-data
2003 [T-26] Chicago www.t26.com 773.862.1201 T0936 ID#5134469 designer: copyright (c) 2002 Neil MacCallum. All Rights Reserved. CorisandeTM is a Trade Mark of Neil MacCallum
</metadata>
<defs>
<font id="CorisandeRegular" horiz-adv-x="550" >
  <font-face 
    font-family="CorisandeRegular"
    font-weight="400"
    font-stretch="normal"
    units-per-em="1000"
    panose-1="0 0 4 0 0 0 0 0 0 0"
    ascent="800"
    descent="-200"
    x-height="500"
    cap-height="684"
    bbox="-159 -250 1000 888"
    underline-thickness="50"
    underline-position="-125"
    unicode-range="U+0020-F002"
  />
<missing-glyph horiz-adv-x="500" 
d="M63 0v750h375v-750h-375zM125 63h250v625h-250v-625z" />
    <glyph glyph-name=".notdef" horiz-adv-x="500" 
d="M63 0v750h375v-750h-375zM125 63h250v625h-250v-625z" />
    <glyph glyph-name=".null" horiz-adv-x="0" 
 />
    <glyph glyph-name="nonmarkingreturn" horiz-adv-x="250" 
 />
    <glyph glyph-name="space" unicode=" " horiz-adv-x="250" 
 />
    <glyph glyph-name="exclam" unicode="!" horiz-adv-x="390" 
d="M249 684l-6 -468h-96l-5 468h107zM258 47q0 -25 -17.5 -40.5t-45.5 -15.5t-45 15.5t-17 40.5t17 41t45 16t45.5 -16t17.5 -41z" />
    <glyph glyph-name="quotedbl" unicode="&#x22;" horiz-adv-x="500" 
d="M383 646l-23 -166h-48l-23 170q0 19 13.5 32t33.5 13t33.5 -13t13.5 -32v-4zM211 646l-23 -166h-48l-23 170q0 19 13.5 32t33.5 13t33.5 -13t13.5 -32v-4z" />
    <glyph glyph-name="numbersign" unicode="#" 
d="M506 416h-102l-21 -143h100v-66h-110l-29 -207h-70l29 207h-96l-29 -207h-72l29 207h-91v66h101l20 143h-97v67h106l28 201h72l-28 -201h95l29 201h71l-29 -201h94v-67zM332 416h-95l-21 -143h96z" />
    <glyph glyph-name="dollar" unicode="$" 
d="M481 188q0 -74 -46 -123q-43 -44 -115 -60v-94h-89v87q-87 3 -165 33l24 82q75 -30 157 -30q55 0 91 23q42 27 42 79q0 56 -80 101q-74 40 -148 81q-80 57 -80 143q0 71 47 116q41 41 112 55v67h89v-63q62 -5 133 -31l-30 -80q-83 27 -134 27q-117 0 -117 -92
q0 -48 80 -91q141 -77 149 -83q80 -59 80 -147z" />
    <glyph glyph-name="percent" unicode="%" horiz-adv-x="1000" 
d="M903 184q0 -80 -43 -134q-48 -60 -125 -60t-124 60q-43 54 -43 134q0 79 44.5 134.5t122.5 55.5t125 -57q43 -54 43 -133zM757 713l-431 -728h-80l433 728h78zM427 504q0 -80 -43 -134q-48 -60 -125 -60t-124 60q-43 54 -43 134q0 79 44.5 134.5t122.5 55.5t125 -57
q43 -54 43 -133zM822 182q0 47 -20 79q-24 39 -67 39t-67 -39q-19 -33 -19 -79t19 -78q24 -39 67 -39t67 39q20 32 20 78zM346 503q0 47 -20 79q-23 38 -67 38q-43 0 -67 -39q-19 -32 -19 -78t19 -79q24 -39 67 -39t67 39q20 33 20 79z" />
    <glyph glyph-name="ampersand" unicode="&#x26;" horiz-adv-x="675" 
d="M662 0h-110l-62 64q-93 -75 -205 -75q-94 0 -161 51q-73 55 -73 147q0 116 149 196q-72 86 -72 150q0 73 53 119q50 43 124 43q69 0 118.5 -42t49.5 -109q0 -101 -145 -177zM385 545q0 34 -23.5 55t-58.5 21q-37 0 -61 -23.5t-24 -60.5q0 -29 21 -61q7 -11 41 -51
q50 27 71 47q34 32 34 73zM431 125l-177 200q-50 -28 -71 -51q-32 -34 -32 -80q0 -56 43 -90q39 -32 96 -32q87 0 141 53z" />
    <glyph glyph-name="quotesingle" unicode="'" horiz-adv-x="250" 
d="M172 646l-23 -166h-48l-23 170q0 19 13.5 32t33.5 13t33.5 -13t13.5 -32v-4z" />
    <glyph glyph-name="parenleft" unicode="(" horiz-adv-x="300" 
d="M255 -113l-59 -30q-134 214 -134 448q0 238 134 450l59 -30q-96 -204 -96 -420q0 -214 96 -418z" />
    <glyph glyph-name="parenright" unicode=")" horiz-adv-x="300" 
d="M255 305q0 -234 -134 -448l-59 30q96 204 96 418q0 216 -96 420l59 30q134 -212 134 -450z" />
    <glyph glyph-name="asterisk" unicode="*" 
d="M473 544q0 -29 -27 -38h-2q-1 -1 -2 -1l-123 -23l-1 -2l89 -93q2 -1 3 -3q7 -10 7 -22q0 -18 -12.5 -30t-29.5 -12q-23 0 -33 14q0 1 -1 2t-1 2l-62 113h-2l-61 -113q-1 -1 -1.5 -2t-1.5 -2q-10 -14 -33 -14q-17 0 -29.5 12t-12.5 29q0 13 8 23q1 1 2 3l88 93l-1 2
l-125 23q-1 0 -2 1h-2q-27 9 -27 38q0 18 11.5 31t28.5 13q7 0 13 -2h2q1 -1 2 -1l113 -55l2 2l-16 122q0 40 42 40q17 0 29.5 -11.5t12.5 -28.5v-4l-16 -118l2 -1l113 54q1 0 2 1h1q6 2 13 2q17 0 28.5 -13t11.5 -31z" />
    <glyph glyph-name="plus" unicode="+" horiz-adv-x="588" 
d="M543 210h-207v-209l-83 -1v210h-209v83h209v207h83v-207h207v-83z" />
    <glyph glyph-name="comma" unicode="," horiz-adv-x="250" 
d="M187 54q0 -13 -3 -19l-77 -166l-51 16l30 181q6 37 49 37q22 0 37 -14t15 -35z" />
    <glyph glyph-name="hyphen" unicode="-" horiz-adv-x="332" 
d="M299 220h-264v87h264v-87z" />
    <glyph glyph-name="hyphen" unicode="&#x2010;" horiz-adv-x="332" 
d="M299 220h-264v87h264v-87z" />
    <glyph glyph-name="period" unicode="." horiz-adv-x="250" 
d="M187 47q0 -25 -17.5 -41t-45.5 -16t-45.5 16t-17.5 41t17.5 41t45.5 16t45.5 -16t17.5 -41z" />
    <glyph glyph-name="slash" unicode="/" horiz-adv-x="350" 
d="M359 701l-287 -719h-83l287 719h83z" />
    <glyph glyph-name="zero" unicode="0" 
d="M513 342q0 -142 -48 -234q-61 -119 -190 -119t-190 119q-48 92 -48 234q0 144 47 235q60 118 191 118t191 -118q47 -91 47 -235zM412 342q0 268 -137 268t-137 -268t137 -268t137 268z" />
    <glyph glyph-name="one" unicode="1" 
d="M355 0h-96v597l-130 -66l-35 74l182 86h79v-691z" />
    <glyph glyph-name="two" unicode="2" 
d="M492 0h-428q-9 26 -9 55q0 89 84 180q77 71 155 142q84 78 84 136q0 48 -31 73.5t-80 25.5q-71 0 -163 -46l-37 73q106 56 212 56q89 0 145 -44q61 -48 61 -135q0 -73 -83 -159q-78 -69 -156 -139q-83 -79 -83 -133h329v-85z" />
    <glyph glyph-name="three" unicode="3" 
d="M487 193q0 -99 -72 -154q-65 -50 -170 -50q-103 0 -199 46q20 52 30 76q93 -37 162 -37q61 0 102 28q48 32 48 91q0 113 -161 113h-63v83q202 0 202 124q0 97 -119 97q-79 0 -158 -48q-9 16 -38 74q120 59 209 59t145 -46q60 -49 60 -135q0 -55 -31 -98.5t-86 -58.5v-2
q58 -11 97 -51q42 -45 42 -111z" />
    <glyph glyph-name="four" unicode="4" 
d="M500 166l-77 -3v-163h-96v162h-305q-9 22 -9 39q0 26 24 64l272 426h114v-448l77 -3v-74zM327 244v332h-2q-2 -7 -14 -27l-185 -305h201z" />
    <glyph glyph-name="five" unicode="5" 
d="M490 211q0 -103 -68.5 -162.5t-174.5 -59.5q-102 0 -191 49l32 75q80 -39 156 -39q63 0 104 35.5t41 97.5q0 64 -43 100t-109 36q-46 0 -131 -25q-15 3 -27 18.5t-11 40.5q1 -1 1 17l33 290h356v-84h-268l-21 -186q47 13 94 13q100 0 163.5 -58.5t63.5 -157.5z" />
    <glyph glyph-name="six" unicode="6" 
d="M502 220q0 -101 -62.5 -166t-162.5 -65q-109 0 -171.5 70t-62.5 180q0 274 327 466l49 -73q-175 -95 -241 -238q48 42 115 42q90 0 149.5 -63t59.5 -153zM401 217q0 60 -32 98q-35 40 -94 40q-39 0 -74 -23q-25 -18 -38 -39q-8 -11 -11 -18q-5 -17 -5 -50q0 -64 31 -106
q35 -47 97 -47q59 0 94 44q32 40 32 101z" />
    <glyph glyph-name="seven" unicode="7" 
d="M515 654q0 -23 -29 -68q-191 -293 -238 -586h-103q55 327 244 599v1h-337v84h457q6 -20 6 -30z" />
    <glyph glyph-name="eight" unicode="8" 
d="M509 188q0 -94 -72 -149q-66 -50 -163 -50t-163 50q-72 55 -72 149q0 59 33.5 105.5t89.5 63.5l-1 1q-46 17 -72.5 58t-26.5 91q0 88 63 140q59 48 149 48t149 -48q63 -52 63 -140q0 -50 -26.5 -91t-72.5 -58v-1q56 -17 89 -64t33 -105zM389 502q0 53 -31.5 82.5
t-83.5 29.5t-83.5 -29.5t-31.5 -82.5q0 -79 82 -106q24 -8 33 -8q11 0 32 7q83 27 83 107zM411 190q0 94 -100 120q-23 6 -37 6t-37 -6q-100 -26 -100 -120q0 -59 40 -91q37 -29 97 -29t98.5 31t38.5 89z" />
    <glyph glyph-name="nine" unicode="9" 
d="M495 445q0 -274 -327 -466l-49 73q175 95 241 238q-48 -42 -115 -42q-90 0 -149.5 63t-59.5 153q0 101 62.5 166t162.5 65q109 0 173 -71q61 -69 61 -179zM391 459q0 64 -31 106q-35 47 -97 47q-59 0 -94 -44q-32 -40 -32 -101q0 -60 33.5 -99t92.5 -39q39 0 74 24
q25 17 38 38q8 11 11 18q5 17 5 50z" />
    <glyph glyph-name="colon" unicode=":" horiz-adv-x="250" 
d="M187 424q0 -25 -17 -41t-45 -16t-45.5 16t-17.5 41t17.5 40.5t45.5 15.5t45 -15.5t17 -40.5zM187 47q0 -25 -17.5 -41t-45.5 -16t-45.5 16t-17.5 41t17.5 41t45.5 16t45.5 -16t17.5 -41z" />
    <glyph glyph-name="semicolon" unicode=";" horiz-adv-x="250" 
d="M176 423q0 -25 -17.5 -41t-45.5 -16t-45.5 16t-17.5 41t17.5 41t45.5 16t45.5 -16t17.5 -41zM176 54q0 -10 -4 -19l-76 -166l-51 16l30 181q6 37 48 37q22 0 37.5 -14t15.5 -35z" />
    <glyph glyph-name="less" unicode="&#x3c;" horiz-adv-x="588" 
d="M544 432l-376 -151l1 -2l374 -150v-88l-499 204v71l500 203v-87z" />
    <glyph glyph-name="equal" unicode="=" horiz-adv-x="588" 
d="M546 318h-501v83h501v-83zM546 103h-501v83h501v-83z" />
    <glyph glyph-name="greater" unicode="&#x3e;" horiz-adv-x="588" 
d="M544 245l-499 -204v88l375 150l-1 2l-375 151v87l500 -203v-71z" />
    <glyph glyph-name="question" unicode="?" horiz-adv-x="495" 
d="M434 512q0 -56 -30 -102q-21 -31 -67.5 -72t-54.5 -50q-23 -28 -25 -66v-16h-91q-2 10 -2 29q0 54 44 103q41 38 82 77q44 47 44 99q0 46 -32 72t-79 26q-52 0 -135 -36l-35 75q95 44 172 44q91 0 148 -45q61 -49 61 -138zM272 47q0 -25 -18 -40.5t-44 -15.5t-44 15.5
t-18 40.5t18 40.5t44 15.5t44 -15.5t18 -40.5z" />
    <glyph glyph-name="at" unicode="@" horiz-adv-x="791" 
d="M732 399q0 -66 -26 -124q-29 -64 -81 -97q-38 -24 -85 -24q-64 0 -78 47q-55 -47 -119 -47t-103 39t-39 103q0 99 75 168t174 69q59 0 127 -25q-5 -12 -17 -55q-12 -54 -36 -176q-2 -10 -2 -19q0 -34 27 -34q24 0 45 15q32 23 49 71q15 41 15 85q0 103 -65 167.5
t-169 64.5q-131 0 -212.5 -92.5t-81.5 -225.5q0 -108 61 -178q63 -73 170 -73q76 0 149 31l29 -60q-81 -40 -183 -40q-137 0 -221.5 89.5t-84.5 227.5q0 164 107.5 276.5t270.5 112.5q132 0 218 -82t86 -214zM487 461q-16 4 -37 4q-69 0 -115.5 -50t-46.5 -120
q0 -31 19.5 -50.5t50.5 -19.5q44 0 88 37q14 77 36 181q2 6 5 18z" />
    <glyph glyph-name="A" unicode="A" horiz-adv-x="662" 
d="M652 0h-106l-73 187h-289l-72 -187h-101l279 684h93zM442 270l-111 291h-2q-1 -4 -6 -20l-104 -271h223z" />
    <glyph glyph-name="B" unicode="B" horiz-adv-x="557" 
d="M517 186q0 -108 -86 -157q-69 -40 -185 -40q-85 0 -165 17v671q87 18 165 18q245 0 245 -189q0 -52 -29 -92.5t-78 -57.5v-2q63 -15 98 -59t35 -109zM390 504q0 108 -139 108q-36 0 -74 -8v-211h74q139 0 139 111zM416 190q0 118 -162 118h-77v-228q35 -6 71 -6
q168 0 168 116z" />
    <glyph glyph-name="C" unicode="C" horiz-adv-x="600" 
d="M574 645l-36 -71q-77 37 -148 37q-111 0 -178 -79q-63 -75 -63 -188t64 -189q69 -81 181 -81q66 0 138 29l30 -75q-87 -39 -177 -39q-150 0 -245 105q-92 102 -92 253q0 152 93.5 249.5t244.5 97.5q90 0 188 -49z" />
    <glyph glyph-name="D" unicode="D" horiz-adv-x="678" 
d="M630 359q0 -179 -100 -274.5t-280 -95.5q-85 0 -169 15v671q80 20 191 20q169 0 263.5 -90.5t94.5 -245.5zM529 357q0 121 -65 187t-188 66q-58 0 -99 -9v-519q39 -8 87 -8q265 0 265 283z" />
    <glyph glyph-name="E" unicode="E" horiz-adv-x="500" 
d="M460 0h-379v684h370v-85h-274v-200h229v-85h-229v-229h283v-85z" />
    <glyph glyph-name="F" unicode="F" horiz-adv-x="471" 
d="M451 599h-274v-200h229v-85h-229v-314h-96v684h370v-85z" />
    <glyph glyph-name="G" unicode="G" horiz-adv-x="690" 
d="M614 42q-97 -53 -214 -53q-155 0 -253.5 98t-98.5 254q0 160 92.5 257t251.5 97q101 0 203 -43l-32 -79q-87 37 -172 37q-117 0 -181 -74q-61 -69 -61 -188q0 -123 70 -198.5t183 -75.5q63 0 121 24q-5 22 -5 40v223h96v-319z" />
    <glyph glyph-name="H" unicode="H" horiz-adv-x="685" 
d="M604 0h-96v315h-331v-315h-96v684h96v-284h331v284h96v-684z" />
    <glyph glyph-name="I" unicode="I" horiz-adv-x="258" 
d="M177 0h-96v684h96v-684z" />
    <glyph glyph-name="J" unicode="J" horiz-adv-x="270" 
d="M189 87q0 -71 -8 -109q-11 -58 -45.5 -101.5t-72.5 -69.5l-59 61q49 43 69 87t20 108v621h96v-597z" />
    <glyph glyph-name="K" unicode="K" horiz-adv-x="594" 
d="M580 0h-126l-226 261q-30 34 -49 44h-2v-305h-96v684h96v-290l259 290h124l-305 -335q21 -5 46 -33z" />
    <glyph glyph-name="L" unicode="L" horiz-adv-x="472" 
d="M460 0h-379v684h96v-599h283v-85z" />
    <glyph glyph-name="M" unicode="M" horiz-adv-x="836" 
d="M755 0h-96v593h-2q-1 -7 -11 -30l-207 -410q-51 0 -86 70l-168 340q-6 11 -11 30h-2v-593h-96v684h146l179 -365q3 -6 14 -31h3q3 10 12 32l180 364h145v-684z" />
    <glyph glyph-name="N" unicode="N" horiz-adv-x="724" 
d="M648 6q-27 -11 -55 -11q-78 0 -122 75l-283 482q-5 9 -13 30h-3v-582h-96v684h143l315 -547q5 -9 16 -31h2v578h96v-678z" />
    <glyph glyph-name="O" unicode="O" horiz-adv-x="713" 
d="M665 341q0 -158 -82.5 -255t-225.5 -97t-226 97t-83 255q0 160 82 257t227 97q144 0 228 -99q80 -95 80 -255zM564 341q0 120 -51 192q-54 77 -156 77t-157 -77q-51 -72 -51 -192q0 -111 47 -183q55 -84 161 -84t161 84q46 72 46 183z" />
    <glyph glyph-name="P" unicode="P" horiz-adv-x="540" 
d="M492 488q0 -102 -71 -160q-67 -55 -174 -55q-35 0 -70 6v-279h-96v677q76 18 168 18q106 0 171 -49q72 -55 72 -158zM391 490q0 120 -143 120q-31 0 -71 -7v-240q40 -6 68 -6q67 0 106.5 33.5t39.5 99.5z" />
    <glyph glyph-name="Q" unicode="Q" horiz-adv-x="725" 
d="M670 -124h-131q-29 33 -59 67q-41 45 -68 51q-30 -5 -55 -5q-148 0 -232 104q-77 97 -77 248q0 154 76 249q83 105 233 105t232 -105q76 -95 76 -249q0 -101 -35 -179q-41 -91 -121 -135q25 -6 50 -33zM564 341q0 113 -46 184q-54 85 -161 85t-162 -85q-46 -71 -46 -184
q0 -111 47 -183q55 -84 161 -84t161 84q46 72 46 183z" />
    <glyph glyph-name="R" unicode="R" horiz-adv-x="566" 
d="M554 0h-113l-138 236q-23 40 -42 54q-8 -1 -25 -1q-26 0 -59 5v-294h-96v676q86 19 163 19q109 0 173 -43q75 -52 75 -158q0 -69 -41 -119t-106 -65v-2q25 -1 57 -54zM393 496q0 115 -146 115q-38 0 -70 -7v-231q35 -6 67 -6q66 0 107.5 32.5t41.5 96.5z" />
    <glyph glyph-name="S" unicode="S" horiz-adv-x="514" 
d="M468 186q0 -95 -76 -149q-67 -48 -166 -48q-95 0 -181 33l24 82q85 -30 158 -30q57 0 94 23q44 28 44 81q0 60 -82 105l-152 80q-82 58 -82 151q0 89 70 138q62 43 155 43q73 0 164 -32l-29 -79q-72 26 -135 26q-123 0 -123 -94q0 -52 82 -94q143 -73 153 -80
q82 -60 82 -156z" />
    <glyph glyph-name="T" unicode="T" horiz-adv-x="528" 
d="M519 599h-214v-599h-96v599h-200v85h510v-85z" />
    <glyph glyph-name="U" unicode="U" horiz-adv-x="683" 
d="M607 229q0 -118 -74 -181q-70 -59 -189 -59t-188 59q-75 62 -75 181v455h96v-446q0 -164 167 -164t167 164v446h96v-455z" />
    <glyph glyph-name="V" unicode="V" horiz-adv-x="656" 
d="M645 684l-275 -694q-84 0 -119 88l-240 606h106l216 -556h2q3 13 14 44l193 512h103z" />
    <glyph glyph-name="W" unicode="W" horiz-adv-x="970" 
d="M960 684l-204 -694q-104 0 -131 92l-132 451q-2 6 -5 21h-1q-2 -8 -5 -22l-162 -542q-98 0 -126 92l-183 602h107l156 -556h2q3 14 11 45l148 511h113l161 -556h3q3 14 10 44l142 512h96z" />
    <glyph glyph-name="X" unicode="X" horiz-adv-x="652" 
d="M642 0h-120l-192 283l-202 -283h-117l260 354l-241 330h118l186 -261l185 261h114l-240 -331z" />
    <glyph glyph-name="Y" unicode="Y" horiz-adv-x="632" 
d="M622 684l-257 -391v-293h-96v292q-14 14 -25 31l-230 361h110l176 -282q5 -6 16 -31q4 8 13 24l182 289h111z" />
    <glyph glyph-name="Z" unicode="Z" horiz-adv-x="587" 
d="M547 611l-379 -526h378v-85h-496q-8 18 -8 36q0 30 27 67l359 496h-368v85h487v-73z" />
    <glyph glyph-name="bracketleft" unicode="[" horiz-adv-x="300" 
d="M227 -139h-182v889h182v-80l-85 1v-730h85v-80z" />
    <glyph glyph-name="backslash" unicode="\" horiz-adv-x="350" 
d="M359 -18h-83l-287 719h83z" />
    <glyph glyph-name="bracketright" unicode="]" horiz-adv-x="300" 
d="M255 -139h-182v80h85v729h-85v80h182v-889z" />
    <glyph glyph-name="asciicircum" unicode="^" horiz-adv-x="588" 
d="M550 267h-104l-151 317l-2 -1l-150 -316h-104l215 424h80z" />
    <glyph glyph-name="underscore" unicode="_" horiz-adv-x="500" 
d="M500 -129h-500v58h500v-58z" />
    <glyph glyph-name="grave" unicode="`" horiz-adv-x="247" 
d="M188 594l-32 -37l-127 85q-11 7 -11 24q0 18 13.5 32.5t31.5 14.5q17 0 26 -10z" />
    <glyph glyph-name="a" unicode="a" horiz-adv-x="516" 
d="M453 26q-115 -37 -199 -37q-95 0 -150 37q-59 39 -59 110q0 74 55 113q39 28 117 44t96 23q42 17 42 49q0 68 -98 68q-57 0 -132 -32l-31 70q85 40 169 40q183 0 183 -160v-261q0 -19 7 -64zM358 84q-2 14 -2 20v157q-19 -15 -100 -33q-54 -12 -77 -26q-34 -21 -34 -59
q0 -76 109 -76q55 0 104 17z" />
    <glyph glyph-name="b" unicode="b" horiz-adv-x="544" 
d="M505 252q0 -115 -72 -189t-187 -74q-90 0 -176 33q5 42 5 60v652h90v-250q51 27 112 27q110 0 171 -76q57 -70 57 -183zM405 254q0 76 -34 124q-39 55 -111 55q-53 0 -95 -29v-304q0 -10 -1 -18q40 -15 83 -15q77 0 120 56q38 51 38 131z" />
    <glyph glyph-name="c" unicode="c" horiz-adv-x="486" 
d="M444 21q-68 -31 -143 -31q-111 0 -185 69q-77 73 -77 191q0 116 69 188.5t182 72.5q77 0 154 -32l-27 -73q-69 27 -122 27q-76 0 -118 -56q-38 -50 -38 -125q0 -83 50 -135q47 -50 117 -50q49 0 112 24z" />
    <glyph glyph-name="d" unicode="d" horiz-adv-x="542" 
d="M477 22q-86 -33 -176 -33q-115 0 -188 74t-73 189q0 113 58 183q62 76 172 76q61 0 112 -27v250h90v-652q0 -18 5 -60zM383 82q-1 8 -1 18v304q-42 29 -95 29q-73 0 -112 -55q-35 -49 -35 -124q0 -79 40 -131q43 -56 120 -56q43 0 83 15z" />
    <glyph glyph-name="e" unicode="e" horiz-adv-x="518" 
d="M476 274q0 -23 -5 -55h-333q4 -69 44 -109q42 -43 112 -43q62 0 119 23l28 -68q-72 -33 -155 -33q-112 0 -179 74t-67 188q0 110 54 181q60 79 166 79q102 0 161 -69q55 -64 55 -168zM381 292q-1 60 -30 99q-32 43 -90 43q-56 0 -88.5 -40.5t-34.5 -101.5h243z" />
    <glyph glyph-name="f" unicode="f" horiz-adv-x="335" 
d="M359 718l-23 -73q-58 24 -95 24q-59 0 -59 -57v-112h136v-76h-136v-424h-90v425l-57 2v70l57 3v118q0 127 140 127q62 0 127 -27z" />
    <glyph glyph-name="g" unicode="g" horiz-adv-x="519" 
d="M494 -81q0 -83 -83 -125q-64 -32 -157 -32q-88 0 -151 28q-83 38 -83 116q0 97 119 133q-24 24 -24 57q0 40 41 68q-104 48 -104 163q0 84 59 136q56 48 142 48q17 0 49.5 -5.5t48.5 -5.5h141v-71q-58 0 -79 9q0 -2 -2 -2q43 -54 43 -109q0 -75 -48.5 -124t-124.5 -57
q-18 -2 -53 -2q-32 -15 -32 -35q0 -32 77 -45q115 -19 144 -32q77 -33 77 -113zM366 326q0 50 -31.5 79t-81.5 29t-81.5 -29t-31.5 -79t31 -78.5t82 -28.5t82 28.5t31 78.5zM400 -86q0 45 -84 65q-62 11 -123 21q-87 -28 -87 -89q0 -42 56 -62q40 -14 92 -14t91 15
q55 20 55 64z" />
    <glyph glyph-name="h" unicode="h" horiz-adv-x="551" 
d="M486 0h-91v323q0 110 -101 110q-66 0 -130 -40v-393h-90v734h90v-258q77 35 150 35q83 0 127.5 -44.5t44.5 -127.5v-339z" />
    <glyph glyph-name="i" unicode="i" horiz-adv-x="258" 
d="M190 671q0 -24 -17 -39.5t-42 -15.5q-24 0 -40.5 15.5t-16.5 39.5t16.5 40t40.5 16t41.5 -16t17.5 -40zM178 0h-90v500h90v-500z" />
    <glyph glyph-name="j" unicode="j" horiz-adv-x="258" 
d="M190 671q0 -24 -17 -39.5t-42 -15.5q-24 0 -40.5 15.5t-16.5 39.5t16.5 40t40.5 16t41.5 -16t17.5 -40zM178 -1q0 -123 -48 -186q-24 -32 -62 -58l-56 56q45 41 60.5 75.5t15.5 93.5v520h90v-501z" />
    <glyph glyph-name="k" unicode="k" horiz-adv-x="510" 
d="M508 0h-115l-186 209q-19 22 -43 38v-247h-90v734h90v-417l190 183h125l-244 -220q24 -8 42 -27z" />
    <glyph glyph-name="l" unicode="l" horiz-adv-x="273" 
d="M251 4q-45 -15 -79 -15q-98 0 -98 96v649h90v-632q0 -36 30 -36q18 0 36 8z" />
    <glyph glyph-name="m" unicode="m" horiz-adv-x="821" 
d="M756 0h-90v322q0 111 -102 111q-47 0 -113 -31q10 -27 10 -69v-333h-90v323q0 110 -102 110q-44 0 -107 -26q2 -18 2 -26v-381h-90v396q0 20 -6 65q129 50 211 50q94 0 139 -46q90 46 167 46q81 0 126 -44t45 -126v-341z" />
    <glyph glyph-name="n" unicode="n" 
d="M487 0h-90v322q0 111 -113 111q-57 0 -119 -26q2 -17 2 -25v-382h-90v393q0 20 -7 67q133 51 216 51q201 0 201 -172v-339z" />
    <glyph glyph-name="o" unicode="o" horiz-adv-x="564" 
d="M525 250q0 -115 -67.5 -188t-175.5 -73t-175 73t-67 188t67 188t175 73t175.5 -73t67.5 -188zM425 250q0 79 -35 129q-38 54 -107 54t-107 -54q-36 -50 -36 -129t36 -129q38 -54 107 -54t107 54q35 50 35 129z" />
    <glyph glyph-name="p" unicode="p" horiz-adv-x="548" 
d="M509 251q0 -114 -69.5 -188t-177.5 -74q-44 0 -92 17v-231h-90v637q0 20 -6 63q96 36 181 36q118 0 186 -72.5t68 -187.5zM409 251q0 79 -35 127q-41 55 -119 55q-44 0 -88 -17q0 -1 1.5 -9.5t1.5 -13.5v-310q33 -16 77 -16q162 0 162 184z" />
    <glyph glyph-name="q" unicode="q" horiz-adv-x="544" 
d="M476 475q-6 -43 -6 -63v-637h-91v231q-46 -17 -91 -17q-108 0 -178 74.5t-70 187.5q0 115 68 187.5t186 72.5q86 0 182 -36zM382 417q-42 16 -88 16q-78 0 -118 -55q-35 -48 -35 -127q0 -76 42 -127q45 -56 119 -56q44 0 77 16v310q0 5 1.5 13.5t1.5 9.5z" />
    <glyph glyph-name="r" unicode="r" horiz-adv-x="350" 
d="M349 502l-27 -79q-28 6 -58 6q-49 0 -97 -17q1 -14 1 -21v-391h-90v389q0 21 -8 70q121 52 206 52q37 0 73 -9z" />
    <glyph glyph-name="s" unicode="s" horiz-adv-x="414" 
d="M375 133q0 -72 -60 -110q-52 -33 -127 -33t-150 29l26 72q65 -26 118 -26q93 0 93 69q0 42 -59 73q-54 29 -109 57q-59 42 -59 108q0 68 56 105q48 33 116 33t129 -26l-24 -72q-60 22 -106 22q-79 0 -79 -61q0 -38 61 -67q103 -48 113 -56q61 -43 61 -117z" />
    <glyph glyph-name="t" unicode="t" horiz-adv-x="363" 
d="M356 11q-73 -25 -122 -25q-139 0 -139 129v307l-57 3v71l57 3v138h90v-137h145v-78h-145v-303q0 -53 58 -53q37 0 89 19z" />
    <glyph glyph-name="u" unicode="u" 
d="M485 40q-133 -51 -216 -51q-201 0 -201 172v339h90v-322q0 -111 113 -111q57 0 119 26q-2 17 -2 25v382h90v-393q0 -20 7 -67z" />
    <glyph glyph-name="v" unicode="v" horiz-adv-x="516" 
d="M506 500l-208 -509q-80 0 -110 72l-175 437h100q24 -66 145 -389h2q3 10 9 27l138 362h99z" />
    <glyph glyph-name="w" unicode="w" horiz-adv-x="813" 
d="M803 500l-180 -509q-86 0 -113 81l-104 310l-129 -391q-86 0 -115 81l-152 428h102l125 -389h2q2 9 7 27l119 362h89l120 -365q1 -4 7 -24h2q1 6 6 24l118 365h96z" />
    <glyph glyph-name="x" unicode="x" horiz-adv-x="510" 
d="M496 0h-112l-131 192l-132 -192h-107l185 260l-175 240h110l126 -181l120 181h106l-171 -250z" />
    <glyph glyph-name="y" unicode="y" horiz-adv-x="505" 
d="M503 500l-178 -521q-27 -78 -73 -134q-53 -64 -118 -82l-43 67q107 33 154 163q-32 7 -49 50l-186 457h102l157 -415h1l137 415h96z" />
    <glyph glyph-name="z" unicode="z" horiz-adv-x="458" 
d="M424 0h-381q-7 18 -7 34q0 28 23 60l239 328h-257v78h365v-73l-252 -348h270v-79z" />
    <glyph glyph-name="braceleft" unicode="{" horiz-adv-x="300" 
d="M268 -62l-19 -79q-70 11 -101 44q-34 35 -34 104v202q0 26 -18 42t-44 16v79q26 0 44 15.5t18 40.5v203q0 69 34 104q31 32 101 43l18 -76q-62 -9 -62 -71v-203q0 -34 -20.5 -61.5t-52.5 -34.5q32 -7 52.5 -35t20.5 -62v-202q0 -62 63 -69z" />
    <glyph glyph-name="bar" unicode="|" horiz-adv-x="217" 
d="M154 -250h-91v1000h91v-1000z" />
    <glyph glyph-name="braceright" unicode="}" horiz-adv-x="300" 
d="M249 267q-26 0 -44 -16t-18 -42v-202q0 -69 -32 -103t-102 -45l-19 79q62 7 62 69v202q0 34 20.5 62t52.5 35q-32 7 -52.5 34.5t-20.5 61.5v203q0 62 -61 71l18 76q70 -11 101 -43q33 -35 33 -104v-203q0 -25 18 -40.5t44 -15.5v-79z" />
    <glyph glyph-name="asciitilde" unicode="~" horiz-adv-x="588" 
d="M536 276q-18 -43 -55.5 -69.5t-84.5 -26.5q-49 0 -113.5 34.5t-90.5 34.5q-55 0 -76 -54l-63 35q18 43 55 69t84 26q49 0 113.5 -34t90.5 -34q56 0 77 53z" />
    <glyph glyph-name="nonbreakingspace" unicode="&#xa0;" horiz-adv-x="125" 
 />
    <glyph glyph-name="exclamdown" unicode="&#xa1;" horiz-adv-x="390" 
d="M261 455q0 -25 -17 -41t-45 -16t-45.5 16t-17.5 41t17.5 40.5t45.5 15.5t45 -15.5t17 -40.5zM252 -172h-107l6 465h96z" />
    <glyph glyph-name="cent" unicode="&#xa2;" 
d="M477 21q-63 -28 -124 -31v-74h-83v81q-87 19 -140 85q-57 68 -57 168q0 102 53 171t144 85v67h83v-64q66 -5 124 -30l-27 -74q-69 27 -121 27q-76 0 -119 -55q-39 -50 -39 -125q0 -83 49 -133.5t119 -50.5q49 0 112 24z" />
    <glyph glyph-name="sterling" unicode="&#xa3;" 
d="M501 655l-41 -72q-77 29 -126 29q-45 0 -76 -23q-37 -26 -37 -75v-112h156v-83h-156v-67q0 -99 -43 -168l1 -1h314v-83h-422q-10 22 -10 39q0 20 12 41l24 42q27 51 27 142v55l-61 3v76l61 3v113q0 89 61 137q56 44 147 44q74 0 169 -40z" />
    <glyph glyph-name="currency" unicode="&#xa4;" 
d="M531 655l-38 -72q-55 28 -120 28q-78 0 -131 -49q-47 -45 -68 -121h232l-17 -71h-228v-13q-1 -11 -1 -13t1 -16.5t1 -16.5h244l-17 -71h-212q50 -167 206 -167q58 0 112 26l34 -71q-69 -39 -151 -39q-117 0 -198 72q-77 66 -105 179l-75 2v68l63 1q-1 11 -1 33q0 5 1 13
v13l-63 2v67l72 2q26 114 102 182q80 71 199 71q86 0 158 -39z" />
    <glyph glyph-name="yen" unicode="&#xa5;" 
d="M547 684l-195 -336h80v-62h-116v-62h116v-63h-116v-161h-96v161h-116v63h116v62h-116v62h75q-82 147 -193 336h114l145 -272q7 -11 21 -41q2 4 7 12t7 12q3 8 14 29l143 260h110z" />
    <glyph glyph-name="brokenbar" unicode="&#xa6;" horiz-adv-x="217" 
d="M154 320h-91v341h91v-341zM154 -171h-91v340h91v-340z" />
    <glyph glyph-name="section" unicode="&#xa7;" 
d="M485 243q0 -78 -68 -120q21 -36 21 -79q0 -86 -66 -134q-59 -42 -148 -42q-75 0 -154 27l29 78q75 -22 126 -22q49 0 81 20q37 24 37 71q0 49 -72 89q-67 36 -134 73q-72 52 -72 130q0 75 78 112q-31 37 -31 87q0 79 63 123q55 39 138 39q62 0 147 -30l-31 -77
q-67 23 -119 23q-42 0 -70 -18q-34 -21 -34 -61q0 -42 72 -81q124 -66 135 -74q72 -54 72 -134zM390 241q0 37 -39 68q-24 20 -78 46q-26 12 -72 36q-43 -19 -43 -58q0 -33 41 -62q16 -11 71 -38q62 -31 93 -54q27 23 27 62z" />
    <glyph glyph-name="dieresis" unicode="&#xa8;" horiz-adv-x="247" 
d="M264 635q0 -21 -14.5 -34.5t-37.5 -13.5t-37.5 13.5t-14.5 34.5t14.5 34.5t37.5 13.5t37.5 -13.5t14.5 -34.5zM86 635q0 -21 -14.5 -34.5t-37.5 -13.5t-37.5 13.5t-14.5 34.5t14.5 34.5t37.5 13.5t37.5 -13.5t14.5 -34.5z" />
    <glyph glyph-name="copyright" unicode="&#xa9;" horiz-adv-x="785" 
d="M751 342q0 -147 -105 -251t-253 -104t-253.5 104t-105.5 251t105.5 251.5t253.5 104.5t253 -104t105 -252zM676 342q0 118 -84 204t-200 86t-200 -86t-84 -204t84 -204t200 -86t200 86t84 204zM514 166q-54 -26 -105 -26q-89 0 -145.5 56.5t-56.5 145.5t52 146.5
t140 57.5q55 0 114 -27l-24 -58q-53 22 -91 22q-54 0 -85 -41q-29 -37 -29 -93q0 -63 36 -103q37 -43 98 -43q39 0 78 18z" />
    <glyph glyph-name="ordfeminine" unicode="&#xaa;" horiz-adv-x="336" 
d="M295 404q-68 -21 -128 -21q-53 0 -89 19q-45 24 -45 72q0 52 48 76q19 10 90 25q48 10 48 30q0 28 -51 28q-42 0 -83 -18l-25 55q55 25 119 25q112 0 112 -97v-156q0 -14 4 -38zM295 281h-251v55h251v-55zM219 449v87q-8 -8 -62 -21q-45 -11 -45 -36q0 -37 56 -37
q21 0 51 7z" />
    <glyph glyph-name="guillemotleft" unicode="&#xab;" horiz-adv-x="500" 
d="M462 456l-139 -200l138 -201h-88l-148 201l148 200h89zM275 55h-89l-148 201l149 200h88l-139 -200z" />
    <glyph glyph-name="logicalnot" unicode="&#xac;" horiz-adv-x="588" 
d="M558 118l-97 -1v198h-431v85h528v-282z" />
    <glyph glyph-name="minus" unicode="&#xad;" horiz-adv-x="588" 
d="M544 208h-499v87h499v-87z" />
    <glyph glyph-name="minus" unicode="&#x2212;" horiz-adv-x="588" 
d="M544 208h-499v87h499v-87z" />
    <glyph glyph-name="registered" unicode="&#xae;" horiz-adv-x="785" 
d="M751 342q0 -147 -105.5 -251t-253.5 -104t-253 104t-105 251q0 148 105 252t253 104t253.5 -104.5t105.5 -251.5zM676 342q0 117 -83.5 203.5t-200.5 86.5t-200.5 -86.5t-83.5 -203.5t83.5 -203.5t200.5 -86.5t200.5 86.5t83.5 203.5zM562 148h-85l-80 132q-5 10 -19 26
h-13q-16 0 -25 1v-159h-72v389q58 12 102 12q155 0 155 -121q0 -39 -25 -69.5t-60 -36.5v-1q14 -1 33 -31zM450 430q0 57 -76 57q-16 0 -34 -3v-119q11 -2 32 -2q33 0 55.5 17.5t22.5 49.5z" />
    <glyph glyph-name="macron" unicode="&#xaf;" horiz-adv-x="247" 
d="M277 596h-311v68h311v-68z" />
    <glyph glyph-name="macron" unicode="&#x2c9;" horiz-adv-x="247" 
d="M277 596h-311v68h311v-68z" />
    <glyph glyph-name="degree" unicode="&#xb0;" horiz-adv-x="415" 
d="M381 520q0 -72 -51 -123t-123 -51t-122.5 51t-50.5 123t50.5 123t122.5 51t123 -51t51 -123zM303 520q0 40 -28.5 69.5t-67.5 29.5t-67 -29.5t-28 -69.5t28 -69.5t67 -29.5t67.5 29.5t28.5 69.5z" />
    <glyph glyph-name="plusminus" unicode="&#xb1;" horiz-adv-x="588" 
d="M544 275h-208v-144l-83 -1v145h-208v83h208v142h83v-142h208v-83zM544 0h-499v82h499v-82z" />
    <glyph glyph-name="twosuperior" unicode="&#xb2;" horiz-adv-x="353" 
d="M319 270h-277q-6 20 -6 40q0 54 51 108q46 41 93 83q51 44 51 76q0 51 -61 51q-42 0 -102 -28l-28 57q69 36 145 36q56 0 92 -27q40 -30 40 -84q0 -43 -49 -95q-3 -2 -93 -82q-50 -44 -51 -70h195v-65z" />
    <glyph glyph-name="threesuperior" unicode="&#xb3;" horiz-adv-x="353" 
d="M323 392q0 -61 -48 -95q-42 -30 -105 -30q-72 0 -138 30q4 10 12 29.5t12 29.5q63 -25 105 -25q34 0 58.5 16.5t24.5 47.5q0 44 -55 56q-21 5 -90 5v61h33q98 0 98 64q0 50 -63 50q-47 0 -101 -31q-5 10 -15.5 29.5t-16.5 28.5q83 39 142 39q56 0 93 -28q41 -31 41 -85
q0 -31 -20 -58.5t-49 -34.5v0q37 -8 59.5 -35t22.5 -64z" />
    <glyph glyph-name="acute" unicode="&#xb4;" horiz-adv-x="247" 
d="M230 671q0 -17 -16 -28l-122 -83l-32 37l99 109q9 10 26 10q18 0 31.5 -14t13.5 -31z" />
    <glyph glyph-name="mu" unicode="&#xb5;" 
d="M486 35q-130 -46 -216 -46q-66 0 -111 22v-236h-91v725h91v-322q0 -110 113 -110q59 0 119 22q-2 16 -2 25v385h90v-398q0 10 7 -67z" />
    <glyph glyph-name="mu" unicode="&#x3bc;" 
d="M486 35q-130 -46 -216 -46q-66 0 -111 22v-236h-91v725h91v-322q0 -110 113 -110q59 0 119 22q-2 16 -2 25v385h90v-398q0 10 7 -67z" />
    <glyph glyph-name="paragraph" unicode="&#xb6;" horiz-adv-x="627" 
d="M543 -104h-91v708h-95v-708h-90v401q-92 4 -147 53q-59 53 -59 142q0 95 64 146q59 46 157 46h261v-788z" />
    <glyph glyph-name="periodcentered" unicode="&#xb7;" horiz-adv-x="250" 
d="M187 348q0 -25 -17.5 -41t-45.5 -16t-45.5 16t-17.5 41t17.5 41t45.5 16t45.5 -16t17.5 -41z" />
    <glyph glyph-name="periodcentered" unicode="&#x2219;" horiz-adv-x="250" 
d="M187 348q0 -25 -17.5 -41t-45.5 -16t-45.5 16t-17.5 41t17.5 41t45.5 16t45.5 -16t17.5 -41z" />
    <glyph glyph-name="cedilla" unicode="&#xb8;" horiz-adv-x="247" 
d="M223 -99q0 -71 -84 -71q-44 0 -80 21l15 40q37 -21 60 -21q36 0 36 29q0 23 -28 23q-16 0 -58 -11l28 95l42 -1l-14 -46q9 3 19 3q28 0 46 -16.5t18 -44.5z" />
    <glyph glyph-name="onesuperior" unicode="&#xb9;" horiz-adv-x="353" 
d="M226 271h-76v343l-74 -36l-29 60l121 55h58v-422z" />
    <glyph glyph-name="ordmasculine" unicode="&#xba;" horiz-adv-x="371" 
d="M335 539q0 -68 -41.5 -112t-108.5 -44q-68 0 -109 43.5t-41 112.5t41 112.5t109 43.5q67 0 108.5 -44t41.5 -112zM312 281h-251v55h251v-55zM258 538q0 39 -16 66q-19 32 -56 32t-57 -32q-17 -27 -17 -66t17 -65q20 -31 57 -31t56 31q16 26 16 65z" />
    <glyph glyph-name="guillemotright" unicode="&#xbb;" horiz-adv-x="500" 
d="M462 256l-148 -201h-89l139 201l-139 200h88zM275 256l-148 -201h-89l139 201l-139 200h89z" />
    <glyph glyph-name="onequarter" unicode="&#xbc;" horiz-adv-x="820" 
d="M765 92l-47 -1v-91h-76v90h-180q-7 18 -7 31q0 18 15 43l152 257h96v-267l47 -2v-60zM620 712l-402 -712h-73l402 712h73zM215 271h-76v343l-74 -36l-29 60l121 55h58v-422zM642 155v179h-1q-1 -2 -3.5 -6.5t-3.5 -7.5l-88 -165h96z" />
    <glyph glyph-name="onehalf" unicode="&#xbd;" horiz-adv-x="820" 
d="M789 0h-277q-6 20 -6 40q0 54 51 108q46 41 93 83q51 44 51 76q0 51 -61 51q-42 0 -102 -28l-28 57q69 36 145 36q56 0 92 -27q40 -30 40 -84q0 -43 -49 -95q-3 -2 -93 -82q-50 -44 -51 -70h195v-65zM611 712l-401 -712h-74l403 712h72zM212 271h-76v343l-74 -36l-29 60
l121 55h58v-422z" />
    <glyph glyph-name="threequarters" unicode="&#xbe;" horiz-adv-x="820" 
d="M782 92l-47 -1v-91h-76v90h-180q-7 18 -7 31q0 18 15 43l152 257h96v-267l47 -2v-60zM672 712l-402 -712h-73l402 712h73zM318 392q0 -61 -47 -95q-42 -30 -106 -30q-72 0 -137 30q4 10 12 29.5t12 29.5q63 -25 105 -25q33 0 57.5 16.5t24.5 47.5q0 44 -54 56
q-21 5 -90 5v61h33q97 0 97 64q0 50 -63 50q-47 0 -101 -31q-5 10 -15.5 29.5t-15.5 28.5q83 39 142 39q56 0 92 -28q41 -31 41 -85q0 -31 -20 -58.5t-49 -34.5h1q36 -8 58.5 -35t22.5 -64zM659 155v179h-1q-1 -2 -3.5 -6.5t-3.5 -7.5l-88 -165h96z" />
    <glyph glyph-name="questiondown" unicode="&#xbf;" horiz-adv-x="495" 
d="M338 455q0 -25 -18 -40.5t-44 -15.5t-44 15.5t-18 40.5t18 40.5t44 15.5t44 -15.5t18 -40.5zM434 -138q-97 -45 -172 -45q-91 0 -147 44q-62 49 -62 138q0 56 29 101q21 32 68 72t54 49q23 28 25 66q1 20 1 17h90q2 -10 2 -29q0 -54 -44 -102q-40 -39 -81 -78
q-44 -46 -44 -98q0 -46 32 -71.5t79 -25.5q51 0 134 36z" />
    <glyph glyph-name="Agrave" unicode="&#xc0;" horiz-adv-x="662" 
d="M652 0h-106l-73 187h-289l-72 -187h-101l279 684h93zM442 270l-111 291h-2q-1 -4 -6 -20l-104 -271h223zM402 757l-32 -37l-127 85q-11 7 -11 24q0 18 13.5 32.5t31.5 14.5q17 0 26 -10z" />
    <glyph glyph-name="Aacute" unicode="&#xc1;" horiz-adv-x="662" 
d="M652 0h-106l-73 187h-289l-72 -187h-101l279 684h93zM442 270l-111 291h-2q-1 -4 -6 -20l-104 -271h223zM432 831q0 -17 -16 -28l-122 -83l-32 37l99 109q9 10 26 10q18 0 31.5 -14t13.5 -31z" />
    <glyph glyph-name="Acircumflex" unicode="&#xc2;" horiz-adv-x="662" 
d="M652 0h-106l-73 187h-289l-72 -187h-101l279 684h93zM442 270l-111 291h-2q-1 -4 -6 -20l-104 -271h223zM472 753l-33 -36l-110 76l-110 -76l-33 36l104 103q23 23 39 23t39 -23z" />
    <glyph glyph-name="Atilde" unicode="&#xc3;" horiz-adv-x="662" 
d="M652 0h-106l-73 187h-289l-72 -187h-101l279 684h93zM442 270l-111 291h-2q-1 -4 -6 -20l-104 -271h223zM478 824q-24 -80 -91 -80q-32 0 -63 18l-25 12q-20 9 -33 9q-33 0 -41 -36l-50 22q24 80 91 80q33 0 65 -17q1 0 24 -12q19 -10 32 -10q32 0 41 36z" />
    <glyph glyph-name="Adieresis" unicode="&#xc4;" horiz-adv-x="662" 
d="M652 0h-106l-73 187h-289l-72 -187h-101l279 684h93zM442 270l-111 291h-2q-1 -4 -6 -20l-104 -271h223zM472 805q0 -21 -14.5 -34.5t-37.5 -13.5t-37.5 13.5t-14.5 34.5t14.5 34.5t37.5 13.5t37.5 -13.5t14.5 -34.5zM294 805q0 -21 -14.5 -34.5t-37.5 -13.5t-37.5 13.5
t-14.5 34.5t14.5 34.5t37.5 13.5t37.5 -13.5t14.5 -34.5z" />
    <glyph glyph-name="Aring" unicode="&#xc5;" horiz-adv-x="662" 
d="M652 0h-106l-73 187h-289l-72 -187h-101l279 684h93zM442 270l-111 291h-2q-1 -4 -6 -20l-104 -271h223zM420 803q0 -35 -24.5 -59.5t-59.5 -24.5t-59.5 24.5t-24.5 59.5t24.5 60t59.5 25t59.5 -25t24.5 -60zM380 803q0 18 -13 32t-31 14t-31 -14t-13 -32t13 -31.5
t31 -13.5t31 13.5t13 31.5z" />
    <glyph glyph-name="AE" unicode="&#xc6;" horiz-adv-x="881" 
d="M841 0h-379v192h-254l-119 -192h-116l444 684h415v-83h-274v-204h229v-81h-229v-233h283v-83zM462 275v311l-198 -311h198z" />
    <glyph glyph-name="Ccedilla" unicode="&#xc7;" horiz-adv-x="600" 
d="M574 645l-36 -71q-77 37 -148 37q-111 0 -178 -79q-63 -75 -63 -188t64 -189q69 -81 181 -81q66 0 138 29l30 -75q-86 -39 -174 -39l-9 -30q9 3 19 3q28 0 46 -16.5t18 -44.5q0 -71 -84 -71q-44 0 -80 21l15 40q37 -21 60 -21q36 0 36 29q0 23 -28 23q-16 0 -58 -11
l24 80q-135 14 -218 116q-81 99 -81 240q0 152 93.5 249.5t244.5 97.5q90 0 188 -49z" />
    <glyph glyph-name="Egrave" unicode="&#xc8;" horiz-adv-x="500" 
d="M460 0h-379v684h370v-85h-274v-200h229v-85h-229v-229h283v-85zM348 756l-32 -37l-127 85q-11 7 -11 24q0 18 13.5 32.5t31.5 14.5q17 0 26 -10z" />
    <glyph glyph-name="Eacute" unicode="&#xc9;" horiz-adv-x="500" 
d="M377 831q0 -17 -16 -28l-122 -83l-32 37l99 109q9 10 26 10q18 0 31.5 -14t13.5 -31zM460 0h-379v684h370v-85h-274v-200h229v-85h-229v-229h283v-85z" />
    <glyph glyph-name="Ecircumflex" unicode="&#xca;" horiz-adv-x="500" 
d="M460 0h-379v684h370v-85h-274v-200h229v-85h-229v-229h283v-85zM415 753l-33 -36l-110 76l-110 -76l-33 36l104 103q23 23 39 23t39 -23z" />
    <glyph glyph-name="Edieresis" unicode="&#xcb;" horiz-adv-x="500" 
d="M460 0h-379v684h370v-85h-274v-200h229v-85h-229v-229h283v-85zM417 795q0 -21 -14.5 -34.5t-37.5 -13.5t-37.5 13.5t-14.5 34.5t14.5 34.5t37.5 13.5t37.5 -13.5t14.5 -34.5zM239 795q0 -21 -14.5 -34.5t-37.5 -13.5t-37.5 13.5t-14.5 34.5t14.5 34.5t37.5 13.5
t37.5 -13.5t14.5 -34.5z" />
    <glyph glyph-name="Igrave" unicode="&#xcc;" horiz-adv-x="258" 
d="M200 755l-32 -37l-127 85q-11 7 -11 24q0 18 13.5 32.5t31.5 14.5q17 0 26 -10zM177 0h-96v684h96v-684z" />
    <glyph glyph-name="Iacute" unicode="&#xcd;" horiz-adv-x="258" 
d="M231 831q0 -17 -16 -28l-122 -83l-32 37l99 109q9 10 26 10q18 0 31.5 -14t13.5 -31zM177 0h-96v684h96v-684z" />
    <glyph glyph-name="Icircumflex" unicode="&#xce;" horiz-adv-x="258" 
d="M271 753l-33 -36l-110 76l-110 -76l-33 36l104 103q23 23 39 23t39 -23zM177 0h-96v684h96v-684z" />
    <glyph glyph-name="Idieresis" unicode="&#xcf;" horiz-adv-x="258" 
d="M268 795q0 -21 -14.5 -34.5t-37.5 -13.5t-37.5 13.5t-14.5 34.5t14.5 34.5t37.5 13.5t37.5 -13.5t14.5 -34.5zM90 795q0 -21 -14.5 -34.5t-37.5 -13.5t-37.5 13.5t-14.5 34.5t14.5 34.5t37.5 13.5t37.5 -13.5t14.5 -34.5zM177 0h-96v684h96v-684z" />
    <glyph glyph-name="Ntilde" unicode="&#xd1;" horiz-adv-x="724" 
d="M648 6q-27 -11 -55 -11q-78 0 -122 75l-283 482q-5 9 -13 30h-3v-582h-96v684h143l315 -547q5 -9 16 -31h2v578h96v-678zM518 824q-24 -80 -91 -80q-32 0 -63 18l-25 12q-20 9 -33 9q-33 0 -41 -36l-50 22q24 80 91 80q33 0 65 -17q1 0 24 -12q19 -10 32 -10q32 0 41 36z
" />
    <glyph glyph-name="Ograve" unicode="&#xd2;" horiz-adv-x="713" 
d="M665 341q0 -158 -82.5 -255t-225.5 -97t-226 97t-83 255q0 160 82 257t227 97q144 0 228 -99q80 -95 80 -255zM564 341q0 120 -51 192q-54 77 -156 77t-157 -77q-51 -72 -51 -192q0 -111 47 -183q55 -84 161 -84t161 84q46 72 46 183zM428 754l-32 -37l-127 85
q-11 7 -11 24q0 18 13.5 32.5t31.5 14.5q17 0 26 -10z" />
    <glyph glyph-name="Oacute" unicode="&#xd3;" horiz-adv-x="713" 
d="M665 341q0 -158 -82.5 -255t-225.5 -97t-226 97t-83 255q0 160 82 257t227 97q144 0 228 -99q80 -95 80 -255zM564 341q0 120 -51 192q-54 77 -156 77t-157 -77q-51 -72 -51 -192q0 -111 47 -183q55 -84 161 -84t161 84q46 72 46 183zM460 831q0 -17 -16 -28l-122 -83
l-32 37l99 109q9 10 26 10q18 0 31.5 -14t13.5 -31z" />
    <glyph glyph-name="Ocircumflex" unicode="&#xd4;" horiz-adv-x="713" 
d="M665 341q0 -158 -82.5 -255t-225.5 -97t-226 97t-83 255q0 160 82 257t227 97q144 0 228 -99q80 -95 80 -255zM564 341q0 120 -51 192q-54 77 -156 77t-157 -77q-51 -72 -51 -192q0 -111 47 -183q55 -84 161 -84t161 84q46 72 46 183zM500 753l-33 -36l-110 76l-110 -76
l-33 36l104 103q23 23 39 23t39 -23z" />
    <glyph glyph-name="Otilde" unicode="&#xd5;" horiz-adv-x="713" 
d="M665 341q0 -158 -82.5 -255t-225.5 -97t-226 97t-83 255q0 160 82 257t227 97q144 0 228 -99q80 -95 80 -255zM564 341q0 120 -51 192q-54 77 -156 77t-157 -77q-51 -72 -51 -192q0 -111 47 -183q55 -84 161 -84t161 84q46 72 46 183zM513 824q-24 -80 -91 -80
q-32 0 -63 18l-25 12q-20 9 -33 9q-33 0 -41 -36l-50 22q24 80 91 80q33 0 65 -17q1 0 24 -12q19 -10 32 -10q32 0 41 36z" />
    <glyph glyph-name="Odieresis" unicode="&#xd6;" horiz-adv-x="713" 
d="M665 341q0 -158 -82.5 -255t-225.5 -97t-226 97t-83 255q0 160 82 257t227 97q144 0 228 -99q80 -95 80 -255zM564 341q0 120 -51 192q-54 77 -156 77t-157 -77q-51 -72 -51 -192q0 -111 47 -183q55 -84 161 -84t161 84q46 72 46 183zM493 795q0 -21 -14.5 -34.5
t-37.5 -13.5t-37.5 13.5t-14.5 34.5t14.5 34.5t37.5 13.5t37.5 -13.5t14.5 -34.5zM315 795q0 -21 -14.5 -34.5t-37.5 -13.5t-37.5 13.5t-14.5 34.5t14.5 34.5t37.5 13.5t37.5 -13.5t14.5 -34.5z" />
    <glyph glyph-name="multiply" unicode="&#xd7;" horiz-adv-x="588" 
d="M524 427l-173 -171l170 -170l-58 -57l-170 169l-169 -169l-59 57l170 170l-170 170l58 58l170 -170l171 171z" />
    <glyph glyph-name="Oslash" unicode="&#xd8;" horiz-adv-x="713" 
d="M683 667l-80 -95q62 -91 62 -231q0 -158 -82.5 -255t-225.5 -97q-111 0 -190 63l-65 -77l-45 37l68 81q-77 95 -77 248q0 160 82 257t227 97q128 0 208 -78l73 87zM504 545q-54 65 -147 65q-102 0 -157 -77q-51 -72 -51 -192q0 -102 40 -172zM564 341q0 88 -28 151
l-310 -369q52 -49 131 -49q106 0 161 84q46 72 46 183z" />
    <glyph glyph-name="Ugrave" unicode="&#xd9;" horiz-adv-x="683" 
d="M607 229q0 -118 -74 -181q-70 -59 -189 -59t-188 59q-75 62 -75 181v455h96v-446q0 -164 167 -164t167 164v446h96v-455zM408 754l-32 -37l-127 85q-11 7 -11 24q0 18 13.5 32.5t31.5 14.5q17 0 26 -10z" />
    <glyph glyph-name="Uacute" unicode="&#xda;" horiz-adv-x="683" 
d="M607 229q0 -118 -74 -181q-70 -59 -189 -59t-188 59q-75 62 -75 181v455h96v-446q0 -164 167 -164t167 164v446h96v-455zM447 831q0 -17 -16 -28l-122 -83l-32 37l99 109q9 10 26 10q18 0 31.5 -14t13.5 -31z" />
    <glyph glyph-name="Ucircumflex" unicode="&#xdb;" horiz-adv-x="683" 
d="M607 229q0 -118 -74 -181q-70 -59 -189 -59t-188 59q-75 62 -75 181v455h96v-446q0 -164 167 -164t167 164v446h96v-455zM485 753l-33 -36l-110 76l-110 -76l-33 36l104 103q23 23 39 23t39 -23z" />
    <glyph glyph-name="Udieresis" unicode="&#xdc;" horiz-adv-x="683" 
d="M607 229q0 -118 -74 -181q-70 -59 -189 -59t-188 59q-75 62 -75 181v455h96v-446q0 -164 167 -164t167 164v446h96v-455zM481 795q0 -21 -14.5 -34.5t-37.5 -13.5t-37.5 13.5t-14.5 34.5t14.5 34.5t37.5 13.5t37.5 -13.5t14.5 -34.5zM303 795q0 -21 -14.5 -34.5
t-37.5 -13.5t-37.5 13.5t-14.5 34.5t14.5 34.5t37.5 13.5t37.5 -13.5t14.5 -34.5z" />
    <glyph glyph-name="germandbls" unicode="&#xdf;" horiz-adv-x="578" 
d="M527 146q0 -76 -55 -118q-49 -39 -127 -39q-60 0 -114 20l24 73q42 -15 79 -15q94 0 94 77q0 40 -42 77q-38 33 -77 66q-42 43 -42 96q0 50 29.5 83t76.5 42q12 21 12 54q0 45 -30 74t-75 29q-63 0 -94 -50q-26 -42 -26 -109v-506h-90v507q0 107 55 171.5t155 64.5
q83 0 138 -51.5t55 -130.5q0 -65 -27 -110q-9 3 -24 3q-28 0 -47.5 -18t-19.5 -46q0 -34 45 -71q41 -35 82 -69q45 -47 45 -104z" />
    <glyph glyph-name="agrave" unicode="&#xe0;" horiz-adv-x="516" 
d="M453 26q-115 -37 -199 -37q-95 0 -150 37q-59 39 -59 110q0 74 55 113q39 28 117 44t96 23q42 17 42 49q0 68 -98 68q-57 0 -132 -32l-31 70q85 40 169 40q183 0 183 -160v-261q0 -19 7 -64zM358 84q-2 14 -2 20v157q-19 -15 -100 -33q-54 -12 -77 -26q-34 -21 -34 -59
q0 -76 109 -76q55 0 104 17zM325 594l-32 -37l-127 85q-11 7 -11 24q0 18 13.5 32.5t31.5 14.5q17 0 26 -10z" />
    <glyph glyph-name="aacute" unicode="&#xe1;" horiz-adv-x="516" 
d="M453 26q-115 -37 -199 -37q-95 0 -150 37q-59 39 -59 110q0 74 55 113q39 28 117 44t96 23q42 17 42 49q0 68 -98 68q-57 0 -132 -32l-31 70q85 40 169 40q183 0 183 -160v-261q0 -19 7 -64zM358 84q-2 14 -2 20v157q-19 -15 -100 -33q-54 -12 -77 -26q-34 -21 -34 -59
q0 -76 109 -76q55 0 104 17zM362 671q0 -17 -16 -28l-122 -83l-32 37l99 109q9 10 26 10q18 0 31.5 -14t13.5 -31z" />
    <glyph glyph-name="acircumflex" unicode="&#xe2;" horiz-adv-x="516" 
d="M453 26q-115 -37 -199 -37q-95 0 -150 37q-59 39 -59 110q0 74 55 113q39 28 117 44t96 23q42 17 42 49q0 68 -98 68q-57 0 -132 -32l-31 70q85 40 169 40q183 0 183 -160v-261q0 -19 7 -64zM358 84q-2 14 -2 20v157q-19 -15 -100 -33q-54 -12 -77 -26q-34 -21 -34 -59
q0 -76 109 -76q55 0 104 17zM406 593l-33 -36l-110 76l-110 -76l-33 36l104 103q23 23 39 23t39 -23z" />
    <glyph glyph-name="atilde" unicode="&#xe3;" horiz-adv-x="516" 
d="M453 26q-115 -37 -199 -37q-95 0 -150 37q-59 39 -59 110q0 74 55 113q39 28 117 44t96 23q42 17 42 49q0 68 -98 68q-57 0 -132 -32l-31 70q85 40 169 40q183 0 183 -160v-261q0 -19 7 -64zM358 84q-2 14 -2 20v157q-19 -15 -100 -33q-54 -12 -77 -26q-34 -21 -34 -59
q0 -76 109 -76q55 0 104 17zM413 664q-24 -80 -91 -80q-32 0 -63 18l-25 12q-20 9 -33 9q-33 0 -41 -36l-50 22q24 80 91 80q33 0 65 -17q1 0 24 -12q19 -10 32 -10q32 0 41 36z" />
    <glyph glyph-name="adieresis" unicode="&#xe4;" horiz-adv-x="516" 
d="M453 26q-115 -37 -199 -37q-95 0 -150 37q-59 39 -59 110q0 74 55 113q39 28 117 44t96 23q42 17 42 49q0 68 -98 68q-57 0 -132 -32l-31 70q85 40 169 40q183 0 183 -160v-261q0 -19 7 -64zM358 84q-2 14 -2 20v157q-19 -15 -100 -33q-54 -12 -77 -26q-34 -21 -34 -59
q0 -76 109 -76q55 0 104 17zM402 635q0 -21 -14.5 -34.5t-37.5 -13.5t-37.5 13.5t-14.5 34.5t14.5 34.5t37.5 13.5t37.5 -13.5t14.5 -34.5zM224 635q0 -21 -14.5 -34.5t-37.5 -13.5t-37.5 13.5t-14.5 34.5t14.5 34.5t37.5 13.5t37.5 -13.5t14.5 -34.5z" />
    <glyph glyph-name="aring" unicode="&#xe5;" horiz-adv-x="516" 
d="M453 26q-115 -37 -199 -37q-95 0 -150 37q-59 39 -59 110q0 74 55 113q39 28 117 44t96 23q42 17 42 49q0 68 -98 68q-57 0 -132 -32l-31 70q85 40 169 40q183 0 183 -160v-261q0 -19 7 -64zM358 84q-2 14 -2 20v157q-19 -15 -100 -33q-54 -12 -77 -26q-34 -21 -34 -59
q0 -76 109 -76q55 0 104 17zM351 633q0 -35 -24.5 -59.5t-59.5 -24.5t-59.5 24.5t-24.5 59.5t24.5 60t59.5 25t59.5 -25t24.5 -60zM311 633q0 18 -13 32t-31 14t-31 -14t-13 -32t13 -31.5t31 -13.5t31 13.5t13 31.5z" />
    <glyph glyph-name="ae" unicode="&#xe6;" horiz-adv-x="829" 
d="M786 255q0 -11 -3 -33h-334q5 -74 45.5 -114t110.5 -40q64 0 119 24q3 -3 27 -69q-75 -34 -154 -34q-91 0 -153 50q-1 -1 -3 -1q-88 -49 -187 -49q-91 0 -147 37q-61 39 -61 110q0 91 80 130q24 11 150 40q80 18 80 59q0 68 -99 68q-68 0 -134 -28l-29 70q83 36 170 36
q111 0 155 -66q58 66 152 66q102 0 161.5 -70t53.5 -186zM693 295q-1 64 -33.5 102t-88.5 38q-50 0 -85 -37q-36 -40 -37 -103h244zM390 100q-35 58 -36 140v19q-23 -14 -99 -31q-52 -12 -76 -27q-33 -21 -33 -58q0 -77 109 -77q69 0 135 34z" />
    <glyph glyph-name="ccedilla" unicode="&#xe7;" horiz-adv-x="486" 
d="M444 21q-63 -29 -140 -31l-9 -31q9 3 19 3q28 0 46 -16.5t18 -44.5q0 -71 -84 -71q-44 0 -80 21l15 40q37 -21 60 -21q36 0 36 29q0 23 -28 23q-16 0 -58 -11l24 81q-97 12 -159 80q-65 71 -65 178q0 116 69 188.5t182 72.5q77 0 154 -32l-27 -73q-69 27 -122 27
q-76 0 -118 -56q-38 -50 -38 -125q0 -83 50 -135q47 -50 117 -50q49 0 112 24z" />
    <glyph glyph-name="egrave" unicode="&#xe8;" horiz-adv-x="518" 
d="M476 274q0 -23 -5 -55h-333q4 -69 44 -109q42 -43 112 -43q62 0 119 23l28 -68q-72 -33 -155 -33q-112 0 -179 74t-67 188q0 110 54 181q60 79 166 79q102 0 161 -69q55 -64 55 -168zM381 292q-1 60 -30 99q-32 43 -90 43q-56 0 -88.5 -40.5t-34.5 -101.5h243zM328 594
l-32 -37l-127 85q-11 7 -11 24q0 18 13.5 32.5t31.5 14.5q17 0 26 -10z" />
    <glyph glyph-name="eacute" unicode="&#xe9;" horiz-adv-x="518" 
d="M476 274q0 -23 -5 -55h-333q4 -69 44 -109q42 -43 112 -43q62 0 119 23l28 -68q-72 -33 -155 -33q-112 0 -179 74t-67 188q0 110 54 181q60 79 166 79q102 0 161 -69q55 -64 55 -168zM381 292q-1 60 -30 99q-32 43 -90 43q-56 0 -88.5 -40.5t-34.5 -101.5h243zM364 671
q0 -17 -16 -28l-122 -83l-32 37l99 109q9 10 26 10q18 0 31.5 -14t13.5 -31z" />
    <glyph glyph-name="ecircumflex" unicode="&#xea;" horiz-adv-x="518" 
d="M476 274q0 -23 -5 -55h-333q4 -69 44 -109q42 -43 112 -43q62 0 119 23l28 -68q-72 -33 -155 -33q-112 0 -179 74t-67 188q0 110 54 181q60 79 166 79q102 0 161 -69q55 -64 55 -168zM381 292q-1 60 -30 99q-32 43 -90 43q-56 0 -88.5 -40.5t-34.5 -101.5h243zM405 593
l-33 -36l-110 76l-110 -76l-33 36l104 103q23 23 39 23t39 -23z" />
    <glyph glyph-name="edieresis" unicode="&#xeb;" horiz-adv-x="518" 
d="M476 274q0 -23 -5 -55h-333q4 -69 44 -109q42 -43 112 -43q62 0 119 23l28 -68q-72 -33 -155 -33q-112 0 -179 74t-67 188q0 110 54 181q60 79 166 79q102 0 161 -69q55 -64 55 -168zM381 292q-1 60 -30 99q-32 43 -90 43q-56 0 -88.5 -40.5t-34.5 -101.5h243zM397 635
q0 -21 -14.5 -34.5t-37.5 -13.5t-37.5 13.5t-14.5 34.5t14.5 34.5t37.5 13.5t37.5 -13.5t14.5 -34.5zM219 635q0 -21 -14.5 -34.5t-37.5 -13.5t-37.5 13.5t-14.5 34.5t14.5 34.5t37.5 13.5t37.5 -13.5t14.5 -34.5z" />
    <glyph glyph-name="igrave" unicode="&#xec;" horiz-adv-x="258" 
d="M199 594l-32 -37l-127 85q-11 7 -11 24q0 18 13.5 32.5t31.5 14.5q17 0 26 -10zM178 0h-90v500h90v-500z" />
    <glyph glyph-name="iacute" unicode="&#xed;" horiz-adv-x="258" 
d="M237 671q0 -17 -16 -28l-122 -83l-32 37l99 109q9 10 26 10q18 0 31.5 -14t13.5 -31zM178 0h-90v500h90v-500z" />
    <glyph glyph-name="icircumflex" unicode="&#xee;" horiz-adv-x="258" 
d="M276 593l-33 -36l-110 76l-110 -76l-33 36l104 103q23 23 39 23t39 -23zM178 0h-90v500h90v-500z" />
    <glyph glyph-name="idieresis" unicode="&#xef;" horiz-adv-x="258" 
d="M270 635q0 -21 -14.5 -34.5t-37.5 -13.5t-37.5 13.5t-14.5 34.5t14.5 34.5t37.5 13.5t37.5 -13.5t14.5 -34.5zM92 635q0 -21 -14.5 -34.5t-37.5 -13.5t-37.5 13.5t-14.5 34.5t14.5 34.5t37.5 13.5t37.5 -13.5t14.5 -34.5zM178 0h-90v500h90v-500z" />
    <glyph glyph-name="ntilde" unicode="&#xf1;" 
d="M487 0h-90v322q0 111 -113 111q-57 0 -119 -26q2 -17 2 -25v-382h-90v393q0 20 -7 67q133 51 216 51q201 0 201 -172v-339zM431 664q-24 -80 -91 -80q-32 0 -63 18l-25 12q-20 9 -33 9q-33 0 -41 -36l-50 22q24 80 91 80q33 0 65 -17q1 0 24 -12q19 -10 32 -10
q32 0 41 36z" />
    <glyph glyph-name="ograve" unicode="&#xf2;" horiz-adv-x="564" 
d="M525 250q0 -115 -67.5 -188t-175.5 -73t-175 73t-67 188t67 188t175 73t175.5 -73t67.5 -188zM425 250q0 79 -35 129q-38 54 -107 54t-107 -54q-36 -50 -36 -129t36 -129q38 -54 107 -54t107 54q35 50 35 129zM344 594l-32 -37l-127 85q-11 7 -11 24q0 18 13.5 32.5
t31.5 14.5q17 0 26 -10z" />
    <glyph glyph-name="oacute" unicode="&#xf3;" horiz-adv-x="564" 
d="M525 250q0 -115 -67.5 -188t-175.5 -73t-175 73t-67 188t67 188t175 73t175.5 -73t67.5 -188zM425 250q0 79 -35 129q-38 54 -107 54t-107 -54q-36 -50 -36 -129t36 -129q38 -54 107 -54t107 54q35 50 35 129zM385 671q0 -17 -16 -28l-122 -83l-32 37l99 109q9 10 26 10
q18 0 31.5 -14t13.5 -31z" />
    <glyph glyph-name="ocircumflex" unicode="&#xf4;" horiz-adv-x="564" 
d="M525 250q0 -115 -67.5 -188t-175.5 -73t-175 73t-67 188t67 188t175 73t175.5 -73t67.5 -188zM425 250q0 79 -35 129q-38 54 -107 54t-107 -54q-36 -50 -36 -129t36 -129q38 -54 107 -54t107 54q35 50 35 129zM428 593l-33 -36l-110 76l-110 -76l-33 36l104 103
q23 23 39 23t39 -23z" />
    <glyph glyph-name="otilde" unicode="&#xf5;" horiz-adv-x="564" 
d="M525 250q0 -115 -67.5 -188t-175.5 -73t-175 73t-67 188t67 188t175 73t175.5 -73t67.5 -188zM425 250q0 79 -35 129q-38 54 -107 54t-107 -54q-36 -50 -36 -129t36 -129q38 -54 107 -54t107 54q35 50 35 129zM428 664q-24 -80 -91 -80q-32 0 -63 18l-25 12q-20 9 -33 9
q-33 0 -41 -36l-50 22q24 80 91 80q33 0 65 -17q1 0 24 -12q19 -10 32 -10q32 0 41 36z" />
    <glyph glyph-name="odieresis" unicode="&#xf6;" horiz-adv-x="564" 
d="M525 250q0 -115 -67.5 -188t-175.5 -73t-175 73t-67 188t67 188t175 73t175.5 -73t67.5 -188zM425 250q0 79 -35 129q-38 54 -107 54t-107 -54q-36 -50 -36 -129t36 -129q38 -54 107 -54t107 54q35 50 35 129zM420 635q0 -21 -14.5 -34.5t-37.5 -13.5t-37.5 13.5
t-14.5 34.5t14.5 34.5t37.5 13.5t37.5 -13.5t14.5 -34.5zM242 635q0 -21 -14.5 -34.5t-37.5 -13.5t-37.5 13.5t-14.5 34.5t14.5 34.5t37.5 13.5t37.5 -13.5t14.5 -34.5z" />
    <glyph glyph-name="divide" unicode="&#xf7;" horiz-adv-x="588" 
d="M357 453q0 -24 -18 -40t-45 -16t-44.5 16t-17.5 40t17.5 40t44.5 16t45 -16t18 -40zM543 210h-499v83h499v-83zM357 48q0 -24 -18 -40t-45 -16t-44.5 16t-17.5 40t17.5 40t44.5 16t45 -16t18 -40z" />
    <glyph glyph-name="oslash" unicode="&#xf8;" horiz-adv-x="564" 
d="M525 250q0 -115 -67.5 -188t-175.5 -73q-89 0 -152 52l-48 -55l-35 30l50 58q-57 71 -57 176q0 115 67 188t175 73q89 0 151 -51l46 53l34 -31l-47 -54q59 -70 59 -178zM377 395q-36 38 -94 38q-69 0 -107 -54q-36 -50 -36 -129q0 -59 21 -103zM425 250q0 61 -21 106
l-217 -249q37 -40 96 -40q69 0 107 54q35 50 35 129z" />
    <glyph glyph-name="ugrave" unicode="&#xf9;" 
d="M485 40q-133 -51 -216 -51q-201 0 -201 172v339h90v-322q0 -111 113 -111q57 0 119 26q-2 17 -2 25v382h90v-393q0 -20 7 -67zM339 594l-32 -37l-127 85q-11 7 -11 24q0 18 13.5 32.5t31.5 14.5q17 0 26 -10z" />
    <glyph glyph-name="uacute" unicode="&#xfa;" 
d="M485 40q-133 -51 -216 -51q-201 0 -201 172v339h90v-322q0 -111 113 -111q57 0 119 26q-2 17 -2 25v382h90v-393q0 -20 7 -67zM380 671q0 -17 -16 -28l-122 -83l-32 37l99 109q9 10 26 10q18 0 31.5 -14t13.5 -31z" />
    <glyph glyph-name="ucircumflex" unicode="&#xfb;" 
d="M485 40q-133 -51 -216 -51q-201 0 -201 172v339h90v-322q0 -111 113 -111q57 0 119 26q-2 17 -2 25v382h90v-393q0 -20 7 -67zM414 593l-33 -36l-110 76l-110 -76l-33 36l104 103q23 23 39 23t39 -23z" />
    <glyph glyph-name="udieresis" unicode="&#xfc;" 
d="M485 40q-133 -51 -216 -51q-201 0 -201 172v339h90v-322q0 -111 113 -111q57 0 119 26q-2 17 -2 25v382h90v-393q0 -20 7 -67zM414 635q0 -21 -14.5 -34.5t-37.5 -13.5t-37.5 13.5t-14.5 34.5t14.5 34.5t37.5 13.5t37.5 -13.5t14.5 -34.5zM236 635q0 -21 -14.5 -34.5
t-37.5 -13.5t-37.5 13.5t-14.5 34.5t14.5 34.5t37.5 13.5t37.5 -13.5t14.5 -34.5z" />
    <glyph glyph-name="ydieresis" unicode="&#xff;" horiz-adv-x="505" 
d="M503 500l-178 -521q-27 -78 -73 -134q-53 -64 -118 -82l-43 67q107 33 154 163q-32 7 -49 50l-186 457h102l157 -415h1l137 415h96zM409 635q0 -21 -14.5 -34.5t-37.5 -13.5t-37.5 13.5t-14.5 34.5t14.5 34.5t37.5 13.5t37.5 -13.5t14.5 -34.5zM231 635
q0 -21 -14.5 -34.5t-37.5 -13.5t-37.5 13.5t-14.5 34.5t14.5 34.5t37.5 13.5t37.5 -13.5t14.5 -34.5z" />
    <glyph glyph-name="dotlessi" unicode="&#x131;" horiz-adv-x="258" 
d="M178 0h-90v500h90v-500z" />
    <glyph glyph-name="OE" unicode="&#x152;" horiz-adv-x="854" 
d="M814 0h-345q-10 0 -47.5 -5.5t-61.5 -5.5q-145 0 -230 99q-82 96 -82 253q0 160 81 255q83 99 231 99q25 0 62.5 -5.5t53.5 -5.5h329v-83h-274v-204h229v-81h-229v-233h283v-83zM434 84v518q-43 9 -76 9q-102 0 -157 -76q-52 -72 -52 -194q0 -113 48 -185q56 -84 163 -84
q35 0 74 12z" />
    <glyph glyph-name="oe" unicode="&#x153;" horiz-adv-x="904" 
d="M861 255q0 -12 -2 -36q12 0 -87 0h-160h-87q5 -71 46 -111t110 -40q64 0 119 24q3 -3 27 -69q-75 -34 -154 -34q-130 0 -198 100q-68 -100 -193 -100q-108 0 -175 73t-67 188t67 188t175 73q123 0 190 -97q61 97 174 97q102 0 161.5 -70t53.5 -186zM767 295
q-1 64 -32.5 102t-87.5 38q-50 0 -85 -37q-36 -40 -37 -103h242zM425 250q0 80 -35 130q-39 55 -108 55t-107 -55q-36 -50 -36 -130t36 -130q38 -55 107 -55t108 55q35 50 35 130z" />
    <glyph glyph-name="Ydieresis" unicode="&#x178;" horiz-adv-x="632" 
d="M622 684l-257 -391v-293h-96v292q-14 14 -25 31l-230 361h110l176 -282q5 -6 16 -31q4 8 13 24l182 289h111zM456 795q0 -21 -14.5 -34.5t-37.5 -13.5t-37.5 13.5t-14.5 34.5t14.5 34.5t37.5 13.5t37.5 -13.5t14.5 -34.5zM278 795q0 -21 -14.5 -34.5t-37.5 -13.5
t-37.5 13.5t-14.5 34.5t14.5 34.5t37.5 13.5t37.5 -13.5t14.5 -34.5z" />
    <glyph glyph-name="florin" unicode="&#x192;" 
d="M565 706l-38 -68q-44 24 -81 24q-67 0 -83 -83l-22 -111h111v-80h-127l-79 -393q-31 -156 -166 -156q-43 0 -93 23l32 70q32 -14 56 -14q64 0 82 90l76 381l-87 3v74l103 2l28 139q27 134 163 134q57 0 125 -35z" />
    <glyph glyph-name="circumflex" unicode="&#x2c6;" horiz-adv-x="247" 
d="M265 593l-33 -36l-110 76l-110 -76l-33 36l104 103q23 23 39 23t39 -23z" />
    <glyph glyph-name="caron" unicode="&#x2c7;" horiz-adv-x="247" 
d="M267 678l-104 -103q-23 -23 -40 -23q-16 0 -38 22l-104 103l33 37l110 -76l110 76z" />
    <glyph glyph-name="breve" unicode="&#x2d8;" horiz-adv-x="247" 
d="M245 683q0 -53 -35 -87t-88 -34t-88 34t-35 87q1 -1 51 0q0 -54 71 -54q72 0 72 54h52z" />
    <glyph glyph-name="dotaccent" unicode="&#x2d9;" horiz-adv-x="247" 
d="M182 653q0 -24 -17 -39t-41 -15q-25 0 -41 15t-16 39q0 23 16 39t41 16q24 0 41 -16t17 -39z" />
    <glyph glyph-name="ring" unicode="&#x2da;" horiz-adv-x="247" 
d="M208 633q0 -35 -24.5 -59.5t-59.5 -24.5t-59.5 24.5t-24.5 59.5t24.5 60t59.5 25t59.5 -25t24.5 -60zM168 633q0 18 -13 32t-31 14t-31 -14t-13 -32t13 -31.5t31 -13.5t31 13.5t13 31.5z" />
    <glyph glyph-name="ogonek" unicode="&#x2db;" horiz-adv-x="247" 
d="M266 -179q-54 -29 -96 -29q-80 0 -80 71q0 40 32 78q14 16 64 59h52q-22 -27 -45 -54q-27 -36 -27 -61q0 -27 30 -27q22 0 56 16z" />
    <glyph glyph-name="tilde" unicode="&#x2dc;" horiz-adv-x="247" 
d="M273 664q-24 -80 -91 -80q-32 0 -63 18l-25 12q-20 9 -33 9q-33 0 -41 -36l-50 22q24 80 91 80q33 0 65 -17q1 0 24 -12q19 -10 32 -10q32 0 41 36z" />
    <glyph glyph-name="hungarumlaut" unicode="&#x2dd;" horiz-adv-x="247" 
d="M332 664q-2 -14 -13 -22l-118 -91l-35 38l95 113q13 15 37 10q16 -4 26.5 -18t7.5 -30zM163 664q-2 -15 -12 -22l-118 -91l-35 38l94 113q13 15 37 10q16 -4 26.5 -18t7.5 -30z" />
    <glyph glyph-name="endash" unicode="&#x2013;" horiz-adv-x="500" 
d="M500 245h-500v73h500v-73z" />
    <glyph glyph-name="emdash" unicode="&#x2014;" horiz-adv-x="1000" 
d="M1000 245h-1000v73h1000v-73z" />
    <glyph glyph-name="quoteleft" unicode="&#x2018;" horiz-adv-x="250" 
d="M184 685l-24 -166q-5 -36 -45 -36q-20 0 -33.5 13t-13.5 32q0 10 2 15l66 156z" />
    <glyph glyph-name="quoteright" unicode="&#x2019;" horiz-adv-x="250" 
d="M182 651q0 -10 -2 -15l-65 -156l-48 13l23 167q5 36 45 36q20 0 33.5 -13t13.5 -32z" />
    <glyph glyph-name="quotesinglbase" unicode="&#x201a;" horiz-adv-x="250" 
d="M184 51q0 -10 -2 -15l-66 -156l-48 14l24 166q5 36 44 36q20 0 34 -13t14 -32z" />
    <glyph glyph-name="quotedblleft" unicode="&#x201c;" horiz-adv-x="500" 
d="M393 685l-24 -166q-5 -36 -44 -36q-20 0 -34 13t-14 32q0 8 3 15l65 156zM223 685l-24 -166q-5 -36 -44 -36q-20 0 -34 13t-14 32q0 10 2 15l66 156z" />
    <glyph glyph-name="quotedblright" unicode="&#x201d;" horiz-adv-x="500" 
d="M394 654q0 -8 -3 -15l-65 -156l-48 13l24 167q5 36 44 36q20 0 34 -13t14 -32zM223 654q0 -10 -2 -15l-66 -156l-48 13l24 167q5 36 44 36q20 0 34 -13t14 -32z" />
    <glyph glyph-name="quotedblbase" unicode="&#x201e;" horiz-adv-x="500" 
d="M394 52q0 -10 -2 -15l-66 -157l-48 14l24 166q5 37 44 37q20 0 34 -13t14 -32zM224 52q0 -8 -3 -15l-65 -157l-48 14l24 166q5 37 44 37q20 0 34 -13t14 -32z" />
    <glyph glyph-name="dagger" unicode="&#x2020;" 
d="M500 429h-181v-429h-88v429h-181v79h181v176h88v-176h181v-79z" />
    <glyph glyph-name="daggerdbl" unicode="&#x2021;" 
d="M500 191h-180v-188h-90v188h-180v79h180v163h-180v79h180v175h90v-175h180v-79h-180v-163h180v-79z" />
    <glyph glyph-name="bullet" unicode="&#x2022;" horiz-adv-x="490" 
d="M365 359q0 -47 -34 -77.5t-86 -30.5t-86 30.5t-34 77.5q0 46 34 76.5t86 30.5t86 -30t34 -77z" />
    <glyph glyph-name="ellipsis" unicode="&#x2026;" horiz-adv-x="1000" 
d="M896 47q0 -24 -17.5 -40.5t-44.5 -16.5t-44.5 16.5t-17.5 40.5t17.5 40t44.5 16t44.5 -16t17.5 -40zM560 47q0 -24 -17.5 -40.5t-44.5 -16.5t-44.5 16.5t-17.5 40.5t17.5 40t44.5 16t44.5 -16t17.5 -40zM228 47q0 -24 -17.5 -40.5t-44.5 -16.5t-44.5 16.5t-17.5 40.5
t17.5 40t44.5 16t44.5 -16t17.5 -40z" />
    <glyph glyph-name="perthousand" unicode="&#x2030;" horiz-adv-x="1000" 
d="M961 150q0 -67 -35 -112q-38 -49 -99 -49t-99 49q-35 45 -35 112t36 112.5t98 45.5t98 -45.5t36 -112.5zM307 538q0 -67 -35 -112q-38 -49 -99 -49t-99 49q-35 45 -35 112t36 112.5t98 45.5t98 -45.5t36 -112.5zM602 712l-431 -727h-75l433 727h73zM644 151
q0 -67 -35 -112q-38 -49 -99 -49t-99 49q-35 45 -35 112t36 112.5t98 45.5t98 -45.5t36 -112.5zM885 150q0 39 -16 63.5t-42 24.5t-42 -24.5t-16 -63.5t16 -64t42 -25t42 25t16 64zM231 538q0 39 -16 63.5t-42 24.5t-42 -24.5t-16 -63.5t16 -63.5t42 -24.5t42 24.5t16 63.5z
M568 151q0 39 -16 63.5t-42 24.5t-42 -24.5t-16 -63.5t16 -64t42 -25t42 25t16 64z" />
    <glyph glyph-name="guilsinglleft" unicode="&#x2039;" horiz-adv-x="300" 
d="M269 456l-139 -200l138 -201h-88l-148 201l148 200h89z" />
    <glyph glyph-name="guilsinglright" unicode="&#x203a;" horiz-adv-x="300" 
d="M269 256l-148 -201h-89l139 201l-139 200h89z" />
    <glyph glyph-name="fraction" unicode="&#x2044;" horiz-adv-x="163" 
d="M323 712l-403 -712h-79l402 712h80z" />
    <glyph glyph-name="trademark" unicode="&#x2122;" horiz-adv-x="1000" 
d="M886 279h-72v333h-1q-2 -10 -5 -16l-114 -231q-25 0 -39 13q-10 9 -23 35l-90 183q-3 7 -5 15h-1v-332h-71v401h109l102 -213h2q3 11 8 22l92 191h108v-401zM410 618h-126v-339h-73v339h-119v63h318v-63z" />
    <glyph glyph-name="lessequal" unicode="&#x2264;" horiz-adv-x="516" 
 />
    <glyph glyph-name="fi" unicode="&#xf001;" horiz-adv-x="577" 
d="M509 671q0 -24 -17 -39t-41 -15q-25 0 -41 15t-16 39t16.5 39.5t40.5 15.5t41 -15.5t17 -39.5zM498 0h-90v500h90v-500zM359 718l-23 -73q-58 24 -95 24q-59 0 -59 -57v-112h136v-76h-136v-424h-90v425l-57 2v70l57 3v118q0 127 140 127q62 0 127 -27z" />
    <glyph glyph-name="fl" unicode="&#xf002;" horiz-adv-x="608" 
d="M586 4q-45 -15 -80 -15q-98 0 -98 96v649h90v-632q0 -36 31 -36q18 0 36 8zM359 718l-23 -73q-58 24 -95 24q-59 0 -59 -57v-112h136v-76h-136v-424h-90v425l-57 2v70l57 3v118q0 127 140 127q62 0 127 -27z" />
    </font>
</defs>
</svg>
