<svg width="153" height="23" viewBox="0 0 153 23" fill="none" xmlns="http://www.w3.org/2000/svg">
<path fill-rule="evenodd" clip-rule="evenodd" d="M83.6297 10.2049C83.6297 10.2049 82.137 9.30213 81.2122 8.95284C81.2122 8.95284 78.353 7.65766 77.7856 7.04146C77.7856 7.04146 76.6722 6.01494 77.3236 4.82376C77.3236 4.82376 77.5969 4.04367 78.7746 4.04367C78.7746 4.04367 80.3078 4.12605 80.3078 5.35753V7.09481H85.8021L85.7917 4.53632C85.7917 4.53632 86.2141 0.345404 79.3199 0.16185C79.3199 0.16185 73.8982 -0.186545 72.3431 2.66791C72.3431 2.66791 71.7326 3.30384 71.7326 5.52139V7.12381C71.7326 7.12381 71.6705 8.97351 72.6371 10.1637C72.6371 10.1637 73.1834 10.9439 74.5288 11.8063C74.5288 11.8063 77.2605 13.2449 78.8991 14.0671C78.8991 14.0671 80.5551 14.9905 80.3364 16.4589C80.3364 16.4589 80.2023 17.9677 78.6041 17.9058C78.6041 17.9058 77.1426 17.8412 77.1426 16.3625V14.6262H71.2881V17.1492C71.2881 17.1492 71.1233 21.9731 78.6481 21.9731C78.6481 21.9731 85.8348 22.1163 86.171 17.0218V14.9689C86.171 14.9689 86.4242 11.8475 83.6297 10.2049V10.2049Z" fill="#F5F5F5"/>
<path fill-rule="evenodd" clip-rule="evenodd" d="M55.8205 0.765625L53.9895 12.0265H53.5614L51.812 0.866485H42.6772L42.2201 21.2581H47.6285L47.6932 5.89365H48.1184L50.9854 21.2549H56.6751L59.5069 5.89947H59.8835L60.014 21.2581H65.4506L64.866 0.765625H55.8205V0.765625Z" fill="#F5F5F5"/>
<path fill-rule="evenodd" clip-rule="evenodd" d="M23.8237 0.851562L20.2127 21.2352H26.0551L28.1938 5.43039H28.6746L30.8127 21.2352H36.6544L33.0443 0.851562H23.8237V0.851562Z" fill="#F5F5F5"/>
<path fill-rule="evenodd" clip-rule="evenodd" d="M145.03 9.92091V12.9308H146.53V16.1608C146.53 17.7388 145.149 17.7678 145.149 17.7678C143.469 17.7678 143.532 16.2676 143.532 16.2676V5.09516C143.532 3.9442 145.022 3.88246 145.022 3.88246C146.454 3.88246 146.464 5.25529 146.464 5.25529V6.95414H151.975C152.154 3.63894 151.479 2.83634 151.479 2.83634C150.111 -0.162377 144.94 0.00159347 144.94 0.00159347C136.992 0.00159347 137.874 5.95767 137.874 5.95767V16.7601C138.044 22.3463 145.875 21.7798 146.008 21.7722C149.492 21.3958 150.544 20.315 150.544 20.315C151.512 19.6127 151.762 18.6406 151.762 18.6406C152.037 18.074 152.107 16.2676 152.107 16.2676V9.92091H145.03V9.92091Z" fill="#F5F5F5"/>
<path fill-rule="evenodd" clip-rule="evenodd" d="M127.05 13.2405H126.811L121.232 0.770817H114.56V21.262H119.99L119.665 8.7937H119.907L125.686 21.262H132.159V0.769531H126.659L127.05 13.2405V13.2405Z" fill="#F5F5F5"/>
<path fill-rule="evenodd" clip-rule="evenodd" d="M101.564 16.1621C101.564 16.1621 101.644 17.8445 100.048 17.8445C100.048 17.8445 98.368 17.9324 98.368 16.2043L98.3518 0.785156H92.3818V16.0816C92.3818 16.0816 91.7694 21.871 100.131 21.871C100.131 21.871 107.397 21.9552 107.397 16.3465V0.786135H101.564V16.1621V16.1621Z" fill="#F5F5F5"/>
<path fill-rule="evenodd" clip-rule="evenodd" d="M12.7093 10.2047C12.7093 10.2047 11.2173 9.30199 10.2926 8.9527C10.2926 8.9527 7.43422 7.65943 6.86797 7.04133C6.86797 7.04133 5.75351 6.01399 6.4062 4.82458C6.4062 4.82458 6.67816 4.04443 7.8549 4.04443C7.8549 4.04443 9.38901 4.12597 9.38901 5.3574V7.09467H14.8853L14.874 4.53524C14.874 4.53524 15.2946 0.345241 8.40208 0.161714C8.40208 0.161714 7.88266 0.128903 7.12099 0.166442C7.12099 0.166442 2.94593 0.385549 1.45298 2.62378C1.44531 2.63969 1.43294 2.65278 1.42435 2.66778C1.42435 2.66778 0.814776 3.30272 0.814776 5.52126V7.12362C0.814776 7.12362 0.751637 8.97236 1.71944 10.1636C1.71944 10.1636 2.26468 10.9437 3.61103 11.8062C3.61103 11.8062 6.34094 13.2438 7.98043 14.066C7.98043 14.066 9.63704 14.9894 9.41877 16.4587C9.41877 16.4587 9.28356 17.9675 7.68626 17.9057C7.68626 17.9057 6.22502 17.8411 6.22502 16.3623V14.6251H0.369427V17.1491C0.369427 17.1491 0.205426 21.973 7.72845 21.973C7.72845 21.973 14.915 22.1162 15.2523 17.0217V14.9698C15.2523 14.9698 15.5044 11.8474 12.7093 10.2047V10.2047Z" fill="#F5F5F5"/>
</svg>
