<svg width="107" height="32" viewBox="0 0 107 32" fill="none" xmlns="http://www.w3.org/2000/svg">
<path d="M105.867 28.2474C105.867 29.9202 104.542 31.2761 102.906 31.2761H79.4571C77.8212 31.2761 76.496 29.9202 76.496 28.2474V4.0092C76.496 2.33653 77.8212 0.980469 79.4571 0.980469H102.906C104.542 0.980469 105.867 2.33653 105.867 4.0092V28.2474Z" fill="#F5F5F5"/>
<path d="M0.059082 7.07812H3.89647V21.571H10.6624V24.9684H0.059082V7.07812Z" fill="#F5F5F5"/>
<path d="M16.2404 8.38026C16.2404 9.49461 15.5175 10.3971 14.3281 10.3971C13.2085 10.3971 12.4855 9.49461 12.4855 8.38026C12.4855 7.23907 13.232 6.36328 14.3748 6.36328C15.5175 6.36328 16.2173 7.23907 16.2404 8.38026ZM12.5788 24.9671V11.9894H16.1241V24.9671H12.5788Z" fill="#F5F5F5"/>
<path d="M19.0113 16.1143C19.0113 14.4932 18.9606 13.1379 18.9098 11.9681H22.2584L22.4363 13.7755H22.5125C23.0197 12.9249 24.2628 11.6758 26.3428 11.6758C28.88 11.6758 30.7828 13.4567 30.7828 17.2838V24.9649H26.9265V17.7622C26.9265 16.0879 26.3685 14.9451 24.9733 14.9451C23.9075 14.9451 23.2734 15.7159 22.9942 16.4598C22.8929 16.7257 22.8677 17.0977 22.8677 17.47V24.9649H19.0113V16.1143Z" fill="#F5F5F5"/>
<path d="M37.5555 17.4567H37.6064C37.8862 16.8993 38.1914 16.3687 38.4965 15.891L41.0138 11.9897H45.6674L41.2173 17.2442L46.303 24.9669H41.5479L38.5215 19.6325L37.5555 20.9064V24.9669H33.6899V6.125H37.5555V17.4567Z" fill="#F5F5F5"/>
<path d="M49.7682 19.7548C49.8697 21.4289 51.4673 22.2264 53.2681 22.2264C54.587 22.2264 55.6521 22.0402 56.6924 21.6682L57.1993 24.4055C55.9311 24.9636 54.3842 25.2294 52.7103 25.2294C48.5 25.2294 46.0906 22.6783 46.0906 18.612C46.0906 15.3168 48.0437 11.6758 52.3548 11.6758C56.3623 11.6758 57.884 14.9448 57.884 18.1603C57.884 18.8511 57.8077 19.4623 57.7571 19.7548H49.7682ZM54.3079 16.9908C54.3079 16.0076 53.9022 14.3598 52.1269 14.3598C50.5037 14.3598 49.8441 15.9282 49.7427 16.9908H54.3079Z" fill="#F5F5F5"/>
<path d="M72.0071 6.125V21.0916C72.0071 22.551 72.0581 24.0903 72.109 24.9659H68.6729L68.5204 23.0818H68.4444C67.6808 24.5146 66.1537 25.2581 64.5505 25.2581C61.5984 25.2581 59.2314 22.6308 59.2314 18.5971C59.2062 14.2184 61.8276 11.6712 64.8048 11.6712C66.3572 11.6712 67.528 12.2549 68.0877 13.1305H68.1386V6.125H72.0071ZM68.1386 17.4827C68.1386 17.2701 68.1386 16.9784 68.0877 16.7395C67.8589 15.6783 67.0193 14.7759 65.8231 14.7759C64.0412 14.7759 63.1505 16.4212 63.1505 18.4645C63.1505 20.6667 64.1943 22.0467 65.7975 22.0467C66.9172 22.0467 67.8333 21.2509 68.0624 20.1099C68.1135 19.8179 68.1386 19.4997 68.1386 19.181V17.4827Z" fill="#F5F5F5"/>
<path d="M85.7113 8.37635C85.7113 9.49071 84.9883 10.3932 83.799 10.3932C82.6796 10.3932 81.9565 9.49071 81.9565 8.37635C81.9565 7.23517 82.7028 6.35938 83.8455 6.35938C84.9883 6.35938 85.6881 7.23517 85.7113 8.37635ZM82.05 24.9632V11.9855H85.5948V24.9632H82.05Z" fill="#464E41"/>
<path d="M88.4826 16.1143C88.4826 14.4932 88.4321 13.1379 88.3813 11.9681H91.7299L91.9075 13.7755H91.9836C92.491 12.9249 93.7342 11.6758 95.8146 11.6758C98.3514 11.6758 100.254 13.4567 100.254 17.2838V24.9649H96.3979V17.7622C96.3979 16.0879 95.8395 14.9451 94.4442 14.9451C93.3787 14.9451 92.745 15.7159 92.4658 16.4598C92.3641 16.7257 92.3386 17.0977 92.3386 17.47V24.9649H88.4826V16.1143Z" fill="#464E41"/>
</svg>
