<svg width="70" height="24" viewBox="0 0 70 24" fill="none" xmlns="http://www.w3.org/2000/svg">
<path d="M29.9643 22.391H24.4207L27.8856 1.30859H33.4297L29.9643 22.391Z" fill="#F5F5F5"/>
<path d="M19.5978 1.30859L14.2652 15.8084L13.6349 12.6859L13.6354 12.687L11.7529 3.20735C11.7529 3.20735 11.5259 1.30859 9.09982 1.30859H0.285476L0.182617 1.665C0.182617 1.665 2.87881 2.21539 6.03241 4.0758L10.8915 22.3906H16.7189L25.6172 1.30859H19.5978Z" fill="#F5F5F5"/>
<path d="M63.8063 22.3906H68.9348L64.4633 1.30859H59.9729C57.899 1.30859 57.394 2.8797 57.394 2.8797L49.0651 22.3906H54.8863L56.0512 19.2596H63.1515L63.8063 22.3906ZM57.6603 14.9331L60.5956 7.04376L62.2466 14.9331H57.6603Z" fill="#F5F5F5"/>
<path d="M49.3864 6.3733L50.1819 1.84183C50.1819 1.84183 47.7253 0.921875 45.1643 0.921875C42.3959 0.921875 35.8221 2.11386 35.8221 7.90675C35.8221 13.3582 43.5377 13.4259 43.5377 16.2879C43.5377 19.15 36.6172 18.6386 34.3336 16.8331L33.5037 21.57C33.5037 21.57 35.9941 22.762 39.8011 22.762C43.6076 22.762 49.3514 20.82 49.3514 15.5384C49.3514 10.0526 41.5659 9.54179 41.5659 7.15724C41.5659 4.77157 46.9991 5.07803 49.3864 6.3733Z" fill="#F5F5F5"/>
<path d="M13.577 12.4544L11.7027 3.16852C11.7027 3.16852 11.4767 1.30859 9.06109 1.30859H0.285029L0.182617 1.65771C0.182617 1.65771 4.40101 2.50233 8.44775 5.66425C12.3154 8.68698 13.577 12.4544 13.577 12.4544Z" fill="#F5F5F5"/>
</svg>
