<svg width="78" height="33" viewBox="0 0 78 33" fill="none" xmlns="http://www.w3.org/2000/svg">
<path d="M5.42939 12.4027C5.42939 11.5786 6.11611 11.2617 7.25349 11.2617C8.88446 11.2617 10.9446 11.7477 12.5756 12.614V7.64866C10.7944 6.95141 9.03468 6.67673 7.25349 6.67673C2.8971 6.67673 0 8.9164 0 12.6562C0 18.4878 8.15481 17.5581 8.15481 20.0725C8.15481 21.0444 7.29641 21.3613 6.09465 21.3613C4.31347 21.3613 2.0387 20.6429 0.23606 19.671V24.6997C2.23184 25.5448 4.24909 25.904 6.09465 25.904C10.5583 25.904 13.6271 23.7278 13.6271 19.9457C13.6057 13.6493 5.42939 14.7691 5.42939 12.4027ZM19.9364 2.45095L14.7001 3.54966L14.6787 20.4739C14.6787 23.601 17.0607 25.904 20.2368 25.904C21.9965 25.904 23.2841 25.5871 23.9923 25.2068V20.9176C23.3056 21.1923 19.9149 22.1642 19.9149 19.0371V11.5364H23.9923V7.03592H19.9149L19.9364 2.45095ZM30.6664 8.59946L30.323 7.03592H25.6877V25.5237H31.0527V12.9943C32.3188 11.3673 34.4648 11.6632 35.1301 11.8956V7.03592C34.4434 6.78238 31.9325 6.31754 30.6664 8.59946ZM36.4391 7.03592H41.8256V25.5237H36.4391V7.03592ZM36.4391 5.43013L41.8256 4.28917V0L36.4391 1.11983V5.43013ZM53.0277 6.67673C50.9247 6.67673 49.5727 7.64866 48.8216 8.32479L48.5426 7.01479H43.8214V31.6511L49.1864 30.5313L49.2079 24.5518C49.9804 25.1011 51.1178 25.8829 53.0063 25.8829C56.8476 25.8829 60.3456 22.8403 60.3456 16.1425C60.3242 10.0151 56.7833 6.67673 53.0277 6.67673ZM51.7401 21.2345C50.474 21.2345 49.7229 20.7908 49.2079 20.2415L49.1864 12.4027C49.7444 11.7899 50.5169 11.3673 51.7401 11.3673C53.693 11.3673 55.045 13.5225 55.045 16.2904C55.045 19.1217 53.7145 21.2345 51.7401 21.2345ZM77.2561 16.3538C77.2561 10.9448 74.5951 6.67673 69.5091 6.67673C64.4016 6.67673 61.3113 10.9448 61.3113 16.3115C61.3113 22.6713 64.9595 25.8829 70.1958 25.8829C72.7495 25.8829 74.6809 25.3124 76.1402 24.5095V20.2837C74.6809 21.0021 73.007 21.4458 70.8825 21.4458C68.8009 21.4458 66.9553 20.7274 66.7193 18.2342H77.2132C77.2132 17.9596 77.2561 16.8609 77.2561 16.3538ZM66.6549 14.3465C66.6549 11.959 68.1356 10.9659 69.4876 10.9659C70.7967 10.9659 72.1916 11.959 72.1916 14.3465H66.6549Z" fill="white"/>
</svg>
