<svg width="96" height="32" viewBox="0 0 96 32" fill="none" xmlns="http://www.w3.org/2000/svg">
<path d="M24.1615 11.6276H12.8657V14.9398H20.8768C20.4812 19.5849 16.5705 21.5655 12.8793 21.5655C8.15704 21.5655 4.03593 17.8937 4.03593 12.7471C4.03593 7.73359 7.96436 3.87231 12.8899 3.87231C16.6901 3.87231 18.929 6.2664 18.929 6.2664L21.2761 3.8649C21.2761 3.8649 18.2637 0.550781 12.7699 0.550781C5.77405 0.550781 0.362061 6.38561 0.362061 12.6879C0.362061 18.8637 5.45276 24.8853 12.9483 24.8853C19.5403 24.8853 24.3659 20.4226 24.3659 13.8238C24.3659 12.4314 24.1611 11.6268 24.1611 11.6268L24.1615 11.6276Z" fill="#F5F5F5"/>
<path d="M32.9836 9.15234C28.3002 9.15234 24.9438 12.7508 24.9438 16.9473C24.9438 21.2058 28.1995 24.8708 33.0385 24.8708C37.419 24.8708 41.0082 21.5803 41.0082 17.0386C41.0082 11.8333 36.8334 9.15234 32.9836 9.15234V9.15234ZM33.0301 12.2395C35.3331 12.2395 37.5155 14.0693 37.5155 17.018C37.5155 19.9041 35.3424 21.7859 33.0195 21.7859C30.4672 21.7859 28.4537 19.7772 28.4537 16.9951C28.4537 14.2726 30.4424 12.2395 33.0301 12.2395V12.2395Z" fill="#F5F5F5"/>
<path d="M49.9336 9.15234C45.2505 9.15234 41.8942 12.7508 41.8942 16.9473C41.8942 21.2058 45.1495 24.8708 49.9888 24.8708C54.3695 24.8708 57.9582 21.5803 57.9582 17.0386C57.9582 11.8333 53.7838 9.15234 49.9336 9.15234V9.15234ZM49.9805 12.2395C52.2832 12.2395 54.4659 14.0693 54.4659 17.018C54.4659 19.9041 52.2927 21.7859 49.9698 21.7859C47.4176 21.7859 45.404 19.7772 45.404 16.9951C45.404 14.2726 47.3924 12.2395 49.9805 12.2395V12.2395Z" fill="#F5F5F5"/>
<path d="M66.5588 9.16016C62.254 9.16016 58.8704 12.8448 58.8704 16.9804C58.8704 21.6909 62.7931 24.8148 66.4848 24.8148C68.7671 24.8148 69.981 23.9295 70.877 22.9129V24.4564C70.877 27.1562 69.1995 28.7731 66.6672 28.7731C64.2208 28.7731 62.9939 26.9959 62.5673 25.9872L59.4893 27.2446C60.5815 29.5008 62.7794 31.8538 66.6924 31.8538C70.9728 31.8538 74.2347 29.2191 74.2347 23.6938V9.63076H70.877V10.9564C69.8444 9.86935 68.4325 9.16047 66.5588 9.16047V9.16016ZM66.8706 12.228C68.9812 12.228 71.1483 13.9893 71.1483 16.9968C71.1483 20.0539 68.9858 21.7386 66.8237 21.7386C64.5287 21.7386 62.3933 19.9174 62.3933 17.0259C62.3933 14.0214 64.6112 12.228 66.8706 12.228V12.228Z" fill="#F5F5F5"/>
<path d="M88.4458 9.14062C84.3792 9.14062 80.9646 12.3114 80.9646 16.9893C80.9646 21.9399 84.7705 24.8758 88.8368 24.8758C92.2299 24.8758 94.3128 23.0566 95.5555 21.4265L92.783 19.6189C92.0637 20.7131 90.8606 21.7822 88.8535 21.7822C86.5988 21.7822 85.562 20.5723 84.9196 19.4006L95.674 15.0278L95.1157 13.7464C94.077 11.2369 91.6533 9.1414 88.4462 9.1414L88.4458 9.14062ZM88.5861 12.1634C90.0512 12.1634 91.1061 12.9266 91.5539 13.8422L84.372 16.7837C84.0624 14.5062 86.264 12.1634 88.5861 12.1634V12.1634Z" fill="#F5F5F5"/>
<path d="M76.0087 24.4161H79.9146V1.35156H76.0087V24.4161Z" fill="#F5F5F5"/>
</svg>
