<svg width="20" height="40" viewBox="0 0 20 40" fill="none" xmlns="http://www.w3.org/2000/svg">
<path fill-rule="evenodd" clip-rule="evenodd" d="M5.83244 5.82552C5.83244 3.98469 7.32485 2.49219 9.16577 2.49219H10.8324C12.6734 2.49219 14.1658 3.98469 14.1658 5.82552H14.9991C16.84 5.82552 18.3324 7.31802 18.3324 9.15885V14.1589C18.3324 15.9997 16.84 17.4922 14.9991 17.4922H4.9991C3.15819 17.4922 1.66577 15.9997 1.66577 14.1589V9.15885C1.66577 7.31802 3.15819 5.82552 4.9991 5.82552H5.83244ZM10.8324 4.15885H9.16577C8.24527 4.15885 7.4991 4.90469 7.4991 5.82552H12.4991C12.4991 4.90469 11.7529 4.15885 10.8324 4.15885ZM4.9991 7.49219H14.9991C15.9196 7.49219 16.6658 8.23802 16.6658 9.15885V9.39303L12.2126 10.8772C11.0168 11.2764 8.98144 11.2764 7.7856 10.8772L3.33244 9.39303V9.15885C3.33244 8.23802 4.0786 7.49219 4.9991 7.49219ZM7.26477 12.4664L3.33244 11.138V14.1589C3.33244 15.0797 4.0786 15.8255 4.9991 15.8255H14.9991C15.9196 15.8255 16.6658 15.0797 16.6658 14.1589V11.138L12.7334 12.4664C11.1955 12.9789 8.80269 12.9789 7.26477 12.4664Z" fill="#222222" fill-opacity="0.6"/>
<path fill-rule="evenodd" clip-rule="evenodd" d="M9.16577 22.4922C7.32494 22.4922 5.83244 23.9847 5.83244 25.8255H4.9991C3.26577 25.8255 1.87828 27.1555 1.71745 28.8464C2.13911 28.9905 7.78576 30.878 7.78576 30.8772C8.9816 31.2764 11.0166 31.2764 12.2124 30.8772C12.2124 30.8772 16.5308 29.4355 18.3066 28.8464C18.1524 27.1489 16.7366 25.8255 14.9991 25.8255H14.1658C14.1658 23.9847 12.6733 22.4922 10.8324 22.4922H9.16577ZM9.16577 24.1589H10.8324C11.7533 24.1589 12.4991 24.9047 12.4991 25.8255H7.4991C7.4991 24.9047 8.24494 24.1589 9.16577 24.1589ZM1.66577 34.1589V30.5913L7.26493 32.4664C8.80243 32.9789 11.1958 32.9789 12.7333 32.4664L18.3324 30.5913V34.1589C18.3324 35.9997 16.8399 37.4922 14.9991 37.4922H4.9991C3.15827 37.4922 1.66577 35.9997 1.66577 34.1589Z" fill="#222222"/>
</svg>
