<svg width="24" height="24" viewBox="0 0 24 24" fill="none" xmlns="http://www.w3.org/2000/svg">
<path fill-rule="evenodd" clip-rule="evenodd" d="M2.01416 6.99609C2.01416 5.33909 3.35726 3.99609 5.01416 3.99609H19.0142C20.6711 3.99609 22.0142 5.33909 22.0142 6.99609V8.99609V16.9961C22.0142 18.6531 20.6711 19.9961 19.0142 19.9961H5.01416C3.35726 19.9961 2.01416 18.6531 2.01416 16.9961V8.99609V6.99609ZM19.0142 5.99609H5.01416C4.46186 5.99609 4.01416 6.44409 4.01416 6.99609V7.99609H20.0142V6.99609C20.0142 6.44409 19.5665 5.99609 19.0142 5.99609ZM4.01416 9.99609H20.0142V16.9961C20.0142 17.5481 19.5665 17.9961 19.0142 17.9961H5.01416C4.46186 17.9961 4.01416 17.5481 4.01416 16.9961V9.99609ZM6.01416 12.9961C6.01416 12.4441 6.46186 11.9961 7.01416 11.9961H9.01416C9.56646 11.9961 10.0142 12.4441 10.0142 12.9961V14.9961C10.0142 15.5481 9.56646 15.9961 9.01416 15.9961H7.01416C6.46186 15.9961 6.01416 15.5481 6.01416 14.9961V12.9961Z" fill="black"/>
</svg>
