<svg width="16" height="17" viewBox="0 0 16 17" fill="none" xmlns="http://www.w3.org/2000/svg">
<path fill-rule="evenodd" clip-rule="evenodd" d="M4.69739 0.677734C4.23739 0.677734 3.86406 1.05107 3.86406 1.51107C2.02156 1.51107 0.504883 3.00523 0.504883 4.8444V6.51107L0.530721 13.1777C0.530721 15.0161 2.02322 16.5111 3.86406 16.5111H12.1974C14.0382 16.5111 15.5307 15.0186 15.5307 13.1777L15.5049 6.51107V4.8444C15.5049 3.0019 14.0366 1.51107 12.1974 1.51107C12.1974 1.05107 11.8249 0.677734 11.364 0.677734C10.904 0.677734 10.5307 1.05107 10.5307 1.51107H5.53073C5.53073 1.05107 5.15822 0.677734 4.69739 0.677734ZM3.86406 3.17773C3.86406 3.63773 4.23739 4.01107 4.69739 4.01107C5.15822 4.01107 5.53072 3.63773 5.53072 3.17773H10.5307C10.5307 3.63773 10.904 4.01107 11.364 4.01107C11.8249 4.01107 12.1974 3.63773 12.1974 3.17773C13.1115 3.17773 13.8382 3.91773 13.8382 4.8444V5.67773H2.17155V4.8444C2.17155 3.93023 2.93739 3.17773 3.86406 3.17773ZM13.8382 7.3444H2.17155L2.19739 13.1777C2.19739 14.0986 2.94406 14.8444 3.86406 14.8444H12.1974C13.1182 14.8444 13.864 14.0952 13.864 13.1777L13.8382 7.3444Z" fill="black"/>
</svg>
