<svg width="180" height="47" viewBox="0 0 180 47" fill="none" xmlns="http://www.w3.org/2000/svg">
<path d="M51.344 39V28.12H54.752C55.936 28.12 56.9493 28.392 57.792 28.936C58.6347 29.4693 59.056 30.36 59.056 31.608C59.056 32.8453 58.6027 33.7573 57.696 34.344C56.7893 34.92 55.76 35.208 54.608 35.208H53.408V39H51.344ZM54.688 29.848H53.408V33.496H54.72C55.3387 33.496 55.84 33.3573 56.224 33.08C56.608 32.792 56.8213 32.344 56.864 31.736C56.864 31.032 56.672 30.5413 56.288 30.264C55.904 29.9867 55.3707 29.848 54.688 29.848ZM65.0468 29.848H63.7668V33.176H65.0788C65.6974 33.176 66.2094 33.0533 66.6148 32.808C67.0201 32.552 67.2228 32.136 67.2228 31.56C67.2228 30.952 67.0308 30.5147 66.6468 30.248C66.2628 29.9813 65.7294 29.848 65.0468 29.848ZM68.0228 39L65.7188 34.84C65.6014 34.8507 65.4788 34.8613 65.3508 34.872C65.2228 34.872 65.0948 34.872 64.9668 34.872H63.7668V39H61.7028V28.12H65.1108C66.2948 28.12 67.3081 28.392 68.1508 28.936C68.9934 29.48 69.4148 30.3227 69.4148 31.464C69.4148 32.136 69.2388 32.7173 68.8868 33.208C68.5454 33.688 68.1028 34.0613 67.5588 34.328L70.2308 39H68.0228ZM79.99 39H72.374V28.12H78.87L79.19 29.752H74.438V32.68H77.35L77.686 34.328H74.438V37.384H79.654L79.99 39ZM86.9673 35.704L84.3593 32.36V39H82.2953V28.12H83.6073L87.2873 33.144L90.6313 28.12H91.8953V39H89.7993V32.728L87.7673 35.592L86.9673 35.704ZM97.2649 28.12V39H95.2009V28.12H97.2649ZM108.207 39H100.591V28.12H107.087L107.407 29.752H102.655V32.68H105.567L105.903 34.328H102.655V37.384H107.871L108.207 39ZM113.856 29.848H112.576V33.176H113.888C114.507 33.176 115.019 33.0533 115.424 32.808C115.829 32.552 116.032 32.136 116.032 31.56C116.032 30.952 115.84 30.5147 115.456 30.248C115.072 29.9813 114.539 29.848 113.856 29.848ZM116.832 39L114.528 34.84C114.411 34.8507 114.288 34.8613 114.16 34.872C114.032 34.872 113.904 34.872 113.776 34.872H112.576V39H110.512V28.12H113.92C115.104 28.12 116.117 28.392 116.96 28.936C117.803 29.48 118.224 30.3227 118.224 31.464C118.224 32.136 118.048 32.7173 117.696 33.208C117.355 33.688 116.912 34.0613 116.368 34.328L119.04 39H116.832Z" fill="white"/>
<path d="M55.648 18H51.184V7.12H55.648C57.344 7.12 58.624 7.62667 59.488 8.64C60.352 9.64267 60.784 10.928 60.784 12.496C60.784 14.1813 60.3147 15.52 59.376 16.512C58.4373 17.504 57.1947 18 55.648 18ZM55.616 9.232H53.808V15.904H55.504C56.2507 15.904 56.864 15.632 57.344 15.088C57.824 14.5333 58.064 13.6693 58.064 12.496C58.064 11.5253 57.856 10.7413 57.44 10.144C57.0347 9.536 56.4267 9.232 55.616 9.232ZM67.8699 10.384L66.7019 13.632H69.0859L67.8699 10.384ZM69.1819 7.12L73.2939 17.712L70.7019 18L69.8539 15.712H65.9659L65.1339 18H62.5259L66.6539 7.12H69.1819ZM81.6524 13.728H78.2124V18H75.5884V7.12H82.3404C82.3937 7.46133 82.4417 7.808 82.4844 8.16C82.5377 8.512 82.5857 8.85867 82.6284 9.2H78.2124V11.664H81.3644L81.6524 13.728ZM89.0506 9.232H87.5786V12.256H89.0826C89.5946 12.256 90.0106 12.128 90.3306 11.872C90.6613 11.6053 90.8266 11.232 90.8266 10.752C90.8266 10.2293 90.6666 9.84533 90.3466 9.6C90.0373 9.35467 89.6053 9.232 89.0506 9.232ZM91.4666 18C91.136 17.392 90.8106 16.784 90.4906 16.176C90.1706 15.5573 89.8506 14.944 89.5306 14.336C89.4453 14.3467 89.3546 14.352 89.2586 14.352C89.1733 14.352 89.088 14.352 89.0026 14.352H87.5786V18H84.9546V7.12H89.1306C90.336 7.12 91.376 7.408 92.2506 7.984C93.1253 8.54933 93.5626 9.46133 93.5626 10.72C93.5626 11.3813 93.408 11.9573 93.0986 12.448C92.8 12.928 92.4213 13.3067 91.9626 13.584C92.3786 14.32 92.7893 15.0613 93.1946 15.808C93.6106 16.544 94.0266 17.2747 94.4426 18H91.4666ZM99.3824 7.12V18H96.7584V7.12H99.3824Z" fill="white"/>
<path fill-rule="evenodd" clip-rule="evenodd" d="M2.59009 10.67C2.59009 11.04 2.89008 11.35 3.27008 11.35H13.2201C13.5901 11.35 13.9001 11.05 13.9001 10.67V0.680008C13.9001 0.310008 13.6001 0 13.2201 0H3.27008C2.90008 0 2.59009 0.300008 2.59009 0.680008V10.67Z" fill="white"/>
<path fill-rule="evenodd" clip-rule="evenodd" d="M13.21 22.4202C13.21 22.7902 13.51 23.1002 13.89 23.1002H25C25.37 23.1002 25.68 22.8002 25.68 22.4202V11.3401C25.68 10.9701 25.38 10.6602 25 10.6602H13.89C13.52 10.6602 13.21 10.9601 13.21 11.3401V22.4202Z" fill="white"/>
<path fill-rule="evenodd" clip-rule="evenodd" d="M24.9404 34.1416C24.9404 34.5116 25.2404 34.8216 25.6204 34.8216H36.7304C37.1004 34.8216 37.4104 34.5216 37.4104 34.1416V23.0316C37.4104 22.6616 37.1104 22.3516 36.7304 22.3516H25.6204C25.2504 22.3516 24.9404 22.6516 24.9404 23.0316V34.1416Z" fill="white"/>
<path fill-rule="evenodd" clip-rule="evenodd" d="M13.21 45.6884C13.21 46.0584 13.51 46.3684 13.89 46.3684H25C25.37 46.3684 25.68 46.0684 25.68 45.6884V34.5784C25.68 34.2084 25.38 33.8984 25 33.8984H13.89C13.52 33.8984 13.21 34.1984 13.21 34.5784V45.6884Z" fill="white"/>
<path fill-rule="evenodd" clip-rule="evenodd" d="M4.44995 32.7694C4.44995 33.1394 4.74997 33.4494 5.12997 33.4494H11.86C12.23 33.4494 12.54 33.1494 12.54 32.7694V26.0394C12.54 25.6694 12.24 25.3594 11.86 25.3594H5.12997C4.75997 25.3594 4.44995 25.6594 4.44995 26.0394V32.7694Z" fill="white"/>
<path fill-rule="evenodd" clip-rule="evenodd" d="M0 37.2192C0 37.5892 0.299993 37.8992 0.679993 37.8992H3.76999C4.13999 37.8992 4.44998 37.5992 4.44998 37.2192V34.1292C4.44998 33.7592 4.14999 33.4492 3.76999 33.4492H0.679993C0.309993 33.4492 0 33.7492 0 34.1292V37.2192Z" fill="white"/>
</svg>
