<svg width="195" height="61" viewBox="0 0 195 61" fill="none" xmlns="http://www.w3.org/2000/svg">
<g clip-path="url(#clip0_9015_683)">
<path d="M187.778 60.3618H7.22222C3.17778 60.3618 0 57.063 0 52.8644V7.88019C0 3.68166 3.17778 0.382812 7.22222 0.382812H187.778C191.822 0.382812 195 3.68166 195 7.88019V52.8644C195 57.063 191.822 60.3618 187.778 60.3618Z" fill="white" fill-opacity="0.1"/>
<path d="M68.4674 15.6748C68.4674 16.8744 68.1786 17.924 67.4563 18.6738C66.5897 19.5735 65.5786 20.0233 64.2786 20.0233C62.9786 20.0233 61.9674 19.5735 61.1008 18.6738C60.2341 17.7741 59.8008 16.7245 59.8008 15.3749C59.8008 14.0254 60.2341 12.9758 61.1008 12.0761C61.9674 11.1764 62.9786 10.7266 64.2786 10.7266C64.8563 10.7266 65.4341 10.8765 66.0119 11.1764C66.5897 11.4763 67.023 11.7762 67.3119 12.226L66.5897 12.9758C66.0119 12.226 65.2897 11.9261 64.2786 11.9261C63.4119 11.9261 62.5452 12.226 61.9674 12.9758C61.2452 13.5756 60.9563 14.4753 60.9563 15.5249C60.9563 16.5745 61.2452 17.4742 61.9674 18.074C62.6897 18.6738 63.4119 19.1236 64.2786 19.1236C65.2897 19.1236 66.0119 18.8237 66.7341 18.074C67.1674 17.6241 67.4563 17.0244 67.4563 16.2746H64.2786V15.075H68.4674V15.6748ZM75.1119 11.9261H71.2119V14.7751H74.823V15.8248H71.2119V18.6738H75.1119V19.8734H70.0563V10.8765H75.1119V11.9261ZM79.8786 19.8734H78.723V11.9261H76.2674V10.8765H82.3341V11.9261H79.8786V19.8734ZM86.523 19.8734V10.8765H87.6786V19.8734H86.523ZM92.5897 19.8734H91.4341V11.9261H88.9786V10.8765H94.9008V11.9261H92.4452V19.8734H92.5897ZM106.312 18.6738C105.445 19.5735 104.434 20.0233 103.134 20.0233C101.834 20.0233 100.823 19.5735 99.9563 18.6738C99.0897 17.7741 98.6563 16.7245 98.6563 15.3749C98.6563 14.0254 99.0897 12.9758 99.9563 12.0761C100.823 11.1764 101.834 10.7266 103.134 10.7266C104.434 10.7266 105.445 11.1764 106.312 12.0761C107.179 12.9758 107.612 14.0254 107.612 15.3749C107.612 16.7245 107.179 17.7741 106.312 18.6738ZM100.823 17.924C101.401 18.5238 102.267 18.9737 103.134 18.9737C104.001 18.9737 104.867 18.6738 105.445 17.924C106.023 17.3243 106.456 16.4246 106.456 15.3749C106.456 14.3253 106.167 13.4256 105.445 12.8258C104.867 12.226 104.001 11.7762 103.134 11.7762C102.267 11.7762 101.401 12.0761 100.823 12.8258C100.245 13.4256 99.8119 14.3253 99.8119 15.3749C99.8119 16.4246 100.101 17.3243 100.823 17.924ZM109.201 19.8734V10.8765H110.501L114.69 17.924V10.8765H115.845V19.8734H114.69L110.212 12.5259V19.8734H109.201Z" fill="white"/>
<path fill-rule="evenodd" clip-rule="evenodd" d="M64.2785 10.878C63.0167 10.878 62.0424 11.3121 61.2028 12.1836C60.3633 13.0551 59.9451 14.0666 59.9451 15.3764C59.9451 16.6863 60.3633 17.6978 61.2028 18.5693C62.0424 19.4408 63.0167 19.8749 64.2785 19.8749C65.5402 19.8749 66.5146 19.4408 67.3541 18.5693C68.0397 17.8576 68.3229 16.8528 68.3229 15.6763V15.2265H64.4229V16.1262H67.6007V16.2761C67.6007 17.0698 67.2936 17.7067 66.8362 18.1815C66.4645 18.5674 66.0878 18.8425 65.6693 19.0203C65.2509 19.1979 64.7981 19.2751 64.2785 19.2751C63.3605 19.2751 62.6053 18.7973 61.8771 18.1926C61.1091 17.5548 60.8118 16.6036 60.8118 15.5264C60.8118 14.455 61.1059 13.5084 61.8646 12.8706C62.4772 12.0852 63.3864 11.7777 64.2785 11.7777C65.2656 11.7777 66.0053 12.0572 66.5988 12.7556L67.1233 12.2112C66.8568 11.8475 66.4721 11.5845 65.9472 11.312C65.3871 11.0213 64.8313 10.878 64.2785 10.878ZM60.9986 11.9716C61.8924 11.0437 62.9402 10.5781 64.2785 10.5781C64.8812 10.5781 65.481 10.7347 66.0764 11.0438C66.6603 11.3469 67.1217 11.6612 67.432 12.1444L67.4977 12.2467L66.5776 13.2018L66.4768 13.071C65.9319 12.3639 65.2553 12.0776 64.2785 12.0776C63.4421 12.0776 62.623 12.3665 62.0802 13.071L62.0701 13.084L62.0576 13.0944C61.3812 13.6561 61.1007 14.5044 61.1007 15.5264C61.1007 16.5484 61.3812 17.3967 62.0576 17.9584C62.7738 18.5532 63.4631 18.9752 64.2785 18.9752C64.7699 18.9752 65.1839 18.9024 65.5599 18.7427C65.9358 18.583 66.2813 18.3334 66.6319 17.9695C67.0117 17.5752 67.2722 17.0621 67.3077 16.4261H64.134V14.9266H68.6118V15.6763C68.6118 16.899 68.3173 17.9935 67.5584 18.7813C66.6646 19.7092 65.6167 20.1748 64.2785 20.1748C62.9402 20.1748 61.8924 19.7092 60.9986 18.7813C60.1047 17.8535 59.6562 16.7657 59.6562 15.3764C59.6562 13.9872 60.1047 12.8994 60.9986 11.9716ZM103.134 10.878C101.872 10.878 100.898 11.3121 100.058 12.1836C99.2189 13.0551 98.8007 14.0666 98.8007 15.3764C98.8007 16.6863 99.2189 17.6978 100.058 18.5693C100.898 19.4408 101.872 19.8749 103.134 19.8749C104.396 19.8749 105.37 19.4408 106.21 18.5693C107.049 17.6978 107.467 16.6863 107.467 15.3764C107.467 14.0666 107.049 13.0551 106.21 12.1836C105.37 11.3121 104.396 10.878 103.134 10.878ZM99.8541 11.9716C100.748 11.0437 101.796 10.5781 103.134 10.5781C104.472 10.5781 105.52 11.0437 106.414 11.9716C107.308 12.8994 107.756 13.9872 107.756 15.3764C107.756 16.7657 107.308 17.8535 106.414 18.7813C105.52 19.7092 104.472 20.1748 103.134 20.1748C101.796 20.1748 100.748 19.7092 99.8541 18.7813C98.9603 17.8535 98.5118 16.7657 98.5118 15.3764C98.5118 13.9872 98.9603 12.8994 99.8541 11.9716ZM69.9118 10.7281H75.2562V12.0776H71.3562V14.6267H74.9674V15.9762H71.3562V18.5253H75.2562V20.0248H69.9118V10.7281ZM70.2007 11.028V19.7249H74.9674V18.8252H71.0674V15.6763H74.6785V14.9266H71.0674V11.7777H74.9674V11.028H70.2007ZM76.1229 10.7281H82.4785V12.0776H80.0229V20.0248H78.5785V12.0776H76.1229V10.7281ZM76.4118 11.028V11.7777H78.8674V19.7249H79.734V11.7777H82.1896V11.028H76.4118ZM86.3785 10.7281H87.8229V20.0248H86.3785V10.7281ZM86.6674 11.028V19.7249H87.534V11.028H86.6674ZM88.834 10.7281H95.0451V12.0776H92.5896L92.5896 20.0248H91.2896V12.0776H88.834V10.7281ZM92.3007 19.7249H91.5785V11.7777H89.1229V11.028H94.7562V11.7777H92.3007V19.7249ZM109.056 10.7281H110.581L114.545 17.397V10.7281H115.99V20.0248H114.61L110.356 13.0449V20.0248H109.056V10.7281ZM109.345 11.028V19.7249H110.067V12.01L114.769 19.7249H115.701V11.028H114.834V18.4541L110.42 11.028H109.345ZM100.715 12.7272C101.328 11.937 102.239 11.6278 103.134 11.6278C104.043 11.6278 104.942 12.0959 105.542 12.7155C106.305 13.3533 106.601 14.3021 106.601 15.3764C106.601 16.4661 106.152 17.4005 105.553 18.0257C104.94 18.8159 104.029 19.1251 103.134 19.1251C102.225 19.1251 101.326 18.657 100.726 18.0374C99.9631 17.3997 99.6674 16.4508 99.6674 15.3764C99.6674 14.2868 100.116 13.3523 100.715 12.7272ZM103.134 11.9277C102.298 11.9277 101.479 12.2165 100.936 12.921L100.931 12.9275L100.925 12.9334C100.372 13.5078 99.9562 14.3703 99.9562 15.3764C99.9562 16.3985 100.237 17.2467 100.913 17.8085L100.919 17.8137L100.925 17.8195C101.481 18.3966 102.312 18.8252 103.134 18.8252C103.97 18.8252 104.789 18.5364 105.332 17.8319L105.337 17.8254L105.343 17.8195C105.896 17.2451 106.312 16.3826 106.312 15.3764C106.312 14.3544 106.031 13.5062 105.355 12.9444L105.349 12.9392L105.343 12.9334C104.787 12.3563 103.956 11.9277 103.134 11.9277Z" fill="white"/>
<path d="M98.3672 33.071C94.9005 33.071 92.1561 35.77 92.1561 39.5187C92.1561 43.1175 94.9005 45.9665 98.3672 45.9665C101.834 45.9665 104.578 43.2674 104.578 39.5187C104.578 35.6201 101.834 33.071 98.3672 33.071ZM98.3672 43.2674C96.4894 43.2674 94.9005 41.618 94.9005 39.3688C94.9005 37.1196 96.4894 35.4701 98.3672 35.4701C100.245 35.4701 101.834 36.9696 101.834 39.3688C101.834 41.618 100.245 43.2674 98.3672 43.2674ZM84.9339 33.071C81.4672 33.071 78.7227 35.77 78.7227 39.5187C78.7227 43.1175 81.4672 45.9665 84.9339 45.9665C88.4005 45.9665 91.145 43.2674 91.145 39.5187C91.145 35.6201 88.4005 33.071 84.9339 33.071ZM84.9339 43.2674C83.0561 43.2674 81.4672 41.618 81.4672 39.3688C81.4672 37.1196 83.0561 35.4701 84.9339 35.4701C86.8116 35.4701 88.4005 36.9696 88.4005 39.3688C88.4005 41.618 86.8116 43.2674 84.9339 43.2674ZM68.9005 35.0203V37.7193H75.1116C74.9672 39.2188 74.3894 40.4184 73.6672 41.1681C72.8005 42.0678 71.3561 43.1175 68.9005 43.1175C65.0005 43.1175 62.1116 39.9686 62.1116 35.92C62.1116 31.8714 65.145 28.7225 68.9005 28.7225C70.9227 28.7225 72.5116 29.6222 73.6672 30.6718L75.545 28.7225C73.9561 27.223 71.9339 26.0234 69.045 26.0234C63.845 26.0234 59.3672 30.5219 59.3672 35.92C59.3672 41.3181 63.845 45.8165 69.045 45.8165C71.9339 45.8165 73.9561 44.9168 75.6894 42.9675C77.4227 41.1681 78.0005 38.619 78.0005 36.6697C78.0005 36.0699 78.0005 35.4701 77.8561 35.0203H68.9005ZM134.478 37.1196C133.901 35.6201 132.456 33.071 129.278 33.071C126.101 33.071 123.501 35.6201 123.501 39.5187C123.501 43.1175 126.101 45.9665 129.567 45.9665C132.312 45.9665 134.045 44.1671 134.623 43.1175L132.601 41.618C131.878 42.6676 131.012 43.4174 129.567 43.4174C128.123 43.4174 127.256 42.8176 126.534 41.468L134.767 37.8693L134.478 37.1196ZM126.101 39.2188C126.101 36.8197 127.978 35.4701 129.278 35.4701C130.289 35.4701 131.301 36.0699 131.589 36.8197L126.101 39.2188ZM119.312 45.3667H122.056V26.6232H119.312V45.3667ZM114.978 34.4205C114.256 33.6708 113.101 32.921 111.656 32.921C108.623 32.921 105.734 35.77 105.734 39.3688C105.734 42.9675 108.478 45.6666 111.656 45.6666C113.101 45.6666 114.256 44.9168 114.834 44.1671H114.978V45.0668C114.978 47.4659 113.678 48.8155 111.656 48.8155C110.067 48.8155 108.912 47.6159 108.623 46.5662L106.312 47.6159C107.034 49.2653 108.767 51.3646 111.801 51.3646C114.978 51.3646 117.578 49.4153 117.578 44.7669V33.3709H114.978V34.4205ZM111.801 43.2674C109.923 43.2674 108.334 41.618 108.334 39.3688C108.334 37.1196 109.923 35.4701 111.801 35.4701C113.678 35.4701 115.123 37.1196 115.123 39.3688C115.123 41.618 113.678 43.2674 111.801 43.2674ZM147.045 26.6232H140.545V45.3667H143.289V38.3191H147.045C150.078 38.3191 152.967 36.0699 152.967 32.4712C152.967 28.8724 150.078 26.6232 147.045 26.6232ZM147.189 35.6201H143.289V29.1723H147.189C149.212 29.1723 150.367 30.9717 150.367 32.3212C150.223 33.9707 149.067 35.6201 147.189 35.6201ZM163.801 32.921C161.778 32.921 159.756 33.8207 159.034 35.77L161.489 36.8197C162.067 35.77 162.934 35.4701 163.945 35.4701C165.389 35.4701 166.689 36.3698 166.834 37.8693V38.0192C166.401 37.7193 165.245 37.2695 164.089 37.2695C161.489 37.2695 158.889 38.769 158.889 41.468C158.889 44.0171 161.056 45.6666 163.367 45.6666C165.245 45.6666 166.112 44.7669 166.834 43.8672H166.978V45.3667H169.578V38.1692C169.289 34.8703 166.834 32.921 163.801 32.921ZM163.512 43.2674C162.645 43.2674 161.345 42.8176 161.345 41.618C161.345 40.1185 162.934 39.6687 164.234 39.6687C165.389 39.6687 165.967 39.9686 166.689 40.2685C166.401 42.0678 164.956 43.2674 163.512 43.2674ZM178.678 33.3709L175.645 41.468H175.501L172.323 33.3709H169.434L174.201 44.7669L171.456 51.0647H174.201L181.567 33.3709H178.678ZM154.412 45.3667H157.156V26.6232H154.412V45.3667Z" fill="white"/>
<path d="M15.0231 11.6328C14.5898 12.0827 14.4453 12.8324 14.4453 13.7321V46.8705C14.4453 47.7702 14.7342 48.5199 15.1675 48.9697L15.312 49.1197L33.2231 30.5262V30.2263L15.0231 11.6328Z" fill="white"/>
<path d="M39.0003 36.8237L33.0781 30.6758V30.226L39.0003 24.0781L39.1448 24.2281L46.2226 28.4266C48.2448 29.6262 48.2448 31.5755 46.2226 32.7751L39.0003 36.8237Z" fill="white"/>
<path d="M39.1457 36.6728L33.079 30.375L15.0234 49.1184C15.7457 49.8682 16.7568 49.8682 18.0568 49.2684L39.1457 36.6728Z" fill="white"/>
<path d="M39.1457 24.0792L18.0568 11.6335C16.7568 10.8838 15.7457 11.0338 15.0234 11.7835L33.079 30.377L39.1457 24.0792Z" fill="white"/>
<path opacity="0.2" d="M39.0012 36.5234L18.0568 48.8191C16.9012 49.5689 15.8901 49.4189 15.1679 48.8191L15.0234 48.9691L15.1679 49.119C15.8901 49.7188 16.9012 49.8688 18.0568 49.119L39.0012 36.5234Z" fill="white"/>
<path opacity="0.12" d="M15.0231 48.8185C14.5898 48.3687 14.4453 47.619 14.4453 46.7193V46.8692C14.4453 47.7689 14.7342 48.5187 15.1675 48.9685V48.8185H15.0231ZM46.2231 32.3243L39.0009 36.5228L39.1453 36.6728L46.2231 32.4743C47.2342 31.8745 47.6675 31.1247 47.6675 30.375C47.6675 31.1247 47.0898 31.7245 46.2231 32.3243Z" fill="white"/>
<path opacity="0.25" d="M18.0564 11.7805L46.2231 28.4247C47.0898 29.0245 47.6675 29.6243 47.6675 30.374C47.6675 29.6243 47.2342 28.8746 46.2231 28.2748L18.0564 11.6306C16.0342 10.431 14.4453 11.3307 14.4453 13.7299V13.8798C14.4453 11.6306 16.0342 10.581 18.0564 11.7805Z" fill="white"/>
</g>
<defs>
<clipPath id="clip0_9015_683">
<rect width="195" height="60" fill="white" transform="translate(0 0.371094)"/>
</clipPath>
</defs>
</svg>
