<svg width="511" height="542" viewBox="0 0 511 542" fill="none" xmlns="http://www.w3.org/2000/svg">
<rect width="511" height="540" transform="translate(0 0.885742)" fill="#BFC3B0"/>
<rect y="0.885742" width="511" height="540.271" fill="#E1E2DB" fill-opacity="0.5"/>
<g filter="url(#filter0_d_6_2910)">
<rect x="91" y="216" width="329" height="212" rx="6" fill="#151515"/>
</g>
<path d="M81.1792 216.908C81.1792 210.49 86.3822 205.287 92.8006 205.287L418.199 205.287C424.618 205.287 429.821 210.49 429.821 216.908L429.821 426.093C429.821 432.512 424.618 437.715 418.199 437.715L92.8006 437.715C86.3822 437.715 81.1792 432.512 81.1792 426.093L81.1792 216.908Z" fill="url(#paint0_linear_6_2910)"/>
<path fill-rule="evenodd" clip-rule="evenodd" d="M390.865 228.918C390.865 229.154 391.057 229.353 391.3 229.353L397.653 229.353C397.889 229.353 398.087 229.161 398.087 228.918L398.087 222.539C398.087 222.303 397.895 222.105 397.653 222.105L391.3 222.105C391.063 222.105 390.865 222.297 390.865 222.539L390.865 228.918Z" fill="#464E41"/>
<path fill-rule="evenodd" clip-rule="evenodd" d="M397.647 236.421C397.647 236.658 397.839 236.855 398.081 236.855L405.175 236.855C405.411 236.855 405.609 236.664 405.609 236.421L405.609 229.346C405.609 229.11 405.418 228.913 405.175 228.913L398.081 228.913C397.845 228.913 397.647 229.104 397.647 229.346L397.647 236.421Z" fill="#464E41"/>
<path fill-rule="evenodd" clip-rule="evenodd" d="M405.137 243.905C405.137 244.141 405.328 244.339 405.571 244.339L412.665 244.339C412.901 244.339 413.099 244.147 413.099 243.905L413.099 236.811C413.099 236.575 412.907 236.377 412.665 236.377L405.571 236.377C405.335 236.377 405.137 236.568 405.137 236.811L405.137 243.905Z" fill="#464E41"/>
<path fill-rule="evenodd" clip-rule="evenodd" d="M397.647 251.279C397.647 251.516 397.839 251.714 398.081 251.714L405.175 251.714C405.411 251.714 405.609 251.522 405.609 251.279L405.609 244.186C405.609 243.949 405.418 243.751 405.175 243.751L398.081 243.751C397.845 243.751 397.647 243.943 397.647 244.186L397.647 251.279Z" fill="#464E41"/>
<path fill-rule="evenodd" clip-rule="evenodd" d="M392.053 243.03C392.053 243.266 392.244 243.464 392.487 243.464L396.784 243.464C397.02 243.464 397.218 243.272 397.218 243.03L397.218 238.733C397.218 238.496 397.027 238.298 396.784 238.298L392.487 238.298C392.25 238.298 392.053 238.49 392.053 238.733L392.053 243.03Z" fill="#464E41"/>
<path fill-rule="evenodd" clip-rule="evenodd" d="M389.211 245.871C389.211 246.107 389.403 246.306 389.646 246.306L391.619 246.306C391.855 246.306 392.053 246.114 392.053 245.871L392.053 243.898C392.053 243.662 391.861 243.464 391.619 243.464L389.646 243.464C389.41 243.464 389.211 243.656 389.211 243.898L389.211 245.871Z" fill="#464E41"/>
<path d="M167.752 285.855C169.513 287.615 170.501 290.003 170.501 292.493C170.501 294.983 169.513 297.37 167.752 299.131" stroke="#ECEDEB" stroke-width="1.5" stroke-linecap="round"/>
<path d="M164.433 289.173C165.313 290.054 165.808 291.248 165.808 292.492C165.808 293.737 165.313 294.932 164.433 295.812" stroke="#ECEDEB" stroke-width="1.5" stroke-linecap="round"/>
<path d="M159.549 292.492C159.549 293.356 160.25 294.056 161.114 294.056C161.978 294.056 162.678 293.356 162.678 292.492C162.678 291.627 161.978 290.927 161.114 290.927C160.25 290.927 159.549 291.627 159.549 292.492Z" fill="#ECEDEB"/>
<path d="M171.071 282.535C173.712 285.176 175.195 288.757 175.195 292.492C175.195 296.227 173.712 299.808 171.071 302.449" stroke="#ECEDEB" stroke-width="1.5" stroke-linecap="round"/>
<path d="M109.068 357.586H106.81V342.694L102.159 344.464V342.401L108.885 339.813H109.068V357.586ZM128.66 357.586H117.014V355.963L122.837 349.493C123.358 348.915 123.793 348.403 124.143 347.955C124.493 347.507 124.774 347.092 124.985 346.71C125.197 346.336 125.347 345.982 125.437 345.648C125.527 345.306 125.571 344.956 125.571 344.598C125.571 344.159 125.498 343.748 125.352 343.365C125.213 342.975 125.01 342.637 124.741 342.352C124.465 342.067 124.131 341.843 123.74 341.681C123.358 341.51 122.922 341.424 122.434 341.424C121.84 341.424 121.323 341.51 120.884 341.681C120.452 341.852 120.094 342.092 119.81 342.401C119.517 342.718 119.297 343.101 119.15 343.548C119.012 343.996 118.943 344.496 118.943 345.05H116.672C116.672 344.301 116.803 343.597 117.063 342.938C117.323 342.271 117.702 341.689 118.198 341.192C118.687 340.696 119.285 340.301 119.993 340.008C120.709 339.715 121.523 339.569 122.434 339.569C123.272 339.569 124.025 339.695 124.692 339.947C125.368 340.191 125.938 340.533 126.401 340.973C126.865 341.412 127.219 341.933 127.463 342.535C127.716 343.137 127.842 343.792 127.842 344.5C127.842 345.029 127.752 345.554 127.573 346.075C127.394 346.588 127.154 347.097 126.853 347.601C126.544 348.106 126.186 348.606 125.779 349.103C125.38 349.591 124.957 350.079 124.509 350.567L119.736 355.743H128.66V357.586ZM136.41 347.613H138.021C138.591 347.613 139.092 347.536 139.523 347.381C139.962 347.227 140.333 347.015 140.634 346.747C140.927 346.478 141.151 346.157 141.305 345.782C141.46 345.408 141.537 344.997 141.537 344.549C141.537 344.02 141.468 343.561 141.33 343.17C141.191 342.771 140.988 342.442 140.719 342.181C140.459 341.929 140.133 341.742 139.743 341.62C139.36 341.489 138.921 341.424 138.424 341.424C137.944 341.424 137.505 341.498 137.106 341.644C136.715 341.782 136.382 341.986 136.105 342.254C135.82 342.523 135.6 342.844 135.446 343.219C135.291 343.593 135.214 344.012 135.214 344.476H132.943C132.943 343.801 133.074 343.166 133.334 342.572C133.603 341.97 133.977 341.445 134.457 340.997C134.937 340.558 135.511 340.212 136.178 339.959C136.854 339.699 137.602 339.569 138.424 339.569C139.222 339.569 139.95 339.679 140.609 339.898C141.269 340.11 141.834 340.427 142.306 340.851C142.778 341.274 143.144 341.799 143.405 342.425C143.665 343.052 143.795 343.776 143.795 344.598C143.795 344.94 143.743 345.294 143.637 345.66C143.531 346.026 143.368 346.38 143.148 346.722C142.929 347.072 142.644 347.402 142.294 347.711C141.952 348.012 141.541 348.264 141.061 348.468C141.639 348.655 142.119 348.899 142.501 349.2C142.892 349.501 143.205 349.839 143.441 350.213C143.669 350.588 143.828 350.982 143.917 351.397C144.015 351.812 144.064 352.223 144.064 352.63C144.064 353.46 143.922 354.197 143.637 354.84C143.352 355.483 142.957 356.024 142.453 356.463C141.948 356.911 141.35 357.253 140.658 357.489C139.975 357.717 139.234 357.831 138.437 357.831C137.655 357.831 136.919 357.721 136.227 357.501C135.543 357.281 134.949 356.96 134.445 356.537C133.94 356.113 133.537 355.597 133.236 354.986C132.943 354.376 132.797 353.68 132.797 352.899H135.055C135.055 353.363 135.132 353.786 135.287 354.168C135.45 354.551 135.678 354.876 135.971 355.145C136.264 355.414 136.618 355.621 137.033 355.768C137.456 355.914 137.924 355.987 138.437 355.987C138.949 355.987 139.413 355.922 139.828 355.792C140.243 355.654 140.597 355.446 140.89 355.169C141.183 354.893 141.407 354.551 141.562 354.144C141.724 353.729 141.806 353.241 141.806 352.679C141.806 352.126 141.712 351.65 141.525 351.251C141.346 350.844 141.094 350.506 140.768 350.238C140.434 349.969 140.032 349.77 139.56 349.64C139.096 349.509 138.583 349.444 138.021 349.444H136.41V347.613ZM158.943 351.617H161.421V353.46H158.943V357.586H156.685V353.46H148.58V352.13L156.539 339.813H158.943V351.617ZM151.082 351.617H156.685V342.816L156.319 343.5L151.082 351.617Z" fill="#ECEDEB"/>
<path d="M183.253 348.675L184.145 339.813H193.263V342.01H186.049L185.548 346.747C185.898 346.543 186.317 346.364 186.806 346.209C187.294 346.055 187.86 345.978 188.502 345.978C189.324 345.978 190.061 346.12 190.712 346.405C191.363 346.69 191.916 347.088 192.372 347.601C192.828 348.122 193.178 348.749 193.422 349.481C193.666 350.213 193.788 351.027 193.788 351.922C193.788 352.769 193.674 353.554 193.446 354.278C193.218 355.003 192.877 355.625 192.421 356.146C191.957 356.675 191.375 357.09 190.675 357.391C189.975 357.684 189.153 357.831 188.209 357.831C187.485 357.831 186.802 357.729 186.159 357.525C185.516 357.322 184.946 357.017 184.45 356.61C183.945 356.203 183.53 355.69 183.205 355.072C182.887 354.453 182.688 353.733 182.606 352.911H184.755C184.893 353.92 185.264 354.685 185.866 355.206C186.476 355.727 187.257 355.987 188.209 355.987C188.747 355.987 189.223 355.894 189.638 355.707C190.053 355.511 190.403 355.235 190.688 354.876C190.964 354.527 191.172 354.103 191.31 353.607C191.457 353.111 191.53 352.557 191.53 351.947C191.53 351.393 191.448 350.877 191.286 350.396C191.131 349.916 190.903 349.497 190.602 349.139C190.301 348.789 189.931 348.513 189.491 348.309C189.052 348.106 188.547 348.004 187.978 348.004C187.603 348.004 187.278 348.032 187.001 348.089C186.732 348.138 186.488 348.211 186.269 348.309C186.049 348.407 185.841 348.525 185.646 348.663C185.459 348.801 185.264 348.96 185.06 349.139L183.253 348.675ZM206.788 339.801V341.827H206.592C205.518 341.827 204.607 341.982 203.858 342.291C203.109 342.592 202.491 342.999 202.002 343.512C201.49 344.049 201.099 344.688 200.831 345.428C200.57 346.169 200.416 346.93 200.367 347.711C200.578 347.459 200.822 347.227 201.099 347.015C201.376 346.795 201.677 346.604 202.002 346.441C202.32 346.287 202.662 346.165 203.028 346.075C203.402 345.978 203.793 345.929 204.2 345.929C205.087 345.929 205.852 346.1 206.495 346.441C207.138 346.775 207.667 347.219 208.082 347.772C208.497 348.325 208.802 348.952 208.997 349.652C209.192 350.352 209.29 351.064 209.29 351.788C209.29 352.618 209.172 353.399 208.936 354.132C208.708 354.864 208.362 355.503 207.898 356.048C207.435 356.602 206.857 357.037 206.165 357.354C205.481 357.672 204.688 357.831 203.785 357.831C202.873 357.831 202.072 357.647 201.38 357.281C200.688 356.915 200.106 356.439 199.634 355.853C199.105 355.21 198.711 354.461 198.45 353.607C198.19 352.744 198.06 351.882 198.06 351.019V349.957C198.06 348.476 198.235 347.019 198.584 345.587C198.934 344.155 199.618 342.93 200.635 341.913C201.335 341.213 202.186 340.688 203.187 340.338C204.188 339.98 205.323 339.801 206.592 339.801H206.788ZM203.833 347.809C203.451 347.809 203.081 347.87 202.723 347.992C202.365 348.114 202.031 348.285 201.722 348.504C201.412 348.724 201.14 348.989 200.904 349.298C200.668 349.607 200.481 349.949 200.342 350.323V351.08C200.342 351.861 200.436 352.557 200.623 353.167C200.81 353.77 201.062 354.278 201.38 354.693C201.697 355.108 202.063 355.426 202.479 355.646C202.894 355.857 203.329 355.963 203.785 355.963C204.314 355.963 204.782 355.861 205.188 355.658C205.595 355.454 205.941 355.174 206.226 354.815C206.503 354.457 206.71 354.03 206.849 353.534C206.995 353.029 207.068 352.484 207.068 351.898C207.068 351.377 207.003 350.873 206.873 350.384C206.743 349.888 206.543 349.448 206.275 349.066C206.006 348.683 205.669 348.378 205.262 348.15C204.855 347.923 204.379 347.809 203.833 347.809ZM225.732 341.083L218.371 357.586H216.003L223.339 341.791H213.72V339.813H225.732V341.083ZM241.429 344.452C241.421 345.046 241.307 345.603 241.087 346.124C240.868 346.637 240.562 347.088 240.172 347.479C239.985 347.666 239.777 347.841 239.549 348.004C239.321 348.167 239.077 348.313 238.817 348.443C239.273 348.639 239.684 348.883 240.05 349.176C240.424 349.461 240.746 349.79 241.014 350.165C241.275 350.539 241.474 350.946 241.612 351.385C241.759 351.825 241.832 352.293 241.832 352.789C241.832 353.595 241.681 354.311 241.38 354.938C241.087 355.564 240.689 356.089 240.184 356.512C239.671 356.944 239.073 357.273 238.39 357.501C237.706 357.721 236.974 357.831 236.192 357.831C235.395 357.831 234.65 357.721 233.958 357.501C233.275 357.281 232.681 356.956 232.176 356.524C231.664 356.101 231.261 355.576 230.968 354.95C230.675 354.323 230.528 353.603 230.528 352.789C230.528 352.293 230.597 351.825 230.736 351.385C230.874 350.938 231.074 350.527 231.334 350.152C231.594 349.786 231.908 349.457 232.274 349.164C232.64 348.871 233.051 348.626 233.507 348.431C233.116 348.236 232.762 348.004 232.445 347.735C232.127 347.459 231.859 347.149 231.639 346.808C231.419 346.474 231.249 346.108 231.126 345.709C231.004 345.31 230.943 344.891 230.943 344.452C230.943 343.679 231.074 342.991 231.334 342.389C231.594 341.778 231.957 341.266 232.42 340.851C232.876 340.436 233.421 340.118 234.056 339.898C234.699 339.679 235.399 339.569 236.156 339.569C236.904 339.569 237.6 339.679 238.243 339.898C238.886 340.118 239.444 340.436 239.916 340.851C240.388 341.266 240.758 341.778 241.026 342.389C241.295 342.991 241.429 343.679 241.429 344.452ZM239.574 352.74C239.574 352.244 239.488 351.788 239.317 351.373C239.155 350.958 238.923 350.6 238.622 350.299C238.32 350.006 237.958 349.778 237.535 349.615C237.12 349.452 236.664 349.371 236.168 349.371C235.655 349.371 235.191 349.452 234.776 349.615C234.361 349.778 234.007 350.006 233.714 350.299C233.421 350.6 233.194 350.958 233.031 351.373C232.876 351.788 232.799 352.244 232.799 352.74C232.799 353.253 232.876 353.713 233.031 354.12C233.194 354.518 233.421 354.856 233.714 355.133C234.007 355.41 234.361 355.621 234.776 355.768C235.2 355.914 235.672 355.987 236.192 355.987C236.689 355.987 237.145 355.914 237.56 355.768C237.975 355.621 238.333 355.41 238.634 355.133C238.927 354.856 239.155 354.518 239.317 354.12C239.488 353.713 239.574 353.253 239.574 352.74ZM239.159 344.488C239.159 344.041 239.081 343.63 238.927 343.255C238.78 342.881 238.577 342.556 238.316 342.279C238.048 342.01 237.73 341.803 237.364 341.656C236.998 341.502 236.595 341.424 236.156 341.424C235.716 341.424 235.318 341.498 234.959 341.644C234.601 341.782 234.292 341.986 234.032 342.254C233.771 342.523 233.568 342.848 233.421 343.231C233.283 343.605 233.214 344.024 233.214 344.488C233.214 344.952 233.283 345.371 233.421 345.746C233.568 346.112 233.775 346.425 234.044 346.686C234.304 346.954 234.614 347.162 234.972 347.308C235.338 347.446 235.741 347.516 236.18 347.516C236.611 347.516 237.01 347.446 237.376 347.308C237.743 347.162 238.06 346.954 238.329 346.686C238.589 346.425 238.792 346.108 238.939 345.733C239.085 345.359 239.159 344.944 239.159 344.488Z" fill="#ECEDEB"/>
<path d="M265.58 355.584C266.719 355.584 267.667 355.45 268.424 355.182C269.189 354.905 269.803 354.518 270.267 354.022C270.829 353.412 271.207 352.757 271.403 352.057C271.598 351.357 271.716 350.632 271.757 349.884V349.859C271.561 350.104 271.337 350.335 271.085 350.555C270.833 350.767 270.548 350.954 270.231 351.117C269.913 351.279 269.559 351.41 269.169 351.507C268.786 351.597 268.367 351.642 267.911 351.642C267.032 351.642 266.272 351.471 265.629 351.129C264.994 350.779 264.469 350.323 264.054 349.762C263.639 349.2 263.334 348.565 263.138 347.857C262.943 347.149 262.845 346.437 262.845 345.721C262.845 344.883 262.959 344.094 263.187 343.353C263.423 342.604 263.773 341.949 264.237 341.388C264.693 340.834 265.262 340.395 265.946 340.069C266.638 339.736 267.439 339.569 268.351 339.569C269.262 339.569 270.052 339.74 270.719 340.082C271.394 340.415 271.96 340.859 272.416 341.412C272.953 342.063 273.356 342.877 273.624 343.854C273.893 344.822 274.027 345.79 274.027 346.759V347.577C274.027 348.952 273.881 350.335 273.588 351.727C273.295 353.111 272.668 354.339 271.708 355.414C271.13 356.065 270.328 356.594 269.303 357C268.286 357.399 267.045 357.599 265.58 357.599H265.348V355.584H265.58ZM268.278 349.774C268.66 349.774 269.03 349.713 269.388 349.591C269.755 349.461 270.092 349.278 270.402 349.042C270.703 348.814 270.971 348.545 271.207 348.236C271.451 347.918 271.643 347.569 271.781 347.186V346.454C271.781 345.664 271.687 344.96 271.5 344.342C271.321 343.723 271.077 343.198 270.768 342.767C270.45 342.344 270.084 342.018 269.669 341.791C269.262 341.563 268.827 341.449 268.363 341.449C267.834 341.449 267.366 341.555 266.959 341.766C266.552 341.978 266.211 342.267 265.934 342.633C265.649 343.007 265.433 343.451 265.287 343.963C265.14 344.468 265.067 345.013 265.067 345.599C265.067 346.12 265.132 346.633 265.262 347.137C265.393 347.634 265.592 348.077 265.861 348.468C266.121 348.858 266.451 349.176 266.849 349.42C267.256 349.656 267.732 349.774 268.278 349.774ZM290.323 350.787C290.323 351.918 290.192 352.923 289.932 353.802C289.671 354.673 289.297 355.405 288.809 356C288.321 356.602 287.722 357.057 287.014 357.367C286.306 357.676 285.497 357.831 284.585 357.831C283.682 357.831 282.872 357.68 282.156 357.379C281.44 357.07 280.834 356.61 280.337 356C279.841 355.405 279.462 354.673 279.202 353.802C278.941 352.923 278.811 351.918 278.811 350.787V346.625C278.811 345.493 278.941 344.492 279.202 343.622C279.462 342.743 279.841 342.002 280.337 341.4C280.825 340.798 281.424 340.342 282.132 340.033C282.848 339.715 283.657 339.557 284.561 339.557C285.472 339.557 286.282 339.715 286.99 340.033C287.706 340.342 288.312 340.798 288.809 341.4C289.297 342.002 289.671 342.743 289.932 343.622C290.192 344.492 290.323 345.493 290.323 346.625V350.787ZM281.082 350.335L288.003 345.025C287.938 344.439 287.82 343.923 287.649 343.475C287.486 343.019 287.263 342.641 286.978 342.34C286.701 342.031 286.359 341.799 285.952 341.644C285.554 341.489 285.09 341.412 284.561 341.412C284.024 341.412 283.548 341.498 283.133 341.668C282.726 341.831 282.38 342.071 282.095 342.389C281.753 342.787 281.497 343.304 281.326 343.939C281.163 344.566 281.082 345.294 281.082 346.124V349.103C281.082 349.306 281.082 349.509 281.082 349.713C281.082 349.916 281.082 350.124 281.082 350.335ZM288.052 351.263V348.749C288.052 348.626 288.052 348.395 288.052 348.053C288.052 347.703 288.052 347.414 288.052 347.186L281.143 352.472C281.216 353.066 281.346 353.591 281.533 354.046C281.721 354.494 281.965 354.864 282.266 355.157C282.543 355.434 282.876 355.646 283.267 355.792C283.657 355.93 284.097 356 284.585 356C285.098 356 285.554 355.922 285.952 355.768C286.351 355.613 286.689 355.389 286.966 355.096C287.34 354.697 287.613 354.177 287.783 353.534C287.962 352.891 288.052 352.134 288.052 351.263ZM306.337 350.787C306.337 351.918 306.207 352.923 305.947 353.802C305.686 354.673 305.312 355.405 304.823 356C304.335 356.602 303.737 357.057 303.029 357.367C302.321 357.676 301.511 357.831 300.6 357.831C299.697 357.831 298.887 357.68 298.171 357.379C297.455 357.07 296.848 356.61 296.352 356C295.855 355.405 295.477 354.673 295.217 353.802C294.956 352.923 294.826 351.918 294.826 350.787V346.625C294.826 345.493 294.956 344.492 295.217 343.622C295.477 342.743 295.855 342.002 296.352 341.4C296.84 340.798 297.438 340.342 298.146 340.033C298.862 339.715 299.672 339.557 300.575 339.557C301.487 339.557 302.297 339.715 303.005 340.033C303.721 340.342 304.327 340.798 304.823 341.4C305.312 342.002 305.686 342.743 305.947 343.622C306.207 344.492 306.337 345.493 306.337 346.625V350.787ZM297.096 350.335L304.018 345.025C303.953 344.439 303.835 343.923 303.664 343.475C303.501 343.019 303.277 342.641 302.992 342.34C302.716 342.031 302.374 341.799 301.967 341.644C301.568 341.489 301.104 341.412 300.575 341.412C300.038 341.412 299.562 341.498 299.147 341.668C298.74 341.831 298.394 342.071 298.11 342.389C297.768 342.787 297.511 343.304 297.341 343.939C297.178 344.566 297.096 345.294 297.096 346.124V349.103C297.096 349.306 297.096 349.509 297.096 349.713C297.096 349.916 297.096 350.124 297.096 350.335ZM304.067 351.263V348.749C304.067 348.626 304.067 348.395 304.067 348.053C304.067 347.703 304.067 347.414 304.067 347.186L297.157 352.472C297.231 353.066 297.361 353.591 297.548 354.046C297.735 354.494 297.979 354.864 298.281 355.157C298.557 355.434 298.891 355.646 299.281 355.792C299.672 355.93 300.112 356 300.6 356C301.113 356 301.568 355.922 301.967 355.768C302.366 355.613 302.704 355.389 302.98 355.096C303.355 354.697 303.627 354.177 303.798 353.534C303.977 352.891 304.067 352.134 304.067 351.263ZM322.352 350.787C322.352 351.918 322.222 352.923 321.961 353.802C321.701 354.673 321.326 355.405 320.838 356C320.35 356.602 319.752 357.057 319.044 357.367C318.336 357.676 317.526 357.831 316.615 357.831C315.711 357.831 314.901 357.68 314.185 357.379C313.469 357.07 312.863 356.61 312.366 356C311.87 355.405 311.492 354.673 311.231 353.802C310.971 352.923 310.841 351.918 310.841 350.787V346.625C310.841 345.493 310.971 344.492 311.231 343.622C311.492 342.743 311.87 342.002 312.366 341.4C312.855 340.798 313.453 340.342 314.161 340.033C314.877 339.715 315.687 339.557 316.59 339.557C317.502 339.557 318.311 339.715 319.019 340.033C319.735 340.342 320.342 340.798 320.838 341.4C321.326 342.002 321.701 342.743 321.961 343.622C322.222 344.492 322.352 345.493 322.352 346.625V350.787ZM313.111 350.335L320.032 345.025C319.967 344.439 319.849 343.923 319.678 343.475C319.516 343.019 319.292 342.641 319.007 342.34C318.73 342.031 318.389 341.799 317.982 341.644C317.583 341.489 317.119 341.412 316.59 341.412C316.053 341.412 315.577 341.498 315.162 341.668C314.755 341.831 314.409 342.071 314.124 342.389C313.782 342.787 313.526 343.304 313.355 343.939C313.192 344.566 313.111 345.294 313.111 346.124V349.103C313.111 349.306 313.111 349.509 313.111 349.713C313.111 349.916 313.111 350.124 313.111 350.335ZM320.081 351.263V348.749C320.081 348.626 320.081 348.395 320.081 348.053C320.081 347.703 320.081 347.414 320.081 347.186L313.172 352.472C313.245 353.066 313.376 353.591 313.563 354.046C313.75 354.494 313.994 354.864 314.295 355.157C314.572 355.434 314.906 355.646 315.296 355.792C315.687 355.93 316.126 356 316.615 356C317.127 356 317.583 355.922 317.982 355.768C318.38 355.613 318.718 355.389 318.995 355.096C319.369 354.697 319.642 354.177 319.813 353.534C319.992 352.891 320.081 352.134 320.081 351.263Z" fill="#ECEDEB"/>
<path d="M355.011 350.787C355.011 351.918 354.881 352.923 354.62 353.802C354.36 354.673 353.985 355.405 353.497 356C353.009 356.602 352.411 357.057 351.703 357.367C350.995 357.676 350.185 357.831 349.273 357.831C348.37 357.831 347.56 357.68 346.844 357.379C346.128 357.07 345.522 356.61 345.025 356C344.529 355.405 344.151 354.673 343.89 353.802C343.63 352.923 343.5 351.918 343.5 350.787V346.625C343.5 345.493 343.63 344.492 343.89 343.622C344.151 342.743 344.529 342.002 345.025 341.4C345.514 340.798 346.112 340.342 346.82 340.033C347.536 339.715 348.346 339.557 349.249 339.557C350.16 339.557 350.97 339.715 351.678 340.033C352.394 340.342 353.001 340.798 353.497 341.4C353.985 342.002 354.36 342.743 354.62 343.622C354.881 344.492 355.011 345.493 355.011 346.625V350.787ZM345.77 350.335L352.691 345.025C352.626 344.439 352.508 343.923 352.337 343.475C352.175 343.019 351.951 342.641 351.666 342.34C351.389 342.031 351.048 341.799 350.641 341.644C350.242 341.489 349.778 341.412 349.249 341.412C348.712 341.412 348.236 341.498 347.821 341.668C347.414 341.831 347.068 342.071 346.783 342.389C346.441 342.787 346.185 343.304 346.014 343.939C345.851 344.566 345.77 345.294 345.77 346.124V349.103C345.77 349.306 345.77 349.509 345.77 349.713C345.77 349.916 345.77 350.124 345.77 350.335ZM352.74 351.263V348.749C352.74 348.626 352.74 348.395 352.74 348.053C352.74 347.703 352.74 347.414 352.74 347.186L345.831 352.472C345.904 353.066 346.035 353.591 346.222 354.046C346.409 354.494 346.653 354.864 346.954 355.157C347.231 355.434 347.564 355.646 347.955 355.792C348.346 355.93 348.785 356 349.273 356C349.786 356 350.242 355.922 350.641 355.768C351.039 355.613 351.377 355.389 351.654 355.096C352.028 354.697 352.301 354.177 352.472 353.534C352.651 352.891 352.74 352.134 352.74 351.263ZM371.025 350.787C371.025 351.918 370.895 352.923 370.635 353.802C370.374 354.673 370 355.405 369.512 356C369.023 356.602 368.425 357.057 367.717 357.367C367.009 357.676 366.2 357.831 365.288 357.831C364.385 357.831 363.575 357.68 362.859 357.379C362.143 357.07 361.536 356.61 361.04 356C360.544 355.405 360.165 354.673 359.905 353.802C359.644 352.923 359.514 351.918 359.514 350.787V346.625C359.514 345.493 359.644 344.492 359.905 343.622C360.165 342.743 360.544 342.002 361.04 341.4C361.528 340.798 362.126 340.342 362.834 340.033C363.551 339.715 364.36 339.557 365.264 339.557C366.175 339.557 366.985 339.715 367.693 340.033C368.409 340.342 369.015 340.798 369.512 341.4C370 342.002 370.374 342.743 370.635 343.622C370.895 344.492 371.025 345.493 371.025 346.625V350.787ZM361.785 350.335L368.706 345.025C368.641 344.439 368.523 343.923 368.352 343.475C368.189 343.019 367.965 342.641 367.681 342.34C367.404 342.031 367.062 341.799 366.655 341.644C366.257 341.489 365.793 341.412 365.264 341.412C364.727 341.412 364.25 341.498 363.835 341.668C363.429 341.831 363.083 342.071 362.798 342.389C362.456 342.787 362.2 343.304 362.029 343.939C361.866 344.566 361.785 345.294 361.785 346.124V349.103C361.785 349.306 361.785 349.509 361.785 349.713C361.785 349.916 361.785 350.124 361.785 350.335ZM368.755 351.263V348.749C368.755 348.626 368.755 348.395 368.755 348.053C368.755 347.703 368.755 347.414 368.755 347.186L361.846 352.472C361.919 353.066 362.049 353.591 362.236 354.046C362.424 354.494 362.668 354.864 362.969 355.157C363.245 355.434 363.579 355.646 363.97 355.792C364.36 355.93 364.8 356 365.288 356C365.801 356 366.257 355.922 366.655 355.768C367.054 355.613 367.392 355.389 367.668 355.096C368.043 354.697 368.315 354.177 368.486 353.534C368.665 352.891 368.755 352.134 368.755 351.263ZM387.04 350.787C387.04 351.918 386.91 352.923 386.649 353.802C386.389 354.673 386.015 355.405 385.526 356C385.038 356.602 384.44 357.057 383.732 357.367C383.024 357.676 382.214 357.831 381.303 357.831C380.399 357.831 379.59 357.68 378.874 357.379C378.157 357.07 377.551 356.61 377.055 356C376.558 355.405 376.18 354.673 375.919 353.802C375.659 352.923 375.529 351.918 375.529 350.787V346.625C375.529 345.493 375.659 344.492 375.919 343.622C376.18 342.743 376.558 342.002 377.055 341.4C377.543 340.798 378.141 340.342 378.849 340.033C379.565 339.715 380.375 339.557 381.278 339.557C382.19 339.557 383 339.715 383.708 340.033C384.424 340.342 385.03 340.798 385.526 341.4C386.015 342.002 386.389 342.743 386.649 343.622C386.91 344.492 387.04 345.493 387.04 346.625V350.787ZM377.799 350.335L384.721 345.025C384.656 344.439 384.538 343.923 384.367 343.475C384.204 343.019 383.98 342.641 383.695 342.34C383.419 342.031 383.077 341.799 382.67 341.644C382.271 341.489 381.807 341.412 381.278 341.412C380.741 341.412 380.265 341.498 379.85 341.668C379.443 341.831 379.097 342.071 378.812 342.389C378.471 342.787 378.214 343.304 378.043 343.939C377.881 344.566 377.799 345.294 377.799 346.124V349.103C377.799 349.306 377.799 349.509 377.799 349.713C377.799 349.916 377.799 350.124 377.799 350.335ZM384.77 351.263V348.749C384.77 348.626 384.77 348.395 384.77 348.053C384.77 347.703 384.77 347.414 384.77 347.186L377.86 352.472C377.934 353.066 378.064 353.591 378.251 354.046C378.438 354.494 378.682 354.864 378.983 355.157C379.26 355.434 379.594 355.646 379.984 355.792C380.375 355.93 380.814 356 381.303 356C381.815 356 382.271 355.922 382.67 355.768C383.069 355.613 383.406 355.389 383.683 355.096C384.057 354.697 384.33 354.177 384.501 353.534C384.68 352.891 384.77 352.134 384.77 351.263ZM403.055 350.787C403.055 351.918 402.924 352.923 402.664 353.802C402.404 354.673 402.029 355.405 401.541 356C401.053 356.602 400.455 357.057 399.747 357.367C399.039 357.676 398.229 357.831 397.317 357.831C396.414 357.831 395.604 357.68 394.888 357.379C394.172 357.07 393.566 356.61 393.069 356C392.573 355.405 392.194 354.673 391.934 353.802C391.674 352.923 391.543 351.918 391.543 350.787V346.625C391.543 345.493 391.674 344.492 391.934 343.622C392.194 342.743 392.573 342.002 393.069 341.4C393.558 340.798 394.156 340.342 394.864 340.033C395.58 339.715 396.39 339.557 397.293 339.557C398.204 339.557 399.014 339.715 399.722 340.033C400.438 340.342 401.045 340.798 401.541 341.4C402.029 342.002 402.404 342.743 402.664 343.622C402.924 344.492 403.055 345.493 403.055 346.625V350.787ZM393.814 350.335L400.735 345.025C400.67 344.439 400.552 343.923 400.381 343.475C400.219 343.019 399.995 342.641 399.71 342.34C399.433 342.031 399.091 341.799 398.685 341.644C398.286 341.489 397.822 341.412 397.293 341.412C396.756 341.412 396.28 341.498 395.865 341.668C395.458 341.831 395.112 342.071 394.827 342.389C394.485 342.787 394.229 343.304 394.058 343.939C393.895 344.566 393.814 345.294 393.814 346.124V349.103C393.814 349.306 393.814 349.509 393.814 349.713C393.814 349.916 393.814 350.124 393.814 350.335ZM400.784 351.263V348.749C400.784 348.626 400.784 348.395 400.784 348.053C400.784 347.703 400.784 347.414 400.784 347.186L393.875 352.472C393.948 353.066 394.078 353.591 394.266 354.046C394.453 354.494 394.697 354.864 394.998 355.157C395.275 355.434 395.608 355.646 395.999 355.792C396.39 355.93 396.829 356 397.317 356C397.83 356 398.286 355.922 398.685 355.768C399.083 355.613 399.421 355.389 399.698 355.096C400.072 354.697 400.345 354.177 400.516 353.534C400.695 352.891 400.784 352.134 400.784 351.263Z" fill="#ECEDEB"/>
<path d="M100.154 407.896L100.154 400.546H101.645L103.997 405.292L106.328 400.546H107.829L107.829 407.896H106.569V402.709L104.49 406.867H103.503L101.414 402.719V407.896H100.154ZM108.831 407.896V402.604H110.091V407.896H108.831ZM109.461 401.764C109.23 401.764 109.038 401.694 108.884 401.554C108.737 401.407 108.663 401.228 108.663 401.018C108.663 400.801 108.737 400.626 108.884 400.493C109.038 400.353 109.23 400.283 109.461 400.283C109.692 400.283 109.881 400.353 110.028 400.493C110.182 400.626 110.259 400.801 110.259 401.018C110.259 401.228 110.182 401.407 110.028 401.554C109.881 401.694 109.692 401.764 109.461 401.764ZM113.557 408.022C113.039 408.022 112.573 407.906 112.16 407.675C111.754 407.437 111.436 407.112 111.205 406.699C110.981 406.279 110.869 405.803 110.869 405.271C110.869 404.718 110.981 404.235 111.205 403.822C111.436 403.402 111.754 403.073 112.16 402.835C112.573 402.597 113.042 402.478 113.567 402.478C114.225 402.478 114.778 402.653 115.226 403.003C115.674 403.346 115.961 403.818 116.087 404.42L114.764 404.42C114.694 404.154 114.547 403.944 114.323 403.79C114.106 403.636 113.847 403.559 113.546 403.559C113.287 403.559 113.049 403.626 112.832 403.759C112.622 403.892 112.454 404.084 112.328 404.336C112.209 404.588 112.15 404.893 112.15 405.25C112.15 405.523 112.185 405.764 112.255 405.974C112.325 406.184 112.423 406.363 112.549 406.51C112.682 406.65 112.832 406.758 113 406.835C113.168 406.912 113.35 406.951 113.546 406.951C113.749 406.951 113.931 406.919 114.092 406.856C114.26 406.786 114.4 406.685 114.512 406.552C114.631 406.419 114.715 406.261 114.764 406.079L116.087 406.079C115.961 406.667 115.674 407.14 115.226 407.497C114.778 407.847 114.222 408.022 113.557 408.022ZM120.215 407.896L117.873 404.998L119.973 402.604H121.475L118.86 405.512V404.536L121.79 407.896H120.215ZM116.802 407.896L116.802 400.336H118.062L118.062 407.896H116.802ZM127.445 408.022C126.752 408.022 126.143 407.864 125.618 407.549C125.1 407.234 124.697 406.797 124.41 406.237C124.123 405.67 123.98 405.008 123.98 404.252C123.98 403.503 124.127 402.842 124.421 402.268C124.715 401.687 125.135 401.235 125.681 400.913C126.234 400.584 126.888 400.42 127.644 400.42C128.498 400.42 129.205 400.626 129.765 401.039C130.332 401.445 130.7 402.012 130.868 402.74H129.45C129.345 402.376 129.139 402.093 128.831 401.89C128.523 401.687 128.124 401.585 127.634 401.585C127.137 401.585 126.71 401.694 126.353 401.911C126.003 402.121 125.733 402.429 125.544 402.835C125.362 403.234 125.271 403.71 125.271 404.263C125.271 404.816 125.362 405.292 125.544 405.691C125.733 406.09 125.999 406.394 126.342 406.604C126.685 406.807 127.088 406.909 127.55 406.909C128.236 406.909 128.754 406.716 129.104 406.331C129.454 405.946 129.66 405.446 129.723 404.83H127.823V403.874H130.994L130.994 407.896H129.839L129.734 406.888C129.573 407.126 129.387 407.332 129.177 407.507C128.967 407.675 128.719 407.805 128.432 407.896C128.152 407.98 127.823 408.022 127.445 408.022ZM133.575 408.022C133.141 408.022 132.78 407.948 132.493 407.801C132.206 407.654 131.993 407.458 131.853 407.213C131.713 406.968 131.643 406.702 131.643 406.415C131.643 406.079 131.727 405.789 131.895 405.544C132.07 405.299 132.325 405.11 132.661 404.977C132.997 404.837 133.41 404.767 133.9 404.767H135.234C135.234 404.487 135.195 404.256 135.118 404.074C135.041 403.885 134.922 403.745 134.761 403.654C134.6 403.563 134.394 403.517 134.142 403.517C133.855 403.517 133.61 403.584 133.407 403.717C133.204 403.843 133.078 404.039 133.029 404.305H131.79C131.832 403.927 131.958 403.605 132.168 403.339C132.378 403.066 132.654 402.856 132.997 402.709C133.347 402.555 133.729 402.478 134.142 402.478C134.639 402.478 135.062 402.565 135.412 402.74C135.762 402.908 136.028 403.153 136.21 403.475C136.399 403.79 136.494 404.172 136.494 404.62L136.494 407.896H135.423L135.297 407.045C135.227 407.185 135.136 407.315 135.024 407.434C134.919 407.553 134.796 407.658 134.656 407.749C134.516 407.833 134.355 407.899 134.173 407.948C133.998 407.997 133.799 408.022 133.575 408.022ZM133.858 407.024C134.061 407.024 134.24 406.989 134.394 406.919C134.555 406.842 134.691 406.737 134.803 406.604C134.922 406.464 135.013 406.31 135.076 406.142C135.139 405.974 135.181 405.796 135.202 405.607V405.586H134.037C133.792 405.586 133.589 405.617 133.428 405.68C133.267 405.736 133.151 405.82 133.081 405.932C133.011 406.044 132.976 406.174 132.976 406.321C132.976 406.468 133.011 406.594 133.081 406.699C133.151 406.804 133.253 406.884 133.386 406.94C133.519 406.996 133.676 407.024 133.858 407.024ZM137.34 407.896L137.34 402.604H138.464L138.579 403.591C138.705 403.36 138.863 403.164 139.052 403.003C139.241 402.835 139.461 402.705 139.713 402.614C139.972 402.523 140.256 402.478 140.564 402.478V403.811H140.123C139.913 403.811 139.713 403.839 139.524 403.895C139.335 403.944 139.171 404.028 139.031 404.147C138.898 404.259 138.793 404.417 138.716 404.62C138.639 404.816 138.6 405.064 138.6 405.365L138.6 407.896H137.34ZM143.253 408.022C142.763 408.022 142.325 407.903 141.94 407.665C141.555 407.427 141.254 407.098 141.037 406.678C140.827 406.258 140.722 405.782 140.722 405.25C140.722 404.718 140.831 404.245 141.048 403.832C141.265 403.412 141.566 403.083 141.951 402.845C142.343 402.6 142.784 402.478 143.274 402.478C143.673 402.478 144.019 402.555 144.313 402.709C144.614 402.856 144.852 403.066 145.027 403.339V400.336H146.287L146.287 407.896H145.153L145.027 407.129C144.915 407.283 144.779 407.43 144.618 407.57C144.457 407.703 144.264 407.812 144.04 407.896C143.816 407.98 143.554 408.022 143.253 408.022ZM143.515 406.93C143.816 406.93 144.082 406.86 144.313 406.72C144.544 406.573 144.723 406.373 144.849 406.121C144.975 405.869 145.038 405.579 145.038 405.25C145.038 404.921 144.975 404.63 144.849 404.378C144.723 404.126 144.544 403.93 144.313 403.79C144.082 403.65 143.816 403.58 143.515 403.58C143.228 403.58 142.969 403.65 142.738 403.79C142.507 403.93 142.325 404.126 142.192 404.378C142.066 404.63 142.003 404.921 142.003 405.25C142.003 405.579 142.066 405.869 142.192 406.121C142.325 406.373 142.507 406.573 142.738 406.72C142.969 406.86 143.228 406.93 143.515 406.93ZM147.829 410.206L149.121 407.308H148.806L146.695 402.604H148.071L149.646 406.195L151.137 402.604H152.47L149.163 410.206L147.829 410.206Z" fill="#32362F"/>
<path d="M183.901 407.896L183.901 401.984L182.599 402.32V401.344L184.405 400.546H185.192L185.192 407.896H183.901ZM185.991 407.896V406.982C186.46 406.611 186.908 406.24 187.335 405.869C187.762 405.498 188.147 405.131 188.49 404.767C188.833 404.403 189.102 404.046 189.298 403.696C189.494 403.346 189.592 403.01 189.592 402.688C189.592 402.478 189.554 402.282 189.477 402.1C189.4 401.918 189.277 401.771 189.109 401.659C188.948 401.547 188.731 401.491 188.458 401.491C188.192 401.491 187.965 401.55 187.776 401.669C187.594 401.788 187.457 401.949 187.366 402.152C187.275 402.348 187.23 402.572 187.23 402.824H186.012C186.026 402.292 186.141 401.848 186.358 401.491C186.575 401.134 186.869 400.868 187.24 400.693C187.611 400.511 188.028 400.42 188.49 400.42C188.987 400.42 189.41 400.511 189.76 400.693C190.11 400.875 190.38 401.13 190.569 401.459C190.758 401.788 190.852 402.177 190.852 402.625C190.852 402.954 190.789 403.279 190.663 403.601C190.544 403.916 190.376 404.224 190.159 404.525C189.942 404.819 189.697 405.106 189.424 405.386C189.158 405.659 188.882 405.922 188.595 406.174C188.308 406.419 188.031 406.646 187.765 406.856H191.052V407.896H185.991ZM191.236 409.03L193.871 399.758H195.1L192.464 409.03H191.236ZM195.429 407.896V406.982C195.898 406.611 196.346 406.24 196.773 405.869C197.2 405.498 197.585 405.131 197.928 404.767C198.271 404.403 198.541 404.046 198.737 403.696C198.933 403.346 199.031 403.01 199.031 402.688C199.031 402.478 198.992 402.282 198.915 402.1C198.838 401.918 198.716 401.771 198.548 401.659C198.387 401.547 198.17 401.491 197.897 401.491C197.631 401.491 197.403 401.55 197.214 401.669C197.032 401.788 196.896 401.949 196.805 402.152C196.714 402.348 196.668 402.572 196.668 402.824H195.45C195.464 402.292 195.58 401.848 195.797 401.491C196.014 401.134 196.308 400.868 196.679 400.693C197.05 400.511 197.466 400.42 197.928 400.42C198.425 400.42 198.849 400.511 199.199 400.693C199.549 400.875 199.818 401.13 200.007 401.459C200.196 401.788 200.291 402.177 200.291 402.625C200.291 402.954 200.228 403.279 200.102 403.601C199.983 403.916 199.815 404.224 199.598 404.525C199.381 404.819 199.136 405.106 198.863 405.386C198.597 405.659 198.32 405.922 198.033 406.174C197.746 406.419 197.47 406.646 197.204 406.856L200.49 406.856V407.896L195.429 407.896ZM201.569 407.896L204.31 401.627H200.614V400.546H205.601V401.449L202.882 407.896H201.569Z" fill="#32362F"/>
<path d="M366.078 384.337L404.513 371.886V458.079C377.059 446.586 366.078 424.56 366.078 412.115V384.337Z" fill="#606B58"/>
<path d="M442.95 384.337L404.516 371.886V458.079C431.969 446.586 442.95 424.56 442.95 412.109V384.337Z" fill="#464E41"/>
<path fill-rule="evenodd" clip-rule="evenodd" d="M408.008 414.224C409.697 413.074 410.803 411.163 410.803 409C410.803 405.485 407.882 402.636 404.281 402.636C400.679 402.636 397.758 405.485 397.758 409C397.758 411.163 398.864 413.074 400.553 414.224V424.499C400.553 424.761 400.67 425.011 400.872 425.183L403.667 427.57C403.849 427.726 404.079 427.801 404.306 427.794C404.517 427.789 404.725 427.714 404.894 427.57L407.689 425.183C407.891 425.011 408.008 424.761 408.008 424.499V421.489C408.008 421.348 407.973 421.209 407.91 421.083L407.263 419.821C407.143 419.589 407.132 419.319 407.231 419.077L407.94 417.346C407.986 417.238 408.008 417.124 408.008 417.008V414.224Z" fill="#CFD0C9"/>
<g filter="url(#filter1_d_6_2910)">
<rect x="97" y="75" width="316" height="75" rx="6" fill="#151515"/>
</g>
<rect x="91" y="65.3093" width="329" height="92" rx="8" fill="#F7F6F1"/>
<path d="M91 73.3093C91 68.891 94.5817 65.3093 99 65.3093H177.329V157.309H99C94.5817 157.309 91 153.728 91 149.309V73.3093Z" fill="#222222"/>
<path fill-rule="evenodd" clip-rule="evenodd" d="M118.213 98.9212C118.213 99.2872 118.511 99.595 118.887 99.595L128.736 99.595C129.102 99.595 129.408 99.2977 129.408 98.9212L129.408 89.0332C129.408 88.6672 129.111 88.3606 128.736 88.3606L118.887 88.3606C118.52 88.3606 118.213 88.6578 118.213 89.0332L118.213 98.9212Z" fill="white"/>
<path fill-rule="evenodd" clip-rule="evenodd" d="M128.726 110.551C128.726 110.918 129.023 111.225 129.399 111.225L140.395 111.225C140.761 111.225 141.068 110.928 141.068 110.551L141.068 99.585C141.068 99.2189 140.772 98.9123 140.395 98.9123L129.399 98.9123C129.033 98.9123 128.726 99.2084 128.726 99.585L128.726 110.551Z" fill="white"/>
<path fill-rule="evenodd" clip-rule="evenodd" d="M140.337 122.153C140.337 122.519 140.633 122.826 141.01 122.826L152.006 122.826C152.372 122.826 152.679 122.529 152.679 122.153L152.679 111.157C152.679 110.791 152.382 110.484 152.006 110.484L141.01 110.484C140.644 110.484 140.337 110.78 140.337 111.157L140.337 122.153Z" fill="white"/>
<path fill-rule="evenodd" clip-rule="evenodd" d="M128.726 133.584C128.726 133.952 129.023 134.258 129.399 134.258L140.395 134.258C140.761 134.258 141.068 133.961 141.068 133.584L141.068 122.589C141.068 122.222 140.772 121.915 140.395 121.915L129.399 121.915C129.033 121.915 128.726 122.213 128.726 122.589L128.726 133.584Z" fill="white"/>
<path fill-rule="evenodd" clip-rule="evenodd" d="M120.054 120.796C120.054 121.162 120.351 121.469 120.727 121.469L127.388 121.469C127.754 121.469 128.062 121.172 128.062 120.796L128.062 114.135C128.062 113.768 127.765 113.461 127.388 113.461L120.727 113.461C120.361 113.461 120.054 113.759 120.054 114.135L120.054 120.796Z" fill="white"/>
<path fill-rule="evenodd" clip-rule="evenodd" d="M115.65 125.201C115.65 125.567 115.947 125.875 116.324 125.875L119.382 125.875C119.748 125.875 120.055 125.578 120.055 125.201L120.055 122.143C120.055 121.777 119.758 121.469 119.382 121.469L116.324 121.469C115.958 121.469 115.65 121.767 115.65 122.143L115.65 125.201Z" fill="white"/>
<path d="M199.863 93.8801V97.9841H198.747V93.8801L195.483 89.2241H196.743L199.299 92.8601L201.867 89.2241H203.127L199.863 93.8801ZM208.953 94.9481C208.953 95.8281 208.641 96.5801 208.017 97.2041C207.393 97.8201 206.641 98.1281 205.761 98.1281C204.881 98.1281 204.129 97.8201 203.505 97.2041C202.881 96.5801 202.569 95.8281 202.569 94.9481C202.569 94.0601 202.881 93.3081 203.505 92.6921C204.129 92.0681 204.881 91.7561 205.761 91.7561C206.641 91.7561 207.393 92.0681 208.017 92.6921C208.641 93.3081 208.953 94.0601 208.953 94.9481ZM207.885 94.9481C207.885 94.3161 207.681 93.7841 207.273 93.3521C206.865 92.9201 206.361 92.7041 205.761 92.7041C205.169 92.7041 204.665 92.9201 204.249 93.3521C203.841 93.7841 203.637 94.3161 203.637 94.9481C203.637 95.5721 203.841 96.1001 204.249 96.5321C204.665 96.9641 205.169 97.1801 205.761 97.1801C206.361 97.1801 206.865 96.9641 207.273 96.5321C207.681 96.1001 207.885 95.5721 207.885 94.9481ZM213.01 97.1561C213.45 97.1561 213.81 97.0041 214.09 96.7001C214.37 96.3881 214.51 95.9921 214.51 95.5121V91.9001H215.59V97.9841H214.51V97.0721C214.35 97.3921 214.102 97.6481 213.766 97.8401C213.43 98.0321 213.058 98.1281 212.65 98.1281C211.978 98.1281 211.442 97.9121 211.042 97.4801C210.65 97.0481 210.454 96.4801 210.454 95.7761V91.9001H211.534V95.5121C211.534 96.0161 211.666 96.4161 211.93 96.7121C212.194 97.0081 212.554 97.1561 213.01 97.1561ZM220.759 91.8161V92.8961C220.135 92.8001 219.627 92.9241 219.235 93.2681C218.843 93.6041 218.647 94.1241 218.647 94.8281V97.9841H217.567V91.9001H218.647V93.0041C218.831 92.5961 219.115 92.2841 219.499 92.0681C219.883 91.8441 220.303 91.7601 220.759 91.8161ZM230.137 97.9841H224.917V89.2241H230.101V90.1601H226.009V93.0521H229.765V93.9881H226.009V97.0481H230.137V97.9841ZM231.234 97.5281V96.4361C231.506 96.6921 231.806 96.8921 232.134 97.0361C232.47 97.1721 232.806 97.2401 233.142 97.2401C233.502 97.2401 233.786 97.1641 233.994 97.0121C234.21 96.8601 234.318 96.6521 234.318 96.3881C234.318 96.2041 234.27 96.0521 234.174 95.9321C234.078 95.8121 233.894 95.6881 233.622 95.5601L232.53 95.0441C232.074 94.8281 231.758 94.6041 231.582 94.3721C231.414 94.1321 231.33 93.8401 231.33 93.4961C231.33 93.0001 231.522 92.5881 231.906 92.2601C232.29 91.9241 232.774 91.7561 233.358 91.7561C233.678 91.7561 233.982 91.8041 234.27 91.9001C234.566 91.9961 234.834 92.1361 235.074 92.3201V93.3761C234.786 93.1361 234.498 92.9561 234.21 92.8361C233.93 92.7161 233.65 92.6561 233.37 92.6561C233.058 92.6561 232.806 92.7281 232.614 92.8721C232.43 93.0161 232.338 93.2081 232.338 93.4481C232.338 93.6081 232.386 93.7481 232.482 93.8681C232.586 93.9801 232.814 94.1201 233.166 94.2881L234.234 94.7921C234.626 94.9761 234.906 95.1921 235.074 95.4401C235.25 95.6801 235.338 95.9801 235.338 96.3401C235.338 96.8601 235.13 97.2881 234.714 97.6241C234.298 97.9601 233.782 98.1281 233.166 98.1281C232.814 98.1281 232.466 98.0761 232.122 97.9721C231.786 97.8601 231.49 97.7121 231.234 97.5281ZM237.421 94.9481C237.421 95.5721 237.637 96.1001 238.069 96.5321C238.501 96.9641 239.021 97.1801 239.629 97.1801C239.933 97.1801 240.213 97.1321 240.469 97.0361C240.733 96.9321 240.973 96.7761 241.189 96.5681V97.6601C240.965 97.8121 240.713 97.9281 240.433 98.0081C240.153 98.0881 239.869 98.1281 239.581 98.1281C238.701 98.1281 237.949 97.8201 237.325 97.2041C236.701 96.5801 236.389 95.8281 236.389 94.9481C236.389 94.0601 236.701 93.3081 237.325 92.6921C237.949 92.0681 238.701 91.7561 239.581 91.7561C239.877 91.7561 240.161 91.8001 240.433 91.8881C240.713 91.9681 240.965 92.0841 241.189 92.2361V93.3161C240.973 93.1161 240.737 92.9681 240.481 92.8721C240.225 92.7681 239.941 92.7161 239.629 92.7161C239.021 92.7161 238.501 92.9321 238.069 93.3641C237.637 93.7961 237.421 94.3241 237.421 94.9481ZM245.908 91.8161V92.8961C245.284 92.8001 244.776 92.9241 244.384 93.2681C243.992 93.6041 243.796 94.1241 243.796 94.8281V97.9841H242.716V91.9001H243.796V93.0041C243.98 92.5961 244.264 92.2841 244.648 92.0681C245.032 91.8441 245.452 91.7601 245.908 91.8161ZM252.969 94.9481C252.969 95.8281 252.657 96.5801 252.033 97.2041C251.409 97.8201 250.657 98.1281 249.777 98.1281C248.897 98.1281 248.145 97.8201 247.521 97.2041C246.897 96.5801 246.585 95.8281 246.585 94.9481C246.585 94.0601 246.897 93.3081 247.521 92.6921C248.145 92.0681 248.897 91.7561 249.777 91.7561C250.657 91.7561 251.409 92.0681 252.033 92.6921C252.657 93.3081 252.969 94.0601 252.969 94.9481ZM251.901 94.9481C251.901 94.3161 251.697 93.7841 251.289 93.3521C250.881 92.9201 250.377 92.7041 249.777 92.7041C249.185 92.7041 248.681 92.9201 248.265 93.3521C247.857 93.7841 247.653 94.3161 247.653 94.9481C247.653 95.5721 247.857 96.1001 248.265 96.5321C248.681 96.9641 249.185 97.1801 249.777 97.1801C250.377 97.1801 250.881 96.9641 251.289 96.5321C251.697 96.1001 251.901 95.5721 251.901 94.9481ZM256.311 96.0881L258.123 91.6361L259.947 96.0881L261.651 91.9001H262.767L259.947 98.2841L258.111 93.9281L256.275 98.2841L253.455 91.9001H254.595L256.311 96.0881ZM267.199 93.6041C267.199 94.5721 267.523 95.3921 268.171 96.0641C268.827 96.7361 269.627 97.0721 270.571 97.0721C271.051 97.0721 271.499 96.9841 271.915 96.8081C272.339 96.6321 272.699 96.3841 272.995 96.0641V97.3601C272.651 97.6081 272.271 97.8001 271.855 97.9361C271.439 98.0641 271.003 98.1281 270.547 98.1281C269.947 98.1281 269.375 98.0121 268.831 97.7801C268.287 97.5481 267.807 97.2201 267.391 96.7961C266.975 96.3641 266.655 95.8761 266.431 95.3321C266.207 94.7801 266.095 94.2041 266.095 93.6041C266.095 93.0041 266.207 92.4321 266.431 91.8881C266.655 91.3361 266.975 90.8441 267.391 90.4121C267.807 89.9881 268.287 89.6601 268.831 89.4281C269.375 89.1961 269.947 89.0801 270.547 89.0801C271.003 89.0801 271.439 89.1481 271.855 89.2841C272.271 89.4121 272.651 89.6001 272.995 89.8481V91.1441C272.699 90.8241 272.339 90.5761 271.915 90.4001C271.499 90.2241 271.051 90.1361 270.571 90.1361C269.627 90.1361 268.827 90.4721 268.171 91.1441C267.523 91.8161 267.199 92.6361 267.199 93.6041ZM280.484 94.9481C280.484 95.8281 280.172 96.5801 279.548 97.2041C278.924 97.8201 278.172 98.1281 277.292 98.1281C276.412 98.1281 275.66 97.8201 275.036 97.2041C274.412 96.5801 274.1 95.8281 274.1 94.9481C274.1 94.0601 274.412 93.3081 275.036 92.6921C275.66 92.0681 276.412 91.7561 277.292 91.7561C278.172 91.7561 278.924 92.0681 279.548 92.6921C280.172 93.3081 280.484 94.0601 280.484 94.9481ZM279.416 94.9481C279.416 94.3161 279.212 93.7841 278.804 93.3521C278.396 92.9201 277.892 92.7041 277.292 92.7041C276.7 92.7041 276.196 92.9201 275.78 93.3521C275.372 93.7841 275.168 94.3161 275.168 94.9481C275.168 95.5721 275.372 96.1001 275.78 96.5321C276.196 96.9641 276.7 97.1801 277.292 97.1801C277.892 97.1801 278.396 96.9641 278.804 96.5321C279.212 96.1001 279.416 95.5721 279.416 94.9481ZM284.613 92.7401C284.173 92.7401 283.813 92.8961 283.533 93.2081C283.253 93.5201 283.113 93.9161 283.113 94.3961V97.9841H282.033V91.9001H283.113V92.8121C283.273 92.4921 283.521 92.2361 283.857 92.0441C284.193 91.8521 284.565 91.7561 284.973 91.7561C285.653 91.7561 286.193 91.9761 286.593 92.4161C286.993 92.8481 287.193 93.4161 287.193 94.1201V97.9841H286.113V94.3841C286.113 93.8801 285.977 93.4801 285.705 93.1841C285.441 92.8881 285.077 92.7401 284.613 92.7401ZM290.49 92.7881V96.0161C290.49 96.3841 290.582 96.6721 290.766 96.8801C290.958 97.0881 291.222 97.1921 291.558 97.1921C291.758 97.1921 291.942 97.1641 292.11 97.1081C292.286 97.0441 292.45 96.9521 292.602 96.8321V97.8161C292.442 97.9121 292.254 97.9881 292.038 98.0441C291.822 98.1001 291.602 98.1281 291.378 98.1281C290.77 98.1281 290.29 97.9481 289.938 97.5881C289.586 97.2281 289.41 96.7361 289.41 96.1121V92.7881H288.354V91.9001H289.41V90.2681L290.49 89.8841V91.9001H292.29V92.7881H290.49ZM297.224 91.8161V92.8961C296.6 92.8001 296.092 92.9241 295.7 93.2681C295.308 93.6041 295.112 94.1241 295.112 94.8281V97.9841H294.032V91.9001H295.112V93.0041C295.296 92.5961 295.58 92.2841 295.964 92.0681C296.348 91.8441 296.768 91.7601 297.224 91.8161ZM302.974 97.9841H301.93V97.3841C301.778 97.6081 301.55 97.7881 301.246 97.9241C300.942 98.0601 300.606 98.1281 300.238 98.1281C299.598 98.1281 299.058 97.9401 298.618 97.5641C298.178 97.1801 297.958 96.7001 297.958 96.1241C297.958 95.5641 298.178 95.0961 298.618 94.7201C299.066 94.3441 299.614 94.1561 300.262 94.1561C300.606 94.1561 300.926 94.2201 301.222 94.3481C301.518 94.4761 301.754 94.6441 301.93 94.8521V94.0601C301.93 93.6761 301.786 93.3601 301.498 93.1121C301.21 92.8561 300.838 92.7281 300.382 92.7281C300.086 92.7281 299.79 92.7721 299.494 92.8601C299.206 92.9481 298.918 93.0801 298.63 93.2561V92.2481C298.894 92.0961 299.198 91.9761 299.542 91.8881C299.886 91.8001 300.23 91.7561 300.574 91.7561C301.302 91.7561 301.882 91.9601 302.314 92.3681C302.754 92.7761 302.974 93.3161 302.974 93.9881V97.9841ZM300.406 97.2401C300.838 97.2401 301.202 97.1361 301.498 96.9281C301.802 96.7121 301.954 96.4441 301.954 96.1241C301.954 95.8041 301.802 95.5401 301.498 95.3321C301.194 95.1161 300.83 95.0081 300.406 95.0081C299.998 95.0081 299.654 95.1121 299.374 95.3201C299.094 95.5281 298.954 95.7961 298.954 96.1241C298.954 96.4521 299.09 96.7201 299.362 96.9281C299.642 97.1361 299.99 97.2401 300.406 97.2401ZM305.483 94.9481C305.483 95.5721 305.699 96.1001 306.131 96.5321C306.563 96.9641 307.083 97.1801 307.691 97.1801C307.995 97.1801 308.275 97.1321 308.531 97.0361C308.795 96.9321 309.035 96.7761 309.251 96.5681V97.6601C309.027 97.8121 308.775 97.9281 308.495 98.0081C308.215 98.0881 307.931 98.1281 307.643 98.1281C306.763 98.1281 306.011 97.8201 305.387 97.2041C304.763 96.5801 304.451 95.8281 304.451 94.9481C304.451 94.0601 304.763 93.3081 305.387 92.6921C306.011 92.0681 306.763 91.7561 307.643 91.7561C307.939 91.7561 308.223 91.8001 308.495 91.8881C308.775 91.9681 309.027 92.0841 309.251 92.2361V93.3161C309.035 93.1161 308.799 92.9681 308.543 92.8721C308.287 92.7681 308.003 92.7161 307.691 92.7161C307.083 92.7161 306.563 92.9321 306.131 93.3641C305.699 93.7961 305.483 94.3241 305.483 94.9481ZM312.158 92.7881V96.0161C312.158 96.3841 312.25 96.6721 312.434 96.8801C312.626 97.0881 312.89 97.1921 313.226 97.1921C313.426 97.1921 313.61 97.1641 313.778 97.1081C313.954 97.0441 314.118 96.9521 314.27 96.8321V97.8161C314.11 97.9121 313.922 97.9881 313.706 98.0441C313.49 98.1001 313.27 98.1281 313.046 98.1281C312.438 98.1281 311.958 97.9481 311.606 97.5881C311.254 97.2281 311.078 96.7361 311.078 96.1121V92.7881H310.022V91.9001H311.078V90.2681L312.158 89.8841V91.9001H313.958V92.7881H312.158ZM320.651 88.7201C320.811 88.7201 320.955 88.7321 321.083 88.7561C321.211 88.7721 321.327 88.8041 321.431 88.8521V89.7881C321.351 89.7401 321.263 89.7081 321.167 89.6921C321.071 89.6681 320.963 89.6561 320.843 89.6561C320.515 89.6561 320.255 89.7641 320.063 89.9801C319.879 90.1961 319.787 90.4921 319.787 90.8681V91.9001H321.311V92.7881H319.787V97.9841H318.719V92.7881H317.663V91.9001H318.719V90.7841C318.719 90.1681 318.895 89.6721 319.247 89.2961C319.599 88.9121 320.067 88.7201 320.651 88.7201ZM328.367 94.9481C328.367 95.8281 328.055 96.5801 327.431 97.2041C326.807 97.8201 326.055 98.1281 325.175 98.1281C324.295 98.1281 323.543 97.8201 322.919 97.2041C322.295 96.5801 321.983 95.8281 321.983 94.9481C321.983 94.0601 322.295 93.3081 322.919 92.6921C323.543 92.0681 324.295 91.7561 325.175 91.7561C326.055 91.7561 326.807 92.0681 327.431 92.6921C328.055 93.3081 328.367 94.0601 328.367 94.9481ZM327.299 94.9481C327.299 94.3161 327.095 93.7841 326.687 93.3521C326.279 92.9201 325.775 92.7041 325.175 92.7041C324.583 92.7041 324.079 92.9201 323.663 93.3521C323.255 93.7841 323.051 94.3161 323.051 94.9481C323.051 95.5721 323.255 96.1001 323.663 96.5321C324.079 96.9641 324.583 97.1801 325.175 97.1801C325.775 97.1801 326.279 96.9641 326.687 96.5321C327.095 96.1001 327.299 95.5721 327.299 94.9481ZM333.06 91.8161V92.8961C332.436 92.8001 331.928 92.9241 331.536 93.2681C331.144 93.6041 330.948 94.1241 330.948 94.8281V97.9841H329.868V91.9001H330.948V93.0041C331.132 92.5961 331.416 92.2841 331.8 92.0681C332.184 91.8441 332.604 91.7601 333.06 91.8161ZM339.33 94.3361H338.322V97.9841H337.218V89.2241H339.378C340.33 89.2241 341.09 89.4561 341.658 89.9201C342.234 90.3841 342.522 91.0081 342.522 91.7921C342.522 92.3921 342.346 92.9041 341.994 93.3281C341.642 93.7441 341.15 94.0361 340.518 94.2041L343.578 97.9841H342.27L339.33 94.3361ZM339.366 90.1481H338.322V93.4361H339.366C339.99 93.4361 340.482 93.2921 340.842 93.0041C341.21 92.7081 341.394 92.3041 341.394 91.7921C341.394 91.2801 341.21 90.8801 340.842 90.5921C340.482 90.2961 339.99 90.1481 339.366 90.1481ZM349.31 90.1601H346.142L345.818 92.4641C346.922 92.4641 347.802 92.7201 348.458 93.2321C349.122 93.7361 349.454 94.4361 349.454 95.3321C349.454 96.1481 349.154 96.8201 348.554 97.3481C347.962 97.8681 347.214 98.1281 346.31 98.1281C345.886 98.1281 345.474 98.0681 345.074 97.9481C344.682 97.8201 344.342 97.6481 344.054 97.4321V96.3041C344.342 96.5761 344.686 96.7921 345.086 96.9521C345.486 97.1041 345.89 97.1801 346.298 97.1801C346.898 97.1801 347.394 97.0081 347.786 96.6641C348.186 96.3201 348.386 95.8801 348.386 95.3441C348.386 94.6401 348.054 94.1121 347.39 93.7601C346.726 93.4081 345.854 93.2721 344.774 93.3521L345.29 89.2241H349.31V90.1601ZM351.955 96.8921L350.671 99.5681L349.963 99.3521L350.743 96.4961L351.955 96.8921ZM352.443 89.2241H358.707L354.879 97.9841H353.751L357.195 90.1601H352.443V89.2241ZM359.037 93.6041C359.037 92.2921 359.353 91.2121 359.985 90.3641C360.625 89.5081 361.433 89.0801 362.409 89.0801C363.393 89.0801 364.201 89.5081 364.833 90.3641C365.473 91.2121 365.793 92.2921 365.793 93.6041C365.793 94.9161 365.473 96.0001 364.833 96.8561C364.201 97.7041 363.393 98.1281 362.409 98.1281C361.433 98.1281 360.625 97.7041 359.985 96.8561C359.353 96.0001 359.037 94.9161 359.037 93.6041ZM364.701 93.6041C364.701 92.5881 364.485 91.7481 364.053 91.0841C363.629 90.4121 363.081 90.0761 362.409 90.0761C361.745 90.0761 361.197 90.4121 360.765 91.0841C360.341 91.7481 360.129 92.5881 360.129 93.6041C360.129 94.6201 360.341 95.4641 360.765 96.1361C361.197 96.8001 361.745 97.1321 362.409 97.1321C363.081 97.1321 363.629 96.8001 364.053 96.1361C364.485 95.4641 364.701 94.6201 364.701 93.6041ZM366.771 93.6041C366.771 92.2921 367.087 91.2121 367.719 90.3641C368.359 89.5081 369.167 89.0801 370.143 89.0801C371.127 89.0801 371.935 89.5081 372.567 90.3641C373.207 91.2121 373.527 92.2921 373.527 93.6041C373.527 94.9161 373.207 96.0001 372.567 96.8561C371.935 97.7041 371.127 98.1281 370.143 98.1281C369.167 98.1281 368.359 97.7041 367.719 96.8561C367.087 96.0001 366.771 94.9161 366.771 93.6041ZM372.435 93.6041C372.435 92.5881 372.219 91.7481 371.787 91.0841C371.363 90.4121 370.815 90.0761 370.143 90.0761C369.479 90.0761 368.931 90.4121 368.499 91.0841C368.075 91.7481 367.863 92.5881 367.863 93.6041C367.863 94.6201 368.075 95.4641 368.499 96.1361C368.931 96.8001 369.479 97.1321 370.143 97.1321C370.815 97.1321 371.363 96.8001 371.787 96.1361C372.219 95.4641 372.435 94.6201 372.435 93.6041ZM198.867 109.74C198.427 109.74 198.067 109.896 197.787 110.208C197.507 110.52 197.367 110.916 197.367 111.396V114.984H196.287V105.864H197.367V109.812C197.527 109.492 197.775 109.236 198.111 109.044C198.447 108.852 198.819 108.756 199.227 108.756C199.907 108.756 200.447 108.976 200.847 109.416C201.247 109.848 201.447 110.416 201.447 111.12V114.984H200.367V111.384C200.367 110.88 200.231 110.48 199.959 110.184C199.695 109.888 199.331 109.74 198.867 109.74ZM207.876 114.984H206.832V114.384C206.68 114.608 206.452 114.788 206.148 114.924C205.844 115.06 205.508 115.128 205.14 115.128C204.5 115.128 203.96 114.94 203.52 114.564C203.08 114.18 202.86 113.7 202.86 113.124C202.86 112.564 203.08 112.096 203.52 111.72C203.968 111.344 204.516 111.156 205.164 111.156C205.508 111.156 205.828 111.22 206.124 111.348C206.42 111.476 206.656 111.644 206.832 111.852V111.06C206.832 110.676 206.688 110.36 206.4 110.112C206.112 109.856 205.74 109.728 205.284 109.728C204.988 109.728 204.692 109.772 204.396 109.86C204.108 109.948 203.82 110.08 203.532 110.256V109.248C203.796 109.096 204.1 108.976 204.444 108.888C204.788 108.8 205.132 108.756 205.476 108.756C206.204 108.756 206.784 108.96 207.216 109.368C207.656 109.776 207.876 110.316 207.876 110.988V114.984ZM205.308 114.24C205.74 114.24 206.104 114.136 206.4 113.928C206.704 113.712 206.856 113.444 206.856 113.124C206.856 112.804 206.704 112.54 206.4 112.332C206.096 112.116 205.732 112.008 205.308 112.008C204.9 112.008 204.556 112.112 204.276 112.32C203.996 112.528 203.856 112.796 203.856 113.124C203.856 113.452 203.992 113.72 204.264 113.928C204.544 114.136 204.892 114.24 205.308 114.24ZM209.924 108.9L212 113.292L214.076 108.9H215.216L211.976 115.284L208.736 108.9H209.924ZM218.96 115.128C218.008 115.128 217.212 114.824 216.572 114.216C215.94 113.608 215.624 112.852 215.624 111.948C215.624 111.068 215.928 110.316 216.536 109.692C217.152 109.068 217.884 108.756 218.732 108.756C219.644 108.756 220.364 109.08 220.892 109.728C221.428 110.368 221.672 111.188 221.624 112.188H216.656C216.712 112.788 216.96 113.272 217.4 113.64C217.84 114.008 218.396 114.192 219.068 114.192C219.468 114.192 219.86 114.12 220.244 113.976C220.628 113.824 220.956 113.616 221.228 113.352V114.408C220.932 114.64 220.588 114.82 220.196 114.948C219.804 115.068 219.392 115.128 218.96 115.128ZM218.72 109.668C218.232 109.668 217.8 109.824 217.424 110.136C217.056 110.448 216.816 110.86 216.704 111.372H220.58C220.524 110.868 220.328 110.46 219.992 110.148C219.656 109.828 219.232 109.668 218.72 109.668ZM229.213 108.756C230.061 108.756 230.777 109.064 231.361 109.68C231.945 110.296 232.237 111.052 232.237 111.948C232.237 112.836 231.945 113.588 231.361 114.204C230.777 114.82 230.061 115.128 229.213 115.128C228.717 115.128 228.257 115 227.833 114.744C227.409 114.488 227.109 114.16 226.933 113.76V114.984H225.853V105.864H226.933V110.124C227.109 109.732 227.409 109.408 227.833 109.152C228.265 108.888 228.725 108.756 229.213 108.756ZM231.169 111.948C231.169 111.324 230.961 110.796 230.545 110.364C230.137 109.924 229.633 109.704 229.033 109.704C228.433 109.704 227.925 109.924 227.509 110.364C227.101 110.796 226.897 111.324 226.897 111.948C226.897 112.572 227.105 113.104 227.521 113.544C227.937 113.976 228.441 114.192 229.033 114.192C229.625 114.192 230.129 113.976 230.545 113.544C230.961 113.104 231.169 112.572 231.169 111.948ZM236.632 115.128C235.68 115.128 234.884 114.824 234.244 114.216C233.612 113.608 233.296 112.852 233.296 111.948C233.296 111.068 233.6 110.316 234.208 109.692C234.824 109.068 235.556 108.756 236.404 108.756C237.316 108.756 238.036 109.08 238.564 109.728C239.1 110.368 239.344 111.188 239.296 112.188H234.328C234.384 112.788 234.632 113.272 235.072 113.64C235.512 114.008 236.068 114.192 236.74 114.192C237.14 114.192 237.532 114.12 237.916 113.976C238.3 113.824 238.628 113.616 238.9 113.352V114.408C238.604 114.64 238.26 114.82 237.868 114.948C237.476 115.068 237.064 115.128 236.632 115.128ZM236.392 109.668C235.904 109.668 235.472 109.824 235.096 110.136C234.728 110.448 234.488 110.86 234.376 111.372H238.252C238.196 110.868 238 110.46 237.664 110.148C237.328 109.828 236.904 109.668 236.392 109.668ZM243.698 115.128C242.746 115.128 241.95 114.824 241.31 114.216C240.678 113.608 240.362 112.852 240.362 111.948C240.362 111.068 240.666 110.316 241.274 109.692C241.89 109.068 242.622 108.756 243.47 108.756C244.382 108.756 245.102 109.08 245.63 109.728C246.166 110.368 246.41 111.188 246.362 112.188H241.394C241.45 112.788 241.698 113.272 242.138 113.64C242.578 114.008 243.134 114.192 243.806 114.192C244.206 114.192 244.598 114.12 244.982 113.976C245.366 113.824 245.694 113.616 245.966 113.352V114.408C245.67 114.64 245.326 114.82 244.934 114.948C244.542 115.068 244.13 115.128 243.698 115.128ZM243.458 109.668C242.97 109.668 242.538 109.824 242.162 110.136C241.794 110.448 241.554 110.86 241.442 111.372H245.318C245.262 110.868 245.066 110.46 244.73 110.148C244.394 109.828 243.97 109.668 243.458 109.668ZM250.476 109.74C250.036 109.74 249.676 109.896 249.396 110.208C249.116 110.52 248.976 110.916 248.976 111.396V114.984H247.896V108.9H248.976V109.812C249.136 109.492 249.384 109.236 249.72 109.044C250.056 108.852 250.428 108.756 250.836 108.756C251.516 108.756 252.056 108.976 252.456 109.416C252.856 109.848 253.056 110.416 253.056 111.12V114.984H251.976V111.384C251.976 110.88 251.84 110.48 251.568 110.184C251.304 109.888 250.94 109.74 250.476 109.74ZM262.181 114.984H261.137V114.384C260.985 114.608 260.757 114.788 260.453 114.924C260.149 115.06 259.813 115.128 259.445 115.128C258.805 115.128 258.265 114.94 257.825 114.564C257.385 114.18 257.165 113.7 257.165 113.124C257.165 112.564 257.385 112.096 257.825 111.72C258.273 111.344 258.821 111.156 259.469 111.156C259.813 111.156 260.133 111.22 260.429 111.348C260.725 111.476 260.961 111.644 261.137 111.852V111.06C261.137 110.676 260.993 110.36 260.705 110.112C260.417 109.856 260.045 109.728 259.589 109.728C259.293 109.728 258.997 109.772 258.701 109.86C258.413 109.948 258.125 110.08 257.837 110.256V109.248C258.101 109.096 258.405 108.976 258.749 108.888C259.093 108.8 259.437 108.756 259.781 108.756C260.509 108.756 261.089 108.96 261.521 109.368C261.961 109.776 262.181 110.316 262.181 110.988V114.984ZM259.613 114.24C260.045 114.24 260.409 114.136 260.705 113.928C261.009 113.712 261.161 113.444 261.161 113.124C261.161 112.804 261.009 112.54 260.705 112.332C260.401 112.116 260.037 112.008 259.613 112.008C259.205 112.008 258.861 112.112 258.581 112.32C258.301 112.528 258.161 112.796 258.161 113.124C258.161 113.452 258.297 113.72 258.569 113.928C258.849 114.136 259.197 114.24 259.613 114.24ZM264.69 111.948C264.69 112.572 264.906 113.1 265.338 113.532C265.77 113.964 266.29 114.18 266.898 114.18C267.202 114.18 267.482 114.132 267.738 114.036C268.002 113.932 268.242 113.776 268.458 113.568V114.66C268.234 114.812 267.982 114.928 267.702 115.008C267.422 115.088 267.138 115.128 266.85 115.128C265.97 115.128 265.218 114.82 264.594 114.204C263.97 113.58 263.658 112.828 263.658 111.948C263.658 111.06 263.97 110.308 264.594 109.692C265.218 109.068 265.97 108.756 266.85 108.756C267.146 108.756 267.43 108.8 267.702 108.888C267.982 108.968 268.234 109.084 268.458 109.236V110.316C268.242 110.116 268.006 109.968 267.75 109.872C267.494 109.768 267.21 109.716 266.898 109.716C266.29 109.716 265.77 109.932 265.338 110.364C264.906 110.796 264.69 111.324 264.69 111.948ZM270.573 111.948C270.573 112.572 270.789 113.1 271.221 113.532C271.653 113.964 272.173 114.18 272.781 114.18C273.085 114.18 273.365 114.132 273.621 114.036C273.885 113.932 274.125 113.776 274.341 113.568V114.66C274.117 114.812 273.865 114.928 273.585 115.008C273.305 115.088 273.021 115.128 272.733 115.128C271.853 115.128 271.101 114.82 270.477 114.204C269.853 113.58 269.541 112.828 269.541 111.948C269.541 111.06 269.853 110.308 270.477 109.692C271.101 109.068 271.853 108.756 272.733 108.756C273.029 108.756 273.313 108.8 273.585 108.888C273.865 108.968 274.117 109.084 274.341 109.236V110.316C274.125 110.116 273.889 109.968 273.633 109.872C273.377 109.768 273.093 109.716 272.781 109.716C272.173 109.716 271.653 109.932 271.221 110.364C270.789 110.796 270.573 111.324 270.573 111.948ZM278.784 115.128C277.832 115.128 277.036 114.824 276.396 114.216C275.764 113.608 275.448 112.852 275.448 111.948C275.448 111.068 275.752 110.316 276.36 109.692C276.976 109.068 277.708 108.756 278.556 108.756C279.468 108.756 280.188 109.08 280.716 109.728C281.252 110.368 281.496 111.188 281.448 112.188H276.48C276.536 112.788 276.784 113.272 277.224 113.64C277.664 114.008 278.22 114.192 278.892 114.192C279.292 114.192 279.684 114.12 280.068 113.976C280.452 113.824 280.78 113.616 281.052 113.352V114.408C280.756 114.64 280.412 114.82 280.02 114.948C279.628 115.068 279.216 115.128 278.784 115.128ZM278.544 109.668C278.056 109.668 277.624 109.824 277.248 110.136C276.88 110.448 276.64 110.86 276.528 111.372H280.404C280.348 110.868 280.152 110.46 279.816 110.148C279.48 109.828 279.056 109.668 278.544 109.668ZM286.342 108.756C287.19 108.756 287.906 109.064 288.49 109.68C289.074 110.296 289.366 111.052 289.366 111.948C289.366 112.836 289.074 113.588 288.49 114.204C287.906 114.82 287.19 115.128 286.342 115.128C285.846 115.128 285.386 115 284.962 114.744C284.538 114.488 284.238 114.16 284.062 113.76V117.504H282.982V108.9H284.062V110.124C284.238 109.732 284.538 109.408 284.962 109.152C285.394 108.888 285.854 108.756 286.342 108.756ZM288.298 111.948C288.298 111.324 288.09 110.796 287.674 110.364C287.266 109.924 286.762 109.704 286.162 109.704C285.562 109.704 285.054 109.924 284.638 110.364C284.23 110.796 284.026 111.324 284.026 111.948C284.026 112.572 284.234 113.104 284.65 113.544C285.066 113.976 285.57 114.192 286.162 114.192C286.754 114.192 287.258 113.976 287.674 113.544C288.09 113.104 288.298 112.572 288.298 111.948ZM292.225 109.788V113.016C292.225 113.384 292.317 113.672 292.501 113.88C292.693 114.088 292.957 114.192 293.293 114.192C293.493 114.192 293.677 114.164 293.845 114.108C294.021 114.044 294.185 113.952 294.337 113.832V114.816C294.177 114.912 293.989 114.988 293.773 115.044C293.557 115.1 293.337 115.128 293.113 115.128C292.505 115.128 292.025 114.948 291.673 114.588C291.321 114.228 291.145 113.736 291.145 113.112V109.788H290.089V108.9H291.145V107.268L292.225 106.884V108.9H294.025V109.788H292.225ZM298.495 115.128C297.543 115.128 296.747 114.824 296.107 114.216C295.475 113.608 295.159 112.852 295.159 111.948C295.159 111.068 295.463 110.316 296.071 109.692C296.687 109.068 297.419 108.756 298.267 108.756C299.179 108.756 299.899 109.08 300.427 109.728C300.963 110.368 301.207 111.188 301.159 112.188H296.191C296.247 112.788 296.495 113.272 296.935 113.64C297.375 114.008 297.931 114.192 298.603 114.192C299.003 114.192 299.395 114.12 299.779 113.976C300.163 113.824 300.491 113.616 300.763 113.352V114.408C300.467 114.64 300.123 114.82 299.731 114.948C299.339 115.068 298.927 115.128 298.495 115.128ZM298.255 109.668C297.767 109.668 297.335 109.824 296.959 110.136C296.591 110.448 296.351 110.86 296.239 111.372H300.115C300.059 110.868 299.863 110.46 299.527 110.148C299.191 109.828 298.767 109.668 298.255 109.668ZM302.201 111.948C302.201 111.052 302.493 110.296 303.077 109.68C303.661 109.064 304.377 108.756 305.225 108.756C305.713 108.756 306.169 108.888 306.593 109.152C307.025 109.408 307.329 109.732 307.505 110.124V105.864H308.585V114.984H307.505V113.76C307.329 114.16 307.029 114.488 306.605 114.744C306.181 115 305.721 115.128 305.225 115.128C304.377 115.128 303.661 114.82 303.077 114.204C302.493 113.588 302.201 112.836 302.201 111.948ZM307.541 111.948C307.541 111.324 307.333 110.796 306.917 110.364C306.509 109.924 306.005 109.704 305.405 109.704C304.805 109.704 304.297 109.924 303.881 110.364C303.473 110.796 303.269 111.324 303.269 111.948C303.269 112.572 303.477 113.104 303.893 113.544C304.309 113.976 304.813 114.192 305.405 114.192C305.997 114.192 306.501 113.976 306.917 113.544C307.333 113.104 307.541 112.572 307.541 111.948ZM316.659 108.756C317.507 108.756 318.223 109.064 318.807 109.68C319.391 110.296 319.683 111.052 319.683 111.948C319.683 112.836 319.391 113.588 318.807 114.204C318.223 114.82 317.507 115.128 316.659 115.128C316.163 115.128 315.703 115 315.279 114.744C314.855 114.488 314.555 114.16 314.379 113.76V114.984H313.299V105.864H314.379V110.124C314.555 109.732 314.855 109.408 315.279 109.152C315.711 108.888 316.171 108.756 316.659 108.756ZM318.615 111.948C318.615 111.324 318.407 110.796 317.991 110.364C317.583 109.924 317.079 109.704 316.479 109.704C315.879 109.704 315.371 109.924 314.955 110.364C314.547 110.796 314.343 111.324 314.343 111.948C314.343 112.572 314.551 113.104 314.967 113.544C315.383 113.976 315.887 114.192 316.479 114.192C317.071 114.192 317.575 113.976 317.991 113.544C318.407 113.104 318.615 112.572 318.615 111.948ZM322.342 117.504H321.214L322.822 114.396L320.134 108.9H321.298L323.386 113.28L325.462 108.9H326.614L322.342 117.504ZM332.218 105.912L335.41 112.836L338.59 105.912L341.014 114.984H339.874L338.338 109.02L335.41 115.236L332.47 109.02L330.934 114.984H329.806L332.218 105.912ZM345.494 108.816V109.896C344.87 109.8 344.362 109.924 343.97 110.268C343.578 110.604 343.382 111.124 343.382 111.828V114.984H342.302V108.9H343.382V110.004C343.566 109.596 343.85 109.284 344.234 109.068C344.618 108.844 345.038 108.76 345.494 108.816ZM346.72 113.532H346.732C346.948 113.532 347.128 113.604 347.272 113.748C347.424 113.892 347.5 114.072 347.5 114.288C347.5 114.504 347.424 114.684 347.272 114.828C347.128 114.972 346.948 115.044 346.732 115.044H346.72C346.504 115.044 346.32 114.972 346.168 114.828C346.024 114.684 345.952 114.504 345.952 114.288C345.952 114.072 346.024 113.892 346.168 113.748C346.32 113.604 346.504 113.532 346.72 113.532ZM359.291 114.984H358.031L355.199 111.204L352.355 114.984H351.131L354.587 110.376L351.455 106.224H352.715L355.211 109.548L357.707 106.224H358.931L355.823 110.364L359.291 114.984ZM366.125 111.948C366.125 112.828 365.813 113.58 365.189 114.204C364.565 114.82 363.813 115.128 362.933 115.128C362.053 115.128 361.301 114.82 360.677 114.204C360.053 113.58 359.741 112.828 359.741 111.948C359.741 111.06 360.053 110.308 360.677 109.692C361.301 109.068 362.053 108.756 362.933 108.756C363.813 108.756 364.565 109.068 365.189 109.692C365.813 110.308 366.125 111.06 366.125 111.948ZM365.057 111.948C365.057 111.316 364.853 110.784 364.445 110.352C364.037 109.92 363.533 109.704 362.933 109.704C362.341 109.704 361.837 109.92 361.421 110.352C361.013 110.784 360.809 111.316 360.809 111.948C360.809 112.572 361.013 113.1 361.421 113.532C361.837 113.964 362.341 114.18 362.933 114.18C363.533 114.18 364.037 113.964 364.445 113.532C364.853 113.1 365.057 112.572 365.057 111.948ZM367.674 114.984V105.864H368.754V114.984H367.674ZM375.22 114.984H374.176V114.384C374.024 114.608 373.796 114.788 373.492 114.924C373.188 115.06 372.852 115.128 372.484 115.128C371.844 115.128 371.304 114.94 370.864 114.564C370.424 114.18 370.204 113.7 370.204 113.124C370.204 112.564 370.424 112.096 370.864 111.72C371.312 111.344 371.86 111.156 372.508 111.156C372.852 111.156 373.172 111.22 373.468 111.348C373.764 111.476 374 111.644 374.176 111.852V111.06C374.176 110.676 374.032 110.36 373.744 110.112C373.456 109.856 373.084 109.728 372.628 109.728C372.332 109.728 372.036 109.772 371.74 109.86C371.452 109.948 371.164 110.08 370.876 110.256V109.248C371.14 109.096 371.444 108.976 371.788 108.888C372.132 108.8 372.476 108.756 372.82 108.756C373.548 108.756 374.128 108.96 374.56 109.368C375 109.776 375.22 110.316 375.22 110.988V114.984ZM372.652 114.24C373.084 114.24 373.448 114.136 373.744 113.928C374.048 113.712 374.2 113.444 374.2 113.124C374.2 112.804 374.048 112.54 373.744 112.332C373.44 112.116 373.076 112.008 372.652 112.008C372.244 112.008 371.9 112.112 371.62 112.32C371.34 112.528 371.2 112.796 371.2 113.124C371.2 113.452 371.336 113.72 371.608 113.928C371.888 114.136 372.236 114.24 372.652 114.24ZM379.769 109.74C379.329 109.74 378.969 109.896 378.689 110.208C378.409 110.52 378.269 110.916 378.269 111.396V114.984H377.189V108.9H378.269V109.812C378.429 109.492 378.677 109.236 379.013 109.044C379.349 108.852 379.721 108.756 380.129 108.756C380.809 108.756 381.349 108.976 381.749 109.416C382.149 109.848 382.349 110.416 382.349 111.12V114.984H381.269V111.384C381.269 110.88 381.133 110.48 380.861 110.184C380.597 109.888 380.233 109.74 379.769 109.74ZM387.182 115.128C386.23 115.128 385.434 114.824 384.794 114.216C384.162 113.608 383.846 112.852 383.846 111.948C383.846 111.068 384.15 110.316 384.758 109.692C385.374 109.068 386.106 108.756 386.954 108.756C387.866 108.756 388.586 109.08 389.114 109.728C389.65 110.368 389.894 111.188 389.846 112.188H384.878C384.934 112.788 385.182 113.272 385.622 113.64C386.062 114.008 386.618 114.192 387.29 114.192C387.69 114.192 388.082 114.12 388.466 113.976C388.85 113.824 389.178 113.616 389.45 113.352V114.408C389.154 114.64 388.81 114.82 388.418 114.948C388.026 115.068 387.614 115.128 387.182 115.128ZM386.942 109.668C386.454 109.668 386.022 109.824 385.646 110.136C385.278 110.448 385.038 110.86 384.926 111.372H388.802C388.746 110.868 388.55 110.46 388.214 110.148C387.878 109.828 387.454 109.668 386.942 109.668ZM196.323 122.924L202.707 129.644V123.224H203.799V132.284L197.415 125.564V131.984H196.323V122.924ZM205.358 128.948C205.358 128.052 205.65 127.296 206.234 126.68C206.818 126.064 207.534 125.756 208.382 125.756C208.87 125.756 209.326 125.888 209.75 126.152C210.182 126.408 210.486 126.732 210.662 127.124V122.864H211.742V131.984H210.662V130.76C210.486 131.16 210.186 131.488 209.762 131.744C209.338 132 208.878 132.128 208.382 132.128C207.534 132.128 206.818 131.82 206.234 131.204C205.65 130.588 205.358 129.836 205.358 128.948ZM210.698 128.948C210.698 128.324 210.49 127.796 210.074 127.364C209.666 126.924 209.162 126.704 208.562 126.704C207.962 126.704 207.454 126.924 207.038 127.364C206.63 127.796 206.426 128.324 206.426 128.948C206.426 129.572 206.634 130.104 207.05 130.544C207.466 130.976 207.97 131.192 208.562 131.192C209.154 131.192 209.658 130.976 210.074 130.544C210.49 130.104 210.698 129.572 210.698 128.948ZM216.34 126.74C215.9 126.74 215.54 126.896 215.26 127.208C214.98 127.52 214.84 127.916 214.84 128.396V131.984H213.76V122.864H214.84V126.812C215 126.492 215.248 126.236 215.584 126.044C215.92 125.852 216.292 125.756 216.7 125.756C217.38 125.756 217.92 125.976 218.32 126.416C218.72 126.848 218.92 127.416 218.92 128.12V131.984H217.84V128.384C217.84 127.88 217.704 127.48 217.432 127.184C217.168 126.888 216.804 126.74 216.34 126.74ZM220.885 131.984V122.864H221.965V131.984H220.885ZM229.883 128.948C229.883 129.828 229.571 130.58 228.947 131.204C228.323 131.82 227.571 132.128 226.691 132.128C225.811 132.128 225.059 131.82 224.435 131.204C223.811 130.58 223.499 129.828 223.499 128.948C223.499 128.06 223.811 127.308 224.435 126.692C225.059 126.068 225.811 125.756 226.691 125.756C227.571 125.756 228.323 126.068 228.947 126.692C229.571 127.308 229.883 128.06 229.883 128.948ZM228.815 128.948C228.815 128.316 228.611 127.784 228.203 127.352C227.795 126.92 227.291 126.704 226.691 126.704C226.099 126.704 225.595 126.92 225.179 127.352C224.771 127.784 224.567 128.316 224.567 128.948C224.567 129.572 224.771 130.1 225.179 130.532C225.595 130.964 226.099 131.18 226.691 131.18C227.291 131.18 227.795 130.964 228.203 130.532C228.611 130.1 228.815 129.572 228.815 128.948ZM231.475 125.9L233.551 130.292L235.627 125.9H236.767L233.527 132.284L230.287 125.9H231.475ZM240.443 131.156C240.883 131.156 241.243 131.004 241.523 130.7C241.803 130.388 241.943 129.992 241.943 129.512V125.9H243.023V131.984H241.943V131.072C241.783 131.392 241.535 131.648 241.199 131.84C240.863 132.032 240.491 132.128 240.083 132.128C239.411 132.128 238.875 131.912 238.475 131.48C238.083 131.048 237.887 130.48 237.887 129.776V125.9H238.967V129.512C238.967 130.016 239.099 130.416 239.363 130.712C239.627 131.008 239.987 131.156 240.443 131.156ZM252.208 131.984H251.164V131.384C251.012 131.608 250.784 131.788 250.48 131.924C250.176 132.06 249.84 132.128 249.472 132.128C248.832 132.128 248.292 131.94 247.852 131.564C247.412 131.18 247.192 130.7 247.192 130.124C247.192 129.564 247.412 129.096 247.852 128.72C248.3 128.344 248.848 128.156 249.496 128.156C249.84 128.156 250.16 128.22 250.456 128.348C250.752 128.476 250.988 128.644 251.164 128.852V128.06C251.164 127.676 251.02 127.36 250.732 127.112C250.444 126.856 250.072 126.728 249.616 126.728C249.32 126.728 249.024 126.772 248.728 126.86C248.44 126.948 248.152 127.08 247.864 127.256V126.248C248.128 126.096 248.432 125.976 248.776 125.888C249.12 125.8 249.464 125.756 249.808 125.756C250.536 125.756 251.116 125.96 251.548 126.368C251.988 126.776 252.208 127.316 252.208 127.988V131.984ZM249.64 131.24C250.072 131.24 250.436 131.136 250.732 130.928C251.036 130.712 251.188 130.444 251.188 130.124C251.188 129.804 251.036 129.54 250.732 129.332C250.428 129.116 250.064 129.008 249.64 129.008C249.232 129.008 248.888 129.112 248.608 129.32C248.328 129.528 248.188 129.796 248.188 130.124C248.188 130.452 248.324 130.72 248.596 130.928C248.876 131.136 249.224 131.24 249.64 131.24ZM256.758 126.74C256.318 126.74 255.958 126.896 255.678 127.208C255.398 127.52 255.258 127.916 255.258 128.396V131.984H254.178V125.9H255.258V126.812C255.418 126.492 255.666 126.236 256.002 126.044C256.338 125.852 256.71 125.756 257.118 125.756C257.798 125.756 258.338 125.976 258.738 126.416C259.138 126.848 259.338 127.416 259.338 128.12V131.984H258.258V128.384C258.258 127.88 258.122 127.48 257.85 127.184C257.586 126.888 257.222 126.74 256.758 126.74ZM260.811 128.948C260.811 128.052 261.103 127.296 261.687 126.68C262.271 126.064 262.987 125.756 263.835 125.756C264.323 125.756 264.779 125.888 265.203 126.152C265.635 126.408 265.939 126.732 266.115 127.124V122.864H267.195V131.984H266.115V130.76C265.939 131.16 265.639 131.488 265.215 131.744C264.791 132 264.331 132.128 263.835 132.128C262.987 132.128 262.271 131.82 261.687 131.204C261.103 130.588 260.811 129.836 260.811 128.948ZM266.151 128.948C266.151 128.324 265.943 127.796 265.527 127.364C265.119 126.924 264.615 126.704 264.015 126.704C263.415 126.704 262.907 126.924 262.491 127.364C262.083 127.796 261.879 128.324 261.879 128.948C261.879 129.572 262.087 130.104 262.503 130.544C262.919 130.976 263.423 131.192 264.015 131.192C264.607 131.192 265.111 130.976 265.527 130.544C265.943 130.104 266.151 129.572 266.151 128.948ZM273.24 126.788V130.016C273.24 130.384 273.332 130.672 273.516 130.88C273.708 131.088 273.972 131.192 274.308 131.192C274.508 131.192 274.692 131.164 274.86 131.108C275.036 131.044 275.2 130.952 275.352 130.832V131.816C275.192 131.912 275.004 131.988 274.788 132.044C274.572 132.1 274.352 132.128 274.128 132.128C273.52 132.128 273.04 131.948 272.688 131.588C272.336 131.228 272.16 130.736 272.16 130.112V126.788H271.104V125.9H272.16V124.268L273.24 123.884V125.9H275.04V126.788H273.24ZM279.41 126.74C278.97 126.74 278.61 126.896 278.33 127.208C278.05 127.52 277.91 127.916 277.91 128.396V131.984H276.83V122.864H277.91V126.812C278.07 126.492 278.318 126.236 278.654 126.044C278.99 125.852 279.362 125.756 279.77 125.756C280.45 125.756 280.99 125.976 281.39 126.416C281.79 126.848 281.99 127.416 281.99 128.12V131.984H280.91V128.384C280.91 127.88 280.774 127.48 280.502 127.184C280.238 126.888 279.874 126.74 279.41 126.74ZM286.823 132.128C285.871 132.128 285.075 131.824 284.435 131.216C283.803 130.608 283.487 129.852 283.487 128.948C283.487 128.068 283.791 127.316 284.399 126.692C285.015 126.068 285.747 125.756 286.595 125.756C287.507 125.756 288.227 126.08 288.755 126.728C289.291 127.368 289.535 128.188 289.487 129.188H284.519C284.575 129.788 284.823 130.272 285.263 130.64C285.703 131.008 286.259 131.192 286.931 131.192C287.331 131.192 287.723 131.12 288.107 130.976C288.491 130.824 288.819 130.616 289.091 130.352V131.408C288.795 131.64 288.451 131.82 288.059 131.948C287.667 132.068 287.255 132.128 286.823 132.128ZM286.583 126.668C286.095 126.668 285.663 126.824 285.287 127.136C284.919 127.448 284.679 127.86 284.567 128.372H288.443C288.387 127.868 288.191 127.46 287.855 127.148C287.519 126.828 287.095 126.668 286.583 126.668ZM293.225 128.948C293.225 128.052 293.517 127.296 294.101 126.68C294.685 126.064 295.401 125.756 296.249 125.756C296.737 125.756 297.193 125.888 297.617 126.152C298.049 126.408 298.353 126.732 298.529 127.124V122.864H299.609V131.984H298.529V130.76C298.353 131.16 298.053 131.488 297.629 131.744C297.205 132 296.745 132.128 296.249 132.128C295.401 132.128 294.685 131.82 294.101 131.204C293.517 130.588 293.225 129.836 293.225 128.948ZM298.565 128.948C298.565 128.324 298.357 127.796 297.941 127.364C297.533 126.924 297.029 126.704 296.429 126.704C295.829 126.704 295.321 126.924 294.905 127.364C294.497 127.796 294.293 128.324 294.293 128.948C294.293 129.572 294.501 130.104 294.917 130.544C295.333 130.976 295.837 131.192 296.429 131.192C297.021 131.192 297.525 130.976 297.941 130.544C298.357 130.104 298.565 129.572 298.565 128.948ZM304.495 132.128C303.543 132.128 302.747 131.824 302.107 131.216C301.475 130.608 301.159 129.852 301.159 128.948C301.159 128.068 301.463 127.316 302.071 126.692C302.687 126.068 303.419 125.756 304.267 125.756C305.179 125.756 305.899 126.08 306.427 126.728C306.963 127.368 307.207 128.188 307.159 129.188H302.191C302.247 129.788 302.495 130.272 302.935 130.64C303.375 131.008 303.931 131.192 304.603 131.192C305.003 131.192 305.395 131.12 305.779 130.976C306.163 130.824 306.491 130.616 306.763 130.352V131.408C306.467 131.64 306.123 131.82 305.731 131.948C305.339 132.068 304.927 132.128 304.495 132.128ZM304.255 126.668C303.767 126.668 303.335 126.824 302.959 127.136C302.591 127.448 302.351 127.86 302.239 128.372H306.115C306.059 127.868 305.863 127.46 305.527 127.148C305.191 126.828 304.767 126.668 304.255 126.668ZM313.157 131.984H312.113V131.384C311.961 131.608 311.733 131.788 311.429 131.924C311.125 132.06 310.789 132.128 310.421 132.128C309.781 132.128 309.241 131.94 308.801 131.564C308.361 131.18 308.141 130.7 308.141 130.124C308.141 129.564 308.361 129.096 308.801 128.72C309.249 128.344 309.797 128.156 310.445 128.156C310.789 128.156 311.109 128.22 311.405 128.348C311.701 128.476 311.937 128.644 312.113 128.852V128.06C312.113 127.676 311.969 127.36 311.681 127.112C311.393 126.856 311.021 126.728 310.565 126.728C310.269 126.728 309.973 126.772 309.677 126.86C309.389 126.948 309.101 127.08 308.813 127.256V126.248C309.077 126.096 309.381 125.976 309.725 125.888C310.069 125.8 310.413 125.756 310.757 125.756C311.485 125.756 312.065 125.96 312.497 126.368C312.937 126.776 313.157 127.316 313.157 127.988V131.984ZM310.589 131.24C311.021 131.24 311.385 131.136 311.681 130.928C311.985 130.712 312.137 130.444 312.137 130.124C312.137 129.804 311.985 129.54 311.681 129.332C311.377 129.116 311.013 129.008 310.589 129.008C310.181 129.008 309.837 129.112 309.557 129.32C309.277 129.528 309.137 129.796 309.137 130.124C309.137 130.452 309.273 130.72 309.545 130.928C309.825 131.136 310.173 131.24 310.589 131.24ZM315.127 131.984V122.864H316.207V131.984H315.127ZM323.484 126.74C323.044 126.74 322.684 126.896 322.404 127.208C322.124 127.52 321.984 127.916 321.984 128.396V131.984H320.904V122.864H321.984V126.812C322.144 126.492 322.392 126.236 322.728 126.044C323.064 125.852 323.436 125.756 323.844 125.756C324.524 125.756 325.064 125.976 325.464 126.416C325.864 126.848 326.064 127.416 326.064 128.12V131.984H324.984V128.384C324.984 127.88 324.848 127.48 324.576 127.184C324.312 126.888 323.948 126.74 323.484 126.74ZM332.493 131.984H331.449V131.384C331.297 131.608 331.069 131.788 330.765 131.924C330.461 132.06 330.125 132.128 329.757 132.128C329.117 132.128 328.577 131.94 328.137 131.564C327.697 131.18 327.477 130.7 327.477 130.124C327.477 129.564 327.697 129.096 328.137 128.72C328.585 128.344 329.133 128.156 329.781 128.156C330.125 128.156 330.445 128.22 330.741 128.348C331.037 128.476 331.273 128.644 331.449 128.852V128.06C331.449 127.676 331.305 127.36 331.017 127.112C330.729 126.856 330.357 126.728 329.901 126.728C329.605 126.728 329.309 126.772 329.013 126.86C328.725 126.948 328.437 127.08 328.149 127.256V126.248C328.413 126.096 328.717 125.976 329.061 125.888C329.405 125.8 329.749 125.756 330.093 125.756C330.821 125.756 331.401 125.96 331.833 126.368C332.273 126.776 332.493 127.316 332.493 127.988V131.984ZM329.925 131.24C330.357 131.24 330.721 131.136 331.017 130.928C331.321 130.712 331.473 130.444 331.473 130.124C331.473 129.804 331.321 129.54 331.017 129.332C330.713 129.116 330.349 129.008 329.925 129.008C329.517 129.008 329.173 129.112 328.893 129.32C328.613 129.528 328.473 129.796 328.473 130.124C328.473 130.452 328.609 130.72 328.881 130.928C329.161 131.136 329.509 131.24 329.925 131.24ZM334.031 131.528V130.436C334.303 130.692 334.603 130.892 334.931 131.036C335.267 131.172 335.603 131.24 335.939 131.24C336.299 131.24 336.583 131.164 336.791 131.012C337.007 130.86 337.115 130.652 337.115 130.388C337.115 130.204 337.067 130.052 336.971 129.932C336.875 129.812 336.691 129.688 336.419 129.56L335.327 129.044C334.871 128.828 334.555 128.604 334.379 128.372C334.211 128.132 334.127 127.84 334.127 127.496C334.127 127 334.319 126.588 334.703 126.26C335.087 125.924 335.571 125.756 336.155 125.756C336.475 125.756 336.779 125.804 337.067 125.9C337.363 125.996 337.631 126.136 337.871 126.32V127.376C337.583 127.136 337.295 126.956 337.007 126.836C336.727 126.716 336.447 126.656 336.167 126.656C335.855 126.656 335.603 126.728 335.411 126.872C335.227 127.016 335.135 127.208 335.135 127.448C335.135 127.608 335.183 127.748 335.279 127.868C335.383 127.98 335.611 128.12 335.963 128.288L337.031 128.792C337.423 128.976 337.703 129.192 337.871 129.44C338.047 129.68 338.135 129.98 338.135 130.34C338.135 130.86 337.927 131.288 337.511 131.624C337.095 131.96 336.579 132.128 335.963 132.128C335.611 132.128 335.263 132.076 334.919 131.972C334.583 131.86 334.287 131.712 334.031 131.528ZM341.918 131.528V130.436C342.19 130.692 342.49 130.892 342.818 131.036C343.154 131.172 343.49 131.24 343.826 131.24C344.186 131.24 344.47 131.164 344.678 131.012C344.894 130.86 345.002 130.652 345.002 130.388C345.002 130.204 344.954 130.052 344.858 129.932C344.762 129.812 344.578 129.688 344.306 129.56L343.214 129.044C342.758 128.828 342.442 128.604 342.266 128.372C342.098 128.132 342.014 127.84 342.014 127.496C342.014 127 342.206 126.588 342.59 126.26C342.974 125.924 343.458 125.756 344.042 125.756C344.362 125.756 344.666 125.804 344.954 125.9C345.25 125.996 345.518 126.136 345.758 126.32V127.376C345.47 127.136 345.182 126.956 344.894 126.836C344.614 126.716 344.334 126.656 344.054 126.656C343.742 126.656 343.49 126.728 343.298 126.872C343.114 127.016 343.022 127.208 343.022 127.448C343.022 127.608 343.07 127.748 343.166 127.868C343.27 127.98 343.498 128.12 343.85 128.288L344.918 128.792C345.31 128.976 345.59 129.192 345.758 129.44C345.934 129.68 346.022 129.98 346.022 130.34C346.022 130.86 345.814 131.288 345.398 131.624C344.982 131.96 344.466 132.128 343.85 132.128C343.498 132.128 343.15 132.076 342.806 131.972C342.47 131.86 342.174 131.712 341.918 131.528ZM348.873 126.788V130.016C348.873 130.384 348.965 130.672 349.149 130.88C349.341 131.088 349.605 131.192 349.941 131.192C350.141 131.192 350.325 131.164 350.493 131.108C350.669 131.044 350.833 130.952 350.985 130.832V131.816C350.825 131.912 350.637 131.988 350.421 132.044C350.205 132.1 349.985 132.128 349.761 132.128C349.153 132.128 348.673 131.948 348.321 131.588C347.969 131.228 347.793 130.736 347.793 130.112V126.788H346.737V125.9H347.793V124.268L348.873 123.884V125.9H350.673V126.788H348.873ZM356.927 131.984H355.883V131.384C355.731 131.608 355.503 131.788 355.199 131.924C354.895 132.06 354.559 132.128 354.191 132.128C353.551 132.128 353.011 131.94 352.571 131.564C352.131 131.18 351.911 130.7 351.911 130.124C351.911 129.564 352.131 129.096 352.571 128.72C353.019 128.344 353.567 128.156 354.215 128.156C354.559 128.156 354.879 128.22 355.175 128.348C355.471 128.476 355.707 128.644 355.883 128.852V128.06C355.883 127.676 355.739 127.36 355.451 127.112C355.163 126.856 354.791 126.728 354.335 126.728C354.039 126.728 353.743 126.772 353.447 126.86C353.159 126.948 352.871 127.08 352.583 127.256V126.248C352.847 126.096 353.151 125.976 353.495 125.888C353.839 125.8 354.183 125.756 354.527 125.756C355.255 125.756 355.835 125.96 356.267 126.368C356.707 126.776 356.927 127.316 356.927 127.988V131.984ZM354.359 131.24C354.791 131.24 355.155 131.136 355.451 130.928C355.755 130.712 355.907 130.444 355.907 130.124C355.907 129.804 355.755 129.54 355.451 129.332C355.147 129.116 354.783 129.008 354.359 129.008C353.951 129.008 353.607 129.112 353.327 129.32C353.047 129.528 352.907 129.796 352.907 130.124C352.907 130.452 353.043 130.72 353.315 130.928C353.595 131.136 353.943 131.24 354.359 131.24ZM362.04 125.816V126.896C361.416 126.8 360.908 126.924 360.516 127.268C360.124 127.604 359.928 128.124 359.928 128.828V131.984H358.848V125.9H359.928V127.004C360.112 126.596 360.396 126.284 360.78 126.068C361.164 125.844 361.584 125.76 362.04 125.816ZM364.799 126.788V130.016C364.799 130.384 364.891 130.672 365.075 130.88C365.267 131.088 365.531 131.192 365.867 131.192C366.067 131.192 366.251 131.164 366.419 131.108C366.595 131.044 366.759 130.952 366.911 130.832V131.816C366.751 131.912 366.563 131.988 366.347 132.044C366.131 132.1 365.911 132.128 365.687 132.128C365.079 132.128 364.599 131.948 364.247 131.588C363.895 131.228 363.719 130.736 363.719 130.112V126.788H362.663V125.9H363.719V124.268L364.799 123.884V125.9H366.599V126.788H364.799ZM371.069 132.128C370.117 132.128 369.321 131.824 368.681 131.216C368.049 130.608 367.733 129.852 367.733 128.948C367.733 128.068 368.037 127.316 368.645 126.692C369.261 126.068 369.993 125.756 370.841 125.756C371.753 125.756 372.473 126.08 373.001 126.728C373.537 127.368 373.781 128.188 373.733 129.188H368.765C368.821 129.788 369.069 130.272 369.509 130.64C369.949 131.008 370.505 131.192 371.177 131.192C371.577 131.192 371.969 131.12 372.353 130.976C372.737 130.824 373.065 130.616 373.337 130.352V131.408C373.041 131.64 372.697 131.82 372.305 131.948C371.913 132.068 371.501 132.128 371.069 132.128ZM370.829 126.668C370.341 126.668 369.909 126.824 369.533 127.136C369.165 127.448 368.925 127.86 368.813 128.372H372.689C372.633 127.868 372.437 127.46 372.101 127.148C371.765 126.828 371.341 126.668 370.829 126.668ZM374.776 128.948C374.776 128.052 375.068 127.296 375.652 126.68C376.236 126.064 376.952 125.756 377.8 125.756C378.288 125.756 378.744 125.888 379.168 126.152C379.6 126.408 379.904 126.732 380.08 127.124V122.864H381.16V131.984H380.08V130.76C379.904 131.16 379.604 131.488 379.18 131.744C378.756 132 378.296 132.128 377.8 132.128C376.952 132.128 376.236 131.82 375.652 131.204C375.068 130.588 374.776 129.836 374.776 128.948ZM380.116 128.948C380.116 128.324 379.908 127.796 379.492 127.364C379.084 126.924 378.58 126.704 377.98 126.704C377.38 126.704 376.872 126.924 376.456 127.364C376.048 127.796 375.844 128.324 375.844 128.948C375.844 129.572 376.052 130.104 376.468 130.544C376.884 130.976 377.388 131.192 377.98 131.192C378.572 131.192 379.076 130.976 379.492 130.544C379.908 130.104 380.116 129.572 380.116 128.948ZM383.658 130.532H383.67C383.886 130.532 384.066 130.604 384.21 130.748C384.362 130.892 384.438 131.072 384.438 131.288C384.438 131.504 384.362 131.684 384.21 131.828C384.066 131.972 383.886 132.044 383.67 132.044H383.658C383.442 132.044 383.258 131.972 383.106 131.828C382.962 131.684 382.89 131.504 382.89 131.288C382.89 131.072 382.962 130.892 383.106 130.748C383.258 130.604 383.442 130.532 383.658 130.532Z" fill="#222222"/>
<mask id="mask0_6_2910" style="mask-type:alpha" maskUnits="userSpaceOnUse" x="98" y="274" width="51" height="36">
<rect x="98" y="310" width="36" height="51" rx="3" transform="rotate(-90 98 310)" fill="url(#paint1_linear_6_2910)"/>
</mask>
<g mask="url(#mask0_6_2910)">
<rect x="98" y="310" width="36" height="51" rx="4" transform="rotate(-90 98 310)" fill="url(#paint2_linear_6_2910)"/>
<line y1="-0.1" x2="9.03601" y2="-0.1" transform="matrix(0.810658 0.58552 -0.581752 0.813366 116.542 274)" stroke="#5B5B5B" stroke-width="0.2"/>
<line y1="-0.1" x2="9.50584" y2="-0.1" transform="matrix(-0.830793 0.556581 -0.55282 -0.8333 131.764 274)" stroke="#5B5B5B" stroke-width="0.2"/>
<line y1="-0.1" x2="10.8925" y2="-0.1" transform="matrix(-0.798587 0.60188 -0.59812 -0.801407 124.095 303.444)" stroke="#5B5B5B" stroke-width="0.2"/>
<line y1="-0.1" x2="10.7105" y2="-0.1" transform="matrix(0.790778 0.612103 -0.608352 0.793667 124.095 303.444)" stroke="#5B5B5B" stroke-width="0.2"/>
<line x1="123.967" y1="279.291" x2="123.967" y2="286.192" stroke="#5B5B5B" stroke-width="0.2"/>
<line x1="124.195" y1="297.923" x2="124.195" y2="303.559" stroke="#5B5B5B" stroke-width="0.2"/>
<line x1="116.527" y1="286.192" x2="116.527" y2="297.923" stroke="#5B5B5B" stroke-width="0.2"/>
<line x1="116.542" y1="286.092" x2="132.68" y2="286.092" stroke="#5B5B5B" stroke-width="0.2"/>
<line x1="116.542" y1="297.823" x2="124.21" y2="297.823" stroke="#5B5B5B" stroke-width="0.2"/>
<line x1="132.665" y1="286.192" x2="132.665" y2="295.968" stroke="#5B5B5B" stroke-width="0.2"/>
<line y1="-0.1" x2="4.62556" y2="-0.1" transform="matrix(-0.692833 -0.721098 0.7177 -0.696353 135.99 299.2)" stroke="#5B5B5B" stroke-width="0.2"/>
<line x1="149" y1="291.1" x2="132.555" y2="291.1" stroke="#5B5B5B" stroke-width="0.2"/>
<line x1="149" y1="299.3" x2="135.885" y2="299.3" stroke="#5B5B5B" stroke-width="0.2"/>
<line x1="149" y1="282.3" x2="135.781" y2="282.3" stroke="#5B5B5B" stroke-width="0.2"/>
<line x1="116.542" y1="291.352" x2="98.0001" y2="291.352" stroke="#5B5B5B" stroke-width="0.2"/>
<line x1="111.048" y1="280.426" x2="98.1144" y2="280.426" stroke="#5B5B5B" stroke-width="0.2"/>
<line x1="111.506" y1="303.199" x2="98.1144" y2="303.199" stroke="#5B5B5B" stroke-width="0.2"/>
<line y1="-0.1" x2="8.11549" y2="-0.1" transform="matrix(0.69106 0.722797 -0.719408 0.694588 110.933 280.326)" stroke="#5B5B5B" stroke-width="0.2"/>
<line y1="-0.1" x2="4.96755" y2="-0.1" transform="matrix(-0.645135 0.764069 -0.760944 -0.648818 135.77 282.281)" stroke="#5B5B5B" stroke-width="0.2"/>
<line y1="-0.1" x2="7.38374" y2="-0.1" transform="matrix(-0.697543 0.716543 -0.71312 -0.701042 116.542 297.808)" stroke="#5B5B5B" stroke-width="0.2"/>
</g>
<defs>
<filter id="filter0_d_6_2910" x="65" y="202" width="381" height="264" filterUnits="userSpaceOnUse" color-interpolation-filters="sRGB">
<feFlood flood-opacity="0" result="BackgroundImageFix"/>
<feColorMatrix in="SourceAlpha" type="matrix" values="0 0 0 0 0 0 0 0 0 0 0 0 0 0 0 0 0 0 127 0" result="hardAlpha"/>
<feOffset dy="12"/>
<feGaussianBlur stdDeviation="13"/>
<feComposite in2="hardAlpha" operator="out"/>
<feColorMatrix type="matrix" values="0 0 0 0 0 0 0 0 0 0 0 0 0 0 0 0 0 0 0.22 0"/>
<feBlend mode="normal" in2="BackgroundImageFix" result="effect1_dropShadow_6_2910"/>
<feBlend mode="normal" in="SourceGraphic" in2="effect1_dropShadow_6_2910" result="shape"/>
</filter>
<filter id="filter1_d_6_2910" x="71" y="61" width="368" height="127" filterUnits="userSpaceOnUse" color-interpolation-filters="sRGB">
<feFlood flood-opacity="0" result="BackgroundImageFix"/>
<feColorMatrix in="SourceAlpha" type="matrix" values="0 0 0 0 0 0 0 0 0 0 0 0 0 0 0 0 0 0 127 0" result="hardAlpha"/>
<feOffset dy="12"/>
<feGaussianBlur stdDeviation="13"/>
<feComposite in2="hardAlpha" operator="out"/>
<feColorMatrix type="matrix" values="0 0 0 0 0 0 0 0 0 0 0 0 0 0 0 0 0 0 0.22 0"/>
<feBlend mode="normal" in2="BackgroundImageFix" result="effect1_dropShadow_6_2910"/>
<feBlend mode="normal" in="SourceGraphic" in2="effect1_dropShadow_6_2910" result="shape"/>
</filter>
<linearGradient id="paint0_linear_6_2910" x1="66.1792" y1="205.287" x2="430.179" y2="437.287" gradientUnits="userSpaceOnUse">
<stop stop-color="#464E41"/>
<stop offset="1" stop-color="#ECECE6"/>
</linearGradient>
<linearGradient id="paint1_linear_6_2910" x1="98" y1="331.857" x2="134" y2="331.857" gradientUnits="userSpaceOnUse">
<stop stop-color="#BDBDBD"/>
<stop offset="0.0427646" stop-color="#B9B9B9"/>
<stop offset="0.0769809" stop-color="#A6A5A5"/>
<stop offset="0.126595" stop-color="#A5A5A5"/>
<stop offset="0.188184" stop-color="#ADADAD"/>
<stop offset="0.268592" stop-color="#969696"/>
<stop offset="0.34729" stop-color="#A0A0A0"/>
<stop offset="0.520082" stop-color="#BFBFBF"/>
<stop offset="0.679188" stop-color="#979797"/>
<stop offset="0.778415" stop-color="#A3A3A3"/>
<stop offset="0.853691" stop-color="#AEAEAE"/>
<stop offset="0.940943" stop-color="#979797"/>
</linearGradient>
<linearGradient id="paint2_linear_6_2910" x1="98" y1="331.857" x2="134" y2="331.857" gradientUnits="userSpaceOnUse">
<stop stop-color="#BDBDBD"/>
<stop offset="0.0427646" stop-color="#B9B9B9"/>
<stop offset="0.0769809" stop-color="#A6A5A5"/>
<stop offset="0.126595" stop-color="#A5A5A5"/>
<stop offset="0.188184" stop-color="#ADADAD"/>
<stop offset="0.268592" stop-color="#969696"/>
<stop offset="0.34729" stop-color="#A0A0A0"/>
<stop offset="0.520082" stop-color="#BFBFBF"/>
<stop offset="0.679188" stop-color="#979797"/>
<stop offset="0.778415" stop-color="#A3A3A3"/>
<stop offset="0.853691" stop-color="#AEAEAE"/>
<stop offset="0.940943" stop-color="#979797"/>
</linearGradient>
</defs>
</svg>
