<svg width="327" height="516" viewBox="0 0 327 516" fill="none" xmlns="http://www.w3.org/2000/svg">
<rect width="327" height="516" fill="#BFC3B0"/>
<rect x="10" y="48" width="305.26" height="420" rx="8" fill="#F7F6F1"/>
<rect x="149" y="84" width="30" height="30" rx="15" fill="#666F62"/>
<path d="M158.935 98.4003L162.687 102.477L169.067 95.5229" stroke="#F7F6F1"/>
<line opacity="0.2" x1="40" y1="177.5" x2="287" y2="177.5" stroke="#666F62"/>
<line opacity="0.2" x1="40" y1="308.5" x2="287" y2="308.5" stroke="#666F62"/>
<line opacity="0.2" x1="40" y1="374.5" x2="287" y2="374.5" stroke="#666F62"/>
<path d="M92.1 139.34H94.6C95.36 139.34 95.9533 139.147 96.38 138.76C96.82 138.36 97.04 137.827 97.04 137.16C97.04 136.48 96.82 135.94 96.38 135.54C95.9533 135.14 95.36 134.94 94.6 134.94H92.1V139.34ZM94.96 141.46H92.1V147H89.7V132.82H94.96C96.3067 132.82 97.3933 133.227 98.22 134.04C99.06 134.853 99.48 135.887 99.48 137.14C99.48 138.407 99.06 139.447 98.22 140.26C97.3933 141.06 96.3067 141.46 94.96 141.46ZM99.5567 144.36C99.5567 143.533 99.8233 142.873 100.357 142.38C100.903 141.873 101.617 141.553 102.497 141.42L104.997 141.04C105.477 140.973 105.717 140.74 105.717 140.34C105.717 139.9 105.563 139.547 105.257 139.28C104.95 139 104.49 138.86 103.877 138.86C103.29 138.86 102.823 139.027 102.477 139.36C102.13 139.68 101.93 140.1 101.877 140.62L99.7567 140.14C99.85 139.26 100.27 138.513 101.017 137.9C101.763 137.273 102.71 136.96 103.857 136.96C105.27 136.96 106.31 137.3 106.977 137.98C107.657 138.66 107.997 139.533 107.997 140.6V145.44C107.997 146.08 108.037 146.6 108.117 147H105.957C105.89 146.8 105.857 146.387 105.857 145.76C105.217 146.787 104.217 147.3 102.857 147.3C101.87 147.3 101.07 147.013 100.457 146.44C99.8567 145.853 99.5567 145.16 99.5567 144.36ZM103.297 145.48C104.017 145.48 104.597 145.287 105.037 144.9C105.49 144.5 105.717 143.853 105.717 142.96V142.52L103.177 142.9C102.31 143.047 101.877 143.487 101.877 144.22C101.877 144.567 102.003 144.867 102.257 145.12C102.51 145.36 102.857 145.48 103.297 145.48ZM112.621 150.94H110.141L112.481 145.84L108.321 137.26H110.941L113.741 143.42L116.361 137.26H118.821L112.621 150.94ZM121.915 147H119.615V137.26H121.835V138.5C122.101 138.02 122.501 137.647 123.035 137.38C123.581 137.113 124.141 136.98 124.715 136.98C125.368 136.98 125.955 137.127 126.475 137.42C126.995 137.713 127.381 138.14 127.635 138.7C128.315 137.553 129.368 136.98 130.795 136.98C131.755 136.98 132.568 137.293 133.235 137.92C133.901 138.547 134.235 139.467 134.235 140.68V147H131.995V141.06C131.995 140.46 131.835 139.98 131.515 139.62C131.208 139.247 130.741 139.06 130.115 139.06C129.515 139.06 129.028 139.267 128.655 139.68C128.281 140.093 128.095 140.607 128.095 141.22V147H125.815V141.06C125.815 140.46 125.655 139.98 125.335 139.62C125.028 139.247 124.561 139.06 123.935 139.06C123.321 139.06 122.828 139.267 122.455 139.68C122.095 140.08 121.915 140.593 121.915 141.22V147ZM137.79 141.06H142.57C142.543 140.447 142.323 139.933 141.91 139.52C141.51 139.107 140.93 138.9 140.17 138.9C139.476 138.9 138.916 139.12 138.49 139.56C138.063 139.987 137.83 140.487 137.79 141.06ZM142.83 143.6L144.79 144.22C144.51 145.113 143.983 145.853 143.21 146.44C142.45 147.013 141.51 147.3 140.39 147.3C139.003 147.3 137.823 146.827 136.85 145.88C135.89 144.933 135.41 143.667 135.41 142.08C135.41 140.587 135.876 139.36 136.81 138.4C137.756 137.44 138.87 136.96 140.15 136.96C141.643 136.96 142.81 137.42 143.65 138.34C144.49 139.247 144.91 140.473 144.91 142.02C144.91 142.433 144.89 142.68 144.85 142.76H137.73C137.756 143.493 138.023 144.1 138.53 144.58C139.05 145.06 139.67 145.3 140.39 145.3C141.643 145.3 142.456 144.733 142.83 143.6ZM148.541 141.38V147H146.221V137.26H148.481V138.56C148.788 138.027 149.194 137.633 149.701 137.38C150.221 137.113 150.774 136.98 151.361 136.98C152.508 136.98 153.381 137.34 153.981 138.06C154.581 138.78 154.881 139.707 154.881 140.84V147H152.561V141.24C152.561 140.587 152.401 140.067 152.081 139.68C151.761 139.28 151.254 139.08 150.561 139.08C149.921 139.08 149.421 139.3 149.061 139.74C148.714 140.167 148.541 140.713 148.541 141.38ZM159.739 134.28V137.26H161.759V139.32H159.739V143.84C159.739 144.267 159.839 144.58 160.039 144.78C160.239 144.967 160.553 145.06 160.979 145.06C161.246 145.06 161.513 145.033 161.779 144.98V146.9C161.433 147.047 160.959 147.12 160.359 147.12C159.453 147.12 158.739 146.867 158.219 146.36C157.699 145.84 157.439 145.127 157.439 144.22V139.32H155.639V137.26H156.139C156.633 137.26 157.006 137.12 157.259 136.84C157.513 136.56 157.639 136.193 157.639 135.74V134.28H159.739ZM176.773 136.14L174.613 136.82C174.52 136.273 174.247 135.773 173.793 135.32C173.34 134.867 172.687 134.64 171.833 134.64C171.127 134.64 170.54 134.84 170.073 135.24C169.62 135.64 169.393 136.12 169.393 136.68C169.393 137.653 169.947 138.26 171.053 138.5L173.093 138.92C174.32 139.16 175.267 139.647 175.933 140.38C176.6 141.113 176.933 141.987 176.933 143C176.933 144.173 176.48 145.187 175.573 146.04C174.68 146.88 173.46 147.3 171.913 147.3C170.247 147.3 168.947 146.867 168.013 146C167.08 145.12 166.553 144.1 166.433 142.94L168.673 142.3C168.753 143.1 169.073 143.773 169.633 144.32C170.193 144.867 170.953 145.14 171.913 145.14C172.74 145.14 173.373 144.96 173.813 144.6C174.267 144.227 174.493 143.753 174.493 143.18C174.493 142.713 174.327 142.313 173.993 141.98C173.66 141.633 173.193 141.393 172.593 141.26L170.593 140.84C169.487 140.613 168.607 140.153 167.953 139.46C167.313 138.767 166.993 137.9 166.993 136.86C166.993 135.673 167.467 134.653 168.413 133.8C169.36 132.947 170.493 132.52 171.813 132.52C173.32 132.52 174.473 132.887 175.273 133.62C176.073 134.34 176.573 135.18 176.773 136.14ZM184.309 145.92C184.082 146.347 183.709 146.68 183.189 146.92C182.682 147.16 182.135 147.28 181.549 147.28C180.415 147.28 179.515 146.913 178.849 146.18C178.195 145.447 177.869 144.52 177.869 143.4V137.26H180.189V142.98C180.189 143.633 180.349 144.167 180.669 144.58C180.989 144.993 181.482 145.2 182.149 145.2C182.802 145.2 183.302 145 183.649 144.6C184.009 144.2 184.189 143.673 184.189 143.02V137.26H186.509V145.22C186.509 145.807 186.542 146.4 186.609 147H184.389C184.335 146.707 184.309 146.347 184.309 145.92ZM192.787 139.1C192.041 139.1 191.407 139.373 190.887 139.92C190.367 140.453 190.107 141.187 190.107 142.12C190.107 143.067 190.367 143.813 190.887 144.36C191.421 144.907 192.067 145.18 192.827 145.18C193.507 145.18 194.047 145 194.447 144.64C194.861 144.267 195.134 143.847 195.267 143.38L197.307 144.12C197.041 144.987 196.521 145.733 195.747 146.36C194.987 146.987 194.014 147.3 192.827 147.3C191.401 147.3 190.201 146.807 189.227 145.82C188.267 144.833 187.787 143.6 187.787 142.12C187.787 140.627 188.261 139.393 189.207 138.42C190.167 137.447 191.354 136.96 192.767 136.96C193.981 136.96 194.967 137.273 195.727 137.9C196.501 138.527 197.001 139.28 197.227 140.16L195.147 140.92C195.014 140.413 194.754 139.987 194.367 139.64C193.994 139.28 193.467 139.1 192.787 139.1ZM202.604 139.1C201.857 139.1 201.224 139.373 200.704 139.92C200.184 140.453 199.924 141.187 199.924 142.12C199.924 143.067 200.184 143.813 200.704 144.36C201.237 144.907 201.884 145.18 202.644 145.18C203.324 145.18 203.864 145 204.264 144.64C204.677 144.267 204.951 143.847 205.084 143.38L207.124 144.12C206.857 144.987 206.337 145.733 205.564 146.36C204.804 146.987 203.831 147.3 202.644 147.3C201.217 147.3 200.017 146.807 199.044 145.82C198.084 144.833 197.604 143.6 197.604 142.12C197.604 140.627 198.077 139.393 199.024 138.42C199.984 137.447 201.171 136.96 202.584 136.96C203.797 136.96 204.784 137.273 205.544 137.9C206.317 138.527 206.817 139.28 207.044 140.16L204.964 140.92C204.831 140.413 204.571 139.987 204.184 139.64C203.811 139.28 203.284 139.1 202.604 139.1ZM209.801 141.06H214.581C214.554 140.447 214.334 139.933 213.921 139.52C213.521 139.107 212.941 138.9 212.181 138.9C211.488 138.9 210.928 139.12 210.501 139.56C210.074 139.987 209.841 140.487 209.801 141.06ZM214.841 143.6L216.801 144.22C216.521 145.113 215.994 145.853 215.221 146.44C214.461 147.013 213.521 147.3 212.401 147.3C211.014 147.3 209.834 146.827 208.861 145.88C207.901 144.933 207.421 143.667 207.421 142.08C207.421 140.587 207.888 139.36 208.821 138.4C209.768 137.44 210.881 136.96 212.161 136.96C213.654 136.96 214.821 137.42 215.661 138.34C216.501 139.247 216.921 140.473 216.921 142.02C216.921 142.433 216.901 142.68 216.861 142.76H209.741C209.768 143.493 210.034 144.1 210.541 144.58C211.061 145.06 211.681 145.3 212.401 145.3C213.654 145.3 214.468 144.733 214.841 143.6ZM217.372 144.36L219.392 143.8C219.432 144.267 219.626 144.66 219.972 144.98C220.319 145.3 220.786 145.46 221.372 145.46C221.826 145.46 222.179 145.353 222.432 145.14C222.699 144.927 222.832 144.66 222.832 144.34C222.832 143.78 222.452 143.42 221.692 143.26L220.252 142.94C219.412 142.753 218.766 142.407 218.312 141.9C217.859 141.393 217.632 140.793 217.632 140.1C217.632 139.247 217.979 138.513 218.672 137.9C219.366 137.273 220.212 136.96 221.212 136.96C221.852 136.96 222.419 137.053 222.912 137.24C223.406 137.427 223.786 137.673 224.052 137.98C224.332 138.273 224.546 138.56 224.692 138.84C224.839 139.12 224.932 139.4 224.972 139.68L223.012 140.24C222.959 139.867 222.786 139.533 222.492 139.24C222.212 138.933 221.786 138.78 221.212 138.78C220.812 138.78 220.479 138.893 220.212 139.12C219.946 139.333 219.812 139.593 219.812 139.9C219.812 140.447 220.139 140.787 220.792 140.92L222.272 141.22C223.179 141.42 223.872 141.78 224.352 142.3C224.832 142.82 225.072 143.447 225.072 144.18C225.072 144.993 224.746 145.72 224.092 146.36C223.452 146.987 222.552 147.3 221.392 147.3C220.726 147.3 220.126 147.2 219.592 147C219.072 146.8 218.659 146.547 218.352 146.24C218.059 145.92 217.826 145.607 217.652 145.3C217.492 144.98 217.399 144.667 217.372 144.36ZM225.607 144.36L227.627 143.8C227.667 144.267 227.86 144.66 228.207 144.98C228.554 145.3 229.02 145.46 229.607 145.46C230.06 145.46 230.414 145.353 230.667 145.14C230.934 144.927 231.067 144.66 231.067 144.34C231.067 143.78 230.687 143.42 229.927 143.26L228.487 142.94C227.647 142.753 227 142.407 226.547 141.9C226.094 141.393 225.867 140.793 225.867 140.1C225.867 139.247 226.214 138.513 226.907 137.9C227.6 137.273 228.447 136.96 229.447 136.96C230.087 136.96 230.654 137.053 231.147 137.24C231.64 137.427 232.02 137.673 232.287 137.98C232.567 138.273 232.78 138.56 232.927 138.84C233.074 139.12 233.167 139.4 233.207 139.68L231.247 140.24C231.194 139.867 231.02 139.533 230.727 139.24C230.447 138.933 230.02 138.78 229.447 138.78C229.047 138.78 228.714 138.893 228.447 139.12C228.18 139.333 228.047 139.593 228.047 139.9C228.047 140.447 228.374 140.787 229.027 140.92L230.507 141.22C231.414 141.42 232.107 141.78 232.587 142.3C233.067 142.82 233.307 143.447 233.307 144.18C233.307 144.993 232.98 145.72 232.327 146.36C231.687 146.987 230.787 147.3 229.627 147.3C228.96 147.3 228.36 147.2 227.827 147C227.307 146.8 226.894 146.547 226.587 146.24C226.294 145.92 226.06 145.607 225.887 145.3C225.727 144.98 225.634 144.667 225.607 144.36ZM237.842 132.82L237.282 142.8H235.602L235.022 132.82H237.842ZM235.402 146.72C235.122 146.427 234.982 146.08 234.982 145.68C234.982 145.28 235.122 144.933 235.402 144.64C235.682 144.347 236.022 144.2 236.422 144.2C236.835 144.2 237.182 144.347 237.462 144.64C237.755 144.933 237.902 145.28 237.902 145.68C237.902 146.08 237.755 146.427 237.462 146.72C237.182 147 236.835 147.14 236.422 147.14C236.022 147.14 235.682 147 235.402 146.72Z" fill="#222222"/>
<path opacity="0.4" d="M43.156 211.352H42.148V215H41.044V206.24H43.204C44.156 206.24 44.916 206.472 45.484 206.936C46.06 207.4 46.348 208.024 46.348 208.808C46.348 209.408 46.172 209.92 45.82 210.344C45.468 210.76 44.976 211.052 44.344 211.22L47.404 215H46.096L43.156 211.352ZM43.192 207.164H42.148V210.452H43.192C43.816 210.452 44.308 210.308 44.668 210.02C45.036 209.724 45.22 209.32 45.22 208.808C45.22 208.296 45.036 207.896 44.668 207.608C44.308 207.312 43.816 207.164 43.192 207.164ZM53.8929 215H48.6729V206.24H53.8569V207.176H49.7649V210.068H53.5209V211.004H49.7649V214.064H53.8929V215ZM56.6555 215H55.5635V206.24H60.5555V207.176H56.6555V210.104H60.2195V211.04H56.6555V215ZM67.264 215H62.044V206.24H67.228V207.176H63.136V210.068H66.892V211.004H63.136V214.064H67.264V215ZM71.0466 211.352H70.0386V215H68.9346V206.24H71.0946C72.0466 206.24 72.8066 206.472 73.3746 206.936C73.9506 207.4 74.2386 208.024 74.2386 208.808C74.2386 209.408 74.0626 209.92 73.7106 210.344C73.3586 210.76 72.8666 211.052 72.2346 211.22L75.2946 215H73.9866L71.0466 211.352ZM71.0826 207.164H70.0386V210.452H71.0826C71.7066 210.452 72.1986 210.308 72.5586 210.02C72.9266 209.724 73.1106 209.32 73.1106 208.808C73.1106 208.296 72.9266 207.896 72.5586 207.608C72.1986 207.312 71.7066 207.164 71.0826 207.164ZM81.7835 215H76.5635V206.24H81.7475V207.176H77.6555V210.068H81.4115V211.004H77.6555V214.064H81.7835V215ZM83.4542 205.94L89.8382 212.66V206.24H90.9302V215.3L84.5462 208.58V215H83.4542V205.94ZM93.5567 210.62C93.5567 211.588 93.8807 212.408 94.5287 213.08C95.1847 213.752 95.9847 214.088 96.9287 214.088C97.4087 214.088 97.8567 214 98.2727 213.824C98.6967 213.648 99.0567 213.4 99.3527 213.08V214.376C99.0087 214.624 98.6287 214.816 98.2127 214.952C97.7967 215.08 97.3607 215.144 96.9047 215.144C96.3047 215.144 95.7327 215.028 95.1887 214.796C94.6447 214.564 94.1647 214.236 93.7487 213.812C93.3327 213.38 93.0127 212.892 92.7887 212.348C92.5647 211.796 92.4527 211.22 92.4527 210.62C92.4527 210.02 92.5647 209.448 92.7887 208.904C93.0127 208.352 93.3327 207.86 93.7487 207.428C94.1647 207.004 94.6447 206.676 95.1887 206.444C95.7327 206.212 96.3047 206.096 96.9047 206.096C97.3607 206.096 97.7967 206.164 98.2127 206.3C98.6287 206.428 99.0087 206.616 99.3527 206.864V208.16C99.0567 207.84 98.6967 207.592 98.2727 207.416C97.8567 207.24 97.4087 207.152 96.9287 207.152C95.9847 207.152 95.1847 207.488 94.5287 208.16C93.8807 208.832 93.5567 209.652 93.5567 210.62ZM106.217 215H100.997V206.24H106.181V207.176H102.089V210.068H105.845V211.004H102.089V214.064H106.217V215ZM107.311 214.256V213.056C107.703 213.416 108.123 213.696 108.571 213.896C109.027 214.088 109.479 214.184 109.927 214.184C110.471 214.184 110.911 214.052 111.247 213.788C111.583 213.524 111.751 213.172 111.751 212.732C111.751 212.444 111.671 212.196 111.511 211.988C111.351 211.78 111.059 211.568 110.635 211.352L109.171 210.62C108.531 210.3 108.087 209.976 107.839 209.648C107.599 209.312 107.479 208.916 107.479 208.46C107.479 207.772 107.727 207.208 108.223 206.768C108.727 206.32 109.367 206.096 110.143 206.096C110.567 206.096 110.983 206.176 111.391 206.336C111.799 206.488 112.159 206.704 112.471 206.984V208.172C112.103 207.812 111.715 207.536 111.307 207.344C110.907 207.152 110.507 207.056 110.107 207.056C109.635 207.056 109.255 207.18 108.967 207.428C108.679 207.668 108.535 207.988 108.535 208.388C108.535 208.636 108.611 208.856 108.763 209.048C108.923 209.24 109.219 209.452 109.651 209.684L111.055 210.38C111.719 210.708 112.175 211.044 112.423 211.388C112.679 211.724 112.807 212.144 112.807 212.648C112.807 213.384 112.531 213.984 111.979 214.448C111.435 214.912 110.743 215.144 109.903 215.144C109.423 215.144 108.947 215.064 108.475 214.904C108.011 214.736 107.623 214.52 107.311 214.256ZM118.239 215H117.315L118.167 212.396H116.703V211.604H118.431L119.067 209.636H117.423V208.844H119.331L120.183 206.24H121.107L120.255 208.844H122.415L123.267 206.24H124.191L123.339 208.844H124.803V209.636H123.087L122.439 211.604H124.083V212.396H122.187L121.335 215H120.399L121.251 212.396H119.091L118.239 215ZM119.991 209.636L119.355 211.604H121.515L122.151 209.636H119.991Z" fill="#464E41"/>
<path opacity="0.4" d="M41.044 247V238.24H43.48C44.736 238.24 45.796 238.664 46.66 239.512C47.524 240.352 47.956 241.388 47.956 242.62C47.956 243.852 47.524 244.892 46.66 245.74C45.796 246.58 44.736 247 43.48 247H41.044ZM46.852 242.62C46.852 241.644 46.524 240.828 45.868 240.172C45.212 239.508 44.396 239.176 43.42 239.176H42.148V246.064H43.42C44.396 246.064 45.212 245.736 45.868 245.08C46.524 244.416 46.852 243.596 46.852 242.62ZM48.0542 247L52.2902 237.928L56.5382 247H55.3622L54.2822 244.612H50.2982L49.2182 247H48.0542ZM53.8742 243.724L52.2902 240.22L50.7062 243.724H53.8742ZM63.0452 238.24V239.176H60.0932V247H58.9772V239.176H56.0252V238.24H63.0452ZM69.5492 247H64.3292V238.24H69.5132V239.176H65.4212V242.068H69.1772V243.004H65.4212V246.064H69.5492V247Z" fill="#464E41"/>
<path opacity="0.4" d="M47.26 269.24V270.176H44.308V278H43.192V270.176H40.24V269.24H47.26ZM48.544 278V269.24H49.648V278H48.544ZM53.4235 268.928L56.6155 275.852L59.7955 268.928L62.2195 278H61.0795L59.5435 272.036L56.6155 278.252L53.6755 272.036L52.1395 278H51.0115L53.4235 268.928ZM68.8109 278H63.5909V269.24H68.7749V270.176H64.6829V273.068H68.4389V274.004H64.6829V277.064H68.8109V278Z" fill="#464E41"/>
<path opacity="0.4" d="M40.144 346L44.38 336.928L48.628 346H47.452L46.372 343.612H42.388L41.308 346H40.144ZM45.964 342.724L44.38 339.22L42.796 342.724H45.964ZM51.5133 336.928L54.7053 343.852L57.8853 336.928L60.3093 346H59.1693L57.6333 340.036L54.7053 346.252L51.7653 340.036L50.2293 346H49.1013L51.5133 336.928ZM60.8472 341.62C60.8472 340.372 61.2792 339.308 62.1432 338.428C63.0152 337.54 64.0632 337.096 65.2872 337.096C66.5112 337.096 67.5552 337.54 68.4192 338.428C69.2912 339.308 69.7272 340.372 69.7272 341.62C69.7272 342.868 69.2912 343.936 68.4192 344.824C67.5552 345.704 66.5112 346.144 65.2872 346.144C64.0632 346.144 63.0152 345.704 62.1432 344.824C61.2792 343.936 60.8472 342.868 60.8472 341.62ZM68.6232 341.62C68.6232 340.644 68.2992 339.82 67.6512 339.148C67.0032 338.468 66.2152 338.128 65.2872 338.128C64.3592 338.128 63.5712 338.468 62.9232 339.148C62.2752 339.82 61.9512 340.644 61.9512 341.62C61.9512 342.596 62.2752 343.424 62.9232 344.104C63.5712 344.776 64.3592 345.112 65.2872 345.112C66.2152 345.112 67.0032 344.776 67.6512 344.104C68.2992 343.424 68.6232 342.596 68.6232 341.62ZM72.1669 337.24V342.568C72.1669 343.368 72.3669 344 72.7669 344.464C73.1749 344.928 73.7189 345.16 74.3989 345.16C75.0789 345.16 75.6189 344.928 76.0189 344.464C76.4269 344 76.6309 343.368 76.6309 342.568V337.24H77.7349V342.592C77.7349 343.656 77.4229 344.516 76.7989 345.172C76.1829 345.82 75.3829 346.144 74.3989 346.144C73.4149 346.144 72.6109 345.82 71.9869 345.172C71.3709 344.516 71.0629 343.656 71.0629 342.592V337.24H72.1669ZM79.6338 336.94L86.0178 343.66V337.24H87.1098V346.3L80.7258 339.58V346H79.6338V336.94ZM95.4123 337.24V338.176H92.4603V346H91.3443V338.176H88.3923V337.24H95.4123Z" fill="#464E41"/>
<path d="M204.492 211.62C204.492 210.308 204.808 209.228 205.44 208.38C206.08 207.524 206.888 207.096 207.864 207.096C208.848 207.096 209.656 207.524 210.288 208.38C210.928 209.228 211.248 210.308 211.248 211.62C211.248 212.932 210.928 214.016 210.288 214.872C209.656 215.72 208.848 216.144 207.864 216.144C206.888 216.144 206.08 215.72 205.44 214.872C204.808 214.016 204.492 212.932 204.492 211.62ZM210.156 211.62C210.156 210.604 209.94 209.764 209.508 209.1C209.084 208.428 208.536 208.092 207.864 208.092C207.2 208.092 206.652 208.428 206.22 209.1C205.796 209.764 205.584 210.604 205.584 211.62C205.584 212.636 205.796 213.48 206.22 214.152C206.652 214.816 207.2 215.148 207.864 215.148C208.536 215.148 209.084 214.816 209.508 214.152C209.94 213.48 210.156 212.636 210.156 211.62ZM212.226 211.62C212.226 210.308 212.542 209.228 213.174 208.38C213.814 207.524 214.622 207.096 215.598 207.096C216.582 207.096 217.39 207.524 218.022 208.38C218.662 209.228 218.982 210.308 218.982 211.62C218.982 212.932 218.662 214.016 218.022 214.872C217.39 215.72 216.582 216.144 215.598 216.144C214.622 216.144 213.814 215.72 213.174 214.872C212.542 214.016 212.226 212.932 212.226 211.62ZM217.89 211.62C217.89 210.604 217.674 209.764 217.242 209.1C216.818 208.428 216.27 208.092 215.598 208.092C214.934 208.092 214.386 208.428 213.954 209.1C213.53 209.764 213.318 210.604 213.318 211.62C213.318 212.636 213.53 213.48 213.954 214.152C214.386 214.816 214.934 215.148 215.598 215.148C216.27 215.148 216.818 214.816 217.242 214.152C217.674 213.48 217.89 212.636 217.89 211.62ZM219.961 211.62C219.961 210.308 220.277 209.228 220.909 208.38C221.549 207.524 222.357 207.096 223.333 207.096C224.317 207.096 225.125 207.524 225.757 208.38C226.397 209.228 226.717 210.308 226.717 211.62C226.717 212.932 226.397 214.016 225.757 214.872C225.125 215.72 224.317 216.144 223.333 216.144C222.357 216.144 221.549 215.72 220.909 214.872C220.277 214.016 219.961 212.932 219.961 211.62ZM225.625 211.62C225.625 210.604 225.409 209.764 224.977 209.1C224.553 208.428 224.005 208.092 223.333 208.092C222.669 208.092 222.121 208.428 221.689 209.1C221.265 209.764 221.053 210.604 221.053 211.62C221.053 212.636 221.265 213.48 221.689 214.152C222.121 214.816 222.669 215.148 223.333 215.148C224.005 215.148 224.553 214.816 224.977 214.152C225.409 213.48 225.625 212.636 225.625 211.62ZM227.695 211.62C227.695 210.308 228.011 209.228 228.643 208.38C229.283 207.524 230.091 207.096 231.067 207.096C232.051 207.096 232.859 207.524 233.491 208.38C234.131 209.228 234.451 210.308 234.451 211.62C234.451 212.932 234.131 214.016 233.491 214.872C232.859 215.72 232.051 216.144 231.067 216.144C230.091 216.144 229.283 215.72 228.643 214.872C228.011 214.016 227.695 212.932 227.695 211.62ZM233.359 211.62C233.359 210.604 233.143 209.764 232.711 209.1C232.287 208.428 231.739 208.092 231.067 208.092C230.403 208.092 229.855 208.428 229.423 209.1C228.999 209.764 228.787 210.604 228.787 211.62C228.787 212.636 228.999 213.48 229.423 214.152C229.855 214.816 230.403 215.148 231.067 215.148C231.739 215.148 232.287 214.816 232.711 214.152C233.143 213.48 233.359 212.636 233.359 211.62ZM239.738 211.368C240.218 211.536 240.606 211.824 240.902 212.232C241.206 212.632 241.358 213.084 241.358 213.588C241.358 214.316 241.07 214.924 240.494 215.412C239.926 215.9 239.214 216.144 238.358 216.144C237.502 216.144 236.79 215.9 236.222 215.412C235.654 214.924 235.37 214.316 235.37 213.588C235.37 213.084 235.518 212.632 235.814 212.232C236.118 211.824 236.51 211.536 236.99 211.368C236.59 211.192 236.274 210.932 236.042 210.588C235.81 210.236 235.694 209.852 235.694 209.436C235.694 208.772 235.946 208.216 236.45 207.768C236.962 207.32 237.598 207.096 238.358 207.096C239.118 207.096 239.754 207.32 240.266 207.768C240.778 208.216 241.034 208.772 241.034 209.436C241.034 209.852 240.918 210.236 240.686 210.588C240.454 210.932 240.138 211.192 239.738 211.368ZM240.038 209.448C240.038 209.024 239.878 208.672 239.558 208.392C239.246 208.104 238.846 207.96 238.358 207.96C237.878 207.96 237.478 208.104 237.158 208.392C236.846 208.672 236.69 209.024 236.69 209.448C236.69 209.872 236.846 210.228 237.158 210.516C237.478 210.796 237.878 210.936 238.358 210.936C238.846 210.936 239.246 210.796 239.558 210.516C239.878 210.228 240.038 209.872 240.038 209.448ZM240.302 213.528C240.302 213.04 240.118 212.632 239.75 212.304C239.382 211.976 238.918 211.812 238.358 211.812C237.798 211.812 237.334 211.976 236.966 212.304C236.598 212.632 236.414 213.04 236.414 213.528C236.414 214.016 236.598 214.428 236.966 214.764C237.334 215.092 237.798 215.256 238.358 215.256C238.918 215.256 239.382 215.092 239.75 214.764C240.118 214.436 240.302 214.024 240.302 213.528ZM247.301 208.176H244.133L243.809 210.48C244.913 210.48 245.793 210.736 246.449 211.248C247.113 211.752 247.445 212.452 247.445 213.348C247.445 214.164 247.145 214.836 246.545 215.364C245.953 215.884 245.205 216.144 244.301 216.144C243.877 216.144 243.465 216.084 243.065 215.964C242.673 215.836 242.333 215.664 242.045 215.448V214.32C242.333 214.592 242.677 214.808 243.077 214.968C243.477 215.12 243.881 215.196 244.289 215.196C244.889 215.196 245.385 215.024 245.777 214.68C246.177 214.336 246.377 213.896 246.377 213.36C246.377 212.656 246.045 212.128 245.381 211.776C244.717 211.424 243.845 211.288 242.765 211.368L243.281 207.24H247.301V208.176ZM251.118 213.156C250.294 213.156 249.598 212.868 249.03 212.292C248.462 211.708 248.178 210.996 248.178 210.156C248.178 209.3 248.47 208.576 249.054 207.984C249.646 207.392 250.366 207.096 251.214 207.096C252.062 207.096 252.778 207.392 253.362 207.984C253.954 208.576 254.25 209.3 254.25 210.156C254.25 210.5 254.198 210.832 254.094 211.152C253.99 211.472 253.822 211.832 253.59 212.232L251.346 216H250.194L251.982 212.976C251.838 213.032 251.694 213.076 251.55 213.108C251.406 213.14 251.262 213.156 251.118 213.156ZM249.198 210.156C249.198 210.748 249.39 211.248 249.774 211.656C250.166 212.056 250.646 212.256 251.214 212.256C251.782 212.256 252.262 212.056 252.654 211.656C253.046 211.248 253.242 210.748 253.242 210.156C253.242 209.564 253.046 209.068 252.654 208.668C252.262 208.26 251.782 208.056 251.214 208.056C250.646 208.056 250.166 208.26 249.774 208.668C249.39 209.068 249.198 209.564 249.198 210.156ZM258.342 207.24H259.458L255.954 212.952H258.798V210.852H259.806V212.952H261.39V213.828H259.806V216H258.798V213.828H254.334L258.342 207.24ZM265.44 212.856L263.46 215.064H267.408V216H261.468L264.36 212.676C264.992 211.948 265.428 211.356 265.668 210.9C265.916 210.444 266.04 210.016 266.04 209.616C266.04 209.152 265.896 208.788 265.608 208.524C265.32 208.252 264.924 208.116 264.42 208.116C264.012 208.116 263.584 208.224 263.136 208.44C262.688 208.656 262.292 208.936 261.948 209.28V208.152C262.284 207.824 262.684 207.568 263.148 207.384C263.612 207.192 264.08 207.096 264.552 207.096C265.336 207.096 265.964 207.32 266.436 207.768C266.908 208.208 267.144 208.788 267.144 209.508C267.144 210.012 267.02 210.516 266.772 211.02C266.524 211.524 266.08 212.136 265.44 212.856ZM271.744 212.856L269.764 215.064H273.712V216H267.772L270.664 212.676C271.296 211.948 271.732 211.356 271.972 210.9C272.22 210.444 272.344 210.016 272.344 209.616C272.344 209.152 272.2 208.788 271.912 208.524C271.624 208.252 271.228 208.116 270.724 208.116C270.316 208.116 269.888 208.224 269.44 208.44C268.992 208.656 268.596 208.936 268.252 209.28V208.152C268.588 207.824 268.988 207.568 269.452 207.384C269.916 207.192 270.384 207.096 270.856 207.096C271.64 207.096 272.268 207.32 272.74 207.768C273.212 208.208 273.448 208.788 273.448 209.508C273.448 210.012 273.324 210.516 273.076 211.02C272.828 211.524 272.384 212.136 271.744 212.856ZM277.549 210.084C278.373 210.084 279.069 210.376 279.637 210.96C280.205 211.536 280.489 212.244 280.489 213.084C280.489 213.94 280.193 214.664 279.601 215.256C279.017 215.848 278.301 216.144 277.453 216.144C276.605 216.144 275.885 215.848 275.293 215.256C274.709 214.664 274.417 213.94 274.417 213.084C274.417 212.74 274.469 212.408 274.573 212.088C274.677 211.768 274.845 211.408 275.077 211.008L277.321 207.24H278.473L276.685 210.264C276.829 210.208 276.973 210.164 277.117 210.132C277.261 210.1 277.405 210.084 277.549 210.084ZM279.469 213.084C279.469 212.492 279.273 211.996 278.881 211.596C278.497 211.188 278.021 210.984 277.453 210.984C276.885 210.984 276.405 211.188 276.013 211.596C275.621 211.996 275.425 212.492 275.425 213.084C275.425 213.676 275.621 214.176 276.013 214.584C276.405 214.984 276.885 215.184 277.453 215.184C278.021 215.184 278.497 214.984 278.881 214.584C279.273 214.176 279.469 213.676 279.469 213.084ZM280.41 207.24H286.674L282.846 216H281.718L285.162 208.176H280.41V207.24Z" fill="#222222"/>
<path d="M219.924 244.856L217.944 247.064H221.892V248H215.952L218.844 244.676C219.476 243.948 219.912 243.356 220.152 242.9C220.4 242.444 220.524 242.016 220.524 241.616C220.524 241.152 220.38 240.788 220.092 240.524C219.804 240.252 219.408 240.116 218.904 240.116C218.496 240.116 218.068 240.224 217.62 240.44C217.172 240.656 216.776 240.936 216.432 241.28V240.152C216.768 239.824 217.168 239.568 217.632 239.384C218.096 239.192 218.564 239.096 219.036 239.096C219.82 239.096 220.448 239.32 220.92 239.768C221.392 240.208 221.628 240.788 221.628 241.508C221.628 242.012 221.504 242.516 221.256 243.02C221.008 243.524 220.564 244.136 219.924 244.856ZM222.762 243.62C222.762 242.308 223.078 241.228 223.71 240.38C224.35 239.524 225.158 239.096 226.134 239.096C227.118 239.096 227.926 239.524 228.558 240.38C229.198 241.228 229.518 242.308 229.518 243.62C229.518 244.932 229.198 246.016 228.558 246.872C227.926 247.72 227.118 248.144 226.134 248.144C225.158 248.144 224.35 247.72 223.71 246.872C223.078 246.016 222.762 244.932 222.762 243.62ZM228.426 243.62C228.426 242.604 228.21 241.764 227.778 241.1C227.354 240.428 226.806 240.092 226.134 240.092C225.47 240.092 224.922 240.428 224.49 241.1C224.066 241.764 223.854 242.604 223.854 243.62C223.854 244.636 224.066 245.48 224.49 246.152C224.922 246.816 225.47 247.148 226.134 247.148C226.806 247.148 227.354 246.816 227.778 246.152C228.21 245.48 228.426 244.636 228.426 243.62ZM233.179 243.62C233.179 242.372 233.611 241.308 234.475 240.428C235.347 239.54 236.395 239.096 237.619 239.096C238.843 239.096 239.887 239.54 240.751 240.428C241.623 241.308 242.059 242.372 242.059 243.62C242.059 244.868 241.623 245.936 240.751 246.824C239.887 247.704 238.843 248.144 237.619 248.144C236.395 248.144 235.347 247.704 234.475 246.824C233.611 245.936 233.179 244.868 233.179 243.62ZM240.955 243.62C240.955 242.644 240.631 241.82 239.983 241.148C239.335 240.468 238.547 240.128 237.619 240.128C236.691 240.128 235.903 240.468 235.255 241.148C234.607 241.82 234.283 242.644 234.283 243.62C234.283 244.596 234.607 245.424 235.255 246.104C235.903 246.776 236.691 247.112 237.619 247.112C238.547 247.112 239.335 246.776 239.983 246.104C240.631 245.424 240.955 244.596 240.955 243.62ZM244.091 244.964C244.091 245.588 244.307 246.116 244.739 246.548C245.171 246.98 245.691 247.196 246.299 247.196C246.603 247.196 246.883 247.148 247.139 247.052C247.403 246.948 247.643 246.792 247.859 246.584V247.676C247.635 247.828 247.383 247.944 247.103 248.024C246.823 248.104 246.539 248.144 246.251 248.144C245.371 248.144 244.619 247.836 243.995 247.22C243.371 246.596 243.059 245.844 243.059 244.964C243.059 244.076 243.371 243.324 243.995 242.708C244.619 242.084 245.371 241.772 246.251 241.772C246.547 241.772 246.831 241.816 247.103 241.904C247.383 241.984 247.635 242.1 247.859 242.252V243.332C247.643 243.132 247.407 242.984 247.151 242.888C246.895 242.784 246.611 242.732 246.299 242.732C245.691 242.732 245.171 242.948 244.739 243.38C244.307 243.812 244.091 244.34 244.091 244.964ZM250.766 242.804V246.032C250.766 246.4 250.858 246.688 251.042 246.896C251.234 247.104 251.498 247.208 251.834 247.208C252.034 247.208 252.218 247.18 252.386 247.124C252.562 247.06 252.726 246.968 252.878 246.848V247.832C252.718 247.928 252.53 248.004 252.314 248.06C252.098 248.116 251.878 248.144 251.654 248.144C251.046 248.144 250.566 247.964 250.214 247.604C249.862 247.244 249.686 246.752 249.686 246.128V242.804H248.63V241.916H249.686V240.284L250.766 239.9V241.916H252.566V242.804H250.766ZM255.84 246.908L254.556 249.584L253.848 249.368L254.628 246.512L255.84 246.908ZM263.119 244.856L261.139 247.064H265.087V248H259.147L262.039 244.676C262.671 243.948 263.107 243.356 263.347 242.9C263.595 242.444 263.719 242.016 263.719 241.616C263.719 241.152 263.575 240.788 263.287 240.524C262.999 240.252 262.603 240.116 262.099 240.116C261.691 240.116 261.263 240.224 260.815 240.44C260.367 240.656 259.971 240.936 259.627 241.28V240.152C259.963 239.824 260.363 239.568 260.827 239.384C261.291 239.192 261.759 239.096 262.231 239.096C263.015 239.096 263.643 239.32 264.115 239.768C264.587 240.208 264.823 240.788 264.823 241.508C264.823 242.012 264.699 242.516 264.451 243.02C264.203 243.524 263.759 244.136 263.119 244.856ZM265.957 243.62C265.957 242.308 266.273 241.228 266.905 240.38C267.545 239.524 268.353 239.096 269.329 239.096C270.313 239.096 271.121 239.524 271.753 240.38C272.393 241.228 272.713 242.308 272.713 243.62C272.713 244.932 272.393 246.016 271.753 246.872C271.121 247.72 270.313 248.144 269.329 248.144C268.353 248.144 267.545 247.72 266.905 246.872C266.273 246.016 265.957 244.932 265.957 243.62ZM271.621 243.62C271.621 242.604 271.405 241.764 270.973 241.1C270.549 240.428 270.001 240.092 269.329 240.092C268.665 240.092 268.117 240.428 267.685 241.1C267.261 241.764 267.049 242.604 267.049 243.62C267.049 244.636 267.261 245.48 267.685 246.152C268.117 246.816 268.665 247.148 269.329 247.148C270.001 247.148 270.549 246.816 270.973 246.152C271.405 245.48 271.621 244.636 271.621 243.62ZM277.041 244.856L275.061 247.064H279.009V248H273.069L275.961 244.676C276.593 243.948 277.029 243.356 277.269 242.9C277.517 242.444 277.641 242.016 277.641 241.616C277.641 241.152 277.497 240.788 277.209 240.524C276.921 240.252 276.525 240.116 276.021 240.116C275.613 240.116 275.185 240.224 274.737 240.44C274.289 240.656 273.893 240.936 273.549 241.28V240.152C273.885 239.824 274.285 239.568 274.749 239.384C275.213 239.192 275.681 239.096 276.153 239.096C276.937 239.096 277.565 239.32 278.037 239.768C278.509 240.208 278.745 240.788 278.745 241.508C278.745 242.012 278.621 242.516 278.373 243.02C278.125 243.524 277.681 244.136 277.041 244.856ZM283.303 239.24H284.419L280.915 244.952H283.759V242.852H284.767V244.952H286.351V245.828H284.767V248H283.759V245.828H279.295L283.303 239.24Z" fill="#222222"/>
<path d="M233.492 274.62C233.492 273.308 233.808 272.228 234.44 271.38C235.08 270.524 235.888 270.096 236.864 270.096C237.848 270.096 238.656 270.524 239.288 271.38C239.928 272.228 240.248 273.308 240.248 274.62C240.248 275.932 239.928 277.016 239.288 277.872C238.656 278.72 237.848 279.144 236.864 279.144C235.888 279.144 235.08 278.72 234.44 277.872C233.808 277.016 233.492 275.932 233.492 274.62ZM239.156 274.62C239.156 273.604 238.94 272.764 238.508 272.1C238.084 271.428 237.536 271.092 236.864 271.092C236.2 271.092 235.652 271.428 235.22 272.1C234.796 272.764 234.584 273.604 234.584 274.62C234.584 275.636 234.796 276.48 235.22 277.152C235.652 277.816 236.2 278.148 236.864 278.148C237.536 278.148 238.084 277.816 238.508 277.152C238.94 276.48 239.156 275.636 239.156 274.62ZM244.118 276.156C243.294 276.156 242.598 275.868 242.03 275.292C241.462 274.708 241.178 273.996 241.178 273.156C241.178 272.3 241.47 271.576 242.054 270.984C242.646 270.392 243.366 270.096 244.214 270.096C245.062 270.096 245.778 270.392 246.362 270.984C246.954 271.576 247.25 272.3 247.25 273.156C247.25 273.5 247.198 273.832 247.094 274.152C246.99 274.472 246.822 274.832 246.59 275.232L244.346 279H243.194L244.982 275.976C244.838 276.032 244.694 276.076 244.55 276.108C244.406 276.14 244.262 276.156 244.118 276.156ZM242.198 273.156C242.198 273.748 242.39 274.248 242.774 274.656C243.166 275.056 243.646 275.256 244.214 275.256C244.782 275.256 245.262 275.056 245.654 274.656C246.046 274.248 246.242 273.748 246.242 273.156C246.242 272.564 246.046 272.068 245.654 271.668C245.262 271.26 244.782 271.056 244.214 271.056C243.646 271.056 243.166 271.26 242.774 271.668C242.39 272.068 242.198 272.564 242.198 273.156ZM249.183 271.656H249.195C249.411 271.656 249.591 271.728 249.735 271.872C249.887 272.016 249.963 272.196 249.963 272.412C249.963 272.628 249.887 272.808 249.735 272.952C249.591 273.096 249.411 273.168 249.195 273.168H249.183C248.967 273.168 248.783 273.096 248.631 272.952C248.487 272.808 248.415 272.628 248.415 272.412C248.415 272.196 248.487 272.016 248.631 271.872C248.783 271.728 248.967 271.656 249.183 271.656ZM249.183 276.072H249.195C249.411 276.072 249.591 276.144 249.735 276.288C249.887 276.432 249.963 276.612 249.963 276.828C249.963 277.044 249.887 277.224 249.735 277.368C249.591 277.512 249.411 277.584 249.195 277.584H249.183C248.967 277.584 248.783 277.512 248.631 277.368C248.487 277.224 248.415 277.044 248.415 276.828C248.415 276.612 248.487 276.432 248.631 276.288C248.783 276.144 248.967 276.072 249.183 276.072ZM251.187 274.62C251.187 273.308 251.503 272.228 252.135 271.38C252.775 270.524 253.583 270.096 254.559 270.096C255.543 270.096 256.351 270.524 256.983 271.38C257.623 272.228 257.943 273.308 257.943 274.62C257.943 275.932 257.623 277.016 256.983 277.872C256.351 278.72 255.543 279.144 254.559 279.144C253.583 279.144 252.775 278.72 252.135 277.872C251.503 277.016 251.187 275.932 251.187 274.62ZM256.851 274.62C256.851 273.604 256.635 272.764 256.203 272.1C255.779 271.428 255.231 271.092 254.559 271.092C253.895 271.092 253.347 271.428 252.915 272.1C252.491 272.764 252.279 273.604 252.279 274.62C252.279 275.636 252.491 276.48 252.915 277.152C253.347 277.816 253.895 278.148 254.559 278.148C255.231 278.148 255.779 277.816 256.203 277.152C256.635 276.48 256.851 275.636 256.851 274.62ZM258.922 274.62C258.922 273.308 259.238 272.228 259.87 271.38C260.51 270.524 261.318 270.096 262.294 270.096C263.278 270.096 264.086 270.524 264.718 271.38C265.358 272.228 265.678 273.308 265.678 274.62C265.678 275.932 265.358 277.016 264.718 277.872C264.086 278.72 263.278 279.144 262.294 279.144C261.318 279.144 260.51 278.72 259.87 277.872C259.238 277.016 258.922 275.932 258.922 274.62ZM264.586 274.62C264.586 273.604 264.37 272.764 263.938 272.1C263.514 271.428 262.966 271.092 262.294 271.092C261.63 271.092 261.082 271.428 260.65 272.1C260.226 272.764 260.014 273.604 260.014 274.62C260.014 275.636 260.226 276.48 260.65 277.152C261.082 277.816 261.63 278.148 262.294 278.148C262.966 278.148 263.514 277.816 263.938 277.152C264.37 276.48 264.586 275.636 264.586 274.62ZM275.207 272.808C275.207 273.592 274.919 274.216 274.343 274.68C273.775 275.144 273.015 275.376 272.063 275.376H271.007V279H269.903V270.24H272.063C273.015 270.24 273.775 270.472 274.343 270.936C274.919 271.4 275.207 272.024 275.207 272.808ZM272.051 271.164H271.007V274.44H272.051C272.675 274.44 273.167 274.296 273.527 274.008C273.895 273.72 274.079 273.32 274.079 272.808C274.079 272.296 273.895 271.896 273.527 271.608C273.167 271.312 272.675 271.164 272.051 271.164ZM277.841 269.928L281.033 276.852L284.213 269.928L286.637 279H285.497L283.961 273.036L281.033 279.252L278.093 273.036L276.557 279H275.429L277.841 269.928Z" fill="#222222"/>
<path d="M207.825 346.722V344.436C208.401 344.904 209.001 345.282 209.625 345.57C210.261 345.846 210.891 346.02 211.515 346.092V342.096L210.669 341.772C209.709 341.412 209.007 340.968 208.563 340.44C208.131 339.912 207.915 339.27 207.915 338.514C207.915 337.59 208.245 336.804 208.905 336.156C209.565 335.496 210.435 335.088 211.515 334.932V333.492H213.207V334.914C213.759 334.974 214.293 335.112 214.809 335.328C215.337 335.544 215.787 335.808 216.159 336.12V338.388C215.715 337.98 215.241 337.644 214.737 337.38C214.233 337.116 213.723 336.936 213.207 336.84V340.476L213.801 340.692C214.893 341.088 215.673 341.556 216.141 342.096C216.609 342.636 216.843 343.326 216.843 344.166C216.843 345.126 216.513 345.942 215.853 346.614C215.205 347.274 214.323 347.7 213.207 347.892V349.44H211.515V347.982C210.819 347.946 210.147 347.814 209.499 347.586C208.851 347.358 208.293 347.07 207.825 346.722ZM209.931 338.334C209.931 338.646 210.039 338.916 210.255 339.144C210.471 339.36 210.849 339.576 211.389 339.792L211.515 339.846V336.822C211.011 336.918 210.621 337.098 210.345 337.362C210.069 337.614 209.931 337.938 209.931 338.334ZM214.845 344.382C214.845 344.034 214.737 343.746 214.521 343.518C214.317 343.278 213.933 343.038 213.369 342.798L213.207 342.744V346.002C213.735 345.882 214.137 345.684 214.413 345.408C214.701 345.132 214.845 344.79 214.845 344.382ZM217.542 336.876L223.068 334.428V348H220.638V337.794L217.542 339.252V336.876ZM228.367 345.948L226.063 350.502L224.533 350.07L225.775 345.102L228.367 345.948ZM237.698 336.876H233.198L232.838 339.522C234.41 339.618 235.652 340.05 236.564 340.818C237.476 341.586 237.932 342.618 237.932 343.914C237.932 345.198 237.476 346.236 236.564 347.028C235.652 347.82 234.476 348.216 233.036 348.216C232.4 348.216 231.776 348.126 231.164 347.946C230.564 347.766 230.06 347.52 229.652 347.208V344.868C230.084 345.264 230.6 345.582 231.2 345.822C231.8 346.062 232.388 346.182 232.964 346.182C233.756 346.182 234.398 345.978 234.89 345.57C235.394 345.162 235.646 344.622 235.646 343.95C235.646 343.086 235.19 342.432 234.278 341.988C233.366 341.532 232.124 341.322 230.552 341.358L231.344 334.86H237.698V336.876ZM246.98 336.876H242.48L242.12 339.522C243.692 339.618 244.934 340.05 245.846 340.818C246.758 341.586 247.214 342.618 247.214 343.914C247.214 345.198 246.758 346.236 245.846 347.028C244.934 347.82 243.758 348.216 242.318 348.216C241.682 348.216 241.058 348.126 240.446 347.946C239.846 347.766 239.342 347.52 238.934 347.208V344.868C239.366 345.264 239.882 345.582 240.482 345.822C241.082 346.062 241.67 346.182 242.246 346.182C243.038 346.182 243.68 345.978 244.172 345.57C244.676 345.162 244.928 344.622 244.928 343.95C244.928 343.086 244.472 342.432 243.56 341.988C242.648 341.532 241.406 341.322 239.834 341.358L240.626 334.86H246.98V336.876ZM248.414 341.43C248.414 339.462 248.918 337.842 249.926 336.57C250.934 335.286 252.206 334.644 253.742 334.644C255.29 334.644 256.562 335.286 257.558 336.57C258.566 337.842 259.07 339.462 259.07 341.43C259.07 343.398 258.566 345.024 257.558 346.308C256.562 347.58 255.29 348.216 253.742 348.216C252.206 348.216 250.934 347.58 249.926 346.308C248.918 345.024 248.414 343.398 248.414 341.43ZM256.676 341.43C256.676 340.086 256.4 338.982 255.848 338.118C255.308 337.254 254.606 336.822 253.742 336.822C252.878 336.822 252.17 337.26 251.618 338.136C251.078 339 250.808 340.098 250.808 341.43C250.808 342.762 251.078 343.866 251.618 344.742C252.17 345.606 252.878 346.038 253.742 346.038C254.606 346.038 255.308 345.606 255.848 344.742C256.4 343.878 256.676 342.774 256.676 341.43ZM261.374 345.084H261.41C261.83 345.084 262.19 345.234 262.49 345.534C262.79 345.822 262.94 346.176 262.94 346.596C262.94 347.028 262.79 347.394 262.49 347.694C262.202 347.982 261.842 348.126 261.41 348.126H261.374C260.954 348.126 260.594 347.982 260.294 347.694C260.006 347.394 259.862 347.028 259.862 346.596C259.862 346.176 260.006 345.822 260.294 345.534C260.594 345.234 260.954 345.084 261.374 345.084ZM263.707 341.43C263.707 339.462 264.211 337.842 265.219 336.57C266.227 335.286 267.499 334.644 269.035 334.644C270.583 334.644 271.855 335.286 272.851 336.57C273.859 337.842 274.363 339.462 274.363 341.43C274.363 343.398 273.859 345.024 272.851 346.308C271.855 347.58 270.583 348.216 269.035 348.216C267.499 348.216 266.227 347.58 265.219 346.308C264.211 345.024 263.707 343.398 263.707 341.43ZM271.969 341.43C271.969 340.086 271.693 338.982 271.141 338.118C270.601 337.254 269.899 336.822 269.035 336.822C268.171 336.822 267.463 337.26 266.911 338.136C266.371 339 266.101 340.098 266.101 341.43C266.101 342.762 266.371 343.866 266.911 344.742C267.463 345.606 268.171 346.038 269.035 346.038C269.899 346.038 270.601 345.606 271.141 344.742C271.693 343.878 271.969 342.774 271.969 341.43ZM275.677 341.43C275.677 339.462 276.181 337.842 277.189 336.57C278.197 335.286 279.469 334.644 281.005 334.644C282.553 334.644 283.825 335.286 284.821 336.57C285.829 337.842 286.333 339.462 286.333 341.43C286.333 343.398 285.829 345.024 284.821 346.308C283.825 347.58 282.553 348.216 281.005 348.216C279.469 348.216 278.197 347.58 277.189 346.308C276.181 345.024 275.677 343.398 275.677 341.43ZM283.939 341.43C283.939 340.086 283.663 338.982 283.111 338.118C282.571 337.254 281.869 336.822 281.005 336.822C280.141 336.822 279.433 337.26 278.881 338.136C278.341 339 278.071 340.098 278.071 341.43C278.071 342.762 278.341 343.866 278.881 344.742C279.433 345.606 280.141 346.038 281.005 346.038C281.869 346.038 282.571 345.606 283.111 344.742C283.663 343.878 283.939 342.774 283.939 341.43Z" fill="#464E41"/>
<path d="M40.4529 400.453H286.835V443.026H40.4529V400.453Z" stroke="#464E41" stroke-width="0.905817"/>
<path d="M120.935 426.74H119.577L119.451 425.48C119.208 425.89 118.826 426.24 118.303 426.53C117.78 426.81 117.15 426.95 116.413 426.95C115.06 426.95 113.907 426.483 112.955 425.55C112.003 424.607 111.527 423.347 111.527 421.77C111.527 420.724 111.765 419.8 112.241 418.998C112.726 418.195 113.342 417.598 114.089 417.206C114.836 416.804 115.648 416.604 116.525 416.604C117.673 416.604 118.634 416.888 119.409 417.458C120.193 418.027 120.725 418.75 121.005 419.628L119.423 420.23C119.246 419.632 118.905 419.138 118.401 418.746C117.897 418.354 117.272 418.158 116.525 418.158C115.638 418.158 114.868 418.47 114.215 419.096C113.562 419.721 113.235 420.612 113.235 421.77C113.235 422.918 113.552 423.814 114.187 424.458C114.822 425.092 115.596 425.41 116.511 425.41C117.407 425.41 118.088 425.176 118.555 424.71C119.031 424.234 119.297 423.725 119.353 423.184H116.077V421.714H120.935V426.74ZM123.965 422.582H127.311C127.292 422.152 127.138 421.793 126.849 421.504C126.569 421.214 126.163 421.07 125.631 421.07C125.145 421.07 124.753 421.224 124.455 421.532C124.156 421.83 123.993 422.18 123.965 422.582ZM127.493 424.36L128.865 424.794C128.669 425.419 128.3 425.937 127.759 426.348C127.227 426.749 126.569 426.95 125.785 426.95C124.814 426.95 123.988 426.618 123.307 425.956C122.635 425.293 122.299 424.406 122.299 423.296C122.299 422.25 122.625 421.392 123.279 420.72C123.941 420.048 124.721 419.712 125.617 419.712C126.662 419.712 127.479 420.034 128.067 420.678C128.655 421.312 128.949 422.171 128.949 423.254C128.949 423.543 128.935 423.716 128.907 423.772H123.923C123.941 424.285 124.128 424.71 124.483 425.046C124.847 425.382 125.281 425.55 125.785 425.55C126.662 425.55 127.231 425.153 127.493 424.36ZM132.559 417.836V419.922H133.973V421.364H132.559V424.528C132.559 424.826 132.629 425.046 132.769 425.186C132.909 425.316 133.128 425.382 133.427 425.382C133.613 425.382 133.8 425.363 133.987 425.326V426.67C133.744 426.772 133.413 426.824 132.993 426.824C132.358 426.824 131.859 426.646 131.495 426.292C131.131 425.928 130.949 425.428 130.949 424.794V421.364H129.689V419.922H130.039C130.384 419.922 130.645 419.824 130.823 419.628C131 419.432 131.089 419.175 131.089 418.858V417.836H132.559ZM140.907 421.378H142.657C143.189 421.378 143.604 421.242 143.903 420.972C144.211 420.692 144.365 420.318 144.365 419.852C144.365 419.376 144.211 418.998 143.903 418.718C143.604 418.438 143.189 418.298 142.657 418.298H140.907V421.378ZM142.909 422.862H140.907V426.74H139.227V416.814H142.909C143.851 416.814 144.612 417.098 145.191 417.668C145.779 418.237 146.073 418.96 146.073 419.838C146.073 420.724 145.779 421.452 145.191 422.022C144.612 422.582 143.851 422.862 142.909 422.862ZM149.301 425.2H151.065C151.98 425.2 152.731 424.91 153.319 424.332C153.916 423.744 154.215 422.899 154.215 421.798C154.215 420.687 153.921 419.838 153.333 419.25C152.745 418.652 151.994 418.354 151.079 418.354H149.301V425.2ZM151.121 426.74H147.621V416.814H151.135C152.535 416.814 153.688 417.257 154.593 418.144C155.508 419.03 155.965 420.248 155.965 421.798C155.965 423.338 155.508 424.546 154.593 425.424C153.678 426.301 152.521 426.74 151.121 426.74ZM159.405 426.74H157.725V416.814H163.899V418.396H159.405V421.182H163.437V422.736H159.405V426.74ZM174.002 426.74L171.916 422.82H170.684V426.74H168.99V416.814H172.798C173.732 416.814 174.483 417.103 175.052 417.682C175.622 418.251 175.906 418.965 175.906 419.824C175.906 420.533 175.706 421.14 175.304 421.644C174.903 422.148 174.357 422.484 173.666 422.652L175.906 426.74H174.002ZM170.684 421.336H172.49C173.004 421.336 173.414 421.2 173.722 420.93C174.04 420.65 174.198 420.281 174.198 419.824C174.198 419.357 174.04 418.988 173.722 418.718C173.414 418.438 173.004 418.298 172.49 418.298H170.684V421.336ZM178.461 422.582H181.807C181.788 422.152 181.634 421.793 181.345 421.504C181.065 421.214 180.659 421.07 180.127 421.07C179.642 421.07 179.25 421.224 178.951 421.532C178.652 421.83 178.489 422.18 178.461 422.582ZM181.989 424.36L183.361 424.794C183.165 425.419 182.796 425.937 182.255 426.348C181.723 426.749 181.065 426.95 180.281 426.95C179.31 426.95 178.484 426.618 177.803 425.956C177.131 425.293 176.795 424.406 176.795 423.296C176.795 422.25 177.122 421.392 177.775 420.72C178.438 420.048 179.217 419.712 180.113 419.712C181.158 419.712 181.975 420.034 182.563 420.678C183.151 421.312 183.445 422.171 183.445 423.254C183.445 423.543 183.431 423.716 183.403 423.772H178.419C178.438 424.285 178.624 424.71 178.979 425.046C179.343 425.382 179.777 425.55 180.281 425.55C181.158 425.55 181.728 425.153 181.989 424.36ZM187.965 421.21C187.442 421.21 186.999 421.401 186.635 421.784C186.271 422.157 186.089 422.67 186.089 423.324C186.089 423.986 186.271 424.509 186.635 424.892C187.008 425.274 187.461 425.466 187.993 425.466C188.469 425.466 188.847 425.34 189.127 425.088C189.416 424.826 189.607 424.532 189.701 424.206L191.129 424.724C190.942 425.33 190.578 425.853 190.037 426.292C189.505 426.73 188.823 426.95 187.993 426.95C186.994 426.95 186.154 426.604 185.473 425.914C184.801 425.223 184.465 424.36 184.465 423.324C184.465 422.278 184.796 421.415 185.459 420.734C186.131 420.052 186.961 419.712 187.951 419.712C188.8 419.712 189.491 419.931 190.023 420.37C190.564 420.808 190.914 421.336 191.073 421.952L189.617 422.484C189.523 422.129 189.341 421.83 189.071 421.588C188.809 421.336 188.441 421.21 187.965 421.21ZM193.637 422.582H196.983C196.964 422.152 196.81 421.793 196.521 421.504C196.241 421.214 195.835 421.07 195.303 421.07C194.817 421.07 194.425 421.224 194.127 421.532C193.828 421.83 193.665 422.18 193.637 422.582ZM197.165 424.36L198.537 424.794C198.341 425.419 197.972 425.937 197.431 426.348C196.899 426.749 196.241 426.95 195.457 426.95C194.486 426.95 193.66 426.618 192.979 425.956C192.307 425.293 191.971 424.406 191.971 423.296C191.971 422.25 192.297 421.392 192.951 420.72C193.613 420.048 194.393 419.712 195.289 419.712C196.334 419.712 197.151 420.034 197.739 420.678C198.327 421.312 198.621 422.171 198.621 423.254C198.621 423.543 198.607 423.716 198.579 423.772H193.595C193.613 424.285 193.8 424.71 194.155 425.046C194.519 425.382 194.953 425.55 195.457 425.55C196.334 425.55 196.903 425.153 197.165 424.36ZM201.783 426.74H200.173V419.922H201.783V426.74ZM200.229 418.27C200.023 418.064 199.921 417.817 199.921 417.528C199.921 417.238 200.023 416.991 200.229 416.786C200.434 416.571 200.681 416.464 200.971 416.464C201.269 416.464 201.521 416.566 201.727 416.772C201.932 416.977 202.035 417.229 202.035 417.528C202.035 417.817 201.932 418.064 201.727 418.27C201.521 418.475 201.269 418.578 200.971 418.578C200.681 418.578 200.434 418.475 200.229 418.27ZM205.488 429.4H203.878V419.922H205.446V420.846C205.623 420.538 205.903 420.281 206.286 420.076C206.668 419.87 207.112 419.768 207.616 419.768C208.596 419.768 209.366 420.104 209.926 420.776C210.486 421.438 210.766 422.288 210.766 423.324C210.766 424.36 210.472 425.218 209.884 425.9C209.296 426.572 208.521 426.908 207.56 426.908C207.093 426.908 206.678 426.819 206.314 426.642C205.95 426.464 205.674 426.24 205.488 425.97V429.4ZM209.142 423.324C209.142 422.689 208.974 422.18 208.638 421.798C208.302 421.406 207.858 421.21 207.308 421.21C206.766 421.21 206.323 421.406 205.978 421.798C205.642 422.18 205.474 422.689 205.474 423.324C205.474 423.968 205.642 424.486 205.978 424.878C206.323 425.27 206.766 425.466 207.308 425.466C207.849 425.466 208.288 425.27 208.624 424.878C208.969 424.486 209.142 423.968 209.142 423.324ZM214.344 417.836V419.922H215.758V421.364H214.344V424.528C214.344 424.826 214.414 425.046 214.554 425.186C214.694 425.316 214.913 425.382 215.212 425.382C215.399 425.382 215.585 425.363 215.772 425.326V426.67C215.529 426.772 215.198 426.824 214.778 426.824C214.143 426.824 213.644 426.646 213.28 426.292C212.916 425.928 212.734 425.428 212.734 424.794V421.364H211.474V419.922H211.824C212.169 419.922 212.431 419.824 212.608 419.628C212.785 419.432 212.874 419.175 212.874 418.858V417.836H214.344Z" fill="#464E41"/>
</svg>
