<svg width="512" height="580" viewBox="0 0 512 580" fill="none" xmlns="http://www.w3.org/2000/svg">
<rect width="511" height="579" transform="translate(0.505615 0.655396)" fill="#BFC3B0"/>
<rect x="0.505615" y="0.655396" width="511" height="579" fill="#E1E2DB" fill-opacity="0.5"/>
<rect x="87.5056" y="57.6554" width="337" height="465" rx="8" fill="#F7F6F1"/>
<circle cx="424.506" cy="195.636" r="13.0565" fill="#D0D3C5"/>
<circle cx="87.5057" cy="195.636" r="13.0565" fill="#D0D3C5"/>
<line opacity="0.2" x1="119.506" y1="195.136" x2="392.506" y2="195.136" stroke="#666F62"/>
<line opacity="0.2" x1="119.506" y1="355.093" x2="392.506" y2="355.093" stroke="#666F62"/>
<line opacity="0.2" x1="119.506" y1="425.704" x2="392.506" y2="425.704" stroke="#666F62"/>
<path d="M168.926 151.808H171.926C172.838 151.808 173.55 151.576 174.062 151.112C174.59 150.632 174.854 149.992 174.854 149.192C174.854 148.376 174.59 147.728 174.062 147.248C173.55 146.768 172.838 146.528 171.926 146.528H168.926V151.808ZM172.358 154.352H168.926V161H166.046V143.984H172.358C173.974 143.984 175.278 144.472 176.27 145.448C177.278 146.424 177.782 147.664 177.782 149.168C177.782 150.688 177.278 151.936 176.27 152.912C175.278 153.872 173.974 154.352 172.358 154.352ZM177.961 157.832C177.961 156.84 178.281 156.048 178.921 155.456C179.577 154.848 180.433 154.464 181.489 154.304L184.489 153.848C185.065 153.768 185.353 153.488 185.353 153.008C185.353 152.48 185.169 152.056 184.801 151.736C184.433 151.4 183.881 151.232 183.145 151.232C182.441 151.232 181.881 151.432 181.465 151.832C181.049 152.216 180.809 152.72 180.745 153.344L178.201 152.768C178.313 151.712 178.817 150.816 179.713 150.08C180.609 149.328 181.745 148.952 183.121 148.952C184.817 148.952 186.065 149.36 186.865 150.176C187.681 150.992 188.089 152.04 188.089 153.32V159.128C188.089 159.896 188.137 160.52 188.233 161H185.641C185.561 160.76 185.521 160.264 185.521 159.512C184.753 160.744 183.553 161.36 181.921 161.36C180.737 161.36 179.777 161.016 179.041 160.328C178.321 159.624 177.961 158.792 177.961 157.832ZM182.449 159.176C183.313 159.176 184.009 158.944 184.537 158.48C185.081 158 185.353 157.224 185.353 156.152V155.624L182.305 156.08C181.265 156.256 180.745 156.784 180.745 157.664C180.745 158.08 180.897 158.44 181.201 158.744C181.505 159.032 181.921 159.176 182.449 159.176ZM193.725 165.728H190.749L193.557 159.608L188.565 149.312H191.709L195.069 156.704L198.213 149.312H201.165L193.725 165.728ZM204.964 161H202.204V149.312H204.868V150.8C205.188 150.224 205.668 149.776 206.308 149.456C206.964 149.136 207.636 148.976 208.324 148.976C209.108 148.976 209.812 149.152 210.436 149.504C211.06 149.856 211.524 150.368 211.828 151.04C212.644 149.664 213.908 148.976 215.62 148.976C216.772 148.976 217.748 149.352 218.548 150.104C219.348 150.856 219.748 151.96 219.748 153.416V161H217.06V153.872C217.06 153.152 216.868 152.576 216.484 152.144C216.116 151.696 215.556 151.472 214.804 151.472C214.084 151.472 213.5 151.72 213.052 152.216C212.604 152.712 212.38 153.328 212.38 154.064V161H209.644V153.872C209.644 153.152 209.452 152.576 209.068 152.144C208.7 151.696 208.14 151.472 207.388 151.472C206.652 151.472 206.06 151.72 205.612 152.216C205.18 152.696 204.964 153.312 204.964 154.064V161ZM224.101 153.872H229.837C229.805 153.136 229.541 152.52 229.045 152.024C228.565 151.528 227.869 151.28 226.957 151.28C226.125 151.28 225.453 151.544 224.941 152.072C224.429 152.584 224.149 153.184 224.101 153.872ZM230.149 156.92L232.501 157.664C232.165 158.736 231.533 159.624 230.605 160.328C229.693 161.016 228.565 161.36 227.221 161.36C225.557 161.36 224.141 160.792 222.973 159.656C221.821 158.52 221.245 157 221.245 155.096C221.245 153.304 221.805 151.832 222.925 150.68C224.061 149.528 225.397 148.952 226.933 148.952C228.725 148.952 230.125 149.504 231.133 150.608C232.141 151.696 232.645 153.168 232.645 155.024C232.645 155.52 232.621 155.816 232.573 155.912H224.029C224.061 156.792 224.381 157.52 224.989 158.096C225.613 158.672 226.357 158.96 227.221 158.96C228.725 158.96 229.701 158.28 230.149 156.92ZM237.09 154.256V161H234.306V149.312H237.018V150.872C237.386 150.232 237.874 149.76 238.482 149.456C239.106 149.136 239.77 148.976 240.474 148.976C241.85 148.976 242.898 149.408 243.618 150.272C244.338 151.136 244.698 152.248 244.698 153.608V161H241.914V154.088C241.914 153.304 241.722 152.68 241.338 152.216C240.954 151.736 240.346 151.496 239.514 151.496C238.746 151.496 238.146 151.76 237.714 152.288C237.298 152.8 237.09 153.456 237.09 154.256ZM250.615 145.736V149.312H253.039V151.784H250.615V157.208C250.615 157.72 250.735 158.096 250.975 158.336C251.215 158.56 251.591 158.672 252.103 158.672C252.423 158.672 252.743 158.64 253.063 158.576V160.88C252.647 161.056 252.079 161.144 251.359 161.144C250.271 161.144 249.415 160.84 248.791 160.232C248.167 159.608 247.855 158.752 247.855 157.664V151.784H245.695V149.312H246.295C246.887 149.312 247.335 149.144 247.639 148.808C247.943 148.472 248.095 148.032 248.095 147.488V145.736H250.615ZM271.23 147.968L268.638 148.784C268.526 148.128 268.198 147.528 267.654 146.984C267.11 146.44 266.326 146.168 265.302 146.168C264.454 146.168 263.75 146.408 263.19 146.888C262.646 147.368 262.374 147.944 262.374 148.616C262.374 149.784 263.038 150.512 264.366 150.8L266.814 151.304C268.286 151.592 269.422 152.176 270.222 153.056C271.022 153.936 271.422 154.984 271.422 156.2C271.422 157.608 270.878 158.824 269.79 159.848C268.718 160.856 267.254 161.36 265.398 161.36C263.398 161.36 261.838 160.84 260.718 159.8C259.598 158.744 258.966 157.52 258.822 156.128L261.51 155.36C261.606 156.32 261.99 157.128 262.662 157.784C263.334 158.44 264.246 158.768 265.398 158.768C266.39 158.768 267.15 158.552 267.678 158.12C268.222 157.672 268.494 157.104 268.494 156.416C268.494 155.856 268.294 155.376 267.894 154.976C267.494 154.56 266.934 154.272 266.214 154.112L263.814 153.608C262.486 153.336 261.43 152.784 260.646 151.952C259.878 151.12 259.494 150.08 259.494 148.832C259.494 147.408 260.062 146.184 261.198 145.16C262.334 144.136 263.694 143.624 265.278 143.624C267.086 143.624 268.47 144.064 269.43 144.944C270.39 145.808 270.99 146.816 271.23 147.968ZM280.359 159.704C280.087 160.216 279.639 160.616 279.015 160.904C278.407 161.192 277.751 161.336 277.047 161.336C275.687 161.336 274.607 160.896 273.807 160.016C273.023 159.136 272.631 158.024 272.631 156.68V149.312H275.415V156.176C275.415 156.96 275.607 157.6 275.991 158.096C276.375 158.592 276.967 158.84 277.767 158.84C278.551 158.84 279.151 158.6 279.567 158.12C279.999 157.64 280.215 157.008 280.215 156.224V149.312H282.999V158.864C282.999 159.568 283.039 160.28 283.119 161H280.455C280.391 160.648 280.359 160.216 280.359 159.704ZM290.62 151.52C289.724 151.52 288.964 151.848 288.34 152.504C287.716 153.144 287.404 154.024 287.404 155.144C287.404 156.28 287.716 157.176 288.34 157.832C288.98 158.488 289.756 158.816 290.668 158.816C291.484 158.816 292.132 158.6 292.612 158.168C293.108 157.72 293.436 157.216 293.596 156.656L296.044 157.544C295.724 158.584 295.1 159.48 294.172 160.232C293.26 160.984 292.092 161.36 290.668 161.36C288.956 161.36 287.516 160.768 286.348 159.584C285.196 158.4 284.62 156.92 284.62 155.144C284.62 153.352 285.188 151.872 286.324 150.704C287.476 149.536 288.9 148.952 290.596 148.952C292.052 148.952 293.236 149.328 294.148 150.08C295.076 150.832 295.676 151.736 295.948 152.792L293.452 153.704C293.292 153.096 292.98 152.584 292.516 152.168C292.068 151.736 291.436 151.52 290.62 151.52ZM302.487 151.52C301.591 151.52 300.831 151.848 300.207 152.504C299.583 153.144 299.271 154.024 299.271 155.144C299.271 156.28 299.583 157.176 300.207 157.832C300.847 158.488 301.623 158.816 302.535 158.816C303.351 158.816 303.999 158.6 304.479 158.168C304.975 157.72 305.303 157.216 305.463 156.656L307.911 157.544C307.591 158.584 306.967 159.48 306.039 160.232C305.127 160.984 303.959 161.36 302.535 161.36C300.823 161.36 299.383 160.768 298.215 159.584C297.063 158.4 296.487 156.92 296.487 155.144C296.487 153.352 297.055 151.872 298.191 150.704C299.343 149.536 300.767 148.952 302.463 148.952C303.919 148.952 305.103 149.328 306.015 150.08C306.943 150.832 307.543 151.736 307.815 152.792L305.319 153.704C305.159 153.096 304.847 152.584 304.383 152.168C303.935 151.736 303.303 151.52 302.487 151.52ZM311.211 153.872H316.947C316.915 153.136 316.651 152.52 316.155 152.024C315.675 151.528 314.979 151.28 314.067 151.28C313.235 151.28 312.563 151.544 312.051 152.072C311.539 152.584 311.259 153.184 311.211 153.872ZM317.259 156.92L319.611 157.664C319.275 158.736 318.643 159.624 317.715 160.328C316.803 161.016 315.675 161.36 314.331 161.36C312.667 161.36 311.251 160.792 310.083 159.656C308.931 158.52 308.355 157 308.355 155.096C308.355 153.304 308.915 151.832 310.035 150.68C311.171 149.528 312.507 148.952 314.043 148.952C315.835 148.952 317.235 149.504 318.243 150.608C319.251 151.696 319.755 153.168 319.755 155.024C319.755 155.52 319.731 155.816 319.683 155.912H311.139C311.171 156.792 311.491 157.52 312.099 158.096C312.723 158.672 313.467 158.96 314.331 158.96C315.835 158.96 316.811 158.28 317.259 156.92ZM320.383 157.832L322.807 157.16C322.855 157.72 323.087 158.192 323.503 158.576C323.919 158.96 324.479 159.152 325.183 159.152C325.727 159.152 326.151 159.024 326.455 158.768C326.775 158.512 326.935 158.192 326.935 157.808C326.935 157.136 326.479 156.704 325.567 156.512L323.839 156.128C322.831 155.904 322.055 155.488 321.511 154.88C320.967 154.272 320.695 153.552 320.695 152.72C320.695 151.696 321.111 150.816 321.943 150.08C322.775 149.328 323.791 148.952 324.991 148.952C325.759 148.952 326.439 149.064 327.031 149.288C327.623 149.512 328.079 149.808 328.399 150.176C328.735 150.528 328.991 150.872 329.167 151.208C329.343 151.544 329.455 151.88 329.503 152.216L327.151 152.888C327.087 152.44 326.879 152.04 326.527 151.688C326.191 151.32 325.679 151.136 324.991 151.136C324.511 151.136 324.111 151.272 323.791 151.544C323.471 151.8 323.311 152.112 323.311 152.48C323.311 153.136 323.703 153.544 324.487 153.704L326.263 154.064C327.351 154.304 328.183 154.736 328.759 155.36C329.335 155.984 329.623 156.736 329.623 157.616C329.623 158.592 329.231 159.464 328.447 160.232C327.679 160.984 326.599 161.36 325.207 161.36C324.407 161.36 323.687 161.24 323.047 161C322.423 160.76 321.927 160.456 321.559 160.088C321.207 159.704 320.927 159.328 320.719 158.96C320.527 158.576 320.415 158.2 320.383 157.832ZM330.352 157.832L332.776 157.16C332.824 157.72 333.056 158.192 333.472 158.576C333.888 158.96 334.448 159.152 335.152 159.152C335.696 159.152 336.12 159.024 336.424 158.768C336.744 158.512 336.904 158.192 336.904 157.808C336.904 157.136 336.448 156.704 335.536 156.512L333.808 156.128C332.8 155.904 332.024 155.488 331.48 154.88C330.936 154.272 330.664 153.552 330.664 152.72C330.664 151.696 331.08 150.816 331.912 150.08C332.744 149.328 333.76 148.952 334.96 148.952C335.728 148.952 336.408 149.064 337 149.288C337.592 149.512 338.048 149.808 338.368 150.176C338.704 150.528 338.96 150.872 339.136 151.208C339.312 151.544 339.424 151.88 339.472 152.216L337.12 152.888C337.056 152.44 336.848 152.04 336.496 151.688C336.16 151.32 335.648 151.136 334.96 151.136C334.48 151.136 334.08 151.272 333.76 151.544C333.44 151.8 333.28 152.112 333.28 152.48C333.28 153.136 333.672 153.544 334.456 153.704L336.232 154.064C337.32 154.304 338.152 154.736 338.728 155.36C339.304 155.984 339.592 156.736 339.592 157.616C339.592 158.592 339.2 159.464 338.416 160.232C337.648 160.984 336.568 161.36 335.176 161.36C334.376 161.36 333.656 161.24 333.016 161C332.392 160.76 331.896 160.456 331.528 160.088C331.176 159.704 330.896 159.328 330.688 158.96C330.496 158.576 330.384 158.2 330.352 157.832ZM345.12 143.984L344.448 155.96H342.432L341.736 143.984H345.12ZM342.192 160.664C341.856 160.312 341.688 159.896 341.688 159.416C341.688 158.936 341.856 158.52 342.192 158.168C342.528 157.816 342.936 157.64 343.416 157.64C343.912 157.64 344.328 157.816 344.664 158.168C345.016 158.52 345.192 158.936 345.192 159.416C345.192 159.896 345.016 160.312 344.664 160.664C344.328 161 343.912 161.168 343.416 161.168C342.936 161.168 342.528 161 342.192 160.664Z" fill="#222222"/>
<rect x="240.006" y="90.8826" width="32" height="32" rx="16" fill="#666F62"/>
<path d="M250.602 106.243L254.605 110.591L261.41 103.174" stroke="#F7F6F1"/>
<path opacity="0.4" d="M123.188 248.614H122.012V252.87H120.724V242.65H123.244C124.354 242.65 125.241 242.92 125.904 243.462C126.576 244.003 126.912 244.731 126.912 245.646C126.912 246.346 126.706 246.943 126.296 247.438C125.885 247.923 125.311 248.264 124.574 248.46L128.144 252.87H126.618L123.188 248.614ZM123.23 243.728H122.012V247.564H123.23C123.958 247.564 124.532 247.396 124.952 247.06C125.381 246.714 125.596 246.243 125.596 245.646C125.596 245.048 125.381 244.582 124.952 244.246C124.532 243.9 123.958 243.728 123.23 243.728ZM135.714 252.87H129.624V242.65H135.672V243.742H130.898V247.116H135.28V248.208H130.898V251.778H135.714V252.87ZM138.937 252.87H137.663V242.65H143.487V243.742H138.937V247.158H143.095V248.25H138.937V252.87ZM151.314 252.87H145.224V242.65H151.272V243.742H146.498V247.116H150.88V248.208H146.498V251.778H151.314V252.87ZM155.727 248.614H154.551V252.87H153.263V242.65H155.783C156.893 242.65 157.78 242.92 158.443 243.462C159.115 244.003 159.451 244.731 159.451 245.646C159.451 246.346 159.245 246.943 158.835 247.438C158.424 247.923 157.85 248.264 157.113 248.46L160.683 252.87H159.157L155.727 248.614ZM155.769 243.728H154.551V247.564H155.769C156.497 247.564 157.071 247.396 157.491 247.06C157.92 246.714 158.135 246.243 158.135 245.646C158.135 245.048 157.92 244.582 157.491 244.246C157.071 243.9 156.497 243.728 155.769 243.728ZM168.253 252.87H162.163V242.65H168.211V243.742H163.437V247.116H167.819V248.208H163.437V251.778H168.253V252.87ZM170.202 242.3L177.65 250.14V242.65H178.924V253.22L171.476 245.38V252.87H170.202V242.3ZM181.988 247.76C181.988 248.889 182.366 249.846 183.122 250.63C183.888 251.414 184.821 251.806 185.922 251.806C186.482 251.806 187.005 251.703 187.49 251.498C187.985 251.292 188.405 251.003 188.75 250.63V252.142C188.349 252.431 187.906 252.655 187.42 252.814C186.935 252.963 186.426 253.038 185.894 253.038C185.194 253.038 184.527 252.902 183.892 252.632C183.258 252.361 182.698 251.978 182.212 251.484C181.727 250.98 181.354 250.41 181.092 249.776C180.831 249.132 180.7 248.46 180.7 247.76C180.7 247.06 180.831 246.392 181.092 245.758C181.354 245.114 181.727 244.54 182.212 244.036C182.698 243.541 183.258 243.158 183.892 242.888C184.527 242.617 185.194 242.482 185.894 242.482C186.426 242.482 186.935 242.561 187.42 242.72C187.906 242.869 188.349 243.088 188.75 243.378V244.89C188.405 244.516 187.985 244.227 187.49 244.022C187.005 243.816 186.482 243.714 185.922 243.714C184.821 243.714 183.888 244.106 183.122 244.89C182.366 245.674 181.988 246.63 181.988 247.76ZM196.759 252.87H190.669V242.65H196.717V243.742H191.943V247.116H196.325V248.208H191.943V251.778H196.759V252.87ZM198.035 252.002V250.602C198.492 251.022 198.982 251.348 199.505 251.582C200.037 251.806 200.564 251.918 201.087 251.918C201.721 251.918 202.235 251.764 202.627 251.456C203.019 251.148 203.215 250.737 203.215 250.224C203.215 249.888 203.121 249.598 202.935 249.356C202.748 249.113 202.407 248.866 201.913 248.614L200.205 247.76C199.458 247.386 198.94 247.008 198.651 246.626C198.371 246.234 198.231 245.772 198.231 245.24C198.231 244.437 198.52 243.779 199.099 243.266C199.687 242.743 200.433 242.482 201.339 242.482C201.833 242.482 202.319 242.575 202.795 242.762C203.271 242.939 203.691 243.191 204.055 243.518V244.904C203.625 244.484 203.173 244.162 202.697 243.938C202.23 243.714 201.763 243.602 201.297 243.602C200.746 243.602 200.303 243.746 199.967 244.036C199.631 244.316 199.463 244.689 199.463 245.156C199.463 245.445 199.551 245.702 199.729 245.926C199.915 246.15 200.261 246.397 200.765 246.668L202.403 247.48C203.177 247.862 203.709 248.254 203.999 248.656C204.297 249.048 204.447 249.538 204.447 250.126C204.447 250.984 204.125 251.684 203.481 252.226C202.846 252.767 202.039 253.038 201.059 253.038C200.499 253.038 199.943 252.944 199.393 252.758C198.851 252.562 198.399 252.31 198.035 252.002ZM210.785 252.87H209.707L210.701 249.832H208.993V248.908H211.009L211.751 246.612H209.833V245.688H212.059L213.053 242.65H214.131L213.137 245.688H215.657L216.651 242.65H217.729L216.735 245.688H218.443V246.612H216.441L215.685 248.908H217.603V249.832H215.391L214.397 252.87H213.305L214.299 249.832H211.779L210.785 252.87ZM212.829 246.612L212.087 248.908H214.607L215.349 246.612H212.829Z" fill="#464E41"/>
<path d="M296.08 249.76C296.08 248.229 296.448 246.969 297.186 245.98C297.932 244.981 298.875 244.482 300.014 244.482C301.162 244.482 302.104 244.981 302.842 245.98C303.588 246.969 303.962 248.229 303.962 249.76C303.962 251.29 303.588 252.555 302.842 253.554C302.104 254.543 301.162 255.038 300.014 255.038C298.875 255.038 297.932 254.543 297.186 253.554C296.448 252.555 296.08 251.29 296.08 249.76ZM302.688 249.76C302.688 248.574 302.436 247.594 301.932 246.82C301.437 246.036 300.798 245.644 300.014 245.644C299.239 245.644 298.6 246.036 298.096 246.82C297.601 247.594 297.354 248.574 297.354 249.76C297.354 250.945 297.601 251.93 298.096 252.714C298.6 253.488 299.239 253.876 300.014 253.876C300.798 253.876 301.437 253.488 301.932 252.714C302.436 251.93 302.688 250.945 302.688 249.76ZM305.103 249.76C305.103 248.229 305.472 246.969 306.209 245.98C306.956 244.981 307.898 244.482 309.037 244.482C310.185 244.482 311.128 244.981 311.865 245.98C312.612 246.969 312.985 248.229 312.985 249.76C312.985 251.29 312.612 252.555 311.865 253.554C311.128 254.543 310.185 255.038 309.037 255.038C307.898 255.038 306.956 254.543 306.209 253.554C305.472 252.555 305.103 251.29 305.103 249.76ZM311.711 249.76C311.711 248.574 311.459 247.594 310.955 246.82C310.46 246.036 309.821 245.644 309.037 245.644C308.262 245.644 307.623 246.036 307.119 246.82C306.624 247.594 306.377 248.574 306.377 249.76C306.377 250.945 306.624 251.93 307.119 252.714C307.623 253.488 308.262 253.876 309.037 253.876C309.821 253.876 310.46 253.488 310.955 252.714C311.459 251.93 311.711 250.945 311.711 249.76ZM314.126 249.76C314.126 248.229 314.495 246.969 315.232 245.98C315.979 244.981 316.922 244.482 318.06 244.482C319.208 244.482 320.151 244.981 320.888 245.98C321.635 246.969 322.008 248.229 322.008 249.76C322.008 251.29 321.635 252.555 320.888 253.554C320.151 254.543 319.208 255.038 318.06 255.038C316.922 255.038 315.979 254.543 315.232 253.554C314.495 252.555 314.126 251.29 314.126 249.76ZM320.734 249.76C320.734 248.574 320.482 247.594 319.978 246.82C319.484 246.036 318.844 245.644 318.06 245.644C317.286 245.644 316.646 246.036 316.142 246.82C315.648 247.594 315.4 248.574 315.4 249.76C315.4 250.945 315.648 251.93 316.142 252.714C316.646 253.488 317.286 253.876 318.06 253.876C318.844 253.876 319.484 253.488 319.978 252.714C320.482 251.93 320.734 250.945 320.734 249.76ZM323.15 249.76C323.15 248.229 323.519 246.969 324.256 245.98C325.003 244.981 325.945 244.482 327.084 244.482C328.232 244.482 329.175 244.981 329.912 245.98C330.659 246.969 331.032 248.229 331.032 249.76C331.032 251.29 330.659 252.555 329.912 253.554C329.175 254.543 328.232 255.038 327.084 255.038C325.945 255.038 325.003 254.543 324.256 253.554C323.519 252.555 323.15 251.29 323.15 249.76ZM329.758 249.76C329.758 248.574 329.506 247.594 329.002 246.82C328.507 246.036 327.868 245.644 327.084 245.644C326.309 245.644 325.67 246.036 325.166 246.82C324.671 247.594 324.424 248.574 324.424 249.76C324.424 250.945 324.671 251.93 325.166 252.714C325.67 253.488 326.309 253.876 327.084 253.876C327.868 253.876 328.507 253.488 329.002 252.714C329.506 251.93 329.758 250.945 329.758 249.76ZM337.199 249.466C337.759 249.662 338.212 249.998 338.557 250.474C338.912 250.94 339.089 251.468 339.089 252.056C339.089 252.905 338.753 253.614 338.081 254.184C337.419 254.753 336.588 255.038 335.589 255.038C334.591 255.038 333.76 254.753 333.097 254.184C332.435 253.614 332.103 252.905 332.103 252.056C332.103 251.468 332.276 250.94 332.621 250.474C332.976 249.998 333.433 249.662 333.993 249.466C333.527 249.26 333.158 248.957 332.887 248.556C332.617 248.145 332.481 247.697 332.481 247.212C332.481 246.437 332.775 245.788 333.363 245.266C333.961 244.743 334.703 244.482 335.589 244.482C336.476 244.482 337.218 244.743 337.815 245.266C338.413 245.788 338.711 246.437 338.711 247.212C338.711 247.697 338.576 248.145 338.305 248.556C338.035 248.957 337.666 249.26 337.199 249.466ZM337.549 247.226C337.549 246.731 337.363 246.32 336.989 245.994C336.625 245.658 336.159 245.49 335.589 245.49C335.029 245.49 334.563 245.658 334.189 245.994C333.825 246.32 333.643 246.731 333.643 247.226C333.643 247.72 333.825 248.136 334.189 248.472C334.563 248.798 335.029 248.962 335.589 248.962C336.159 248.962 336.625 248.798 336.989 248.472C337.363 248.136 337.549 247.72 337.549 247.226ZM337.857 251.986C337.857 251.416 337.643 250.94 337.213 250.558C336.784 250.175 336.243 249.984 335.589 249.984C334.936 249.984 334.395 250.175 333.965 250.558C333.536 250.94 333.321 251.416 333.321 251.986C333.321 252.555 333.536 253.036 333.965 253.428C334.395 253.81 334.936 254.002 335.589 254.002C336.243 254.002 336.784 253.81 337.213 253.428C337.643 253.045 337.857 252.564 337.857 251.986ZM346.023 245.742H342.327L341.949 248.43C343.237 248.43 344.264 248.728 345.029 249.326C345.804 249.914 346.191 250.73 346.191 251.776C346.191 252.728 345.841 253.512 345.141 254.128C344.451 254.734 343.578 255.038 342.523 255.038C342.029 255.038 341.548 254.968 341.081 254.828C340.624 254.678 340.227 254.478 339.891 254.226V252.91C340.227 253.227 340.629 253.479 341.095 253.666C341.562 253.843 342.033 253.932 342.509 253.932C343.209 253.932 343.788 253.731 344.245 253.33C344.712 252.928 344.945 252.415 344.945 251.79C344.945 250.968 344.558 250.352 343.783 249.942C343.009 249.531 341.991 249.372 340.731 249.466L341.333 244.65H346.023V245.742ZM350.477 251.552C349.516 251.552 348.704 251.216 348.041 250.544C347.378 249.862 347.047 249.032 347.047 248.052C347.047 247.053 347.388 246.208 348.069 245.518C348.76 244.827 349.6 244.482 350.589 244.482C351.578 244.482 352.414 244.827 353.095 245.518C353.786 246.208 354.131 247.053 354.131 248.052C354.131 248.453 354.07 248.84 353.949 249.214C353.828 249.587 353.632 250.007 353.361 250.474L350.743 254.87H349.399L351.485 251.342C351.317 251.407 351.149 251.458 350.981 251.496C350.813 251.533 350.645 251.552 350.477 251.552ZM348.237 248.052C348.237 248.742 348.461 249.326 348.909 249.802C349.366 250.268 349.926 250.502 350.589 250.502C351.252 250.502 351.812 250.268 352.269 249.802C352.726 249.326 352.955 248.742 352.955 248.052C352.955 247.361 352.726 246.782 352.269 246.316C351.812 245.84 351.252 245.602 350.589 245.602C349.926 245.602 349.366 245.84 348.909 246.316C348.461 246.782 348.237 247.361 348.237 248.052ZM358.905 244.65H360.207L356.119 251.314H359.437V248.864H360.613V251.314H362.461V252.336H360.613V254.87H359.437V252.336H354.229L358.905 244.65ZM367.185 251.202L364.875 253.778H369.481V254.87H362.551L365.925 250.992C366.663 250.142 367.171 249.452 367.451 248.92C367.741 248.388 367.885 247.888 367.885 247.422C367.885 246.88 367.717 246.456 367.381 246.148C367.045 245.83 366.583 245.672 365.995 245.672C365.519 245.672 365.02 245.798 364.497 246.05C363.975 246.302 363.513 246.628 363.111 247.03V245.714C363.503 245.331 363.97 245.032 364.511 244.818C365.053 244.594 365.599 244.482 366.149 244.482C367.064 244.482 367.797 244.743 368.347 245.266C368.898 245.779 369.173 246.456 369.173 247.296C369.173 247.884 369.029 248.472 368.739 249.06C368.45 249.648 367.932 250.362 367.185 251.202ZM374.541 251.202L372.231 253.778H376.837V254.87H369.907L373.281 250.992C374.018 250.142 374.527 249.452 374.807 248.92C375.096 248.388 375.241 247.888 375.241 247.422C375.241 246.88 375.073 246.456 374.737 246.148C374.401 245.83 373.939 245.672 373.351 245.672C372.875 245.672 372.375 245.798 371.853 246.05C371.33 246.302 370.868 246.628 370.467 247.03V245.714C370.859 245.331 371.325 245.032 371.867 244.818C372.408 244.594 372.954 244.482 373.505 244.482C374.419 244.482 375.152 244.743 375.703 245.266C376.253 245.779 376.529 246.456 376.529 247.296C376.529 247.884 376.384 248.472 376.095 249.06C375.805 249.648 375.287 250.362 374.541 251.202ZM381.312 247.968C382.274 247.968 383.086 248.308 383.748 248.99C384.411 249.662 384.742 250.488 384.742 251.468C384.742 252.466 384.397 253.311 383.706 254.002C383.025 254.692 382.19 255.038 381.2 255.038C380.211 255.038 379.371 254.692 378.68 254.002C377.999 253.311 377.658 252.466 377.658 251.468C377.658 251.066 377.719 250.679 377.84 250.306C377.962 249.932 378.158 249.512 378.428 249.046L381.046 244.65H382.39L380.304 248.178C380.472 248.112 380.64 248.061 380.808 248.024C380.976 247.986 381.144 247.968 381.312 247.968ZM383.552 251.468C383.552 250.777 383.324 250.198 382.866 249.732C382.418 249.256 381.863 249.018 381.2 249.018C380.538 249.018 379.978 249.256 379.52 249.732C379.063 250.198 378.834 250.777 378.834 251.468C378.834 252.158 379.063 252.742 379.52 253.218C379.978 253.684 380.538 253.918 381.2 253.918C381.863 253.918 382.418 253.684 382.866 253.218C383.324 252.742 383.552 252.158 383.552 251.468ZM384.65 244.65H391.958L387.492 254.87H386.176L390.194 245.742H384.65V244.65Z" fill="#222222"/>
<path opacity="0.4" d="M120.724 287.988V277.768H123.566C125.031 277.768 126.268 278.262 127.276 279.252C128.284 280.232 128.788 281.44 128.788 282.878C128.788 284.315 128.284 285.528 127.276 286.518C126.268 287.498 125.031 287.988 123.566 287.988H120.724ZM127.5 282.878C127.5 281.739 127.117 280.787 126.352 280.022C125.586 279.247 124.634 278.86 123.496 278.86H122.012V286.896H123.496C124.634 286.896 125.586 286.513 126.352 285.748C127.117 284.973 127.5 284.016 127.5 282.878ZM128.902 287.988L133.844 277.404L138.8 287.988H137.428L136.168 285.202H131.52L130.26 287.988H128.902ZM135.692 284.166L133.844 280.078L131.996 284.166H135.692ZM146.392 277.768V278.86H142.948V287.988H141.646V278.86H138.202V277.768H146.392ZM153.98 287.988H147.89V277.768H153.938V278.86H149.164V282.234H153.546V283.326H149.164V286.896H153.98V287.988Z" fill="#464E41"/>
<path d="M314.084 286.32L311.774 288.896H316.38V289.988H309.45L312.824 286.11C313.561 285.26 314.07 284.57 314.35 284.038C314.639 283.506 314.784 283.006 314.784 282.54C314.784 281.998 314.616 281.574 314.28 281.266C313.944 280.948 313.482 280.79 312.894 280.79C312.418 280.79 311.918 280.916 311.396 281.168C310.873 281.42 310.411 281.746 310.01 282.148V280.832C310.402 280.449 310.868 280.15 311.41 279.936C311.951 279.712 312.497 279.6 313.048 279.6C313.962 279.6 314.695 279.861 315.246 280.384C315.796 280.897 316.072 281.574 316.072 282.414C316.072 283.002 315.927 283.59 315.638 284.178C315.348 284.766 314.83 285.48 314.084 286.32ZM317.394 284.878C317.394 283.347 317.763 282.087 318.5 281.098C319.247 280.099 320.189 279.6 321.328 279.6C322.476 279.6 323.419 280.099 324.156 281.098C324.903 282.087 325.276 283.347 325.276 284.878C325.276 286.408 324.903 287.673 324.156 288.672C323.419 289.661 322.476 290.156 321.328 290.156C320.189 290.156 319.247 289.661 318.5 288.672C317.763 287.673 317.394 286.408 317.394 284.878ZM324.002 284.878C324.002 283.692 323.75 282.712 323.246 281.938C322.751 281.154 322.112 280.762 321.328 280.762C320.553 280.762 319.914 281.154 319.41 281.938C318.915 282.712 318.668 283.692 318.668 284.878C318.668 286.063 318.915 287.048 319.41 287.832C319.914 288.606 320.553 288.994 321.328 288.994C322.112 288.994 322.751 288.606 323.246 287.832C323.75 287.048 324.002 286.063 324.002 284.878ZM329.548 284.878C329.548 283.422 330.052 282.18 331.06 281.154C332.077 280.118 333.3 279.6 334.728 279.6C336.156 279.6 337.374 280.118 338.382 281.154C339.399 282.18 339.908 283.422 339.908 284.878C339.908 286.334 339.399 287.58 338.382 288.616C337.374 289.642 336.156 290.156 334.728 290.156C333.3 290.156 332.077 289.642 331.06 288.616C330.052 287.58 329.548 286.334 329.548 284.878ZM338.62 284.878C338.62 283.739 338.242 282.778 337.486 281.994C336.73 281.2 335.811 280.804 334.728 280.804C333.645 280.804 332.726 281.2 331.97 281.994C331.214 282.778 330.836 283.739 330.836 284.878C330.836 286.016 331.214 286.982 331.97 287.776C332.726 288.56 333.645 288.952 334.728 288.952C335.811 288.952 336.73 288.56 337.486 287.776C338.242 286.982 338.62 286.016 338.62 284.878ZM342.278 286.446C342.278 287.174 342.53 287.79 343.034 288.294C343.538 288.798 344.145 289.05 344.854 289.05C345.209 289.05 345.536 288.994 345.834 288.882C346.142 288.76 346.422 288.578 346.674 288.336V289.61C346.413 289.787 346.119 289.922 345.792 290.016C345.466 290.109 345.134 290.156 344.798 290.156C343.772 290.156 342.894 289.796 342.166 289.078C341.438 288.35 341.074 287.472 341.074 286.446C341.074 285.41 341.438 284.532 342.166 283.814C342.894 283.086 343.772 282.722 344.798 282.722C345.144 282.722 345.475 282.773 345.792 282.876C346.119 282.969 346.413 283.104 346.674 283.282V284.542C346.422 284.308 346.147 284.136 345.848 284.024C345.55 283.902 345.218 283.842 344.854 283.842C344.145 283.842 343.538 284.094 343.034 284.598C342.53 285.102 342.278 285.718 342.278 286.446ZM350.066 283.926V287.692C350.066 288.121 350.173 288.457 350.388 288.7C350.612 288.942 350.92 289.064 351.312 289.064C351.545 289.064 351.76 289.031 351.956 288.966C352.161 288.891 352.352 288.784 352.53 288.644V289.792C352.343 289.904 352.124 289.992 351.872 290.058C351.62 290.123 351.363 290.156 351.102 290.156C350.392 290.156 349.832 289.946 349.422 289.526C349.011 289.106 348.806 288.532 348.806 287.804V283.926H347.574V282.89H348.806V280.986L350.066 280.538V282.89H352.166V283.926H350.066ZM355.986 288.714L354.488 291.836L353.662 291.584L354.572 288.252L355.986 288.714ZM364.478 286.32L362.168 288.896H366.774V289.988H359.844L363.218 286.11C363.955 285.26 364.464 284.57 364.744 284.038C365.033 283.506 365.178 283.006 365.178 282.54C365.178 281.998 365.01 281.574 364.674 281.266C364.338 280.948 363.876 280.79 363.288 280.79C362.812 280.79 362.313 280.916 361.79 281.168C361.267 281.42 360.805 281.746 360.404 282.148V280.832C360.796 280.449 361.263 280.15 361.804 279.936C362.345 279.712 362.891 279.6 363.442 279.6C364.357 279.6 365.089 279.861 365.64 280.384C366.191 280.897 366.466 281.574 366.466 282.414C366.466 283.002 366.321 283.59 366.032 284.178C365.743 284.766 365.225 285.48 364.478 286.32ZM367.789 284.878C367.789 283.347 368.157 282.087 368.895 281.098C369.641 280.099 370.584 279.6 371.723 279.6C372.871 279.6 373.813 280.099 374.551 281.098C375.297 282.087 375.671 283.347 375.671 284.878C375.671 286.408 375.297 287.673 374.551 288.672C373.813 289.661 372.871 290.156 371.723 290.156C370.584 290.156 369.641 289.661 368.895 288.672C368.157 287.673 367.789 286.408 367.789 284.878ZM374.397 284.878C374.397 283.692 374.145 282.712 373.641 281.938C373.146 281.154 372.507 280.762 371.723 280.762C370.948 280.762 370.309 281.154 369.805 281.938C369.31 282.712 369.063 283.692 369.063 284.878C369.063 286.063 369.31 287.048 369.805 287.832C370.309 288.606 370.948 288.994 371.723 288.994C372.507 288.994 373.146 288.606 373.641 287.832C374.145 287.048 374.397 286.063 374.397 284.878ZM380.72 286.32L378.41 288.896H383.016V289.988H376.086L379.46 286.11C380.198 285.26 380.706 284.57 380.986 284.038C381.276 283.506 381.42 283.006 381.42 282.54C381.42 281.998 381.252 281.574 380.916 281.266C380.58 280.948 380.118 280.79 379.53 280.79C379.054 280.79 378.555 280.916 378.032 281.168C377.51 281.42 377.048 281.746 376.646 282.148V280.832C377.038 280.449 377.505 280.15 378.046 279.936C378.588 279.712 379.134 279.6 379.684 279.6C380.599 279.6 381.332 279.861 381.882 280.384C382.433 280.897 382.708 281.574 382.708 282.414C382.708 283.002 382.564 283.59 382.274 284.178C381.985 284.766 381.467 285.48 380.72 286.32ZM388.026 279.768H389.328L385.24 286.432H388.558V283.982H389.734V286.432H391.582V287.454H389.734V289.988H388.558V287.454H383.35L388.026 279.768Z" fill="#222222"/>
<path opacity="0.4" d="M127.976 312.886V313.978H124.532V323.106H123.23V313.978H119.786V312.886H127.976ZM129.474 323.106V312.886H130.762V323.106H129.474ZM135.166 312.522L138.89 320.6L142.6 312.522L145.428 323.106H144.098L142.306 316.148L138.89 323.4L135.46 316.148L133.668 323.106H132.352L135.166 312.522ZM153.118 323.106H147.028V312.886H153.076V313.978H148.302V317.352H152.684V318.444H148.302V322.014H153.118V323.106Z" fill="#464E41"/>
<path d="M330.08 319.996C330.08 318.465 330.448 317.205 331.186 316.216C331.932 315.217 332.875 314.718 334.014 314.718C335.162 314.718 336.104 315.217 336.842 316.216C337.588 317.205 337.962 318.465 337.962 319.996C337.962 321.526 337.588 322.791 336.842 323.79C336.104 324.779 335.162 325.274 334.014 325.274C332.875 325.274 331.932 324.779 331.186 323.79C330.448 322.791 330.08 321.526 330.08 319.996ZM336.688 319.996C336.688 318.81 336.436 317.83 335.932 317.056C335.437 316.272 334.798 315.88 334.014 315.88C333.239 315.88 332.6 316.272 332.096 317.056C331.601 317.83 331.354 318.81 331.354 319.996C331.354 321.181 331.601 322.166 332.096 322.95C332.6 323.724 333.239 324.112 334.014 324.112C334.798 324.112 335.437 323.724 335.932 322.95C336.436 322.166 336.688 321.181 336.688 319.996ZM342.477 321.788C341.516 321.788 340.704 321.452 340.041 320.78C339.378 320.098 339.047 319.268 339.047 318.288C339.047 317.289 339.388 316.444 340.069 315.754C340.76 315.063 341.6 314.718 342.589 314.718C343.578 314.718 344.414 315.063 345.095 315.754C345.786 316.444 346.131 317.289 346.131 318.288C346.131 318.689 346.07 319.076 345.949 319.45C345.828 319.823 345.632 320.243 345.361 320.71L342.743 325.106H341.399L343.485 321.578C343.317 321.643 343.149 321.694 342.981 321.732C342.813 321.769 342.645 321.788 342.477 321.788ZM340.237 318.288C340.237 318.978 340.461 319.562 340.909 320.038C341.366 320.504 341.926 320.738 342.589 320.738C343.252 320.738 343.812 320.504 344.269 320.038C344.726 319.562 344.955 318.978 344.955 318.288C344.955 317.597 344.726 317.018 344.269 316.552C343.812 316.076 343.252 315.838 342.589 315.838C341.926 315.838 341.366 316.076 340.909 316.552C340.461 317.018 340.237 317.597 340.237 318.288ZM348.386 316.538H348.4C348.652 316.538 348.862 316.622 349.03 316.79C349.207 316.958 349.296 317.168 349.296 317.42C349.296 317.672 349.207 317.882 349.03 318.05C348.862 318.218 348.652 318.302 348.4 318.302H348.386C348.134 318.302 347.919 318.218 347.742 318.05C347.574 317.882 347.49 317.672 347.49 317.42C347.49 317.168 347.574 316.958 347.742 316.79C347.919 316.622 348.134 316.538 348.386 316.538ZM348.386 321.69H348.4C348.652 321.69 348.862 321.774 349.03 321.942C349.207 322.11 349.296 322.32 349.296 322.572C349.296 322.824 349.207 323.034 349.03 323.202C348.862 323.37 348.652 323.454 348.4 323.454H348.386C348.134 323.454 347.919 323.37 347.742 323.202C347.574 323.034 347.49 322.824 347.49 322.572C347.49 322.32 347.574 322.11 347.742 321.942C347.919 321.774 348.134 321.69 348.386 321.69ZM350.724 319.996C350.724 318.465 351.093 317.205 351.83 316.216C352.577 315.217 353.519 314.718 354.658 314.718C355.806 314.718 356.749 315.217 357.486 316.216C358.233 317.205 358.606 318.465 358.606 319.996C358.606 321.526 358.233 322.791 357.486 323.79C356.749 324.779 355.806 325.274 354.658 325.274C353.519 325.274 352.577 324.779 351.83 323.79C351.093 322.791 350.724 321.526 350.724 319.996ZM357.332 319.996C357.332 318.81 357.08 317.83 356.576 317.056C356.081 316.272 355.442 315.88 354.658 315.88C353.883 315.88 353.244 316.272 352.74 317.056C352.245 317.83 351.998 318.81 351.998 319.996C351.998 321.181 352.245 322.166 352.74 322.95C353.244 323.724 353.883 324.112 354.658 324.112C355.442 324.112 356.081 323.724 356.576 322.95C357.08 322.166 357.332 321.181 357.332 319.996ZM359.748 319.996C359.748 318.465 360.116 317.205 360.854 316.216C361.6 315.217 362.543 314.718 363.682 314.718C364.83 314.718 365.772 315.217 366.51 316.216C367.256 317.205 367.63 318.465 367.63 319.996C367.63 321.526 367.256 322.791 366.51 323.79C365.772 324.779 364.83 325.274 363.682 325.274C362.543 325.274 361.6 324.779 360.854 323.79C360.116 322.791 359.748 321.526 359.748 319.996ZM366.356 319.996C366.356 318.81 366.104 317.83 365.6 317.056C365.105 316.272 364.466 315.88 363.682 315.88C362.907 315.88 362.268 316.272 361.764 317.056C361.269 317.83 361.022 318.81 361.022 319.996C361.022 321.181 361.269 322.166 361.764 322.95C362.268 323.724 362.907 324.112 363.682 324.112C364.466 324.112 365.105 323.724 365.6 322.95C366.104 322.166 366.356 321.181 366.356 319.996ZM378.748 317.882C378.748 318.796 378.412 319.524 377.74 320.066C377.077 320.607 376.19 320.878 375.08 320.878H373.848V325.106H372.56V314.886H375.08C376.19 314.886 377.077 315.156 377.74 315.698C378.412 316.239 378.748 316.967 378.748 317.882ZM375.066 315.964H373.848V319.786H375.066C375.794 319.786 376.368 319.618 376.788 319.282C377.217 318.946 377.432 318.479 377.432 317.882C377.432 317.284 377.217 316.818 376.788 316.482C376.368 316.136 375.794 315.964 375.066 315.964ZM381.821 314.522L385.545 322.6L389.255 314.522L392.083 325.106H390.753L388.961 318.148L385.545 325.4L382.115 318.148L380.323 325.106H379.007L381.821 314.522Z" fill="#222222"/>
<path opacity="0.4" d="M119.674 397.08L124.616 386.496L129.572 397.08H128.2L126.94 394.294H122.292L121.032 397.08H119.674ZM126.464 393.258L124.616 389.17L122.768 393.258H126.464ZM132.939 386.496L136.663 394.574L140.373 386.496L143.201 397.08H141.871L140.079 390.122L136.663 397.374L133.233 390.122L131.441 397.08H130.125L132.939 386.496ZM143.828 391.97C143.828 390.514 144.332 389.272 145.34 388.246C146.357 387.21 147.58 386.692 149.008 386.692C150.436 386.692 151.654 387.21 152.662 388.246C153.679 389.272 154.188 390.514 154.188 391.97C154.188 393.426 153.679 394.672 152.662 395.708C151.654 396.734 150.436 397.248 149.008 397.248C147.58 397.248 146.357 396.734 145.34 395.708C144.332 394.672 143.828 393.426 143.828 391.97ZM152.9 391.97C152.9 390.831 152.522 389.87 151.766 389.086C151.01 388.292 150.091 387.896 149.008 387.896C147.925 387.896 147.006 388.292 146.25 389.086C145.494 389.87 145.116 390.831 145.116 391.97C145.116 393.108 145.494 394.074 146.25 394.868C147.006 395.652 147.925 396.044 149.008 396.044C150.091 396.044 151.01 395.652 151.766 394.868C152.522 394.074 152.9 393.108 152.9 391.97ZM157.034 386.86V393.076C157.034 394.009 157.268 394.746 157.734 395.288C158.21 395.829 158.845 396.1 159.638 396.1C160.432 396.1 161.062 395.829 161.528 395.288C162.004 394.746 162.242 394.009 162.242 393.076V386.86H163.53V393.104C163.53 394.345 163.166 395.348 162.438 396.114C161.72 396.87 160.786 397.248 159.638 397.248C158.49 397.248 157.552 396.87 156.824 396.114C156.106 395.348 155.746 394.345 155.746 393.104V386.86H157.034ZM165.746 386.51L173.194 394.35V386.86H174.468V397.43L167.02 389.59V397.08H165.746V386.51ZM184.154 386.86V387.952H180.71V397.08H179.408V387.952H175.964V386.86H184.154Z" fill="#464E41"/>
<path d="M304.534 398.66V396.12C305.174 396.64 305.841 397.06 306.534 397.38C307.241 397.686 307.941 397.88 308.634 397.96V393.52L307.694 393.16C306.627 392.76 305.847 392.266 305.354 391.68C304.874 391.093 304.634 390.38 304.634 389.54C304.634 388.513 305.001 387.64 305.734 386.92C306.467 386.186 307.434 385.733 308.634 385.56V383.96H310.514V385.54C311.127 385.606 311.721 385.76 312.294 386C312.881 386.24 313.381 386.533 313.794 386.88V389.4C313.301 388.946 312.774 388.573 312.214 388.28C311.654 387.986 311.087 387.786 310.514 387.68V391.72L311.174 391.96C312.387 392.4 313.254 392.92 313.774 393.52C314.294 394.12 314.554 394.886 314.554 395.82C314.554 396.886 314.187 397.793 313.454 398.54C312.734 399.273 311.754 399.746 310.514 399.96V401.68H308.634V400.06C307.861 400.02 307.114 399.873 306.394 399.62C305.674 399.366 305.054 399.046 304.534 398.66ZM306.874 389.34C306.874 389.686 306.994 389.986 307.234 390.24C307.474 390.48 307.894 390.72 308.494 390.96L308.634 391.02V387.66C308.074 387.766 307.641 387.966 307.334 388.26C307.027 388.54 306.874 388.9 306.874 389.34ZM312.334 396.06C312.334 395.673 312.214 395.353 311.974 395.1C311.747 394.833 311.321 394.566 310.694 394.3L310.514 394.24V397.86C311.101 397.726 311.547 397.506 311.854 397.2C312.174 396.893 312.334 396.513 312.334 396.06ZM315.331 387.72L321.471 385V400.08H318.771V388.74L315.331 390.36V387.72ZM327.358 397.8L324.798 402.86L323.098 402.38L324.478 396.86L327.358 397.8ZM337.727 387.72H332.727L332.327 390.66C334.073 390.766 335.453 391.246 336.467 392.1C337.48 392.953 337.987 394.1 337.987 395.54C337.987 396.966 337.48 398.12 336.467 399C335.453 399.88 334.147 400.32 332.547 400.32C331.84 400.32 331.147 400.22 330.467 400.02C329.8 399.82 329.24 399.546 328.787 399.2V396.6C329.267 397.04 329.84 397.393 330.507 397.66C331.173 397.926 331.827 398.06 332.467 398.06C333.347 398.06 334.06 397.833 334.607 397.38C335.167 396.926 335.447 396.326 335.447 395.58C335.447 394.62 334.94 393.893 333.927 393.4C332.913 392.893 331.533 392.66 329.787 392.7L330.667 385.48H337.727V387.72ZM348.039 387.72H343.039L342.639 390.66C344.386 390.766 345.766 391.246 346.779 392.1C347.792 392.953 348.299 394.1 348.299 395.54C348.299 396.966 347.792 398.12 346.779 399C345.766 399.88 344.459 400.32 342.859 400.32C342.152 400.32 341.459 400.22 340.779 400.02C340.112 399.82 339.552 399.546 339.099 399.2V396.6C339.579 397.04 340.152 397.393 340.819 397.66C341.486 397.926 342.139 398.06 342.779 398.06C343.659 398.06 344.372 397.833 344.919 397.38C345.479 396.926 345.759 396.326 345.759 395.58C345.759 394.62 345.252 393.893 344.239 393.4C343.226 392.893 341.846 392.66 340.099 392.7L340.979 385.48H348.039V387.72ZM349.633 392.78C349.633 390.593 350.193 388.793 351.313 387.38C352.433 385.953 353.846 385.24 355.553 385.24C357.273 385.24 358.686 385.953 359.793 387.38C360.913 388.793 361.473 390.593 361.473 392.78C361.473 394.966 360.913 396.773 359.793 398.2C358.686 399.613 357.273 400.32 355.553 400.32C353.846 400.32 352.433 399.613 351.313 398.2C350.193 396.773 349.633 394.966 349.633 392.78ZM358.813 392.78C358.813 391.286 358.506 390.06 357.893 389.1C357.293 388.14 356.513 387.66 355.553 387.66C354.593 387.66 353.806 388.146 353.193 389.12C352.593 390.08 352.293 391.3 352.293 392.78C352.293 394.26 352.593 395.486 353.193 396.46C353.806 397.42 354.593 397.9 355.553 397.9C356.513 397.9 357.293 397.42 357.893 396.46C358.506 395.5 358.813 394.273 358.813 392.78ZM364.033 396.84H364.073C364.539 396.84 364.939 397.006 365.273 397.34C365.606 397.66 365.773 398.053 365.773 398.52C365.773 399 365.606 399.406 365.273 399.74C364.953 400.06 364.553 400.22 364.073 400.22H364.033C363.566 400.22 363.166 400.06 362.833 399.74C362.513 399.406 362.353 399 362.353 398.52C362.353 398.053 362.513 397.66 362.833 397.34C363.166 397.006 363.566 396.84 364.033 396.84ZM366.625 392.78C366.625 390.593 367.185 388.793 368.305 387.38C369.425 385.953 370.838 385.24 372.545 385.24C374.265 385.24 375.678 385.953 376.785 387.38C377.905 388.793 378.465 390.593 378.465 392.78C378.465 394.966 377.905 396.773 376.785 398.2C375.678 399.613 374.265 400.32 372.545 400.32C370.838 400.32 369.425 399.613 368.305 398.2C367.185 396.773 366.625 394.966 366.625 392.78ZM375.805 392.78C375.805 391.286 375.498 390.06 374.885 389.1C374.285 388.14 373.505 387.66 372.545 387.66C371.585 387.66 370.798 388.146 370.185 389.12C369.585 390.08 369.285 391.3 369.285 392.78C369.285 394.26 369.585 395.486 370.185 396.46C370.798 397.42 371.585 397.9 372.545 397.9C373.505 397.9 374.285 397.42 374.885 396.46C375.498 395.5 375.805 394.273 375.805 392.78ZM379.926 392.78C379.926 390.593 380.486 388.793 381.606 387.38C382.726 385.953 384.139 385.24 385.846 385.24C387.566 385.24 388.979 385.953 390.086 387.38C391.206 388.793 391.766 390.593 391.766 392.78C391.766 394.966 391.206 396.773 390.086 398.2C388.979 399.613 387.566 400.32 385.846 400.32C384.139 400.32 382.726 399.613 381.606 398.2C380.486 396.773 379.926 394.966 379.926 392.78ZM389.106 392.78C389.106 391.286 388.799 390.06 388.186 389.1C387.586 388.14 386.806 387.66 385.846 387.66C384.886 387.66 384.099 388.146 383.486 389.12C382.886 390.08 382.586 391.3 382.586 392.78C382.586 394.26 382.886 395.486 383.486 396.46C384.099 397.42 384.886 397.9 385.846 397.9C386.806 397.9 387.586 397.42 388.186 396.46C388.799 395.5 389.106 394.273 389.106 392.78Z" fill="#464E41"/>
<path d="M120.006 451.829H392.006V498.829H120.006V451.829Z" stroke="#464E41"/>
<path d="M207.195 481.329H205.643L205.499 479.889C205.222 480.358 204.785 480.758 204.187 481.089C203.59 481.409 202.87 481.569 202.027 481.569C200.481 481.569 199.163 481.036 198.075 479.969C196.987 478.892 196.443 477.452 196.443 475.649C196.443 474.454 196.715 473.398 197.259 472.481C197.814 471.564 198.518 470.881 199.371 470.433C200.225 469.974 201.153 469.745 202.155 469.745C203.467 469.745 204.566 470.07 205.451 470.721C206.347 471.372 206.955 472.198 207.275 473.201L205.467 473.889C205.265 473.206 204.875 472.641 204.299 472.193C203.723 471.745 203.009 471.521 202.155 471.521C201.142 471.521 200.262 471.878 199.515 472.593C198.769 473.308 198.395 474.326 198.395 475.649C198.395 476.961 198.758 477.985 199.483 478.721C200.209 479.446 201.094 479.809 202.139 479.809C203.163 479.809 203.942 479.542 204.475 479.009C205.019 478.465 205.323 477.884 205.387 477.265H201.643V475.585H207.195V481.329ZM210.658 476.577H214.482C214.461 476.086 214.285 475.676 213.954 475.345C213.634 475.014 213.17 474.849 212.562 474.849C212.007 474.849 211.559 475.025 211.218 475.377C210.877 475.718 210.69 476.118 210.658 476.577ZM214.69 478.609L216.258 479.105C216.034 479.82 215.613 480.412 214.994 480.881C214.386 481.34 213.634 481.569 212.738 481.569C211.629 481.569 210.685 481.19 209.906 480.433C209.138 479.676 208.754 478.662 208.754 477.393C208.754 476.198 209.127 475.217 209.874 474.449C210.631 473.681 211.522 473.297 212.546 473.297C213.741 473.297 214.674 473.665 215.346 474.401C216.018 475.126 216.354 476.108 216.354 477.345C216.354 477.676 216.338 477.873 216.306 477.937H210.61C210.631 478.524 210.845 479.009 211.25 479.393C211.666 479.777 212.162 479.969 212.738 479.969C213.741 479.969 214.391 479.516 214.69 478.609ZM220.479 471.153V473.537H222.095V475.185H220.479V478.801C220.479 479.142 220.559 479.393 220.719 479.553C220.879 479.702 221.13 479.777 221.471 479.777C221.685 479.777 221.898 479.756 222.111 479.713V481.249C221.834 481.366 221.455 481.425 220.975 481.425C220.25 481.425 219.679 481.222 219.263 480.817C218.847 480.401 218.639 479.83 218.639 479.105V475.185H217.199V473.537H217.599C217.994 473.537 218.293 473.425 218.495 473.201C218.698 472.977 218.799 472.684 218.799 472.321V471.153H220.479ZM230.02 475.201H232.02C232.628 475.201 233.103 475.046 233.444 474.737C233.796 474.417 233.972 473.99 233.972 473.457C233.972 472.913 233.796 472.481 233.444 472.161C233.103 471.841 232.628 471.681 232.02 471.681H230.02V475.201ZM232.308 476.897H230.02V481.329H228.1V469.985H232.308C233.385 469.985 234.255 470.31 234.916 470.961C235.588 471.612 235.924 472.438 235.924 473.441C235.924 474.454 235.588 475.286 234.916 475.937C234.255 476.577 233.385 476.897 232.308 476.897ZM239.614 479.569H241.63C242.675 479.569 243.534 479.238 244.206 478.577C244.888 477.905 245.23 476.94 245.23 475.681C245.23 474.412 244.894 473.441 244.222 472.769C243.55 472.086 242.691 471.745 241.646 471.745H239.614V479.569ZM241.694 481.329H237.694V469.985H241.71C243.31 469.985 244.627 470.492 245.662 471.505C246.707 472.518 247.23 473.91 247.23 475.681C247.23 477.441 246.707 478.822 245.662 479.825C244.616 480.828 243.294 481.329 241.694 481.329ZM251.161 481.329H249.241V469.985H256.297V471.793H251.161V474.977H255.769V476.753H251.161V481.329ZM267.844 481.329L265.46 476.849H264.052V481.329H262.116V469.985H266.468C267.534 469.985 268.393 470.316 269.044 470.977C269.694 471.628 270.02 472.444 270.02 473.425C270.02 474.236 269.79 474.929 269.332 475.505C268.873 476.081 268.249 476.465 267.46 476.657L270.02 481.329H267.844ZM264.052 475.153H266.116C266.702 475.153 267.172 474.998 267.524 474.689C267.886 474.369 268.068 473.948 268.068 473.425C268.068 472.892 267.886 472.47 267.524 472.161C267.172 471.841 266.702 471.681 266.116 471.681H264.052V475.153ZM272.939 476.577H276.763C276.742 476.086 276.566 475.676 276.235 475.345C275.915 475.014 275.451 474.849 274.843 474.849C274.288 474.849 273.84 475.025 273.499 475.377C273.158 475.718 272.971 476.118 272.939 476.577ZM276.971 478.609L278.539 479.105C278.315 479.82 277.894 480.412 277.275 480.881C276.667 481.34 275.915 481.569 275.019 481.569C273.91 481.569 272.966 481.19 272.187 480.433C271.419 479.676 271.035 478.662 271.035 477.393C271.035 476.198 271.408 475.217 272.155 474.449C272.912 473.681 273.803 473.297 274.827 473.297C276.022 473.297 276.955 473.665 277.627 474.401C278.299 475.126 278.635 476.108 278.635 477.345C278.635 477.676 278.619 477.873 278.587 477.937H272.891C272.912 478.524 273.126 479.009 273.531 479.393C273.947 479.777 274.443 479.969 275.019 479.969C276.022 479.969 276.672 479.516 276.971 478.609ZM283.801 475.009C283.203 475.009 282.697 475.228 282.281 475.665C281.865 476.092 281.657 476.678 281.657 477.425C281.657 478.182 281.865 478.78 282.281 479.217C282.707 479.654 283.225 479.873 283.833 479.873C284.377 479.873 284.809 479.729 285.129 479.441C285.459 479.142 285.678 478.806 285.785 478.433L287.417 479.025C287.203 479.718 286.787 480.316 286.169 480.817C285.561 481.318 284.782 481.569 283.833 481.569C282.691 481.569 281.731 481.174 280.953 480.385C280.185 479.596 279.801 478.609 279.801 477.425C279.801 476.23 280.179 475.244 280.937 474.465C281.705 473.686 282.654 473.297 283.785 473.297C284.755 473.297 285.545 473.548 286.153 474.049C286.771 474.55 287.171 475.153 287.353 475.857L285.689 476.465C285.582 476.06 285.374 475.718 285.065 475.441C284.766 475.153 284.345 475.009 283.801 475.009ZM290.283 476.577H294.107C294.086 476.086 293.91 475.676 293.579 475.345C293.259 475.014 292.795 474.849 292.187 474.849C291.632 474.849 291.184 475.025 290.843 475.377C290.502 475.718 290.315 476.118 290.283 476.577ZM294.315 478.609L295.883 479.105C295.659 479.82 295.238 480.412 294.619 480.881C294.011 481.34 293.259 481.569 292.363 481.569C291.254 481.569 290.31 481.19 289.531 480.433C288.763 479.676 288.379 478.662 288.379 477.393C288.379 476.198 288.752 475.217 289.499 474.449C290.256 473.681 291.147 473.297 292.171 473.297C293.366 473.297 294.299 473.665 294.971 474.401C295.643 475.126 295.979 476.108 295.979 477.345C295.979 477.676 295.963 477.873 295.931 477.937H290.235C290.256 478.524 290.47 479.009 290.875 479.393C291.291 479.777 291.787 479.969 292.363 479.969C293.366 479.969 294.016 479.516 294.315 478.609ZM299.592 481.329H297.752V473.537H299.592V481.329ZM297.816 471.649C297.582 471.414 297.464 471.132 297.464 470.801C297.464 470.47 297.582 470.188 297.816 469.953C298.051 469.708 298.334 469.585 298.664 469.585C299.006 469.585 299.294 469.702 299.528 469.937C299.763 470.172 299.88 470.46 299.88 470.801C299.88 471.132 299.763 471.414 299.528 471.649C299.294 471.884 299.006 472.001 298.664 472.001C298.334 472.001 298.051 471.884 297.816 471.649ZM303.827 484.369H301.987V473.537H303.779V474.593C303.982 474.241 304.302 473.948 304.739 473.713C305.176 473.478 305.683 473.361 306.259 473.361C307.379 473.361 308.259 473.745 308.899 474.513C309.539 475.27 309.859 476.241 309.859 477.425C309.859 478.609 309.523 479.59 308.851 480.369C308.179 481.137 307.294 481.521 306.195 481.521C305.662 481.521 305.187 481.42 304.771 481.217C304.355 481.014 304.04 480.758 303.827 480.449V484.369ZM308.003 477.425C308.003 476.7 307.811 476.118 307.427 475.681C307.043 475.233 306.536 475.009 305.907 475.009C305.288 475.009 304.782 475.233 304.387 475.681C304.003 476.118 303.811 476.7 303.811 477.425C303.811 478.161 304.003 478.753 304.387 479.201C304.782 479.649 305.288 479.873 305.907 479.873C306.526 479.873 307.027 479.649 307.411 479.201C307.806 478.753 308.003 478.161 308.003 477.425ZM313.948 471.153V473.537H315.564V475.185H313.948V478.801C313.948 479.142 314.028 479.393 314.188 479.553C314.348 479.702 314.599 479.777 314.94 479.777C315.154 479.777 315.367 479.756 315.58 479.713V481.249C315.303 481.366 314.924 481.425 314.444 481.425C313.719 481.425 313.148 481.222 312.732 480.817C312.316 480.401 312.108 479.83 312.108 479.105V475.185H310.668V473.537H311.068C311.463 473.537 311.762 473.425 311.964 473.201C312.167 472.977 312.268 472.684 312.268 472.321V471.153H313.948Z" fill="#464E41"/>
</svg>
