<svg width="354" height="392" viewBox="0 0 354 392" fill="none" xmlns="http://www.w3.org/2000/svg">
<rect x="19" width="327" height="392" fill="#BFC3B0"/>
<g filter="url(#filter0_d_14_2692)">
<rect x="47" y="55" width="260" height="66" rx="6" fill="#151515"/>
</g>
<rect x="42" y="48" width="271" height="77" rx="8" fill="#F7F6F1"/>
<path d="M42 56C42 51.5817 45.5817 48 50 48H112V125H50C45.5817 125 42 121.418 42 117V56Z" fill="#222222"/>
<path fill-rule="evenodd" clip-rule="evenodd" d="M63.2399 76.2272C63.2399 76.547 63.4996 76.8159 63.8286 76.8159L72.4335 76.8159C72.7533 76.8159 73.0212 76.5562 73.0212 76.2272L73.0212 67.5877C73.0212 67.2678 72.7615 66.9999 72.4335 66.9999L63.8286 66.9999C63.5078 66.9999 63.2399 67.2597 63.2399 67.5877L63.2399 76.2272Z" fill="white"/>
<path fill-rule="evenodd" clip-rule="evenodd" d="M72.4253 86.389C72.4253 86.7099 72.685 86.9778 73.013 86.9778L82.6212 86.9778C82.941 86.9778 83.2089 86.718 83.2089 86.389L83.2089 76.8073C83.2089 76.4875 82.9502 76.2196 82.6212 76.2196L73.013 76.2196C72.6931 76.2196 72.4253 76.4783 72.4253 76.8073L72.4253 86.389Z" fill="white"/>
<path fill-rule="evenodd" clip-rule="evenodd" d="M82.5704 96.5261C82.5704 96.8459 82.8292 97.1138 83.1582 97.1138L92.7664 97.1138C93.0862 97.1138 93.3541 96.854 93.3541 96.5261L93.3541 86.9179C93.3541 86.598 93.0943 86.3301 92.7664 86.3301L83.1582 86.3301C82.8383 86.3301 82.5704 86.5889 82.5704 86.9179L82.5704 96.5261Z" fill="white"/>
<path fill-rule="evenodd" clip-rule="evenodd" d="M72.4253 106.514C72.4253 106.835 72.685 107.103 73.013 107.103L82.6212 107.103C82.941 107.103 83.2089 106.843 83.2089 106.514L83.2089 96.9069C83.2089 96.586 82.9502 96.3181 82.6212 96.3181L73.013 96.3181C72.6931 96.3181 72.4253 96.5779 72.4253 96.9069L72.4253 106.514Z" fill="white"/>
<path fill-rule="evenodd" clip-rule="evenodd" d="M64.8482 95.3405C64.8482 95.6603 65.108 95.9282 65.4359 95.9282L71.256 95.9282C71.5759 95.9282 71.8448 95.6685 71.8448 95.3405L71.8448 89.5204C71.8448 89.1996 71.585 88.9317 71.256 88.9317L65.4359 88.9317C65.1161 88.9317 64.8482 89.1914 64.8482 89.5204L64.8482 95.3405Z" fill="white"/>
<path fill-rule="evenodd" clip-rule="evenodd" d="M61 99.1891C61 99.509 61.2597 99.7778 61.5887 99.7778L64.2605 99.7778C64.5803 99.7778 64.8492 99.5181 64.8492 99.1891L64.8492 96.5174C64.8492 96.1976 64.5895 95.9287 64.2605 95.9287L61.5887 95.9287C61.2689 95.9287 61 96.1884 61 96.5174L61 99.1891Z" fill="white"/>
<g filter="url(#filter1_d_14_2692)">
<rect x="47" y="156" width="260" height="167" rx="6" fill="#151515"/>
</g>
<path d="M42 158.95C42 154.007 46.0294 150 51 150L303 150C307.971 150 312 154.007 312 158.95L312 320.05C312 324.993 307.971 329 303 329L51 329C46.0294 329 42 324.993 42 320.05L42 158.95Z" fill="url(#paint0_linear_14_2692)"/>
<path d="M109.802 213.348C111.047 214.593 111.747 216.282 111.747 218.043C111.747 219.805 111.047 221.493 109.802 222.738" stroke="#ECEDEB" stroke-width="1.5" stroke-linecap="round"/>
<path d="M107.454 215.695C108.077 216.318 108.427 217.163 108.427 218.043C108.427 218.923 108.077 219.768 107.454 220.391" stroke="#ECEDEB" stroke-width="1.5" stroke-linecap="round"/>
<path d="M104 218.042C104 218.654 104.495 219.149 105.107 219.149C105.718 219.149 106.213 218.654 106.213 218.042C106.213 217.431 105.718 216.936 105.107 216.936C104.495 216.936 104 217.431 104 218.042Z" fill="#ECEDEB"/>
<path d="M112.149 211C114.017 212.868 115.067 215.401 115.067 218.043C115.067 220.684 114.017 223.218 112.149 225.086" stroke="#ECEDEB" stroke-width="1.5" stroke-linecap="round"/>
<path d="M64.5361 269H62.8198V257.682L59.2852 259.027V257.459L64.397 255.492H64.5361V269ZM79.6655 269H70.8149V267.766L75.2402 262.849C75.6361 262.41 75.967 262.02 76.2329 261.68C76.4989 261.34 76.7122 261.025 76.873 260.734C77.0339 260.449 77.1483 260.18 77.2163 259.927C77.2843 259.667 77.3184 259.401 77.3184 259.129C77.3184 258.795 77.2627 258.483 77.1514 258.192C77.0462 257.895 76.8916 257.638 76.6875 257.422C76.4772 257.205 76.2236 257.035 75.9268 256.912C75.6361 256.782 75.3052 256.717 74.9341 256.717C74.4826 256.717 74.0898 256.782 73.7559 256.912C73.4281 257.042 73.1559 257.224 72.9395 257.459C72.7168 257.7 72.5498 257.991 72.4385 258.331C72.3333 258.671 72.2808 259.052 72.2808 259.472H70.5552C70.5552 258.903 70.6541 258.368 70.8521 257.867C71.05 257.36 71.3376 256.918 71.7148 256.541C72.0859 256.163 72.5405 255.863 73.0786 255.641C73.6229 255.418 74.2414 255.307 74.9341 255.307C75.5711 255.307 76.1432 255.403 76.6504 255.594C77.1637 255.78 77.5967 256.04 77.9492 256.374C78.3018 256.708 78.5708 257.103 78.7563 257.561C78.9481 258.019 79.0439 258.517 79.0439 259.055C79.0439 259.457 78.9759 259.856 78.8398 260.251C78.7038 260.641 78.5213 261.028 78.2925 261.411C78.0575 261.795 77.7853 262.175 77.4761 262.552C77.173 262.923 76.8514 263.294 76.5112 263.666L72.8838 267.599H79.6655V269ZM85.7959 261.42H87.0205C87.4535 261.42 87.8338 261.362 88.1616 261.244C88.4956 261.127 88.777 260.966 89.0059 260.762C89.2285 260.558 89.3986 260.313 89.5161 260.029C89.6336 259.744 89.6924 259.432 89.6924 259.092C89.6924 258.69 89.6398 258.34 89.5347 258.043C89.4295 257.74 89.2749 257.49 89.0708 257.292C88.8729 257.1 88.6255 256.958 88.3286 256.865C88.0379 256.766 87.7039 256.717 87.3267 256.717C86.9618 256.717 86.6278 256.772 86.3247 256.884C86.0278 256.989 85.7743 257.144 85.564 257.348C85.3475 257.552 85.1805 257.796 85.063 258.081C84.9455 258.365 84.8867 258.684 84.8867 259.036H83.1611C83.1611 258.523 83.2601 258.04 83.458 257.589C83.6621 257.131 83.9466 256.732 84.3115 256.392C84.6764 256.058 85.1125 255.795 85.6196 255.604C86.133 255.406 86.702 255.307 87.3267 255.307C87.9328 255.307 88.4863 255.39 88.9873 255.557C89.4883 255.718 89.9181 255.959 90.2769 256.281C90.6356 256.602 90.9139 257.001 91.1118 257.478C91.3097 257.954 91.4087 258.504 91.4087 259.129C91.4087 259.389 91.3685 259.658 91.2881 259.936C91.2077 260.214 91.084 260.483 90.917 260.743C90.75 261.009 90.5335 261.26 90.2676 261.495C90.0078 261.723 89.6955 261.915 89.3306 262.07C89.7697 262.212 90.1346 262.398 90.4253 262.626C90.7222 262.855 90.9603 263.112 91.1396 263.396C91.3128 263.681 91.4334 263.981 91.5015 264.296C91.5757 264.612 91.6128 264.924 91.6128 265.233C91.6128 265.864 91.5046 266.424 91.2881 266.913C91.0716 267.401 90.7716 267.812 90.3882 268.146C90.0047 268.487 89.5501 268.746 89.0244 268.926C88.5049 269.099 87.9421 269.186 87.3359 269.186C86.7422 269.186 86.1825 269.102 85.6567 268.935C85.1372 268.768 84.6857 268.524 84.3022 268.202C83.9188 267.881 83.6126 267.488 83.3838 267.024C83.1611 266.56 83.0498 266.031 83.0498 265.438H84.7661C84.7661 265.79 84.8249 266.112 84.9424 266.402C85.0661 266.693 85.2393 266.94 85.4619 267.145C85.6846 267.349 85.9536 267.506 86.269 267.618C86.5907 267.729 86.9463 267.785 87.3359 267.785C87.7256 267.785 88.0781 267.735 88.3936 267.636C88.709 267.531 88.978 267.373 89.2007 267.163C89.4233 266.953 89.5934 266.693 89.7109 266.384C89.8346 266.068 89.8965 265.697 89.8965 265.271C89.8965 264.85 89.8254 264.488 89.6831 264.185C89.547 263.876 89.3553 263.619 89.1079 263.415C88.8543 263.211 88.5482 263.059 88.1895 262.96C87.8369 262.861 87.4473 262.812 87.0205 262.812H85.7959V261.42ZM103.161 264.463H105.044V265.864H103.161V269H101.445V265.864H95.2847V264.853L101.333 255.492H103.161V264.463ZM97.1865 264.463H101.445V257.774L101.167 258.294L97.1865 264.463Z" fill="#ECEDEB"/>
<path d="M121.582 262.228L122.259 255.492H129.189V257.162H123.707L123.326 260.762C123.592 260.607 123.911 260.471 124.282 260.354C124.653 260.236 125.083 260.177 125.571 260.177C126.196 260.177 126.756 260.285 127.25 260.502C127.745 260.718 128.166 261.021 128.512 261.411C128.859 261.807 129.125 262.283 129.31 262.84C129.496 263.396 129.588 264.015 129.588 264.695C129.588 265.339 129.502 265.935 129.329 266.486C129.155 267.036 128.896 267.509 128.549 267.905C128.197 268.307 127.755 268.623 127.223 268.852C126.691 269.074 126.066 269.186 125.349 269.186C124.798 269.186 124.279 269.108 123.79 268.954C123.301 268.799 122.868 268.567 122.491 268.258C122.108 267.949 121.792 267.559 121.545 267.089C121.304 266.619 121.152 266.071 121.09 265.447H122.723C122.828 266.214 123.11 266.795 123.567 267.191C124.031 267.587 124.625 267.785 125.349 267.785C125.757 267.785 126.119 267.714 126.434 267.571C126.75 267.423 127.015 267.213 127.232 266.94C127.442 266.674 127.6 266.353 127.705 265.976C127.816 265.598 127.872 265.178 127.872 264.714C127.872 264.293 127.81 263.901 127.687 263.536C127.569 263.171 127.396 262.852 127.167 262.58C126.938 262.314 126.657 262.104 126.323 261.949C125.989 261.795 125.605 261.717 125.172 261.717C124.888 261.717 124.64 261.739 124.43 261.782C124.226 261.819 124.041 261.875 123.874 261.949C123.707 262.023 123.549 262.113 123.4 262.218C123.258 262.323 123.11 262.444 122.955 262.58L121.582 262.228ZM139.708 255.483V257.023H139.56C138.743 257.023 138.05 257.14 137.481 257.375C136.912 257.604 136.442 257.914 136.071 258.303C135.682 258.711 135.385 259.197 135.181 259.76C134.983 260.323 134.865 260.901 134.828 261.495C134.989 261.303 135.174 261.127 135.385 260.966C135.595 260.799 135.824 260.653 136.071 260.53C136.312 260.412 136.572 260.319 136.851 260.251C137.135 260.177 137.432 260.14 137.741 260.14C138.415 260.14 138.997 260.27 139.485 260.53C139.974 260.783 140.376 261.12 140.691 261.541C141.007 261.962 141.239 262.438 141.387 262.97C141.536 263.502 141.61 264.043 141.61 264.593C141.61 265.224 141.52 265.818 141.341 266.375C141.168 266.931 140.905 267.417 140.552 267.831C140.2 268.252 139.761 268.583 139.235 268.824C138.715 269.065 138.112 269.186 137.426 269.186C136.733 269.186 136.124 269.046 135.598 268.768C135.072 268.49 134.63 268.128 134.271 267.683C133.869 267.194 133.569 266.625 133.372 265.976C133.174 265.32 133.075 264.664 133.075 264.009V263.202C133.075 262.076 133.208 260.969 133.474 259.88C133.74 258.792 134.259 257.861 135.032 257.088C135.564 256.556 136.21 256.157 136.971 255.891C137.732 255.619 138.595 255.483 139.56 255.483H139.708ZM137.463 261.569C137.172 261.569 136.891 261.615 136.619 261.708C136.347 261.801 136.093 261.931 135.858 262.098C135.623 262.265 135.416 262.466 135.236 262.701C135.057 262.936 134.915 263.195 134.81 263.48V264.055C134.81 264.649 134.881 265.178 135.023 265.642C135.165 266.099 135.357 266.486 135.598 266.801C135.839 267.117 136.118 267.358 136.433 267.525C136.749 267.686 137.079 267.766 137.426 267.766C137.828 267.766 138.183 267.689 138.493 267.534C138.802 267.38 139.065 267.166 139.281 266.894C139.492 266.622 139.649 266.297 139.754 265.92C139.866 265.536 139.921 265.122 139.921 264.677C139.921 264.281 139.872 263.897 139.773 263.526C139.674 263.149 139.522 262.815 139.318 262.524C139.114 262.234 138.858 262.002 138.548 261.829C138.239 261.655 137.877 261.569 137.463 261.569ZM154.346 256.457L148.751 269H146.952L152.527 256.995H145.217V255.492H154.346V256.457ZM166.516 259.018C166.509 259.469 166.423 259.893 166.256 260.289C166.089 260.678 165.857 261.021 165.56 261.318C165.418 261.461 165.26 261.594 165.087 261.717C164.914 261.841 164.728 261.952 164.53 262.051C164.877 262.2 165.189 262.385 165.467 262.608C165.752 262.824 165.996 263.075 166.2 263.359C166.398 263.644 166.55 263.953 166.655 264.287C166.766 264.621 166.822 264.977 166.822 265.354C166.822 265.966 166.707 266.511 166.479 266.987C166.256 267.463 165.953 267.862 165.569 268.184C165.18 268.511 164.725 268.762 164.206 268.935C163.686 269.102 163.129 269.186 162.536 269.186C161.93 269.186 161.364 269.102 160.838 268.935C160.318 268.768 159.867 268.521 159.483 268.193C159.094 267.871 158.788 267.472 158.565 266.996C158.342 266.52 158.231 265.972 158.231 265.354C158.231 264.977 158.284 264.621 158.389 264.287C158.494 263.947 158.645 263.635 158.843 263.35C159.041 263.072 159.279 262.821 159.558 262.599C159.836 262.376 160.148 262.19 160.495 262.042C160.198 261.894 159.929 261.717 159.688 261.513C159.446 261.303 159.242 261.068 159.075 260.808C158.908 260.555 158.778 260.276 158.686 259.973C158.593 259.67 158.546 259.352 158.546 259.018C158.546 258.43 158.645 257.907 158.843 257.45C159.041 256.986 159.316 256.596 159.669 256.281C160.015 255.965 160.43 255.724 160.912 255.557C161.401 255.39 161.933 255.307 162.508 255.307C163.077 255.307 163.606 255.39 164.094 255.557C164.583 255.724 165.007 255.965 165.365 256.281C165.724 256.596 166.005 256.986 166.209 257.45C166.414 257.907 166.516 258.43 166.516 259.018ZM165.105 265.317C165.105 264.94 165.041 264.593 164.911 264.278C164.787 263.962 164.611 263.69 164.382 263.461C164.153 263.239 163.878 263.066 163.556 262.942C163.241 262.818 162.894 262.756 162.517 262.756C162.127 262.756 161.775 262.818 161.459 262.942C161.144 263.066 160.875 263.239 160.652 263.461C160.43 263.69 160.257 263.962 160.133 264.278C160.015 264.593 159.957 264.94 159.957 265.317C159.957 265.707 160.015 266.056 160.133 266.365C160.257 266.668 160.43 266.925 160.652 267.135C160.875 267.346 161.144 267.506 161.459 267.618C161.781 267.729 162.14 267.785 162.536 267.785C162.913 267.785 163.259 267.729 163.575 267.618C163.89 267.506 164.162 267.346 164.391 267.135C164.614 266.925 164.787 266.668 164.911 266.365C165.041 266.056 165.105 265.707 165.105 265.317ZM164.79 259.045C164.79 258.705 164.731 258.393 164.614 258.108C164.502 257.824 164.348 257.576 164.15 257.366C163.946 257.162 163.705 257.004 163.426 256.893C163.148 256.776 162.842 256.717 162.508 256.717C162.174 256.717 161.871 256.772 161.599 256.884C161.326 256.989 161.091 257.144 160.894 257.348C160.696 257.552 160.541 257.799 160.43 258.09C160.325 258.374 160.272 258.693 160.272 259.045C160.272 259.398 160.325 259.716 160.43 260.001C160.541 260.279 160.699 260.517 160.903 260.715C161.101 260.919 161.336 261.077 161.608 261.188C161.886 261.294 162.192 261.346 162.526 261.346C162.854 261.346 163.157 261.294 163.436 261.188C163.714 261.077 163.955 260.919 164.159 260.715C164.357 260.517 164.512 260.276 164.623 259.992C164.734 259.707 164.79 259.392 164.79 259.045Z" fill="#ECEDEB"/>
<path d="M184.816 267.479C185.682 267.479 186.402 267.376 186.978 267.172C187.559 266.962 188.026 266.668 188.378 266.291C188.805 265.827 189.093 265.329 189.241 264.797C189.39 264.265 189.479 263.715 189.51 263.146V263.127C189.362 263.313 189.192 263.489 189 263.656C188.808 263.817 188.592 263.959 188.351 264.083C188.109 264.207 187.84 264.306 187.543 264.38C187.253 264.448 186.934 264.482 186.588 264.482C185.92 264.482 185.342 264.352 184.853 264.092C184.371 263.826 183.972 263.48 183.656 263.053C183.341 262.626 183.109 262.144 182.96 261.606C182.812 261.068 182.738 260.527 182.738 259.982C182.738 259.345 182.824 258.745 182.998 258.183C183.177 257.614 183.443 257.116 183.795 256.689C184.142 256.268 184.575 255.934 185.094 255.687C185.62 255.433 186.229 255.307 186.922 255.307C187.615 255.307 188.215 255.437 188.722 255.696C189.235 255.95 189.665 256.287 190.011 256.708C190.419 257.202 190.726 257.821 190.93 258.563C191.134 259.299 191.236 260.035 191.236 260.771V261.393C191.236 262.438 191.125 263.489 190.902 264.547C190.679 265.598 190.203 266.532 189.473 267.349C189.034 267.843 188.425 268.245 187.646 268.555C186.872 268.858 185.929 269.009 184.816 269.009H184.64V267.479H184.816ZM186.866 263.062C187.157 263.062 187.438 263.016 187.71 262.923C187.989 262.824 188.245 262.685 188.48 262.506C188.709 262.333 188.913 262.129 189.093 261.894C189.278 261.652 189.424 261.386 189.529 261.096V260.539C189.529 259.939 189.458 259.404 189.315 258.934C189.179 258.464 188.994 258.065 188.759 257.737C188.518 257.416 188.239 257.168 187.924 256.995C187.615 256.822 187.284 256.735 186.931 256.735C186.529 256.735 186.174 256.816 185.864 256.977C185.555 257.137 185.295 257.357 185.085 257.635C184.869 257.92 184.705 258.257 184.593 258.646C184.482 259.03 184.426 259.444 184.426 259.89C184.426 260.285 184.476 260.675 184.575 261.059C184.674 261.436 184.825 261.773 185.029 262.07C185.227 262.367 185.478 262.608 185.781 262.793C186.09 262.973 186.452 263.062 186.866 263.062ZM203.86 263.833C203.86 264.692 203.761 265.456 203.563 266.124C203.366 266.786 203.081 267.342 202.71 267.794C202.339 268.252 201.884 268.598 201.346 268.833C200.808 269.068 200.193 269.186 199.5 269.186C198.813 269.186 198.198 269.071 197.654 268.842C197.11 268.607 196.649 268.258 196.271 267.794C195.894 267.342 195.607 266.786 195.409 266.124C195.211 265.456 195.112 264.692 195.112 263.833V260.669C195.112 259.809 195.211 259.049 195.409 258.387C195.607 257.719 195.894 257.156 196.271 256.698C196.643 256.241 197.097 255.894 197.635 255.659C198.18 255.418 198.795 255.297 199.481 255.297C200.174 255.297 200.79 255.418 201.328 255.659C201.872 255.894 202.333 256.241 202.71 256.698C203.081 257.156 203.366 257.719 203.563 258.387C203.761 259.049 203.86 259.809 203.86 260.669V263.833ZM196.837 263.489L202.098 259.454C202.048 259.008 201.959 258.616 201.829 258.275C201.705 257.929 201.535 257.641 201.318 257.413C201.108 257.178 200.848 257.001 200.539 256.884C200.236 256.766 199.883 256.708 199.481 256.708C199.073 256.708 198.711 256.772 198.396 256.902C198.087 257.026 197.824 257.208 197.607 257.45C197.348 257.753 197.153 258.146 197.023 258.628C196.899 259.104 196.837 259.658 196.837 260.289V262.552C196.837 262.707 196.837 262.861 196.837 263.016C196.837 263.171 196.837 263.328 196.837 263.489ZM202.135 264.194V262.283C202.135 262.19 202.135 262.014 202.135 261.754C202.135 261.488 202.135 261.269 202.135 261.096L196.884 265.113C196.939 265.564 197.038 265.963 197.181 266.31C197.323 266.65 197.508 266.931 197.737 267.154C197.948 267.364 198.201 267.525 198.498 267.636C198.795 267.741 199.129 267.794 199.5 267.794C199.89 267.794 200.236 267.735 200.539 267.618C200.842 267.5 201.099 267.33 201.309 267.107C201.594 266.804 201.801 266.409 201.931 265.92C202.067 265.431 202.135 264.856 202.135 264.194ZM216.271 263.833C216.271 264.692 216.173 265.456 215.975 266.124C215.777 266.786 215.492 267.342 215.121 267.794C214.75 268.252 214.295 268.598 213.757 268.833C213.219 269.068 212.604 269.186 211.911 269.186C211.225 269.186 210.609 269.071 210.065 268.842C209.521 268.607 209.06 268.258 208.683 267.794C208.305 267.342 208.018 266.786 207.82 266.124C207.622 265.456 207.523 264.692 207.523 263.833V260.669C207.523 259.809 207.622 259.049 207.82 258.387C208.018 257.719 208.305 257.156 208.683 256.698C209.054 256.241 209.508 255.894 210.046 255.659C210.591 255.418 211.206 255.297 211.893 255.297C212.585 255.297 213.201 255.418 213.739 255.659C214.283 255.894 214.744 256.241 215.121 256.698C215.492 257.156 215.777 257.719 215.975 258.387C216.173 259.049 216.271 259.809 216.271 260.669V263.833ZM209.249 263.489L214.509 259.454C214.459 259.008 214.37 258.616 214.24 258.275C214.116 257.929 213.946 257.641 213.73 257.413C213.519 257.178 213.259 257.001 212.95 256.884C212.647 256.766 212.295 256.708 211.893 256.708C211.484 256.708 211.123 256.772 210.807 256.902C210.498 257.026 210.235 257.208 210.019 257.45C209.759 257.753 209.564 258.146 209.434 258.628C209.31 259.104 209.249 259.658 209.249 260.289V262.552C209.249 262.707 209.249 262.861 209.249 263.016C209.249 263.171 209.249 263.328 209.249 263.489ZM214.546 264.194V262.283C214.546 262.19 214.546 262.014 214.546 261.754C214.546 261.488 214.546 261.269 214.546 261.096L209.295 265.113C209.351 265.564 209.45 265.963 209.592 266.31C209.734 266.65 209.92 266.931 210.148 267.154C210.359 267.364 210.612 267.525 210.909 267.636C211.206 267.741 211.54 267.794 211.911 267.794C212.301 267.794 212.647 267.735 212.95 267.618C213.253 267.5 213.51 267.33 213.72 267.107C214.005 266.804 214.212 266.409 214.342 265.92C214.478 265.431 214.546 264.856 214.546 264.194ZM228.683 263.833C228.683 264.692 228.584 265.456 228.386 266.124C228.188 266.786 227.903 267.342 227.532 267.794C227.161 268.252 226.707 268.598 226.168 268.833C225.63 269.068 225.015 269.186 224.322 269.186C223.636 269.186 223.02 269.071 222.476 268.842C221.932 268.607 221.471 268.258 221.094 267.794C220.716 267.342 220.429 266.786 220.231 266.124C220.033 265.456 219.934 264.692 219.934 263.833V260.669C219.934 259.809 220.033 259.049 220.231 258.387C220.429 257.719 220.716 257.156 221.094 256.698C221.465 256.241 221.919 255.894 222.458 255.659C223.002 255.418 223.617 255.297 224.304 255.297C224.996 255.297 225.612 255.418 226.15 255.659C226.694 255.894 227.155 256.241 227.532 256.698C227.903 257.156 228.188 257.719 228.386 258.387C228.584 259.049 228.683 259.809 228.683 260.669V263.833ZM221.66 263.489L226.92 259.454C226.87 259.008 226.781 258.616 226.651 258.275C226.527 257.929 226.357 257.641 226.141 257.413C225.93 257.178 225.671 257.001 225.361 256.884C225.058 256.766 224.706 256.708 224.304 256.708C223.896 256.708 223.534 256.772 223.218 256.902C222.909 257.026 222.646 257.208 222.43 257.45C222.17 257.753 221.975 258.146 221.845 258.628C221.722 259.104 221.66 259.658 221.66 260.289V262.552C221.66 262.707 221.66 262.861 221.66 263.016C221.66 263.171 221.66 263.328 221.66 263.489ZM226.957 264.194V262.283C226.957 262.19 226.957 262.014 226.957 261.754C226.957 261.488 226.957 261.269 226.957 261.096L221.706 265.113C221.762 265.564 221.861 265.963 222.003 266.31C222.145 266.65 222.331 266.931 222.56 267.154C222.77 267.364 223.023 267.525 223.32 267.636C223.617 267.741 223.951 267.794 224.322 267.794C224.712 267.794 225.058 267.735 225.361 267.618C225.664 267.5 225.921 267.33 226.131 267.107C226.416 266.804 226.623 266.409 226.753 265.92C226.889 265.431 226.957 264.856 226.957 264.194Z" fill="#ECEDEB"/>
<path d="M254.449 263.833C254.449 264.692 254.35 265.456 254.152 266.124C253.954 266.786 253.67 267.342 253.299 267.794C252.928 268.252 252.473 268.598 251.935 268.833C251.397 269.068 250.782 269.186 250.089 269.186C249.402 269.186 248.787 269.071 248.243 268.842C247.698 268.607 247.238 268.258 246.86 267.794C246.483 267.342 246.195 266.786 245.998 266.124C245.8 265.456 245.701 264.692 245.701 263.833V260.669C245.701 259.809 245.8 259.049 245.998 258.387C246.195 257.719 246.483 257.156 246.86 256.698C247.231 256.241 247.686 255.894 248.224 255.659C248.768 255.418 249.384 255.297 250.07 255.297C250.763 255.297 251.378 255.418 251.917 255.659C252.461 255.894 252.922 256.241 253.299 256.698C253.67 257.156 253.954 257.719 254.152 258.387C254.35 259.049 254.449 259.809 254.449 260.669V263.833ZM247.426 263.489L252.687 259.454C252.637 259.008 252.547 258.616 252.417 258.275C252.294 257.929 252.124 257.641 251.907 257.413C251.697 257.178 251.437 257.001 251.128 256.884C250.825 256.766 250.472 256.708 250.07 256.708C249.662 256.708 249.3 256.772 248.985 256.902C248.676 257.026 248.413 257.208 248.196 257.45C247.937 257.753 247.742 258.146 247.612 258.628C247.488 259.104 247.426 259.658 247.426 260.289V262.552C247.426 262.707 247.426 262.861 247.426 263.016C247.426 263.171 247.426 263.328 247.426 263.489ZM252.724 264.194V262.283C252.724 262.19 252.724 262.014 252.724 261.754C252.724 261.488 252.724 261.269 252.724 261.096L247.473 265.113C247.528 265.564 247.627 265.963 247.77 266.31C247.912 266.65 248.097 266.931 248.326 267.154C248.536 267.364 248.79 267.525 249.087 267.636C249.384 267.741 249.718 267.794 250.089 267.794C250.479 267.794 250.825 267.735 251.128 267.618C251.431 267.5 251.688 267.33 251.898 267.107C252.182 266.804 252.39 266.409 252.52 265.92C252.656 265.431 252.724 264.856 252.724 264.194ZM266.86 263.833C266.86 264.692 266.761 265.456 266.563 266.124C266.366 266.786 266.081 267.342 265.71 267.794C265.339 268.252 264.884 268.598 264.346 268.833C263.808 269.068 263.193 269.186 262.5 269.186C261.813 269.186 261.198 269.071 260.654 268.842C260.11 268.607 259.649 268.258 259.271 267.794C258.894 267.342 258.607 266.786 258.409 266.124C258.211 265.456 258.112 264.692 258.112 263.833V260.669C258.112 259.809 258.211 259.049 258.409 258.387C258.607 257.719 258.894 257.156 259.271 256.698C259.643 256.241 260.097 255.894 260.635 255.659C261.18 255.418 261.795 255.297 262.481 255.297C263.174 255.297 263.79 255.418 264.328 255.659C264.872 255.894 265.333 256.241 265.71 256.698C266.081 257.156 266.366 257.719 266.563 258.387C266.761 259.049 266.86 259.809 266.86 260.669V263.833ZM259.837 263.489L265.098 259.454C265.048 259.008 264.959 258.616 264.829 258.275C264.705 257.929 264.535 257.641 264.318 257.413C264.108 257.178 263.848 257.001 263.539 256.884C263.236 256.766 262.883 256.708 262.481 256.708C262.073 256.708 261.711 256.772 261.396 256.902C261.087 257.026 260.824 257.208 260.607 257.45C260.348 257.753 260.153 258.146 260.023 258.628C259.899 259.104 259.837 259.658 259.837 260.289V262.552C259.837 262.707 259.837 262.861 259.837 263.016C259.837 263.171 259.837 263.328 259.837 263.489ZM265.135 264.194V262.283C265.135 262.19 265.135 262.014 265.135 261.754C265.135 261.488 265.135 261.269 265.135 261.096L259.884 265.113C259.939 265.564 260.038 265.963 260.181 266.31C260.323 266.65 260.508 266.931 260.737 267.154C260.948 267.364 261.201 267.525 261.498 267.636C261.795 267.741 262.129 267.794 262.5 267.794C262.89 267.794 263.236 267.735 263.539 267.618C263.842 267.5 264.099 267.33 264.309 267.107C264.594 266.804 264.801 266.409 264.931 265.92C265.067 265.431 265.135 264.856 265.135 264.194ZM279.271 263.833C279.271 264.692 279.173 265.456 278.975 266.124C278.777 266.786 278.492 267.342 278.121 267.794C277.75 268.252 277.295 268.598 276.757 268.833C276.219 269.068 275.604 269.186 274.911 269.186C274.225 269.186 273.609 269.071 273.065 268.842C272.521 268.607 272.06 268.258 271.683 267.794C271.305 267.342 271.018 266.786 270.82 266.124C270.622 265.456 270.523 264.692 270.523 263.833V260.669C270.523 259.809 270.622 259.049 270.82 258.387C271.018 257.719 271.305 257.156 271.683 256.698C272.054 256.241 272.508 255.894 273.046 255.659C273.591 255.418 274.206 255.297 274.893 255.297C275.585 255.297 276.201 255.418 276.739 255.659C277.283 255.894 277.744 256.241 278.121 256.698C278.492 257.156 278.777 257.719 278.975 258.387C279.173 259.049 279.271 259.809 279.271 260.669V263.833ZM272.249 263.489L277.509 259.454C277.459 259.008 277.37 258.616 277.24 258.275C277.116 257.929 276.946 257.641 276.73 257.413C276.519 257.178 276.259 257.001 275.95 256.884C275.647 256.766 275.295 256.708 274.893 256.708C274.484 256.708 274.123 256.772 273.807 256.902C273.498 257.026 273.235 257.208 273.019 257.45C272.759 257.753 272.564 258.146 272.434 258.628C272.31 259.104 272.249 259.658 272.249 260.289V262.552C272.249 262.707 272.249 262.861 272.249 263.016C272.249 263.171 272.249 263.328 272.249 263.489ZM277.546 264.194V262.283C277.546 262.19 277.546 262.014 277.546 261.754C277.546 261.488 277.546 261.269 277.546 261.096L272.295 265.113C272.351 265.564 272.45 265.963 272.592 266.31C272.734 266.65 272.92 266.931 273.148 267.154C273.359 267.364 273.612 267.525 273.909 267.636C274.206 267.741 274.54 267.794 274.911 267.794C275.301 267.794 275.647 267.735 275.95 267.618C276.253 267.5 276.51 267.33 276.72 267.107C277.005 266.804 277.212 266.409 277.342 265.92C277.478 265.431 277.546 264.856 277.546 264.194ZM291.683 263.833C291.683 264.692 291.584 265.456 291.386 266.124C291.188 266.786 290.903 267.342 290.532 267.794C290.161 268.252 289.707 268.598 289.168 268.833C288.63 269.068 288.015 269.186 287.322 269.186C286.636 269.186 286.02 269.071 285.476 268.842C284.932 268.607 284.471 268.258 284.094 267.794C283.716 267.342 283.429 266.786 283.231 266.124C283.033 265.456 282.934 264.692 282.934 263.833V260.669C282.934 259.809 283.033 259.049 283.231 258.387C283.429 257.719 283.716 257.156 284.094 256.698C284.465 256.241 284.919 255.894 285.458 255.659C286.002 255.418 286.617 255.297 287.304 255.297C287.996 255.297 288.612 255.418 289.15 255.659C289.694 255.894 290.155 256.241 290.532 256.698C290.903 257.156 291.188 257.719 291.386 258.387C291.584 259.049 291.683 259.809 291.683 260.669V263.833ZM284.66 263.489L289.92 259.454C289.87 259.008 289.781 258.616 289.651 258.275C289.527 257.929 289.357 257.641 289.141 257.413C288.93 257.178 288.671 257.001 288.361 256.884C288.058 256.766 287.706 256.708 287.304 256.708C286.896 256.708 286.534 256.772 286.218 256.902C285.909 257.026 285.646 257.208 285.43 257.45C285.17 257.753 284.975 258.146 284.845 258.628C284.722 259.104 284.66 259.658 284.66 260.289V262.552C284.66 262.707 284.66 262.861 284.66 263.016C284.66 263.171 284.66 263.328 284.66 263.489ZM289.957 264.194V262.283C289.957 262.19 289.957 262.014 289.957 261.754C289.957 261.488 289.957 261.269 289.957 261.096L284.706 265.113C284.762 265.564 284.861 265.963 285.003 266.31C285.145 266.65 285.331 266.931 285.56 267.154C285.77 267.364 286.023 267.525 286.32 267.636C286.617 267.741 286.951 267.794 287.322 267.794C287.712 267.794 288.058 267.735 288.361 267.618C288.664 267.5 288.921 267.33 289.131 267.107C289.416 266.804 289.623 266.409 289.753 265.92C289.889 265.431 289.957 264.856 289.957 264.194Z" fill="#ECEDEB"/>
<path d="M56.3369 307L56.3369 301.05H57.5439L59.4479 304.892L61.3349 301.05H62.5504L62.5504 307H61.5304L61.5304 302.801L59.8474 306.167H59.0484L57.3569 302.809L57.3569 307H56.3369ZM63.2663 307V302.716H64.2863V307H63.2663ZM63.7763 302.036C63.5893 302.036 63.4335 301.979 63.3088 301.866C63.1898 301.747 63.1303 301.602 63.1303 301.432C63.1303 301.257 63.1898 301.115 63.3088 301.007C63.4335 300.894 63.5893 300.837 63.7763 300.837C63.9633 300.837 64.1163 300.894 64.2353 301.007C64.36 301.115 64.4223 301.257 64.4223 301.432C64.4223 301.602 64.36 301.747 64.2353 301.866C64.1163 301.979 63.9633 302.036 63.7763 302.036ZM66.9965 307.102C66.5772 307.102 66.2003 307.008 65.866 306.821C65.5373 306.629 65.2795 306.365 65.0925 306.031C64.9112 305.691 64.8205 305.306 64.8205 304.875C64.8205 304.427 64.9112 304.036 65.0925 303.702C65.2795 303.362 65.5373 303.096 65.866 302.903C66.2003 302.71 66.58 302.614 67.005 302.614C67.5377 302.614 67.9853 302.756 68.348 303.039C68.7107 303.317 68.943 303.699 69.045 304.186H67.974C67.9173 303.971 67.7983 303.801 67.617 303.676C67.4413 303.552 67.2317 303.489 66.988 303.489C66.7783 303.489 66.5857 303.543 66.41 303.651C66.24 303.759 66.104 303.914 66.002 304.118C65.9057 304.322 65.8575 304.569 65.8575 304.858C65.8575 305.079 65.8858 305.274 65.9425 305.444C65.9992 305.614 66.0785 305.759 66.1805 305.878C66.2882 305.991 66.41 306.079 66.546 306.141C66.682 306.204 66.8293 306.235 66.988 306.235C67.1523 306.235 67.2997 306.209 67.43 306.158C67.566 306.102 67.6793 306.02 67.77 305.912C67.8663 305.804 67.9343 305.677 67.974 305.529H69.045C68.943 306.005 68.7107 306.388 68.348 306.677C67.9853 306.96 67.5348 307.102 66.9965 307.102ZM72.291 307L70.3955 304.654L72.0955 302.716H73.311L71.1945 305.07V304.28L73.566 307H72.291ZM69.5285 307L69.5285 300.88H70.5485L70.5485 307H69.5285ZM77.9533 307.102C77.3923 307.102 76.8993 306.975 76.4743 306.72C76.055 306.464 75.7292 306.11 75.4968 305.657C75.2645 305.198 75.1483 304.662 75.1483 304.05C75.1483 303.444 75.2673 302.909 75.5053 302.444C75.7433 301.974 76.0833 301.608 76.5253 301.347C76.973 301.081 77.5028 300.948 78.1148 300.948C78.8062 300.948 79.3785 301.115 79.8318 301.449C80.2908 301.778 80.5883 302.237 80.7243 302.826H79.5768C79.4918 302.532 79.3247 302.302 79.0753 302.138C78.826 301.974 78.503 301.891 78.1063 301.891C77.704 301.891 77.3583 301.979 77.0693 302.155C76.786 302.325 76.5678 302.574 76.4148 302.903C76.2675 303.226 76.1938 303.611 76.1938 304.059C76.1938 304.507 76.2675 304.892 76.4148 305.215C76.5678 305.538 76.7832 305.784 77.0608 305.954C77.3385 306.119 77.6643 306.201 78.0383 306.201C78.5937 306.201 79.013 306.045 79.2963 305.733C79.5797 305.422 79.7468 305.017 79.7978 304.518H78.2593V303.744H80.8263V307H79.8913L79.8063 306.184C79.676 306.377 79.5258 306.544 79.3558 306.685C79.1858 306.821 78.9847 306.926 78.7523 307C78.5257 307.068 78.2593 307.102 77.9533 307.102ZM82.8207 307.102C82.4694 307.102 82.1776 307.042 81.9452 306.923C81.7129 306.804 81.5401 306.646 81.4267 306.447C81.3134 306.249 81.2567 306.034 81.2567 305.801C81.2567 305.529 81.3247 305.294 81.4607 305.096C81.6024 304.898 81.8092 304.745 82.0812 304.637C82.3532 304.524 82.6876 304.467 83.0842 304.467H84.1637C84.1637 304.24 84.1326 304.053 84.0702 303.906C84.0079 303.753 83.9116 303.64 83.7812 303.566C83.6509 303.492 83.4837 303.455 83.2797 303.455C83.0474 303.455 82.8491 303.509 82.6847 303.617C82.5204 303.719 82.4184 303.878 82.3787 304.093H81.3757C81.4097 303.787 81.5117 303.526 81.6817 303.311C81.8517 303.09 82.0756 302.92 82.3532 302.801C82.6366 302.676 82.9454 302.614 83.2797 302.614C83.6821 302.614 84.0249 302.685 84.3082 302.826C84.5916 302.962 84.8069 303.161 84.9542 303.421C85.1072 303.676 85.1837 303.985 85.1837 304.348V307H84.3167L84.2147 306.311C84.1581 306.425 84.0844 306.53 83.9937 306.626C83.9087 306.722 83.8096 306.807 83.6962 306.881C83.5829 306.949 83.4526 307.003 83.3052 307.043C83.1636 307.082 83.0021 307.102 82.8207 307.102ZM83.0502 306.294C83.2146 306.294 83.3591 306.266 83.4837 306.209C83.6141 306.147 83.7246 306.062 83.8152 305.954C83.9116 305.841 83.9852 305.716 84.0362 305.58C84.0872 305.444 84.1212 305.3 84.1382 305.147V305.13H83.1947C82.9964 305.13 82.8321 305.155 82.7017 305.206C82.5714 305.252 82.4779 305.32 82.4212 305.41C82.3646 305.501 82.3362 305.606 82.3362 305.725C82.3362 305.844 82.3646 305.946 82.4212 306.031C82.4779 306.116 82.5601 306.181 82.6677 306.226C82.7754 306.272 82.9029 306.294 83.0502 306.294ZM85.7736 307V302.716H86.6831L86.7766 303.515C86.8786 303.328 87.0061 303.169 87.1591 303.039C87.3121 302.903 87.4906 302.798 87.6946 302.724C87.9043 302.651 88.1338 302.614 88.3831 302.614L88.3831 303.693H88.0261C87.8561 303.693 87.6946 303.716 87.5416 303.761C87.3886 303.801 87.2554 303.869 87.1421 303.965C87.0344 304.056 86.9494 304.184 86.8871 304.348C86.8248 304.507 86.7936 304.708 86.7936 304.951V307H85.7736ZM90.4647 307.102C90.068 307.102 89.7139 307.006 89.4022 306.813C89.0905 306.62 88.8469 306.354 88.6712 306.014C88.5012 305.674 88.4162 305.289 88.4162 304.858C88.4162 304.427 88.504 304.045 88.6797 303.71C88.8554 303.37 89.099 303.104 89.4107 302.911C89.728 302.713 90.085 302.614 90.4817 302.614C90.8047 302.614 91.0852 302.676 91.3232 302.801C91.5669 302.92 91.7595 303.09 91.9012 303.311L91.9012 300.88H92.9212L92.9212 307H92.0032L91.9012 306.379C91.8105 306.504 91.7 306.623 91.5697 306.736C91.4394 306.844 91.2835 306.932 91.1022 307C90.9209 307.068 90.7084 307.102 90.4647 307.102ZM90.6772 306.218C90.9209 306.218 91.1362 306.161 91.3232 306.048C91.5102 305.929 91.6547 305.767 91.7567 305.563C91.8587 305.359 91.9097 305.124 91.9097 304.858C91.9097 304.592 91.8587 304.356 91.7567 304.152C91.6547 303.948 91.5102 303.79 91.3232 303.676C91.1362 303.563 90.9209 303.506 90.6772 303.506C90.4449 303.506 90.2352 303.563 90.0482 303.676C89.8612 303.79 89.7139 303.948 89.6062 304.152C89.5042 304.356 89.4532 304.592 89.4532 304.858C89.4532 305.124 89.5042 305.359 89.6062 305.563C89.7139 305.767 89.8612 305.929 90.0482 306.048C90.2352 306.161 90.4449 306.218 90.6772 306.218ZM94.0743 308.87L95.1198 306.524H94.8648L93.1563 302.716H94.2698L95.5448 305.623L96.7518 302.716H97.8313L95.1538 308.87H94.0743Z" fill="#32362F"/>
<path d="M122.532 307V302.214L121.478 302.486V301.696L122.94 301.05H123.578L123.578 307H122.532ZM124.129 307V306.26C124.509 305.96 124.871 305.66 125.217 305.359C125.563 305.059 125.874 304.762 126.152 304.467C126.43 304.172 126.648 303.883 126.806 303.6C126.965 303.317 127.044 303.045 127.044 302.784C127.044 302.614 127.013 302.455 126.951 302.308C126.889 302.161 126.789 302.042 126.653 301.951C126.523 301.86 126.347 301.815 126.126 301.815C125.911 301.815 125.727 301.863 125.574 301.959C125.427 302.056 125.316 302.186 125.242 302.35C125.169 302.509 125.132 302.69 125.132 302.894H124.146C124.157 302.464 124.251 302.104 124.426 301.815C124.602 301.526 124.84 301.311 125.14 301.169C125.441 301.022 125.778 300.948 126.152 300.948C126.554 300.948 126.897 301.022 127.18 301.169C127.464 301.316 127.682 301.523 127.835 301.789C127.988 302.056 128.064 302.37 128.064 302.733C128.064 302.999 128.013 303.263 127.911 303.523C127.815 303.778 127.679 304.028 127.503 304.271C127.328 304.509 127.129 304.742 126.908 304.968C126.693 305.189 126.469 305.402 126.237 305.606C126.005 305.804 125.781 305.988 125.565 306.158H128.226V307H124.129ZM128.28 307.918L130.413 300.412H131.408L129.274 307.918H128.28ZM131.579 307V306.26C131.959 305.96 132.321 305.66 132.667 305.359C133.013 305.059 133.324 304.762 133.602 304.467C133.88 304.172 134.098 303.883 134.257 303.6C134.415 303.317 134.495 303.045 134.495 302.784C134.495 302.614 134.463 302.455 134.401 302.308C134.339 302.161 134.24 302.042 134.104 301.951C133.973 301.86 133.798 301.815 133.577 301.815C133.361 301.815 133.177 301.863 133.024 301.959C132.877 302.056 132.766 302.186 132.693 302.35C132.619 302.509 132.582 302.69 132.582 302.894H131.596C131.607 302.464 131.701 302.104 131.877 301.815C132.052 301.526 132.29 301.311 132.591 301.169C132.891 301.022 133.228 300.948 133.602 300.948C134.004 300.948 134.347 301.022 134.631 301.169C134.914 301.316 135.132 301.523 135.285 301.789C135.438 302.056 135.515 302.37 135.515 302.733C135.515 302.999 135.464 303.263 135.362 303.523C135.265 303.778 135.129 304.028 134.954 304.271C134.778 304.509 134.58 304.742 134.359 304.968C134.143 305.189 133.919 305.402 133.687 305.606C133.455 305.804 133.231 305.988 133.016 306.158H135.676V307H131.579ZM136.454 307L138.673 301.925L135.681 301.925V301.05L139.718 301.05V301.781L137.517 307H136.454Z" fill="#32362F"/>
<path d="M262 286.795L292.236 277V344.807C270.639 335.766 262 318.438 262 308.648V286.795Z" fill="#606B58"/>
<path d="M322.474 286.795L292.238 277V344.807C313.835 335.766 322.474 318.438 322.474 308.643V286.795Z" fill="#464E41"/>
<path fill-rule="evenodd" clip-rule="evenodd" d="M294.986 310.307C296.314 309.402 297.185 307.899 297.185 306.197C297.185 303.432 294.887 301.19 292.053 301.19C289.22 301.19 286.922 303.432 286.922 306.197C286.922 307.899 287.792 309.402 289.121 310.307V318.39C289.121 318.596 289.213 318.793 289.372 318.928L291.571 320.806C291.714 320.929 291.894 320.987 292.073 320.982C292.239 320.978 292.403 320.919 292.536 320.806L294.735 318.928C294.894 318.793 294.986 318.596 294.986 318.39V316.022C294.986 315.911 294.958 315.802 294.908 315.702L294.4 314.71C294.305 314.528 294.297 314.315 294.374 314.125L294.933 312.762C294.968 312.678 294.986 312.588 294.986 312.497V310.307Z" fill="#CFD0C9"/>
<path fill-rule="evenodd" clip-rule="evenodd" d="M282.254 169.166C282.254 169.345 282.399 169.495 282.583 169.495L287.401 169.495C287.58 169.495 287.73 169.35 287.73 169.166L287.73 164.329C287.73 164.15 287.584 164 287.401 164L282.583 164C282.404 164 282.254 164.146 282.254 164.329L282.254 169.166Z" fill="#464E41"/>
<path fill-rule="evenodd" clip-rule="evenodd" d="M287.396 174.854C287.396 175.034 287.542 175.184 287.725 175.184L293.104 175.184C293.283 175.184 293.433 175.039 293.433 174.854L293.433 169.49C293.433 169.311 293.288 169.161 293.104 169.161L287.725 169.161C287.546 169.161 287.396 169.306 287.396 169.49L287.396 174.854Z" fill="#464E41"/>
<path fill-rule="evenodd" clip-rule="evenodd" d="M293.076 180.53C293.076 180.709 293.22 180.859 293.405 180.859L298.784 180.859C298.963 180.859 299.113 180.713 299.113 180.53L299.113 175.151C299.113 174.972 298.967 174.822 298.784 174.822L293.405 174.822C293.226 174.822 293.076 174.967 293.076 175.151L293.076 180.53Z" fill="#464E41"/>
<path fill-rule="evenodd" clip-rule="evenodd" d="M287.396 186.121C287.396 186.3 287.542 186.45 287.725 186.45L293.104 186.45C293.283 186.45 293.433 186.305 293.433 186.121L293.433 180.743C293.433 180.563 293.288 180.413 293.104 180.413L287.725 180.413C287.546 180.413 287.396 180.558 287.396 180.743L287.396 186.121Z" fill="#464E41"/>
<path fill-rule="evenodd" clip-rule="evenodd" d="M283.154 179.866C283.154 180.045 283.3 180.195 283.483 180.195L286.742 180.195C286.921 180.195 287.071 180.049 287.071 179.866L287.071 176.608C287.071 176.428 286.926 176.278 286.742 176.278L283.483 176.278C283.304 176.278 283.154 176.423 283.154 176.608L283.154 179.866Z" fill="#464E41"/>
<path fill-rule="evenodd" clip-rule="evenodd" d="M281 182.02C281 182.199 281.145 182.35 281.33 182.35L282.825 182.35C283.004 182.35 283.155 182.204 283.155 182.02L283.155 180.524C283.155 180.345 283.009 180.195 282.825 180.195L281.33 180.195C281.151 180.195 281 180.34 281 180.524L281 182.02Z" fill="#464E41"/>
<path d="M123.82 73.58V77H122.89V73.58L120.17 69.7H121.22L123.35 72.73L125.49 69.7H126.54L123.82 73.58ZM131.395 74.47C131.395 75.2033 131.135 75.83 130.615 76.35C130.095 76.8633 129.468 77.12 128.735 77.12C128.002 77.12 127.375 76.8633 126.855 76.35C126.335 75.83 126.075 75.2033 126.075 74.47C126.075 73.73 126.335 73.1033 126.855 72.59C127.375 72.07 128.002 71.81 128.735 71.81C129.468 71.81 130.095 72.07 130.615 72.59C131.135 73.1033 131.395 73.73 131.395 74.47ZM130.505 74.47C130.505 73.9433 130.335 73.5 129.995 73.14C129.655 72.78 129.235 72.6 128.735 72.6C128.242 72.6 127.822 72.78 127.475 73.14C127.135 73.5 126.965 73.9433 126.965 74.47C126.965 74.99 127.135 75.43 127.475 75.79C127.822 76.15 128.242 76.33 128.735 76.33C129.235 76.33 129.655 76.15 129.995 75.79C130.335 75.43 130.505 74.99 130.505 74.47ZM134.776 76.31C135.142 76.31 135.442 76.1833 135.676 75.93C135.909 75.67 136.026 75.34 136.026 74.94V71.93H136.926V77H136.026V76.24C135.892 76.5067 135.686 76.72 135.406 76.88C135.126 77.04 134.816 77.12 134.476 77.12C133.916 77.12 133.469 76.94 133.136 76.58C132.809 76.22 132.646 75.7467 132.646 75.16V71.93H133.546V74.94C133.546 75.36 133.656 75.6933 133.876 75.94C134.096 76.1867 134.396 76.31 134.776 76.31ZM141.233 71.86V72.76C140.713 72.68 140.29 72.7833 139.963 73.07C139.637 73.35 139.473 73.7833 139.473 74.37V77H138.573V71.93H139.473V72.85C139.627 72.51 139.863 72.25 140.183 72.07C140.503 71.8833 140.853 71.8133 141.233 71.86ZM149.048 77H144.698V69.7H149.018V70.48H145.608V72.89H148.738V73.67H145.608V76.22H149.048V77ZM149.962 76.62V75.71C150.189 75.9233 150.439 76.09 150.712 76.21C150.992 76.3233 151.272 76.38 151.552 76.38C151.852 76.38 152.089 76.3167 152.262 76.19C152.442 76.0633 152.532 75.89 152.532 75.67C152.532 75.5167 152.492 75.39 152.412 75.29C152.332 75.19 152.179 75.0867 151.952 74.98L151.042 74.55C150.662 74.37 150.399 74.1833 150.252 73.99C150.112 73.79 150.042 73.5467 150.042 73.26C150.042 72.8467 150.202 72.5033 150.522 72.23C150.842 71.95 151.246 71.81 151.732 71.81C151.999 71.81 152.252 71.85 152.492 71.93C152.739 72.01 152.962 72.1267 153.162 72.28V73.16C152.922 72.96 152.682 72.81 152.442 72.71C152.209 72.61 151.976 72.56 151.742 72.56C151.482 72.56 151.272 72.62 151.112 72.74C150.959 72.86 150.882 73.02 150.882 73.22C150.882 73.3533 150.922 73.47 151.002 73.57C151.089 73.6633 151.279 73.78 151.572 73.92L152.462 74.34C152.789 74.4933 153.022 74.6733 153.162 74.88C153.309 75.08 153.382 75.33 153.382 75.63C153.382 76.0633 153.209 76.42 152.862 76.7C152.516 76.98 152.086 77.12 151.572 77.12C151.279 77.12 150.989 77.0767 150.702 76.99C150.422 76.8967 150.176 76.7733 149.962 76.62ZM155.118 74.47C155.118 74.99 155.298 75.43 155.658 75.79C156.018 76.15 156.451 76.33 156.958 76.33C157.211 76.33 157.445 76.29 157.658 76.21C157.878 76.1233 158.078 75.9933 158.258 75.82V76.73C158.071 76.8567 157.861 76.9533 157.628 77.02C157.395 77.0867 157.158 77.12 156.918 77.12C156.185 77.12 155.558 76.8633 155.038 76.35C154.518 75.83 154.258 75.2033 154.258 74.47C154.258 73.73 154.518 73.1033 155.038 72.59C155.558 72.07 156.185 71.81 156.918 71.81C157.165 71.81 157.401 71.8467 157.628 71.92C157.861 71.9867 158.071 72.0833 158.258 72.21V73.11C158.078 72.9433 157.881 72.82 157.668 72.74C157.455 72.6533 157.218 72.61 156.958 72.61C156.451 72.61 156.018 72.79 155.658 73.15C155.298 73.51 155.118 73.95 155.118 74.47ZM162.19 71.86V72.76C161.67 72.68 161.247 72.7833 160.92 73.07C160.594 73.35 160.43 73.7833 160.43 74.37V77H159.53V71.93H160.43V72.85C160.584 72.51 160.82 72.25 161.14 72.07C161.46 71.8833 161.81 71.8133 162.19 71.86ZM168.075 74.47C168.075 75.2033 167.815 75.83 167.295 76.35C166.775 76.8633 166.148 77.12 165.415 77.12C164.681 77.12 164.055 76.8633 163.535 76.35C163.015 75.83 162.755 75.2033 162.755 74.47C162.755 73.73 163.015 73.1033 163.535 72.59C164.055 72.07 164.681 71.81 165.415 71.81C166.148 71.81 166.775 72.07 167.295 72.59C167.815 73.1033 168.075 73.73 168.075 74.47ZM167.185 74.47C167.185 73.9433 167.015 73.5 166.675 73.14C166.335 72.78 165.915 72.6 165.415 72.6C164.921 72.6 164.501 72.78 164.155 73.14C163.815 73.5 163.645 73.9433 163.645 74.47C163.645 74.99 163.815 75.43 164.155 75.79C164.501 76.15 164.921 76.33 165.415 76.33C165.915 76.33 166.335 76.15 166.675 75.79C167.015 75.43 167.185 74.99 167.185 74.47ZM170.86 75.42L172.37 71.71L173.89 75.42L175.31 71.93H176.24L173.89 77.25L172.36 73.62L170.83 77.25L168.48 71.93H169.43L170.86 75.42ZM179.933 73.35C179.933 74.1567 180.203 74.84 180.743 75.4C181.29 75.96 181.957 76.24 182.743 76.24C183.143 76.24 183.517 76.1667 183.863 76.02C184.217 75.8733 184.517 75.6667 184.763 75.4V76.48C184.477 76.6867 184.16 76.8467 183.813 76.96C183.467 77.0667 183.103 77.12 182.723 77.12C182.223 77.12 181.747 77.0233 181.293 76.83C180.84 76.6367 180.44 76.3633 180.093 76.01C179.747 75.65 179.48 75.2433 179.293 74.79C179.107 74.33 179.013 73.85 179.013 73.35C179.013 72.85 179.107 72.3733 179.293 71.92C179.48 71.46 179.747 71.05 180.093 70.69C180.44 70.3367 180.84 70.0633 181.293 69.87C181.747 69.6767 182.223 69.58 182.723 69.58C183.103 69.58 183.467 69.6367 183.813 69.75C184.16 69.8567 184.477 70.0133 184.763 70.22V71.3C184.517 71.0333 184.217 70.8267 183.863 70.68C183.517 70.5333 183.143 70.46 182.743 70.46C181.957 70.46 181.29 70.74 180.743 71.3C180.203 71.86 179.933 72.5433 179.933 73.35ZM191.004 74.47C191.004 75.2033 190.744 75.83 190.224 76.35C189.704 76.8633 189.078 77.12 188.344 77.12C187.611 77.12 186.984 76.8633 186.464 76.35C185.944 75.83 185.684 75.2033 185.684 74.47C185.684 73.73 185.944 73.1033 186.464 72.59C186.984 72.07 187.611 71.81 188.344 71.81C189.078 71.81 189.704 72.07 190.224 72.59C190.744 73.1033 191.004 73.73 191.004 74.47ZM190.114 74.47C190.114 73.9433 189.944 73.5 189.604 73.14C189.264 72.78 188.844 72.6 188.344 72.6C187.851 72.6 187.431 72.78 187.084 73.14C186.744 73.5 186.574 73.9433 186.574 74.47C186.574 74.99 186.744 75.43 187.084 75.79C187.431 76.15 187.851 76.33 188.344 76.33C188.844 76.33 189.264 76.15 189.604 75.79C189.944 75.43 190.114 74.99 190.114 74.47ZM194.445 72.63C194.078 72.63 193.778 72.76 193.545 73.02C193.312 73.28 193.195 73.61 193.195 74.01V77H192.295V71.93H193.195V72.69C193.328 72.4233 193.535 72.21 193.815 72.05C194.095 71.89 194.405 71.81 194.745 71.81C195.312 71.81 195.762 71.9933 196.095 72.36C196.428 72.72 196.595 73.1933 196.595 73.78V77H195.695V74C195.695 73.58 195.582 73.2467 195.355 73C195.135 72.7533 194.832 72.63 194.445 72.63ZM199.343 72.67V75.36C199.343 75.6667 199.419 75.9067 199.573 76.08C199.733 76.2533 199.953 76.34 200.233 76.34C200.399 76.34 200.553 76.3167 200.693 76.27C200.839 76.2167 200.976 76.14 201.103 76.04V76.86C200.969 76.94 200.813 77.0033 200.633 77.05C200.453 77.0967 200.269 77.12 200.083 77.12C199.576 77.12 199.176 76.97 198.883 76.67C198.589 76.37 198.443 75.96 198.443 75.44V72.67H197.563V71.93H198.443V70.57L199.343 70.25V71.93H200.843V72.67H199.343ZM204.954 71.86V72.76C204.434 72.68 204.011 72.7833 203.684 73.07C203.357 73.35 203.194 73.7833 203.194 74.37V77H202.294V71.93H203.194V72.85C203.347 72.51 203.584 72.25 203.904 72.07C204.224 71.8833 204.574 71.8133 204.954 71.86ZM209.746 77H208.876V76.5C208.749 76.6867 208.559 76.8367 208.306 76.95C208.052 77.0633 207.772 77.12 207.466 77.12C206.932 77.12 206.482 76.9633 206.116 76.65C205.749 76.33 205.566 75.93 205.566 75.45C205.566 74.9833 205.749 74.5933 206.116 74.28C206.489 73.9667 206.946 73.81 207.486 73.81C207.772 73.81 208.039 73.8633 208.286 73.97C208.532 74.0767 208.729 74.2167 208.876 74.39V73.73C208.876 73.41 208.756 73.1467 208.516 72.94C208.276 72.7267 207.966 72.62 207.586 72.62C207.339 72.62 207.092 72.6567 206.846 72.73C206.606 72.8033 206.366 72.9133 206.126 73.06V72.22C206.346 72.0933 206.599 71.9933 206.886 71.92C207.172 71.8467 207.459 71.81 207.746 71.81C208.352 71.81 208.836 71.98 209.196 72.32C209.562 72.66 209.746 73.11 209.746 73.67V77ZM207.606 76.38C207.966 76.38 208.269 76.2933 208.516 76.12C208.769 75.94 208.896 75.7167 208.896 75.45C208.896 75.1833 208.769 74.9633 208.516 74.79C208.262 74.61 207.959 74.52 207.606 74.52C207.266 74.52 206.979 74.6067 206.746 74.78C206.512 74.9533 206.396 75.1767 206.396 75.45C206.396 75.7233 206.509 75.9467 206.736 76.12C206.969 76.2933 207.259 76.38 207.606 76.38ZM211.837 74.47C211.837 74.99 212.017 75.43 212.377 75.79C212.737 76.15 213.17 76.33 213.677 76.33C213.93 76.33 214.164 76.29 214.377 76.21C214.597 76.1233 214.797 75.9933 214.977 75.82V76.73C214.79 76.8567 214.58 76.9533 214.347 77.02C214.114 77.0867 213.877 77.12 213.637 77.12C212.904 77.12 212.277 76.8633 211.757 76.35C211.237 75.83 210.977 75.2033 210.977 74.47C210.977 73.73 211.237 73.1033 211.757 72.59C212.277 72.07 212.904 71.81 213.637 71.81C213.884 71.81 214.12 71.8467 214.347 71.92C214.58 71.9867 214.79 72.0833 214.977 72.21V73.11C214.797 72.9433 214.6 72.82 214.387 72.74C214.174 72.6533 213.937 72.61 213.677 72.61C213.17 72.61 212.737 72.79 212.377 73.15C212.017 73.51 211.837 73.95 211.837 74.47ZM217.399 72.67V75.36C217.399 75.6667 217.476 75.9067 217.629 76.08C217.789 76.2533 218.009 76.34 218.289 76.34C218.456 76.34 218.609 76.3167 218.749 76.27C218.896 76.2167 219.033 76.14 219.159 76.04V76.86C219.026 76.94 218.869 77.0033 218.689 77.05C218.509 77.0967 218.326 77.12 218.139 77.12C217.633 77.12 217.233 76.97 216.939 76.67C216.646 76.37 216.499 75.96 216.499 75.44V72.67H215.619V71.93H216.499V70.57L217.399 70.25V71.93H218.899V72.67H217.399ZM224.477 69.28C224.61 69.28 224.73 69.29 224.837 69.31C224.944 69.3233 225.04 69.35 225.127 69.39V70.17C225.06 70.13 224.987 70.1033 224.907 70.09C224.827 70.07 224.737 70.06 224.637 70.06C224.364 70.06 224.147 70.15 223.987 70.33C223.834 70.51 223.757 70.7567 223.757 71.07V71.93H225.027V72.67H223.757V77H222.867V72.67H221.987V71.93H222.867V71C222.867 70.4867 223.014 70.0733 223.307 69.76C223.6 69.44 223.99 69.28 224.477 69.28ZM230.907 74.47C230.907 75.2033 230.647 75.83 230.127 76.35C229.607 76.8633 228.98 77.12 228.247 77.12C227.513 77.12 226.887 76.8633 226.367 76.35C225.847 75.83 225.587 75.2033 225.587 74.47C225.587 73.73 225.847 73.1033 226.367 72.59C226.887 72.07 227.513 71.81 228.247 71.81C228.98 71.81 229.607 72.07 230.127 72.59C230.647 73.1033 230.907 73.73 230.907 74.47ZM230.017 74.47C230.017 73.9433 229.847 73.5 229.507 73.14C229.167 72.78 228.747 72.6 228.247 72.6C227.753 72.6 227.333 72.78 226.987 73.14C226.647 73.5 226.477 73.9433 226.477 74.47C226.477 74.99 226.647 75.43 226.987 75.79C227.333 76.15 227.753 76.33 228.247 76.33C228.747 76.33 229.167 76.15 229.507 75.79C229.847 75.43 230.017 74.99 230.017 74.47ZM234.817 71.86V72.76C234.297 72.68 233.874 72.7833 233.547 73.07C233.221 73.35 233.057 73.7833 233.057 74.37V77H232.157V71.93H233.057V72.85C233.211 72.51 233.447 72.25 233.767 72.07C234.087 71.8833 234.437 71.8133 234.817 71.86ZM240.042 73.96H239.202V77H238.282V69.7H240.082C240.875 69.7 241.509 69.8933 241.982 70.28C242.462 70.6667 242.702 71.1867 242.702 71.84C242.702 72.34 242.555 72.7667 242.262 73.12C241.969 73.4667 241.559 73.71 241.032 73.85L243.582 77H242.492L240.042 73.96ZM240.072 70.47H239.202V73.21H240.072C240.592 73.21 241.002 73.09 241.302 72.85C241.609 72.6033 241.762 72.2667 241.762 71.84C241.762 71.4133 241.609 71.08 241.302 70.84C241.002 70.5933 240.592 70.47 240.072 70.47ZM248.36 70.48H245.72L245.45 72.4C246.37 72.4 247.103 72.6133 247.65 73.04C248.203 73.46 248.48 74.0433 248.48 74.79C248.48 75.47 248.23 76.03 247.73 76.47C247.236 76.9033 246.613 77.12 245.86 77.12C245.506 77.12 245.163 77.07 244.83 76.97C244.503 76.8633 244.22 76.72 243.98 76.54V75.6C244.22 75.8267 244.506 76.0067 244.84 76.14C245.173 76.2667 245.51 76.33 245.85 76.33C246.35 76.33 246.763 76.1867 247.09 75.9C247.423 75.6133 247.59 75.2467 247.59 74.8C247.59 74.2133 247.313 73.7733 246.76 73.48C246.206 73.1867 245.48 73.0733 244.58 73.14L245.01 69.7H248.36V70.48ZM250.563 76.09L249.493 78.32L248.903 78.14L249.553 75.76L250.563 76.09ZM250.97 69.7H256.19L253 77H252.06L254.93 70.48H250.97V69.7ZM256.465 73.35C256.465 72.2567 256.728 71.3567 257.255 70.65C257.788 69.9367 258.461 69.58 259.275 69.58C260.095 69.58 260.768 69.9367 261.295 70.65C261.828 71.3567 262.095 72.2567 262.095 73.35C262.095 74.4433 261.828 75.3467 261.295 76.06C260.768 76.7667 260.095 77.12 259.275 77.12C258.461 77.12 257.788 76.7667 257.255 76.06C256.728 75.3467 256.465 74.4433 256.465 73.35ZM261.185 73.35C261.185 72.5033 261.005 71.8033 260.645 71.25C260.291 70.69 259.835 70.41 259.275 70.41C258.721 70.41 258.265 70.69 257.905 71.25C257.551 71.8033 257.375 72.5033 257.375 73.35C257.375 74.1967 257.551 74.9 257.905 75.46C258.265 76.0133 258.721 76.29 259.275 76.29C259.835 76.29 260.291 76.0133 260.645 75.46C261.005 74.9 261.185 74.1967 261.185 73.35ZM262.91 73.35C262.91 72.2567 263.173 71.3567 263.7 70.65C264.233 69.9367 264.907 69.58 265.72 69.58C266.54 69.58 267.213 69.9367 267.74 70.65C268.273 71.3567 268.54 72.2567 268.54 73.35C268.54 74.4433 268.273 75.3467 267.74 76.06C267.213 76.7667 266.54 77.12 265.72 77.12C264.907 77.12 264.233 76.7667 263.7 76.06C263.173 75.3467 262.91 74.4433 262.91 73.35ZM267.63 73.35C267.63 72.5033 267.45 71.8033 267.09 71.25C266.737 70.69 266.28 70.41 265.72 70.41C265.167 70.41 264.71 70.69 264.35 71.25C263.997 71.8033 263.82 72.5033 263.82 73.35C263.82 74.1967 263.997 74.9 264.35 75.46C264.71 76.0133 265.167 76.29 265.72 76.29C266.28 76.29 266.737 76.0133 267.09 75.46C267.45 74.9 267.63 74.1967 267.63 73.35ZM274.181 72.63C273.815 72.63 273.515 72.76 273.281 73.02C273.048 73.28 272.931 73.61 272.931 74.01V77H272.031V69.4H272.931V72.69C273.065 72.4233 273.271 72.21 273.551 72.05C273.831 71.89 274.141 71.81 274.481 71.81C275.048 71.81 275.498 71.9933 275.831 72.36C276.165 72.72 276.331 73.1933 276.331 73.78V77H275.431V74C275.431 73.58 275.318 73.2467 275.091 73C274.871 72.7533 274.568 72.63 274.181 72.63ZM281.689 77H280.819V76.5C280.692 76.6867 280.502 76.8367 280.249 76.95C279.996 77.0633 279.716 77.12 279.409 77.12C278.876 77.12 278.426 76.9633 278.059 76.65C277.692 76.33 277.509 75.93 277.509 75.45C277.509 74.9833 277.692 74.5933 278.059 74.28C278.432 73.9667 278.889 73.81 279.429 73.81C279.716 73.81 279.982 73.8633 280.229 73.97C280.476 74.0767 280.672 74.2167 280.819 74.39V73.73C280.819 73.41 280.699 73.1467 280.459 72.94C280.219 72.7267 279.909 72.62 279.529 72.62C279.282 72.62 279.036 72.6567 278.789 72.73C278.549 72.8033 278.309 72.9133 278.069 73.06V72.22C278.289 72.0933 278.542 71.9933 278.829 71.92C279.116 71.8467 279.402 71.81 279.689 71.81C280.296 71.81 280.779 71.98 281.139 72.32C281.506 72.66 281.689 73.11 281.689 73.67V77ZM279.549 76.38C279.909 76.38 280.212 76.2933 280.459 76.12C280.712 75.94 280.839 75.7167 280.839 75.45C280.839 75.1833 280.712 74.9633 280.459 74.79C280.206 74.61 279.902 74.52 279.549 74.52C279.209 74.52 278.922 74.6067 278.689 74.78C278.456 74.9533 278.339 75.1767 278.339 75.45C278.339 75.7233 278.452 75.9467 278.679 76.12C278.912 76.2933 279.202 76.38 279.549 76.38ZM283.395 71.93L285.125 75.59L286.855 71.93H287.805L285.105 77.25L282.405 71.93H283.395ZM290.925 77.12C290.132 77.12 289.469 76.8667 288.935 76.36C288.409 75.8533 288.145 75.2233 288.145 74.47C288.145 73.7367 288.399 73.11 288.905 72.59C289.419 72.07 290.029 71.81 290.735 71.81C291.495 71.81 292.095 72.08 292.535 72.62C292.982 73.1533 293.185 73.8367 293.145 74.67H289.005C289.052 75.17 289.259 75.5733 289.625 75.88C289.992 76.1867 290.455 76.34 291.015 76.34C291.349 76.34 291.675 76.28 291.995 76.16C292.315 76.0333 292.589 75.86 292.815 75.64V76.52C292.569 76.7133 292.282 76.8633 291.955 76.97C291.629 77.07 291.285 77.12 290.925 77.12ZM290.725 72.57C290.319 72.57 289.959 72.7 289.645 72.96C289.339 73.22 289.139 73.5633 289.045 73.99H292.275C292.229 73.57 292.065 73.23 291.785 72.97C291.505 72.7033 291.152 72.57 290.725 72.57ZM123.64 85.81C124.347 85.81 124.943 86.0667 125.43 86.58C125.917 87.0933 126.16 87.7233 126.16 88.47C126.16 89.21 125.917 89.8367 125.43 90.35C124.943 90.8633 124.347 91.12 123.64 91.12C123.227 91.12 122.843 91.0133 122.49 90.8C122.137 90.5867 121.887 90.3133 121.74 89.98V91H120.84V83.4H121.74V86.95C121.887 86.6233 122.137 86.3533 122.49 86.14C122.85 85.92 123.233 85.81 123.64 85.81ZM125.27 88.47C125.27 87.95 125.097 87.51 124.75 87.15C124.41 86.7833 123.99 86.6 123.49 86.6C122.99 86.6 122.567 86.7833 122.22 87.15C121.88 87.51 121.71 87.95 121.71 88.47C121.71 88.99 121.883 89.4333 122.23 89.8C122.577 90.16 122.997 90.34 123.49 90.34C123.983 90.34 124.403 90.16 124.75 89.8C125.097 89.4333 125.27 88.99 125.27 88.47ZM129.822 91.12C129.028 91.12 128.365 90.8667 127.832 90.36C127.305 89.8533 127.042 89.2233 127.042 88.47C127.042 87.7367 127.295 87.11 127.802 86.59C128.315 86.07 128.925 85.81 129.632 85.81C130.392 85.81 130.992 86.08 131.432 86.62C131.878 87.1533 132.082 87.8367 132.042 88.67H127.902C127.948 89.17 128.155 89.5733 128.522 89.88C128.888 90.1867 129.352 90.34 129.912 90.34C130.245 90.34 130.572 90.28 130.892 90.16C131.212 90.0333 131.485 89.86 131.712 89.64V90.52C131.465 90.7133 131.178 90.8633 130.852 90.97C130.525 91.07 130.182 91.12 129.822 91.12ZM129.622 86.57C129.215 86.57 128.855 86.7 128.542 86.96C128.235 87.22 128.035 87.5633 127.942 87.99H131.172C131.125 87.57 130.962 87.23 130.682 86.97C130.402 86.7033 130.048 86.57 129.622 86.57ZM135.71 91.12C134.917 91.12 134.254 90.8667 133.72 90.36C133.194 89.8533 132.93 89.2233 132.93 88.47C132.93 87.7367 133.184 87.11 133.69 86.59C134.204 86.07 134.814 85.81 135.52 85.81C136.28 85.81 136.88 86.08 137.32 86.62C137.767 87.1533 137.97 87.8367 137.93 88.67H133.79C133.837 89.17 134.044 89.5733 134.41 89.88C134.777 90.1867 135.24 90.34 135.8 90.34C136.134 90.34 136.46 90.28 136.78 90.16C137.1 90.0333 137.374 89.86 137.6 89.64V90.52C137.354 90.7133 137.067 90.8633 136.74 90.97C136.414 91.07 136.07 91.12 135.71 91.12ZM135.51 86.57C135.104 86.57 134.744 86.7 134.43 86.96C134.124 87.22 133.924 87.5633 133.83 87.99H137.06C137.014 87.57 136.85 87.23 136.57 86.97C136.29 86.7033 135.937 86.57 135.51 86.57ZM141.359 86.63C140.992 86.63 140.692 86.76 140.459 87.02C140.226 87.28 140.109 87.61 140.109 88.01V91H139.209V85.93H140.109V86.69C140.242 86.4233 140.449 86.21 140.729 86.05C141.009 85.89 141.319 85.81 141.659 85.81C142.226 85.81 142.676 85.9933 143.009 86.36C143.342 86.72 143.509 87.1933 143.509 87.78V91H142.609V88C142.609 87.58 142.496 87.2467 142.269 87C142.049 86.7533 141.746 86.63 141.359 86.63ZM151.113 91H150.243V90.5C150.116 90.6867 149.926 90.8367 149.673 90.95C149.419 91.0633 149.139 91.12 148.833 91.12C148.299 91.12 147.849 90.9633 147.483 90.65C147.116 90.33 146.933 89.93 146.933 89.45C146.933 88.9833 147.116 88.5933 147.483 88.28C147.856 87.9667 148.313 87.81 148.853 87.81C149.139 87.81 149.406 87.8633 149.653 87.97C149.899 88.0767 150.096 88.2167 150.243 88.39V87.73C150.243 87.41 150.123 87.1467 149.883 86.94C149.643 86.7267 149.333 86.62 148.953 86.62C148.706 86.62 148.459 86.6567 148.213 86.73C147.973 86.8033 147.733 86.9133 147.493 87.06V86.22C147.713 86.0933 147.966 85.9933 148.253 85.92C148.539 85.8467 148.826 85.81 149.113 85.81C149.719 85.81 150.203 85.98 150.563 86.32C150.929 86.66 151.113 87.11 151.113 87.67V91ZM148.973 90.38C149.333 90.38 149.636 90.2933 149.883 90.12C150.136 89.94 150.263 89.7167 150.263 89.45C150.263 89.1833 150.136 88.9633 149.883 88.79C149.629 88.61 149.326 88.52 148.973 88.52C148.633 88.52 148.346 88.6067 148.113 88.78C147.879 88.9533 147.763 89.1767 147.763 89.45C147.763 89.7233 147.876 89.9467 148.103 90.12C148.336 90.2933 148.626 90.38 148.973 90.38ZM153.204 88.47C153.204 88.99 153.384 89.43 153.744 89.79C154.104 90.15 154.537 90.33 155.044 90.33C155.297 90.33 155.531 90.29 155.744 90.21C155.964 90.1233 156.164 89.9933 156.344 89.82V90.73C156.157 90.8567 155.947 90.9533 155.714 91.02C155.481 91.0867 155.244 91.12 155.004 91.12C154.271 91.12 153.644 90.8633 153.124 90.35C152.604 89.83 152.344 89.2033 152.344 88.47C152.344 87.73 152.604 87.1033 153.124 86.59C153.644 86.07 154.271 85.81 155.004 85.81C155.251 85.81 155.487 85.8467 155.714 85.92C155.947 85.9867 156.157 86.0833 156.344 86.21V87.11C156.164 86.9433 155.967 86.82 155.754 86.74C155.541 86.6533 155.304 86.61 155.044 86.61C154.537 86.61 154.104 86.79 153.744 87.15C153.384 87.51 153.204 87.95 153.204 88.47ZM158.106 88.47C158.106 88.99 158.286 89.43 158.646 89.79C159.006 90.15 159.44 90.33 159.946 90.33C160.2 90.33 160.433 90.29 160.646 90.21C160.866 90.1233 161.066 89.9933 161.246 89.82V90.73C161.06 90.8567 160.85 90.9533 160.616 91.02C160.383 91.0867 160.146 91.12 159.906 91.12C159.173 91.12 158.546 90.8633 158.026 90.35C157.506 89.83 157.246 89.2033 157.246 88.47C157.246 87.73 157.506 87.1033 158.026 86.59C158.546 86.07 159.173 85.81 159.906 85.81C160.153 85.81 160.39 85.8467 160.616 85.92C160.85 85.9867 161.06 86.0833 161.246 86.21V87.11C161.066 86.9433 160.87 86.82 160.656 86.74C160.443 86.6533 160.206 86.61 159.946 86.61C159.44 86.61 159.006 86.79 158.646 87.15C158.286 87.51 158.106 87.95 158.106 88.47ZM164.949 91.12C164.155 91.12 163.492 90.8667 162.959 90.36C162.432 89.8533 162.169 89.2233 162.169 88.47C162.169 87.7367 162.422 87.11 162.929 86.59C163.442 86.07 164.052 85.81 164.759 85.81C165.519 85.81 166.119 86.08 166.559 86.62C167.005 87.1533 167.209 87.8367 167.169 88.67H163.029C163.075 89.17 163.282 89.5733 163.649 89.88C164.015 90.1867 164.479 90.34 165.039 90.34C165.372 90.34 165.699 90.28 166.019 90.16C166.339 90.0333 166.612 89.86 166.839 89.64V90.52C166.592 90.7133 166.305 90.8633 165.979 90.97C165.652 91.07 165.309 91.12 164.949 91.12ZM164.749 86.57C164.342 86.57 163.982 86.7 163.669 86.96C163.362 87.22 163.162 87.5633 163.069 87.99H166.299C166.252 87.57 166.089 87.23 165.809 86.97C165.529 86.7033 165.175 86.57 164.749 86.57ZM171.247 85.81C171.954 85.81 172.551 86.0667 173.037 86.58C173.524 87.0933 173.767 87.7233 173.767 88.47C173.767 89.21 173.524 89.8367 173.037 90.35C172.551 90.8633 171.954 91.12 171.247 91.12C170.834 91.12 170.451 91.0133 170.097 90.8C169.744 90.5867 169.494 90.3133 169.347 89.98V93.1H168.447V85.93H169.347V86.95C169.494 86.6233 169.744 86.3533 170.097 86.14C170.457 85.92 170.841 85.81 171.247 85.81ZM172.877 88.47C172.877 87.95 172.704 87.51 172.357 87.15C172.017 86.7833 171.597 86.6 171.097 86.6C170.597 86.6 170.174 86.7833 169.827 87.15C169.487 87.51 169.317 87.95 169.317 88.47C169.317 88.99 169.491 89.4333 169.837 89.8C170.184 90.16 170.604 90.34 171.097 90.34C171.591 90.34 172.011 90.16 172.357 89.8C172.704 89.4333 172.877 88.99 172.877 88.47ZM176.149 86.67V89.36C176.149 89.6667 176.226 89.9067 176.379 90.08C176.539 90.2533 176.759 90.34 177.039 90.34C177.206 90.34 177.359 90.3167 177.499 90.27C177.646 90.2167 177.783 90.14 177.909 90.04V90.86C177.776 90.94 177.619 91.0033 177.439 91.05C177.259 91.0967 177.076 91.12 176.889 91.12C176.383 91.12 175.983 90.97 175.689 90.67C175.396 90.37 175.249 89.96 175.249 89.44V86.67H174.369V85.93H175.249V84.57L176.149 84.25V85.93H177.649V86.67H176.149ZM181.375 91.12C180.581 91.12 179.918 90.8667 179.385 90.36C178.858 89.8533 178.595 89.2233 178.595 88.47C178.595 87.7367 178.848 87.11 179.355 86.59C179.868 86.07 180.478 85.81 181.185 85.81C181.945 85.81 182.545 86.08 182.985 86.62C183.431 87.1533 183.635 87.8367 183.595 88.67H179.455C179.501 89.17 179.708 89.5733 180.075 89.88C180.441 90.1867 180.905 90.34 181.465 90.34C181.798 90.34 182.125 90.28 182.445 90.16C182.765 90.0333 183.038 89.86 183.265 89.64V90.52C183.018 90.7133 182.731 90.8633 182.405 90.97C182.078 91.07 181.735 91.12 181.375 91.12ZM181.175 86.57C180.768 86.57 180.408 86.7 180.095 86.96C179.788 87.22 179.588 87.5633 179.495 87.99H182.725C182.678 87.57 182.515 87.23 182.235 86.97C181.955 86.7033 181.601 86.57 181.175 86.57ZM184.463 88.47C184.463 87.7233 184.707 87.0933 185.193 86.58C185.68 86.0667 186.277 85.81 186.983 85.81C187.39 85.81 187.77 85.92 188.123 86.14C188.483 86.3533 188.737 86.6233 188.883 86.95V83.4H189.783V91H188.883V89.98C188.737 90.3133 188.487 90.5867 188.133 90.8C187.78 91.0133 187.397 91.12 186.983 91.12C186.277 91.12 185.68 90.8633 185.193 90.35C184.707 89.8367 184.463 89.21 184.463 88.47ZM188.913 88.47C188.913 87.95 188.74 87.51 188.393 87.15C188.053 86.7833 187.633 86.6 187.133 86.6C186.633 86.6 186.21 86.7833 185.863 87.15C185.523 87.51 185.353 87.95 185.353 88.47C185.353 88.99 185.527 89.4333 185.873 89.8C186.22 90.16 186.64 90.34 187.133 90.34C187.627 90.34 188.047 90.16 188.393 89.8C188.74 89.4333 188.913 88.99 188.913 88.47ZM196.511 85.81C197.218 85.81 197.814 86.0667 198.301 86.58C198.788 87.0933 199.031 87.7233 199.031 88.47C199.031 89.21 198.788 89.8367 198.301 90.35C197.814 90.8633 197.218 91.12 196.511 91.12C196.098 91.12 195.714 91.0133 195.361 90.8C195.008 90.5867 194.758 90.3133 194.611 89.98V91H193.711V83.4H194.611V86.95C194.758 86.6233 195.008 86.3533 195.361 86.14C195.721 85.92 196.104 85.81 196.511 85.81ZM198.141 88.47C198.141 87.95 197.968 87.51 197.621 87.15C197.281 86.7833 196.861 86.6 196.361 86.6C195.861 86.6 195.438 86.7833 195.091 87.15C194.751 87.51 194.581 87.95 194.581 88.47C194.581 88.99 194.754 89.4333 195.101 89.8C195.448 90.16 195.868 90.34 196.361 90.34C196.854 90.34 197.274 90.16 197.621 89.8C197.968 89.4333 198.141 88.99 198.141 88.47ZM201.247 93.1H200.307L201.647 90.51L199.407 85.93H200.377L202.117 89.58L203.847 85.93H204.807L201.247 93.1ZM209.477 83.44L212.137 89.21L214.787 83.44L216.807 91H215.857L214.577 86.03L212.137 91.21L209.687 86.03L208.407 91H207.467L209.477 83.44ZM220.54 85.86V86.76C220.02 86.68 219.597 86.7833 219.27 87.07C218.943 87.35 218.78 87.7833 218.78 88.37V91H217.88V85.93H218.78V86.85C218.933 86.51 219.17 86.25 219.49 86.07C219.81 85.8833 220.16 85.8133 220.54 85.86ZM221.562 89.79H221.572C221.752 89.79 221.902 89.85 222.022 89.97C222.149 90.09 222.212 90.24 222.212 90.42C222.212 90.6 222.149 90.75 222.022 90.87C221.902 90.99 221.752 91.05 221.572 91.05H221.562C221.382 91.05 221.229 90.99 221.102 90.87C220.982 90.75 220.922 90.6 220.922 90.42C220.922 90.24 220.982 90.09 221.102 89.97C221.229 89.85 221.382 89.79 221.562 89.79ZM232.038 91H230.988L228.628 87.85L226.258 91H225.238L228.118 87.16L225.508 83.7H226.558L228.638 86.47L230.718 83.7H231.738L229.148 87.15L232.038 91ZM237.733 88.47C237.733 89.2033 237.473 89.83 236.953 90.35C236.433 90.8633 235.806 91.12 235.073 91.12C234.34 91.12 233.713 90.8633 233.193 90.35C232.673 89.83 232.413 89.2033 232.413 88.47C232.413 87.73 232.673 87.1033 233.193 86.59C233.713 86.07 234.34 85.81 235.073 85.81C235.806 85.81 236.433 86.07 236.953 86.59C237.473 87.1033 237.733 87.73 237.733 88.47ZM236.843 88.47C236.843 87.9433 236.673 87.5 236.333 87.14C235.993 86.78 235.573 86.6 235.073 86.6C234.58 86.6 234.16 86.78 233.813 87.14C233.473 87.5 233.303 87.9433 233.303 88.47C233.303 88.99 233.473 89.43 233.813 89.79C234.16 90.15 234.58 90.33 235.073 90.33C235.573 90.33 235.993 90.15 236.333 89.79C236.673 89.43 236.843 88.99 236.843 88.47ZM239.024 91V83.4H239.924V91H239.024ZM245.312 91H244.442V90.5C244.315 90.6867 244.125 90.8367 243.872 90.95C243.619 91.0633 243.339 91.12 243.032 91.12C242.499 91.12 242.049 90.9633 241.682 90.65C241.315 90.33 241.132 89.93 241.132 89.45C241.132 88.9833 241.315 88.5933 241.682 88.28C242.055 87.9667 242.512 87.81 243.052 87.81C243.339 87.81 243.605 87.8633 243.852 87.97C244.099 88.0767 244.295 88.2167 244.442 88.39V87.73C244.442 87.41 244.322 87.1467 244.082 86.94C243.842 86.7267 243.532 86.62 243.152 86.62C242.905 86.62 242.659 86.6567 242.412 86.73C242.172 86.8033 241.932 86.9133 241.692 87.06V86.22C241.912 86.0933 242.165 85.9933 242.452 85.92C242.739 85.8467 243.025 85.81 243.312 85.81C243.919 85.81 244.402 85.98 244.762 86.32C245.129 86.66 245.312 87.11 245.312 87.67V91ZM243.172 90.38C243.532 90.38 243.835 90.2933 244.082 90.12C244.335 89.94 244.462 89.7167 244.462 89.45C244.462 89.1833 244.335 88.9633 244.082 88.79C243.829 88.61 243.525 88.52 243.172 88.52C242.832 88.52 242.545 88.6067 242.312 88.78C242.079 88.9533 241.962 89.1767 241.962 89.45C241.962 89.7233 242.075 89.9467 242.302 90.12C242.535 90.2933 242.825 90.38 243.172 90.38ZM249.103 86.63C248.737 86.63 248.437 86.76 248.203 87.02C247.97 87.28 247.853 87.61 247.853 88.01V91H246.953V85.93H247.853V86.69C247.987 86.4233 248.193 86.21 248.473 86.05C248.753 85.89 249.063 85.81 249.403 85.81C249.97 85.81 250.42 85.9933 250.753 86.36C251.087 86.72 251.253 87.1933 251.253 87.78V91H250.353V88C250.353 87.58 250.24 87.2467 250.013 87C249.793 86.7533 249.49 86.63 249.103 86.63ZM255.281 91.12C254.487 91.12 253.824 90.8667 253.291 90.36C252.764 89.8533 252.501 89.2233 252.501 88.47C252.501 87.7367 252.754 87.11 253.261 86.59C253.774 86.07 254.384 85.81 255.091 85.81C255.851 85.81 256.451 86.08 256.891 86.62C257.337 87.1533 257.541 87.8367 257.501 88.67H253.361C253.407 89.17 253.614 89.5733 253.981 89.88C254.347 90.1867 254.811 90.34 255.371 90.34C255.704 90.34 256.031 90.28 256.351 90.16C256.671 90.0333 256.944 89.86 257.171 89.64V90.52C256.924 90.7133 256.637 90.8633 256.311 90.97C255.984 91.07 255.641 91.12 255.281 91.12ZM255.081 86.57C254.674 86.57 254.314 86.7 254.001 86.96C253.694 87.22 253.494 87.5633 253.401 87.99H256.631C256.584 87.57 256.421 87.23 256.141 86.97C255.861 86.7033 255.507 86.57 255.081 86.57ZM120.87 97.45L126.19 103.05V97.7H127.1V105.25L121.78 99.65V105H120.87V97.45ZM128.399 102.47C128.399 101.723 128.642 101.093 129.129 100.58C129.615 100.067 130.212 99.81 130.919 99.81C131.325 99.81 131.705 99.92 132.059 100.14C132.419 100.353 132.672 100.623 132.819 100.95V97.4H133.719V105H132.819V103.98C132.672 104.313 132.422 104.587 132.069 104.8C131.715 105.013 131.332 105.12 130.919 105.12C130.212 105.12 129.615 104.863 129.129 104.35C128.642 103.837 128.399 103.21 128.399 102.47ZM132.849 102.47C132.849 101.95 132.675 101.51 132.329 101.15C131.989 100.783 131.569 100.6 131.069 100.6C130.569 100.6 130.145 100.783 129.799 101.15C129.459 101.51 129.289 101.95 129.289 102.47C129.289 102.99 129.462 103.433 129.809 103.8C130.155 104.16 130.575 104.34 131.069 104.34C131.562 104.34 131.982 104.16 132.329 103.8C132.675 103.433 132.849 102.99 132.849 102.47ZM137.551 100.63C137.184 100.63 136.884 100.76 136.651 101.02C136.417 101.28 136.301 101.61 136.301 102.01V105H135.401V97.4H136.301V100.69C136.434 100.423 136.641 100.21 136.921 100.05C137.201 99.89 137.511 99.81 137.851 99.81C138.417 99.81 138.867 99.9933 139.201 100.36C139.534 100.72 139.701 101.193 139.701 101.78V105H138.801V102C138.801 101.58 138.687 101.247 138.461 101C138.241 100.753 137.937 100.63 137.551 100.63ZM141.338 105V97.4H142.238V105H141.338ZM148.836 102.47C148.836 103.203 148.576 103.83 148.056 104.35C147.536 104.863 146.91 105.12 146.176 105.12C145.443 105.12 144.816 104.863 144.296 104.35C143.776 103.83 143.516 103.203 143.516 102.47C143.516 101.73 143.776 101.103 144.296 100.59C144.816 100.07 145.443 99.81 146.176 99.81C146.91 99.81 147.536 100.07 148.056 100.59C148.576 101.103 148.836 101.73 148.836 102.47ZM147.946 102.47C147.946 101.943 147.776 101.5 147.436 101.14C147.096 100.78 146.676 100.6 146.176 100.6C145.683 100.6 145.263 100.78 144.916 101.14C144.576 101.5 144.406 101.943 144.406 102.47C144.406 102.99 144.576 103.43 144.916 103.79C145.263 104.15 145.683 104.33 146.176 104.33C146.676 104.33 147.096 104.15 147.436 103.79C147.776 103.43 147.946 102.99 147.946 102.47ZM150.163 99.93L151.893 103.59L153.623 99.93H154.573L151.873 105.25L149.173 99.93H150.163ZM157.637 104.31C158.004 104.31 158.304 104.183 158.537 103.93C158.77 103.67 158.887 103.34 158.887 102.94V99.93H159.787V105H158.887V104.24C158.754 104.507 158.547 104.72 158.267 104.88C157.987 105.04 157.677 105.12 157.337 105.12C156.777 105.12 156.33 104.94 155.997 104.58C155.67 104.22 155.507 103.747 155.507 103.16V99.93H156.407V102.94C156.407 103.36 156.517 103.693 156.737 103.94C156.957 104.187 157.257 104.31 157.637 104.31ZM167.441 105H166.571V104.5C166.444 104.687 166.254 104.837 166.001 104.95C165.748 105.063 165.468 105.12 165.161 105.12C164.628 105.12 164.178 104.963 163.811 104.65C163.444 104.33 163.261 103.93 163.261 103.45C163.261 102.983 163.444 102.593 163.811 102.28C164.184 101.967 164.641 101.81 165.181 101.81C165.468 101.81 165.734 101.863 165.981 101.97C166.228 102.077 166.424 102.217 166.571 102.39V101.73C166.571 101.41 166.451 101.147 166.211 100.94C165.971 100.727 165.661 100.62 165.281 100.62C165.034 100.62 164.788 100.657 164.541 100.73C164.301 100.803 164.061 100.913 163.821 101.06V100.22C164.041 100.093 164.294 99.9933 164.581 99.92C164.868 99.8467 165.154 99.81 165.441 99.81C166.048 99.81 166.531 99.98 166.891 100.32C167.258 100.66 167.441 101.11 167.441 101.67V105ZM165.301 104.38C165.661 104.38 165.964 104.293 166.211 104.12C166.464 103.94 166.591 103.717 166.591 103.45C166.591 103.183 166.464 102.963 166.211 102.79C165.958 102.61 165.654 102.52 165.301 102.52C164.961 102.52 164.674 102.607 164.441 102.78C164.208 102.953 164.091 103.177 164.091 103.45C164.091 103.723 164.204 103.947 164.431 104.12C164.664 104.293 164.954 104.38 165.301 104.38ZM171.232 100.63C170.866 100.63 170.566 100.76 170.332 101.02C170.099 101.28 169.982 101.61 169.982 102.01V105H169.082V99.93H169.982V100.69C170.116 100.423 170.322 100.21 170.602 100.05C170.882 99.89 171.192 99.81 171.532 99.81C172.099 99.81 172.549 99.9933 172.882 100.36C173.216 100.72 173.382 101.193 173.382 101.78V105H172.482V102C172.482 101.58 172.369 101.247 172.142 101C171.922 100.753 171.619 100.63 171.232 100.63ZM174.61 102.47C174.61 101.723 174.853 101.093 175.34 100.58C175.826 100.067 176.423 99.81 177.13 99.81C177.536 99.81 177.916 99.92 178.27 100.14C178.63 100.353 178.883 100.623 179.03 100.95V97.4H179.93V105H179.03V103.98C178.883 104.313 178.633 104.587 178.28 104.8C177.926 105.013 177.543 105.12 177.13 105.12C176.423 105.12 175.826 104.863 175.34 104.35C174.853 103.837 174.61 103.21 174.61 102.47ZM179.06 102.47C179.06 101.95 178.886 101.51 178.54 101.15C178.2 100.783 177.78 100.6 177.28 100.6C176.78 100.6 176.356 100.783 176.01 101.15C175.67 101.51 175.5 101.95 175.5 102.47C175.5 102.99 175.673 103.433 176.02 103.8C176.366 104.16 176.786 104.34 177.28 104.34C177.773 104.34 178.193 104.16 178.54 103.8C178.886 103.433 179.06 102.99 179.06 102.47ZM184.968 100.67V103.36C184.968 103.667 185.044 103.907 185.198 104.08C185.358 104.253 185.578 104.34 185.858 104.34C186.024 104.34 186.178 104.317 186.318 104.27C186.464 104.217 186.601 104.14 186.728 104.04V104.86C186.594 104.94 186.438 105.003 186.258 105.05C186.078 105.097 185.894 105.12 185.708 105.12C185.201 105.12 184.801 104.97 184.508 104.67C184.214 104.37 184.068 103.96 184.068 103.44V100.67H183.188V99.93H184.068V98.57L184.968 98.25V99.93H186.468V100.67H184.968ZM190.109 100.63C189.742 100.63 189.442 100.76 189.209 101.02C188.976 101.28 188.859 101.61 188.859 102.01V105H187.959V97.4H188.859V100.69C188.992 100.423 189.199 100.21 189.479 100.05C189.759 99.89 190.069 99.81 190.409 99.81C190.976 99.81 191.426 99.9933 191.759 100.36C192.092 100.72 192.259 101.193 192.259 101.78V105H191.359V102C191.359 101.58 191.246 101.247 191.019 101C190.799 100.753 190.496 100.63 190.109 100.63ZM196.287 105.12C195.493 105.12 194.83 104.867 194.297 104.36C193.77 103.853 193.507 103.223 193.507 102.47C193.507 101.737 193.76 101.11 194.267 100.59C194.78 100.07 195.39 99.81 196.097 99.81C196.857 99.81 197.457 100.08 197.897 100.62C198.343 101.153 198.547 101.837 198.507 102.67H194.367C194.413 103.17 194.62 103.573 194.987 103.88C195.353 104.187 195.817 104.34 196.377 104.34C196.71 104.34 197.037 104.28 197.357 104.16C197.677 104.033 197.95 103.86 198.177 103.64V104.52C197.93 104.713 197.643 104.863 197.317 104.97C196.99 105.07 196.647 105.12 196.287 105.12ZM196.087 100.57C195.68 100.57 195.32 100.7 195.007 100.96C194.7 101.22 194.5 101.563 194.407 101.99H197.637C197.59 101.57 197.427 101.23 197.147 100.97C196.867 100.703 196.513 100.57 196.087 100.57ZM201.621 102.47C201.621 101.723 201.865 101.093 202.351 100.58C202.838 100.067 203.435 99.81 204.141 99.81C204.548 99.81 204.928 99.92 205.281 100.14C205.641 100.353 205.895 100.623 206.041 100.95V97.4H206.941V105H206.041V103.98C205.895 104.313 205.645 104.587 205.291 104.8C204.938 105.013 204.555 105.12 204.141 105.12C203.435 105.12 202.838 104.863 202.351 104.35C201.865 103.837 201.621 103.21 201.621 102.47ZM206.071 102.47C206.071 101.95 205.898 101.51 205.551 101.15C205.211 100.783 204.791 100.6 204.291 100.6C203.791 100.6 203.368 100.783 203.021 101.15C202.681 101.51 202.511 101.95 202.511 102.47C202.511 102.99 202.685 103.433 203.031 103.8C203.378 104.16 203.798 104.34 204.291 104.34C204.785 104.34 205.205 104.16 205.551 103.8C205.898 103.433 206.071 102.99 206.071 102.47ZM211.013 105.12C210.22 105.12 209.557 104.867 209.023 104.36C208.497 103.853 208.233 103.223 208.233 102.47C208.233 101.737 208.487 101.11 208.993 100.59C209.507 100.07 210.117 99.81 210.823 99.81C211.583 99.81 212.183 100.08 212.623 100.62C213.07 101.153 213.273 101.837 213.233 102.67H209.093C209.14 103.17 209.347 103.573 209.713 103.88C210.08 104.187 210.543 104.34 211.103 104.34C211.437 104.34 211.763 104.28 212.083 104.16C212.403 104.033 212.677 103.86 212.903 103.64V104.52C212.657 104.713 212.37 104.863 212.043 104.97C211.717 105.07 211.373 105.12 211.013 105.12ZM210.813 100.57C210.407 100.57 210.047 100.7 209.733 100.96C209.427 101.22 209.227 101.563 209.133 101.99H212.363C212.317 101.57 212.153 101.23 211.873 100.97C211.593 100.703 211.24 100.57 210.813 100.57ZM218.232 105H217.362V104.5C217.235 104.687 217.045 104.837 216.792 104.95C216.539 105.063 216.259 105.12 215.952 105.12C215.419 105.12 214.969 104.963 214.602 104.65C214.235 104.33 214.052 103.93 214.052 103.45C214.052 102.983 214.235 102.593 214.602 102.28C214.975 101.967 215.432 101.81 215.972 101.81C216.259 101.81 216.525 101.863 216.772 101.97C217.019 102.077 217.215 102.217 217.362 102.39V101.73C217.362 101.41 217.242 101.147 217.002 100.94C216.762 100.727 216.452 100.62 216.072 100.62C215.825 100.62 215.579 100.657 215.332 100.73C215.092 100.803 214.852 100.913 214.612 101.06V100.22C214.832 100.093 215.085 99.9933 215.372 99.92C215.659 99.8467 215.945 99.81 216.232 99.81C216.839 99.81 217.322 99.98 217.682 100.32C218.049 100.66 218.232 101.11 218.232 101.67V105ZM216.092 104.38C216.452 104.38 216.755 104.293 217.002 104.12C217.255 103.94 217.382 103.717 217.382 103.45C217.382 103.183 217.255 102.963 217.002 102.79C216.749 102.61 216.445 102.52 216.092 102.52C215.752 102.52 215.465 102.607 215.232 102.78C214.999 102.953 214.882 103.177 214.882 103.45C214.882 103.723 214.995 103.947 215.222 104.12C215.455 104.293 215.745 104.38 216.092 104.38ZM219.873 105V97.4H220.773V105H219.873ZM226.838 100.63C226.471 100.63 226.171 100.76 225.938 101.02C225.704 101.28 225.588 101.61 225.588 102.01V105H224.688V97.4H225.588V100.69C225.721 100.423 225.928 100.21 226.208 100.05C226.488 99.89 226.798 99.81 227.138 99.81C227.704 99.81 228.154 99.9933 228.488 100.36C228.821 100.72 228.988 101.193 228.988 101.78V105H228.088V102C228.088 101.58 227.974 101.247 227.748 101C227.528 100.753 227.224 100.63 226.838 100.63ZM234.345 105H233.475V104.5C233.348 104.687 233.158 104.837 232.905 104.95C232.652 105.063 232.372 105.12 232.065 105.12C231.532 105.12 231.082 104.963 230.715 104.65C230.348 104.33 230.165 103.93 230.165 103.45C230.165 102.983 230.348 102.593 230.715 102.28C231.088 101.967 231.545 101.81 232.085 101.81C232.372 101.81 232.638 101.863 232.885 101.97C233.132 102.077 233.328 102.217 233.475 102.39V101.73C233.475 101.41 233.355 101.147 233.115 100.94C232.875 100.727 232.565 100.62 232.185 100.62C231.938 100.62 231.692 100.657 231.445 100.73C231.205 100.803 230.965 100.913 230.725 101.06V100.22C230.945 100.093 231.198 99.9933 231.485 99.92C231.772 99.8467 232.058 99.81 232.345 99.81C232.952 99.81 233.435 99.98 233.795 100.32C234.162 100.66 234.345 101.11 234.345 101.67V105ZM232.205 104.38C232.565 104.38 232.868 104.293 233.115 104.12C233.368 103.94 233.495 103.717 233.495 103.45C233.495 103.183 233.368 102.963 233.115 102.79C232.862 102.61 232.558 102.52 232.205 102.52C231.865 102.52 231.578 102.607 231.345 102.78C231.112 102.953 230.995 103.177 230.995 103.45C230.995 103.723 231.108 103.947 231.335 104.12C231.568 104.293 231.858 104.38 232.205 104.38ZM235.626 104.62V103.71C235.853 103.923 236.103 104.09 236.376 104.21C236.656 104.323 236.936 104.38 237.216 104.38C237.516 104.38 237.753 104.317 237.926 104.19C238.106 104.063 238.196 103.89 238.196 103.67C238.196 103.517 238.156 103.39 238.076 103.29C237.996 103.19 237.843 103.087 237.616 102.98L236.706 102.55C236.326 102.37 236.063 102.183 235.916 101.99C235.776 101.79 235.706 101.547 235.706 101.26C235.706 100.847 235.866 100.503 236.186 100.23C236.506 99.95 236.91 99.81 237.396 99.81C237.663 99.81 237.916 99.85 238.156 99.93C238.403 100.01 238.626 100.127 238.826 100.28V101.16C238.586 100.96 238.346 100.81 238.106 100.71C237.873 100.61 237.64 100.56 237.406 100.56C237.146 100.56 236.936 100.62 236.776 100.74C236.623 100.86 236.546 101.02 236.546 101.22C236.546 101.353 236.586 101.47 236.666 101.57C236.753 101.663 236.943 101.78 237.236 101.92L238.126 102.34C238.453 102.493 238.686 102.673 238.826 102.88C238.973 103.08 239.046 103.33 239.046 103.63C239.046 104.063 238.873 104.42 238.526 104.7C238.18 104.98 237.75 105.12 237.236 105.12C236.943 105.12 236.653 105.077 236.366 104.99C236.086 104.897 235.84 104.773 235.626 104.62ZM242.199 104.62V103.71C242.425 103.923 242.675 104.09 242.949 104.21C243.229 104.323 243.509 104.38 243.789 104.38C244.089 104.38 244.325 104.317 244.499 104.19C244.679 104.063 244.769 103.89 244.769 103.67C244.769 103.517 244.729 103.39 244.649 103.29C244.569 103.19 244.415 103.087 244.189 102.98L243.279 102.55C242.899 102.37 242.635 102.183 242.489 101.99C242.349 101.79 242.279 101.547 242.279 101.26C242.279 100.847 242.439 100.503 242.759 100.23C243.079 99.95 243.482 99.81 243.969 99.81C244.235 99.81 244.489 99.85 244.729 99.93C244.975 100.01 245.199 100.127 245.399 100.28V101.16C245.159 100.96 244.919 100.81 244.679 100.71C244.445 100.61 244.212 100.56 243.979 100.56C243.719 100.56 243.509 100.62 243.349 100.74C243.195 100.86 243.119 101.02 243.119 101.22C243.119 101.353 243.159 101.47 243.239 101.57C243.325 101.663 243.515 101.78 243.809 101.92L244.699 102.34C245.025 102.493 245.259 102.673 245.399 102.88C245.545 103.08 245.619 103.33 245.619 103.63C245.619 104.063 245.445 104.42 245.099 104.7C244.752 104.98 244.322 105.12 243.809 105.12C243.515 105.12 243.225 105.077 242.939 104.99C242.659 104.897 242.412 104.773 242.199 104.62ZM247.995 100.67V103.36C247.995 103.667 248.072 103.907 248.225 104.08C248.385 104.253 248.605 104.34 248.885 104.34C249.052 104.34 249.205 104.317 249.345 104.27C249.492 104.217 249.628 104.14 249.755 104.04V104.86C249.622 104.94 249.465 105.003 249.285 105.05C249.105 105.097 248.922 105.12 248.735 105.12C248.228 105.12 247.828 104.97 247.535 104.67C247.242 104.37 247.095 103.96 247.095 103.44V100.67H246.215V99.93H247.095V98.57L247.995 98.25V99.93H249.495V100.67H247.995ZM254.706 105H253.836V104.5C253.71 104.687 253.52 104.837 253.266 104.95C253.013 105.063 252.733 105.12 252.426 105.12C251.893 105.12 251.443 104.963 251.076 104.65C250.71 104.33 250.526 103.93 250.526 103.45C250.526 102.983 250.71 102.593 251.076 102.28C251.45 101.967 251.906 101.81 252.446 101.81C252.733 101.81 253 101.863 253.246 101.97C253.493 102.077 253.69 102.217 253.836 102.39V101.73C253.836 101.41 253.716 101.147 253.476 100.94C253.236 100.727 252.926 100.62 252.546 100.62C252.3 100.62 252.053 100.657 251.806 100.73C251.566 100.803 251.326 100.913 251.086 101.06V100.22C251.306 100.093 251.56 99.9933 251.846 99.92C252.133 99.8467 252.42 99.81 252.706 99.81C253.313 99.81 253.796 99.98 254.156 100.32C254.523 100.66 254.706 101.11 254.706 101.67V105ZM252.566 104.38C252.926 104.38 253.23 104.293 253.476 104.12C253.73 103.94 253.856 103.717 253.856 103.45C253.856 103.183 253.73 102.963 253.476 102.79C253.223 102.61 252.92 102.52 252.566 102.52C252.226 102.52 251.94 102.607 251.706 102.78C251.473 102.953 251.356 103.177 251.356 103.45C251.356 103.723 251.47 103.947 251.696 104.12C251.93 104.293 252.22 104.38 252.566 104.38ZM258.968 99.86V100.76C258.448 100.68 258.024 100.783 257.698 101.07C257.371 101.35 257.208 101.783 257.208 102.37V105H256.308V99.93H257.208V100.85C257.361 100.51 257.598 100.25 257.918 100.07C258.238 99.8833 258.588 99.8133 258.968 99.86ZM261.266 100.67V103.36C261.266 103.667 261.343 103.907 261.496 104.08C261.656 104.253 261.876 104.34 262.156 104.34C262.323 104.34 262.476 104.317 262.616 104.27C262.763 104.217 262.9 104.14 263.026 104.04V104.86C262.893 104.94 262.736 105.003 262.556 105.05C262.376 105.097 262.193 105.12 262.006 105.12C261.5 105.12 261.1 104.97 260.806 104.67C260.513 104.37 260.366 103.96 260.366 103.44V100.67H259.486V99.93H260.366V98.57L261.266 98.25V99.93H262.766V100.67H261.266ZM266.492 105.12C265.698 105.12 265.035 104.867 264.502 104.36C263.975 103.853 263.712 103.223 263.712 102.47C263.712 101.737 263.965 101.11 264.472 100.59C264.985 100.07 265.595 99.81 266.302 99.81C267.062 99.81 267.662 100.08 268.102 100.62C268.548 101.153 268.752 101.837 268.712 102.67H264.572C264.618 103.17 264.825 103.573 265.192 103.88C265.558 104.187 266.022 104.34 266.582 104.34C266.915 104.34 267.242 104.28 267.562 104.16C267.882 104.033 268.155 103.86 268.382 103.64V104.52C268.135 104.713 267.848 104.863 267.522 104.97C267.195 105.07 266.852 105.12 266.492 105.12ZM266.292 100.57C265.885 100.57 265.525 100.7 265.212 100.96C264.905 101.22 264.705 101.563 264.612 101.99H267.842C267.795 101.57 267.632 101.23 267.352 100.97C267.072 100.703 266.718 100.57 266.292 100.57ZM269.58 102.47C269.58 101.723 269.824 101.093 270.31 100.58C270.797 100.067 271.394 99.81 272.1 99.81C272.507 99.81 272.887 99.92 273.24 100.14C273.6 100.353 273.854 100.623 274 100.95V97.4H274.9V105H274V103.98C273.854 104.313 273.604 104.587 273.25 104.8C272.897 105.013 272.514 105.12 272.1 105.12C271.394 105.12 270.797 104.863 270.31 104.35C269.824 103.837 269.58 103.21 269.58 102.47ZM274.03 102.47C274.03 101.95 273.857 101.51 273.51 101.15C273.17 100.783 272.75 100.6 272.25 100.6C271.75 100.6 271.327 100.783 270.98 101.15C270.64 101.51 270.47 101.95 270.47 102.47C270.47 102.99 270.644 103.433 270.99 103.8C271.337 104.16 271.757 104.34 272.25 104.34C272.744 104.34 273.164 104.16 273.51 103.8C273.857 103.433 274.03 102.99 274.03 102.47ZM276.982 103.79H276.992C277.172 103.79 277.322 103.85 277.442 103.97C277.569 104.09 277.632 104.24 277.632 104.42C277.632 104.6 277.569 104.75 277.442 104.87C277.322 104.99 277.172 105.05 276.992 105.05H276.982C276.802 105.05 276.649 104.99 276.522 104.87C276.402 104.75 276.342 104.6 276.342 104.42C276.342 104.24 276.402 104.09 276.522 103.97C276.649 103.85 276.802 103.79 276.982 103.79Z" fill="#222222"/>
<mask id="mask0_14_2692" style="mask-type:alpha" maskUnits="userSpaceOnUse" x="57" y="204" width="36" height="27">
<rect x="57" y="231" width="26.0002" height="36" rx="2" transform="rotate(-90 57 231)" fill="url(#paint1_linear_14_2692)"/>
</mask>
<g mask="url(#mask0_14_2692)">
<rect x="57" y="231" width="26.0002" height="36" rx="4" transform="rotate(-90 57 231)" fill="url(#paint2_linear_14_2692)"/>
<line y1="-0.1" x2="6.42938" y2="-0.1" transform="matrix(0.804226 0.594324 -0.572941 0.819596 70.0883 205)" stroke="#5B5B5B" stroke-width="0.2"/>
<line y1="-0.1" x2="6.75852" y2="-0.1" transform="matrix(-0.82483 0.56538 -0.544043 -0.839058 80.8335 205)" stroke="#5B5B5B" stroke-width="0.2"/>
<line y1="-0.1" x2="7.75376" y2="-0.1" transform="matrix(-0.791896 0.610656 -0.58932 -0.8079 75.4204 226.265)" stroke="#5B5B5B" stroke-width="0.2"/>
<line y1="-0.1" x2="7.62644" y2="-0.1" transform="matrix(0.783929 0.620851 -0.59957 0.800322 75.4204 226.265)" stroke="#5B5B5B" stroke-width="0.2"/>
<line x1="75.3589" y1="208.821" x2="75.3589" y2="213.805" stroke="#5B5B5B" stroke-width="0.2"/>
<line x1="75.5204" y1="222.278" x2="75.5204" y2="226.348" stroke="#5B5B5B" stroke-width="0.2"/>
<line x1="70.1074" y1="213.805" x2="70.1074" y2="222.278" stroke="#5B5B5B" stroke-width="0.2"/>
<line x1="70.0883" y1="213.705" x2="81.4799" y2="213.705" stroke="#5B5B5B" stroke-width="0.2"/>
<line x1="70.0883" y1="222.178" x2="75.5013" y2="222.178" stroke="#5B5B5B" stroke-width="0.2"/>
<line x1="81.499" y1="213.805" x2="81.499" y2="220.866" stroke="#5B5B5B" stroke-width="0.2"/>
<line y1="-0.1" x2="3.30463" y2="-0.1" transform="matrix(-0.684545 -0.72897 0.709684 -0.70452 83.8164 223.2)" stroke="#5B5B5B" stroke-width="0.2"/>
<line x1="93" y1="217.378" x2="81.3918" y2="217.378" stroke="#5B5B5B" stroke-width="0.2"/>
<line x1="93" y1="223.3" x2="83.7429" y2="223.3" stroke="#5B5B5B" stroke-width="0.2"/>
<line x1="93" y1="211.022" x2="83.6694" y2="211.022" stroke="#5B5B5B" stroke-width="0.2"/>
<line x1="70.0883" y1="217.56" x2="57" y2="217.56" stroke="#5B5B5B" stroke-width="0.2"/>
<line x1="66.2103" y1="209.668" x2="57.0808" y2="209.668" stroke="#5B5B5B" stroke-width="0.2"/>
<line x1="66.5334" y1="226.116" x2="57.0807" y2="226.116" stroke="#5B5B5B" stroke-width="0.2"/>
<line y1="-0.1" x2="5.79825" y2="-0.1" transform="matrix(0.682756 0.730646 -0.711413 0.702774 66.1295 209.568)" stroke="#5B5B5B" stroke-width="0.2"/>
<line y1="-0.1" x2="3.55413" y2="-0.1" transform="matrix(-0.63649 0.771285 -0.75355 -0.657391 83.6612 210.98)" stroke="#5B5B5B" stroke-width="0.2"/>
<line y1="-0.1" x2="5.27436" y2="-0.1" transform="matrix(-0.689302 0.724474 -0.70505 -0.709157 70.0883 222.194)" stroke="#5B5B5B" stroke-width="0.2"/>
</g>
<defs>
<filter id="filter0_d_14_2692" x="0" y="20" width="354" height="160" filterUnits="userSpaceOnUse" color-interpolation-filters="sRGB">
<feFlood flood-opacity="0" result="BackgroundImageFix"/>
<feColorMatrix in="SourceAlpha" type="matrix" values="0 0 0 0 0 0 0 0 0 0 0 0 0 0 0 0 0 0 127 0" result="hardAlpha"/>
<feOffset dy="12"/>
<feGaussianBlur stdDeviation="23.5"/>
<feComposite in2="hardAlpha" operator="out"/>
<feColorMatrix type="matrix" values="0 0 0 0 0 0 0 0 0 0 0 0 0 0 0 0 0 0 0.35 0"/>
<feBlend mode="normal" in2="BackgroundImageFix" result="effect1_dropShadow_14_2692"/>
<feBlend mode="normal" in="SourceGraphic" in2="effect1_dropShadow_14_2692" result="shape"/>
</filter>
<filter id="filter1_d_14_2692" x="0" y="121" width="354" height="261" filterUnits="userSpaceOnUse" color-interpolation-filters="sRGB">
<feFlood flood-opacity="0" result="BackgroundImageFix"/>
<feColorMatrix in="SourceAlpha" type="matrix" values="0 0 0 0 0 0 0 0 0 0 0 0 0 0 0 0 0 0 127 0" result="hardAlpha"/>
<feOffset dy="12"/>
<feGaussianBlur stdDeviation="23.5"/>
<feComposite in2="hardAlpha" operator="out"/>
<feColorMatrix type="matrix" values="0 0 0 0 0 0 0 0 0 0 0 0 0 0 0 0 0 0 0.35 0"/>
<feBlend mode="normal" in2="BackgroundImageFix" result="effect1_dropShadow_14_2692"/>
<feBlend mode="normal" in="SourceGraphic" in2="effect1_dropShadow_14_2692" result="shape"/>
</filter>
<linearGradient id="paint0_linear_14_2692" x1="30.3835" y1="150" x2="311.368" y2="330.09" gradientUnits="userSpaceOnUse">
<stop stop-color="#464E41"/>
<stop offset="1" stop-color="#ECECE6"/>
</linearGradient>
<linearGradient id="paint1_linear_14_2692" x1="57" y1="246.429" x2="83.0002" y2="246.429" gradientUnits="userSpaceOnUse">
<stop stop-color="#BDBDBD"/>
<stop offset="0.0427646" stop-color="#B9B9B9"/>
<stop offset="0.0769809" stop-color="#A6A5A5"/>
<stop offset="0.126595" stop-color="#A5A5A5"/>
<stop offset="0.188184" stop-color="#ADADAD"/>
<stop offset="0.268592" stop-color="#969696"/>
<stop offset="0.34729" stop-color="#A0A0A0"/>
<stop offset="0.520082" stop-color="#BFBFBF"/>
<stop offset="0.679188" stop-color="#979797"/>
<stop offset="0.778415" stop-color="#A3A3A3"/>
<stop offset="0.853691" stop-color="#AEAEAE"/>
<stop offset="0.940943" stop-color="#979797"/>
</linearGradient>
<linearGradient id="paint2_linear_14_2692" x1="57" y1="246.429" x2="83.0002" y2="246.429" gradientUnits="userSpaceOnUse">
<stop stop-color="#BDBDBD"/>
<stop offset="0.0427646" stop-color="#B9B9B9"/>
<stop offset="0.0769809" stop-color="#A6A5A5"/>
<stop offset="0.126595" stop-color="#A5A5A5"/>
<stop offset="0.188184" stop-color="#ADADAD"/>
<stop offset="0.268592" stop-color="#969696"/>
<stop offset="0.34729" stop-color="#A0A0A0"/>
<stop offset="0.520082" stop-color="#BFBFBF"/>
<stop offset="0.679188" stop-color="#979797"/>
<stop offset="0.778415" stop-color="#A3A3A3"/>
<stop offset="0.853691" stop-color="#AEAEAE"/>
<stop offset="0.940943" stop-color="#979797"/>
</linearGradient>
</defs>
</svg>
