<svg width="195" height="61" viewBox="0 0 195 61" fill="none" xmlns="http://www.w3.org/2000/svg">
<g clip-path="url(#clip0_9015_696)">
<path d="M194.005 54.8928C194.005 55.6965 193.861 56.4924 193.58 57.2349C193.299 57.9774 192.887 58.6519 192.368 59.22C191.85 59.788 191.234 60.2384 190.556 60.5454C189.878 60.8524 189.152 61.01 188.418 61.0091H5.59392C4.11212 61.0108 2.69037 60.3674 1.64135 59.2204C0.592327 58.0734 0.00193114 56.5168 0 54.8928V6.11656C0.00193025 4.49182 0.592093 2.93432 1.64091 1.78605C2.68972 0.637786 4.11145 -0.00739077 5.59392 -0.0078125H188.417C189.151 -0.00781253 189.877 0.150611 190.555 0.458409C191.233 0.766207 191.849 1.21735 192.368 1.78607C192.887 2.35479 193.298 3.02995 193.579 3.77298C193.859 4.51602 194.004 5.31237 194.004 6.11656L194.005 54.8928Z" fill="white" fill-opacity="0.1"/>
<path d="M43.5534 30.0536C43.5115 25.2182 47.3684 22.8657 47.5447 22.7562C45.3604 19.4511 41.9748 18.9995 40.7851 18.9635C37.9416 18.6529 35.1833 20.7293 33.7348 20.7293C32.2574 20.7293 30.0268 18.9935 27.6228 19.0445C24.5292 19.094 21.6351 20.9529 20.0478 23.8394C16.772 29.7251 19.2151 38.3742 22.3536 43.1316C23.9235 45.4631 25.758 48.0631 28.1591 47.9716C30.5082 47.8725 31.3857 46.4188 34.2206 46.4188C37.0294 46.4188 37.8534 47.9716 40.3022 47.913C42.8234 47.8725 44.4107 45.5726 45.9257 43.2217C47.7399 40.5526 48.4685 37.9211 48.4974 37.7861C48.4396 37.7651 43.6026 35.8477 43.5534 30.0536ZM38.9275 15.8339C40.1909 14.1941 41.0554 11.9632 40.8154 9.69922C38.9867 9.78323 36.6998 11.012 35.3828 12.6158C34.2177 14.029 33.1768 16.3455 33.4457 18.5239C35.4999 18.6829 37.6091 17.4482 38.9275 15.8339Z" fill="white"/>
<path d="M77.5774 47.6364H74.2944L72.496 41.7718H66.2452L64.5322 47.6364H61.3359L67.5304 27.6706H71.3555L77.5774 47.6364ZM71.9539 39.3113L70.3276 34.0978C70.1556 33.5652 69.8318 32.3109 69.3576 30.3366H69.2998C69.109 31.1857 68.804 32.44 68.3862 34.0978L66.7873 39.3113H71.9539ZM93.4762 40.261C93.4762 42.7094 92.8358 44.6448 91.5535 46.0656C90.4057 47.3303 88.9789 47.9619 87.2774 47.9619C85.44 47.9619 84.1187 47.2823 83.3164 45.9201V53.474H80.2344V37.9715C80.2344 36.4337 80.1954 34.8569 80.1202 33.2396H82.8307L83.0027 35.5216H83.0606C84.0884 33.8022 85.6482 32.9426 87.7414 32.9426C89.3779 32.9426 90.744 33.6132 91.8369 34.956C92.9283 36.3017 93.4762 38.069 93.4762 40.261ZM90.3363 40.378C90.3363 38.9767 90.0327 37.8215 89.4227 36.9108C88.7563 35.9641 87.8614 35.4901 86.7396 35.4901C85.9792 35.4901 85.2882 35.7541 84.671 36.2747C84.0523 36.7998 83.6475 37.4854 83.4581 38.3346C83.3736 38.6522 83.3255 38.979 83.315 39.3083V41.7102C83.315 42.7559 83.6244 43.6396 84.2431 44.3628C84.8618 45.0829 85.6656 45.4445 86.6544 45.4445C87.8152 45.4445 88.7187 44.9779 89.3649 44.0522C90.0125 43.1235 90.3363 41.8993 90.3363 40.378ZM109.431 40.261C109.431 42.7094 108.791 44.6448 107.509 46.0656C106.359 47.3303 104.934 47.9619 103.231 47.9619C101.394 47.9619 100.073 47.2823 99.2702 45.9201V53.474H96.1882V37.9715C96.1882 36.4337 96.1491 34.8569 96.0739 33.2396H98.7845L98.9565 35.5216H99.0143C100.041 33.8022 101.601 32.9426 103.695 32.9426C105.33 32.9426 106.696 33.6132 107.792 34.956C108.882 36.3017 109.431 38.069 109.431 40.261ZM106.29 40.378C106.29 38.9767 105.985 37.8215 105.375 36.9108C104.709 35.9641 103.817 35.4901 102.695 35.4901C101.934 35.4901 101.243 35.7541 100.623 36.2747C100.005 36.7998 99.6012 37.4854 99.4119 38.3346C99.3179 38.7307 99.2673 39.0532 99.2673 39.3083V41.7102C99.2673 42.7559 99.5781 43.6396 100.194 44.3628C100.813 45.0814 101.616 45.4445 102.608 45.4445C103.77 45.4445 104.674 44.9779 105.319 44.0522C105.966 43.1235 106.29 41.8993 106.29 40.378ZM127.27 42.0358C127.27 43.7356 126.698 45.1174 125.56 46.1841C124.308 47.3483 122.56 47.9319 120.32 47.9319C118.25 47.9319 116.59 47.5179 115.338 46.6882L116.051 44.0222C117.402 44.8533 118.887 45.2674 120.503 45.2674C121.666 45.2674 122.569 44.9944 123.214 44.4528C123.86 43.9097 124.187 43.1835 124.187 42.2774C124.187 41.4657 123.916 40.7861 123.386 40.2325C122.852 39.6804 121.971 39.1658 120.732 38.6932C117.363 37.3894 115.678 35.4826 115.678 32.9741C115.678 31.3358 116.273 29.9945 117.462 28.9458C118.65 27.8986 120.226 27.375 122.186 27.375C123.937 27.375 125.395 27.6916 126.553 28.3232L125.78 30.9307C124.69 30.3186 123.46 30.0125 122.083 30.0125C120.996 30.0125 120.143 30.2901 119.533 30.8422C119.02 31.3358 118.76 31.9374 118.76 32.6515C118.76 33.4392 119.056 34.0933 119.646 34.6064C120.158 35.079 121.092 35.5936 122.442 36.1457C124.099 36.8388 125.316 37.646 126.095 38.5731C126.88 39.5003 127.27 40.657 127.27 42.0358ZM137.486 35.6401H134.089V42.6299C134.089 44.4078 134.688 45.2944 135.887 45.2944C136.438 45.2944 136.895 45.2464 137.256 45.1459L137.342 47.5749C136.735 47.8104 135.935 47.9289 134.945 47.9289C133.728 47.9289 132.777 47.5434 132.09 46.7722C131.406 46.0011 131.062 44.7093 131.062 42.891V35.6341H129.038V33.2336H131.062V30.5976L134.089 29.6494V33.2336H137.486V35.6401ZM152.784 40.3195C152.784 42.5324 152.174 44.3493 150.957 45.77C149.683 47.2328 147.989 47.9619 145.877 47.9619C143.838 47.9619 142.218 47.2613 141.009 45.8615C139.801 44.4588 139.196 42.6914 139.196 40.5595C139.196 38.3286 139.821 36.5012 141.066 35.0805C142.313 33.6582 143.993 32.9471 146.105 32.9471C148.14 32.9471 149.775 33.6492 151.013 35.0505C152.195 36.4097 152.784 38.1651 152.784 40.3195ZM149.589 40.393C149.589 39.0742 149.314 37.943 148.764 36.9963C148.117 35.8531 147.192 35.2815 145.994 35.2815C144.759 35.2815 143.812 35.8531 143.168 36.9963C142.615 37.943 142.341 39.0937 142.341 40.453C142.341 41.7733 142.615 42.9075 143.168 43.8512C143.834 44.9944 144.764 45.566 145.968 45.566C147.146 45.566 148.07 44.9824 148.738 43.8227C149.304 42.8535 149.589 41.7147 149.589 40.393ZM162.806 36.0527C162.486 35.9926 162.16 35.963 161.835 35.9641C160.751 35.9641 159.912 36.3872 159.322 37.2394C158.811 37.9895 158.553 38.9377 158.553 40.0824V47.6364H155.471V37.7735C155.474 36.2622 155.444 34.751 155.382 33.2411H158.066L158.179 35.9957H158.264C158.591 35.049 159.103 34.2853 159.805 33.7137C160.448 33.2142 161.23 32.9438 162.033 32.9426C162.318 32.9426 162.575 32.9636 162.803 33.0011L162.806 36.0527ZM176.59 39.7569C176.598 40.2431 176.56 40.729 176.477 41.2077H167.231C167.266 42.6299 167.714 43.7191 168.573 44.4693C169.352 45.1384 170.36 45.4745 171.597 45.4745C172.966 45.4745 174.215 45.2494 175.338 44.7948L175.821 47.0138C174.508 47.6079 172.959 47.9034 171.17 47.9034C169.019 47.9034 167.331 47.2463 166.102 45.9351C164.876 44.6223 164.262 42.858 164.262 40.648C164.262 38.4786 164.833 36.6708 165.976 35.229C167.173 33.6897 168.791 32.9201 170.826 32.9201C172.826 32.9201 174.339 33.6897 175.367 35.229C176.181 36.4487 176.59 37.961 176.59 39.7569ZM173.651 38.9272C173.673 37.9775 173.47 37.1599 173.053 36.4682C172.519 35.5771 171.698 35.133 170.598 35.133C169.59 35.133 168.769 35.5666 168.145 36.4367C167.632 37.1284 167.327 37.9595 167.233 38.9242L173.651 38.9272Z" fill="white"/>
<path d="M65.3567 20.6121C64.4995 20.6121 63.7579 20.5686 63.1406 20.4951V10.8422C64.004 10.7038 64.8764 10.6356 65.75 10.6382C69.2845 10.6382 70.9122 12.4431 70.9122 15.3851C70.9122 18.7788 68.9896 20.6121 65.3567 20.6121ZM65.8743 11.8759C65.3972 11.8759 64.991 11.906 64.6542 11.978V19.3159C64.8363 19.3459 65.1862 19.3594 65.6777 19.3594C67.9935 19.3594 69.3119 17.9911 69.3119 15.4286C69.3119 13.1437 68.1193 11.8759 65.8743 11.8759ZM75.9849 20.6856C73.9928 20.6856 72.7019 19.1418 72.7019 17.0459C72.7019 14.8615 74.0203 13.3042 76.0976 13.3042C78.0608 13.3042 79.3806 14.7745 79.3806 16.9304C79.3806 19.1418 78.0203 20.6856 75.9849 20.6856ZM76.0427 14.4534C74.9484 14.4534 74.2472 15.5156 74.2472 17.0009C74.2472 18.4577 74.9628 19.5199 76.0282 19.5199C77.0936 19.5199 77.8092 18.3842 77.8092 16.9709C77.8092 15.5306 77.1081 14.4534 76.0427 14.4534ZM90.7402 13.4497L88.6079 20.5251H87.2187L86.3354 17.4525C86.1158 16.7009 85.933 15.9383 85.7875 15.1676H85.7586C85.6473 15.9387 85.4363 16.7114 85.2122 17.4525L84.2725 20.5251H82.8689L80.8624 13.4497H82.4193L83.1912 16.8134C83.3734 17.6145 83.5266 18.3707 83.6538 19.0848H83.6827C83.7941 18.4892 83.9762 17.7451 84.2436 16.8284L85.2122 13.4512H86.4467L87.3734 16.7564C87.5975 17.5575 87.7796 18.3437 87.9213 19.0863H87.9617C88.06 18.3587 88.2147 17.586 88.4243 16.7564L89.2527 13.4512L90.7402 13.4497ZM98.5899 20.5251H97.0749V16.4623C97.0749 15.2111 96.6123 14.584 95.7001 14.584C94.8024 14.584 94.1851 15.3851 94.1851 16.3168V20.5251H92.6701V15.4721C92.6701 14.8465 92.6556 14.1759 92.6137 13.4482H93.9466L94.0174 14.5405H94.0593C94.467 13.7843 95.2939 13.3042 96.2205 13.3042C97.6517 13.3042 98.5913 14.4399 98.5913 16.2883L98.5899 20.5251ZM102.768 20.5251H101.251V10.2031H102.768V20.5251ZM108.291 20.6856C106.301 20.6856 105.008 19.1418 105.008 17.0459C105.008 14.8615 106.327 13.3042 108.403 13.3042C110.367 13.3042 111.686 14.7745 111.686 16.9304C111.687 19.1418 110.325 20.6856 108.291 20.6856ZM108.348 14.4534C107.253 14.4534 106.552 15.5156 106.552 17.0009C106.552 18.4577 107.269 19.5199 108.332 19.5199C109.399 19.5199 110.113 18.3842 110.113 16.9709C110.114 15.5306 109.415 14.4534 108.348 14.4534ZM117.659 20.5251L117.549 19.7104H117.509C117.046 20.3661 116.371 20.6856 115.515 20.6856C114.294 20.6856 113.426 19.7975 113.426 18.6032C113.426 16.8569 114.885 15.9537 117.41 15.9537V15.8232C117.41 14.8915 116.935 14.4249 115.995 14.4249C115.323 14.4249 114.733 14.6005 114.214 14.95L113.906 13.9163C114.536 13.5083 115.323 13.3042 116.247 13.3042C118.028 13.3042 118.927 14.2794 118.927 16.2313V18.8373C118.927 19.5514 118.957 20.105 119.025 20.5266L117.659 20.5251ZM117.451 17.0009C115.768 17.0009 114.924 17.424 114.924 18.4277C114.924 19.1703 115.359 19.5334 115.963 19.5334C116.734 19.5334 117.451 18.9228 117.451 18.0931V17.0009ZM126.283 20.5251L126.213 19.3894H126.171C125.736 20.2476 125.004 20.6856 123.982 20.6856C122.338 20.6856 121.121 19.1853 121.121 17.0744C121.121 14.8615 122.383 13.3027 124.106 13.3027C125.019 13.3027 125.665 13.6223 126.029 14.2644H126.059V10.2031H127.576V18.6182C127.576 19.3024 127.592 19.943 127.632 20.5251H126.283ZM126.059 16.3618C126.059 15.3716 125.428 14.527 124.463 14.527C123.34 14.527 122.653 15.5607 122.653 17.0159C122.653 18.4427 123.366 19.4194 124.433 19.4194C125.386 19.4194 126.059 18.5597 126.059 17.541V16.3618ZM137.191 20.6856C135.2 20.6856 133.909 19.1418 133.909 17.0459C133.909 14.8615 135.227 13.3042 137.303 13.3042C139.268 13.3042 140.586 14.7745 140.586 16.9304C140.588 19.1418 139.227 20.6856 137.191 20.6856ZM137.247 14.4534C136.154 14.4534 135.453 15.5156 135.453 17.0009C135.453 18.4577 136.168 19.5199 137.232 19.5199C138.299 19.5199 139.013 18.3842 139.013 16.9709C139.016 15.5306 138.315 14.4534 137.247 14.4534ZM148.734 20.5251H147.217V16.4623C147.217 15.2111 146.755 14.584 145.843 14.584C144.945 14.584 144.329 15.3851 144.329 16.3168V20.5251H142.813V15.4721C142.813 14.8465 142.798 14.1759 142.756 13.4482H144.089L144.16 14.5405H144.202C144.608 13.7843 145.436 13.3027 146.361 13.3027C147.793 13.3027 148.734 14.4384 148.734 16.2868V20.5251ZM158.927 14.629H157.26V18.0646C157.26 18.9393 157.552 19.3759 158.142 19.3759C158.409 19.3759 158.633 19.3459 158.814 19.3024L158.856 20.4966C158.562 20.6136 158.169 20.6721 157.681 20.6721C156.487 20.6721 155.772 19.988 155.772 18.1967V14.629H154.778V13.4497H155.772V12.1535L157.26 11.6869V13.4482H158.927V14.629ZM166.947 20.5251H165.433V16.4923C165.433 15.2261 164.972 14.5855 164.059 14.5855C163.274 14.5855 162.542 15.1391 162.542 16.2598V20.5251H161.029V10.2031H162.542V14.4534H162.573C163.05 13.6823 163.741 13.3027 164.622 13.3027C166.065 13.3027 166.947 14.4669 166.947 16.3168V20.5251ZM175.164 17.3655H170.617C170.646 18.7053 171.501 19.4614 172.766 19.4614C173.438 19.4614 174.056 19.3444 174.603 19.1268L174.839 20.219C174.194 20.5101 173.435 20.6556 172.552 20.6556C170.419 20.6556 169.157 19.2574 169.157 17.0894C169.157 14.92 170.45 13.2892 172.381 13.2892C174.123 13.2892 175.216 14.629 175.216 16.6529C175.226 16.8917 175.208 17.1309 175.164 17.3655ZM173.775 16.2448C173.775 15.1526 173.244 14.3814 172.275 14.3814C171.405 14.3814 170.717 15.1676 170.619 16.2448H173.775Z" fill="white"/>
</g>
<defs>
<clipPath id="clip0_9015_696">
<rect width="195" height="60" fill="white" transform="translate(0 0.371094)"/>
</clipPath>
</defs>
</svg>
