<svg width="620" height="900" viewBox="0 0 620 900" fill="none" xmlns="http://www.w3.org/2000/svg">
<g clip-path="url(#clip0_7232_43932)">
<rect width="720" height="900" fill="#BFC3B0"/>
<g opacity="0.2">
<path opacity="0.2" d="M39.8554 952.002L40.0691 885.604L-26.966 885.35L-27.1797 951.749L39.8554 952.002Z" fill="black"/>
<path opacity="0.2" d="M39.8554 880.862L40.0691 814.463L-26.966 814.209L-27.1797 880.608L39.8554 880.862Z" fill="black"/>
<path opacity="0.1" d="M111.691 880.862L111.905 814.463L44.8699 814.209L44.6563 880.608L111.691 880.862Z" fill="black"/>
<path opacity="0.2" d="M183.512 880.862L183.725 814.463L116.69 814.209L116.477 880.608L183.512 880.862Z" fill="black"/>
<path opacity="0.2" d="M183.512 952.002L183.725 885.604L116.69 885.35L116.477 951.749L183.512 952.002Z" fill="black"/>
<path opacity="0.2" d="M255.332 952.002L255.546 885.604L188.511 885.35L188.297 951.749L255.332 952.002Z" fill="black"/>
<path opacity="0.2" d="M327.156 880.862L327.37 814.463L260.335 814.209L260.121 880.608L327.156 880.862Z" fill="black"/>
<path opacity="0.05" d="M39.8554 809.717L40.0691 743.318L-26.966 743.065L-27.1797 809.463L39.8554 809.717Z" fill="black"/>
<path opacity="0.2" d="M111.691 809.717L111.905 743.318L44.8699 743.065L44.6563 809.463L111.691 809.717Z" fill="black"/>
<path opacity="0.4" d="M111.691 738.575L111.905 672.176L44.8699 671.922L44.6563 738.321L111.691 738.575Z" fill="black"/>
<path opacity="0.4" d="M182.484 667.297L182.698 600.898L115.663 600.645L115.449 667.044L182.484 667.297Z" fill="black"/>
<path opacity="0.4" d="M182.484 809.717L182.698 743.318L115.663 743.065L115.449 809.463L182.484 809.717Z" fill="black"/>
<path opacity="0.2" d="M255.332 738.575L255.546 672.176L188.511 671.922L188.297 738.321L255.332 738.575Z" fill="black"/>
<path opacity="0.1" d="M327.156 738.575L327.37 672.176L260.335 671.922L260.121 738.321L327.156 738.575Z" fill="black"/>
<path opacity="0.05" d="M327.156 809.717L327.37 743.318L260.335 743.065L260.121 809.463L327.156 809.717Z" fill="black"/>
<path opacity="0.5" d="M39.8554 596.289L40.0691 529.891L-26.966 529.637L-27.1797 596.036L39.8554 596.289Z" fill="black"/>
<path opacity="0.2" d="M183.512 596.288L183.725 529.889L116.69 529.635L116.477 596.034L183.512 596.288Z" fill="black"/>
<path opacity="0.2" d="M183.512 667.434L183.725 601.035L116.69 600.781L116.477 667.18L183.512 667.434Z" fill="black"/>
<path opacity="0.05" d="M255.332 596.288L255.546 529.889L188.511 529.635L188.297 596.034L255.332 596.288Z" fill="black"/>
<path opacity="0.2" d="M255.332 667.434L255.546 601.035L188.511 600.781L188.297 667.18L255.332 667.434Z" fill="black"/>
<path opacity="0.05" d="M398.981 809.717L399.194 743.318L332.159 743.065L331.945 809.463L398.981 809.717Z" fill="black"/>
<path opacity="0.2" d="M327.156 667.434L327.37 601.035L260.335 600.781L260.121 667.18L327.156 667.434Z" fill="black"/>
<path opacity="0.2" d="M327.156 596.288L327.37 529.889L260.335 529.635L260.121 596.034L327.156 596.288Z" fill="black"/>
<path opacity="0.05" d="M327.156 667.434L327.37 601.035L260.335 600.781L260.121 667.18L327.156 667.434Z" fill="black"/>
<path opacity="0.1" d="M398.981 667.434L399.194 601.035L332.159 600.781L331.945 667.18L398.981 667.434Z" fill="black"/>
<path opacity="0.05" d="M39.8554 525.149L40.0691 458.75L-26.966 458.496L-27.1797 524.895L39.8554 525.149Z" fill="black"/>
<path opacity="0.2" d="M39.8554 454.008L40.0691 387.609L-26.966 387.356L-27.1797 453.754L39.8554 454.008Z" fill="black"/>
<path opacity="0.05" d="M111.691 454.008L111.905 387.609L44.8699 387.356L44.6563 453.754L111.691 454.008Z" fill="black"/>
<path opacity="0.5" d="M182.484 524.131L182.698 457.732L115.663 457.479L115.449 523.877L182.484 524.131Z" fill="black"/>
<path opacity="0.1" d="M255.332 454.008L255.546 387.609L188.511 387.356L188.297 453.754L255.332 454.008Z" fill="black"/>
<path opacity="0.2" d="M327.156 454.008L327.37 387.609L260.335 387.356L260.121 453.754L327.156 454.008Z" fill="black"/>
<path opacity="0.05" d="M327.156 525.149L327.37 458.75L260.335 458.496L260.121 524.895L327.156 525.149Z" fill="black"/>
<path opacity="0.05" d="M398.981 454.008L399.194 387.609L332.159 387.356L331.945 453.754L398.981 454.008Z" fill="black"/>
<path opacity="0.2" d="M398.981 525.149L399.194 458.75L332.159 458.496L331.945 524.895L398.981 525.149Z" fill="black"/>
<path opacity="0.05" d="M39.8554 311.723L40.0691 245.324L-26.966 245.07L-27.1797 311.469L39.8554 311.723Z" fill="black"/>
<path opacity="0.05" d="M39.8554 240.579L40.0691 174.18L-26.966 173.926L-27.1797 240.325L39.8554 240.579Z" fill="black"/>
<path opacity="0.05" d="M111.691 382.866L111.905 316.467L44.8699 316.213L44.6563 382.612L111.691 382.866Z" fill="black"/>
<path opacity="0.05" d="M183.512 382.866L183.725 316.467L116.69 316.213L116.477 382.612L183.512 382.866Z" fill="black"/>
<path opacity="0.1" d="M255.332 240.579L255.546 174.18L188.511 173.926L188.297 240.325L255.332 240.579Z" fill="black"/>
<path opacity="0.1" d="M255.332 169.653L255.546 103.254L188.511 103L188.297 169.399L255.332 169.653Z" fill="black"/>
<path opacity="0.05" d="M255.332 382.866L255.546 316.467L188.511 316.213L188.297 382.612L255.332 382.866Z" fill="black"/>
<path opacity="0.2" d="M327.156 311.723L327.37 245.324L260.335 245.07L260.121 311.469L327.156 311.723Z" fill="black"/>
<path opacity="0.05" d="M327.156 382.866L327.37 316.467L260.335 316.213L260.121 382.612L327.156 382.866Z" fill="black"/>
<path opacity="0.05" d="M470.805 667.434L471.018 601.035L403.983 600.781L403.77 667.18L470.805 667.434Z" fill="black"/>
<path opacity="0.05" d="M470.805 454.008L471.018 387.609L403.983 387.356L403.77 453.754L470.805 454.008Z" fill="black"/>
<path opacity="0.2" d="M470.805 382.866L471.018 316.467L403.983 316.213L403.77 382.612L470.805 382.866Z" fill="black"/>
</g>
<g opacity="0.2">
<path opacity="0.2" d="M619.506 738.862L619.292 672.463L686.327 672.209L686.541 738.608L619.506 738.862Z" fill="black"/>
<path opacity="0.2" d="M619.506 810.002L619.292 743.604L686.327 743.35L686.541 809.749L619.506 810.002Z" fill="black"/>
<path opacity="0.2" d="M547.685 810.002L547.472 743.604L614.507 743.35L614.72 809.749L547.685 810.002Z" fill="black"/>
<path opacity="0.2" d="M475.861 738.862L475.647 672.463L542.682 672.209L542.896 738.608L475.861 738.862Z" fill="black"/>
<path opacity="0.2" d="M547.685 596.575L547.471 530.176L614.507 529.922L614.72 596.321L547.685 596.575Z" fill="black"/>
<path opacity="0.1" d="M475.861 596.575L475.647 530.176L542.682 529.922L542.896 596.321L475.861 596.575Z" fill="black"/>
<path opacity="0.05" d="M475.861 667.717L475.647 601.318L542.682 601.065L542.896 667.463L475.861 667.717Z" fill="black"/>
<path opacity="0.2" d="M619.506 454.288L619.292 387.889L686.327 387.635L686.541 454.034L619.506 454.288Z" fill="black"/>
<path opacity="0.2" d="M619.506 525.434L619.292 459.035L686.327 458.781L686.541 525.18L619.506 525.434Z" fill="black"/>
<path opacity="0.05" d="M547.685 454.288L547.472 387.889L614.507 387.635L614.72 454.034L547.685 454.288Z" fill="black"/>
<path opacity="0.2" d="M547.685 525.434L547.472 459.035L614.507 458.781L614.72 525.18L547.685 525.434Z" fill="black"/>
<path opacity="0.05" d="M404.037 667.717L403.823 601.318L470.858 601.065L471.072 667.463L404.037 667.717Z" fill="black"/>
<path opacity="0.2" d="M475.861 525.434L475.647 459.035L542.682 458.781L542.896 525.18L475.861 525.434Z" fill="black"/>
<path opacity="0.2" d="M475.861 454.288L475.647 387.889L542.682 387.635L542.896 454.034L475.861 454.288Z" fill="black"/>
<path opacity="0.05" d="M475.861 525.434L475.647 459.035L542.682 458.781L542.896 525.18L475.861 525.434Z" fill="black"/>
<path opacity="0.1" d="M404.037 525.434L403.823 459.035L470.858 458.781L471.072 525.18L404.037 525.434Z" fill="black"/>
<path opacity="0.1" d="M547.685 312.008L547.472 245.609L614.507 245.356L614.72 311.754L547.685 312.008Z" fill="black"/>
<path opacity="0.2" d="M475.861 312.008L475.647 245.609L542.682 245.356L542.896 311.754L475.861 312.008Z" fill="black"/>
<path opacity="0.05" d="M475.861 383.149L475.647 316.75L542.682 316.496L542.896 382.895L475.861 383.149Z" fill="black"/>
<path opacity="0.05" d="M404.037 312.008L403.823 245.609L470.858 245.356L471.072 311.754L404.037 312.008Z" fill="black"/>
<path opacity="0.2" d="M404.037 383.149L403.823 316.75L470.858 316.496L471.072 382.895L404.037 383.149Z" fill="black"/>
<path opacity="0.05" d="M619.505 240.866L619.292 174.467L686.327 174.213L686.541 240.612L619.505 240.866Z" fill="black"/>
<path opacity="0.1" d="M547.685 98.5786L547.472 32.1797L614.507 31.9259L614.72 98.3248L547.685 98.5786Z" fill="black"/>
<path opacity="0.1" d="M547.685 27.6528L547.471 -38.7461L614.507 -38.9999L614.72 27.399L547.685 27.6528Z" fill="black"/>
<path opacity="0.05" d="M547.685 240.866L547.471 174.467L614.507 174.213L614.72 240.612L547.685 240.866Z" fill="black"/>
<path opacity="0.2" d="M475.861 169.723L475.647 103.324L542.682 103.07L542.896 169.469L475.861 169.723Z" fill="black"/>
<path opacity="0.05" d="M475.861 240.866L475.647 174.467L542.682 174.213L542.896 240.612L475.861 240.866Z" fill="black"/>
<path opacity="0.05" d="M332.212 525.434L331.999 459.035L399.034 458.781L399.248 525.18L332.212 525.434Z" fill="black"/>
<path opacity="0.05" d="M332.212 312.008L331.999 245.609L399.034 245.356L399.248 311.754L332.212 312.008Z" fill="black"/>
<path opacity="0.2" d="M332.212 240.866L331.999 174.467L399.034 174.213L399.248 240.612L332.212 240.866Z" fill="black"/>
</g>
</g>
<defs>
<clipPath id="clip0_7232_43932">
<rect width="620" height="900" fill="white"/>
</clipPath>
</defs>
</svg>
