<svg width="180" height="48" viewBox="0 0 180 48" fill="none" xmlns="http://www.w3.org/2000/svg">
<path d="M51.344 39.8164V28.9364H54.752C55.936 28.9364 56.9493 29.2084 57.792 29.7524C58.6347 30.2857 59.056 31.1764 59.056 32.4244C59.056 33.6617 58.6027 34.5737 57.696 35.1604C56.7893 35.7364 55.76 36.0244 54.608 36.0244H53.408V39.8164H51.344ZM54.688 30.6644H53.408V34.3124H54.72C55.3387 34.3124 55.84 34.1737 56.224 33.8964C56.608 33.6084 56.8213 33.1604 56.864 32.5524C56.864 31.8484 56.672 31.3577 56.288 31.0804C55.904 30.8031 55.3707 30.6644 54.688 30.6644ZM65.0468 30.6644H63.7668V33.9924H65.0788C65.6974 33.9924 66.2094 33.8697 66.6148 33.6244C67.0201 33.3684 67.2228 32.9524 67.2228 32.3764C67.2228 31.7684 67.0308 31.3311 66.6468 31.0644C66.2628 30.7977 65.7294 30.6644 65.0468 30.6644ZM68.0228 39.8164L65.7188 35.6564C65.6014 35.6671 65.4788 35.6777 65.3508 35.6884C65.2228 35.6884 65.0948 35.6884 64.9668 35.6884H63.7668V39.8164H61.7028V28.9364H65.1108C66.2948 28.9364 67.3081 29.2084 68.1508 29.7524C68.9934 30.2964 69.4148 31.1391 69.4148 32.2804C69.4148 32.9524 69.2388 33.5337 68.8868 34.0244C68.5454 34.5044 68.1028 34.8777 67.5588 35.1444L70.2308 39.8164H68.0228ZM79.99 39.8164H72.374V28.9364H78.87L79.19 30.5684H74.438V33.4964H77.35L77.686 35.1444H74.438V38.2004H79.654L79.99 39.8164ZM86.9673 36.5204L84.3593 33.1764V39.8164H82.2953V28.9364H83.6073L87.2873 33.9604L90.6313 28.9364H91.8953V39.8164H89.7993V33.5444L87.7673 36.4084L86.9673 36.5204ZM97.2649 28.9364V39.8164H95.2009V28.9364H97.2649ZM108.207 39.8164H100.591V28.9364H107.087L107.407 30.5684H102.655V33.4964H105.567L105.903 35.1444H102.655V38.2004H107.871L108.207 39.8164ZM113.856 30.6644H112.576V33.9924H113.888C114.507 33.9924 115.019 33.8697 115.424 33.6244C115.829 33.3684 116.032 32.9524 116.032 32.3764C116.032 31.7684 115.84 31.3311 115.456 31.0644C115.072 30.7977 114.539 30.6644 113.856 30.6644ZM116.832 39.8164L114.528 35.6564C114.411 35.6671 114.288 35.6777 114.16 35.6884C114.032 35.6884 113.904 35.6884 113.776 35.6884H112.576V39.8164H110.512V28.9364H113.92C115.104 28.9364 116.117 29.2084 116.96 29.7524C117.803 30.2964 118.224 31.1391 118.224 32.2804C118.224 32.9524 118.048 33.5337 117.696 34.0244C117.355 34.5044 116.912 34.8777 116.368 35.1444L119.04 39.8164H116.832Z" fill="#222222"/>
<path d="M55.648 18.8164H51.184V7.93641H55.648C57.344 7.93641 58.624 8.44307 59.488 9.45641C60.352 10.4591 60.784 11.7444 60.784 13.3124C60.784 14.9977 60.3147 16.3364 59.376 17.3284C58.4373 18.3204 57.1947 18.8164 55.648 18.8164ZM55.616 10.0484H53.808V16.7204H55.504C56.2507 16.7204 56.864 16.4484 57.344 15.9044C57.824 15.3497 58.064 14.4857 58.064 13.3124C58.064 12.3417 57.856 11.5577 57.44 10.9604C57.0347 10.3524 56.4267 10.0484 55.616 10.0484ZM67.8699 11.2004L66.7019 14.4484H69.0859L67.8699 11.2004ZM69.1819 7.93641L73.2939 18.5284L70.7019 18.8164L69.8539 16.5284H65.9659L65.1339 18.8164H62.5259L66.6539 7.93641H69.1819ZM81.6524 14.5444H78.2124V18.8164H75.5884V7.93641H82.3404C82.3937 8.27774 82.4417 8.62441 82.4844 8.97641C82.5377 9.32841 82.5857 9.67507 82.6284 10.0164H78.2124V12.4804H81.3644L81.6524 14.5444ZM89.0506 10.0484H87.5786V13.0724H89.0826C89.5946 13.0724 90.0106 12.9444 90.3306 12.6884C90.6613 12.4217 90.8266 12.0484 90.8266 11.5684C90.8266 11.0457 90.6666 10.6617 90.3466 10.4164C90.0373 10.1711 89.6053 10.0484 89.0506 10.0484ZM91.4666 18.8164C91.136 18.2084 90.8106 17.6004 90.4906 16.9924C90.1706 16.3737 89.8506 15.7604 89.5306 15.1524C89.4453 15.1631 89.3546 15.1684 89.2586 15.1684C89.1733 15.1684 89.088 15.1684 89.0026 15.1684H87.5786V18.8164H84.9546V7.93641H89.1306C90.336 7.93641 91.376 8.22441 92.2506 8.80041C93.1253 9.36574 93.5626 10.2777 93.5626 11.5364C93.5626 12.1977 93.408 12.7737 93.0986 13.2644C92.8 13.7444 92.4213 14.1231 91.9626 14.4004C92.3786 15.1364 92.7893 15.8777 93.1946 16.6244C93.6106 17.3604 94.0266 18.0911 94.4426 18.8164H91.4666ZM99.3824 7.93641V18.8164H96.7584V7.93641H99.3824Z" fill="#222222"/>
<path fill-rule="evenodd" clip-rule="evenodd" d="M2.59009 11.4864C2.59009 11.8564 2.89008 12.1664 3.27008 12.1664H13.2201C13.5901 12.1664 13.9001 11.8664 13.9001 11.4864V1.49641C13.9001 1.12641 13.6001 0.816406 13.2201 0.816406H3.27008C2.90008 0.816406 2.59009 1.11641 2.59009 1.49641V11.4864Z" fill="#464E41"/>
<path fill-rule="evenodd" clip-rule="evenodd" d="M13.21 23.2366C13.21 23.6066 13.51 23.9166 13.89 23.9166H25C25.37 23.9166 25.68 23.6166 25.68 23.2366V12.1566C25.68 11.7866 25.38 11.4766 25 11.4766H13.89C13.52 11.4766 13.21 11.7766 13.21 12.1566V23.2366Z" fill="#464E41"/>
<path fill-rule="evenodd" clip-rule="evenodd" d="M24.9404 34.958C24.9404 35.328 25.2404 35.638 25.6204 35.638H36.7304C37.1004 35.638 37.4104 35.338 37.4104 34.958V23.848C37.4104 23.478 37.1104 23.168 36.7304 23.168H25.6204C25.2504 23.168 24.9404 23.468 24.9404 23.848V34.958Z" fill="#464E41"/>
<path fill-rule="evenodd" clip-rule="evenodd" d="M13.21 46.5049C13.21 46.8749 13.51 47.1848 13.89 47.1848H25C25.37 47.1848 25.68 46.8849 25.68 46.5049V35.3948C25.68 35.0248 25.38 34.7148 25 34.7148H13.89C13.52 34.7148 13.21 35.0148 13.21 35.3948V46.5049Z" fill="#464E41"/>
<path fill-rule="evenodd" clip-rule="evenodd" d="M4.44995 33.5858C4.44995 33.9558 4.74997 34.2658 5.12997 34.2658H11.86C12.23 34.2658 12.54 33.9658 12.54 33.5858V26.8558C12.54 26.4858 12.24 26.1758 11.86 26.1758H5.12997C4.75997 26.1758 4.44995 26.4758 4.44995 26.8558V33.5858Z" fill="#464E41"/>
<path fill-rule="evenodd" clip-rule="evenodd" d="M0 38.0356C0 38.4056 0.299993 38.7156 0.679993 38.7156H3.76999C4.13999 38.7156 4.44998 38.4156 4.44998 38.0356V34.9456C4.44998 34.5756 4.14999 34.2656 3.76999 34.2656H0.679993C0.309993 34.2656 0 34.5656 0 34.9456V38.0356Z" fill="#464E41"/>
</svg>
