<svg width="100" height="48" viewBox="0 0 100 48" fill="none" xmlns="http://www.w3.org/2000/svg">
<g clip-path="url(#clip0_7232_41886)">
<path d="M13.9368 34.1514C20.3589 34.1514 25.565 28.9898 25.565 22.6226C25.565 16.2554 20.3589 11.0938 13.9368 11.0938C7.51473 11.0938 2.30859 16.2554 2.30859 22.6226C2.30859 28.9898 7.51473 34.1514 13.9368 34.1514Z" fill="#FF7700"/>
<path d="M13.5675 18.1161C14.3651 18.1161 15.0191 18.7645 15.0191 19.5552V27.4783C15.0191 28.2691 14.3651 28.9174 13.5675 28.9174C12.77 28.9174 12.116 28.2691 12.116 27.4783V19.5552C12.116 18.7645 12.77 18.1161 13.5675 18.1161ZM8.84607 20.8204C9.64361 20.8204 10.2976 21.4688 10.2976 22.2595V27.4783C10.2976 28.2691 9.64361 28.9174 8.84607 28.9174C8.04852 28.9174 7.39453 28.2691 7.39453 27.4783V22.2595C7.39453 21.4688 8.03257 20.8204 8.84607 20.8204ZM18.289 15.6016C19.0866 15.6016 19.7405 16.25 19.7405 17.0407V27.4941C19.7405 28.2849 19.0866 28.9333 18.289 28.9333C17.4915 28.9333 16.8375 28.2849 16.8375 27.4941V17.0407C16.8375 16.25 17.4915 15.6016 18.289 15.6016Z" fill="white"/>
<path d="M31.6579 17.7496C31.4506 17.7496 31.2272 17.7022 31.0358 17.6231C30.8444 17.544 30.669 17.4333 30.5254 17.2752C30.3818 17.1328 30.2702 16.9589 30.1745 16.7691C30.0947 16.5793 30.0469 16.3737 30.0469 16.1365C30.0469 15.9151 30.0947 15.6937 30.1745 15.5039C30.2542 15.3142 30.3659 15.1402 30.5254 14.9979C30.669 14.8555 30.8444 14.729 31.0358 14.65C31.2272 14.5709 31.4506 14.5234 31.6579 14.5234C32.1045 14.5234 32.4874 14.6816 32.8064 14.9821C33.1254 15.2984 33.2849 15.6621 33.2849 16.1049C33.2849 16.5477 33.1254 16.9273 32.8064 17.2277C32.4874 17.5915 32.1045 17.7496 31.6579 17.7496ZM30.4137 28.3928V19.0939H32.918V28.3928H30.4137ZM41.069 28.5984V27.27C40.8457 27.6654 40.4788 27.9975 40.0003 28.2821C39.5217 28.5668 38.9156 28.6933 38.1978 28.6933C37.5917 28.6933 37.0334 28.5668 36.491 28.3296C35.9487 28.0765 35.4702 27.7286 35.0555 27.3016C34.6407 26.8588 34.3058 26.3369 34.0665 25.736C33.8272 25.135 33.6996 24.4708 33.6996 23.7433C33.6996 23.0159 33.8272 22.3517 34.0665 21.7507C34.3058 21.1498 34.6407 20.6279 35.0555 20.1851C35.4702 19.7581 35.9487 19.4101 36.491 19.1571C37.0334 18.9041 37.6076 18.7776 38.1978 18.7934C38.9156 18.7934 39.5058 18.9357 40.0003 19.2046C40.4788 19.4892 40.8457 19.8213 41.069 20.2167V19.0939H43.5733V32.4888H41.069V28.5984ZM38.7082 26.4002C39.0432 26.4002 39.3622 26.3369 39.6493 26.2262C39.9524 26.0997 40.2236 25.9258 40.4469 25.7044C40.6702 25.483 40.8616 25.1983 41.0052 24.8662C41.1487 24.5341 41.2125 24.1703 41.2125 23.7433C41.2125 23.3164 41.1487 22.9526 41.0052 22.6205C40.8616 22.2884 40.6861 22.0196 40.4469 21.7823C40.2236 21.5609 39.9524 21.387 39.6493 21.2605C39.3463 21.1339 39.0272 21.0865 38.7082 21.0865C38.3733 21.0865 38.0542 21.1498 37.7671 21.2763C37.4641 21.4028 37.1929 21.5767 36.9696 21.814C36.7463 22.0354 36.5549 22.32 36.4113 22.6521C36.2677 22.9842 36.2039 23.348 36.2039 23.7592C36.2039 24.1703 36.2677 24.5341 36.4113 24.8662C36.5549 25.1983 36.7303 25.4671 36.9696 25.7044C37.1929 25.9258 37.4641 26.1155 37.7671 26.2421C38.0702 26.3369 38.3892 26.4002 38.7082 26.4002ZM52.5217 18.7934C53.2555 18.7934 53.9095 18.9199 54.5156 19.1571C55.1217 19.4101 55.6481 19.7423 56.0788 20.1851C56.5254 20.6279 56.8604 21.1498 57.1156 21.7507C57.3708 22.3517 57.4825 23.0159 57.4825 23.7433C57.4825 24.4708 57.3549 25.135 57.1156 25.736C56.8604 26.3369 56.5254 26.8588 56.0788 27.3016C55.6322 27.7444 55.1217 28.0765 54.5156 28.3296C53.9095 28.5826 53.2395 28.6933 52.5217 28.6933C51.788 28.6933 51.134 28.5668 50.5279 28.3296C49.9217 28.0765 49.3953 27.7444 48.9647 27.3016C48.518 26.8588 48.1831 26.3369 47.9279 25.736C47.6726 25.135 47.561 24.4708 47.561 23.7433C47.561 23.0159 47.6886 22.3517 47.9279 21.7507C48.1831 21.1498 48.518 20.6279 48.9647 20.1851C49.4113 19.7423 49.9217 19.4101 50.5279 19.1571C51.134 18.9199 51.8039 18.7934 52.5217 18.7934ZM52.5217 26.4002C52.8407 26.4002 53.1438 26.3369 53.4469 26.2262C53.75 26.0997 54.0211 25.9258 54.2444 25.7044C54.4677 25.483 54.6592 25.1983 54.7868 24.8662C54.9144 24.5341 54.9941 24.1703 54.9941 23.7433C54.9941 23.3164 54.9303 22.9526 54.7868 22.6205C54.6592 22.2884 54.4677 22.0196 54.2444 21.7823C54.0211 21.5609 53.75 21.387 53.4469 21.2605C53.1598 21.1339 52.8407 21.0865 52.5217 21.0865C52.1868 21.0865 51.8837 21.1498 51.5806 21.2605C51.2935 21.387 51.0223 21.5609 50.799 21.7823C50.5757 22.0037 50.3843 22.2884 50.2567 22.6205C50.1291 22.9526 50.0493 23.3164 50.0493 23.7433C50.0493 24.1703 50.1131 24.5341 50.2567 24.8662C50.3843 25.1983 50.5757 25.4671 50.799 25.7044C51.0223 25.9258 51.2935 26.0997 51.5806 26.2262C51.8837 26.3369 52.2027 26.4002 52.5217 26.4002ZM58.0567 19.0939H60.561V20.2167C60.7843 19.8213 61.1512 19.4892 61.6297 19.2046C62.1082 18.9199 62.7144 18.7934 63.4322 18.7934C64.0383 18.7934 64.5966 18.9199 65.1389 19.1571C65.6812 19.4101 66.1598 19.7581 66.5745 20.1851C66.9892 20.6279 67.3242 21.1498 67.5634 21.7507C67.8027 22.3517 67.9303 23.0159 67.9303 23.7433C67.9303 24.4708 67.8027 25.135 67.5634 25.736C67.3242 26.3369 66.9892 26.8588 66.5745 27.3016C66.1598 27.7286 65.6812 28.0765 65.1389 28.3296C64.5966 28.5826 64.0223 28.7091 63.4322 28.6933C62.7144 28.6933 62.1242 28.551 61.6297 28.2821C61.1512 27.9975 60.7843 27.6654 60.561 27.27V32.4888H58.0567V19.0939ZM62.9217 26.4002C63.2567 26.4002 63.5757 26.3369 63.8628 26.2104C64.1659 26.0839 64.4371 25.9099 64.6604 25.6727C64.8837 25.4513 65.0751 25.1667 65.2187 24.8346C65.3622 24.5024 65.426 24.1387 65.426 23.7275C65.426 23.3164 65.3622 22.9526 65.2187 22.6205C65.0751 22.2884 64.8996 22.0196 64.6604 21.7823C64.4371 21.5609 64.1659 21.3712 63.8628 21.2446C63.5598 21.1181 63.2407 21.0549 62.9217 21.0549C62.5868 21.0549 62.2677 21.1181 61.9806 21.2288C61.6776 21.3553 61.4064 21.5293 61.1831 21.7507C60.9598 21.9721 60.7684 22.2568 60.6248 22.5889C60.4812 22.921 60.4174 23.2847 60.4174 23.7117C60.4174 24.1387 60.4812 24.5024 60.6248 24.8346C60.7684 25.1667 60.9438 25.4355 61.1831 25.6727C61.4064 25.8941 61.6776 26.0681 61.9806 26.1946C62.2677 26.3369 62.5868 26.4002 62.9217 26.4002ZM69.3021 21.213H67.6592V19.0939H69.3021V16.2472H71.8064V19.0939H74.1033V21.213H71.8064V24.8187C71.8064 25.0401 71.8223 25.2299 71.8702 25.4197C71.9181 25.6095 71.9978 25.7518 72.1254 25.8783C72.3009 26.0839 72.5561 26.1788 72.8911 26.1788C73.1144 26.1788 73.2739 26.163 73.4015 26.1155C73.5291 26.0681 73.6567 26.0048 73.7684 25.9416L74.4702 28.124C74.1671 28.2663 73.8481 28.377 73.5291 28.4403C73.1941 28.5035 72.8113 28.551 72.4125 28.551C71.934 28.551 71.5193 28.4719 71.1365 28.3296C70.7536 28.1872 70.4506 27.9817 70.1954 27.7286C69.5892 27.1593 69.3021 26.3528 69.3021 25.2932V21.213ZM76.5598 17.7496C76.3524 17.7496 76.1291 17.7022 75.9377 17.6231C75.7463 17.544 75.5708 17.4333 75.4273 17.2752C75.2837 17.1328 75.172 16.9589 75.0763 16.7691C74.9966 16.5793 74.9487 16.3737 74.9487 16.1365C74.9487 15.9151 74.9966 15.6937 75.0763 15.5039C75.1561 15.3142 75.2677 15.1402 75.4273 14.9979C75.5708 14.8555 75.7463 14.729 75.9377 14.65C76.1291 14.5709 76.3524 14.5234 76.5598 14.5234C77.0064 14.5234 77.3892 14.6816 77.7082 14.9821C78.0273 15.2984 78.1868 15.6621 78.1868 16.1049C78.1868 16.5477 78.0273 16.9273 77.7082 17.2277C77.3892 17.5282 77.0064 17.7496 76.5598 17.7496ZM75.3156 28.3928V19.0939H77.8199V28.3928H75.3156ZM83.5782 18.7934C84.3119 18.7934 84.9659 18.9199 85.572 19.1571C86.1782 19.4101 86.7046 19.7423 87.1352 20.1851C87.5819 20.6279 87.9168 21.1498 88.172 21.7507C88.4273 22.3517 88.5389 23.0159 88.5389 23.7433C88.5389 24.4708 88.4113 25.135 88.172 25.736C87.9168 26.3369 87.5819 26.8588 87.1352 27.3016C86.6886 27.7444 86.1782 28.0765 85.572 28.3296C84.9659 28.5826 84.296 28.6933 83.5782 28.6933C82.8444 28.6933 82.1904 28.5668 81.5843 28.3296C80.9782 28.0765 80.4518 27.7444 80.0211 27.3016C79.5745 26.8588 79.2395 26.3369 78.9843 25.736C78.7291 25.135 78.6174 24.4708 78.6174 23.7433C78.6174 23.0159 78.745 22.3517 78.9843 21.7507C79.2395 21.1498 79.5745 20.6279 80.0211 20.1851C80.4677 19.7423 80.9782 19.4101 81.5843 19.1571C82.1904 18.9199 82.8604 18.7934 83.5782 18.7934ZM83.5782 26.4002C83.8972 26.4002 84.2003 26.3369 84.5033 26.2262C84.8064 26.0997 85.0776 25.9258 85.3009 25.7044C85.5242 25.483 85.7156 25.1983 85.8432 24.8662C85.9708 24.5341 86.0506 24.1703 86.0506 23.7433C86.0506 23.3164 85.9868 22.9526 85.8432 22.6205C85.7156 22.2884 85.5242 22.0196 85.3009 21.7823C85.0776 21.5609 84.8064 21.387 84.5033 21.2605C84.2162 21.1339 83.8972 21.0865 83.5782 21.0865C83.2432 21.0865 82.9401 21.1498 82.6371 21.2605C82.35 21.387 82.0788 21.5609 81.8555 21.7823C81.6322 22.0037 81.4408 22.2884 81.3131 22.6205C81.1855 22.9526 81.1058 23.3164 81.1058 23.7433C81.1058 24.1703 81.1696 24.5341 81.3131 24.8662C81.4408 25.1983 81.6322 25.4671 81.8555 25.7044C82.0788 25.9258 82.35 26.0997 82.6371 26.2262C82.9401 26.3369 83.2432 26.4002 83.5782 26.4002ZM91.442 20.3116H91.6015C91.8886 19.8371 92.2874 19.4734 92.7819 19.2046C93.2763 18.9357 93.8506 18.7934 94.4886 18.7934C95.0788 18.7934 95.5892 18.8883 96.0359 19.078C96.4825 19.2678 96.8493 19.5367 97.1365 19.8846C97.4236 20.2325 97.6469 20.6437 97.7905 21.1339C97.934 21.6242 98.0138 22.1619 98.0138 22.7628V28.3928H95.5095V23.0633C95.5095 22.3991 95.3659 21.893 95.0628 21.5767C94.7598 21.2605 94.3291 21.0865 93.7549 21.0865C93.4039 21.0865 93.1009 21.1656 92.8457 21.3079C92.5905 21.4502 92.3512 21.6558 92.1757 21.893C91.9843 22.1461 91.8567 22.4307 91.761 22.7628C91.6653 23.0949 91.6174 23.4587 91.6174 23.8382V28.3928H89.1131V19.0939H91.4739L91.442 20.3116Z" fill="black"/>
</g>
<defs>
<clipPath id="clip0_7232_41886">
<rect width="96" height="29" fill="white" transform="translate(2.14453 7.58203)"/>
</clipPath>
</defs>
</svg>
