<svg width="100" height="48" viewBox="0 0 100 48" fill="none" xmlns="http://www.w3.org/2000/svg">
<g clip-path="url(#clip0_7232_42064)">
<path d="M55.7365 14.5211L53.3579 9.6875H45.2578L50.2723 19.3547L55.7365 14.5211Z" fill="#221F1F"/>
<path d="M63.9027 29.8059L59.0812 20.1392L67.4385 11.077L63.9027 29.8059ZM75.0241 9.6875H60.4956L40.6953 31.5578H48.6025L53.8094 25.7583L56.6382 31.5578H70.2025L72.0028 21.8309L73.674 27.2079L78.6241 21.65" fill="#221F1F"/>
<path d="M87.3677 9.6875L74.125 28.5377H80.7464L85.8247 21.1667L83.8963 31.5587H90.5824L94.6961 9.6875" fill="#221F1F"/>
<path d="M16.7813 10.473C16.717 11.4399 16.524 12.5271 16.6526 13.5542C16.7813 15.0043 17.7455 15.7296 19.0313 16.2128C19.4171 16.3336 19.9312 16.5752 20.4457 16.4544C20.7029 16.3943 20.8311 16.273 20.9597 16.1522C21.4099 15.9106 21.9239 15.669 22.567 15.6083C23.5313 15.488 24.4312 15.7296 25.0743 15.9106C25.7169 16.092 26.6168 16.3336 27.1957 16.6359C27.5168 16.8168 27.7097 17.0585 27.9026 17.3607C28.2242 17.8439 28.2885 18.6294 28.9955 18.7502C29.1241 18.1462 28.9955 17.4209 29.0598 16.696C29.0598 16.0314 29.1884 15.4274 29.317 14.8233C29.51 13.9772 29.7672 13.1316 30.024 12.2855C30.0883 12.1647 30.2169 11.5 30.4742 11.6208C30.6028 11.6815 30.5385 11.9231 30.5385 12.0439C30.5385 12.5877 30.4742 12.9502 30.4099 13.494C30.2812 14.8233 30.2812 16.273 30.5385 17.4209C30.6671 18.0254 30.86 18.6294 30.7957 19.294C30.7957 19.475 30.6671 19.6565 30.6671 19.8981C30.6671 20.0795 30.6671 20.2003 30.6028 20.3211C30.5385 20.5021 30.3456 20.7437 30.2169 20.9858C30.1526 21.0459 30.0883 21.1667 30.024 21.2876C29.9597 21.4084 29.8315 21.469 29.8315 21.5898C29.8315 21.7712 30.2812 22.1938 30.4742 22.2545C31.4384 22.4961 32.4669 22.6169 33.0457 23.1607C33.3668 23.4625 33.6241 23.8856 33.6884 24.4294C33.7527 24.9126 33.5598 25.3357 33.3668 25.7587C33.2382 26.0605 33.11 26.7853 32.8528 26.9066C32.6599 27.0274 32.4026 26.9668 32.2097 27.0274C32.1454 27.269 32.0168 27.45 32.0168 27.7522C31.8243 27.9938 31.6313 28.1147 31.4384 28.2961C31.5027 28.7793 31.1812 28.9001 30.7314 28.9001C29.51 29.867 27.0027 29.2024 25.9742 28.5983C25.4597 28.9607 24.8813 29.2625 24.9457 30.1688C25.3954 30.4109 25.7169 30.6525 26.2957 30.8335C27.0027 31.0751 27.9026 30.9543 28.3528 31.3171L28.4814 31.4379H32.0815L42.2387 20.3813L36.6454 9.6875H16.8456C16.8456 9.92911 16.7813 10.2314 16.7813 10.473Z" fill="#FF0000"/>
<path d="M7.45793 31.375C8.1006 30.771 9.00096 30.2877 9.90087 29.9249C10.6078 29.6231 11.3153 29.3815 11.8936 28.9584C12.1509 28.777 12.3438 28.596 12.601 28.5354C13.1794 28.4752 13.6939 28.7168 14.1436 28.777C15.3008 29.0186 16.2007 28.4752 16.7795 27.8707C17.101 27.5689 17.4221 27.3273 17.6151 26.9043C17.808 26.4211 17.7437 25.8166 17.7437 25.1519C17.7437 23.8832 18.2582 23.0376 18.2582 21.8897C18.2582 21.2852 18.1296 20.7414 18.1939 20.0772C17.5508 19.7749 16.7795 19.4727 16.2007 18.8687C15.6866 18.3248 15.1078 17.2977 15.2365 16.4521C14.851 15.9082 14.4652 15.1228 14.4652 14.2165C14.4652 13.3102 14.7224 12.5854 14.9797 11.8C15.1721 11.0751 15.4294 10.3498 15.6866 9.625H11.3153L6.30078 31.4958H7.32931C7.39362 31.4356 7.45793 31.375 7.45793 31.375Z" fill="#FF0000"/>
<path d="M7.07456 38.2017V37.9601H7.33135L7.20273 38.2017H7.07456ZM8.55282 38.2017L8.68144 37.5977L8.55282 38.2017Z" fill="#221F1F"/>
<path d="M9.51619 35.4219H8.48765L7.20188 37.657L6.94508 35.4219H5.98041L5.27344 38.5031H5.98041L6.43059 36.0861L6.75215 38.5031H7.3305L8.7449 36.0861L8.10179 38.5031H8.80921" fill="#221F1F"/>
<path d="M9.96484 38.2038L10.5432 35.7266H10.6075L10.0292 38.2038H9.96484Z" fill="#221F1F"/>
<path d="M12.7967 35.4219H10.289L9.58203 38.5031H12.1536L12.2822 37.9592H10.4176L10.6106 37.1738H12.2822L12.4108 36.6906H10.7392L10.8678 36.0259H12.6681" fill="#221F1F"/>
<path d="M14.5962 38.2017V37.9601H14.8534L14.7248 38.2017H14.5962ZM16.0749 38.2017L16.2031 37.5977L16.0749 38.2017Z" fill="#221F1F"/>
<path d="M17.0362 35.4219H16.0076L14.7862 37.657L14.5289 35.4219H13.5004L12.793 38.5031H13.5004L14.0144 36.0861L14.336 38.5031H14.8505L16.2644 36.0861L15.6861 38.5031H16.3287" fill="#221F1F"/>
<path d="M20.0604 36.4519V36.2704C20.0604 36.089 19.9961 35.8474 19.8032 35.7266C20.1247 35.7872 20.189 35.908 20.189 36.1496C20.1247 36.2704 20.1247 36.3912 20.0604 36.4519ZM19.7388 38.083C19.8675 37.9621 19.9961 37.7205 19.9961 37.5391C19.9961 37.4785 19.9961 37.3581 19.9318 37.2975C20.0604 37.3581 20.0604 37.5391 20.0604 37.5997C19.9961 37.7807 19.8675 37.9621 19.7388 38.083ZM17.7461 38.2038L18.3249 35.7266H18.3888L18.132 36.9952" fill="#221F1F"/>
<path d="M18.1307 37.9592L18.3236 37.1131H19.0306C19.2878 37.1131 19.6094 37.1131 19.6094 37.476C19.6094 37.7778 19.3521 37.9592 19.0306 37.9592H18.1307ZM18.4522 36.6906L18.6447 35.9653H19.4164C19.6732 35.9653 19.8019 36.0259 19.8019 36.2675C19.8019 36.5091 19.5451 36.6906 19.2878 36.6906H18.4522ZM19.4164 35.4219H18.0663L17.3594 38.5031H19.0949C19.7375 38.5031 20.3807 38.1407 20.3807 37.476C20.3807 37.1738 20.1877 36.9322 19.8662 36.8715C20.252 36.8114 20.5093 36.5091 20.5093 36.1467C20.445 35.5427 20.0591 35.4219 19.4164 35.4219Z" fill="#221F1F"/>
<path d="M21.2148 38.2038L21.7289 35.7266H21.7936L21.2792 38.2038H21.2148Z" fill="#221F1F"/>
<path d="M23.9819 35.4219H21.4747L20.832 38.5031H23.3388L23.4674 37.9592H21.6676L21.7963 37.1738H23.4674L23.5961 36.6906H21.9244L22.1174 36.0259H23.8533" fill="#221F1F"/>
<path d="M26.939 36.5727C26.939 36.512 27.0033 36.3912 27.0033 36.331C27.0033 36.089 26.939 35.8474 26.6175 35.7266C27.0033 35.7872 27.0676 35.9682 27.0676 36.2102C27.0033 36.3912 27.0033 36.512 26.939 36.5727ZM24.4961 38.2038L25.0749 35.7266H25.1392L24.5604 38.2038H24.4961ZM26.5532 38.2038V37.6599C26.5532 37.5993 26.5532 37.4789 26.4893 37.3581C26.5532 37.3581 26.5532 37.4183 26.5532 37.5993V37.7807C26.6175 37.9621 26.6175 38.0223 26.5532 38.2038C26.6175 38.2038 26.6175 38.2038 26.5532 38.2038Z" fill="#221F1F"/>
<path d="M25.2027 36.8114L25.3952 35.9653H26.1026C26.3594 35.9653 26.6166 36.0259 26.6166 36.3281C26.6166 36.6906 26.2312 36.8114 25.8453 36.8114H25.2027ZM26.3594 35.4219H24.8168L24.1094 38.5031H24.8168L25.074 37.2946H25.781C26.0383 37.2946 26.2312 37.3552 26.2312 37.657C26.2312 37.8384 26.1669 38.08 26.1669 38.2615C26.1669 38.3217 26.1669 38.3818 26.2312 38.4425H26.9382C26.8739 38.3818 26.8739 38.2009 26.8739 38.08V37.5362C26.8739 37.2946 26.8096 37.053 26.5523 36.9923C27.0025 36.9322 27.324 36.5698 27.324 36.1467C27.324 35.6635 26.9382 35.4219 26.3594 35.4219Z" fill="#221F1F"/>
<path d="M31.3097 38.1436C31.8242 37.8413 32.081 37.2975 32.081 36.6935C32.081 36.2102 31.8881 35.8474 31.567 35.7266C31.8881 35.8474 32.2101 36.089 32.2101 36.6935C32.1453 37.2975 31.8881 37.9015 31.3097 38.1436ZM30.2169 38.2038C29.7672 38.083 29.5742 37.7205 29.5742 37.1767C29.5742 36.6328 29.831 36.089 30.2812 35.8474C29.8953 36.1496 29.6381 36.6935 29.6381 37.1767C29.6381 37.7205 29.831 38.083 30.2169 38.2038Z" fill="#221F1F"/>
<mask id="mask0_7232_42064" style="mask-type:luminance" maskUnits="userSpaceOnUse" x="29" y="35" width="4" height="4">
<path d="M29.1055 35.2578H32.5594V38.6234H29.1055V35.2578Z" fill="white"/>
</mask>
<g mask="url(#mask0_7232_42064)">
<path d="M30.6662 38.0175C30.1517 38.0175 29.8945 37.6551 29.8945 37.2325C29.8945 36.6281 30.216 35.9634 30.9878 35.9634C31.5018 35.9634 31.6947 36.3263 31.6947 36.7489C31.7591 37.2927 31.3732 38.0175 30.6662 38.0175ZM30.9878 35.3594C29.8945 35.3594 29.1875 36.2055 29.1875 37.2325C29.1875 38.0782 29.702 38.622 30.6662 38.622C31.8234 38.622 32.466 37.7158 32.466 36.6887C32.466 35.8426 31.8872 35.3594 30.9878 35.3594Z" fill="#221F1F"/>
</g>
<path d="M33.1719 38.2038L33.7502 35.7266H33.8145L33.493 36.9952L33.2357 38.2038" fill="#221F1F"/>
<path d="M35.8103 35.4219H33.496L32.7891 38.5031H33.496L33.7533 37.2344H35.1677L35.2963 36.6906H33.8819L34.0748 36.0259H35.6817" fill="#221F1F"/>
<path d="M38.2539 38.2038L38.7684 35.7266H38.8327L38.3182 38.2038H38.2539Z" fill="#221F1F"/>
<path d="M40.2442 35.4219H37.4802L37.3516 36.0259H38.3801L37.8013 38.5031H38.573L39.0871 36.0259H40.1156" fill="#221F1F"/>
<path d="M42.945 36.5727C42.945 36.512 43.0093 36.3912 43.0093 36.331C43.0093 36.089 42.945 35.8474 42.6235 35.7266C43.0093 35.7872 43.0736 35.9682 43.0736 36.2102C43.0736 36.3912 43.0093 36.512 42.945 36.5727ZM40.5664 38.2038L41.1452 35.7266H41.2095L40.6307 38.2038H40.5664ZM42.5592 38.2038V37.6599C42.5592 37.5993 42.5592 37.4789 42.4948 37.3581C42.5592 37.3581 42.5592 37.4183 42.5592 37.5993V37.7807C42.6235 37.9621 42.6235 38.0223 42.5592 38.2038C42.6235 38.2038 42.6235 38.2038 42.5592 38.2038Z" fill="#221F1F"/>
<path d="M41.2725 36.8114L41.4655 35.9653H42.1729C42.4297 35.9653 42.6869 36.0259 42.6869 36.3281C42.6869 36.6906 42.3011 36.8114 41.9156 36.8114H41.2725ZM42.4297 35.4219H40.8871L40.1797 38.5031H40.8871L41.1439 37.2946H41.8513C42.1086 37.2946 42.3011 37.3552 42.3011 37.657C42.3011 37.8384 42.2367 38.08 42.2367 38.2615V38.4425H42.9442C42.8799 38.3818 42.8799 38.2009 42.8799 38.08V37.5362C42.8799 37.2946 42.8156 37.053 42.5583 36.9923C43.0085 36.9322 43.33 36.5698 43.33 36.1467C43.3939 35.6635 43.0085 35.4219 42.4297 35.4219Z" fill="#221F1F"/>
<path d="M45.6446 35.7872L45.7089 35.7266H45.9657V35.7872H45.6446ZM46.3516 38.2038L46.2872 37.5997L46.1586 36.7536" fill="#221F1F"/>
<path d="M45.0021 37.2946L45.7096 36.0861L45.8382 37.2946H45.0021ZM46.2236 35.4219H45.4523L43.5234 38.5031H44.2952L44.6806 37.8384H45.9021L46.0307 38.5031H46.7381" fill="#221F1F"/>
<path d="M49.3722 38.083C49.8224 37.8413 50.0796 37.3581 50.0796 36.7536C50.0796 36.2704 49.8867 35.908 49.5008 35.7872C49.951 35.908 50.2083 36.1496 50.2083 36.6328C50.2083 36.9952 50.0796 37.7807 49.3722 38.083ZM47.6367 38.2038L48.2151 35.7266H48.2794" fill="#221F1F"/>
<path d="M48.09 37.9592L48.5397 36.0259H49.0542C49.5682 36.0259 49.7611 36.3281 49.7611 36.7507C49.7611 37.4154 49.3753 37.9592 48.604 37.9592H48.09ZM49.1185 35.4219H47.9613L47.2539 38.5031H48.604C49.8898 38.5031 50.5324 37.7176 50.5324 36.6299C50.5324 35.9051 50.0184 35.4219 49.1185 35.4219Z" fill="#221F1F"/>
<path d="M51.1094 38.2038L51.6877 35.7266H51.752L51.1737 38.2038H51.1094Z" fill="#221F1F"/>
<path d="M52.1371 35.4219H51.4296L50.7227 38.5031H51.4296L52.1371 35.4219Z" fill="#221F1F"/>
<path d="M53.1682 35.7266H53.4254L53.5541 36.0288H53.1039L53.0396 36.2704L53.1682 35.7266ZM54.454 38.2038L54.3253 37.9015H54.7751L54.7112 38.2038H54.454Z" fill="#221F1F"/>
<path d="M55.6746 35.4219H54.9672L54.5174 37.5968L53.6175 35.4219H52.9101L52.2031 38.5031H52.8458L53.3603 36.3281L54.2602 38.5031H54.9672" fill="#221F1F"/>
<path d="M58.695 36.1476C58.6307 35.9661 58.5021 35.8453 58.3735 35.7852C58.5664 35.8453 58.695 35.9661 58.8236 36.1476H58.695ZM58.3735 37.8995C58.4378 37.8393 58.5021 37.7185 58.5664 37.5977L58.5021 37.8995H58.3735ZM56.9595 38.2017C56.5093 38.0809 56.3164 37.7185 56.3164 37.1746C56.3164 36.6308 56.5737 36.0869 57.0234 35.8453C56.638 36.1476 56.3807 36.6914 56.3807 37.1746C56.3164 37.7185 56.5737 38.0809 56.9595 38.2017Z" fill="#221F1F"/>
<mask id="mask1_7232_42064" style="mask-type:luminance" maskUnits="userSpaceOnUse" x="55" y="35" width="5" height="4">
<path d="M55.8164 35.2578H59.1552V38.6234H55.8164V35.2578Z" fill="white"/>
</mask>
<g mask="url(#mask1_7232_42064)">
<path d="M57.73 35.3594C56.6371 35.3594 55.9297 36.2055 55.9297 37.2325C55.9297 38.0782 56.4442 38.622 57.4084 38.622C57.73 38.622 58.0515 38.5012 58.2444 38.2596V38.5614H58.6942L59.08 36.8697H57.6656L57.537 37.3533H58.3083C58.1797 37.7759 57.9229 38.0175 57.4084 38.0175C56.8944 38.0175 56.6371 37.6551 56.6371 37.2325C56.6371 36.6281 56.9587 35.9634 57.73 35.9634C58.1158 35.9634 58.3726 36.0842 58.3726 36.5073H59.08C59.1444 35.7218 58.5012 35.3594 57.73 35.3594Z" fill="#221F1F"/>
</g>
<path d="M63.3888 36.8744C63.5174 36.7536 63.5817 36.5727 63.5817 36.331C63.5817 36.1496 63.5174 35.908 63.2602 35.7872C63.5817 35.908 63.6461 36.089 63.6461 36.331C63.6461 36.5727 63.5817 36.7536 63.3888 36.8744ZM61.2031 38.2038L61.7819 35.7266H61.8458L61.5247 37.1161L61.2674 38.2038" fill="#221F1F"/>
<path d="M61.9092 36.8715L62.1022 35.9653H62.7453C63.0021 35.9653 63.2593 36.0259 63.2593 36.3281C63.2593 36.6906 63.0021 36.8715 62.681 36.8715H61.9092ZM62.8092 35.4219H61.5234L60.8164 38.5031H61.5234L61.7811 37.4154H62.681C63.388 37.4154 63.9668 36.9923 63.9668 36.3281C63.9668 35.6635 63.5166 35.4219 62.8092 35.4219Z" fill="#221F1F"/>
<path d="M66.5363 38.1436C67.0508 37.8413 67.3076 37.2975 67.3076 36.6935C67.3076 36.2102 67.1151 35.8474 66.7935 35.7266C67.1151 35.8474 67.4362 36.089 67.4362 36.6935C67.3723 37.2975 67.1151 37.9015 66.5363 38.1436ZM65.4434 38.2038C64.9937 38.083 64.8008 37.7205 64.8008 37.1767C64.8008 36.6328 65.0576 36.089 65.5078 35.8474C65.1223 36.1496 64.8651 36.6935 64.8651 37.1767C64.8651 37.7205 65.0576 38.083 65.4434 38.2038Z" fill="#221F1F"/>
<mask id="mask2_7232_42064" style="mask-type:luminance" maskUnits="userSpaceOnUse" x="64" y="35" width="4" height="4">
<path d="M64.3359 35.2578H67.7899V38.6234H64.3359V35.2578Z" fill="white"/>
</mask>
<g mask="url(#mask2_7232_42064)">
<path d="M65.8967 38.0175C65.3822 38.0175 65.1254 37.6551 65.1254 37.2325C65.1254 36.6281 65.4465 35.9634 66.2182 35.9634C66.7323 35.9634 66.9252 36.3263 66.9252 36.7489C66.9895 37.2927 66.6037 38.0175 65.8967 38.0175ZM66.2182 35.3594C65.1254 35.3594 64.418 36.2055 64.418 37.2325C64.418 38.0782 64.9325 38.622 65.8967 38.622C67.0538 38.622 67.6965 37.7158 67.6965 36.6887C67.6965 35.8426 67.1181 35.3594 66.2182 35.3594Z" fill="#221F1F"/>
</g>
<path d="M68.3398 38.2038L68.9182 35.7266H68.9825L68.4685 38.2038H68.3398Z" fill="#221F1F"/>
<path d="M69.3675 35.4219H68.6601L67.9531 38.5031H68.7244L69.3675 35.4219Z" fill="#221F1F"/>
<path d="M70.3952 35.7266H70.6525L70.7811 36.0288H70.3309L70.2666 36.2704L70.3952 35.7266ZM71.7453 38.2038L71.6167 37.9015H72.0664L72.0025 38.2038H71.7453Z" fill="#221F1F"/>
<path d="M72.9011 35.4219H72.258L71.8079 37.5968H71.744L70.9084 35.4219H70.1367L69.4297 38.5031H70.1367L70.5868 36.3281L71.4867 38.5031H72.1937" fill="#221F1F"/>
<path d="M74.3164 38.2038L74.8948 35.7266H74.9591L74.3807 38.2038H74.3164Z" fill="#221F1F"/>
<path d="M76.3093 35.4219H73.6091L73.4805 36.0259H74.509L73.9306 38.5031H74.6376L75.2164 36.0259H76.1806" fill="#221F1F"/>
<path d="M80.488 36.1476C80.4237 35.9661 80.2951 35.8453 80.1664 35.7852C80.3594 35.8453 80.488 35.9661 80.6166 36.1476H80.488ZM80.2307 37.8995C80.2951 37.8393 80.3594 37.7185 80.4237 37.5977L80.3594 37.8995H80.2307ZM78.7525 38.2017C78.3023 38.0809 78.1094 37.7185 78.1094 37.1746C78.1094 36.6308 78.3666 36.0869 78.8163 35.8453C78.4309 36.1476 78.1737 36.6914 78.1737 37.1746C78.1737 37.7185 78.4309 38.0809 78.7525 38.2017Z" fill="#221F1F"/>
<mask id="mask3_7232_42064" style="mask-type:luminance" maskUnits="userSpaceOnUse" x="77" y="35" width="5" height="4">
<path d="M77.6914 35.2578H81.0302V38.6234H77.6914V35.2578Z" fill="white"/>
</mask>
<g mask="url(#mask3_7232_42064)">
<path d="M79.5893 35.3594C78.4965 35.3594 77.7891 36.2055 77.7891 37.2325C77.7891 38.0782 78.3036 38.622 79.2678 38.622C79.5893 38.622 79.9109 38.5012 80.1034 38.2596V38.5614H80.5535L80.9394 36.8697H79.525L79.3964 37.3533H80.1677C80.0395 37.7759 79.7823 38.0175 79.2678 38.0175C78.7537 38.0175 78.4965 37.6551 78.4965 37.2325C78.4965 36.6281 78.818 35.9634 79.5893 35.9634C79.9752 35.9634 80.232 36.0842 80.232 36.5073H80.9394C80.9394 35.7218 80.3606 35.3594 79.5893 35.3594Z" fill="#221F1F"/>
</g>
<path d="M84.0896 36.5727C84.0896 36.512 84.1539 36.4519 84.1539 36.331C84.1539 36.089 84.0896 35.8474 83.768 35.7266C84.1539 35.7872 84.2182 35.9682 84.2182 36.2102C84.2182 36.3912 84.1539 36.512 84.0896 36.5727ZM81.7109 38.2038L82.2897 35.7266H82.3536L82.0968 36.9952L81.7109 38.2038ZM83.7037 38.2038V37.6599C83.7037 37.5993 83.7037 37.4789 83.6394 37.3581C83.7037 37.3581 83.7037 37.4183 83.7037 37.5993V37.7807C83.768 37.9621 83.768 38.0223 83.7037 38.2038C83.768 38.2038 83.768 38.2038 83.7037 38.2038Z" fill="#221F1F"/>
<path d="M82.4171 36.8114L82.61 35.9653H83.317C83.5742 35.9653 83.8315 36.0259 83.8315 36.3281C83.8315 36.6906 83.446 36.8114 83.0602 36.8114H82.4171ZM83.5742 35.4219H82.0316L81.3242 38.5031H82.0316L82.2889 37.2946H82.9959C83.2531 37.2946 83.446 37.3552 83.446 37.657C83.446 37.8384 83.3817 38.08 83.3817 38.2615C83.3817 38.3217 83.3817 38.3818 83.446 38.4425H84.153C84.0887 38.3818 84.0887 38.2009 84.0887 38.08V37.5362C84.0887 37.2946 84.0244 37.053 83.7671 36.9923C84.2173 36.9322 84.5389 36.5698 84.5389 36.1467C84.5389 35.6635 84.153 35.4219 83.5742 35.4219Z" fill="#221F1F"/>
<path d="M87.1105 38.1436C87.625 37.8413 87.8822 37.2975 87.8822 36.6935C87.8822 36.2102 87.6893 35.8474 87.3678 35.7266C87.6893 35.8474 88.0109 36.089 88.0109 36.6935C87.9466 37.2975 87.6893 37.9015 87.1105 38.1436ZM86.0177 38.2038C85.5679 38.083 85.375 37.7205 85.375 37.1767C85.375 36.6328 85.6322 36.089 86.082 35.8474C85.6966 36.1496 85.4393 36.6935 85.4393 37.1767C85.4393 37.7205 85.6322 38.083 86.0177 38.2038Z" fill="#221F1F"/>
<mask id="mask4_7232_42064" style="mask-type:luminance" maskUnits="userSpaceOnUse" x="84" y="35" width="5" height="4">
<path d="M84.9453 35.2578H88.2841V38.6234H84.9453V35.2578Z" fill="white"/>
</mask>
<g mask="url(#mask4_7232_42064)">
<path d="M86.467 38.0175C85.9525 38.0175 85.6957 37.6551 85.6957 37.2325C85.6957 36.6281 86.0168 35.9634 86.7885 35.9634C87.3026 35.9634 87.4955 36.3263 87.4955 36.7489C87.5598 37.2927 87.174 38.0175 86.467 38.0175ZM86.7885 35.3594C85.6957 35.3594 84.9883 36.2055 84.9883 37.2325C84.9883 38.0782 85.5028 38.622 86.467 38.622C87.6241 38.622 88.2668 37.7158 88.2668 36.6887C88.2668 35.8426 87.6885 35.3594 86.7885 35.3594Z" fill="#221F1F"/>
</g>
<path d="M90.8389 38.083C91.0961 37.9015 91.1604 37.5391 91.2247 37.2975L91.6102 35.7266H91.6745L91.3534 37.1767C91.2247 37.6599 91.0961 37.9015 90.8389 38.083ZM89.6174 38.2644C89.3602 38.2038 89.0391 38.0223 89.0391 37.7205C89.0391 37.5997 89.0391 37.4789 89.1034 37.3581L89.4888 35.7872H89.5531L89.2315 37.1767C89.1677 37.4183 89.1677 37.5391 89.1677 37.5997C89.1672 37.8413 89.2963 38.1436 89.6174 38.2644Z" fill="#221F1F"/>
<mask id="mask5_7232_42064" style="mask-type:luminance" maskUnits="userSpaceOnUse" x="88" y="35" width="5" height="4">
<path d="M88.7422 35.375H92.081V38.623H88.7422V35.375Z" fill="white"/>
</mask>
<g mask="url(#mask5_7232_42064)">
<path d="M92.0598 35.4219H91.3524L90.9669 37.2344C90.8383 37.7176 90.774 38.0194 90.1313 38.0194C89.6168 38.0194 89.4882 37.7778 89.4882 37.5968C89.4882 37.476 89.5525 37.2946 89.5525 37.2344L89.9384 35.4219H89.231L88.8456 37.2344C88.7812 37.3548 88.7812 37.5362 88.7812 37.7176C88.7812 38.3823 89.4239 38.6239 90.0666 38.6239C91.0956 38.6239 91.481 38.1407 91.6739 37.2344" fill="#221F1F"/>
</g>
<path d="M94.6935 36.8744C94.8217 36.7536 94.886 36.5727 94.886 36.331C94.886 36.1496 94.8217 35.908 94.5649 35.7872C94.886 35.908 94.9503 36.089 94.9503 36.331C94.9503 36.5727 94.886 36.7536 94.6935 36.8744ZM92.5078 38.2038L93.0862 35.7266H93.1505L92.8289 37.1161L92.5717 38.2038" fill="#221F1F"/>
<mask id="mask6_7232_42064" style="mask-type:luminance" maskUnits="userSpaceOnUse" x="92" y="35" width="4" height="4">
<path d="M92.082 35.3789H95.2733V38.5538H92.082V35.3789Z" fill="white"/>
</mask>
<g mask="url(#mask6_7232_42064)">
<path d="M93.2178 36.8754L93.4108 35.9692H94.0534C94.3107 35.9692 94.5679 36.0298 94.5679 36.332C94.5679 36.6945 94.3107 36.8754 93.9891 36.8754H93.2178ZM94.1178 35.4258H92.832L92.125 38.507H92.832L93.0892 37.4193H93.9891C94.6966 37.4193 95.2749 36.9962 95.2749 36.332C95.2749 35.6674 94.8252 35.4258 94.1178 35.4258Z" fill="#221F1F"/>
</g>
</g>
<defs>
<clipPath id="clip0_7232_42064">
<rect width="90" height="29" fill="white" transform="translate(5.27344 9.625)"/>
</clipPath>
</defs>
</svg>
