<svg width="100" height="48" viewBox="0 0 100 48" fill="none" xmlns="http://www.w3.org/2000/svg">
<path d="M48.9258 22.0898H49.1168C49.1642 22.0898 49.2 22.1021 49.2243 22.1267C49.2335 22.1357 49.2407 22.1466 49.2455 22.1585C49.2504 22.1705 49.2527 22.1833 49.2525 22.1961V22.1973C49.2526 22.2079 49.2512 22.2184 49.2481 22.2285C49.2454 22.2372 49.2414 22.2455 49.2364 22.253C49.2317 22.2602 49.226 22.2666 49.2194 22.2722C49.2131 22.2777 49.2061 22.2824 49.1986 22.2863C49.2201 22.2938 49.2395 22.3064 49.2549 22.3231C49.2686 22.3387 49.2754 22.3601 49.2754 22.3876V22.3887C49.2758 22.4058 49.2721 22.4228 49.2646 22.4382C49.2573 22.4524 49.2466 22.4645 49.2334 22.4735C49.2186 22.4835 49.2021 22.4907 49.1847 22.4947C49.164 22.4996 49.1428 22.502 49.1215 22.5018H48.9258V22.0898ZM49.0976 22.2564C49.1141 22.2572 49.1306 22.2537 49.1453 22.2461C49.1511 22.2427 49.1557 22.2379 49.1588 22.232C49.1619 22.2261 49.1633 22.2195 49.1629 22.2128V22.2117C49.1632 22.2056 49.1619 22.1995 49.1593 22.194C49.1566 22.1885 49.1526 22.1837 49.1476 22.1802C49.1374 22.1729 49.1227 22.1693 49.1035 22.1693H49.0141V22.2564H49.0976ZM49.1217 22.4224C49.1382 22.4233 49.1546 22.4196 49.169 22.4116C49.1746 22.408 49.1792 22.4029 49.1822 22.397C49.1852 22.391 49.1865 22.3843 49.1861 22.3777V22.3765C49.1863 22.3702 49.185 22.3639 49.1822 22.3582C49.1794 22.3525 49.1753 22.3476 49.1702 22.3439C49.1596 22.3357 49.1425 22.3316 49.119 22.3316H49.0141V22.4224H49.1217Z" fill="#F3BA2F"/>
<path d="M49.3906 22.0859H49.4813V22.498H49.3906V22.0859Z" fill="#F3BA2F"/>
<path d="M49.6172 22.0898H49.7008L49.894 22.3434V22.0898H49.9835V22.5019H49.9063L49.7068 22.24V22.5019H49.6172V22.0898Z" fill="#F3BA2F"/>
<path d="M50.2587 22.082H50.3421L50.5187 22.497H50.4241L50.3864 22.4046H50.2121L50.1745 22.497H50.082L50.2587 22.082ZM50.354 22.3246L50.2992 22.1909L50.2445 22.3246H50.354Z" fill="#F3BA2F"/>
<path d="M50.6172 22.0898H50.7008L50.8939 22.3434V22.0898H50.9833V22.5019H50.9062L50.7067 22.24V22.5019H50.6172V22.0898Z" fill="#F3BA2F"/>
<path d="M51.309 22.5082C51.2801 22.5085 51.2515 22.5029 51.2248 22.4918C51.1997 22.4814 51.1769 22.4661 51.1578 22.4468C51.1387 22.4275 51.1237 22.4046 51.1136 22.3793C51.1029 22.353 51.0975 22.3248 51.0977 22.2963V22.2951C51.0972 22.2391 51.1188 22.185 51.1577 22.1447C51.1769 22.125 51.1999 22.1094 51.2253 22.0988C51.2529 22.0874 51.2825 22.0817 51.3123 22.082C51.33 22.0819 51.3476 22.0835 51.365 22.0868C51.3799 22.0896 51.3944 22.0939 51.4083 22.0997C51.421 22.1051 51.433 22.1118 51.4442 22.1197C51.4552 22.1275 51.4654 22.1362 51.4749 22.1456L51.4173 22.2122C51.4026 22.1986 51.386 22.1871 51.3682 22.178C51.3507 22.1696 51.3314 22.1654 51.312 22.1657C51.2958 22.1655 51.2798 22.1688 51.265 22.1753C51.2501 22.1818 51.2369 22.1914 51.2261 22.2034C51.2153 22.2154 51.2069 22.2293 51.2013 22.2443C51.1953 22.2602 51.1924 22.2771 51.1925 22.2941V22.2953C51.1924 22.3122 51.1954 22.3291 51.2013 22.345C51.2068 22.3601 51.2152 22.3741 51.2258 22.3862C51.2366 22.3983 51.2498 22.408 51.2646 22.4146C51.2794 22.4212 51.2955 22.4246 51.3117 22.4244C51.3324 22.4251 51.3529 22.4207 51.3714 22.4115C51.3891 22.4019 51.4054 22.39 51.42 22.3761L51.4777 22.4345C51.4675 22.4455 51.4565 22.4558 51.4447 22.4651C51.4332 22.4743 51.4206 22.4821 51.4074 22.4884C51.3932 22.4951 51.3783 22.5 51.3629 22.5031C51.3452 22.5066 51.3271 22.5083 51.309 22.5082Z" fill="#F3BA2F"/>
<path d="M51.5859 22.0898H51.8961V22.1705H51.6751V22.2541H51.8697V22.3347H51.6754V22.4213H51.8991V22.5019H51.5861L51.5859 22.0898Z" fill="#F3BA2F"/>
<g clip-path="url(#clip0_7232_41862)">
<path d="M21.1805 18.4336C17.6521 18.4336 14.8953 21.112 14.8953 24.6976C14.8953 28.2832 17.5825 30.9387 21.1805 30.9387C24.7784 30.9387 27.5124 28.2374 27.5124 24.6747C27.5124 21.1349 24.8252 18.4336 21.1805 18.4336ZM21.2043 28.3546C19.195 28.3546 17.7227 26.7941 17.7227 24.6985C17.7227 22.579 19.1712 21.0194 21.1805 21.0194C23.2135 21.0194 24.685 22.6028 24.685 24.6985C24.685 26.7941 23.2135 28.3546 21.2043 28.3546ZM28.2829 21.1587H30.0356V30.7068H32.8392V18.6663H28.2829V21.1587ZM7.83952 21.0185C9.31185 21.0185 10.48 21.9266 10.9235 23.2773H13.8911C13.3533 20.3899 10.9702 18.4336 7.86332 18.4336C4.33501 18.4336 1.57812 21.112 1.57812 24.6985C1.57812 28.285 4.26536 30.9396 7.86332 30.9396C10.9006 30.9396 13.3304 28.9832 13.8682 26.0721H10.9235C10.5029 27.4227 9.33477 28.3546 7.86244 28.3546C5.82938 28.3546 4.40466 26.7941 4.40466 24.6985C4.40554 22.579 5.80734 21.0185 7.83952 21.0185ZM81.5533 23.5338L79.4973 23.2314C78.516 23.0921 77.8151 22.7659 77.8151 21.9971C77.8151 21.1587 78.7267 20.7399 79.9645 20.7399C81.3196 20.7399 82.1845 21.3218 82.3714 22.2766H85.0816C84.7774 19.8548 82.9083 18.4344 80.0351 18.4344C77.0675 18.4344 75.105 19.9482 75.105 22.0906C75.105 24.1395 76.3904 25.328 78.9833 25.7L81.0393 26.0024C82.0443 26.1417 82.605 26.5385 82.605 27.2834C82.605 28.2383 81.6238 28.6341 80.2687 28.6341C78.6095 28.6341 77.6749 27.9588 77.5348 26.9343H74.7779C75.0353 29.2865 76.8806 30.9396 80.2449 30.9396C83.306 30.9396 85.3381 29.5422 85.3381 27.1433C85.3381 25.0009 83.8667 23.883 81.5533 23.5338ZM31.4374 13.7062C30.4094 13.7062 29.638 14.4512 29.638 15.4757C29.638 16.5001 30.4086 17.2451 31.4374 17.2451C32.4654 17.2451 33.2369 16.5001 33.2369 15.4757C33.2369 14.4512 32.4654 13.7062 31.4374 13.7062ZM72.5817 22.7889C72.5817 20.181 70.993 18.4344 67.6287 18.4344C64.4512 18.4344 62.6756 20.0417 62.3247 22.5103H65.1054C65.2456 21.5554 65.9932 20.7637 67.5819 20.7637C69.0076 20.7637 69.7085 21.3923 69.7085 22.1611C69.7085 23.1627 68.423 23.4183 66.8343 23.5814C64.6849 23.8142 62.0215 24.5592 62.0215 27.354C62.0215 29.5202 63.634 30.9167 66.2039 30.9167C68.2132 30.9167 69.4748 30.0782 70.1061 28.7505C70.1995 29.9381 71.0873 30.7068 72.326 30.7068H73.9615V28.2153H72.5826V22.7889H72.5817ZM69.8248 25.8164C69.8248 27.4236 68.423 28.6112 66.7171 28.6112C65.6653 28.6112 64.7775 28.1686 64.7775 27.2376C64.7775 26.05 66.2031 25.7238 67.5114 25.5845C68.773 25.4682 69.4739 25.1887 69.8248 24.6526V25.8164ZM54.9419 18.4336C53.3761 18.4336 52.0678 19.086 51.1332 20.1801V13.5898H48.3296V30.7068H51.0865V29.1234C52.021 30.2643 53.3532 30.9396 54.9419 30.9396C58.3062 30.9396 60.8533 28.285 60.8533 24.6985C60.8533 21.112 58.2595 18.4336 54.9419 18.4336ZM54.5214 28.3546C52.5121 28.3546 51.0398 26.7941 51.0398 24.6985C51.0398 22.6028 52.535 21.0194 54.5443 21.0194C56.5773 21.0194 58.0021 22.5799 58.0021 24.6985C58.0021 26.7941 56.5306 28.3546 54.5214 28.3546ZM41.6239 18.4336C39.8015 18.4336 38.6096 19.1785 37.9087 20.2268V18.6663H35.128V30.706H37.9316V24.1624C37.9316 22.3225 39.0998 21.0185 40.8286 21.0185C42.4412 21.0185 43.4453 22.1594 43.4453 23.8133V30.7068H46.249V23.6044C46.2498 20.5759 44.6849 18.4336 41.6239 18.4336ZM98.7029 24.3026C98.7029 20.8563 96.1796 18.4344 92.7915 18.4344C89.1935 18.4344 86.553 21.1358 86.553 24.6985C86.553 28.4481 89.3804 30.9396 92.8382 30.9396C95.7591 30.9396 98.0487 29.216 98.6323 26.7712H95.7115C95.2909 27.8424 94.2629 28.4481 92.8841 28.4481C91.0846 28.4481 89.7296 27.3302 89.4263 25.3738H98.702V24.3026H98.7029ZM89.5903 23.3707C90.0346 21.6939 91.2962 20.8792 92.7448 20.8792C94.3335 20.8792 95.5484 21.7873 95.8287 23.3707H89.5903Z" fill="#0052FF"/>
</g>
<defs>
<clipPath id="clip0_7232_41862">
<rect width="97.1248" height="17.3659" fill="white" transform="translate(1.57812 13.582)"/>
</clipPath>
</defs>
</svg>
