<svg width="100" height="48" viewBox="0 0 100 48" fill="none" xmlns="http://www.w3.org/2000/svg">
<g clip-path="url(#clip0_7232_41998)">
<path d="M30.7791 11.543H6.20424C6.05269 11.543 5.90733 11.6031 5.80021 11.7104C5.69297 11.8175 5.63281 11.9628 5.63281 12.1145V36.6894C5.63281 36.8409 5.69297 36.9863 5.80021 37.0934C5.90733 37.2006 6.05269 37.2608 6.20424 37.2608H30.7791C30.9308 37.2608 31.0761 37.2006 31.1832 37.0934C31.2905 36.9863 31.3506 36.8409 31.3506 36.6894V12.1145C31.3506 11.9628 31.2905 11.8175 31.1832 11.7104C31.0761 11.6031 30.9308 11.543 30.7791 11.543ZM22.778 28.1167C22.778 28.2683 22.7178 28.4136 22.6106 28.5209C22.5035 28.628 22.3581 28.6883 22.2066 28.6883H14.7769C14.6253 28.6883 14.48 28.628 14.3727 28.5209C14.2656 28.4136 14.2055 28.2683 14.2055 28.1167V20.687C14.2055 20.5355 14.2656 20.3901 14.3727 20.283C14.48 20.1758 14.6253 20.1156 14.7769 20.1156H22.2066C22.3581 20.1156 22.5035 20.1758 22.6106 20.283C22.7178 20.3901 22.778 20.5355 22.778 20.687V28.1167Z" fill="black"/>
<path d="M82.2316 20.1172H74.802C74.4864 20.1172 74.2305 20.373 74.2305 20.6886V28.1183C74.2305 28.4339 74.4864 28.6898 74.802 28.6898H82.2316C82.5472 28.6898 82.8031 28.4339 82.8031 28.1183V20.6886C82.8031 20.373 82.5472 20.1172 82.2316 20.1172Z" fill="black"/>
<path d="M73.6534 11.543H66.2239C65.9083 11.543 65.6523 11.7988 65.6523 12.1145V19.5441C65.6523 19.8597 65.9083 20.1156 66.2239 20.1156H73.6534C73.9692 20.1156 74.225 19.8597 74.225 19.5441V12.1145C74.225 11.7988 73.9692 11.543 73.6534 11.543Z" fill="black"/>
<path d="M90.7981 11.543H83.3684C83.0528 11.543 82.7969 11.7988 82.7969 12.1145V19.5441C82.7969 19.8597 83.0528 20.1156 83.3684 20.1156H90.7981C91.1137 20.1156 91.3695 19.8597 91.3695 19.5441V12.1145C91.3695 11.7988 91.1137 11.543 90.7981 11.543Z" fill="black"/>
<path d="M73.6534 28.6875H66.2239C65.9083 28.6875 65.6523 28.9433 65.6523 29.2589V36.6886C65.6523 37.0042 65.9083 37.2602 66.2239 37.2602H73.6534C73.9692 37.2602 74.225 37.0042 74.225 36.6886V29.2589C74.225 28.9433 73.9692 28.6875 73.6534 28.6875Z" fill="black"/>
<path d="M90.7981 28.6875H83.3684C83.0528 28.6875 82.7969 28.9433 82.7969 29.2589V36.6886C82.7969 37.0042 83.0528 37.2602 83.3684 37.2602H90.7981C91.1137 37.2602 91.3695 37.0042 91.3695 36.6886V29.2589C91.3695 28.9433 91.1137 28.6875 90.7981 28.6875Z" fill="black"/>
<path d="M60.7863 11.543H53.3567C53.0411 11.543 52.7852 11.7988 52.7852 12.1145V19.5441C52.7852 19.8597 53.0411 20.1156 53.3567 20.1156H60.7863C61.1019 20.1156 61.3578 19.8597 61.3578 19.5441V12.1145C61.3578 11.7988 61.1019 11.543 60.7863 11.543Z" fill="black"/>
<path d="M60.7863 28.6875H53.3567C53.0411 28.6875 52.7852 28.9433 52.7852 29.2589V36.6886C52.7852 37.0042 53.0411 37.2602 53.3567 37.2602H60.7863C61.1019 37.2602 61.3578 37.0042 61.3578 36.6886V29.2589C61.3578 28.9433 61.1019 28.6875 60.7863 28.6875Z" fill="black"/>
<path d="M52.782 20.6806C52.782 20.5291 52.7217 20.3837 52.6146 20.2766C52.5074 20.1693 52.362 20.1092 52.2105 20.1092H44.2094V12.1145C44.2094 11.9628 44.1491 11.8175 44.042 11.7104C43.9347 11.6031 43.7894 11.543 43.6378 11.543H36.2083C36.0566 11.543 35.9112 11.6031 35.8041 11.7104C35.6969 11.8175 35.6367 11.9628 35.6367 12.1145V36.6765C35.6367 36.8281 35.6969 36.9734 35.8041 37.0805C35.9112 37.1878 36.0566 37.2479 36.2083 37.2479H43.6378C43.7894 37.2479 43.9347 37.1878 44.042 37.0805C44.1491 36.9734 44.2094 36.8281 44.2094 36.6765V28.6818H52.2105C52.362 28.6818 52.5074 28.6216 52.6146 28.5144C52.7217 28.4072 52.782 28.2618 52.782 28.1103V20.6806Z" fill="black"/>
</g>
<defs>
<clipPath id="clip0_7232_41998">
<rect width="88" height="30" fill="white" transform="translate(4.5 9.40234)"/>
</clipPath>
</defs>
</svg>
