<svg width="100" height="48" viewBox="0 0 100 48" fill="none" xmlns="http://www.w3.org/2000/svg">
<g clip-path="url(#clip0_7232_41838)">
<path d="M65.4495 17.6332C67.0303 17.6332 68.3103 16.3532 68.3103 14.7749C68.3103 13.1966 67.0295 11.9141 65.4495 11.9141C63.8695 11.9141 62.5911 13.1957 62.5911 14.7749C62.591 15.1503 62.6649 15.5221 62.8085 15.869C62.9521 16.2159 63.1626 16.5311 63.428 16.7966C63.6935 17.0621 64.0086 17.2727 64.3554 17.4164C64.7023 17.5601 65.074 17.6332 65.4495 17.6332ZM43.5378 19.1749C43.4086 19.5082 42.4795 22.1249 40.232 24.8441V13.2141L34.2445 14.3974V35.4807H40.2328V28.9641C41.9678 31.5641 42.8245 35.4807 42.8245 35.4807H49.997C49.2886 32.5307 46.1845 27.0932 46.1845 27.0932C48.0287 24.7144 49.4503 22.0363 50.387 19.1757L43.5378 19.1749ZM59.2795 18.9549C53.917 19.1274 51.1936 21.5332 51.1936 26.3166V35.4799H57.0453V28.0082C57.0453 25.1449 57.4203 23.9249 60.8186 23.7999V19.0416C60.247 18.9199 59.2795 18.9582 59.2795 18.9582M24.2028 21.4999C23.4695 21.4524 21.7711 21.3416 21.7711 19.8132C21.7711 17.9691 24.2153 17.9691 25.1328 17.9691C26.7453 17.9691 28.8328 18.4441 30.3245 18.8916C30.8325 19.1029 31.346 19.3007 31.8645 19.4849L31.9311 19.5032V14.4499L31.8411 14.4232C30.0811 13.8066 28.0353 13.2149 24.2411 13.2149C17.6995 13.2149 15.3828 17.0249 15.3828 20.2899C15.3828 22.1716 16.1895 26.6007 23.6803 27.1116C24.3153 27.1507 26.0003 27.2474 26.0003 28.8282C26.0003 30.1324 24.6203 30.9016 22.3003 30.9016C19.7586 30.9016 17.2895 30.2532 15.792 29.6382V34.8407C18.0353 35.4282 20.5636 35.7224 23.5278 35.7224C29.9236 35.7224 32.7878 32.1174 32.7878 28.5441C32.7878 24.4924 29.5828 21.8607 24.2045 21.4999M62.5511 35.4832H68.3545V19.1949H62.5495L62.5511 35.4832ZM79.2828 14.2541V35.4832H85.0878V13.2166L79.2828 14.2541ZM70.8136 14.2541L76.612 13.2166V35.4832H70.8136V14.2524V14.2541Z" fill="#862565"/>
</g>
<defs>
<clipPath id="clip0_7232_41838">
<rect width="100" height="48" fill="white"/>
</clipPath>
</defs>
</svg>
