<svg width="100" height="48" viewBox="0 0 100 48" fill="none" xmlns="http://www.w3.org/2000/svg">
<g clip-path="url(#clip0_7232_42159)">
<g clip-path="url(#clip1_7232_42159)">
<path fill-rule="evenodd" clip-rule="evenodd" d="M11.874 35.625C18.4382 35.625 23.7596 30.2524 23.7596 23.625C23.7596 16.9976 18.4382 11.625 11.874 11.625C5.3097 11.625 -0.0117188 16.9976 -0.0117188 23.625C-0.0117188 30.2524 5.3097 35.625 11.874 35.625ZM16.1634 29.9049C14.9432 30.7602 13.4617 31.2614 11.8644 31.2614C7.6924 31.2614 4.31037 27.8425 4.31037 23.625C4.31037 19.4076 7.6924 15.9887 11.8644 15.9887C16.0363 15.9887 19.4184 19.4076 19.4184 23.625C19.4184 24.5665 19.2499 25.4682 18.9416 26.3009C17.7461 25.8627 16.4135 25.7317 15.1934 26.0276C15.6791 25.3433 15.9651 24.5043 15.9651 23.5977C15.9651 21.2932 14.117 19.425 11.8374 19.425C9.55766 19.425 7.70962 21.2932 7.70962 23.5977C7.70962 25.9022 9.55766 27.7704 11.8374 27.7704C12.3628 27.7704 12.8654 27.6712 13.3276 27.4902C14.4843 28.1678 15.4815 29.1404 16.1634 29.9049ZM20.0966 28.8693C19.5577 29.7288 18.8903 30.4979 18.1216 31.1492C17.2797 30.0275 15.5776 28.3338 13.6989 27.2523C15.4348 25.9384 18.1239 26.7786 20.0966 28.8693Z" fill="#3E2284"/>
<path d="M35.5625 17.4375C33.8815 17.4375 32.4996 18.0189 31.4172 19.1584C30.358 20.298 29.8282 21.8096 29.8282 23.6933C29.8282 25.577 30.358 27.0887 31.4172 28.2282C32.4996 29.3677 33.8815 29.9491 35.5625 29.9491C37.0596 29.9491 38.1649 29.5305 38.9249 28.6701V35.6236H42.2641V17.6701H39.109V18.9259C38.3722 17.9259 37.1977 17.4375 35.5625 17.4375ZM36.1152 20.3445C37.7963 20.3445 38.9249 21.5305 38.9249 23.4142V23.9724C38.9249 25.8561 37.7963 27.0422 36.1152 27.0422C34.3879 27.0422 33.2366 25.8096 33.2366 23.6933C33.2366 21.577 34.3879 20.3445 36.1152 20.3445Z" fill="#3E2284"/>
<path d="M54.9635 17.6719H51.6011V24.4626C51.6011 25.8579 50.8414 26.7882 49.5747 26.7882C48.3082 26.7882 47.6633 26.0207 47.6633 24.5091V17.6719H44.3009V25.23C44.3009 28.1835 45.959 29.9509 48.6995 29.9509C50.1503 29.9509 51.1868 29.4626 51.7855 28.4858V29.6951H54.9635V17.6719Z" fill="#3E2284"/>
<path d="M58.7568 11.694C57.0757 11.601 56.0395 14.0196 57.3289 15.1824C58.0889 15.9498 59.4246 15.9498 60.1846 15.1824C60.5762 14.787 60.7835 14.2987 60.7835 13.7405C60.7835 12.601 59.8854 11.694 58.7568 11.694ZM60.4381 17.6708H57.0757V29.694H60.4381V17.6708Z" fill="#3E2284"/>
<path d="M74.3738 11.625H71.0343V18.718C70.2973 17.8576 69.1689 17.4389 67.6722 17.4389C65.9908 17.4389 64.6092 18.0204 63.5268 19.1599C62.4674 20.2994 61.9376 21.8111 61.9376 23.6948C61.9376 25.5785 62.4674 27.0901 63.5268 28.2296C64.6092 29.3692 65.9908 29.9506 67.6722 29.9506C69.2611 29.9506 70.5508 29.3227 71.2186 28.4622V29.6948H74.3738V11.625ZM68.2249 20.3459C69.9059 20.3459 71.0343 21.532 71.0343 23.4157V23.9506C71.0343 25.8808 69.9059 27.0204 68.2249 27.0204C66.4976 27.0204 65.346 25.8111 65.346 23.6948C65.346 21.5785 66.4976 20.3459 68.2249 20.3459Z" fill="#3E2284"/>
<path d="M81.1757 17.4375C79.7249 17.4375 78.5274 17.8794 77.5831 18.7631C76.662 19.6236 76.2015 20.6236 76.2015 21.7398L79.5636 21.8794C79.5636 21.0189 80.1395 20.298 81.2217 20.298C82.2582 20.298 82.7647 20.9259 82.7647 22.1584V22.6236L80.646 22.7398C77.4679 22.8794 75.879 24.0887 75.879 26.391C75.879 28.6933 77.3758 29.9491 79.8401 29.9491C81.0836 29.9491 82.0968 29.5305 82.8798 28.7166V29.6933H86.1271V22.2747C86.1271 19.1119 84.3998 17.4375 81.1757 17.4375ZM82.7647 25.3677C82.7647 26.6003 81.8895 27.3212 80.6231 27.3212C79.702 27.3212 79.2412 26.9491 79.2412 26.2282C79.2412 25.4375 79.8171 25.0189 80.9685 24.9724L82.7647 24.8561V25.3677Z" fill="#3E2284"/>
<path d="M98.8792 17.6719H95.0565L92.8457 21.3463L90.6349 17.6719H86.812L90.4736 23.6254L86.7657 29.6951H90.5887L92.8457 25.9509L95.1254 29.6951H98.9713L95.1946 23.6254L98.8792 17.6719Z" fill="#3E2284"/>
<g clip-path="url(#clip2_7232_42159)">
<path fill-rule="evenodd" clip-rule="evenodd" d="M479.923 911.625C728.504 911.625 930.018 710.153 930.018 461.625C930.018 213.097 728.504 11.625 479.923 11.625C231.343 11.625 29.8282 213.097 29.8282 461.625C29.8282 710.153 231.343 911.625 479.923 911.625ZM642.36 697.123C596.151 729.196 540.048 747.989 479.56 747.989C321.573 747.989 193.5 619.78 193.5 461.626C193.5 303.472 321.573 175.263 479.56 175.263C637.547 175.263 765.621 303.472 765.621 461.626C765.621 496.931 759.239 530.744 747.566 561.971C702.292 545.54 651.83 540.628 605.625 551.723C624.019 526.06 634.848 494.597 634.848 460.601C634.848 374.181 564.865 304.124 478.537 304.124C392.208 304.124 322.225 374.181 322.225 460.601C322.225 547.021 392.208 617.078 478.537 617.078C498.436 617.078 517.467 613.356 534.972 606.569C578.772 631.981 616.535 668.452 642.36 697.123ZM791.303 658.288C770.896 690.517 745.622 719.359 716.513 743.782C684.63 701.72 620.175 638.204 549.031 597.648C614.768 548.379 716.6 579.885 791.303 658.288Z" fill="#3E2284"/>
<g opacity="0.15">
<path d="M892.91 282.411C823.714 123.241 665.158 11.8788 480.556 11.625C293.811 11.8818 133.72 125.842 65.8282 287.974C106.695 326.767 153.052 359.832 203.613 385.883C236.788 264.484 347.766 175.262 479.561 175.262C610.337 175.262 720.616 263.111 754.724 383.074C805.581 356.21 852.088 322.211 892.91 282.411Z" fill="white"/>
</g>
</g>
</g>
</g>
<defs>
<clipPath id="clip0_7232_42159">
<rect width="100" height="48" fill="white"/>
</clipPath>
<clipPath id="clip1_7232_42159">
<rect width="99" height="24" fill="white" transform="translate(-0.0117188 11.625)"/>
</clipPath>
<clipPath id="clip2_7232_42159">
<rect width="3749" height="900" fill="white" transform="translate(29.8282 11.625)"/>
</clipPath>
</defs>
</svg>
