<svg width="100" height="48" viewBox="0 0 100 48" fill="none" xmlns="http://www.w3.org/2000/svg">
<g clip-path="url(#clip0_7232_41988)">
<path d="M36.6278 22.295C36.5401 22.3511 36.4304 22.3736 36.3318 22.3511C36.2331 22.3287 36.1345 22.2725 36.0796 22.1826C35.7727 21.7332 35.3671 21.3736 34.8957 21.1264C34.4243 20.8792 33.8872 20.7556 33.361 20.7781C31.2891 20.7781 30.0065 22.4635 30.0065 24.868C30.0065 27.2725 31.3 28.9916 33.3829 28.9916C33.9201 29.0028 34.4572 28.8792 34.9396 28.6208C35.4219 28.3624 35.8275 27.9804 36.1235 27.5197C36.1783 27.4298 36.266 27.3736 36.3756 27.3511C36.4743 27.3287 36.5839 27.3399 36.6716 27.3961L37.6582 27.9804C37.713 28.0028 37.7569 28.0478 37.8007 28.0927C37.8446 28.1377 37.8665 28.1938 37.8775 28.2613C37.8884 28.3174 37.8884 28.3849 37.8775 28.441C37.8665 28.4972 37.8446 28.5646 37.8117 28.6096C37.3294 29.3511 36.6716 29.9579 35.9042 30.3624C35.1369 30.7669 34.2709 30.9691 33.4048 30.9467C30.0832 30.9467 27.8359 28.4747 27.8359 24.8792C27.8359 21.2837 30.0832 18.8455 33.361 18.8455C34.216 18.8231 35.0601 19.0141 35.8275 19.3961C36.5949 19.7893 37.2526 20.3624 37.7569 21.0702C37.7898 21.1152 37.8117 21.1714 37.8336 21.2275C37.8446 21.2837 37.8446 21.3399 37.8336 21.4073C37.8227 21.4635 37.8007 21.5197 37.7679 21.5759C37.735 21.632 37.6911 21.6658 37.6473 21.6995L36.6278 22.295Z" fill="black"/>
<path fill-rule="evenodd" clip-rule="evenodd" d="M43.8848 29.8007V30.2951C43.8848 30.3513 43.8958 30.4075 43.9177 30.4637C43.9396 30.5198 43.9725 30.5648 44.0163 30.5985C44.0602 30.6434 44.104 30.6659 44.1589 30.6884C44.2137 30.7109 44.2685 30.7221 44.3233 30.7108H45.4086C45.4634 30.7108 45.5182 30.6996 45.562 30.6771C45.6169 30.6547 45.6607 30.621 45.6936 30.5873C45.7374 30.5423 45.7594 30.4974 45.7813 30.4524C45.8032 30.3962 45.8142 30.3401 45.8142 30.2951V24.7333C45.8142 22.7221 44.422 21.8906 42.4378 21.8906C41.3306 21.8906 40.2343 22.1715 39.2477 22.7109C39.149 22.767 39.0833 22.8569 39.0504 22.958C39.0175 23.0592 39.0285 23.1715 39.0723 23.2726L39.4231 24.0367C39.445 24.0929 39.4779 24.1378 39.5218 24.1715C39.5656 24.2052 39.6095 24.2389 39.6643 24.2502C39.7191 24.2726 39.7739 24.2726 39.8287 24.2726C39.8835 24.2726 39.9383 24.2502 39.9822 24.2277C40.6838 23.8569 41.4621 23.6547 42.2514 23.6434C42.942 23.6434 43.7533 23.8344 43.7533 24.5535C43.7533 25.3064 42.8653 25.4412 41.7691 25.5985C41.6814 25.6097 41.5937 25.621 41.506 25.6322C40.3768 25.7895 38.5352 26.1603 38.5352 28.2614C38.5352 29.958 39.7301 30.9243 41.4512 30.9243C42.646 30.9131 43.3696 30.4861 43.8848 29.8007ZM42.1856 26.9356C42.8434 26.812 43.4353 26.7108 43.7752 26.4524V27.4412C43.7752 28.7333 42.8653 29.2951 41.8896 29.2951C41.1004 29.2951 40.5632 28.9356 40.5632 28.1715C40.5632 27.3401 41.1881 27.1266 41.9335 26.9917C42.0212 26.9693 42.1089 26.9468 42.1856 26.9356Z" fill="black"/>
<path d="M47.6031 28.5222C47.6688 28.4436 47.7675 28.3874 47.8771 28.3761C47.9867 28.3649 48.0964 28.3986 48.1731 28.466C48.8637 29.0054 49.7188 29.2863 50.5848 29.2638C51.4837 29.2638 52.1415 28.9716 52.1415 28.2525C52.1415 27.6009 51.5386 27.466 50.0696 27.2076C48.5129 26.9379 47.022 26.4099 47.022 24.5896C47.022 22.6907 48.6226 21.893 50.4423 21.893C51.5824 21.8705 52.7006 22.2525 53.6104 22.9604C53.6543 22.9941 53.6872 23.0391 53.7201 23.0952C53.742 23.1514 53.7639 23.1964 53.7639 23.2638C53.7639 23.32 53.7639 23.3761 53.742 23.4323C53.7201 23.4885 53.6981 23.5334 53.6543 23.5784L53.1391 24.2076C53.0733 24.2863 52.9746 24.3424 52.865 24.3537C52.7554 24.3649 52.6567 24.3312 52.569 24.275C51.9332 23.7919 51.1549 23.5447 50.3656 23.5559C49.5982 23.5559 48.9295 23.7806 48.9295 24.4098C48.9295 25.0952 49.8723 25.2301 50.815 25.3986C52.8211 25.7582 54.1037 26.3424 54.1037 28.0615C54.1037 29.8593 52.7006 30.9716 50.4752 30.9716C49.2584 31.0054 48.0635 30.6121 47.0988 29.8481C47.0549 29.8143 47.022 29.7694 46.9892 29.7132C46.9672 29.6683 46.9453 29.6121 46.9453 29.5559C46.9453 29.4997 46.9453 29.4436 46.9672 29.3874C46.9892 29.3312 47.0111 29.2863 47.044 29.2413L47.6031 28.5222ZM55.3315 30.2975V19.466C55.3315 19.4098 55.3425 19.3537 55.3644 19.2975C55.3863 19.2413 55.4192 19.1964 55.4521 19.1627C55.496 19.1177 55.5398 19.0952 55.5837 19.0728C55.6385 19.0503 55.6933 19.0391 55.7371 19.0391H56.932C57.1623 19.0391 57.3486 19.2301 57.3486 19.466V23.1627C57.6446 22.7582 58.0392 22.4323 58.4777 22.2076C58.9272 21.9829 59.4205 21.8818 59.9138 21.893C61.6788 21.893 62.7202 23.1851 62.7202 25.0278V30.2975C62.7202 30.3537 62.7092 30.4099 62.6873 30.4548C62.6654 30.511 62.6325 30.5559 62.5996 30.5896C62.5557 30.6346 62.5119 30.657 62.468 30.6795C62.4132 30.702 62.3584 30.7132 62.3146 30.7132H61.1197C61.0101 30.7132 60.9004 30.6683 60.8237 30.5896C60.747 30.511 60.7031 30.3986 60.7031 30.2863V25.4997C60.7031 24.5784 60.4181 23.7469 59.267 23.7469C58.1818 23.7469 57.3486 24.5334 57.3486 25.8368V30.2863C57.3486 30.3986 57.3048 30.511 57.228 30.5896C57.1513 30.6683 57.0417 30.7132 56.932 30.7132H55.7371C55.6823 30.7132 55.6275 30.702 55.5727 30.6795C55.5179 30.657 55.474 30.6233 55.4412 30.5896C55.3973 30.5447 55.3754 30.4997 55.3535 30.4548C55.3425 30.4099 55.3315 30.3537 55.3315 30.2975Z" fill="black"/>
<path fill-rule="evenodd" clip-rule="evenodd" d="M75.043 27.8222L75.909 30.4289C75.931 30.5188 75.9858 30.5862 76.0516 30.6424C76.1173 30.6986 76.205 30.721 76.2927 30.7323H77.7727C77.8384 30.7323 77.9042 30.721 77.97 30.6873C78.0248 30.6536 78.0796 30.6087 78.1234 30.5525C78.1673 30.4963 78.1892 30.4289 78.2002 30.3615C78.2111 30.2941 78.2002 30.2267 78.1783 30.1592L74.2757 19.3278C74.2428 19.2491 74.188 19.1705 74.1222 19.1255C74.0564 19.0806 73.9687 19.0469 73.881 19.0469H71.9626C71.8749 19.0469 71.7982 19.0693 71.7324 19.1143C71.6666 19.1592 71.6118 19.2267 71.5789 19.3053L67.6434 30.148C67.6215 30.2154 67.6105 30.2828 67.6215 30.3502C67.6325 30.4177 67.6544 30.4851 67.6873 30.5413C67.7201 30.5974 67.775 30.6424 67.8407 30.6761C67.8955 30.7098 67.9613 30.721 68.0271 30.721H69.4303C69.518 30.721 69.6057 30.6986 69.6715 30.6424C69.7372 30.5862 69.792 30.5188 69.8249 30.4289L70.691 27.8222H75.043ZM71.2171 26.0019L72.8944 20.9345L74.5059 26.0019H71.2171ZM81.171 23.1817V22.5075C81.171 22.4514 81.16 22.3952 81.1491 22.339C81.1271 22.2828 81.0943 22.2379 81.0614 22.1929C81.0175 22.148 80.9737 22.1143 80.9189 22.0918C80.864 22.0693 80.8092 22.0581 80.7544 22.0581H79.5595C79.3293 22.0581 79.1429 22.2491 79.1429 22.4851V33.1255C79.1429 33.3615 79.3293 33.5525 79.5595 33.5525H80.7544C80.9846 33.5525 81.171 33.3615 81.171 33.1255V29.5974C81.467 30.0244 81.8507 30.3615 82.3111 30.5862C82.7605 30.8109 83.2648 30.9233 83.7691 30.9008C86.0602 30.9008 87.5511 28.9345 87.5511 26.384C87.5511 23.8334 86.0712 21.8896 83.7691 21.8896C83.2648 21.8671 82.7605 21.9795 82.3111 22.2042C81.8616 22.4177 81.467 22.7547 81.171 23.1817ZM85.4244 26.384C85.4244 27.8671 84.7557 29.1031 83.3525 29.1031C81.9274 29.1031 81.182 27.8783 81.182 26.384C81.182 24.8896 81.9603 23.6986 83.3525 23.6986C84.7447 23.6986 85.4244 24.9008 85.4244 26.384ZM90.8289 23.1817V22.5075C90.8289 22.4514 90.8288 22.3952 90.8069 22.339C90.785 22.2828 90.7521 22.2379 90.7192 22.1929C90.6754 22.148 90.6315 22.1143 90.5767 22.0918C90.5219 22.0693 90.4671 22.0581 90.4123 22.0581H89.2174C89.1078 22.0581 88.9981 22.1031 88.9214 22.1817C88.8447 22.2604 88.8008 22.3727 88.8008 22.4851V33.1255C88.8008 33.3615 88.9872 33.5525 89.2174 33.5525H90.4123C90.6425 33.5525 90.8289 33.3615 90.8289 33.1255V29.5974C91.1248 30.0244 91.5085 30.3615 91.9689 30.5862C92.4184 30.8109 92.9227 30.9233 93.4269 30.9008C95.729 30.9008 97.209 28.9345 97.209 26.384C97.209 23.8334 95.729 21.8896 93.4269 21.8896C92.9227 21.8671 92.4184 21.9795 91.9689 22.2042C91.5195 22.4177 91.1248 22.7547 90.8289 23.1817ZM95.0823 26.384C95.0823 27.8671 94.4135 29.1031 93.0104 29.1031C91.5853 29.1031 90.8398 27.8783 90.8398 26.384C90.8398 24.8896 91.6181 23.6986 93.0104 23.6986C94.3916 23.6986 95.0823 24.9008 95.0823 26.384Z" fill="black"/>
<path fill-rule="evenodd" clip-rule="evenodd" d="M16.8089 13.1836C19.0672 13.1836 20.1853 13.1836 21.4131 13.5769C22.0709 13.824 22.6628 14.2061 23.1561 14.7117C23.6495 15.2173 24.0331 15.824 24.2633 16.4982C24.647 17.7454 24.647 18.8915 24.647 21.2061V28.1499C24.647 30.4533 24.647 31.6106 24.2633 32.8578C24.0222 33.5319 23.6495 34.1386 23.1561 34.6443C22.6628 35.1499 22.0709 35.5431 21.4131 35.7791C20.1963 36.1724 19.0781 36.1724 16.8199 36.1724H10.0232C7.77592 36.1724 6.6468 36.1724 5.42997 35.7791C4.77223 35.5319 4.18026 35.1499 3.68695 34.6443C3.19365 34.1386 2.80996 33.5319 2.57975 32.8578C2.20703 31.6106 2.20703 30.4757 2.20703 28.1499V21.1948C2.20703 18.8915 2.20703 17.7342 2.59071 16.487C2.83189 15.8128 3.20461 15.2061 3.69792 14.7004C4.19122 14.1948 4.78319 13.8016 5.44093 13.5656C6.6468 13.1836 7.77592 13.1836 10.0232 13.1836H16.8089Z" fill="#00D54B"/>
<path d="M13.992 20.7234C15.0992 20.7234 16.1626 21.1279 17.0067 21.8583C17.0944 21.9369 17.204 21.9819 17.3246 21.9819C17.4452 21.9819 17.5548 21.9257 17.6425 21.847L18.5085 20.9594C18.5524 20.9145 18.5853 20.8583 18.6072 20.8021C18.6291 20.7459 18.6401 20.6785 18.6401 20.6223C18.6401 20.5549 18.6181 20.4987 18.5962 20.4425C18.5743 20.3864 18.5304 20.3302 18.4866 20.2965C17.8069 19.701 17.0176 19.2515 16.1735 18.9706L16.4366 17.656C16.4476 17.5886 16.4476 17.5212 16.4366 17.4538C16.4257 17.3864 16.3928 17.3302 16.3489 17.274C16.3051 17.2178 16.2503 17.1729 16.1955 17.1504C16.1297 17.1167 16.0639 17.1055 15.9981 17.1055H14.3319C14.2332 17.1055 14.1236 17.1392 14.0468 17.2066C13.9701 17.274 13.9153 17.3639 13.8824 17.465L13.6522 18.6336C11.4268 18.7459 9.54129 19.8695 9.54129 22.1841C9.54129 24.1841 11.098 25.0381 12.7423 25.6448C14.299 26.2403 15.1211 26.4538 15.1211 27.2965C15.1211 28.1279 14.299 28.656 13.0821 28.656C11.9092 28.6785 10.7691 28.2178 9.91401 27.3864C9.82631 27.2965 9.71669 27.2515 9.5961 27.2515C9.47552 27.2515 9.36589 27.2965 9.27819 27.3864L8.34639 28.319C8.30254 28.3639 8.26966 28.4088 8.24773 28.465C8.22581 28.5212 8.21484 28.5886 8.21484 28.6448C8.21484 28.7122 8.22581 28.7684 8.24773 28.8246C8.26966 28.8807 8.30254 28.9369 8.34639 28.9706C9.1028 29.701 10.0236 30.2178 11.0322 30.4763L10.7691 31.6897C10.7581 31.7572 10.7581 31.8246 10.7691 31.892C10.78 31.9594 10.8129 32.0268 10.8568 32.0718C10.9006 32.1279 10.9554 32.1729 11.0103 32.2066C11.076 32.2403 11.1418 32.2515 11.2076 32.2515H12.8848C12.9835 32.2515 13.0931 32.2178 13.1698 32.1504C13.2466 32.083 13.3124 31.9931 13.3343 31.8807L13.5754 30.7234C16.2393 30.5549 17.8617 29.083 17.8617 26.9369C17.8617 24.9594 16.2393 24.1279 14.2661 23.4425C13.137 23.0043 12.1613 22.7234 12.1613 21.8695C12.1723 21.0268 13.0821 20.7234 13.992 20.7234Z" fill="white"/>
</g>
<defs>
<clipPath id="clip0_7232_41988">
<rect width="95" height="23" fill="white" transform="translate(2.20703 13.1836)"/>
</clipPath>
</defs>
</svg>
