<svg width="100" height="48" viewBox="0 0 100 48" fill="none" xmlns="http://www.w3.org/2000/svg">
<path d="M13.5776 19.664L10.5625 16.6488C10.5131 16.5994 10.4142 16.5994 10.3401 16.6488L9.15378 17.8351C9.10435 17.8846 9.10435 17.9834 9.15378 18.0576L12.1442 21.048C12.8856 21.7894 12.8856 23.0004 12.1442 23.7171C11.4275 24.4091 10.2659 24.4091 9.5492 23.6924L5.19953 19.3427C4.48282 18.626 4.48282 17.4891 5.17481 16.7477C5.89152 16.0063 7.10251 16.031 7.84393 16.7477L8.28879 17.1926C8.33822 17.242 8.43707 17.242 8.51121 17.1926L9.69749 16.0063C9.74692 15.9568 9.74692 15.858 9.69749 15.7838L9.22792 15.3143C7.72036 13.8067 5.29838 13.8067 3.79083 15.3143C2.28327 16.8218 2.28327 19.2438 3.79083 20.7514L8.1405 25.1011C9.64806 26.6087 12.07 26.6087 13.5776 25.1011C15.0852 23.5936 15.0604 21.1716 13.5776 19.664Z" fill="#EB764B"/>
<path d="M20.5226 15.3143C19.015 13.8067 16.5931 13.8067 15.0855 15.3143L12.1445 18.2553L13.5532 19.664L16.4942 16.723C17.2109 16.0063 18.3725 16.0063 19.0892 16.723C19.8059 17.4397 19.8059 18.6013 19.0892 19.3427L18.6196 19.8123C18.5702 19.8617 18.5702 19.9606 18.6196 20.0347L19.8059 21.221C19.8553 21.2704 19.9542 21.2704 20.0283 21.221L20.4979 20.7514C22.0302 19.2438 22.0302 16.8218 20.5226 15.3143Z" fill="#4DB695"/>
<path d="M18.0019 20.6761C17.9525 20.6266 17.8536 20.6266 17.7795 20.6761L14.7644 23.6912C14.6408 23.8148 14.4678 23.9384 14.3195 24.0125C13.6275 24.3832 12.7378 24.2596 12.1694 23.6912C11.4527 22.9745 11.4527 21.8129 12.1694 21.0962L10.7607 19.6875C9.59913 20.8738 9.32728 22.6038 9.99456 24.0372C10.1676 24.4326 10.4394 24.8034 10.7607 25.1246C11.1808 25.5448 11.6504 25.8414 12.1694 26.0144C12.5895 26.1626 13.0344 26.2368 13.4792 26.2368C14.4678 26.2368 15.4564 25.8661 16.1978 25.1246L19.2129 22.1095C19.2623 22.0601 19.2623 21.9612 19.2129 21.8871L18.0019 20.6761Z" fill="#4DB695"/>
<path d="M20.5219 26.6363L17.5809 23.6953L16.1722 25.104L19.1132 28.045C19.8299 28.7617 19.8299 29.8986 19.1379 30.64C18.4212 31.3815 17.2102 31.3567 16.4688 30.64L16.0239 30.1952C15.9745 30.1457 15.8756 30.1457 15.8015 30.1952L14.6152 31.3815C14.5658 31.4309 14.5658 31.5297 14.6152 31.6039L15.0353 32.024C16.5429 33.5316 19.039 33.5563 20.5219 32.0487C21.2633 31.3073 21.634 30.3187 21.634 29.3549C21.6587 28.3663 21.288 27.3777 20.5219 26.6363Z" fill="#F6C949"/>
<path d="M15.1818 29.5255C15.2312 29.4761 15.2312 29.3772 15.1818 29.3031L12.1666 26.3127C12.0431 26.1891 11.9195 26.0161 11.8454 25.8678C11.4746 25.1758 11.5982 24.2861 12.1666 23.7177C12.8833 23.001 14.0449 23.001 14.7616 23.7177L16.1703 22.309C14.984 21.1474 13.2541 20.8755 11.8206 21.5675C11.4252 21.7405 11.0545 22.0124 10.7332 22.3337C10.3131 22.7538 10.0165 23.2234 9.84352 23.7424C9.69523 24.1625 9.62109 24.6074 9.62109 25.0522C9.62109 26.0408 9.9918 27.0294 10.7332 27.7708L13.7483 30.786C13.7978 30.8354 13.8966 30.8354 13.9708 30.786L15.1818 29.5255Z" fill="#F6C949"/>
<path d="M14.4649 23.6916C14.4155 23.568 14.3908 23.4691 14.3166 23.3456C14.1436 22.9501 13.8718 22.5794 13.5505 22.2581C13.2292 21.9368 12.8585 21.6897 12.4631 21.492C12.3642 21.4426 12.2407 21.3931 12.1418 21.3684C10.7825 20.8741 9.20083 21.1707 8.11341 22.2581L9.52211 23.6668C9.64568 23.5433 9.79397 23.4197 9.96697 23.3456C10.659 22.9748 11.5487 23.0984 12.1171 23.6668C12.7102 24.26 12.8091 25.1497 12.4384 25.8417C12.3642 25.99 12.2407 26.1383 12.1171 26.2618L13.5258 27.6706C14.6379 26.6078 14.9592 25.0508 14.4649 23.6916ZM6.53171 26.7067L8.13813 25.1003L6.72942 23.6916L5.12301 25.298C5.07358 25.3474 5.07358 25.4463 5.12301 25.5204L6.30928 26.7067C6.38343 26.7561 6.48228 26.7561 6.53171 26.7067Z" fill="#45AEE2"/>
<path d="M7.81794 30.6471C7.10123 31.3638 5.93967 31.3638 5.22296 30.6471C4.50626 29.9304 4.50626 28.7688 5.22296 28.0521L5.69253 27.5825C5.74196 27.5331 5.74196 27.4342 5.69253 27.3601L4.50626 26.1738C4.45683 26.1244 4.35797 26.1244 4.28383 26.1738L3.81426 26.6434C2.3067 28.1509 2.3067 30.5729 3.81426 32.0805C4.55568 32.8219 5.54425 33.2174 6.53281 33.1926C7.52137 33.1926 8.50994 32.8219 9.25136 32.0805L12.1923 29.1395L10.7836 27.7308L7.81794 30.6471Z" fill="#45AEE2"/>
<path d="M35.9428 31.1308C34.806 31.8722 33.4962 32.2429 31.9639 32.2429C30.481 32.2429 29.2206 31.9216 28.1332 31.2791C27.0458 30.6365 26.2055 29.7221 25.6124 28.5358C25.0192 27.3495 24.7227 25.9408 24.7227 24.3343C24.7227 22.7279 25.0192 21.3192 25.6124 20.1329C26.2055 18.9466 27.0458 18.0322 28.1332 17.3896C29.2206 16.7471 30.481 16.4258 31.9392 16.4258C33.4714 16.4258 34.7566 16.7471 35.8193 17.3896C36.7584 17.9581 37.4751 18.7983 37.9447 19.8611C38.0188 20.0588 37.9447 20.2565 37.7717 20.3553L36.2394 21.0473C35.9923 21.1709 35.6957 21.0473 35.5721 20.7755C35.2756 20.1082 34.8801 19.5892 34.4106 19.2432C33.8174 18.8231 33.0513 18.6006 32.1122 18.6006C30.6787 18.6006 29.5172 19.1196 28.6522 20.1329C27.7872 21.1462 27.3671 22.5549 27.3671 24.3591C27.3671 26.1632 27.7872 27.5966 28.6028 28.5852C29.4183 29.5985 30.5552 30.0928 32.0133 30.0928C33.0019 30.0928 33.8421 29.8456 34.5094 29.3513C35.0779 28.9312 35.498 28.3628 35.8193 27.6213C35.9181 27.3742 36.19 27.2506 36.4371 27.3248L37.9941 27.8438C38.1918 27.9179 38.2907 28.1403 38.2165 28.3381C37.6975 29.4996 36.9561 30.4388 35.9428 31.1308ZM49.6344 21.2451C50.45 21.9865 50.8454 23.0492 50.8454 24.4579V31.5015C50.8454 31.7733 50.623 31.9958 50.3512 31.9958H48.8683C48.5965 31.9958 48.374 31.7733 48.374 31.5015V25.2488C48.374 23.1975 47.5337 22.1842 45.8779 22.1842C45.0129 22.1842 44.2715 22.4808 43.6536 23.0986C43.0358 23.6918 42.7145 24.6309 42.7145 25.8666V31.5015C42.7145 31.7733 42.4921 31.9958 42.2202 31.9958H40.7374C40.4655 31.9958 40.2431 31.7733 40.2431 31.5015V15.6349C40.2431 15.3631 40.4655 15.1406 40.7374 15.1406H42.2202C42.4921 15.1406 42.7145 15.3631 42.7145 15.6349V22.2336C43.1099 21.5169 43.6289 20.9979 44.2715 20.6519C44.9141 20.3059 45.6555 20.1329 46.4958 20.1329C47.7809 20.1329 48.8189 20.5036 49.6344 21.2451ZM59.4459 29.7468C60.0885 29.3513 60.4098 28.8076 60.4098 28.1403V26.7563L57.8642 27.2753C57.0487 27.4236 56.4555 27.6461 56.0601 27.9179C55.6647 28.1898 55.467 28.5605 55.467 29.0301C55.467 29.4749 55.6152 29.7962 55.9118 30.0186C56.2084 30.2411 56.6532 30.3646 57.1969 30.3646C58.0867 30.3399 58.8034 30.1422 59.4459 29.7468ZM64.5617 30.7601L64.4876 31.6498C64.4629 31.8475 64.3393 32.0205 64.1416 32.0946C63.7956 32.1935 63.4249 32.2429 63.0295 32.2429C62.3622 32.2429 61.8432 32.1193 61.423 31.8475C61.0276 31.5756 60.7558 31.1308 60.6322 30.5129C60.2862 31.0566 59.7425 31.4768 59.0505 31.7733C58.3585 32.0699 57.5677 32.2182 56.7027 32.2182C55.5658 32.2182 54.6514 31.9463 53.9594 31.4273C53.2674 30.9083 52.9214 30.1422 52.9214 29.1783C52.9214 28.2639 53.2921 27.4978 54.0583 26.8552C54.8244 26.2373 55.9612 25.7925 57.4441 25.5206L59.9896 25.0758C60.2368 25.0263 60.4098 24.8286 60.4098 24.5815V24.3838C60.4098 23.6671 60.2121 23.0986 59.7919 22.7032C59.3718 22.2831 58.8034 22.0853 58.0372 22.0853C56.7027 22.0853 55.7635 22.6291 55.2445 23.6918C55.121 23.9389 54.8244 24.0625 54.5525 23.9389L53.5887 23.4199C53.2427 23.2469 53.1686 22.9751 53.2427 22.7526C53.564 22.0112 54.083 21.4181 54.7997 20.9485C55.6647 20.4048 56.7274 20.1329 57.9878 20.1329C59.4954 20.1329 60.6816 20.4789 61.5713 21.1709C62.461 21.8629 62.9059 22.9009 62.9059 24.2355V29.5243C62.9059 29.8209 62.98 30.0433 63.1036 30.1669C63.2272 30.3152 63.4496 30.3646 63.7709 30.3646C63.9192 30.3646 64.0675 30.3646 64.191 30.3399C64.4135 30.3399 64.5865 30.5376 64.5617 30.7601ZM68.0217 31.9958H66.5389C66.267 31.9958 66.0446 31.7733 66.0446 31.5015V20.8743C66.0446 20.6025 66.267 20.3801 66.5389 20.3801H68.0217C68.2936 20.3801 68.516 20.6025 68.516 20.8743V31.5015C68.516 31.7733 68.2936 31.9958 68.0217 31.9958ZM66.0693 18.0075C65.7727 17.7356 65.6244 17.3402 65.6244 16.8459C65.6244 16.3516 65.7727 15.9809 66.0693 15.7091C66.3659 15.4372 66.786 15.3136 67.305 15.3136C67.824 15.3136 68.2441 15.4372 68.516 15.7091C68.8126 15.9809 68.9361 16.3516 68.9361 16.8459C68.9361 17.3402 68.7878 17.7356 68.516 18.0075C68.2194 18.2793 67.824 18.4029 67.305 18.4029C66.7613 18.4029 66.3412 18.2793 66.0693 18.0075ZM80.8977 21.2451C81.7133 21.9865 82.1087 23.0492 82.1087 24.4579V31.6251C82.1087 31.8228 81.9357 31.9958 81.738 31.9958H79.9833C79.7856 31.9958 79.6126 31.8228 79.6126 31.6251V25.2488C79.6126 23.1975 78.7723 22.1842 77.1165 22.1842C76.2515 22.1842 75.5101 22.4808 74.8922 23.0739C74.2744 23.6671 73.9531 24.5815 73.9531 25.8419V31.6498C73.9531 31.8475 73.7801 32.0205 73.5824 32.0205H71.8277C71.63 32.0205 71.457 31.8475 71.457 31.6498V20.7508C71.457 20.5531 71.63 20.3801 71.8277 20.3801H73.3352C73.5329 20.3801 73.6812 20.5283 73.7059 20.7261L73.8048 22.3078C74.2002 21.5663 74.7192 21.0473 75.4112 20.6766C76.1032 20.3306 76.8693 20.1329 77.7343 20.1329C79.0195 20.1329 80.0822 20.5036 80.8977 21.2451Z" fill="black"/>
<path d="M98.0282 31.2514L92.8383 23.8371L97.7317 16.8429C97.9541 16.4969 97.7317 16.0521 97.3115 16.0521L95.1614 16.0768C94.9884 16.0768 94.8401 16.1509 94.7413 16.2992L91.1577 21.5386L87.5495 16.2745C87.4506 16.1509 87.3023 16.0521 87.1293 16.0521L84.9792 16.0273C84.5591 16.0273 84.3366 16.4722 84.5591 16.8182L89.4525 23.8123L84.2625 31.2266C84.0154 31.5726 84.2625 32.0175 84.6826 32.0175L86.8575 31.9681C87.0305 31.9681 87.1788 31.8939 87.2529 31.7456L91.133 26.1108L95.0131 31.7456C95.112 31.8692 95.2603 31.9681 95.4085 31.9681L97.5834 32.0175C98.0282 32.0422 98.2754 31.5726 98.0282 31.2514Z" fill="#F6C949"/>
</svg>
