<svg width="100" height="48" viewBox="0 0 100 48" fill="none" xmlns="http://www.w3.org/2000/svg">
<path fill-rule="evenodd" clip-rule="evenodd" d="M7.10302 33.3636C6.44748 33.3636 6.11972 33.3636 5.86931 33.237C5.64944 33.125 5.47029 32.947 5.35791 32.7278C5.23047 32.4786 5.23047 32.1522 5.23047 31.4997V14.3359H8.2333C8.88884 14.3359 9.2166 14.3359 9.46701 14.4629C9.68688 14.5746 9.86603 14.753 9.97841 14.9722C10.1059 15.2214 10.1059 15.5474 10.1059 16.1998V27.9661C10.1059 28.2925 10.1059 28.4555 10.1698 28.5801C10.2256 28.6897 10.3151 28.7787 10.4255 28.8345C10.5505 28.8981 10.7146 28.8981 11.0419 28.8981H18.0382C18.6938 28.8981 19.0215 28.8981 19.2719 29.0251C19.4918 29.1367 19.6709 29.3151 19.7833 29.5343C19.9108 29.7835 19.9108 30.1095 19.9108 30.762V33.3636H7.10302Z" fill="#212631"/>
<path fill-rule="evenodd" clip-rule="evenodd" d="M58.6716 16.1998C58.6716 15.5474 58.6716 15.2214 58.7991 14.9722C58.911 14.753 59.0902 14.5746 59.3105 14.4629C59.5609 14.3359 59.8886 14.3359 60.5438 14.3359H62.2673C62.6627 14.3359 62.8601 14.3359 63.0372 14.3934C63.1936 14.4439 63.3373 14.5273 63.4595 14.6373C63.5975 14.7615 63.6956 14.9322 63.8923 15.2735L69.887 25.6945V16.1998C69.887 15.5474 69.887 15.2214 70.0144 14.9722C70.1268 14.753 70.3055 14.5746 70.5258 14.4629C70.7762 14.3359 71.104 14.3359 71.7595 14.3359H74.5681V31.4969C74.5681 32.149 74.5681 32.4746 74.4407 32.7237C74.3287 32.943 74.15 33.121 73.9297 33.233C73.6797 33.36 73.3523 33.3604 72.6976 33.3608L70.9737 33.3628C70.5779 33.3632 70.38 33.3632 70.2029 33.3058C70.0462 33.2552 69.902 33.1723 69.7799 33.0623C69.6419 32.9377 69.5433 32.767 69.3467 32.4252L63.3528 22.0055V31.4997C63.3528 32.1522 63.3528 32.4786 63.2249 32.7278C63.113 32.947 62.9338 33.125 62.7135 33.237C62.4631 33.3636 62.1358 33.3636 61.4802 33.3636H58.6716V16.1998Z" fill="#212631"/>
<path fill-rule="evenodd" clip-rule="evenodd" d="M79.625 14.3359H76.8164V31.4949C76.8164 32.1473 76.8164 32.4738 76.9439 32.7229C77.0562 32.9422 77.2354 33.1201 77.4552 33.2322C77.7057 33.3588 78.0334 33.3588 78.689 33.3588H81.4976V25.5974H82.2639C82.5912 25.5974 82.7553 25.5974 82.9068 25.6387C83.0407 25.6751 83.1674 25.7349 83.2801 25.8158C83.408 25.9068 83.511 26.0334 83.7174 26.2867L88.9267 32.6748C89.1331 32.9276 89.2365 33.0542 89.364 33.1456C89.4768 33.2261 89.6034 33.286 89.7378 33.3228C89.8892 33.3636 90.0529 33.3636 90.3807 33.3636H94.8098L87.9202 24.9296C87.5778 24.5101 87.4063 24.3002 87.3408 24.0672C87.283 23.8617 87.283 23.6441 87.3408 23.4386C87.4067 23.2056 87.5782 22.9961 87.9206 22.5771L87.921 22.5767L94.6604 14.3359H90.2789C89.9527 14.3359 89.7899 14.3359 89.6388 14.3768C89.5053 14.4132 89.379 14.4727 89.2663 14.5527C89.1388 14.6429 89.0358 14.7687 88.8294 15.0203L83.7353 21.224C83.5289 21.4756 83.4255 21.601 83.2985 21.6916C83.1857 21.7717 83.0595 21.8312 82.9259 21.8676C82.7748 21.9084 82.6116 21.9084 82.2854 21.9084H81.4976V16.1998C81.4976 15.5474 81.4976 15.2214 81.3701 14.9722C81.2578 14.753 81.079 14.5746 80.8587 14.4629C80.6083 14.3359 80.2806 14.3359 79.625 14.3359Z" fill="#212631"/>
<path fill-rule="evenodd" clip-rule="evenodd" d="M22.1315 32.9048C22.004 32.6556 22.004 32.3292 22.004 31.6767V15.9889C22.004 15.3365 22.004 15.0104 22.1315 14.7613C22.2438 14.542 22.4226 14.3637 22.6429 14.252C22.8933 14.125 23.221 14.125 23.8766 14.125H30.0011C31.6335 14.125 32.4498 14.125 33.1196 14.3038C34.9368 14.7884 36.3566 16.2013 36.8435 18.0106C37.0227 18.6772 37.0227 19.4898 37.0227 21.1146C37.0227 22.1724 36.5414 22.5603 36.131 22.8903C35.826 23.1359 35.5601 23.3498 35.5601 23.7847C35.5601 24.213 35.87 24.427 36.2291 24.6754C36.725 25.018 37.3154 25.4257 37.3154 26.5514C37.3154 28.1734 37.3154 28.9848 37.1367 29.6502C36.6501 31.4607 35.2299 32.8748 33.4115 33.3594C32.743 33.5378 31.9282 33.5382 30.2984 33.5386L23.877 33.5406C23.2214 33.541 22.8937 33.541 22.6433 33.414C22.423 33.3024 22.2438 33.124 22.1315 32.9048ZM30.7336 20.4917C31.1009 19.9173 31.4193 19.4202 31.4193 18.7847C31.4193 17.4981 30.3692 16.4549 29.074 16.4549C27.7784 16.4549 26.7284 17.547 26.7284 18.7847C26.7284 19.4202 27.0553 19.9173 27.4327 20.4917C27.9494 21.2768 28.5606 22.2067 28.5606 23.8332C28.5606 25.4593 27.9494 26.3892 27.4327 27.1747C27.0553 27.7487 26.7284 28.2458 26.7284 28.8813C26.7284 30.168 27.7784 31.2111 29.074 31.2111C30.3692 31.2111 31.4193 30.168 31.4193 28.8813C31.4193 28.2458 31.1009 27.7487 30.7336 27.1747C30.2308 26.3892 29.6359 25.4593 29.6359 23.8332C29.6359 22.2067 30.2308 21.2768 30.7336 20.4917Z" fill="#FFD634"/>
<path fill-rule="evenodd" clip-rule="evenodd" d="M44.4647 29.5458L43.6663 32.035C43.5168 32.501 43.4423 32.734 43.2998 32.9063C43.1744 33.0588 43.012 33.1769 42.8279 33.2497C42.6199 33.3318 42.3739 33.3318 41.8825 33.3318H38.3516L44.0193 15.5087C44.1679 15.0411 44.242 14.8073 44.3845 14.6342C44.5099 14.4813 44.6728 14.3628 44.8568 14.29C45.0657 14.207 45.3116 14.207 45.8043 14.207H49.6935C50.1862 14.207 50.4325 14.207 50.641 14.29C50.8254 14.3628 50.9879 14.4813 51.1133 14.6342C51.2558 14.8073 51.3299 15.0407 51.4785 15.5083L57.1495 33.3318H53.6166C53.1251 33.3318 52.8796 33.3318 52.6711 33.2497C52.4875 33.1769 52.325 33.0588 52.1992 32.9063C52.0571 32.734 51.9822 32.501 51.8328 32.035L51.0343 29.5458H44.4647ZM45.4606 26.4393H50.038L47.7489 19.3036L45.4606 26.4393Z" fill="#212631"/>
</svg>
