<svg width="100" height="48" viewBox="0 0 100 48" fill="none" xmlns="http://www.w3.org/2000/svg">
<g clip-path="url(#clip0_7232_41841)">
<path d="M94.1573 21.6533C94.1573 16.541 90.5957 12.9453 85.6027 12.9453C79.2463 12.9453 74.986 17.5635 74.986 24.1584C74.986 29.3048 78.5817 32.8664 83.66 32.8664C88.2781 32.8664 91.7204 30.634 93.1348 27.0724H88.0055C87.3238 28.1801 85.8753 28.8788 84.103 28.8788C81.3764 28.8788 79.6723 27.0724 79.519 24.5163H93.8676C94.0551 23.5449 94.1573 22.7099 94.1573 21.6533ZM79.9109 21.0569C80.371 18.7052 82.6545 16.8307 85.4152 16.8307C87.801 16.8307 89.6073 18.5689 89.6073 21.0569H79.9109ZM61.1997 32.4063L62.1199 27.4985C64.9317 28.0608 65.3578 26.476 66.0905 22.6588L66.4484 20.7672C67.4709 15.4333 69.5328 12.7749 75.4291 13.4906L74.5089 18.3985C71.6971 17.8361 71.2029 19.9663 70.5724 23.2723L70.2145 25.1638C69.192 30.5659 67.0619 33.122 61.1997 32.4063ZM54.3151 32.4233L57.7915 13.4054H62.3756L58.9162 32.4233H54.3151ZM28.0547 13.4054H32.5024L33.9509 27.1576L39.779 13.4054H44.1927L45.7434 27.294L51.367 13.4054H55.7977L47.7372 32.4233H42.693L41.0571 19.3357L35.4846 32.4233H30.6109L28.0547 13.4054Z" fill="#2E4369"/>
<path d="M11.439 18.4504L6.15625 23.4946H15.1369L16.0742 21.2963H11.5242L14.3701 18.4504L12.7171 15.6046H20.4367L13.3135 32.4242H15.989L24.0495 13.4062H8.47385L11.439 18.4504Z" fill="#00B9FF"/>
</g>
<defs>
<clipPath id="clip0_7232_41841">
<rect width="100" height="48" fill="white"/>
</clipPath>
</defs>
</svg>
