<svg width="100" height="48" viewBox="0 0 100 48" fill="none" xmlns="http://www.w3.org/2000/svg">
<g clip-path="url(#clip0_7232_41891)">
<path d="M3.99988 22.1484V32.3164H5.98388H7.96788V28.1831V24.0332L9.48894 24.0828L11.01 24.1324L13.3412 28.2161L15.6559 32.2999L17.9375 32.3164C19.1775 32.3164 20.2025 32.2833 20.2025 32.2337C20.2025 32.1841 19.1444 30.2993 17.8713 28.0508C16.5817 25.8023 15.5071 23.9175 15.474 23.8679C15.4409 23.8017 15.8377 23.5537 16.3668 23.2892C17.5737 22.694 18.7972 21.5532 19.3263 20.5281C20.0537 19.0732 20.0868 16.5105 19.3924 15.1548C18.6649 13.7495 16.9785 12.5591 15.1103 12.1623C14.5812 12.0465 12.25 11.9804 9.12521 11.9804H3.99988V22.1484ZM14.5316 15.7831C15.4409 16.1964 15.9039 16.9404 15.9039 18.0151C15.9039 19.0071 15.4905 19.7676 14.7135 20.1975C14.2505 20.4455 13.6719 20.5116 11.0761 20.5447L7.96788 20.6108V18.0316V15.4524H10.9108C13.4404 15.4524 13.9364 15.502 14.5316 15.7831Z" fill="black"/>
<path d="M67.1561 22.3137V32.3164H69.0575H70.9588V22.3137V12.3111H69.0575H67.1561V22.3137Z" fill="black"/>
<path d="M88.1901 21.6946C88.2397 29.3992 88.2397 29.4323 88.62 30.2093C89.0498 31.0856 90.0749 32.0776 90.9016 32.4248C91.2653 32.5736 92.092 32.6562 93.2824 32.6562H95.101V31.0029V29.3496H94.0429C93.2328 29.3496 92.9021 29.2669 92.5549 29.0024L92.125 28.6717V24.7864V20.9176H93.613H95.101V19.3469V17.7762H93.613H92.125V15.8749V13.9736H90.1245H88.1405L88.1901 21.6946Z" fill="black"/>
<path d="M25.2976 17.7682C23.9584 18.2146 23.0491 18.7767 22.0736 19.8018C21.0816 20.8764 20.6187 21.7031 20.288 23.1084C19.3952 26.878 21.032 30.4988 24.3387 32.0695C25.3638 32.5655 25.496 32.582 27.5627 32.582C29.4144 32.582 29.8443 32.5324 30.671 32.1852C31.8283 31.7223 33.3659 30.3666 33.9776 29.2423L34.4075 28.4322L33.0848 27.6551C32.3574 27.2252 31.696 26.878 31.6299 26.878C31.5638 26.878 31.2827 27.2087 30.9851 27.6055C30.3238 28.5644 29.431 29.1431 28.3398 29.358C27.3643 29.5399 26.6699 29.4407 25.8267 29.0108C24.8347 28.5148 23.8427 27.2087 23.8427 26.382C23.8427 26.0514 23.9088 26.0514 29.2987 26.0514H34.7547V24.6626C34.7547 21.4882 33.2832 19.1404 30.5387 17.9335C29.3648 17.4044 26.6368 17.3218 25.2976 17.7682ZM29.7616 20.9922C30.1915 21.2898 30.6048 21.7692 30.8694 22.3148L31.2992 23.158L27.6288 23.2076C25.6118 23.2242 23.9254 23.2076 23.8758 23.158C23.6443 22.9266 24.8347 21.4551 25.6614 20.9591C26.5046 20.4466 26.6534 20.4135 27.8272 20.4631C28.8854 20.5127 29.183 20.5788 29.7616 20.9922Z" fill="black"/>
<path d="M55.2722 17.6936C53.1394 18.2888 51.1719 19.8595 50.3618 21.6285C49.7831 22.9181 49.5351 24.9021 49.7831 26.4067C50.4279 30.3251 53.3213 32.6562 57.5538 32.6562C60.0338 32.6562 61.6871 32.0611 63.2909 30.6227C64.2167 29.7795 64.845 28.7213 65.2583 27.2995C65.6055 26.0925 65.5229 23.3811 65.1095 22.2403C64.4317 20.372 62.6295 18.636 60.5959 17.9085C59.3394 17.4456 56.5618 17.3464 55.2722 17.6936ZM59.3063 21.3971C61.621 22.4221 62.3815 25.5139 60.8274 27.564C59.7197 29.0189 57.3885 29.5645 55.8178 28.7379C54.9581 28.2749 54.0322 27.2499 53.7677 26.4563C53.437 25.4643 53.6354 23.6952 54.1479 22.9181C55.3218 21.1491 57.3554 20.5539 59.3063 21.3971Z" fill="black"/>
<path d="M34.6361 18.0054C34.6857 18.1212 36.0083 21.3948 37.579 25.2801L40.4393 32.3398L42.2414 32.2902L44.0435 32.2406L46.8377 25.3793C48.3753 21.6097 49.6814 18.3526 49.731 18.1377L49.8302 17.7574L47.8131 17.807L45.7795 17.8566L44.027 22.519C43.0681 25.0817 42.2249 27.1318 42.1753 27.0657C42.1091 26.9996 41.299 24.8833 40.3566 22.3537L38.6371 17.774H36.587C34.9337 17.774 34.5699 17.8236 34.6361 18.0054Z" fill="black"/>
<path d="M72.9452 22.2983C72.9452 24.8444 73.0279 27.2418 73.1271 27.7874C73.4908 29.8044 74.5655 31.1932 76.4007 32.0695C77.4588 32.5655 77.5745 32.582 79.7239 32.582C81.8236 32.582 82.022 32.549 82.9479 32.1191C84.7831 31.2594 85.9569 29.7548 86.3207 27.7874C86.4199 27.2418 86.5025 24.8444 86.5025 22.2983V17.7847H84.6177H82.7164L82.6668 22.2818C82.6172 26.597 82.6007 26.8284 82.2369 27.4898C81.7079 28.4818 80.8151 28.9116 79.4759 28.829C78.2855 28.7628 77.6076 28.3495 77.1447 27.4236C76.8636 26.8615 76.8305 26.2994 76.7809 22.2818L76.7313 17.7847H74.83H72.9452V22.2983Z" fill="black"/>
</g>
<defs>
<clipPath id="clip0_7232_41891">
<rect width="91.0987" height="20.6667" fill="white" transform="translate(4 12)"/>
</clipPath>
</defs>
</svg>
