<svg width="100" height="48" viewBox="0 0 100 48" fill="none" xmlns="http://www.w3.org/2000/svg">
<path d="M56.8193 20.278C57.6206 17.0586 55.6665 14.3945 50.8796 14.3945H40.5044L36.6172 30.1401L38.8736 34.0132H46.2543C51.0905 34.0132 54.837 31.7568 55.8001 27.8345C56.2851 25.8241 55.7227 24.4183 54.4575 23.7153V23.6661C55.6573 22.8889 56.5051 21.6727 56.8193 20.278ZM50.493 27.708C50.2961 28.5304 49.7408 29.3739 47.4423 29.3739H42.7326L43.5551 25.9999H48.2436C50.514 25.9928 50.6828 26.8574 50.4648 27.708H50.493ZM51.4349 20.3835C51.2662 21.0161 50.7812 21.7893 48.7989 21.7893H44.5813L45.2843 19.0479H49.5018C51.5052 19.0338 51.6036 19.6805 51.4349 20.3835Z" fill="#14A0FF"/>
<path d="M60.3322 14.3945L55.4961 34.0062H72.774L73.9058 29.3669H62.6519L63.3478 26.4146H72.7951L73.8706 21.7753H64.4865L65.2176 19.0338H74.5103L75.5857 14.3945H60.3322Z" fill="#14A0FF"/>
<path d="M94.6064 14.3945H76.9067L75.8242 19.0338H81.4687L77.7643 34.0062H83.69L87.4014 19.0338H93.4466L94.6064 14.3945Z" fill="#14A0FF"/>
<path d="M11.1412 34.0062H5.16634L7.75311 23.5326L8.3506 21.951L6.76902 23.5326L5.0117 25.311L4.94141 20.0812L11.1412 14.3945H15.9703L11.1412 34.0062Z" fill="#002E5B"/>
<path d="M32.7116 25.8804L30.8067 22.6539L40.0502 14.3945H31.4393L27.9247 17.7686L16.0031 28.6991L10.2812 34.0062H18.4282L24.5507 28.5444L26.6102 32.0591C27.3132 32.9448 28.3043 34.0202 32.5078 34.0202H37.4283L32.7187 25.8733L32.7116 25.8804Z" fill="#002E5B"/>
<path d="M27.2633 16.693V16.6508C26.7359 15.9151 26.0322 15.3235 25.2166 14.9305C24.4011 14.5375 23.5 14.3556 22.5959 14.4015H16.2344L20.9791 22.4711L27.2633 16.693Z" fill="#002E5B"/>
</svg>
