<svg width="100" height="48" viewBox="0 0 100 48" fill="none" xmlns="http://www.w3.org/2000/svg">
<g clip-path="url(#clip0_7232_42204)">
<path fill-rule="evenodd" clip-rule="evenodd" d="M94.9892 13.9531C99.5125 13.9531 99.5125 20.6948 94.9892 20.6948C90.4826 20.7114 90.4826 13.9531 94.9892 13.9531ZM24.3297 14.8642C24.7787 14.8642 25.1778 14.947 25.4938 15.1292C25.7931 15.3114 25.9594 15.5599 25.976 15.858C25.9594 16.0237 25.8762 16.1728 25.7765 16.2887C25.6601 16.3881 25.4938 16.4544 25.3275 16.4378C25.261 16.4378 25.1944 16.4212 25.1279 16.3881C25.0448 16.355 24.9782 16.3218 24.9284 16.2556C24.7621 16.0568 24.5958 15.9077 24.3629 15.7421C24.1301 15.593 23.8641 15.5102 23.598 15.5267C23.3485 15.5267 23.1324 15.6096 22.9162 15.7752C22.7166 15.9243 22.5337 16.1562 22.4173 16.4378C22.2343 17.0341 22.1179 17.6636 22.0847 18.293C22.0514 18.6243 22.0514 18.9556 22.0514 19.2206V19.7175C22.0514 19.9163 22.0514 20.0488 22.0847 20.1151C22.1179 20.1813 22.2011 20.2145 22.3508 20.1813H24.2465C24.3131 20.2476 24.3297 20.3139 24.3297 20.4298L24.2964 20.6617L24.2798 20.728C24.2299 20.7942 24.18 20.8439 24.0969 20.877H22.3341C22.1845 20.8605 22.1013 20.9102 22.0681 20.9764C22.0348 21.0261 22.0348 21.1586 22.0348 21.3574V24.8856C22.0348 25.2666 22.0348 25.5648 22.0681 25.7636C22.1013 25.9623 22.1512 26.1114 22.2343 26.1942C22.3175 26.2605 22.4838 26.3102 22.6833 26.3267L23.2654 26.3764C23.3319 26.4261 23.3652 26.4758 23.3319 26.5918C23.3153 26.6746 23.282 26.7574 23.2488 26.7905L22.2842 26.7243H20.5714L19.823 26.7905C19.7565 26.7409 19.7399 26.6746 19.7066 26.5918C19.7066 26.4758 19.7399 26.4096 19.8064 26.3764L20.1889 26.3267C20.3885 26.3102 20.5215 26.2605 20.6213 26.1611C20.721 26.0948 20.7543 25.9623 20.7876 25.747C20.8375 25.5482 20.8375 25.2501 20.8042 24.8691V21.3409C20.8208 21.1421 20.8208 21.0096 20.7876 20.9764C20.7543 20.9102 20.6379 20.8605 20.4882 20.877H19.8896C19.8397 20.8274 19.823 20.7942 19.823 20.7445C19.8064 20.6783 19.823 20.612 19.8397 20.5623L20.5548 20.2145C20.6213 20.1979 20.6712 20.1482 20.721 20.0985C20.7709 20.0323 20.7876 19.966 20.7876 19.8832C20.7876 18.8728 20.9705 17.8789 21.3197 16.9513C21.4694 16.6366 21.6689 16.3218 21.9018 15.9905C22.1678 15.6593 22.5171 15.3942 22.8829 15.1955C23.3485 14.9967 23.8308 14.8642 24.3297 14.8642ZM36.9516 20.728C36.9682 20.7942 37.0015 20.8439 37.0348 20.8936H37.4838C37.6501 20.8771 37.7498 20.9267 37.7997 20.993C37.833 21.0427 37.8496 21.1752 37.8496 21.374V25.1672C37.833 25.4985 37.8662 25.8132 37.966 26.0617C38.0824 26.3267 38.2321 26.5586 38.4815 26.7077C39.1634 27.0556 39.9782 27.039 40.66 26.6912C40.9594 26.5255 41.1756 26.3764 41.3086 26.1777C41.3252 26.128 41.3252 26.0948 41.2753 26.012C41.2587 25.9458 41.2088 25.9126 41.1423 25.9126C41.1257 25.9126 41.0592 25.9623 40.9594 26.012C40.8762 26.0617 40.7931 26.1114 40.7099 26.128C40.6767 26.1445 40.6434 26.1611 40.6268 26.1777C40.5935 26.1942 40.5603 26.2108 40.5436 26.2274C40.4439 26.2439 40.3607 26.2439 40.3108 26.2439C39.9616 26.2274 39.6789 26.1445 39.5126 25.9623C39.313 25.7801 39.1966 25.5482 39.1634 25.2832C39.0968 25.0182 39.0802 24.72 39.0802 24.3887V21.3077C39.0802 21.1586 39.1135 21.0427 39.1467 20.9764C39.1634 20.9102 39.2465 20.8936 39.4128 20.9102H41.2421C41.3252 20.8439 41.3751 20.728 41.3751 20.5789C41.4084 20.4298 41.3585 20.2973 41.2421 20.231H39.4128C39.2798 20.231 39.1966 20.2145 39.1634 20.1813C39.1467 20.1648 39.1135 20.082 39.1135 19.9163V19.1544C39.0802 19.0881 39.0137 19.055 38.9305 19.0715C38.8474 19.0384 38.7809 19.0384 38.7476 19.0715C38.6478 19.2537 38.5314 19.4194 38.415 19.6016C38.3153 19.7672 38.1988 19.8997 38.0492 20.0323C37.966 20.1151 37.833 20.2145 37.6168 20.2973C37.4339 20.4132 37.2343 20.4795 36.9849 20.5458C36.9682 20.5955 36.9516 20.6617 36.9516 20.728ZM29.9173 21.904C29.9173 22.0366 29.9173 22.1359 29.9006 22.2022L29.8674 22.2685L29.8507 22.3513C29.8341 22.3844 29.7676 22.4175 29.6013 22.4341C29.435 22.4507 29.1856 22.4507 28.853 22.4507H25.7765C25.5769 22.4175 25.4605 22.4507 25.4106 22.5004C25.3441 22.5666 25.3275 22.6991 25.3441 22.8979C25.3441 23.4611 25.4605 23.958 25.6601 24.4384C26.0758 25.4157 27.057 26.0286 28.1046 25.9789C28.3707 26.012 28.6201 25.9292 28.8363 25.8298C29.1024 25.7139 29.3519 25.5151 29.6013 25.1838C29.7177 25.1507 29.7842 25.1838 29.8341 25.2004C29.884 25.2501 29.9006 25.3163 29.9339 25.3826C29.7177 25.7304 29.5015 26.0286 29.2022 26.2771C28.2377 26.9893 26.9572 27.1218 25.8762 26.6249C25.4938 26.4427 25.1445 26.1777 24.8951 25.8464C24.4295 25.2335 24.1966 24.4715 24.2133 23.693C24.2133 22.9973 24.3463 22.3844 24.6124 21.8212C25.1445 20.6948 26.2754 19.9826 27.5226 19.9494C28.0215 19.966 28.4538 20.0488 28.8031 20.231C29.1357 20.4298 29.4184 20.6783 29.6179 20.9764C29.8341 21.2746 29.9173 21.5893 29.9173 21.904ZM28.6534 21.4899C28.6534 21.3409 28.6035 21.1752 28.537 21.0096C28.4538 20.8439 28.3042 20.7114 28.1213 20.6451C27.8884 20.5126 27.6224 20.4629 27.3729 20.4629C27.0403 20.4629 26.7077 20.5458 26.4583 20.7114C26.1756 20.877 25.9428 21.0593 25.7598 21.2912C25.6102 21.4899 25.5104 21.6887 25.4938 21.8875C25.4938 21.9206 25.4938 21.9206 25.5104 21.9372C25.5437 21.9703 25.5603 21.9703 25.6268 21.9703H26.7909C27.4062 21.9703 27.8385 21.9372 28.1046 21.9206C28.3541 21.8875 28.4871 21.8709 28.537 21.8378C28.5703 21.8047 28.6035 21.7715 28.6035 21.7218C28.6368 21.639 28.6534 21.5728 28.6534 21.4899ZM35.2055 20.0157C34.1745 19.8335 33.1268 19.9991 32.1955 20.5126C31.6467 20.8439 31.1811 21.3243 30.8652 21.8875C30.3829 22.8648 30.3164 24.0077 30.6989 25.0347C30.8818 25.4654 31.1146 25.8132 31.3973 26.0783C31.6966 26.3764 32.0459 26.5752 32.4283 26.6912C33.16 26.9728 33.9583 27.0059 34.7066 26.7574C35.0392 26.658 35.3884 26.4427 35.721 26.1942C36.037 25.9458 36.2864 25.6145 36.4694 25.2169C36.4527 25.1507 36.4195 25.0844 36.3696 25.0513C36.3197 24.985 36.2532 24.9519 36.17 24.985C35.9871 25.2666 35.7543 25.4985 35.4716 25.6973C35.1889 25.8795 34.823 25.9623 34.3408 25.9623C33.3097 25.9955 32.3618 25.3991 31.9461 24.455C31.7465 24.0409 31.6301 23.6102 31.6301 23.1464C31.6634 22.5501 31.7632 22.0531 31.9627 21.6556C32.1789 21.2746 32.4782 20.9764 32.8275 20.7777C33.16 20.5789 33.5425 20.4795 33.925 20.4795C34.2576 20.4795 34.6068 20.5623 34.9062 20.7445C35.1889 20.9102 35.4051 21.0924 35.6046 21.3243C35.6545 21.374 35.6878 21.4071 35.7376 21.4237H35.8541C35.9538 21.4237 36.037 21.3574 36.1035 21.2415C36.17 21.1255 36.2199 20.9764 36.2199 20.8108C36.2199 20.6783 36.2033 20.5458 36.1534 20.4298C36.1035 20.3304 36.0536 20.231 35.9538 20.1648C35.721 20.1482 35.4716 20.0985 35.2055 20.0157ZM87.3063 20.1151C87.2398 20.1316 87.2065 20.2145 87.1899 20.2973C87.1899 20.4132 87.2065 20.4795 87.2564 20.5126L87.7719 20.5955C87.9216 20.6286 88.0214 20.6617 88.0879 20.7114C88.1544 20.7611 88.1877 20.7942 88.1877 20.877C88.1877 20.9764 88.1378 21.1752 88.0214 21.4568L88.0047 21.5065L87.589 22.5501L87.0236 23.8752L86.9903 23.958L86.6245 24.7366C86.5081 24.985 86.4416 25.0844 86.4083 25.0844C86.2586 24.7697 86.109 24.455 85.9925 24.1237L85.926 23.9249L85.4105 22.401L85.3939 22.3513C85.3274 22.2022 85.2775 22.0531 85.2442 21.904L85.1444 21.6059L85.0447 21.2912C84.9948 21.1421 84.9615 20.993 84.9615 20.8439C84.9615 20.7942 84.9781 20.7445 85.028 20.7114H85.0447L85.0779 20.6948C85.1278 20.6783 85.211 20.6451 85.3107 20.6286L85.7265 20.5458C85.793 20.4961 85.8096 20.4464 85.793 20.3304C85.793 20.2476 85.7431 20.1648 85.6932 20.1482C85.5768 20.1648 85.4438 20.1648 85.3274 20.1648L84.9449 20.1979H83.4482C83.3152 20.1813 83.1821 20.1813 83.0491 20.1648L82.6666 20.1482C82.6001 20.1648 82.5502 20.2476 82.5502 20.3304C82.5336 20.4464 82.5502 20.5126 82.6001 20.5458L83.0325 20.6286C83.3318 20.6948 83.5314 20.8274 83.6478 21.0427C83.7642 21.2415 83.8972 21.5396 83.997 21.9206L85.3274 25.482C85.4271 25.7801 85.5103 25.9955 85.5435 26.1611V26.1777C85.5602 26.3267 85.5934 26.4758 85.5934 26.6249C85.5934 26.7409 85.5602 26.8734 85.5269 27.0059C85.5103 27.1053 85.477 27.2047 85.4438 27.304V27.3206L85.4271 27.3372C85.3606 27.5359 85.2276 27.801 85.0779 28.0991C84.9116 28.4304 84.7121 28.7948 84.4626 29.1758C84.3961 29.2586 84.3296 29.3249 84.2464 29.3912C84.1467 29.4409 84.0302 29.4574 83.9138 29.4574H83.5979C83.4149 29.4574 83.2653 29.5237 83.1322 29.6396C83.0158 29.7721 82.9493 29.9543 82.9327 30.1366C82.9327 30.3353 82.9992 30.5175 83.1322 30.6501C83.2653 30.766 83.4482 30.8323 83.6644 30.8323C83.8806 30.8654 84.0635 30.8157 84.2298 30.6998C84.4294 30.6004 84.579 30.3685 84.7453 30.0537L85.0114 29.474L85.4438 28.5464L85.7431 27.8838L86.2087 26.9065C86.4415 26.3599 86.6744 25.8629 86.9072 25.3991L86.9238 25.3494C87.1566 24.9022 87.3395 24.5212 87.456 24.2231L88.3872 22.3347C88.6866 21.755 88.9027 21.3243 89.1023 21.0593C89.3185 20.7942 89.5513 20.6286 89.8008 20.5623L90.1001 20.5126C90.1666 20.4464 90.1832 20.3801 90.1832 20.2973C90.15 20.2145 90.1167 20.1316 90.0502 20.1151L89.7342 20.1317L89.4183 20.1648H88.0713L87.6721 20.1317L87.3063 20.1151ZM16.5137 19.7507C16.547 19.7838 16.547 19.8169 16.5636 19.8501V20.7942C16.5636 20.8605 16.5969 20.9267 16.6135 20.9599C16.9129 20.7114 17.2288 20.4629 17.5448 20.2642C17.8275 20.0654 18.1434 19.966 18.4594 19.9494C18.659 19.9826 18.8419 20.0323 18.9749 20.1482C19.1412 20.2642 19.1911 20.4132 19.1911 20.6451C19.1745 20.8771 19.0747 21.0924 18.9417 21.2249C18.8086 21.3243 18.6423 21.374 18.476 21.3905C18.3763 21.3905 18.3097 21.3905 18.2599 21.3574C18.2432 21.3574 18.2266 21.3409 18.21 21.3243C18.1767 21.3077 18.1434 21.2746 18.1102 21.258C17.9938 21.1752 17.8607 21.109 17.7277 21.0593C17.6113 21.0096 17.4949 20.993 17.3785 20.993C17.2621 20.9764 17.1457 21.0096 17.0459 21.0924C16.9461 21.1421 16.863 21.2415 16.7964 21.3409C16.7299 21.4568 16.6468 21.6059 16.6135 21.8543C16.5969 22.0697 16.5636 22.3182 16.5636 22.6163V24.8691C16.5636 25.2501 16.5636 25.5482 16.5969 25.747C16.6135 25.9458 16.68 26.0948 16.7964 26.1777C16.863 26.2439 17.0126 26.2936 17.2122 26.3102L17.8275 26.3599C17.894 26.4096 17.9106 26.4593 17.894 26.5752C17.894 26.658 17.8607 26.7409 17.8109 26.774L16.8297 26.7077H15.1335L14.4184 26.774C14.3685 26.7243 14.3519 26.658 14.3353 26.5752C14.302 26.4593 14.3352 26.393 14.4018 26.3599L14.7344 26.3102C14.9173 26.2936 15.0503 26.2274 15.1335 26.1445C15.2166 26.0783 15.2998 25.9458 15.3164 25.7304C15.3497 25.5317 15.3497 25.2335 15.3164 24.8525V21.9703C15.3497 21.755 15.3497 21.6225 15.3164 21.5065C15.3164 21.3905 15.2831 21.2746 15.2166 21.1918C15.1335 21.0924 15.0171 21.0261 14.9007 20.9764L14.7344 20.8439C14.7177 20.8108 14.6845 20.7777 14.6845 20.7114C14.6845 20.6451 14.7011 20.5623 14.7676 20.5458L14.8175 20.5292C15.0171 20.4629 15.2166 20.3636 15.3995 20.2642L15.8818 20.0323L15.8984 20.0157C16.1146 19.9163 16.2976 19.8335 16.414 19.7341C16.4639 19.7341 16.4971 19.7341 16.5137 19.7507ZM13.8862 22.2022C13.9029 22.1359 13.9029 22.02 13.9029 21.904C13.9029 21.5728 13.8031 21.258 13.6035 20.9599C13.3874 20.6617 13.1213 20.4132 12.8053 20.2145C12.4561 20.0323 12.0237 19.9494 11.5415 19.9329C10.9262 19.9494 10.3109 20.1317 9.77872 20.4629C9.27983 20.7942 8.89734 21.2415 8.61464 21.7881C8.16564 22.7323 8.08249 23.7924 8.36519 24.7863C8.58138 25.5813 9.11353 26.2439 9.86187 26.5918C10.2942 26.7905 10.7765 26.8734 11.3253 26.9065C12.0071 26.8899 12.6723 26.658 13.2211 26.2605C13.5204 26.012 13.7366 25.7304 13.9361 25.366C13.9195 25.2997 13.9029 25.2169 13.853 25.1838C13.7865 25.1507 13.7033 25.1507 13.6368 25.1672C13.2876 25.6642 12.7222 25.9623 12.1069 25.9623C11.0592 26.012 10.0781 25.3991 9.67894 24.4218C9.46275 23.9415 9.36297 23.4114 9.36297 22.8813C9.34634 22.6826 9.36298 22.5501 9.42949 22.4838C9.47938 22.4341 9.59579 22.4175 9.77872 22.4341H12.8552C13.1878 22.4341 13.4372 22.4341 13.6035 22.401C13.7698 22.3844 13.8197 22.3513 13.853 22.3182L13.8696 22.2353C13.8696 22.2685 13.8696 22.2353 13.8862 22.2022ZM12.5226 21.0261C12.6058 21.1918 12.639 21.3409 12.6058 21.5065C12.6058 21.6225 12.6058 21.6887 12.5891 21.7218C12.5725 21.7881 12.5392 21.8047 12.5226 21.8378C12.4727 21.8875 12.3231 21.904 12.0736 21.9206C11.8242 21.9372 11.3918 21.9703 10.7931 21.9703H9.61242C9.5459 21.9703 9.52927 21.9703 9.51264 21.9372C9.47938 21.9206 9.47938 21.9206 9.47938 21.8875C9.51264 21.6887 9.59579 21.4899 9.74546 21.2912C9.92838 21.0593 10.1446 20.8605 10.4439 20.7114C10.71 20.5458 11.0259 20.4629 11.3419 20.4629C11.6911 20.4629 11.9239 20.5292 12.1235 20.6451C12.3231 20.7445 12.4727 20.877 12.5226 21.0261ZM70.5768 19.7507C70.5269 19.7175 70.4771 19.7175 70.4604 19.7175C70.3108 19.8335 70.1445 19.9329 69.9948 20.0157L69.7287 20.1482C69.4294 20.2973 69.1134 20.4464 68.8141 20.5458C68.7642 20.5623 68.7476 20.6286 68.7476 20.7114C68.7476 20.7777 68.7642 20.8108 68.7975 20.8439L68.9471 20.9267L69.0469 20.993C69.1301 21.0758 69.2298 21.1421 69.2631 21.1918C69.3296 21.2746 69.3462 21.3243 69.3462 21.4071L69.3629 21.4237C69.3795 21.5065 69.3795 21.6887 69.3795 21.8709V24.8856C69.3961 25.2666 69.3795 25.5648 69.3462 25.7636C69.3296 25.9623 69.2797 26.0948 69.1966 26.1777C69.1134 26.2605 68.9804 26.3102 68.7642 26.3433L68.415 26.393C68.3651 26.4427 68.3485 26.4924 68.3651 26.6083C68.3651 26.6912 68.3817 26.774 68.4482 26.8071L69.1799 26.7409H70.8263L71.4915 26.8071C71.558 26.7574 71.5912 26.6912 71.5912 26.6083C71.5912 26.4924 71.5746 26.4261 71.5247 26.393L71.2254 26.3433C71.0258 26.3267 70.8762 26.2605 70.7764 26.1777C70.6766 26.0617 70.6267 25.9126 70.6101 25.7636C70.5935 25.5648 70.5935 25.2666 70.5935 24.8856V22.3513C70.5935 21.9703 70.5935 21.6556 70.8097 21.3409C70.9094 21.1752 71.1256 21.0261 71.3917 20.9102C71.6411 20.7942 71.9072 20.7611 72.2398 20.7611C72.7886 20.7777 73.1711 20.9433 73.4205 21.2249C73.67 21.5562 73.803 21.9869 73.7697 22.401V24.8856C73.7697 25.2666 73.7697 25.5648 73.7365 25.7636C73.7365 25.9126 73.67 26.0617 73.5868 26.1777C73.4538 26.2605 73.3041 26.3102 73.1378 26.3433L72.8218 26.393C72.7719 26.4427 72.7553 26.4924 72.7553 26.6083C72.7719 26.6912 72.8052 26.774 72.8551 26.8071L73.5702 26.7409H75.1999L75.6655 26.7905L75.9649 26.8237C76.0147 26.774 76.048 26.7077 76.0813 26.6249C76.0813 26.509 76.048 26.4427 75.9981 26.4096L75.6489 26.3599C75.4826 26.3599 75.3329 26.2936 75.1999 26.1942C75.1001 26.0783 75.0502 25.9292 75.0336 25.7801C75.017 25.5813 75.017 25.2832 75.017 24.9022V22.0366C75.017 21.6556 74.9504 21.3243 74.8174 21.0261C74.6844 20.7114 74.4682 20.4464 74.2021 20.2642C73.9028 20.082 73.5535 19.9991 73.0879 19.966C72.6555 19.9991 72.2564 20.082 71.8739 20.231C71.4915 20.3967 71.109 20.5955 70.7431 20.8108C70.6932 20.8108 70.66 20.7942 70.6434 20.7611C70.6101 20.728 70.6101 20.6948 70.5935 20.6617V20.3304C70.5935 20.2145 70.5935 20.0654 70.6101 19.8832C70.6267 19.8335 70.6101 19.7838 70.5768 19.7507ZM68.1156 23.3617C68.1156 24.0077 67.966 24.6537 67.6666 25.2169C67.3839 25.747 66.9349 26.1777 66.4194 26.4758C65.854 26.774 65.2221 26.9231 64.5735 26.9231C63.9749 26.9231 63.3762 26.774 62.844 26.509C62.3451 26.2439 61.946 25.8464 61.6467 25.3494C61.3141 24.8028 61.1478 24.1734 61.1811 23.5274C61.1811 22.8151 61.3307 22.2022 61.6467 21.6721C61.946 21.1421 62.395 20.7114 62.9272 20.4298C63.4427 20.1317 64.058 19.9826 64.7232 19.966C65.3052 19.9826 65.8873 20.1151 66.4194 20.3801C66.9349 20.6783 67.334 21.0758 67.6334 21.5893C67.9327 22.1028 68.099 22.6991 68.1156 23.3617ZM66.4859 22.1856C66.3363 21.6887 66.1034 21.2912 65.7875 20.9764C65.4882 20.6451 65.0724 20.4629 64.5569 20.4629C63.9915 20.4629 63.5258 20.7114 63.1766 21.2249C62.8274 21.6887 62.6445 22.401 62.6112 23.312C62.6112 23.8255 62.6944 24.3225 62.8607 24.8194C63.0103 25.2998 63.2431 25.6642 63.5757 25.9789C63.8751 26.2771 64.2742 26.4261 64.7731 26.4261C65.2553 26.4261 65.6212 26.2936 65.9205 25.9955C66.4527 25.3163 66.7188 24.4881 66.6855 23.6267C66.7021 23.1464 66.6356 22.6494 66.4859 22.1856ZM77.5613 22.5169C77.6278 22.4672 77.7442 22.4507 77.9604 22.4672H81.0868C81.4194 22.4672 81.6688 22.4672 81.8185 22.4341C82.1345 22.3844 82.1345 22.2022 82.1345 21.904C82.1345 21.5728 82.0181 21.258 81.8185 20.9599C81.6356 20.6783 81.3695 20.4298 81.0203 20.2145C80.6544 20.0323 80.222 19.9494 79.7232 19.9329C78.4759 19.9494 77.3285 20.6783 76.7797 21.7881C76.1311 23.0801 76.2309 24.6206 77.0624 25.8132C77.3119 26.128 77.6278 26.393 78.0436 26.5918C78.4759 26.7905 78.9582 26.8734 79.4903 26.9065C80.1722 26.8899 80.8373 26.6746 81.4028 26.2605C81.7021 26.012 81.9515 25.7304 82.1677 25.366C82.1345 25.2997 82.1178 25.2169 82.0513 25.1838C82.0014 25.1672 81.9349 25.1341 81.8185 25.1672C81.5691 25.4985 81.3196 25.6973 81.0702 25.8132C80.854 25.9126 80.6045 25.9955 80.2886 25.9623C79.6733 25.9623 79.1744 25.8298 78.7753 25.5317C78.3595 25.2666 78.0436 24.8856 77.8274 24.4218C77.5779 23.8752 77.4615 23.2955 77.4948 22.6991C77.4781 22.6329 77.5114 22.5666 77.5613 22.5169ZM77.7775 21.9703C77.7276 21.9703 77.711 21.9703 77.6943 21.9372L77.6611 21.9206V21.8875C77.6943 21.6887 77.7775 21.4899 77.9272 21.2912C78.1101 21.0593 78.3429 20.8605 78.609 20.7114C78.875 20.5458 79.2076 20.4629 79.5402 20.4629C79.8562 20.4629 80.1056 20.5292 80.2886 20.6451C80.4715 20.7114 80.6212 20.8439 80.7209 21.0096C80.7875 21.1752 80.8373 21.3243 80.8207 21.4899C80.8207 21.6059 80.8207 21.6721 80.8041 21.7053C80.7875 21.7715 80.7542 21.7881 80.7376 21.8212C80.6877 21.8709 80.538 21.8875 80.2719 21.904C80.0225 21.9206 79.5735 21.9537 78.9582 21.9537H77.7775V21.9703ZM48.3097 15.7586H48.9084C49.374 15.7586 49.8396 15.7421 50.3053 15.709C50.2886 16.0402 50.3551 16.4378 50.5048 16.9182C50.6877 17.382 50.9039 17.8955 51.1534 18.4421L53.0658 22.2519L53.2321 22.5997C53.5314 23.2623 53.8474 23.9083 54.1966 24.5544H54.2465C54.4959 24.1568 54.7121 23.7593 54.9117 23.312L55.1611 22.7985L55.5103 22.0366L57.0902 18.8728L57.7055 17.5807L57.9715 17.001C58.1877 16.504 58.3208 16.0734 58.3374 15.709C58.7531 15.7421 59.1522 15.7586 59.5846 15.7586H60.2831L60.6822 15.7255L61.0813 15.709C61.1312 15.7586 61.1478 15.8083 61.1478 15.8912C61.1811 15.9905 61.1478 16.0734 61.0979 16.1065L60.7653 16.1231C60.4161 16.1728 60.1334 16.2224 59.9837 16.3218C59.8174 16.4378 59.701 16.62 59.6678 16.8188C59.6179 17.1169 59.5846 17.4151 59.6012 17.7132V19.8501L59.6511 21.0427L59.701 22.4175V22.4341C59.7343 23.5108 59.7675 24.5875 59.8341 25.6642C59.8839 26.0783 60.2332 26.2605 60.599 26.2936L61.1312 26.3433C61.1811 26.4096 61.1977 26.4758 61.1811 26.5586C61.1811 26.658 61.1478 26.7243 61.0979 26.774L60.0835 26.7077H58.1378L57.456 26.7574L57.0902 26.7905C57.0236 26.7409 56.9904 26.658 57.007 26.5752C56.9904 26.4593 57.007 26.393 57.0569 26.3599L57.5558 26.3102C57.9549 26.2771 58.2875 26.1611 58.354 25.7304C58.3706 25.5317 58.4039 25.2666 58.3706 24.9022L58.3208 17.9783H58.3041C57.9216 18.558 57.5558 19.3531 57.2232 20.0985C57.0403 20.4795 56.8573 20.877 56.691 21.2083L55.7764 23.0304L55.2609 24.0077L55.0115 24.4881C54.7953 24.9353 54.5957 25.366 54.3962 25.8132C54.2132 26.1611 54.0968 26.4593 53.9804 26.7243L53.9305 26.8237L53.8973 26.8402C53.8806 26.8402 53.8806 26.8568 53.8806 26.8734C53.8474 26.8899 53.8141 26.8899 53.7642 26.8899L53.6977 26.8734C53.6977 26.8568 53.6811 26.8568 53.6811 26.8402C53.6644 26.8402 53.6478 26.8237 53.6478 26.8237C53.5647 26.509 53.4316 26.1445 53.2321 25.747C53.0491 25.3329 52.8496 24.9188 52.65 24.5212C52.4671 24.1071 52.3174 23.7758 52.1844 23.5108L50.6711 20.3139L50.1556 19.1875L50.1223 19.1212C49.9727 18.6905 49.7897 18.3096 49.6068 17.9286H49.5569L49.507 18.8562L49.4904 19.4028L49.3906 20.8605L49.3241 22.666V22.6826C49.3075 23.3783 49.2742 24.0574 49.2742 24.7366C49.241 25.1507 49.2742 25.4488 49.3407 25.6807C49.374 25.8795 49.4405 26.0286 49.5403 26.128C49.6567 26.2274 49.8064 26.2771 50.0059 26.2936L50.6378 26.3433C50.7044 26.4096 50.721 26.4758 50.721 26.5586C50.721 26.658 50.6877 26.7243 50.6212 26.774L49.7232 26.7077H47.9438L47.6112 26.7409L47.0957 26.7905C47.0458 26.7409 47.0126 26.658 47.0126 26.5752C46.9959 26.4593 47.0126 26.393 47.0791 26.3599L47.4283 26.3102C47.6445 26.2771 47.8274 26.2274 47.9937 26.1445C48.1268 26.0783 48.2432 25.9623 48.3097 25.7967C48.3762 25.6145 48.4261 25.3163 48.4594 24.9353L48.5092 24.4053L48.5591 23.8752L48.5924 23.428C48.609 23.2126 48.6423 22.9807 48.6423 22.7157L48.6755 22.2685C48.6922 21.9703 48.7254 21.6556 48.7254 21.3077L48.7421 21.2083C48.8252 20.0157 48.8917 18.8065 48.925 17.6139C48.9416 17.2826 48.925 17.0175 48.8751 16.8022C48.8418 16.62 48.7254 16.4544 48.5591 16.355C48.3263 16.2721 48.0769 16.1893 47.8274 16.1562L47.5614 16.1396C47.5115 16.0734 47.4948 15.9905 47.5115 15.9243C47.5281 15.8249 47.5614 15.7586 47.6112 15.7421C47.8607 15.7255 48.0769 15.7421 48.3097 15.7586ZM0.615763 16.0237C0.582504 16.1231 0.632393 16.1893 0.698911 16.239L1.28095 16.3053C1.5304 16.3218 1.71332 16.3881 1.8131 16.504C1.92951 16.5869 1.99603 16.7525 2.01266 17.001C2.04592 17.2494 2.06255 17.5973 2.06255 18.0942V21.4237C2.51155 21.4402 2.96055 21.4402 3.40955 21.4237V16.8188C3.37629 16.6366 3.40955 16.504 3.45944 16.3881C3.47607 16.3218 3.55922 16.2556 3.67562 16.2224C3.80866 16.2059 4.02485 16.2059 4.34081 16.2059C5.20556 16.2225 5.85411 16.4544 6.31974 16.9182C6.76875 17.382 7.00156 18.0445 7.00156 18.8562C7.01819 19.585 6.85189 20.1813 6.45278 20.6783C6.12019 21.109 5.6213 21.4237 4.93948 21.5728C4.29092 21.7384 3.35966 21.8047 2.11243 21.7715C1.03151 21.755 -0.149202 21.6887 -1.42969 21.5562C0.000465155 21.8544 1.06476 22.0531 1.72995 22.1194C2.82751 22.2685 3.92507 22.2353 4.93948 22.0697C5.42174 22.0034 5.904 21.8875 6.36963 21.7218C6.802 21.5065 7.21775 21.2746 7.61686 20.993C7.8663 20.8108 8.09912 20.5292 8.28205 20.1482C8.86408 18.7899 8.41508 17.1997 7.21775 16.3384C6.78538 16.0899 6.31974 15.9243 5.83748 15.8249C5.32196 15.7421 4.70667 15.6758 4.00822 15.6758C3.3264 15.6758 2.7111 15.6758 2.17895 15.709C1.6468 15.7421 1.14791 15.7586 0.715542 15.7918C0.649023 15.858 0.615763 15.9409 0.615763 16.0237ZM3.40955 22.6826V24.2562C3.39292 24.8194 3.40955 25.2335 3.45944 25.5317C3.50933 25.8298 3.60911 25.9955 3.7754 26.1114C3.90844 26.2108 4.14126 26.2936 4.50711 26.3102L4.95611 26.3599C5.006 26.4096 5.02263 26.4593 5.02263 26.5752C5.006 26.658 4.97274 26.7409 4.93948 26.774C4.54037 26.7574 4.14126 26.7243 3.74214 26.7077H1.76321L0.76543 26.774C0.698912 26.7243 0.665653 26.658 0.665653 26.5752C0.649023 26.4924 0.665652 26.4096 0.732171 26.3599L1.06476 26.3102C1.39736 26.2936 1.61354 26.1942 1.72995 26.0783C1.87962 25.9789 1.9794 25.8132 1.99603 25.5151C2.04592 25.2169 2.06255 24.7863 2.06255 24.2396V22.5997C2.46166 22.6826 2.91066 22.6991 3.40955 22.6826Z" fill="#F01010"/>
<path fill-rule="evenodd" clip-rule="evenodd" d="M70.5607 33.1697V30.9666H70.1782V30.4531H70.5607V30.3372C70.5607 29.9893 70.6438 29.6249 70.8933 29.4096C71.0928 29.2108 71.3755 29.1445 71.625 29.1445C71.8079 29.1445 71.9576 29.1777 72.074 29.2108L72.0241 29.7409C71.9243 29.7077 71.8245 29.6912 71.7248 29.6912C71.3755 29.6912 71.2591 29.9728 71.2591 30.304V30.4366H71.8744V30.9501H71.2591V33.1531H70.5607V33.1697ZM48.5264 29.4593H49.2082V31.8777C49.2082 32.9047 48.7093 33.2525 47.9609 33.2525C47.7614 33.2525 47.5286 33.2194 47.3789 33.1697L47.4621 32.6231C47.5618 32.6562 47.7281 32.6893 47.8778 32.6893C48.2769 32.6893 48.5097 32.5071 48.5097 31.8611V29.4593H48.5264ZM52.8501 32.3912C52.8501 32.7224 52.8667 32.9709 52.8833 33.2028H52.268L52.2348 32.7887C52.1184 32.9875 51.8357 33.2525 51.3368 33.2525C50.8213 33.2525 50.3722 32.9544 50.3722 32.093V30.5194H51.0707V31.977C51.0707 32.4243 51.2204 32.7059 51.5862 32.7059C51.8689 32.7059 52.0518 32.5071 52.1184 32.358C52.135 32.2918 52.1683 32.2255 52.1683 32.1427V30.5359H52.8667V32.3912H52.8501ZM54.6793 32.7556C54.4465 32.7556 54.1472 32.6562 53.9975 32.5568L53.8645 33.0537C54.064 33.1697 54.3467 33.2525 54.6793 33.2525C55.3944 33.2525 55.7769 32.9047 55.7769 32.4077C55.7769 32.0102 55.5441 31.7617 55.0618 31.5795C54.7126 31.4636 54.5962 31.3807 54.5962 31.1985C54.5962 31.0329 54.7292 30.9169 54.9787 30.9169C55.2281 30.9169 55.4277 30.9997 55.5441 31.066L55.6771 30.5856C55.5108 30.5028 55.2614 30.42 54.962 30.42C54.3467 30.42 53.9476 30.801 53.9476 31.2813C53.9476 31.5961 54.1638 31.8777 54.6793 32.0599C55.0119 32.1758 55.1283 32.2586 55.1283 32.4409C55.1117 32.6396 54.9953 32.7556 54.6793 32.7556ZM57.6228 29.7574V30.4697H58.288V30.9832H57.6228V32.1924C57.6228 32.5237 57.7059 32.6893 57.972 32.6893C58.0718 32.6893 58.1549 32.6728 58.2547 32.6562L58.2713 33.1863C58.1716 33.2194 57.9886 33.2525 57.7725 33.2525C57.5396 33.2691 57.3235 33.1863 57.1572 33.0206C57.0075 32.855 56.941 32.6231 56.941 32.2586V30.9666H56.5419V30.4531H56.941V29.9562L57.6228 29.7574ZM61.5474 32.2752C61.5308 32.209 61.5141 32.1593 61.5141 32.093V31.6789C61.5141 31.6126 61.5308 31.5629 61.5474 31.4967C61.6139 31.1985 61.8634 30.9997 62.1627 30.9832C62.6117 30.9832 62.8445 31.3807 62.8445 31.8611C62.8445 32.3912 62.5784 32.7556 62.1461 32.7556C61.8634 32.739 61.6139 32.5402 61.5474 32.2752ZM60.7991 30.5028L60.8157 31.4139V34.3292H61.5141V32.9212H61.5308C61.6804 33.1366 61.9631 33.2856 62.3124 33.2856C62.9277 33.2856 63.5596 32.8053 63.5596 31.8445C63.5596 30.9997 63.0274 30.4531 62.3955 30.4531C61.9798 30.4531 61.6638 30.6353 61.4642 30.9335H61.4476L61.4144 30.5194H60.7991V30.5028ZM66.2536 31.5629C66.2536 31.3145 66.1538 30.9004 65.6882 30.9004C65.2558 30.9004 65.0729 31.2813 65.0396 31.5629H66.2536ZM65.0396 32.0433C65.0563 32.5402 65.4554 32.739 65.8877 32.739C66.2037 32.739 66.4365 32.6893 66.6527 32.6065L66.7525 33.0703C66.5197 33.1697 66.1871 33.2359 65.8046 33.2359C64.9066 33.2359 64.3911 32.6893 64.3911 31.8611C64.3911 31.1157 64.8567 30.42 65.7214 30.42C66.6195 30.42 66.9022 31.1488 66.9022 31.7286L66.8855 32.0102H65.0396V32.0433ZM67.8999 30.5028L67.9166 31.3642V33.1697H68.5984V31.7948L68.615 31.5795C68.6815 31.2813 68.8977 31.0826 69.2303 31.0826C69.3135 31.0826 69.38 31.0826 69.4299 31.0991V30.4531C69.38 30.4366 69.3301 30.4366 69.2636 30.4366C68.9809 30.4366 68.6649 30.6353 68.5319 31.0163H68.4986L68.482 30.5028H67.8999ZM73.7536 30.9169C74.2192 30.9169 74.3356 31.3145 74.319 31.5795H73.1217C73.1549 31.2979 73.3378 30.9169 73.7536 30.9169ZM73.9698 32.739C73.5208 32.739 73.1383 32.5237 73.1217 32.0433H74.9509L74.9676 31.7617C74.9676 31.1654 74.6848 30.4531 73.7868 30.4531C72.9055 30.4531 72.4565 31.1654 72.4565 31.8942C72.4565 32.7224 72.9886 33.2691 73.87 33.2691C74.2691 33.2691 74.5851 33.1863 74.8345 33.0869L74.7347 32.6231C74.5185 32.6893 74.2857 32.739 73.9698 32.739ZM78.0274 33.1034C77.8777 33.1697 77.5784 33.2525 77.2458 33.2525C76.3811 33.2525 75.8157 32.7059 75.8157 31.8777C75.8157 31.0826 76.3811 30.4366 77.3622 30.4366C77.595 30.4366 77.8279 30.4863 78.044 30.5691L77.9276 31.0826C77.7613 30.9997 77.5784 30.9666 77.3955 30.9832C76.8633 30.9832 76.5474 31.3642 76.5474 31.8611C76.5474 32.4243 76.9299 32.7224 77.3955 32.7224C77.6449 32.7224 77.8112 32.6728 77.9443 32.6231L78.0274 33.1034ZM79.84 30.4531V29.7574L79.1749 29.9562V30.4531H78.7924V30.9666H79.1749V32.2586C79.1749 32.6065 79.2414 32.855 79.3744 33.0206C79.5075 33.1697 79.707 33.2525 79.9565 33.2525C80.1726 33.2525 80.3389 33.2194 80.4387 33.1863L80.4221 32.6562C80.3389 32.6893 80.2392 32.7059 80.156 32.6893C79.8899 32.6893 79.8234 32.5071 79.8234 32.1924V30.9832H80.4553V30.4697L79.84 30.4531Z" fill="black"/>
<path fill-rule="evenodd" clip-rule="evenodd" d="M94.8389 16.2753H94.3899C94.3732 16.2753 94.3732 16.2919 94.3566 16.3084C94.3566 16.325 94.3566 16.3416 94.3733 16.3581L94.4231 16.3747L94.6061 16.4244C94.6393 16.4575 94.6726 16.4907 94.6726 16.5238C94.6726 16.5735 94.6892 16.6232 94.6726 16.706L94.6559 17.1035L94.6227 17.5673C94.6227 17.8158 94.6061 18.4121 94.5395 18.5943C94.5229 18.6275 94.4897 18.6606 94.4564 18.6937C94.4065 18.7103 94.3732 18.7103 94.3234 18.7103L94.2402 18.7269C94.2236 18.7434 94.2236 18.76 94.2236 18.7765C94.2236 18.7931 94.2236 18.8097 94.2568 18.8262L94.4564 18.8097H94.8721L95.0717 18.8262C95.0883 18.8097 95.0883 18.8097 95.0883 18.7765C95.0883 18.76 95.0883 18.7434 95.0717 18.7269H94.9387C94.8888 18.7269 94.8555 18.7103 94.8222 18.6772C94.8056 18.6606 94.8056 18.644 94.789 18.6275C94.7724 18.5446 94.7557 18.4453 94.7557 18.3624V17.8821L94.7724 17.468L94.8056 17.1367C94.8056 17.0207 94.8056 16.9213 94.8222 16.8054L94.9553 17.0704L95.0717 17.352L95.4375 18.0808L95.5373 18.3127L95.687 18.5943L95.7369 18.7434L95.7701 18.8428C95.7868 18.8594 95.82 18.8594 95.8367 18.8428L95.9364 18.6109C96.0362 18.3956 96.136 18.1802 96.2524 17.9649L96.585 17.3023C96.6183 17.2526 96.6349 17.1864 96.6681 17.1201C96.718 17.0042 96.7679 16.9048 96.8344 16.8054V18.3956V18.5778C96.8344 18.6275 96.8178 18.6606 96.7846 18.6606C96.7679 18.6772 96.718 18.7103 96.6515 18.7103L96.5517 18.7269C96.5351 18.7434 96.5351 18.76 96.5351 18.7765C96.5351 18.7931 96.5517 18.8097 96.5684 18.8262L96.8178 18.8097H97.2668L97.4996 18.8262C97.5163 18.8262 97.5329 18.8097 97.5329 18.7765C97.5329 18.76 97.5329 18.7434 97.5163 18.7269H97.3998C97.35 18.7103 97.3167 18.6937 97.2668 18.6772C97.2336 18.644 97.2169 18.6109 97.2169 18.5778L97.2003 18.4121C97.2003 18.2299 97.1837 18.0311 97.1837 17.8324C97.1837 17.6336 97.167 17.4348 97.1504 17.2526V16.7557L97.167 16.5569C97.1837 16.5072 97.2003 16.4741 97.2335 16.441C97.2834 16.4078 97.35 16.3913 97.4165 16.3913H97.5163V16.3416L97.4996 16.2919L97.3167 16.3084H96.8843C96.8843 16.3913 96.8511 16.4907 96.8012 16.6066L96.6016 17.0373L96.2358 17.7661C96.1526 17.9649 96.0528 18.1471 95.9364 18.3459L95.6704 17.8158L95.2214 16.9379C95.1715 16.8219 95.1216 16.706 95.0883 16.59C95.0551 16.5072 95.0384 16.4078 95.0384 16.325H94.8389V16.2753ZM92.7103 18.2134V18.5115C92.6937 18.644 92.6105 18.6937 92.4775 18.6937L92.3943 18.7103C92.3611 18.7434 92.3611 18.7931 92.3943 18.8097L92.8766 18.7931L93.3921 18.8097L93.4254 18.76L93.4087 18.7103L93.3089 18.6937C93.2092 18.6937 93.1593 18.6772 93.126 18.644C93.0928 18.6109 93.0595 18.5778 93.0595 18.5115C93.0429 18.4121 93.0429 18.3127 93.0595 18.2134V17.8489C92.9265 17.8489 92.8267 17.8489 92.7269 17.8324L92.7103 18.2134ZM92.3777 16.3084C92.3777 16.325 92.3777 16.3416 92.3943 16.3581L92.5274 16.3747C92.5772 16.3747 92.6271 16.4078 92.6604 16.4244C92.6936 16.441 92.7103 16.4741 92.7103 16.5404L92.7269 16.7888V17.5673H93.0429V16.5072L93.0595 16.4078C93.0595 16.3913 93.0928 16.3747 93.1094 16.3747L93.2757 16.3581C93.4752 16.3581 93.6249 16.4078 93.7413 16.5238C93.8411 16.6232 93.9076 16.7888 93.9076 16.971C93.9076 17.1532 93.8744 17.2857 93.7912 17.4017C93.6914 17.5011 93.575 17.5839 93.442 17.6005C93.2757 17.6336 93.0595 17.6502 92.7768 17.6502C92.5274 17.6502 92.2446 17.6336 91.9453 17.6005C92.2779 17.6667 92.5274 17.7164 92.6936 17.733C93.0595 17.7827 93.4254 17.7495 93.7746 17.6502C93.8577 17.6005 93.9741 17.5508 94.0739 17.468C94.1404 17.4183 94.1903 17.352 94.2402 17.2692C94.2735 17.1864 94.2901 17.087 94.3067 16.971C94.3067 16.8551 94.2735 16.7226 94.2236 16.6232C94.1737 16.5238 94.0905 16.441 94.0074 16.3913C93.9242 16.3416 93.8078 16.2919 93.6748 16.2753C93.5418 16.2588 93.4087 16.2422 93.2424 16.2422L92.8101 16.2588L92.4775 16.2753C92.3943 16.2753 92.3777 16.2919 92.3777 16.3084Z" fill="white"/>
</g>
<defs>
<clipPath id="clip0_7232_42204">
<rect width="98" height="27" fill="white" transform="translate(0.535156 10.625)"/>
</clipPath>
</defs>
</svg>
