<svg width="100" height="48" viewBox="0 0 100 48" fill="none" xmlns="http://www.w3.org/2000/svg">
<g clip-path="url(#clip0_7232_42058)">
<path fill-rule="evenodd" clip-rule="evenodd" d="M81.6306 19.8711H84.4138V17.269H81.6306V19.8711ZM66.8365 24.2067C67.3696 22.8874 68.7299 21.9492 70.3253 21.9492C71.9207 21.9492 73.2849 22.8874 73.8141 24.2067H66.8365ZM70.3253 19.5266C66.8365 19.5266 64.0063 22.1727 64.0063 25.4345C64.0063 28.6963 66.8365 31.3423 70.3253 31.3423C72.7204 31.3423 74.8019 30.0963 75.8721 28.2638L73.5397 27.2047C72.889 28.2345 71.6934 28.9235 70.3253 28.9235C68.5966 28.9235 67.1423 27.824 66.7189 26.3287H73.9317V26.3324H76.5738C76.6208 26.0392 76.6443 25.7387 76.6443 25.4345C76.6443 22.1727 73.818 19.5266 70.3253 19.5266ZM77.3813 31.0272H80.1645V28.4251H77.3813V31.0272ZM81.6306 31.0272H84.4138V21.0146H81.6306V31.0272ZM92.1793 28.9235C90.1174 28.9235 88.4475 27.3622 88.4475 25.4345C88.4475 23.5067 90.1174 21.9455 92.1793 21.9455C94.2412 21.9455 95.9111 23.5067 95.9111 25.4345C95.9111 27.3622 94.2412 28.9235 92.1793 28.9235ZM92.1793 19.5266C88.6905 19.5266 85.8603 22.1727 85.8603 25.4345C85.8603 28.6963 88.6905 31.3423 92.1793 31.3423C95.6681 31.3423 98.4983 28.6963 98.4983 25.4345C98.4983 22.1727 95.6681 19.5266 92.1793 19.5266ZM33.9908 23.2575V25.9476H37.8834C37.6795 26.7172 37.2797 27.4062 36.7035 27.956C35.8332 28.7879 34.6298 29.2423 33.3127 29.2423C30.5765 29.2423 28.3499 27.1607 28.3499 24.5989C28.3499 22.0408 30.5765 19.9554 33.3127 19.9554C34.7787 19.9554 36.1272 20.5418 37.0602 21.5533L39.2867 19.8492C37.8089 18.2293 35.6176 17.2617 33.3127 17.2617C28.9889 17.2617 25.4727 20.5528 25.4727 24.5952C25.4727 28.6376 28.9889 31.9287 33.3127 31.9287C35.4138 31.9287 37.3463 31.2214 38.7615 29.869C39.9492 28.7329 40.7371 27.1497 40.8861 25.5664C40.9606 24.7931 40.9684 24.0235 40.9214 23.2502L33.9908 23.2575ZM48.1655 28.9235C46.1075 28.9235 44.4337 27.3622 44.4337 25.4345C44.4337 23.5067 46.1036 21.9455 48.1655 21.9455C50.2275 21.9455 51.8974 23.5067 51.8974 25.4345C51.8974 27.3622 50.2275 28.9235 48.1655 28.9235ZM51.8974 20.6774C50.8507 19.9591 49.5611 19.5376 48.1655 19.5376C44.6767 19.5376 41.8504 22.1837 41.8504 25.4455C41.8504 28.7073 44.6807 31.3533 48.1655 31.3533C49.5611 31.3533 50.8507 30.9282 51.8974 30.2136V31.0308H54.4846V19.8601H51.8974V20.6774ZM60.0353 17.269H57.4481V19.8711H55.8997V22.1544H57.4481V28.1282C57.4481 28.7439 57.5304 29.2643 57.6951 29.6711C57.8558 30.0743 58.1067 30.3895 58.4007 30.635C58.6986 30.8842 59.0475 31.0785 59.463 31.1921C59.8863 31.302 60.3489 31.346 60.8428 31.346C61.3524 31.346 61.8071 31.2984 62.1913 31.1994C62.5519 31.1078 62.8969 30.9795 63.2144 30.8183V28.9785C62.7048 29.1837 62.2266 29.2607 61.6817 29.2827C61.1055 29.3083 60.7683 29.1544 60.4861 28.9015C60.1882 28.6376 60.0314 28.2931 60.0314 27.7177V22.1544H63.2144V19.8711H60.0314V17.269H60.0353Z" fill="black"/>
<path fill-rule="evenodd" clip-rule="evenodd" d="M11.719 29.8941C8.31256 29.8941 5.54896 27.3103 5.54896 24.1255C5.54896 20.9407 8.31256 18.3569 11.719 18.3569V13.6328C5.52152 13.6328 0.5 18.3312 0.5 24.1255C0.5 29.9197 5.52152 34.6145 11.719 34.6145C17.9126 34.6145 22.9381 29.9161 22.9381 24.1255H17.8891C17.8891 27.314 15.1255 29.8941 11.719 29.8941Z" fill="#2354E6"/>
<path fill-rule="evenodd" clip-rule="evenodd" d="M11.7188 24.1241H17.8888V18.3555H11.7188V24.1241Z" fill="#17E6A1"/>
</g>
<defs>
<clipPath id="clip0_7232_42058">
<rect width="98" height="21" fill="white" transform="translate(0.5 13.625)"/>
</clipPath>
</defs>
</svg>
