<svg width="100" height="48" viewBox="0 0 100 48" fill="none" xmlns="http://www.w3.org/2000/svg">
<g clip-path="url(#clip0_7232_42010)">
<path d="M4.42489 25.775C4.58077 26.3287 4.82476 26.8362 5.15685 27.3041C5.48217 27.7655 5.87525 28.1741 6.32256 28.5168C6.76987 28.8596 7.2714 29.1232 7.82715 29.3143C8.3829 29.5055 8.97253 29.6043 9.56894 29.5978C10.4839 29.5978 11.2836 29.4132 11.9614 29.0375C12.6459 28.6684 13.1881 28.2466 13.5947 27.7655H16.8953C16.5836 28.418 16.1701 29.0243 15.6822 29.5648C15.1874 30.1184 14.6181 30.5996 13.9878 31.0082C13.344 31.4234 12.6459 31.7464 11.9139 31.9639C11.1752 32.2012 10.389 32.3132 9.56894 32.3132C8.45745 32.3132 7.40695 32.1023 6.42422 31.6871C5.46183 31.285 4.59432 30.705 3.85559 29.9866C3.11685 29.2616 2.52721 28.4114 2.12057 27.4755C1.68682 26.5066 1.46994 25.4587 1.47672 24.4041C1.47672 23.3166 1.68682 22.295 2.12057 21.3328C2.53399 20.3968 3.12363 19.54 3.85559 18.8216C4.59432 18.1032 5.46861 17.5232 6.42422 17.1212C7.41373 16.6993 8.48456 16.4884 9.56894 16.495C10.6804 16.495 11.7242 16.7059 12.7137 17.1212C13.6761 17.5232 14.5436 18.1032 15.2823 18.8216C16.021 19.5466 16.6107 20.3968 17.0241 21.3328C17.4511 22.295 17.6679 23.3166 17.6679 24.4041C17.6679 24.6546 17.6612 24.8918 17.6408 25.1159C17.6205 25.3466 17.5934 25.5641 17.5527 25.775H4.42489ZM14.713 23.0596C14.5571 22.5125 14.3199 21.9918 13.9946 21.5173C13.6761 21.0493 13.283 20.6341 12.8289 20.2914C12.3748 19.9487 11.8665 19.6784 11.3243 19.4939C10.7618 19.3028 10.1654 19.2039 9.56894 19.2105C8.97253 19.2105 8.38967 19.3093 7.82715 19.5071C7.27818 19.7048 6.76987 19.975 6.30901 20.3178C5.85492 20.6605 5.46183 21.0691 5.13652 21.5305C4.8112 21.9984 4.57399 22.5125 4.41811 23.0596H14.713ZM18.1627 18.38L20.1485 16.495L26.0516 22.4598L31.9547 16.495L33.9405 18.38L27.9764 24.4041L33.9405 30.4282L31.9547 32.3132L26.0516 26.3484L20.1485 32.3132L18.1627 30.4282L24.12 24.4041L18.1627 18.38ZM35.662 24.0021C35.662 22.9739 35.8585 22.005 36.2584 21.0889C36.6447 20.1925 37.2072 19.3818 37.9121 18.6898C38.6169 18.0043 39.4505 17.4573 40.3655 17.075C41.3075 16.6862 42.3242 16.4818 43.3475 16.4884C44.398 16.4884 45.3943 16.6862 46.3296 17.075C47.2446 17.4507 48.0782 18.0043 48.783 18.6898C49.4879 19.3818 50.0436 20.1925 50.4299 21.0889C50.8298 22.0116 51.0331 23.0003 51.0264 24.0021V31.8518H47.9901V23.8571C47.9968 23.2507 47.8681 22.6443 47.6241 22.0907C47.3937 21.5503 47.0548 21.0625 46.6346 20.6473C46.2076 20.2321 45.7129 19.9025 45.1571 19.6784C44.5878 19.4412 43.9711 19.3159 43.3475 19.3225C42.7037 19.3225 42.1005 19.4412 41.538 19.6784C40.9755 19.9157 40.4807 20.2387 40.0605 20.6473C39.6403 21.0625 39.3014 21.5503 39.0642 22.0907C38.8202 22.6509 38.6915 23.2507 38.6982 23.8637V31.8584H35.662V24.0021ZM56.0891 25.775C56.245 26.3287 56.4889 26.8362 56.821 27.3041C57.1464 27.7655 57.5394 28.1741 57.9868 28.5168C58.4341 28.8596 58.9356 29.1232 59.4913 29.3143C60.0471 29.5055 60.6367 29.6043 61.2331 29.5978C62.1481 29.5978 62.9478 29.4132 63.6323 29.0375C64.3101 28.6684 64.859 28.2466 65.2657 27.7655H68.5663C68.2545 28.418 67.8411 29.0243 67.3531 29.5648C66.8584 30.1184 66.2891 30.5996 65.6588 31.0082C65.0149 31.4234 64.3169 31.7464 63.5849 31.9639C62.8326 32.1946 62.0532 32.3066 61.2331 32.3066C60.1216 32.3066 59.0779 32.0957 58.0884 31.6805C57.126 31.2784 56.2585 30.6984 55.5198 29.98C54.781 29.255 54.1914 28.4048 53.778 27.4689C53.351 26.5 53.1273 25.4521 53.1341 24.3975C53.1341 23.31 53.351 22.2884 53.778 21.3262C54.1914 20.3903 54.781 19.54 55.5198 18.815C56.2585 18.0966 57.1328 17.5166 58.0884 17.1146C59.0779 16.6928 60.1487 16.4818 61.2264 16.4884C62.3378 16.4884 63.3816 16.6993 64.3711 17.1146C65.3335 17.5166 66.201 18.0966 66.9397 18.815C67.6784 19.54 68.2681 20.3903 68.6815 21.3262C69.1085 22.2884 69.3254 23.31 69.3254 24.3975C69.3254 24.648 69.3186 24.8853 69.2982 25.1093C69.2779 25.34 69.2508 25.5575 69.2101 25.7684L56.0891 25.775ZM66.3772 23.0596C66.2213 22.5125 65.9841 21.9918 65.6588 21.5173C65.3402 21.0493 64.9472 20.6341 64.4931 20.2914C64.039 19.9487 63.5307 19.6784 62.9885 19.4939C62.426 19.3028 61.8295 19.2039 61.2331 19.2105C60.6367 19.2105 60.0539 19.3093 59.4913 19.5071C58.9424 19.7048 58.4341 19.975 57.9732 20.3178C57.5191 20.6605 57.126 21.0691 56.8075 21.5305C56.4822 21.9984 56.245 22.5125 56.0891 23.0596H66.3772ZM77.8581 32.3132C76.0824 32.3132 74.5507 31.9112 73.2563 31.1005C71.9618 30.2898 71.0536 29.1825 70.525 27.7721H73.7713C74.178 28.3784 74.7473 28.853 75.4792 29.1891C76.218 29.5253 77.0177 29.6966 77.831 29.69C78.8408 29.69 79.627 29.5121 80.1828 29.1628C80.7385 28.8134 81.0164 28.3323 81.0164 27.7193C81.0164 27.225 80.8131 26.8428 80.42 26.5791C80.0201 26.3155 79.3559 26.0914 78.4206 25.92L76.1434 25.4916C74.3542 25.1687 73.0462 24.6546 72.2261 23.9493C71.406 23.2441 70.9994 22.295 70.9994 21.0955C70.9994 20.4298 71.1485 19.8168 71.4535 19.2566C71.7584 18.6898 72.1854 18.1955 72.7073 17.8C73.2427 17.3914 73.8798 17.075 74.6185 16.8443C75.3572 16.6137 76.1773 16.5016 77.0719 16.5016C78.7256 16.5016 80.1624 16.8839 81.3688 17.6616C82.5752 18.4328 83.4224 19.5005 83.9103 20.8714H80.664C80.3319 20.3178 79.8507 19.8893 79.2204 19.5862C78.5901 19.283 77.8784 19.1314 77.099 19.1314C76.1638 19.1314 75.4386 19.2962 74.9235 19.6323C74.4084 19.9684 74.1509 20.4364 74.1509 21.0428C74.1509 21.4778 74.3474 21.8337 74.7473 22.0973C75.1471 22.3609 75.8046 22.585 76.7195 22.7498L78.9967 23.1782C80.7656 23.5012 82.0737 24.0284 82.9141 24.76C83.7545 25.4916 84.1679 26.4605 84.1679 27.66C84.1679 28.3455 84.012 28.9716 83.7002 29.5318C83.3749 30.1053 82.9344 30.6062 82.399 31.0016C81.8432 31.4234 81.179 31.7464 80.3996 31.9705C79.6202 32.2012 78.7731 32.3132 77.8581 32.3132ZM92.7616 32.3132C90.986 32.3132 89.4543 31.9112 88.1598 31.1005C86.8653 30.2898 85.9571 29.1825 85.4285 27.7721H88.6681C89.0747 28.3784 89.6508 28.853 90.376 29.1891C91.1147 29.5253 91.9145 29.6966 92.7277 29.69C93.7376 29.69 94.5238 29.5121 95.0795 29.1628C95.6353 28.8134 95.9131 28.3323 95.9131 27.7193C95.9131 27.225 95.7098 26.8428 95.3167 26.5791C94.9169 26.3155 94.2527 26.0914 93.3174 25.92L91.0402 25.4916C89.2442 25.1687 87.9429 24.6546 87.1228 23.9493C86.3028 23.2441 85.8961 22.295 85.8961 21.0955C85.8961 20.4298 86.0452 19.8168 86.3502 19.2566C86.6552 18.6898 87.0822 18.1955 87.604 17.8C88.1394 17.3914 88.7765 17.075 89.5153 16.8443C90.254 16.6137 91.0741 16.5016 91.9687 16.5016C93.6224 16.5016 95.0592 16.8839 96.2656 17.6616C97.4719 18.4328 98.3191 19.5005 98.8071 20.8714H95.5607C95.2286 20.3178 94.7474 19.8893 94.1171 19.5862C93.4868 19.283 92.7752 19.1314 91.9958 19.1314C91.0605 19.1314 90.3353 19.2962 89.8202 19.6323C89.3052 19.9684 89.0476 20.4364 89.0476 21.0428C89.0476 21.4778 89.2442 21.8337 89.644 22.0973C90.0439 22.3609 90.7013 22.585 91.6163 22.7498L93.8935 23.1782C95.6624 23.5012 96.9704 24.0284 97.8108 24.76C98.6512 25.4916 99.0646 26.4605 99.0646 27.66C99.0646 28.3455 98.9087 28.9716 98.597 29.5318C98.2717 30.1053 97.8311 30.6062 97.2957 31.0016C96.74 31.4234 96.0758 31.7464 95.2964 31.9705C94.5238 32.2012 93.6766 32.3132 92.7616 32.3132Z" fill="#141D22"/>
</g>
<defs>
<clipPath id="clip0_7232_42010">
<rect width="100" height="48" fill="white"/>
</clipPath>
</defs>
</svg>
