<svg width="100" height="48" viewBox="0 0 100 48" fill="none" xmlns="http://www.w3.org/2000/svg">
<path d="M68.7969 29.5422V7.17969H73.3527V29.5422H68.7969Z" fill="#F7A600"/>
<path d="M15.7355 36.1828H5.97656V13.8203H15.3399C19.8957 13.8203 22.5452 16.2708 22.5452 20.1064C22.5452 22.5925 20.8428 24.1906 19.6679 24.7234C21.0706 25.3508 22.8809 26.7596 22.8809 29.7546C22.8809 33.9217 19.8957 36.1828 15.7355 36.1828ZM14.9922 17.7151H10.5443V22.8648H14.9922C16.9224 22.8648 18.0014 21.823 18.0014 20.284C18.0014 18.745 16.9224 17.7151 14.9922 17.7151ZM15.28 26.7832H10.5323V32.2762H15.28C17.342 32.2762 18.3251 31.0213 18.3251 29.506C18.3251 27.9907 17.342 26.7832 15.28 26.7832Z" fill="#14192C"/>
<path d="M36.7638 27.0082V36.1828H32.244V27.0082L25.2305 13.8203H30.1699L34.5219 22.8292L38.8139 13.8203H43.7533L36.7638 27.0082Z" fill="#14192C"/>
<path d="M56.6769 36.1828H46.918V13.8203H56.2813C60.8371 13.8203 63.4866 16.2708 63.4866 20.1064C63.4866 22.5925 61.7842 24.1906 60.6093 24.7234C62.012 25.3508 63.8223 26.7596 63.8223 29.7546C63.8103 33.9217 60.8371 36.1828 56.6769 36.1828ZM55.9216 17.7151H51.4738V22.8648H55.9216C57.8519 22.8648 58.9309 21.823 58.9309 20.284C58.9309 18.745 57.8519 17.7151 55.9216 17.7151ZM56.2094 26.7832H51.4618V32.2762H56.2094C58.2715 32.2762 59.2546 31.0213 59.2546 29.506C59.2546 27.9907 58.2835 26.7832 56.2094 26.7832Z" fill="#14192C"/>
<path d="M88.017 17.7151V36.1828H83.4612V17.7151H77.3828V13.8203H94.1073V17.7151H88.017Z" fill="#14192C"/>
</svg>
