<svg width="100" height="48" viewBox="0 0 100 48" fill="none" xmlns="http://www.w3.org/2000/svg">
<g clip-path="url(#clip0_7232_41913)">
<g clip-path="url(#clip1_7232_41913)">
<path d="M77.5093 24.4225C77.5093 23.8609 77.5093 23.2993 77.5093 22.818C77.5093 22.3366 77.4286 21.8553 77.3479 21.4542C77.2672 21.053 77.1057 20.6519 76.9443 20.2508C76.7829 19.8497 76.46 19.5288 76.1371 19.2079C75.6528 18.7265 75.1685 18.4056 74.5227 18.0847C73.8769 17.844 73.2312 17.6836 72.5047 17.6836C71.7782 17.6836 71.1324 17.7638 70.4867 18.0847C69.9216 18.3254 69.3566 18.7265 68.8723 19.1276C68.5494 19.4485 68.3072 19.7694 68.065 20.1706C67.9036 20.5717 67.7422 20.9728 67.6614 21.3739C67.5807 21.8553 67.5 22.3366 67.5 22.7377C67.5 23.2191 67.5 23.7807 67.5 24.3422C67.5 24.9038 67.5 25.4654 67.5 25.9467C67.5 26.4281 67.5807 26.9094 67.6614 27.3106C67.7422 27.7117 67.9036 28.1128 68.065 28.5139C68.2265 28.915 68.5494 29.2359 68.8723 29.5568C69.3566 30.0382 69.8409 30.3591 70.4867 30.5998C71.1324 30.8404 71.8589 31.0009 72.5047 31.0009C73.2312 31.0009 73.8769 30.9207 74.5227 30.5998C75.0877 30.3591 75.6528 29.958 76.1371 29.5568C76.46 29.2359 76.7021 28.915 76.9443 28.5139C77.1057 28.1128 77.2672 27.7117 77.3479 27.3106C77.4286 26.8292 77.5093 26.3479 77.5093 25.9467C77.5093 25.5456 77.5901 24.984 77.5093 24.4225ZM74.9263 24.4225C74.9263 25.0643 74.9263 25.6258 74.9263 26.027C74.9263 26.3479 74.8456 26.749 74.8456 27.0699C74.8456 27.3106 74.7648 27.5512 74.6034 27.7117C74.5227 27.8721 74.442 28.0326 74.2805 28.193C74.1191 28.4337 73.8769 28.5942 73.554 28.6744C73.2312 28.8348 72.9083 28.8348 72.5854 28.8348C72.2625 28.8348 71.9396 28.7546 71.6168 28.6744C71.3746 28.5942 71.0517 28.3535 70.8903 28.193C70.7288 28.0326 70.6481 27.8721 70.5674 27.7117C70.4867 27.471 70.4059 27.3106 70.4059 27.0699C70.3252 26.749 70.3252 26.3479 70.3252 26.027C70.3252 25.6258 70.3252 25.0643 70.3252 24.4225C70.3252 23.7807 70.3252 23.2191 70.3252 22.818C70.3252 22.4971 70.4059 22.096 70.4059 21.7751C70.4059 21.5344 70.4867 21.2937 70.5674 21.1333C70.6481 20.9728 70.7288 20.8124 70.8903 20.6519C71.0517 20.4112 71.3746 20.2508 71.6168 20.1706C71.9396 20.0101 72.2625 20.0101 72.5854 20.0101C72.9083 20.0101 73.2312 20.0903 73.554 20.1706C73.7962 20.2508 74.0384 20.4915 74.2805 20.6519C74.442 20.8124 74.5227 20.9728 74.6034 21.1333C74.6841 21.3739 74.7649 21.5344 74.8456 21.7751C74.9263 22.096 74.9263 22.4971 74.9263 22.818C74.9263 23.2993 74.9263 23.7807 74.9263 24.4225Z" fill="#23AF91"/>
<path d="M98.3374 18.0063C98.3374 17.8458 98.2567 17.7656 98.0953 17.7656H95.9965C95.8351 17.7656 95.7544 17.8458 95.7544 18.0063V25.9485L90.5076 17.8458C90.5076 17.7656 90.4268 17.7656 90.3461 17.7656H88.3281C88.1667 17.7656 88.0859 17.8458 88.0859 18.0063V30.8422C88.0859 31.0027 88.1667 31.0829 88.3281 31.0829H90.5076C90.669 31.0829 90.7497 31.0027 90.7497 30.8422V22.9L95.9965 31.0027C95.9965 31.0829 96.0773 31.0829 96.158 31.0829H98.176C98.3374 31.0829 98.4182 31.0027 98.4182 30.8422L98.3374 18.0063Z" fill="#23AF91"/>
<path d="M83.8864 18.0063C83.8864 17.8458 83.8057 17.7656 83.6443 17.7656H81.4648C81.3034 17.7656 81.2227 17.8458 81.2227 18.0063V30.8422C81.2227 31.0027 81.3034 31.0829 81.4648 31.0829H83.6443C83.8057 31.0829 83.8864 31.0027 83.8864 30.8422V18.0063Z" fill="#23AF91"/>
<path d="M58.1403 24.4207C58.1403 23.7789 58.1403 23.2173 58.1403 22.8162C58.1403 22.4953 58.2211 22.0941 58.2211 21.7732C58.3825 20.6501 59.2704 19.9281 60.4005 19.9281C61.127 19.9281 61.7728 20.1688 62.2571 20.8105C62.4185 21.1314 62.58 21.4523 62.6607 21.7732C62.6607 21.7732 62.6607 21.8535 62.7414 21.8535H65.3245C65.3245 21.8535 65.4052 21.8535 65.4052 21.7732C65.163 20.249 64.2751 18.8049 62.8221 18.0829C62.0956 17.762 61.2884 17.6016 60.4812 17.6016C59.0283 17.6016 57.8175 18.0829 56.8488 19.0456C56.2838 19.6072 55.8802 20.249 55.7187 21.0512C55.5573 21.7732 55.4766 22.8964 55.4766 24.3404C55.4766 25.7845 55.5573 26.9076 55.7187 27.6296C55.8802 28.3517 56.2838 29.0737 56.7681 29.6353C57.7367 30.598 58.9475 31.0793 60.4005 31.0793C61.2077 31.0793 62.0149 30.9189 62.7414 30.598C64.1944 29.8759 65.0823 28.5121 65.3245 26.9076C65.3245 26.9076 65.3245 26.8274 65.2437 26.8274H62.7414C62.7414 26.8274 62.6607 26.8274 62.6607 26.9076C62.58 27.2285 62.4185 27.5494 62.2571 27.8703C61.8535 28.5121 61.127 28.7528 60.4005 28.7528C59.2704 28.7528 58.3825 28.111 58.2211 26.9076C58.1403 26.5867 58.1403 26.1856 58.1403 25.8647C58.1403 25.624 58.1403 25.0625 58.1403 24.4207Z" fill="#23AF91"/>
<path d="M31.3409 18.0063C31.3409 17.8458 31.2601 17.7656 31.0987 17.7656H29C28.8385 17.7656 28.7578 17.8458 28.7578 18.0063V30.8422C28.7578 31.0027 28.8385 31.0829 29 31.0829H31.1794C31.3409 31.0829 31.4216 31.0027 31.4216 30.8422V27.0717L33.1167 24.9858L36.6684 31.0027C36.6684 31.0829 36.7491 31.0829 36.8299 31.0829H39.4129C39.4936 31.0829 39.5744 31.0027 39.4936 30.9225L34.8119 23.0605L39.09 18.0063C39.1708 17.9261 39.1708 17.7656 39.0093 17.7656H36.1841C36.1841 17.7656 36.1034 17.7656 36.1034 17.8458L31.4216 23.4616V18.0063H31.3409Z" fill="#23AF91"/>
<path d="M47.0789 28.9169C45.8681 28.9169 44.738 27.7937 44.738 26.5101V18.0063C44.738 17.8458 44.6573 17.7656 44.4958 17.7656H42.3164C42.1549 17.7656 42.0742 17.8458 42.0742 18.0063V26.4299C42.0742 29.3982 44.2537 31.2434 46.9982 31.2434C49.7427 31.2434 51.9221 29.3982 51.9221 26.4299V18.0063C51.9221 17.8458 51.8414 17.7656 51.68 17.7656H49.5005C49.3391 17.7656 49.2583 17.8458 49.2583 18.0063V26.4299C49.3391 27.7937 48.2897 28.9169 47.0789 28.9169Z" fill="#23AF91"/>
<path fill-rule="evenodd" clip-rule="evenodd" d="M7.12299 24.4223L13.8228 31.081L18.0203 26.9093C18.7467 26.2675 19.9575 26.2675 20.684 26.9895C21.4105 27.7115 21.4105 28.8347 20.7648 29.6369L15.1143 35.0922C14.3878 35.8142 13.177 35.8142 12.4505 35.0922L4.37849 27.0697V31.8832C4.37849 32.9261 3.49056 33.8086 2.4412 33.8086C1.39183 33.8086 0.503906 32.9261 0.503906 31.8832V17.0417C0.503906 15.9987 1.39183 15.1163 2.4412 15.1163C3.49056 15.1163 4.37849 15.9987 4.37849 17.0417V21.7749L12.4505 13.7525C13.177 13.0304 14.3878 13.0304 15.1143 13.7525L20.684 19.288C21.3298 20.01 21.3298 21.2133 20.6033 21.9354C19.8768 22.6574 18.7467 22.6574 17.9395 22.0156L13.7421 17.8439L7.12299 24.4223ZM13.8228 22.5772C13.0156 22.5772 12.3698 23.0585 12.0469 23.7805C11.7241 24.5026 11.8855 25.3048 12.4505 25.8664C13.0156 26.428 13.8228 26.5884 14.5493 26.2675C15.2758 25.9466 15.7601 25.3048 15.7601 24.5026C15.7601 24.0212 15.5986 23.5399 15.195 23.1387C14.7914 22.7376 14.3071 22.5772 13.8228 22.5772Z" fill="#23AF91"/>
</g>
</g>
<defs>
<clipPath id="clip0_7232_41913">
<rect width="100" height="48" fill="white"/>
</clipPath>
<clipPath id="clip1_7232_41913">
<rect width="100" height="45" fill="white" transform="translate(0.324219 1.96094)"/>
</clipPath>
</defs>
</svg>
