<svg width="100" height="48" viewBox="0 0 100 48" fill="none" xmlns="http://www.w3.org/2000/svg">
<g clip-path="url(#clip0_7232_41828)">
<path d="M34.563 17.0508C34.3895 17.0508 34.2422 17.1767 34.215 17.3482L32.2071 30.0821C32.1998 30.1287 32.2026 30.1762 32.2155 30.2215C32.2283 30.2668 32.2508 30.3088 32.2814 30.3446C32.312 30.3804 32.35 30.4091 32.3927 30.4288C32.4355 30.4485 32.482 30.4587 32.5291 30.4587H34.9104C35.0836 30.4587 35.2312 30.3325 35.2583 30.1613L35.8482 26.4219C35.8751 26.2506 36.0226 26.1245 36.1961 26.1245H38.3611C40.8907 26.1245 43.0381 24.2788 43.4303 21.7778C43.8258 19.2556 41.8554 17.0563 39.0627 17.0508H34.563ZM36.8778 19.8935H38.61C40.0361 19.8935 40.5005 20.735 40.3537 21.6655C40.2068 22.5981 39.4856 23.285 38.106 23.285H36.3429L36.8778 19.8935ZM48.2735 20.7591C47.6722 20.7613 46.9804 20.8845 46.2036 21.2081C44.4219 21.9507 43.5662 23.4856 43.2028 24.6045C43.2028 24.6045 42.0463 28.0184 44.6593 29.894C44.6593 29.894 47.0826 31.6996 49.8106 29.7827L49.7636 30.0821C49.7563 30.1286 49.7591 30.1761 49.7719 30.2214C49.7847 30.2667 49.8072 30.3086 49.8377 30.3444C49.8683 30.3802 49.9062 30.4089 49.9489 30.4286C49.9916 30.4484 50.0381 30.4586 50.0851 30.4587H52.3457C52.5192 30.4587 52.6665 30.3325 52.6936 30.1613L54.0687 21.441C54.0761 21.3945 54.0733 21.347 54.0605 21.3016C54.0478 21.2563 54.0253 21.2143 53.9948 21.1784C53.9642 21.1426 53.9263 21.1138 53.8835 21.0941C53.8408 21.0743 53.7942 21.064 53.7472 21.064H51.4866C51.3131 21.064 51.1655 21.1902 51.1386 21.3614L51.0647 21.8308C51.0647 21.8308 50.0777 20.7524 48.2735 20.7591ZM48.3474 23.5135C48.607 23.5135 48.8445 23.5493 49.0575 23.6177C50.0329 23.9308 50.5859 24.8679 50.4258 25.8835C50.2285 27.1342 49.2029 28.055 47.8875 28.055C47.6282 28.055 47.3907 28.0194 47.1775 27.951C46.2023 27.6379 45.6459 26.7009 45.8059 25.6852C46.0032 24.4346 47.0321 23.5135 48.3474 23.5135Z" fill="#003087"/>
<path d="M67.1137 17.0508C66.9403 17.0508 66.7929 17.1767 66.7658 17.3482L64.7578 30.0821C64.7505 30.1287 64.7534 30.1762 64.7662 30.2215C64.7791 30.2668 64.8016 30.3088 64.8322 30.3446C64.8628 30.3804 64.9008 30.4091 64.9435 30.4288C64.9863 30.4485 65.0328 30.4587 65.0799 30.4587H67.4612C67.6344 30.4587 67.782 30.3325 67.8091 30.1613L68.399 26.4219C68.4258 26.2506 68.5734 26.1245 68.7469 26.1245H70.9119C73.4415 26.1245 75.5886 24.2788 75.9806 21.7778C76.3763 19.2556 74.4062 17.0563 71.6135 17.0508H67.1137ZM69.4286 19.8935H71.1608C72.5869 19.8935 73.0513 20.735 72.9044 21.6655C72.7576 22.5981 72.0366 23.285 70.6568 23.285H68.8937L69.4286 19.8935ZM80.8241 20.7591C80.2228 20.7613 79.5309 20.8845 78.7541 21.2081C76.9724 21.9507 76.1167 23.4856 75.7534 24.6045C75.7534 24.6045 74.5973 28.0184 77.2103 29.894C77.2103 29.894 79.6332 31.6996 82.3614 29.7827L82.3144 30.0821C82.3071 30.1287 82.3099 30.1762 82.3228 30.2215C82.3356 30.2668 82.3581 30.3088 82.3887 30.3446C82.4193 30.3804 82.4573 30.4091 82.5 30.4288C82.5428 30.4485 82.5893 30.4587 82.6364 30.4587H84.8967C85.0702 30.4587 85.2176 30.3325 85.2447 30.1613L86.6202 21.441C86.6276 21.3945 86.6248 21.3469 86.612 21.3015C86.5992 21.2561 86.5767 21.2141 86.5461 21.1783C86.5155 21.1424 86.4775 21.1136 86.4347 21.0939C86.3919 21.0742 86.3453 21.064 86.2982 21.064H84.0376C83.8641 21.064 83.7165 21.1902 83.6897 21.3614L83.6157 21.8308C83.6157 21.8308 82.6282 20.7524 80.8241 20.7591ZM80.898 23.5135C81.1576 23.5135 81.395 23.5493 81.608 23.6177C82.5834 23.9308 83.1364 24.8679 82.9764 25.8835C82.779 27.1342 81.7534 28.055 80.438 28.055C80.1787 28.055 79.9413 28.0194 79.728 27.951C78.7529 27.6379 78.1964 26.7009 78.3564 25.6852C78.5538 24.4346 79.5826 23.5135 80.898 23.5135Z" fill="#0070E0"/>
<path d="M55.1397 21.0627C54.9605 21.0627 54.8331 21.2377 54.8878 21.4082L57.3662 29.0988L55.1253 32.723C55.0165 32.899 55.1429 33.1262 55.3498 33.1262H57.9983C58.0741 33.1262 58.1485 33.1066 58.2145 33.0693C58.2804 33.0321 58.3357 32.9785 58.3749 32.9137L65.2965 21.4634C65.4028 21.2875 65.2758 21.0625 65.0703 21.0625H62.4219C62.3455 21.0626 62.2703 21.0825 62.2039 21.1205C62.1375 21.1584 62.0821 21.2129 62.0431 21.2788L59.3186 25.8786L57.9356 21.3129C57.8906 21.1643 57.7534 21.0625 57.5984 21.0625L55.1397 21.0627Z" fill="#003087"/>
<path d="M89.1885 17.0508C89.0153 17.0508 88.8677 17.177 88.8406 17.3482L86.8321 30.0817C86.8248 30.1282 86.8276 30.1758 86.8404 30.2212C86.8532 30.2665 86.8756 30.3086 86.9063 30.3444C86.9369 30.3803 86.9749 30.409 87.0177 30.4288C87.0605 30.4485 87.1071 30.4587 87.1542 30.4587H89.5355C89.7087 30.4587 89.8563 30.3325 89.8834 30.1613L91.8914 17.4273C91.8987 17.3809 91.8958 17.3334 91.883 17.2881C91.8702 17.2428 91.8478 17.2009 91.8172 17.1651C91.7867 17.1293 91.7487 17.1006 91.706 17.0808C91.6633 17.0611 91.6169 17.0509 91.5698 17.0508H89.1885Z" fill="#0070E0"/>
<path d="M14.7088 17.0508C14.5554 17.0509 14.407 17.1057 14.2904 17.2054C14.1738 17.3051 14.0966 17.4431 14.0726 17.5946L13.0156 24.2984C13.0649 23.9853 13.3347 23.7546 13.6518 23.7546H16.7491C19.8663 23.7546 22.5114 21.4806 22.9947 18.399C23.0307 18.1689 23.0511 17.9367 23.0557 17.7038C22.2635 17.2885 21.3329 17.0508 20.3133 17.0508H14.7088Z" fill="#001C64"/>
<path d="M23.0569 17.7031C23.0523 17.9359 23.0319 18.1682 22.9959 18.3982C22.5126 21.4799 19.8672 23.7539 16.7503 23.7539H13.653C13.3361 23.7539 13.0661 23.9844 13.0168 24.2977L12.0449 30.458L11.4362 34.3226C11.4243 34.3973 11.4288 34.4736 11.4492 34.5464C11.4697 34.6192 11.5058 34.6866 11.5549 34.7441C11.604 34.8016 11.665 34.8478 11.7336 34.8794C11.8023 34.9111 11.877 34.9274 11.9526 34.9274H15.3145C15.4679 34.9273 15.6162 34.8724 15.7328 34.7728C15.8494 34.6731 15.9266 34.5351 15.9506 34.3836L16.8361 28.7671C16.8601 28.6155 16.9374 28.4774 17.0541 28.3778C17.1708 28.2781 17.3193 28.2233 17.4728 28.2233H19.4521C22.5693 28.2233 25.2144 25.9493 25.6978 22.8676C26.041 20.6805 24.9394 18.6902 23.0569 17.7031Z" fill="#0070E0"/>
<path d="M10.8901 12.582C10.5733 12.582 10.3033 12.8125 10.254 13.1253L7.61587 29.8541C7.56584 30.1716 7.81125 30.4588 8.1328 30.4588H12.0449L13.0163 24.2986L14.0733 17.5947C14.0973 17.4432 14.1745 17.3052 14.2911 17.2056C14.4077 17.1059 14.5561 17.0511 14.7095 17.0509H20.314C21.3339 17.0509 22.2642 17.2889 23.0564 17.704C23.1107 14.8984 20.7956 12.582 17.6126 12.582H10.8901Z" fill="#003087"/>
</g>
<defs>
<clipPath id="clip0_7232_41828">
<rect width="84.2875" height="22.3457" fill="white" transform="translate(7.60938 12.582)"/>
</clipPath>
</defs>
</svg>
