<svg width="100" height="48" viewBox="0 0 100 48" fill="none" xmlns="http://www.w3.org/2000/svg">
<path d="M13.8038 17.1725C15.3989 17.0652 17.0247 17.3873 18.451 18.1081C20.5676 19.1511 22.2547 21.0222 23.0369 23.2308C23.3897 24.2124 23.5737 25.24 23.5737 26.283V30.1327C23.5737 30.286 23.5737 30.4547 23.5431 30.6081C23.451 30.9916 23.175 31.3443 22.8069 31.513C22.5461 31.6357 22.2547 31.6511 21.994 31.6051C21.4112 31.4977 20.951 30.9455 20.951 30.3474C20.951 29.1511 20.951 27.9547 20.951 26.7584C20.9664 26.421 20.9664 26.0529 20.7823 25.7615C20.4909 25.2093 19.7547 24.9486 19.1872 25.1787C18.6964 25.3474 18.3437 25.8535 18.3283 26.375C18.3283 27.5866 18.3283 28.7983 18.3283 30.01C18.3283 30.24 18.3437 30.4701 18.267 30.6848C18.1443 31.1143 17.7915 31.4517 17.3621 31.5744C16.7946 31.7278 16.1504 31.4824 15.8744 30.9609C15.675 30.6541 15.6903 30.2707 15.7056 29.9179C15.7056 28.7063 15.7056 27.51 15.7056 26.2983C15.6903 25.6848 15.1842 25.1327 14.586 25.056C14.1872 24.9946 13.7731 25.1327 13.4817 25.4087C13.221 25.6541 13.0829 26.0069 13.0829 26.3597V29.8719C13.0829 30.1633 13.1136 30.4701 13.0063 30.7462C12.8375 31.2523 12.3314 31.6204 11.7946 31.6051C11.2425 31.6357 10.7056 31.2523 10.5369 30.7462C10.4449 30.4854 10.4602 30.2247 10.4602 29.9486C10.4602 28.737 10.4602 27.5253 10.4602 26.3136C10.4602 25.7155 9.98478 25.1633 9.40196 25.056C8.86515 24.9486 8.28233 25.2093 8.00626 25.7001C7.89889 25.8995 7.83754 26.1296 7.83754 26.3597V30.3014C7.83754 30.6848 7.66883 31.0682 7.37742 31.3136C6.93264 31.6971 6.21178 31.7277 5.75165 31.375C5.41423 31.1449 5.21484 30.7462 5.21484 30.332V26.3443C5.21484 24.8412 5.59828 23.3382 6.31914 22.0038C6.90196 20.9149 7.71484 19.9486 8.6811 19.1817C10.1075 17.9854 11.9326 17.2799 13.8038 17.1725Z" fill="#5741D9"/>
<path d="M49.6471 21.7824H47.6533C47.7299 20.3867 48.0214 19.129 49.2944 18.3314C50.5674 17.5492 51.9631 17.3652 53.4201 17.4879C54.2023 17.5492 54.9845 17.7179 55.7054 18.0554C56.9784 18.6382 57.6072 19.6351 57.6072 21.0308C57.6072 23.5002 57.6072 25.9695 57.6072 28.4388C57.6072 29.3437 57.7913 29.5124 58.6962 29.4204C58.7882 29.4051 58.8956 29.3897 58.9876 29.3744C59.003 29.4204 59.003 29.4664 59.003 29.4971V31.0002C58.2821 31.2456 57.5459 31.3222 56.825 31.1229C56.2882 30.9695 55.9508 30.586 55.7668 30.0799C55.6747 29.8192 55.6134 29.5431 55.5367 29.2517C55.46 29.3437 55.3987 29.4204 55.322 29.4971C53.7422 31.0922 51.871 31.767 49.6625 31.1995C48.098 30.8008 47.0244 29.3744 46.9784 27.7486C46.9631 27.2272 47.0091 26.7057 47.1318 26.1995C47.4232 25.0339 48.2514 24.3284 49.2944 23.8529C50.0306 23.5155 50.8281 23.4235 51.6257 23.3161C52.5612 23.1934 53.4815 23.086 54.4171 22.948C55.0459 22.856 55.368 22.5186 55.46 21.8897C55.6594 20.6167 55.0919 19.7732 53.8649 19.4664C53.1287 19.2824 52.3772 19.2517 51.6257 19.3897C50.5214 19.5891 49.9079 20.2179 49.6931 21.3069C49.7085 21.4603 49.6778 21.6137 49.6471 21.7824ZM55.5214 24.2364C54.6011 24.7271 53.7115 24.8499 52.8066 24.9879C52.0551 25.1106 51.2882 25.2179 50.552 25.448C49.5858 25.7701 49.141 26.5676 49.233 27.6413C49.3097 28.5308 49.9079 29.2517 50.8741 29.4051C52.3618 29.6505 53.6809 29.2364 54.7238 28.1321C55.0306 27.81 55.276 27.3498 55.3373 26.9204C55.4753 26.0615 55.46 25.1873 55.5214 24.2364ZM83.9416 26.813C83.8956 27.0278 83.8649 27.2118 83.8189 27.3805C82.96 30.0032 81.2115 31.1229 79.095 31.3683C75.4293 31.767 73.3281 29.3744 72.7913 26.8284C72.3619 24.8038 72.4232 22.7946 73.3128 20.8928C74.1563 19.0983 75.506 17.9173 77.5152 17.5646C79.9232 17.1351 83.3281 18.3314 83.8956 22.0891C84.049 23.0554 84.0796 24.0523 84.1717 25.0646H74.8465C74.9232 26.4449 75.1379 27.7333 76.1502 28.7302C76.5643 29.1443 77.1011 29.3437 77.6839 29.4511C79.5704 29.7885 81.1349 28.8836 81.7484 27.0584C81.8097 26.8591 81.9017 26.7977 82.1011 26.813C82.6993 26.813 83.2974 26.813 83.9416 26.813ZM74.9232 23.2854H81.9017C81.825 22.4725 81.687 21.721 81.3036 21.0155C80.9355 20.3406 80.3987 19.8499 79.6625 19.6045C77.2545 18.7762 74.7698 20.6934 74.9232 23.2854ZM88.9569 30.9235H86.8404V17.764H88.8496V19.6045C89.003 19.4357 89.095 19.3284 89.187 19.221C90.6287 17.5799 92.4385 17.1505 94.4938 17.6566C95.9201 18.0094 96.7177 19.0216 96.9938 20.4327C97.1011 21.0155 97.1778 21.6137 97.1778 22.1965C97.1931 25.0186 97.1931 27.8407 97.1931 30.6627C97.1931 30.7394 97.1778 30.8161 97.1778 30.9081H95.0152V30.5554C95.0152 27.9173 95.0306 25.2793 94.9999 22.6413C94.9999 22.0584 94.9079 21.4603 94.7392 20.8928C94.4631 19.9725 93.7269 19.4818 92.7606 19.4357C90.9968 19.3744 89.6011 20.31 89.1717 21.8744C89.0183 22.4419 88.9723 23.04 88.9723 23.6382C88.9569 25.9541 88.9569 28.2548 88.9569 30.54V30.9235ZM61.0582 17.764H63.098V23.3468C63.2207 23.2241 63.2974 23.1627 63.3741 23.086C65.0459 21.3836 66.7177 19.6658 68.3895 17.9633C68.5275 17.81 68.6655 17.7486 68.8803 17.7486C69.6625 17.764 70.46 17.7486 71.3189 17.7486C71.1962 17.8713 71.1349 17.948 71.0582 18.0247C69.5858 19.4971 68.1287 20.9848 66.641 22.4419C66.4723 22.6106 66.4723 22.7179 66.5796 22.902C68.1901 25.4633 69.7852 28.0247 71.3803 30.586C71.4416 30.6781 71.4876 30.7701 71.5643 30.9081C71.4569 30.9235 71.3803 30.9235 71.2882 30.9235C70.552 30.9235 69.8312 30.9235 69.095 30.9235C68.8956 30.9235 68.8036 30.8468 68.6962 30.6934C67.4692 28.6382 66.2422 26.583 65.0152 24.5124C64.9539 24.4204 64.9079 24.3284 64.8312 24.221C64.2637 24.7885 63.7115 25.3253 63.1594 25.8928C63.0827 25.9695 63.0674 26.1075 63.0674 26.2149C63.0674 27.6566 63.0674 29.0983 63.0674 30.54V30.9081C62.6686 30.9081 62.2698 30.9081 61.8864 30.9081C61.6103 30.9081 61.2269 30.9848 61.0735 30.8314C60.9355 30.7087 61.0122 30.31 61.0122 30.0339V18.1167C61.0582 18.04 61.0582 17.9173 61.0582 17.764ZM37.5152 17.7486C35.8588 19.3897 34.2483 21.0002 32.6226 22.6106C34.371 25.402 36.0735 28.1321 37.8066 30.9235C37.6686 30.9235 37.5766 30.9388 37.4845 30.9388C36.779 30.9388 36.0582 30.9388 35.3526 30.9388C35.1533 30.9388 35.0306 30.8621 34.9232 30.6934C33.6962 28.6382 32.4692 26.583 31.2422 24.5124C31.1962 24.4204 31.1349 24.3437 31.0582 24.221C30.7514 24.5431 30.4753 24.8959 30.1379 25.1413C29.4477 25.6627 29.2483 26.3069 29.2944 27.1658C29.371 28.2854 29.3097 29.4204 29.3097 30.54V30.9081H27.2852V17.764H29.3097V23.2548C29.3557 23.2854 29.4017 23.3161 29.4324 23.3468C29.4937 23.2548 29.5244 23.1474 29.5858 23.0707C31.2422 21.3683 32.914 19.6811 34.5704 17.9633C34.7238 17.81 34.8618 17.7333 35.0919 17.7486C35.7821 17.764 36.4723 17.7486 37.1625 17.7486C37.2698 17.7486 37.3618 17.7486 37.5152 17.7486ZM41.5643 19.9419C42.5919 18.4388 43.6809 17.1811 45.7054 17.5492V19.8038C45.1686 19.8345 44.6318 19.8192 44.1257 19.9265C42.8833 20.1873 41.9171 21.3222 41.7177 22.7026C41.687 22.9787 41.6563 23.2548 41.6563 23.5308C41.6563 25.8775 41.6563 28.2241 41.6563 30.5707V30.9388H39.5704V17.7946H41.5643C41.5643 18.4848 41.5643 19.175 41.5643 19.9419Z" fill="#5741D9"/>
</svg>
