<svg width="100" height="48" viewBox="0 0 100 48" fill="none" xmlns="http://www.w3.org/2000/svg">
<g clip-path="url(#clip0_7232_42023)">
<mask id="mask0_7232_42023" style="mask-type:luminance" maskUnits="userSpaceOnUse" x="-6" y="-32" width="112" height="112">
<path d="M-5.22656 -31.5976H105.773V79.4023H-5.22656V-31.5976Z" fill="white"/>
</mask>
<g mask="url(#mask0_7232_42023)">
<path d="M38.5645 16.1098C39.1128 16.1098 39.5044 16.2665 39.8177 16.6581L39.896 16.7365L40.836 18.068C41.2276 18.6164 41.2276 19.3996 40.9143 19.9479L40.836 20.0263L39.5044 21.9062L35.2746 16.0314L38.5645 16.1098ZM8.01615 18.8512H5.19609V23.9428H7.93779C10.0526 23.9428 11.0709 23.0026 11.0709 21.4362C11.0709 19.8696 10.0526 18.8512 8.01615 18.8512ZM24.7785 19.478L22.507 25.0395H27.1284L24.7785 19.478ZM44.9874 23.8645L49.9222 30.679H46.7108C46.2408 30.679 45.7706 30.5225 45.4573 30.1306L45.379 30.0525L43.5774 27.5459C43.1858 26.9192 43.1858 26.136 43.5774 25.5093L43.6558 25.3527L44.9874 23.8645ZM8.17266 16.1098C12.0108 16.1098 14.5174 18.068 14.5174 21.4362C14.5174 24.6477 12.0892 26.6843 8.17266 26.6843H5.19609V30.7573H1.82812V16.1098H8.17266ZM91.1232 16.1098V27.9375H98.7211V30.679H87.7552V16.1098H91.1232ZM65.4313 16.1098V18.8512H57.8334V22.6894H64.4914V25.4309H57.8334V30.7573H54.4652V16.1098H65.4313ZM26.5019 16.1098L33.0031 30.679H29.4782L28.1467 27.5459H21.4103L20.0787 30.679H16.6324L23.1337 16.1098H26.5019ZM73.3425 16.1098V24.1777C73.3425 26.9975 74.5176 28.094 76.5542 28.094C78.5906 28.094 79.7654 26.9192 79.7654 24.1777V16.1098H83.1336V24.2561C83.1336 28.5642 80.7056 30.9141 76.5542 30.9141C72.481 30.9141 69.9743 28.5642 69.9743 24.2561V16.1098H73.3425Z" fill="#333333"/>
<path d="M51.2548 14.7757L34.3358 32.948C34.1793 33.183 33.7874 32.8698 34.0225 32.6347L46.2419 15.4024C46.5551 15.0108 47.0251 14.7757 47.5734 14.7757H51.2548Z" fill="#00A5EF"/>
</g>
</g>
<defs>
<clipPath id="clip0_7232_42023">
<rect width="98" height="19" fill="white" transform="translate(1.77344 14.4023)"/>
</clipPath>
</defs>
</svg>
