<svg width="100" height="48" viewBox="0 0 100 48" fill="none" xmlns="http://www.w3.org/2000/svg">
<g clip-path="url(#clip0_7232_42035)">
<path d="M39.0587 17.8826V25.2188H31.6557V18.8299C31.6557 18.3048 31.2231 17.8789 30.6898 17.8789H28.1836V35.4411C28.1836 35.9662 28.6162 36.3921 29.1495 36.3921H31.6557V28.2003H39.0624V35.4374C39.0549 35.9625 39.4801 36.3958 40.0134 36.4031H40.0283H42.5345V18.8299C42.5345 18.3048 42.1019 17.8789 41.5686 17.8789H39.0587V17.8826ZM53.7601 22.4723V31.2736C53.7676 32.0741 53.3424 32.8195 52.6413 33.2307C50.6796 34.3469 48.6471 32.948 48.6471 31.1121V23.4233C48.6471 22.8983 48.2144 22.4723 47.6811 22.4723H45.1749V31.4278C45.1824 34.3139 47.5543 36.6491 50.4857 36.6638H51.9103C54.8454 36.6565 57.2248 34.3139 57.2322 31.4242V23.4233C57.2322 22.8983 56.7996 22.4723 56.2663 22.4723H53.7601Z" fill="#1B2143"/>
<path d="M91.6808 36.4048H94.187V23.9354C94.187 23.4103 93.7544 22.9844 93.2211 22.9844H90.7149V35.4465C90.7111 35.9715 91.14 36.4011 91.6733 36.4048H91.6808Z" fill="#2CA6E0"/>
<path d="M94.2392 20.487C94.6483 19.5146 94.1793 18.3999 93.1917 17.9971C92.204 17.5943 91.0717 18.056 90.6626 19.0284C90.2535 20.0008 90.7225 21.1156 91.7102 21.5184C92.6978 21.9211 93.8301 21.4594 94.2392 20.487Z" fill="#2CA6E0"/>
<path d="M66.1904 22.4648C62.5542 22.4648 59.5781 25.0241 59.5781 28.6041V30.5391C59.5781 34.1191 62.5542 36.6637 66.1904 36.6637C69.8266 36.6637 72.8027 34.1191 72.8027 30.5391V28.6041C72.8065 25.0241 69.8304 22.4648 66.1904 22.4648ZM69.3157 30.7705C69.3157 32.4631 67.9097 33.5904 66.1867 33.5904C64.4637 33.5904 63.0614 32.4631 63.0614 30.7705V28.3544C63.0614 26.6617 64.4674 25.5345 66.1867 25.5345C67.906 25.5345 69.3157 26.6617 69.3157 28.3544V30.7705Z" fill="#1B2143"/>
<path d="M81.7606 22.4662C80.6716 22.4588 79.5975 22.7011 78.6166 23.1675V18.8494C78.6166 18.3244 78.184 17.8984 77.6507 17.8984H75.1445V30.5404C75.1445 34.1204 78.1206 36.665 81.7568 36.665C85.393 36.665 88.3691 34.1204 88.3691 30.5404V28.6054C88.3729 25.0254 85.4042 22.4662 81.7606 22.4662ZM84.8896 30.7718C84.8896 32.4645 83.4836 33.5917 81.7606 33.5917C80.0413 33.5917 78.6353 32.4645 78.6353 30.7718V28.3557C78.6353 26.663 80.0413 25.5358 81.7606 25.5358C83.4798 25.5358 84.8896 26.663 84.8896 28.3557V30.7718Z" fill="#2CA6E0"/>
<path d="M17.6906 19.3998C17.6906 15.6692 15.8445 12.4564 14.4385 11.4136C14.4385 11.4136 14.3303 11.3549 14.3415 11.5054C14.2259 18.7132 10.4853 20.6666 8.43037 23.2956C3.68651 29.3687 8.09472 36.0257 12.5924 37.2557C15.0986 37.946 12.0106 36.0367 11.6116 32.0087C11.123 27.1473 17.6906 23.4314 17.6906 19.3998Z" fill="#1B2143"/>
<path d="M19.8451 21.8573C19.8152 21.8389 19.7742 21.8242 19.7481 21.872C19.6698 22.7789 18.7299 24.7176 17.5365 26.5021C13.4901 32.5459 15.7949 35.4613 17.0927 37.0292C17.8461 37.9361 17.0927 37.0292 18.9724 36.1002C21.2958 34.7122 22.8025 32.3109 23.0263 29.6452C23.3955 25.3492 20.7774 22.643 19.8451 21.8573Z" fill="#2CA6E0"/>
</g>
<defs>
<clipPath id="clip0_7232_42035">
<rect width="88" height="26" fill="white" transform="translate(6.38281 11.4023)"/>
</clipPath>
</defs>
</svg>
