<svg width="100" height="48" viewBox="0 0 100 48" fill="none" xmlns="http://www.w3.org/2000/svg">
<g clip-path="url(#clip0_7232_41873)">
<path d="M59.0489 16.8125H58.4801C58.279 16.8125 58.0864 16.8931 57.9442 17.0367C57.8026 17.1795 57.7228 17.374 57.7228 17.5769V24.697C57.7011 26.7922 56.0688 28.3132 53.8404 28.3132H53.8299C51.5581 28.3132 49.9581 26.742 49.9363 24.494V17.5769C49.9363 17.4765 49.9167 17.3775 49.8789 17.2842C49.8411 17.1915 49.785 17.1074 49.715 17.0367C49.6442 16.9652 49.5609 16.9094 49.4691 16.8705C49.3773 16.8323 49.2786 16.8125 49.1791 16.8125H48.6074C48.4071 16.8132 48.2144 16.8938 48.0729 17.0374C47.9314 17.1802 47.8516 17.3747 47.8516 17.5769V24.5874C47.8516 26.3566 48.4449 27.8416 49.5672 28.8853C50.5668 29.8088 51.9721 30.349 53.5315 30.4035H53.9952C55.5869 30.3766 57.0272 29.8484 58.0499 28.915C59.1967 27.8713 59.8027 26.3722 59.8027 24.5831V17.5769C59.8027 17.3747 59.7235 17.1809 59.582 17.0374C59.4405 16.8945 59.2492 16.8132 59.0489 16.8125Z" fill="#001F83"/>
<path d="M44.3882 28.1697H41.5678C39.3128 28.1697 37.7191 26.5921 37.6946 24.3519V17.5769C37.6946 17.3747 37.6147 17.1802 37.4725 17.0367C37.3303 16.8938 37.1383 16.8132 36.9373 16.8125H36.3706C36.1695 16.8125 35.9769 16.8931 35.8346 17.0367C35.6924 17.1795 35.6133 17.374 35.6133 17.5769V24.4502C35.6133 26.2399 36.2185 27.739 37.3653 28.7827C38.3888 29.7183 39.8291 30.2444 41.4221 30.2705H44.3882C44.5885 30.2705 44.7812 30.1899 44.9234 30.0464C45.0649 29.9035 45.1447 29.7091 45.1454 29.5061V28.9341C45.1454 28.7311 45.0656 28.5367 44.9234 28.3931C44.7812 28.2503 44.5892 28.1697 44.3882 28.1697Z" fill="#001F83"/>
<path d="M90.091 18.7222C88.781 17.4084 87.008 16.673 85.1614 16.6758C83.3147 16.6793 81.5445 17.4211 80.2387 18.7392C79.0156 20.0325 78.3403 21.7565 78.3564 23.5441V23.5788C78.3417 24.4818 78.5077 25.3784 78.8439 26.2149C79.1795 27.0515 79.6797 27.8116 80.313 28.4487C80.9469 29.0866 81.7007 29.5886 82.5308 29.9252C83.361 30.2618 84.25 30.4259 85.1438 30.4082H85.2216C86.112 30.411 86.9947 30.235 87.8171 29.8899C88.6395 29.5448 89.3856 29.0385 90.0126 28.4C90.6395 27.7607 91.1341 27.0027 91.4676 26.169C91.8017 25.3353 91.9677 24.4436 91.9565 23.5441V23.5088C91.9761 21.7289 91.3064 20.012 90.091 18.7222ZM89.8066 23.5441V23.5802C89.8066 26.3401 87.8192 28.4162 85.181 28.4162C84.5575 28.4219 83.9396 28.2981 83.3652 28.0528C82.7907 27.8081 82.2724 27.4467 81.8415 26.9921C80.9764 26.0565 80.5021 24.8198 80.5182 23.5399V23.5038C80.5182 20.7439 82.5077 18.6678 85.1438 18.6678H85.1859C85.8016 18.6685 86.4111 18.795 86.9771 19.0397C87.5432 19.2851 88.0539 19.6429 88.4791 20.0919C89.347 21.026 89.8234 22.2635 89.8066 23.5441Z" fill="#001F83"/>
<path d="M73.6027 18.1933C72.6044 17.2698 71.1978 16.7302 69.6384 16.6758H69.1746C67.583 16.7019 66.1441 17.2309 65.1213 18.1636C63.9724 19.2073 63.3672 20.7064 63.3672 22.4976V29.5052C63.3672 29.7074 63.447 29.9012 63.5886 30.0447C63.7301 30.1876 63.922 30.2689 64.1224 30.2696H64.6912C64.7907 30.2696 64.8894 30.2498 64.9812 30.2109C65.073 30.1727 65.1564 30.1161 65.2271 30.0454C65.2972 29.9747 65.3532 29.8906 65.391 29.7972C65.4289 29.7046 65.4485 29.6056 65.4485 29.5052V22.3851C65.4702 20.2899 67.1024 18.7689 69.3322 18.7689H69.3434C71.6139 18.7689 73.2069 20.3401 73.2349 22.5881V29.5052C73.2342 29.6056 73.2538 29.7053 73.2924 29.7979C73.3302 29.8913 73.3862 29.9754 73.457 30.0461C73.6006 30.1883 73.7925 30.2682 73.9936 30.2696H74.5638C74.7642 30.2689 74.9568 30.1883 75.0983 30.0447C75.2398 29.9019 75.3197 29.7074 75.3197 29.5052V22.4912C75.3183 20.722 74.7242 19.237 73.6027 18.1933Z" fill="#001F83"/>
<path d="M17.8741 16.6758C15.9 16.6758 13.97 17.2662 12.328 18.3736C10.6866 19.4802 9.40676 21.0543 8.65089 22.895C7.89501 24.7363 7.69746 26.7622 8.08205 28.7167C8.46735 30.6719 9.41797 32.4673 10.8141 33.8766C12.2096 35.286 13.9883 36.2455 15.9252 36.6344C17.8615 37.0234 19.8685 36.8239 21.6927 36.0617C23.5169 35.2987 25.0756 34.0075 26.1726 32.3507C27.2697 30.6932 27.8553 28.745 27.8553 26.7523C27.8553 24.0801 26.8038 21.5175 24.932 19.628C23.0602 17.7386 20.5214 16.6765 17.8741 16.6758ZM17.8741 33.9799C16.4576 33.9799 15.0727 33.5563 13.8951 32.7622C12.7168 31.9681 11.7991 30.8388 11.2569 29.5179C10.7147 28.197 10.5725 26.7431 10.8485 25.3409C11.1252 23.938 11.8068 22.6496 12.8086 21.6391C13.8103 20.6279 15.0867 19.9392 16.4758 19.6606C17.8657 19.3812 19.3053 19.5248 20.6139 20.0721C21.9232 20.6194 23.0413 21.5465 23.828 22.7352C24.6154 23.9245 25.035 25.3225 25.0343 26.7523C25.0343 28.6687 24.2798 30.5072 22.9369 31.862C21.5939 33.2176 19.7733 33.9792 17.8741 33.9799Z" fill="#ACD0F7"/>
<path d="M17.8741 14.5586C15.9 14.5586 13.97 15.149 12.328 16.2557C10.6859 17.3631 9.40676 18.9371 8.65089 20.7778C7.89501 22.6191 7.69746 24.6451 8.08205 26.6003C8.46735 28.5548 9.41797 30.3502 10.8141 31.7595C12.2103 33.1688 13.989 34.1283 15.9259 34.5173C17.8622 34.9062 19.8692 34.7061 21.6934 33.9438C23.5176 33.1808 25.0763 31.8889 26.1733 30.2321C27.2704 28.5746 27.8553 26.6264 27.8553 24.633C27.8553 21.9615 26.8038 19.3989 24.932 17.5094C23.0602 15.62 20.5214 14.5586 17.8741 14.5586ZM17.8741 31.862C16.4576 31.8627 15.0734 31.4384 13.8951 30.6443C12.7175 29.8502 11.7991 28.7216 11.2569 27.4007C10.7147 26.0798 10.5725 24.626 10.8485 23.2237C11.1245 21.8215 11.8068 20.5331 12.8086 19.5219C13.8096 18.5107 15.086 17.822 16.4751 17.5434C17.8643 17.2641 19.3046 17.4069 20.6132 17.9542C21.9218 18.5015 23.0406 19.4279 23.8273 20.6166C24.6147 21.8052 25.0343 23.2032 25.0343 24.633C25.0343 26.5501 24.2805 28.3886 22.9376 29.7441C21.5946 31.0997 19.7733 31.862 17.8741 31.862Z" fill="#6EAAF5"/>
<path d="M17.8741 12.3945C15.9 12.3945 13.97 12.985 12.328 14.0916C10.6866 15.199 9.40676 16.7724 8.65089 18.6137C7.89501 20.4551 7.69746 22.481 8.08205 24.4355C8.46735 26.39 9.41797 28.1861 10.8141 29.5954C12.2096 31.0047 13.9883 31.9643 15.9252 32.3532C17.8615 32.7421 19.8685 32.5427 21.6927 31.7797C23.5169 31.0174 25.0756 29.7255 26.1726 28.0687C27.2697 26.4119 27.8553 24.4638 27.8553 22.4704C27.8553 19.7989 26.8038 17.2362 24.932 15.3461C23.0602 13.4566 20.5214 12.3952 17.8741 12.3945ZM17.8741 29.6979C16.4576 29.6986 15.0727 29.2751 13.8951 28.4803C12.7168 27.6862 11.7991 26.5576 11.2569 25.2367C10.7147 23.915 10.5725 22.4619 10.8485 21.059C11.1252 19.6567 11.8068 18.3683 12.8086 17.3571C13.8103 16.346 15.0867 15.6579 16.4758 15.3786C17.8657 15.1 19.3053 15.2435 20.6139 15.7909C21.9232 16.3382 23.0413 17.2645 23.828 18.4539C24.6154 19.6426 25.035 21.0406 25.0343 22.4704C25.0343 24.3874 24.2798 26.2252 22.9369 27.5808C21.5939 28.9364 19.7733 29.6979 17.8741 29.6979Z" fill="#2F6DDA"/>
<path d="M17.8741 10.2773C15.9 10.2773 13.97 10.8678 12.328 11.9752C10.6859 13.0825 9.40676 14.6559 8.65089 16.4972C7.89501 18.3386 7.69746 20.3645 8.08205 22.319C8.46735 24.2742 9.41797 26.0696 10.8141 27.4789C12.2103 28.8882 13.989 29.8478 15.9259 30.236C17.8622 30.6249 19.8692 30.4255 21.6934 29.6625C23.5176 28.8995 25.0763 27.6083 26.1733 25.9508C27.2704 24.2933 27.8553 22.3452 27.8553 20.3525C27.8553 17.6803 26.8038 15.1176 24.932 13.2282C23.0602 11.3387 20.5214 10.2773 17.8741 10.2773ZM17.8741 27.5814C16.4576 27.5814 15.0734 27.1579 13.8951 26.3638C12.7175 25.5697 11.7991 24.4404 11.2569 23.1195C10.7147 21.7986 10.5725 20.3454 10.8485 18.9432C11.1245 17.5402 11.8068 16.2519 12.8086 15.2407C13.8096 14.2302 15.086 13.5414 16.4751 13.2621C17.8643 12.9828 19.3046 13.1264 20.6132 13.673C21.9218 14.2203 23.0406 15.1466 23.8273 16.336C24.6147 17.5247 25.0343 18.9227 25.0343 20.3525C25.0343 22.2695 24.2805 24.1073 22.9376 25.4636C21.5946 26.8192 19.7733 27.5807 17.8741 27.5814Z" fill="#001E87"/>
</g>
<defs>
<clipPath id="clip0_7232_41873">
<rect width="100" height="48" fill="white"/>
</clipPath>
</defs>
</svg>
