<svg width="100" height="48" viewBox="0 0 100 48" fill="none" xmlns="http://www.w3.org/2000/svg">
<g clip-path="url(#clip0_7232_42181)">
<g clip-path="url(#clip1_7232_42181)">
<mask id="mask0_7232_42181" style="mask-type:luminance" maskUnits="userSpaceOnUse" x="6" y="-20" width="87" height="87">
<path d="M6.76172 -19.375H92.7617V66.625H6.76172V-19.375Z" fill="white"/>
</mask>
<g mask="url(#mask0_7232_42181)">
<mask id="mask1_7232_42181" style="mask-type:luminance" maskUnits="userSpaceOnUse" x="10" y="11" width="80" height="25">
<path d="M10.2578 11.8512H89.2631V35.3984H10.2578V11.8512Z" fill="white"/>
</mask>
<g mask="url(#mask1_7232_42181)">
<mask id="mask2_7232_42181" style="mask-type:luminance" maskUnits="userSpaceOnUse" x="10" y="11" width="80" height="25">
<path d="M10.2578 11.8532H89.2631V35.3867H10.2578V11.8532Z" fill="white"/>
</mask>
<g mask="url(#mask2_7232_42181)">
<path d="M81.139 24.4132H84.3664C85.9443 24.4132 86.9484 23.5884 86.9484 22.3153V22.2795C86.9484 20.9347 85.9802 20.1996 84.3485 20.1996H81.139V24.4132ZM78.9336 29.7385V19.303C78.9336 18.6755 79.4177 18.1914 80.0452 18.1914H84.5278C86.1057 18.1914 87.3429 18.6576 88.1497 19.4465C88.8132 20.1278 89.1897 21.0602 89.1897 22.154V22.1898C89.1897 24.198 88.0242 25.4173 86.3388 25.9373L88.7414 28.9675C88.9566 29.2364 89.1 29.4695 89.1 29.8102C89.1 30.4198 88.5801 30.8322 88.0422 30.8322C87.5401 30.8322 87.2174 30.5991 86.9663 30.2585L83.9182 26.3676H81.139V29.7385C81.1397 29.8827 81.1121 30.0246 81.0576 30.1583C81.003 30.2913 80.9223 30.4124 80.8207 30.514C80.7191 30.6156 80.5973 30.6963 80.4651 30.7508C80.3314 30.8053 80.1894 30.833 80.0452 30.8322C79.4177 30.8322 78.9336 30.3481 78.9336 29.7385ZM67.8347 29.6309V19.1955C67.8347 18.5858 68.3188 18.1017 68.9464 18.1017C69.0906 18.101 69.2325 18.1286 69.3663 18.1832C69.4985 18.2377 69.6195 18.3184 69.7219 18.42C69.8235 18.5216 69.9042 18.6426 69.9587 18.7756C70.0133 18.9093 70.0409 19.0513 70.0401 19.1955V28.7344H75.724C76.2799 28.7344 76.7281 29.1826 76.7281 29.7385C76.7281 30.2943 76.2799 30.7426 75.724 30.7426H68.9464C68.7992 30.7448 68.6543 30.7179 68.5183 30.6626C68.3823 30.6073 68.2591 30.5259 68.1552 30.4221C68.0514 30.3182 67.9699 30.195 67.9147 30.059C67.8594 29.923 67.8325 29.7773 67.8347 29.6309ZM57.0586 25.758H61.4695L59.264 20.6837L57.0586 25.758ZM53.114 29.8102C53.114 29.6488 53.1677 29.4875 53.2574 29.3081L57.9193 18.9086C58.1703 18.3527 58.6186 18.0121 59.2461 18.0121H59.3537C59.9813 18.0121 60.4116 18.3527 60.6626 18.9086L65.3245 29.3081C65.4141 29.4695 65.45 29.6309 65.45 29.7743C65.45 30.366 65.0017 30.8322 64.41 30.8322C63.8901 30.8322 63.5315 30.5274 63.3342 30.0612L62.3122 27.7124H56.2159L55.158 30.1329C54.9787 30.5812 54.6022 30.8322 54.136 30.8322C53.5622 30.8322 53.114 30.384 53.114 29.8102ZM45.7267 30.9219C45.117 30.9219 44.7046 30.5812 44.4716 30.0254L40.0786 19.6975C40.0069 19.5361 39.9531 19.3748 39.9531 19.1775C39.9531 18.5858 40.4372 18.1017 41.0648 18.1017C41.6386 18.1017 42.0151 18.4245 42.1944 18.8907L45.8163 27.9454L49.492 18.8189C49.6355 18.4424 50.0299 18.1017 50.5499 18.1017C51.1596 18.1017 51.6437 18.5679 51.6437 19.1596C51.6437 19.321 51.5899 19.5003 51.5361 19.6258L47.1252 30.0254C46.8921 30.5812 46.4797 30.9219 45.8522 30.9219H45.7267Z" fill="#0B122E"/>
<path d="M20.6361 30.7739L10.5555 13.5377C10.4561 13.3673 10.4031 13.1738 10.4024 12.9766C10.4016 12.7801 10.4524 12.5859 10.551 12.4148C10.6489 12.2437 10.7901 12.1018 10.9612 12.0024C11.1315 11.9038 11.325 11.8515 11.5222 11.8515H25.6775L19.7769 21.8842C19.7014 22.0112 19.6529 22.1524 19.6327 22.2989C19.6133 22.4446 19.6223 22.5932 19.6596 22.7359C19.6977 22.8786 19.7635 23.0123 19.8531 23.1296C19.9435 23.2462 20.0556 23.3448 20.1833 23.418C20.4426 23.5682 20.7496 23.61 21.0395 23.5346C21.3294 23.4591 21.5774 23.2723 21.7298 23.0146L28.296 11.8515H36.4453C36.6426 11.8515 36.8368 11.9038 37.0072 12.0024C37.1775 12.101 37.3195 12.2437 37.4173 12.4148C37.5159 12.5859 37.5667 12.7794 37.566 12.9766C37.5652 13.1738 37.5122 13.3673 37.4128 13.5377L24.9513 34.8433C24.8527 35.0122 24.7107 35.1526 24.5411 35.2498C24.3715 35.3469 24.1795 35.3984 23.9838 35.3984C23.7881 35.3984 23.5961 35.3469 23.4257 35.2498C23.2561 35.1526 23.1149 35.0122 23.0163 34.8433L21.9412 33.0055L28.6875 21.5361C28.763 21.4083 28.8115 21.2679 28.8317 21.1214C28.8519 20.9758 28.8422 20.8271 28.8048 20.6844C28.7667 20.5417 28.701 20.408 28.6113 20.2907C28.5217 20.1741 28.4096 20.0755 28.2818 20.0023C28.0226 19.8521 27.7148 19.8103 27.4257 19.8857C27.1358 19.9612 26.8878 20.148 26.7353 20.4057L20.6361 30.7739Z" fill="#376FFF"/>
</g>
</g>
</g>
</g>
</g>
<defs>
<clipPath id="clip0_7232_42181">
<rect width="86" height="28" fill="white" transform="translate(6.76172 9.625)"/>
</clipPath>
<clipPath id="clip1_7232_42181">
<rect width="86" height="28" fill="white" transform="matrix(1 0 0 -1 6.76172 37.625)"/>
</clipPath>
</defs>
</svg>
