<svg width="100" height="48" viewBox="0 0 100 48" fill="none" xmlns="http://www.w3.org/2000/svg">
<g clip-path="url(#clip0_7232_41847)">
<path d="M6.04577 21.9863L9.93035 18.1032L13.8165 21.9894L16.0755 19.7288L9.93035 13.582L3.78516 19.7272L6.04577 21.9863Z" fill="#F3BA2F"/>
<path d="M-0.0703125 23.582L2.18947 21.3222L4.44925 23.582L2.18947 25.8418L-0.0703125 23.582Z" fill="#F3BA2F"/>
<path d="M6.04892 25.1813L9.93351 29.0658L13.8197 25.1797L16.0803 27.4371L16.0787 27.4387L9.93351 33.5855L3.78832 27.4419L3.78516 27.4387L6.04892 25.1813Z" fill="#F3BA2F"/>
<path d="M15.4102 23.5859L17.6699 21.3262L19.9297 23.5859L17.6699 25.8457L15.4102 23.5859Z" fill="#F3BA2F"/>
<path d="M12.2243 23.5828L9.93208 21.2891L8.23702 22.9841L8.04113 23.1784L7.63988 23.5797L7.63672 23.5828L7.63988 23.5876L9.93208 25.8782L12.2243 23.5844L12.2259 23.5828H12.2243Z" fill="#F3BA2F"/>
<path d="M23.457 18.4297H28.3732C29.5927 18.4297 30.5153 18.7456 31.1409 19.3775C31.3766 19.6109 31.5624 19.8898 31.687 20.1972C31.8117 20.5046 31.8726 20.8342 31.866 21.1658V21.1958C31.8702 21.4675 31.8324 21.7382 31.7538 21.9983C31.6838 22.2222 31.5822 22.435 31.4521 22.6302C31.3308 22.8143 31.184 22.9802 31.0161 23.1231C30.8521 23.2643 30.6724 23.3862 30.4806 23.4864C31.0337 23.6791 31.5311 24.0046 31.9292 24.4343C32.2809 24.8345 32.4568 25.3874 32.4568 26.093V26.123C32.4668 26.5637 32.3709 27.0004 32.1772 27.3963C31.9895 27.7611 31.7143 28.0737 31.3763 28.3062C30.9941 28.5624 30.5686 28.7471 30.1204 28.8512C29.5879 28.9775 29.042 29.0385 28.4948 29.0329H23.457V18.4297ZM27.8803 22.7171C28.3056 22.7377 28.7289 22.6461 29.1078 22.4517C29.2555 22.3654 29.3761 22.2395 29.456 22.0881C29.5358 21.9368 29.5717 21.7662 29.5596 21.5955V21.5655C29.5674 21.4082 29.5354 21.2515 29.4667 21.1099C29.3979 20.9682 29.2946 20.8462 29.1662 20.7551C28.904 20.5687 28.5254 20.4755 28.0304 20.4755H25.7303V22.7171H27.8803ZM28.5011 26.9903C28.9249 27.014 29.3467 26.9171 29.7175 26.7107C29.862 26.6179 29.979 26.488 30.0562 26.3346C30.1334 26.1813 30.1681 26.01 30.1567 25.8387V25.8087C30.1624 25.6458 30.1281 25.484 30.0567 25.3375C29.9854 25.191 29.8793 25.0642 29.7476 24.9682C29.4758 24.7576 29.0367 24.6523 28.4301 24.6523H25.7303V26.9903H28.5011Z" fill="#F3BA2F"/>
<path d="M35.3867 18.4297H37.72V29.0361H35.3867V18.4297Z" fill="#F3BA2F"/>
<path d="M41.25 18.4297H43.4016L48.3746 24.9572V18.4297H50.6779V29.0361H48.6922L43.5564 22.2937V29.0361H41.25V18.4297Z" fill="#F3BA2F"/>
<path d="M57.7418 18.3516H59.8903L64.4352 29.0338H61.9992L61.0292 26.6547H56.5444L55.5744 29.0338H53.1953L57.7418 18.3516ZM60.1967 24.5947L58.7844 21.154L57.3785 24.5947H60.1967Z" fill="#F3BA2F"/>
<path d="M66.957 18.4297H69.1086L74.0785 24.9572V18.4297H76.3818V29.0361H74.396L69.2603 22.2937V29.0361H66.957V18.4297Z" fill="#F3BA2F"/>
<path d="M84.7809 29.2202C84.0373 29.2265 83.3001 29.0825 82.6135 28.7968C81.9672 28.5299 81.3808 28.1364 80.8889 27.6393C80.397 27.1423 80.0096 26.5518 79.7494 25.9027C79.475 25.2238 79.336 24.4977 79.3403 23.7653V23.7353C79.3281 22.2918 79.8835 20.9012 80.8869 19.8634C81.3805 19.3564 81.9716 18.9545 82.6246 18.6817C83.3348 18.3875 84.0975 18.2408 84.8662 18.2504C85.3209 18.2471 85.7748 18.2878 86.2216 18.3721C86.6039 18.4444 86.9777 18.5561 87.3369 18.7054C87.6629 18.8426 87.9729 19.0153 88.2611 19.2204C88.5423 19.4204 88.8065 19.6434 89.051 19.8871L87.5676 21.5995C87.1885 21.2498 86.7633 20.9537 86.3038 20.7196C85.8524 20.5037 85.357 20.3956 84.8567 20.4036C84.4404 20.3992 84.0279 20.4834 83.6465 20.6506C83.2652 20.8179 82.9239 21.0643 82.6451 21.3736C82.3687 21.6821 82.1523 22.0394 82.0069 22.4273C81.8547 22.8372 81.7781 23.2712 81.781 23.7085V23.7385C81.7795 24.175 81.856 24.6084 82.0069 25.0181C82.1504 25.4073 82.3647 25.7667 82.6388 26.0781C82.9153 26.3912 83.2559 26.6413 83.6375 26.8113C84.019 26.9814 84.4327 27.0675 84.8504 27.0638C85.3824 27.0806 85.9103 26.9661 86.3875 26.7305C86.8419 26.4829 87.262 26.177 87.6371 25.8206L89.122 27.3213C88.8599 27.6059 88.5763 27.87 88.2737 28.1112C87.9765 28.3462 87.6538 28.547 87.3117 28.7099C86.9471 28.8815 86.563 29.0083 86.1679 29.0875C85.7113 29.179 85.2466 29.2235 84.7809 29.2202Z" fill="#F3BA2F"/>
<path d="M91.875 18.4297H99.8574V20.5055H94.1704V22.6571H99.1781V24.7329H94.1783V26.9603H99.9364V29.0361H91.8797L91.875 18.4297Z" fill="#F3BA2F"/>
</g>
<defs>
<clipPath id="clip0_7232_41847">
<rect width="100" height="48" fill="white"/>
</clipPath>
</defs>
</svg>
