<svg width="100" height="48" viewBox="0 0 100 48" fill="none" xmlns="http://www.w3.org/2000/svg">
<g clip-path="url(#clip0_7232_41973)">
<mask id="mask0_7232_41973" style="mask-type:luminance" maskUnits="userSpaceOnUse" x="2" y="11" width="97" height="27">
<path d="M98.5409 11.0938H2.16797V37.1852H98.5409V11.0938Z" fill="white"/>
</mask>
<g mask="url(#mask0_7232_41973)">
<path d="M45.957 17.2656H50.5579V19.8419C52.0652 17.5267 53.7995 17.2656 56.3396 17.2656V21.8181H55.1831C52.1402 21.8181 50.6836 23.2499 50.6836 26.0852V30.924H45.957V17.2656Z" fill="#B7B5FF"/>
<path d="M71.6877 30.924H66.9631V29.6218C65.9313 30.8188 64.5253 31.3389 62.791 31.3389C59.4987 31.3389 57.6367 29.387 57.6367 25.7979V17.2656H62.3623V24.7333C62.3623 26.4232 63.1914 27.4118 64.5984 27.4118C66.0053 27.4118 66.9621 26.4485 66.9621 24.8112V17.2656H71.6877V30.924Z" fill="#B7B5FF"/>
<path d="M72.8438 26.7076H77.2692C77.4709 27.6962 78.15 28.1121 79.782 28.1121C81.1149 28.1121 81.8944 27.8004 81.8944 27.2287C81.8944 26.7855 81.5173 26.4991 80.4378 26.2654L76.8678 25.4579C74.4797 24.9125 73.2725 23.5333 73.2725 21.3214C73.2725 18.4062 75.4082 16.8984 79.5569 16.8984C83.7047 16.8984 85.7401 18.3682 86.0938 21.5171H81.6956C81.6206 20.6853 80.7651 20.1769 79.3582 20.1769C78.2279 20.1769 77.5001 20.5402 77.5001 21.0876C77.5001 21.5551 77.9766 21.9194 78.9334 22.1551L82.6778 23.0658C85.1409 23.6629 86.3237 24.9125 86.3237 26.9413C86.3237 29.7523 83.885 31.4169 79.7392 31.4169C75.5933 31.4169 72.8515 29.6218 72.8515 26.7066H72.8467H72.8438V26.7076Z" fill="#B7B5FF"/>
<path d="M98.906 21.5142V17.2656H87.2422V21.5162H90.7225V30.924H95.4237V21.5142H98.906Z" fill="#B7B5FF"/>
<path d="M44.6394 21.5142V17.2656H32.9766V21.5162H36.4569V30.924H41.1591V21.5142H44.6394Z" fill="#B7B5FF"/>
<path d="M2.38281 14.8631L13.9833 11.0938V37.1852C5.69752 33.7061 2.38281 27.0381 2.38281 23.2697V14.8631Z" fill="#B7B5FF"/>
<path d="M25.5849 14.8631L13.9844 11.0938V37.1852C22.2702 33.7061 25.5849 27.0381 25.5849 23.2697V14.8631Z" fill="url(#paint0_linear_7232_41973)"/>
<path d="M25.5849 14.8631L13.9844 11.0938V37.1852C22.2702 33.7061 25.5849 27.0381 25.5849 23.2697V14.8631Z" fill="url(#paint1_linear_7232_41973)"/>
</g>
</g>
<defs>
<linearGradient id="paint0_linear_7232_41973" x1="13.4945" y1="40.4657" x2="22.9837" y2="6.13328" gradientUnits="userSpaceOnUse">
<stop offset="0.26" stop-color="#48FF91"/>
<stop offset="0.66" stop-color="#0094FF"/>
<stop offset="0.8" stop-color="#0038FF"/>
<stop offset="0.89" stop-color="#0500FF"/>
</linearGradient>
<linearGradient id="paint1_linear_7232_41973" x1="22.3914" y1="9.61984" x2="13.6348" y2="37.1841" gradientUnits="userSpaceOnUse">
<stop offset="0.02" stop-color="#0000FF"/>
<stop offset="0.08" stop-color="#0094FF"/>
<stop offset="0.16" stop-color="#48FF91"/>
<stop offset="0.42" stop-color="#0094FF"/>
<stop offset="0.68" stop-color="#0038FF"/>
<stop offset="0.9" stop-color="#0500FF"/>
</linearGradient>
<clipPath id="clip0_7232_41973">
<rect width="100" height="48" fill="white"/>
</clipPath>
</defs>
</svg>
