<svg width="100" height="48" viewBox="0 0 100 48" fill="none" xmlns="http://www.w3.org/2000/svg">
<path d="M11.1784 15.0234L3.60156 19.4022V28.1597L11.1784 32.5385L18.7552 28.1597V19.4022L11.1784 15.0234ZM11.1784 15.0234L3.60156 19.4022V28.1597L11.1784 32.5385L18.7552 28.1597V19.4022L11.1784 15.0234Z" fill="white"/>
<path d="M14.1697 29.1176H13.0916L11.8009 27.9317V27.3235L13.1371 26.0464V24.0242L14.8833 22.8839L16.8724 24.3891L14.1697 29.1176ZM9.70555 25.9247L9.90294 24.0242L9.25003 22.3214H13.1068L12.469 24.0242L12.6513 25.9247H11.1632H9.70555ZM10.5862 27.9317L9.29558 29.1328H8.20233L5.48438 24.3891L7.48868 22.8991L9.25003 24.0242V26.0464L10.5862 27.3235V27.9317ZM8.18715 18.8093H14.1545L14.8681 21.8501H7.48868L8.18715 18.8093ZM11.1784 15.0234L3.60156 19.4022V28.1597L11.1784 32.5385L18.7552 28.1597V19.4022L11.1784 15.0234Z" fill="#03316C"/>
<path d="M27.2584 27.8364C25.2541 27.8364 23.7812 26.2703 23.7812 24.3394C23.7812 22.4085 25.2693 20.7969 27.2736 20.7969C28.549 20.7969 29.3386 21.2682 29.9612 21.9524L29.0046 22.9863C28.5339 22.4845 28.0328 22.15 27.2584 22.15C26.1348 22.15 25.3148 23.1231 25.3148 24.309C25.3148 25.5253 26.15 26.4984 27.3343 26.4984C28.0632 26.4984 28.5946 26.1487 29.0805 25.6622L30.0067 26.5896C29.3386 27.3042 28.5642 27.8364 27.2584 27.8364Z" fill="#002E73"/>
<path d="M32.9394 27.8405H31.3906V20.8162H32.9394V22.4582C33.3646 21.4548 34.1389 20.7554 35.3233 20.8162V22.4582H35.2322C33.8808 22.4582 32.9394 23.3401 32.9394 25.1341V27.8405Z" fill="#002E73"/>
<path d="M43.413 20.7812L39.9966 29.7212H38.4326L39.1766 27.8359L36.2461 20.7812H37.9012L39.8903 25.9962L41.8035 20.7812H43.413Z" fill="#002E73"/>
<path d="M47.9693 22.1344C46.9216 22.1344 46.0106 22.9858 46.0106 24.3086C46.0106 25.6313 46.9368 26.4828 47.9693 26.4828C49.0322 26.4828 49.8977 25.6465 49.8977 24.3086C49.8977 22.9706 49.017 22.1344 47.9693 22.1344ZM48.3186 27.8207C47.2101 27.8207 46.5117 27.2582 46.041 26.6348V29.7212H44.4922V20.7812H46.041V22.0432C46.542 21.3438 47.2405 20.7812 48.3186 20.7812C49.9129 20.7812 51.4617 22.0432 51.4617 24.2934C51.4617 26.5436 49.9281 27.8207 48.3186 27.8207Z" fill="#002E73"/>
<path d="M54.8483 22.2597V25.5742C54.8483 26.1671 55.152 26.4104 55.6834 26.4104H56.2908V27.794H55.2279C54.1043 27.794 53.2995 27.2922 53.2995 25.8174V22.2597H52.4492V20.9369H53.2995V19.082H54.8483V20.9369H56.2908V22.2597H54.8483Z" fill="#002E73"/>
<path d="M61.1659 22.1348C59.9208 22.1348 59.1312 23.1079 59.1312 24.2938C59.1312 25.4949 59.9816 26.4832 61.1811 26.4832C62.4262 26.4832 63.2158 25.5101 63.2158 24.3242C63.2461 23.1231 62.3806 22.1348 61.1659 22.1348ZM61.1659 27.8364C59.1161 27.8364 57.5977 26.2703 57.5977 24.3394C57.5977 22.3933 59.1312 20.7969 61.1963 20.7969C63.2613 20.7969 64.7797 22.3629 64.7797 24.309C64.7797 26.2247 63.2613 27.8364 61.1659 27.8364Z" fill="#002E73"/>
<path d="M79.5526 22.1348C78.3075 22.1348 77.518 23.1079 77.518 24.2938C77.518 25.4949 78.3683 26.4832 79.5678 26.4832C80.8129 26.4832 81.6025 25.5101 81.6025 24.3242C81.6177 23.1231 80.7674 22.1348 79.5526 22.1348ZM79.5526 27.8364C77.5028 27.8364 75.9844 26.2703 75.9844 24.3394C75.9844 22.3933 77.518 20.7969 79.583 20.7969C81.648 20.7969 83.1664 22.3629 83.1664 24.309C83.1664 26.2247 81.6328 27.8364 79.5526 27.8364Z" fill="#002E73"/>
<path d="M92.3371 20.7812C93.81 20.7812 94.7058 21.7087 94.7058 23.3659V27.8207H93.1571V23.8373C93.1571 22.7578 92.656 22.1952 91.7905 22.1952C90.9554 22.1952 90.348 22.7882 90.348 23.8677V27.8359H88.7992V23.8373C88.7992 22.7882 88.283 22.1952 87.4327 22.1952C86.5824 22.1952 85.9902 22.8338 85.9902 23.8829V27.8359H84.4414V20.7965H85.9902V21.952C86.4305 21.359 87.0075 20.7965 88.04 20.7965C89.0118 20.7965 89.6799 21.2678 90.0443 21.9824C90.6061 21.2526 91.3198 20.7812 92.3371 20.7812Z" fill="#002E73"/>
<path d="M67.6195 26.4092V27.1999L67.574 27.2759L66.8907 27.656H66.7996L66.1315 27.2759L66.0859 27.1999V26.4092L66.1315 26.3332L66.7996 25.9531H66.8907L67.574 26.3332L67.6195 26.4092Z" fill="#002E73"/>
<path d="M72.3114 27.8217C70.3071 27.7761 68.8646 26.1797 68.895 24.2487C68.9254 22.3178 70.4438 20.7366 72.4633 20.7822C73.7387 20.8126 74.5283 21.2992 75.1356 21.9985L74.1639 23.0172C73.7083 22.5155 73.2073 22.1506 72.4329 22.1354C71.3093 22.1202 70.4741 23.0628 70.459 24.2639C70.4286 25.4803 71.2485 26.4685 72.4329 26.4837C73.1617 26.4989 73.7083 26.1644 74.1942 25.6779L75.1053 26.6206C74.422 27.3352 73.6324 27.8521 72.3114 27.8217Z" fill="#002E73"/>
</svg>
