<svg width="100" height="48" viewBox="0 0 100 48" fill="none" xmlns="http://www.w3.org/2000/svg">
<path d="M1.90954 22.6211L1.42454 23.1002C1.29034 23.2277 1.18359 23.3804 1.11051 23.5497C1.03765 23.7188 1 23.9008 1 24.0845C1 24.2685 1.03765 24.4505 1.11051 24.6196C1.18359 24.7887 1.29034 24.9416 1.42454 25.0689L5.33178 28.9664C5.42435 29.06 5.5322 29.1377 5.65068 29.1961V24.4717L1.90954 22.6211Z" fill="#3D89F5"/>
<path d="M10.7194 22.6211L11.2044 23.1002C11.3386 23.2277 11.4454 23.3804 11.5184 23.5497C11.5913 23.7188 11.629 23.9008 11.629 24.0845C11.629 24.2685 11.5913 24.4505 11.5184 24.6196C11.4454 24.7887 11.3386 24.9416 11.2044 25.0689L7.29718 28.9664C7.2046 29.06 7.09675 29.1377 6.97827 29.1961V24.4717L10.7194 22.6211Z" fill="#1656B9"/>
<path d="M9.78419 21.6425L7.33926 19.221C7.2097 19.0893 7.0549 18.9845 6.88371 18.913C6.71252 18.8414 6.52849 18.8047 6.34268 18.8047C6.15688 18.8047 5.97284 18.8414 5.80165 18.913C5.63046 18.9845 5.47544 19.0893 5.34611 19.221L2.89453 21.6425L6.32939 23.3357L9.78419 21.6425Z" fill="#85B5F8"/>
<path d="M15.8733 27.9363H19.3139C21.1226 27.9363 22.0859 27.0042 22.0859 25.7379C22.0859 24.561 21.2326 23.8503 20.3164 23.8076V23.73C21.154 23.5434 21.7714 22.9569 21.7714 22.0209C21.7714 20.8285 20.875 19.9817 19.0975 19.9817H15.873L15.8733 27.9363ZM17.5759 26.5615V24.4483H19.0032C19.821 24.4483 20.3284 24.9145 20.3284 25.571C20.3284 26.169 19.9154 26.5615 18.964 26.5615H17.5759ZM17.5759 23.3104V21.3412H18.8694C19.6244 21.3412 20.0531 21.7258 20.0531 22.3007C20.0531 22.9298 19.534 23.3104 18.838 23.3104H17.5759ZM24.5607 19.9817H22.8856V27.9363H24.5607V19.9817ZM28.3548 28.0529C30.1872 28.0529 31.3275 26.8139 31.3275 24.9766C31.3275 23.1278 30.1872 21.8927 28.3548 21.8927C26.5222 21.8927 25.3819 23.128 25.3819 24.9766C25.3819 26.8139 26.5222 28.0529 28.3548 28.0529ZM28.3626 26.771C27.5173 26.771 27.0847 26.0058 27.0847 24.965C27.0847 23.924 27.5173 23.1551 28.3626 23.1551C29.1924 23.1551 29.6249 23.924 29.6249 24.965C29.6249 26.0058 29.1924 26.771 28.3626 26.771ZM34.8689 28.0529C36.4771 28.0529 37.4877 27.1206 37.5663 25.7497H35.9855C35.8872 26.3867 35.4626 26.7439 34.8884 26.7439C34.1059 26.7439 33.5988 26.0953 33.5988 24.9534C33.5988 23.8269 34.1099 23.1822 34.8884 23.1822C35.5018 23.1822 35.8951 23.5823 35.9855 24.1764H37.5663C37.4954 22.7977 36.4377 21.8927 34.8609 21.8927C33.0285 21.8927 31.896 23.1472 31.896 24.9766C31.896 26.7905 33.0088 28.0529 34.8689 28.0529ZM38.362 27.9363H40.0371V26.0408L40.4893 25.532L42.1368 27.9363H44.0989L41.7437 24.5533L43.9851 21.9703H42.0622L40.1275 24.2348H40.0371V19.9817H38.362V27.9363ZM47.0103 28.0529C48.6185 28.0529 49.629 27.1206 49.7077 25.7497H48.1269C48.0288 26.3867 47.604 26.7439 47.03 26.7439C46.2473 26.7439 45.7402 26.0953 45.7402 24.9534C45.7402 23.8269 46.2513 23.1822 47.03 23.1822C47.6434 23.1822 48.0365 23.5823 48.1269 24.1764H49.7077C49.637 22.7977 48.5791 21.8927 47.0023 21.8927C45.1699 21.8927 44.0376 23.1472 44.0376 24.9766C44.0376 26.7905 45.1502 28.0529 47.0103 28.0529ZM52.1785 24.4873C52.1825 23.7182 52.6582 23.2678 53.3425 23.2678C54.0226 23.2678 54.4239 23.6989 54.4199 24.4328V27.9363H56.0951V24.1377C56.0988 22.7395 55.2652 21.8927 54.0069 21.8927C53.0907 21.8927 52.4773 22.3199 52.2022 23.023H52.1313V19.9817H50.5034V27.9363H52.1785V24.4873ZM58.8587 28.049C59.7514 28.049 60.3294 27.6644 60.6244 27.109H60.6716V27.9363H62.2601V23.9124C62.2601 22.491 61.0412 21.8927 59.6962 21.8927C58.2492 21.8927 57.2976 22.5763 57.0657 23.6639L58.6148 23.7882C58.7289 23.392 59.0868 23.1006 59.6885 23.1006C60.2585 23.1006 60.585 23.3841 60.585 23.8737V23.8969C60.585 24.2814 60.1722 24.332 59.1222 24.4328C57.9268 24.5418 56.8533 24.9379 56.8533 26.2701C56.8533 27.4509 57.7066 28.049 58.8587 28.049ZM59.3383 26.9071C58.8232 26.9071 58.4536 26.6702 58.4536 26.2156C58.4536 25.7497 58.8429 25.5204 59.4329 25.4388C59.7985 25.3883 60.3963 25.303 60.5967 25.1709V25.8039C60.5967 26.4293 60.0738 26.9071 59.3383 26.9071ZM63.2828 27.9363H64.9579V21.9703H63.2828V27.9363ZM64.1243 21.2014C64.6237 21.2014 65.0326 20.8245 65.0326 20.3623C65.0326 19.904 64.6237 19.5273 64.1243 19.5273C63.6289 19.5273 63.2199 19.904 63.2199 20.3623C63.2199 20.8245 63.6289 21.2014 64.1243 21.2014ZM67.6981 24.4873C67.7021 23.7182 68.166 23.2678 68.8424 23.2678C69.5147 23.2678 69.9198 23.7026 69.9158 24.4328V27.9363H71.5909V24.1377C71.5909 22.7471 70.7653 21.8927 69.507 21.8927C68.6105 21.8927 67.9616 22.3278 67.6903 23.023H67.6194V21.9703H66.0229V27.9363H67.6981V24.4873Z" fill="black"/>
<path d="M73.6143 28.0392C74.1177 28.0392 74.5542 27.6236 74.558 27.1069C74.5542 26.5981 74.1177 26.1825 73.6143 26.1825C73.0952 26.1825 72.6667 26.5981 72.6707 27.1069C72.6667 27.6236 73.0952 28.0392 73.6143 28.0392ZM78.3855 28.0547C79.9937 28.0547 81.0043 27.1224 81.0829 25.7515H79.5021C79.404 26.3885 78.9792 26.7457 78.4052 26.7457C77.6226 26.7457 77.1154 26.0972 77.1154 24.9553C77.1154 23.8287 77.6265 23.1841 78.4052 23.1841C79.0184 23.1841 79.4117 23.5842 79.5021 24.1783H81.0829C81.0122 22.7995 79.9543 21.8945 78.3775 21.8945C76.5451 21.8945 75.4128 23.1491 75.4128 24.9785C75.4128 26.7923 76.5254 28.0547 78.3855 28.0547ZM84.6077 28.0547C86.44 28.0547 87.5803 26.8158 87.5803 24.9785C87.5803 23.1296 86.44 21.8945 84.6077 21.8945C82.7751 21.8945 81.6348 23.1298 81.6348 24.9785C81.6348 26.8158 82.7751 28.0547 84.6077 28.0547ZM84.6154 26.7729C83.7701 26.7729 83.3374 26.0077 83.3374 24.9669C83.3374 23.9258 83.7701 23.1569 84.6154 23.1569C85.445 23.1569 85.8777 23.9258 85.8777 24.9669C85.8777 26.0077 85.445 26.7729 84.6154 26.7729ZM88.3927 27.9382H90.0678V24.357C90.0678 23.6968 90.4925 23.2578 91.0509 23.2578C91.6014 23.2578 91.971 23.6308 91.971 24.2172V27.9382H93.595V24.2949C93.595 23.6773 93.9529 23.2578 94.5623 23.2578C95.0972 23.2578 95.4982 23.5881 95.4982 24.2522V27.9382H97.1694V23.9258C97.1694 22.6326 96.3907 21.8945 95.2661 21.8945C94.3814 21.8945 93.6933 22.3412 93.4455 23.0248H93.3826C93.19 22.3336 92.5725 21.8945 91.7429 21.8945C90.929 21.8945 90.3116 22.3217 90.06 23.0248H89.9892V21.9722H88.3927V27.9382Z" fill="#B1B8C7"/>
</svg>
