<svg width="100" height="48" viewBox="0 0 100 48" fill="none" xmlns="http://www.w3.org/2000/svg">
<g clip-path="url(#clip0_7232_41903)">
<path d="M9.48361 16.3003C9.89414 16.1788 10.3126 16.0858 10.7359 16.022C11.2398 15.948 11.7486 15.9132 12.2579 15.9177C13.2208 15.9017 14.1758 16.093 15.0583 16.4786C15.8536 16.8287 16.5629 17.3481 17.1368 18.0006C17.7118 18.6799 18.147 19.466 18.4174 20.3139C18.7135 21.2265 18.8604 22.181 18.8523 23.1404C18.8781 24.3282 18.6728 25.5096 18.2478 26.6191C17.8813 27.5513 17.3003 28.3841 16.5519 29.0499C15.8018 29.7017 14.9234 30.189 13.9733 30.4805C12.9168 30.8039 11.8169 30.963 10.712 30.9523C9.53359 30.9642 8.35715 30.8505 7.20287 30.6131C6.22402 30.4044 5.26187 30.1239 4.32422 29.7739V10.9648H9.48361V16.3003ZM9.48361 26.9735C9.92497 27.0977 10.3819 27.1577 10.8403 27.1518C11.6603 27.1786 12.4495 26.8382 12.9928 26.2234C13.5436 25.603 13.8183 24.6544 13.8168 23.3774C13.8168 22.1381 13.5465 21.2242 13.0058 20.6357C12.486 20.0545 11.7372 19.731 10.9577 19.7508C10.7 19.7487 10.4428 19.7735 10.1902 19.8247C9.95106 19.8743 9.71509 19.9382 9.48361 20.0161V26.9735Z" fill="black"/>
<path d="M24.4931 24.4242C24.5322 25.2939 24.8127 25.9672 25.3345 26.444C25.8777 26.9358 26.5917 27.1956 27.3239 27.168C27.8992 27.1832 28.47 27.0617 28.9893 26.8137C29.4888 26.5458 29.926 26.1753 30.2721 25.7266L33.4269 28.203C33.1056 28.6042 32.741 28.9687 32.3398 29.2901C31.413 30.0294 30.3195 30.531 29.1546 30.7511C28.4014 30.8936 27.636 30.962 26.8695 30.9555C25.8915 30.9632 24.9194 30.8036 23.9952 30.4837C22.2004 29.8775 20.7619 28.5145 20.0599 26.755C19.6471 25.7182 19.4467 24.6092 19.4707 23.4936C19.4513 22.4015 19.6418 21.3157 20.0316 20.2954C20.3702 19.4077 20.8883 18.5994 21.5536 17.9212C22.2151 17.2597 23.0147 16.7526 23.8952 16.4362C24.8252 16.0951 25.8093 15.9249 26.7999 15.9339C28.9422 15.9339 30.6467 16.6268 31.9136 18.0125C33.1805 19.3982 33.824 21.5353 33.8443 24.4242H24.4931ZM29.0045 21.6825C28.9849 21.0177 28.7404 20.3793 28.311 19.8714C27.9466 19.4453 27.4127 19.2018 26.8521 19.2061C26.2621 19.208 25.7002 19.4582 25.3041 19.8953C24.845 20.3874 24.5687 21.0221 24.5213 21.6934L29.0045 21.6825Z" fill="black"/>
<path d="M33.7227 19.846V16.2498H35.7577V12.6211H40.9171V16.2498H43.1043L44.3784 19.846H40.9171V25.6228C40.9018 26.0127 40.9563 26.4022 41.078 26.773C41.1867 27.0491 41.428 27.1861 41.802 27.1861C42.1525 27.1856 42.4982 27.1053 42.813 26.9513C43.1201 26.8043 43.4115 26.6266 43.6827 26.4208L45.009 29.5451C44.3639 29.9956 43.6533 30.3439 42.9021 30.5778C42.0449 30.8267 41.1552 30.9455 40.2627 30.9301C39.5355 30.9494 38.8109 30.8344 38.1254 30.5909C37.5869 30.3924 37.1059 30.0637 36.7252 29.6342C36.36 29.1986 36.1023 28.6832 35.973 28.1297C35.8211 27.4828 35.7481 26.8199 35.7555 26.1555V19.8503L33.7227 19.846Z" fill="black"/>
<path d="M49.0037 30.6431L42.6289 12.6211H47.6165L51.3127 23.8922L53.5238 16.2564H56.8765L59.0876 23.8922L61.2097 16.2564H66.4865L61.3858 30.6431H57.4352L55.1654 23.0942L52.9259 30.6431H49.0037Z" fill="black"/>
<path d="M74.5777 30.6382L74.1646 29.5163C73.6998 29.9339 73.1596 30.2593 72.5731 30.4751C71.829 30.7537 71.0389 30.8887 70.2446 30.873C69.6129 30.8789 68.9847 30.7797 68.3856 30.5795C67.8356 30.3944 67.3294 30.0984 66.8984 29.7098C66.4758 29.328 66.1387 28.8612 65.9092 28.34C65.6649 27.762 65.5448 27.139 65.557 26.5115C65.5145 25.265 66.0664 24.0725 67.0441 23.298C67.5297 22.9119 68.0725 22.6038 68.653 22.3849C69.2795 22.1433 69.9317 21.9748 70.5968 21.8826C71.2273 21.7848 71.81 21.7109 72.3514 21.6652C72.8927 21.6196 73.3885 21.5804 73.8407 21.5609V21.2043C73.8407 20.6129 73.6537 20.1824 73.2797 19.8998C72.8947 19.6208 72.4288 19.4756 71.9535 19.4867C71.4014 19.4835 70.8545 19.5938 70.3467 19.8106C69.8274 20.0437 69.3407 20.3434 68.8987 20.7021L66.5875 18.1474C67.37 17.4623 68.2624 16.914 69.227 16.5254C70.3435 16.1081 71.5295 15.9081 72.721 15.9362C74.6053 15.9362 76.1084 16.3935 77.2303 17.3081C78.3522 18.2227 78.9124 19.6426 78.9109 21.5674V30.6382H74.5777ZM73.8407 24.1156C73.545 24.1351 73.2515 24.159 72.9558 24.1895C72.6601 24.2199 72.3557 24.2634 72.0426 24.3221C71.4338 24.4199 70.999 24.6308 70.7381 24.9548C70.4874 25.2613 70.352 25.6459 70.3554 26.0419C70.3446 26.4283 70.5035 26.8001 70.7903 27.0594C71.1216 27.3416 71.5495 27.4842 71.9839 27.4573C72.3303 27.4618 72.6746 27.4021 72.9993 27.2812C73.3007 27.1647 73.5841 27.0058 73.8407 26.8094V24.1156Z" fill="black"/>
<path d="M80.2356 32.2087C80.5453 32.3794 80.8717 32.5178 81.2096 32.6218C81.5422 32.7325 81.8897 32.7919 82.2402 32.7979C82.5544 32.8089 82.8657 32.7337 83.1403 32.5805C83.4023 32.399 83.6026 32.1419 83.7143 31.8434L84.5405 29.9867L78.4375 16.2305H84.0382L86.9495 24.6316L89.839 16.2305H95.1441L87.9518 33.2697C87.4416 34.467 86.7488 35.312 85.8733 35.8048C84.9276 36.3134 83.8659 36.5674 82.7924 36.5419C82.0977 36.548 81.4047 36.4692 80.7291 36.3071C80.1129 36.1531 79.5113 35.9457 78.931 35.6874L80.2356 32.2087Z" fill="black"/>
</g>
<defs>
<clipPath id="clip0_7232_41903">
<rect width="90.8817" height="25.6556" fill="white" transform="translate(4.32422 10.9609)"/>
</clipPath>
</defs>
</svg>
