<svg width="1440" height="818" viewBox="0 0 1440 818" fill="none" xmlns="http://www.w3.org/2000/svg">
<g clip-path="url(#clip0_9011_2679)">
<rect width="1440" height="818" fill="#464E41"/>
<g opacity="0.2">
<path opacity="0.1" d="M49.0363 795.004L49.25 728.605L-17.7851 728.352L-17.9988 794.751L49.0363 795.004Z" fill="white"/>
<path opacity="0.05" d="M120.857 866.145L121.07 799.746L54.0352 799.492L53.8215 865.891L120.857 866.145Z" fill="white"/>
<path opacity="0.2" d="M120.857 795.004L121.07 728.605L54.0352 728.352L53.8215 794.751L120.857 795.004Z" fill="white"/>
<path opacity="0.05" d="M192.693 795.004L192.906 728.605L125.871 728.352L125.657 794.751L192.693 795.004Z" fill="white"/>
<path opacity="0.5" d="M263.485 865.129L263.699 798.73L196.664 798.477L196.45 864.876L263.485 865.129Z" fill="white"/>
<path opacity="0.1" d="M336.333 795.004L336.547 728.605L269.512 728.352L269.298 794.751L336.333 795.004Z" fill="white"/>
<path opacity="0.2" d="M408.157 795.004L408.371 728.605L341.336 728.352L341.122 794.751L408.157 795.004Z" fill="white"/>
<path opacity="0.05" d="M408.157 866.145L408.371 799.746L341.336 799.492L341.122 865.891L408.157 866.145Z" fill="white"/>
<path opacity="0.05" d="M479.982 795.004L480.195 728.605L413.16 728.352L412.947 794.751L479.982 795.004Z" fill="white"/>
<path opacity="0.2" d="M479.982 866.145L480.195 799.746L413.16 799.492L412.947 865.891L479.982 866.145Z" fill="white"/>
<path opacity="0.1" d="M49.0363 652.719L49.25 586.32L-17.7851 586.067L-17.9988 652.465L49.0363 652.719Z" fill="white"/>
<path opacity="0.05" d="M120.857 652.719L121.07 586.32L54.0352 586.067L53.8215 652.465L120.857 652.719Z" fill="white"/>
<path opacity="0.05" d="M120.857 581.575L121.07 515.176L54.0352 514.922L53.8215 581.321L120.857 581.575Z" fill="white"/>
<path opacity="0.05" d="M192.693 723.864L192.906 657.465L125.871 657.211L125.657 723.61L192.693 723.864Z" fill="white"/>
<path opacity="0.05" d="M264.513 723.864L264.727 657.465L197.691 657.211L197.478 723.61L264.513 723.864Z" fill="white"/>
<path opacity="0.1" d="M336.333 581.575L336.547 515.176L269.512 514.922L269.298 581.321L336.333 581.575Z" fill="white"/>
<path opacity="0.1" d="M336.333 510.649L336.547 444.25L269.512 443.996L269.298 510.395L336.333 510.649Z" fill="white"/>
<path opacity="0.05" d="M336.333 723.864L336.547 657.465L269.512 657.211L269.298 723.61L336.333 723.864Z" fill="white"/>
<path opacity="0.2" d="M408.157 652.719L408.371 586.32L341.336 586.067L341.122 652.465L408.157 652.719Z" fill="white"/>
<path opacity="0.05" d="M408.157 723.864L408.371 657.465L341.336 657.211L341.122 723.61L408.157 723.864Z" fill="white"/>
<path opacity="0.05" d="M551.806 795.004L552.02 728.605L484.984 728.352L484.771 794.751L551.806 795.004Z" fill="white"/>
<path opacity="0.2" d="M551.806 723.864L552.02 657.465L484.984 657.211L484.771 723.61L551.806 723.864Z" fill="white"/>
</g>
<g opacity="0.2">
<path opacity="0.4" d="M701.534 866.293L701.32 799.895L768.356 799.641L768.569 866.04L701.534 866.293Z" fill="white"/>
<path opacity="0.1" d="M915.983 866.43L915.77 800.031L982.805 799.777L983.018 866.176L915.983 866.43Z" fill="white"/>
<path opacity="0.1" d="M915.983 795.286L915.77 728.887L982.805 728.633L983.018 795.032L915.983 795.286Z" fill="white"/>
<path opacity="0.5" d="M844.163 795.286L843.949 728.887L910.984 728.633L911.198 795.032L844.163 795.286Z" fill="white"/>
<path opacity="0.2" d="M700.507 795.286L700.293 728.887L767.328 728.633L767.542 795.032L700.507 795.286Z" fill="white"/>
<path opacity="0.2" d="M700.507 866.43L700.293 800.031L767.328 799.777L767.542 866.176L700.507 866.43Z" fill="white"/>
<path opacity="0.05" d="M628.686 795.286L628.473 728.887L695.508 728.633L695.722 795.032L628.686 795.286Z" fill="white"/>
<path opacity="0.2" d="M628.686 866.43L628.473 800.031L695.508 799.777L695.722 866.176L628.686 866.43Z" fill="white"/>
<path opacity="0.2" d="M556.862 866.43L556.649 800.031L623.684 799.777L623.897 866.176L556.862 866.43Z" fill="white"/>
<path opacity="0.2" d="M556.862 795.286L556.649 728.887L623.684 728.633L623.897 795.032L556.862 795.286Z" fill="white"/>
<path opacity="0.05" d="M556.862 866.43L556.649 800.031L623.684 799.777L623.897 866.176L556.862 866.43Z" fill="white"/>
<path opacity="0.1" d="M485.038 866.43L484.824 800.031L551.859 799.777L552.073 866.176L485.038 866.43Z" fill="white"/>
<path opacity="0.1" d="M915.983 653.004L915.77 586.605L982.805 586.352L983.018 652.751L915.983 653.004Z" fill="white"/>
<path opacity="0.05" d="M844.163 724.145L843.949 657.746L910.984 657.492L911.198 723.891L844.163 724.145Z" fill="white"/>
<path opacity="0.2" d="M844.163 653.004L843.949 586.605L910.984 586.352L911.198 652.751L844.163 653.004Z" fill="white"/>
<path opacity="0.05" d="M772.327 653.004L772.113 586.605L839.148 586.352L839.362 652.751L772.327 653.004Z" fill="white"/>
<path opacity="0.5" d="M701.534 723.129L701.32 656.73L768.356 656.477L768.569 722.876L701.534 723.129Z" fill="white"/>
<path opacity="0.1" d="M628.686 653.004L628.473 586.605L695.508 586.352L695.722 652.751L628.686 653.004Z" fill="white"/>
<path opacity="0.2" d="M556.862 653.004L556.649 586.605L623.684 586.352L623.897 652.751L556.862 653.004Z" fill="white"/>
<path opacity="0.05" d="M556.862 724.145L556.648 657.746L623.684 657.492L623.897 723.891L556.862 724.145Z" fill="white"/>
<path opacity="0.05" d="M485.038 653.004L484.824 586.605L551.859 586.352L552.073 652.751L485.038 653.004Z" fill="white"/>
<path opacity="0.2" d="M485.038 724.145L484.824 657.746L551.859 657.492L552.073 723.891L485.038 724.145Z" fill="white"/>
<path opacity="0.1" d="M915.983 510.719L915.77 444.32L982.805 444.067L983.018 510.465L915.983 510.719Z" fill="white"/>
<path opacity="0.05" d="M844.163 510.719L843.949 444.32L910.984 444.067L911.198 510.465L844.163 510.719Z" fill="white"/>
<path opacity="0.05" d="M844.163 439.575L843.949 373.176L910.984 372.922L911.198 439.321L844.163 439.575Z" fill="white"/>
<path opacity="0.05" d="M772.327 581.864L772.113 515.465L839.148 515.211L839.362 581.61L772.327 581.864Z" fill="white"/>
<path opacity="0.05" d="M700.507 581.864L700.293 515.465L767.328 515.211L767.542 581.61L700.507 581.864Z" fill="white"/>
<path opacity="0.1" d="M628.686 439.575L628.473 373.176L695.508 372.922L695.722 439.321L628.686 439.575Z" fill="white"/>
<path opacity="0.1" d="M628.686 368.649L628.473 302.25L695.508 301.996L695.721 368.395L628.686 368.649Z" fill="white"/>
<path opacity="0.05" d="M628.686 581.864L628.473 515.465L695.508 515.211L695.721 581.61L628.686 581.864Z" fill="white"/>
<path opacity="0.2" d="M556.862 510.719L556.649 444.32L623.684 444.067L623.897 510.465L556.862 510.719Z" fill="white"/>
<path opacity="0.05" d="M556.862 581.864L556.648 515.465L623.684 515.211L623.897 581.61L556.862 581.864Z" fill="white"/>
<path opacity="0.05" d="M413.214 866.43L413 800.031L480.035 799.777L480.249 866.176L413.214 866.43Z" fill="white"/>
<path opacity="0.05" d="M413.214 653.004L413 586.605L480.035 586.352L480.249 652.751L413.214 653.004Z" fill="white"/>
<path opacity="0.2" d="M413.214 581.864L413 515.465L480.035 515.211L480.249 581.61L413.214 581.864Z" fill="white"/>
</g>
</g>
<defs>
<clipPath id="clip0_9011_2679">
<rect width="1440" height="818" fill="white"/>
</clipPath>
</defs>
</svg>
