<svg width="20" height="40" viewBox="0 0 20 40" fill="none" xmlns="http://www.w3.org/2000/svg">
<path fill-rule="evenodd" clip-rule="evenodd" d="M5.83154 25.7936C5.83154 23.4925 7.69704 21.627 9.99821 21.627C12.2994 21.627 14.1649 23.4925 14.1649 25.7936C14.1649 28.0948 12.2994 29.9603 9.99821 29.9603C7.69704 29.9603 5.83154 28.0948 5.83154 25.7936ZM3.33154 35.7936C3.33154 33.5438 4.87696 31.6495 7.05554 31.054C7.24229 31.003 7.42579 31.0265 7.60238 31.1061C8.36529 31.45 9.17746 31.627 9.99821 31.627C10.819 31.627 11.6311 31.45 12.394 31.1061C12.5706 31.0265 12.7541 31.003 12.9409 31.054C15.1195 31.6495 16.6649 33.5438 16.6649 35.7936V37.4603C16.6649 37.9205 16.2918 38.2936 15.8315 38.2936H4.16488C3.70463 38.2936 3.33154 37.9205 3.33154 37.4603V35.7936Z" fill="#222222"/>
<path fill-rule="evenodd" clip-rule="evenodd" d="M5.83154 5.79362C5.83154 3.49245 7.69704 1.62695 9.99821 1.62695C12.2994 1.62695 14.1649 3.49245 14.1649 5.79362C14.1649 8.09479 12.2994 9.96029 9.99821 9.96029C7.69704 9.96029 5.83154 8.09479 5.83154 5.79362ZM12.4982 5.79362C12.4982 4.41287 11.379 3.29362 9.99821 3.29362C8.61746 3.29362 7.49821 4.41287 7.49821 5.79362C7.49821 7.17437 8.61746 8.29362 9.99821 8.29362C11.379 8.29362 12.4982 7.17437 12.4982 5.79362ZM7.05554 11.054C4.87696 11.6495 3.33154 13.5438 3.33154 15.7936V17.4603C3.33154 17.9205 3.70463 18.2936 4.16488 18.2936H15.8315C16.2918 18.2936 16.6649 17.9205 16.6649 17.4603V15.7936C16.6649 13.5438 15.1195 11.6495 12.9409 11.054C12.7541 11.003 12.5706 11.0265 12.394 11.1061C11.6311 11.45 10.819 11.627 9.99821 11.627C9.17746 11.627 8.36529 11.45 7.60238 11.1061C7.42579 11.0265 7.24229 11.003 7.05554 11.054ZM9.99821 13.2936C9.09796 13.2936 8.23554 13.039 7.39404 12.7207C5.97454 13.1507 4.99821 14.349 4.99821 15.7936V16.627H14.9982V15.7936C14.9982 14.349 14.0219 13.1507 12.6024 12.7207C11.7609 13.039 10.8985 13.2936 9.99821 13.2936Z" fill="#222222" fill-opacity="0.6"/>
</svg>
