<svg id="n81BGj" xmlns="http://www.w3.org/2000/svg" width="59.97" height="60" viewBox="0 0 59.97 60">
  <g id="Group_89" data-name="Group 89" transform="translate(0 0)">
    <path id="Path_315" data-name="Path 315" d="M-3239.058-986.178h.6q12.586,0,25.171,0a4.594,4.594,0,0,1,.834.057,1.288,1.288,0,0,1,1.072,1.334,1.324,1.324,0,0,1-1.132,1.295,4.586,4.586,0,0,1-.658.017h-25.887v5.731h23.952a6.881,6.881,0,0,1,.719.018,1.3,1.3,0,0,1,1.166,1.374,1.293,1.293,0,0,1-1.205,1.275c-.239.018-.479.008-.719.008h-23.838c-.62,3.014.592,5.489,3.705,5.474,4.934-.023,9.868-.006,14.8-.006.2,0,.4-.008.6.008a1.293,1.293,0,0,1,1.206,1.275,1.313,1.313,0,0,1-1.167,1.378,4.716,4.716,0,0,1-.539.013q-7.521,0-15.042,0a6.1,6.1,0,0,1-6.341-6.412q0-15.064,0-30.129a6.112,6.112,0,0,1,6.205-6.311q20.856-.006,41.712,0a6.106,6.106,0,0,1,6.215,6.3q.005,4.981,0,9.962a4.406,4.406,0,0,1-.009.486,1.311,1.311,0,0,1-1.351,1.2,1.282,1.282,0,0,1-1.272-1.2c-.021-.221-.014-.445-.014-.668q0-4.8,0-9.6a3.488,3.488,0,0,0-3.745-3.777q-20.676.008-41.352,0a3.423,3.423,0,0,0-3.73,3.6c-.039,5.629-.014,11.258-.013,16.887A3.532,3.532,0,0,0-3239.058-986.178Z" transform="translate(3241.758 1009.779)"/>
    <path id="Path_316" data-name="Path 316" d="M-3015.365-833.88q3.8,0,7.59,0c1.4,0,1.959.858,1.425,2.167-.849,2.078-1.686,4.161-2.564,6.226a.8.8,0,0,0,.182,1q3.019,3.286,6,6.6a17.858,17.858,0,0,1,4.709,8.623c.725,3.782.313,7.351-2.2,10.446a10.811,10.811,0,0,1-8.462,4.227q-6.646.131-13.3.011a11.325,11.325,0,0,1-11.069-11.2,15.781,15.781,0,0,1,3.9-10.765c2.274-2.686,4.677-5.264,7.054-7.861a.966.966,0,0,0,.193-1.22c-.87-2.046-1.7-4.109-2.537-6.17-.5-1.238.076-2.084,1.413-2.086Q-3019.19-833.885-3015.365-833.88Zm-.027,36.61v.025q3.037,0,6.074,0a8.6,8.6,0,0,0,6.732-2.945c2.2-2.47,2.511-5.389,1.933-8.49a14.841,14.841,0,0,0-3.884-7.167q-3.2-3.573-6.456-7.1a1.258,1.258,0,0,0-.817-.369q-3.583-.044-7.167,0a1.178,1.178,0,0,0-.765.351q-3.309,3.6-6.577,7.236a14.583,14.583,0,0,0-4.028,8.887,8.705,8.705,0,0,0,8.275,9.553C-3019.85-797.171-3017.618-797.27-3015.391-797.27Zm-5.86-33.884c.685,1.676,1.313,3.252,1.985,4.809a.786.786,0,0,0,.608.324c2.185.023,4.371,0,6.556.024a.647.647,0,0,0,.7-.5c.355-.924.744-1.836,1.119-2.753.249-.609.5-1.219.777-1.9Z" transform="translate(3057.669 854.518)"/>
    <path id="Path_317" data-name="Path 317" d="M-3159.1-886.713c-.789,0-1.578.008-2.367,0a1.327,1.327,0,0,1-1.455-1.358,1.3,1.3,0,0,1,1.42-1.325q2.428-.028,4.855,0a1.334,1.334,0,0,1,1.465,1.352,1.361,1.361,0,0,1-1.491,1.332h-2.428Z" transform="translate(3172.371 903.85)"/>
    <path id="Path_318" data-name="Path 318" d="M-2982.8-666.875a8.616,8.616,0,0,1,1.508-4.855,29.174,29.174,0,0,1,2.042-2.632,1.409,1.409,0,0,1,2.156-.325c.609.577.541,1.354-.158,2.139-.443.5-.874,1.009-1.279,1.538a7.23,7.23,0,0,0-1.594,4.609,1.268,1.268,0,0,1-1.32,1.356,1.341,1.341,0,0,1-1.354-1.406C-2982.805-666.592-2982.8-666.733-2982.8-666.875Z" transform="translate(3013.841 715.136)"/>
  </g>
</svg>
