<svg xmlns="http://www.w3.org/2000/svg" width="21.296" height="20.529" viewBox="0 0 21.296 20.529">
  <g id="vXzaUj.tif" transform="translate(1998.308 1082.752)">
    <g id="Group_191" data-name="Group 191" transform="translate(-1998.308 -1082.752)">
      <path id="Path_87" data-name="Path 87" d="M-1997.733-1062.223a.914.914,0,0,1-.573-1,10.625,10.625,0,0,1,3.6-7.738.751.751,0,0,1,1.119.021.769.769,0,0,1-.112,1.116,9.117,9.117,0,0,0-3.027,5.777c-.012.092-.012.187-.019.293h18.186c-.06-.386-.1-.769-.183-1.14a9.046,9.046,0,0,0-5.458-6.528.455.455,0,0,0-.46.029,6.075,6.075,0,0,1-9.028-4.421,6.09,6.09,0,0,1,5.4-6.9,6.079,6.079,0,0,1,6.674,5.407,5.966,5.966,0,0,1-1.335,4.473c-.054.067-.106.135-.172.218l.235.127a10.519,10.519,0,0,1,5.735,7.836c.057.318.092.64.137.961v.9a1.019,1.019,0,0,1-.57.571Zm10.073-19.01a4.568,4.568,0,0,0-4.56,4.564,4.569,4.569,0,0,0,4.564,4.56,4.571,4.571,0,0,0,4.561-4.565A4.57,4.57,0,0,0-1987.66-1081.233Z" transform="translate(1998.308 1082.752)"/>
    </g>
  </g>
</svg>
