<svg xmlns="http://www.w3.org/2000/svg" width="16.989" height="21.053" viewBox="0 0 16.989 21.053">
  <g id="z1Bmo4.tif" transform="translate(2163.802 1138.611)">
    <g id="Group_137" data-name="Group 137" transform="translate(-2163.802 -1138.611)">
      <path id="Path_48" data-name="Path 48" d="M-2146.813-1123.345c-.087.462-.145.932-.265,1.385a5.212,5.212,0,0,1-3.181,3.616,11.338,11.338,0,0,1-4.1.765,19.229,19.229,0,0,1-4.025-.2,6.877,6.877,0,0,1-3.731-1.7,5.352,5.352,0,0,1-1.591-3.255,10.113,10.113,0,0,1,1.788-7.379,8.356,8.356,0,0,1,3.878-3.049c.08-.031.158-.069.259-.114a3.941,3.941,0,0,1-.861-1.843,3.643,3.643,0,0,1,.037-1.586,2.4,2.4,0,0,1,2.1-1.794,6.377,6.377,0,0,1,2.653.059,2.4,2.4,0,0,1,1.937,2.387,3.867,3.867,0,0,1-.794,2.6c-.043.055-.081.113-.116.166.39.185.785.352,1.159.555a8.889,8.889,0,0,1,4.268,5.192,22.775,22.775,0,0,1,.536,2.422c.014.067.031.134.047.2Zm-8.469,4.208a12.708,12.708,0,0,0,3.963-.483,3.675,3.675,0,0,0,2.765-2.958,8.188,8.188,0,0,0-2.932-8.18,5.769,5.769,0,0,0-4.2-1.328,6.51,6.51,0,0,0-5.022,2.993,8.582,8.582,0,0,0-1.473,5.9,3.914,3.914,0,0,0,2.959,3.6A13.1,13.1,0,0,0-2155.283-1119.138Zm.021-17.927c-.394.048-.745.067-1.084.14a.844.844,0,0,0-.782.9,2.319,2.319,0,0,0,.348,1.452,1.622,1.622,0,0,0,2.445.556,2.267,2.267,0,0,0,.833-2.17.772.772,0,0,0-.666-.71C-2154.542-1136.973-2154.923-1137.014-2155.262-1137.064Z" transform="translate(2163.802 1138.611)"/>
      <path id="Path_49" data-name="Path 49" d="M-2154.837-1121.165c0-.708.007-1.356-.008-2a.324.324,0,0,0-.177-.227,2.712,2.712,0,0,1-1.76-2.814,2.705,2.705,0,0,1,1.921-2.416c.118-.793.341-1.075.841-1.058s.711.321.773,1.057a2.815,2.815,0,0,1,1.645,1.362,2.752,2.752,0,0,1,.319,1.283.779.779,0,0,1-.759.783.768.768,0,0,1-.8-.729,1.236,1.236,0,0,0-.416-.924c0,.514.035.984-.009,1.446a.871.871,0,0,0,.57,1,2.508,2.508,0,0,1,1.407,2.525,2.664,2.664,0,0,1-1.76,2.421c-.154.065-.212.125-.212.294a.768.768,0,0,1-.775.838.774.774,0,0,1-.788-.83.283.283,0,0,0-.227-.311,2.767,2.767,0,0,1-1.744-2.492.781.781,0,0,1,.741-.85.767.767,0,0,1,.82.739A1.293,1.293,0,0,0-2154.837-1121.165Zm1.588-1.693v1.663A1.086,1.086,0,0,0-2153.249-1122.859Zm-1.6-3.921a1.057,1.057,0,0,0,0,1.611Z" transform="translate(2162.54 1137.001)"/>
    </g>
  </g>
</svg>
