<svg xmlns="http://www.w3.org/2000/svg" width="18.857" height="19.292" viewBox="0 0 18.857 19.292">
  <g id="affiliate-marketing_1_" data-name="affiliate-marketing (1)" transform="translate(-0.894)">
    <g id="Group_212" data-name="Group 212" transform="translate(0.894)">
      <path id="Path_105" data-name="Path 105" d="M2.856,12.535A7.646,7.646,0,0,1,2.529,10.3,7.424,7.424,0,0,1,7.87,3.215v.927l4.088-2.071L7.87,0V1.471A9.21,9.21,0,0,0,.894,10.3a9.041,9.041,0,0,0,.163,1.744l.109-.872Z" transform="translate(-0.894)" fill="#8e8e8e"/>
      <path id="Path_106" data-name="Path 106" d="M49.091,17.2l-.273,4.578,3.815-2.507-1.253-.764a8.214,8.214,0,0,0,.381-2.616,9.089,9.089,0,0,0-6.049-8.5l.708.436L44.35,8.7a7.407,7.407,0,0,1,5.777,7.194,8.977,8.977,0,0,1-.218,1.744Z" transform="translate(-33.777 -5.592)" fill="#8e8e8e"/>
      <path id="Path_107" data-name="Path 107" d="M18.218,54.583A7.317,7.317,0,0,1,7.7,54.91l.817-.436L4.7,51.967l.272,4.578,1.253-.763a8.969,8.969,0,0,0,6.54,2.834,8.86,8.86,0,0,0,5.831-2.18l-.817.327Z" transform="translate(-3.776 -39.323)" fill="#8e8e8e"/>
      <path id="Path_108" data-name="Path 108" d="M28.927,34.241c-.109-.218-.218-.218-.381-.272-.817-.327-1.526-.436-2.289-.708a.61.61,0,0,1-.273-.545c0-.164-.054-.272-.218-.272-.054,0-.054,0-.054-.109a4.045,4.045,0,0,1-.055-.6.187.187,0,0,1,.055-.109,2.622,2.622,0,0,0,.381-1.09s.055.055.108-.109.055-.218.109-.436c.055-.163.055-.436-.109-.436-.108.055-.108,0-.108-.109V28.411a1,1,0,0,0-.436-.708,1.724,1.724,0,0,1-.436-.327.2.2,0,0,1,0-.327c.055-.055.164-.109.218-.164h-.054c-.055,0-.654.109-.872.164a3.65,3.65,0,0,0-1.253.545,1.176,1.176,0,0,0-.49.763v1.036c0,.054,0,.163-.109.109-.218-.055-.109.381-.109.436.055.164.109.273.163.436.055.109.109.109.109.109a3.268,3.268,0,0,0,.382,1.09.2.2,0,0,1,.054.164,1.852,1.852,0,0,0-.054.545.117.117,0,0,1-.109.109c-.163,0-.218.109-.218.272a.652.652,0,0,1-.272.545c-.382.163-1.8.6-2.235.708-.327.109-.381.218-.436.327v.545h8.992v-.545Z" transform="translate(-15.302 -20.344)" fill="#8e8e8e"/>
    </g>
  </g>
</svg>
