<svg xmlns="http://www.w3.org/2000/svg" width="94" height="36" viewBox="0 0 94 36">
  <g id="Group_153" data-name="Group 153" transform="translate(-360 -6163)">
    <path id="Union_4" data-name="Union 4" d="M3.255,16.232a9.674,9.674,0,0,1-3.006-5.2A7.029,7.029,0,0,1,.4,6.809,4.087,4.087,0,0,1,4.139,4.1a5.832,5.832,0,0,1,1.874.4,2.8,2.8,0,0,0,2.207-.01,4.426,4.426,0,0,1,4.71.475,4.991,4.991,0,0,1,.544.531c-.347.394-.676.734-.967,1.1A3.642,3.642,0,0,0,13.7,12.1c.293.156.333.271.212.572a10.215,10.215,0,0,1-2.118,3.259,2.184,2.184,0,0,1-2.357.629c-.247-.071-.49-.16-.729-.252a3.7,3.7,0,0,0-2.578-.055c-.366.122-.736.237-1.106.349a2.052,2.052,0,0,1-.593.092A1.73,1.73,0,0,1,3.255,16.232ZM7.079,3.823C6.683,2.57,7.988.263,10.421,0A3.531,3.531,0,0,1,7.34,3.84,2.047,2.047,0,0,1,7.079,3.823Z" transform="translate(373.05 6170.25)" fill="#fff" stroke="rgba(0,0,0,0)" stroke-miterlimit="10" stroke-width="1"/>
    <path id="Path_400" data-name="Path 400" d="M.3-2.685l2.413-6.88H4.587l2.488,6.88H5.907L3.73-8.811l.462.217H3.051l.49-.217L1.43-2.685ZM1.863-4.627l.358-.98H5.106l.368.98ZM7.726-.8V-7.765H8.6v2.2l-.17-.009A3.036,3.036,0,0,1,8.772-6.9a1.906,1.906,0,0,1,.773-.773A2.221,2.221,0,0,1,10.6-7.925a2.352,2.352,0,0,1,.99.2,2.292,2.292,0,0,1,.763.561,2.437,2.437,0,0,1,.485.829A3.06,3.06,0,0,1,13-5.315v.179a3,3,0,0,1-.17,1.013,2.49,2.49,0,0,1-.49.834,2.349,2.349,0,0,1-.763.565,2.306,2.306,0,0,1-.99.207,2.324,2.324,0,0,1-1.037-.236,1.9,1.9,0,0,1-.792-.754,2.853,2.853,0,0,1-.349-1.348l.415.7V-.8Zm2.629-2.667a1.479,1.479,0,0,0,.811-.221,1.478,1.478,0,0,0,.542-.622A2.09,2.09,0,0,0,11.9-5.23a2.06,2.06,0,0,0-.193-.914,1.5,1.5,0,0,0-.537-.617,1.473,1.473,0,0,0-.815-.221,1.634,1.634,0,0,0-.773.188,1.465,1.465,0,0,0-.575.542,1.6,1.6,0,0,0-.217.853v.405a1.491,1.491,0,0,0,.221.825,1.451,1.451,0,0,0,.58.523A1.684,1.684,0,0,0,10.355-3.467ZM13.889-.8V-7.765h.876v2.2l-.17-.009A3.036,3.036,0,0,1,14.935-6.9a1.906,1.906,0,0,1,.773-.773,2.221,2.221,0,0,1,1.056-.254,2.352,2.352,0,0,1,.99.2,2.292,2.292,0,0,1,.763.561A2.437,2.437,0,0,1,19-6.332a3.06,3.06,0,0,1,.165,1.018v.179A3,3,0,0,1,19-4.122a2.49,2.49,0,0,1-.49.834,2.349,2.349,0,0,1-.763.565,2.306,2.306,0,0,1-.99.207,2.324,2.324,0,0,1-1.037-.236,1.9,1.9,0,0,1-.792-.754,2.853,2.853,0,0,1-.349-1.348l.415.7V-.8Zm2.629-2.667a1.479,1.479,0,0,0,.811-.221,1.478,1.478,0,0,0,.542-.622,2.09,2.09,0,0,0,.193-.919,2.06,2.06,0,0,0-.193-.914,1.5,1.5,0,0,0-.537-.617,1.473,1.473,0,0,0-.815-.221,1.634,1.634,0,0,0-.773.188,1.465,1.465,0,0,0-.575.542,1.6,1.6,0,0,0-.217.853v.405a1.491,1.491,0,0,0,.221.825,1.451,1.451,0,0,0,.58.523A1.684,1.684,0,0,0,16.519-3.467Zm7.653.952a3.545,3.545,0,0,1-1.5-.287,2.151,2.151,0,0,1-.938-.792,2.089,2.089,0,0,1-.32-1.145h1.112a1.154,1.154,0,0,0,.16.575A1.2,1.2,0,0,0,23.2-3.7a2.145,2.145,0,0,0,.971.184,2.284,2.284,0,0,0,.919-.16,1.2,1.2,0,0,0,.537-.424,1.037,1.037,0,0,0,.174-.584.768.768,0,0,0-.339-.646,2,2,0,0,0-1.018-.306L23.757-5.7a2.475,2.475,0,0,1-1.517-.589,1.74,1.74,0,0,1-.565-1.352,2,2,0,0,1,.306-1.112,2.078,2.078,0,0,1,.862-.74,2.936,2.936,0,0,1,1.291-.269,2.982,2.982,0,0,1,1.31.269,2.043,2.043,0,0,1,.862.754,2.118,2.118,0,0,1,.306,1.155H25.5a1.176,1.176,0,0,0-.146-.57,1.115,1.115,0,0,0-.448-.438,1.564,1.564,0,0,0-.773-.17,1.566,1.566,0,0,0-.749.16,1.125,1.125,0,0,0-.448.415,1.054,1.054,0,0,0-.151.547.856.856,0,0,0,.264.617,1.25,1.25,0,0,0,.811.316l.679.057a3.61,3.61,0,0,1,1.258.306,2.077,2.077,0,0,1,.829.664,1.671,1.671,0,0,1,.3,1,1.919,1.919,0,0,1-.344,1.131,2.258,2.258,0,0,1-.961.763A3.548,3.548,0,0,1,24.171-2.515Zm5.73-.113a2.934,2.934,0,0,1-1.065-.17,1.229,1.229,0,0,1-.655-.584A2.394,2.394,0,0,1,27.96-4.5V-9.245h1.046V-4.41a.823.823,0,0,0,.212.608.809.809,0,0,0,.6.212h.848v.961Zm-2.78-4.316v-.82h3.544v.82Zm6.72,4.43a2.93,2.93,0,0,1-1.178-.221,2.589,2.589,0,0,1-.858-.589,2.506,2.506,0,0,1-.528-.834,2.673,2.673,0,0,1-.179-.966v-.188a2.65,2.65,0,0,1,.184-.971,2.573,2.573,0,0,1,.537-.844,2.549,2.549,0,0,1,.862-.589,2.934,2.934,0,0,1,1.159-.217A2.9,2.9,0,0,1,35-7.718a2.613,2.613,0,0,1,.862.589,2.536,2.536,0,0,1,.542.844,2.65,2.65,0,0,1,.184.971v.188a2.673,2.673,0,0,1-.179.966,2.506,2.506,0,0,1-.528.834,2.589,2.589,0,0,1-.858.589A2.93,2.93,0,0,1,33.841-2.515Zm0-.961a1.632,1.632,0,0,0,.886-.231,1.5,1.5,0,0,0,.561-.627,1.993,1.993,0,0,0,.193-.886,1.975,1.975,0,0,0-.2-.9,1.536,1.536,0,0,0-.565-.627,1.614,1.614,0,0,0-.876-.231,1.614,1.614,0,0,0-.876.231,1.536,1.536,0,0,0-.565.627,1.975,1.975,0,0,0-.2.9,1.993,1.993,0,0,0,.193.886,1.5,1.5,0,0,0,.561.627A1.632,1.632,0,0,0,33.841-3.477Zm3.628.792v-5.08h.876v2.121h-.038a2.4,2.4,0,0,1,.481-1.635,1.8,1.8,0,0,1,1.423-.542h.179v.971h-.339a1.486,1.486,0,0,0-1.1.382,1.473,1.473,0,0,0-.382,1.089v2.7Zm5.692.17a2.721,2.721,0,0,1-1.15-.226,2.256,2.256,0,0,1-.8-.6,2.558,2.558,0,0,1-.467-.839,3.006,3.006,0,0,1-.156-.957v-.179a3.035,3.035,0,0,1,.156-.966,2.558,2.558,0,0,1,.467-.839A2.238,2.238,0,0,1,42-7.713a2.6,2.6,0,0,1,1.107-.221,2.444,2.444,0,0,1,1.367.358,2.265,2.265,0,0,1,.82.928,2.808,2.808,0,0,1,.273,1.23v.443h-4.5V-5.72h3.76l-.3.377a2.218,2.218,0,0,0-.16-.881,1.26,1.26,0,0,0-.471-.575,1.405,1.405,0,0,0-.782-.2,1.416,1.416,0,0,0-.82.226,1.345,1.345,0,0,0-.49.622,2.479,2.479,0,0,0-.16.933,2.432,2.432,0,0,0,.16.909,1.35,1.35,0,0,0,.5.631,1.509,1.509,0,0,0,.867.231,1.509,1.509,0,0,0,.867-.231.93.93,0,0,0,.415-.542h1.027a2.036,2.036,0,0,1-.419.9,2.068,2.068,0,0,1-.8.594A2.736,2.736,0,0,1,43.162-2.515Z" transform="translate(395.441 6186.709)" fill="#fff"/>
    <g id="Rectangle_106" data-name="Rectangle 106" transform="translate(360 6163)" fill="none" stroke="#838383" stroke-width="1">
      <rect width="94" height="36" rx="7" stroke="none"/>
      <rect x="0.5" y="0.5" width="93" height="35" rx="6.5" fill="none"/>
    </g>
  </g>
</svg>
