<svg xmlns="http://www.w3.org/2000/svg" width="15.081" height="18.904" viewBox="0 0 15.081 18.904">
  <path id="Path_45" data-name="Path 45" d="M-1897.884-1250.76a1.85,1.85,0,0,0,2.7.995,3.643,3.643,0,0,0,.363-.261.65.65,0,0,1,.922,0,.653.653,0,0,1-.116.949,3.03,3.03,0,0,1-2.993.7,2.987,2.987,0,0,1-2.1-2.022.452.452,0,0,0-.534-.371c-1.075.014-2.15.009-3.225,0-.741,0-.99-.4-.672-1.08a11.782,11.782,0,0,0,1.112-5.023,20.257,20.257,0,0,1,.155-3.345,6.129,6.129,0,0,1,5.177-4.954c.306-.046.367-.16.353-.426-.016-.3-.011-.6,0-.9a.627.627,0,0,1,.592-.657.632.632,0,0,1,.619.675c.01.4,0,.8,0,1.22.349.074.669.126.981.21a6.3,6.3,0,0,1,4.711,6.082c.018,1.238.022,2.478.114,3.712a9.563,9.563,0,0,0,.964,3.333c.366.783.13,1.147-.748,1.147h-8.37Zm7.66-1.255c-.179-.62-.376-1.2-.51-1.789a11.093,11.093,0,0,1-.3-1.852c-.058-1.132-.028-2.269-.055-3.4a5.077,5.077,0,0,0-3.651-4.744,5.047,5.047,0,0,0-5.66,2.148,5.326,5.326,0,0,0-.8,2.8c-.039,1.431-.054,2.866-.2,4.288a18.134,18.134,0,0,1-.627,2.552Z" transform="translate(1903.681 1267.14)"/>
</svg>
