<svg xmlns="http://www.w3.org/2000/svg" width="23.375" height="23.385" viewBox="0 0 23.375 23.385">
  <g id="Fup9td" transform="translate(1965.537 1348.562)">
    <g id="Group_196" data-name="Group 196" transform="translate(-1965.537 -1348.562)">
      <path id="Path_95" data-name="Path 95" d="M-1942.163-1336.814a11.7,11.7,0,0,1-11.737,11.636,11.647,11.647,0,0,1-11.636-11.785,11.62,11.62,0,0,1,12-11.6A11.7,11.7,0,0,1-1942.163-1336.814Zm-11.633-10.331a10.315,10.315,0,0,0-10.333,10.229,10.323,10.323,0,0,0,10.008,10.31,10.311,10.311,0,0,0,10.543-10.255A10.321,10.321,0,0,0-1953.8-1347.145Z" transform="translate(1965.537 1348.562)"/>
      <path id="Path_96" data-name="Path 96" d="M-1955.659-1346.038h1.286v1.907c1.638.146,2.9.834,3.265,2.5a2.727,2.727,0,0,1-1.674,3.242c1.784.653,2.741,1.81,2.409,3.638-.384,2.116-2.1,2.607-3.971,2.891v1.809h-1.29v-1.714h-1.243v1.711h-1.28v-1.734h-3.03v-1.829c.392,0,.785-.012,1.177,0,.411.015.561-.167.56-.574q-.018-3.833,0-7.663c0-.384-.149-.552-.526-.548-.395.006-.789,0-1.213,0v-1.779h3v-1.851h1.268v1.794h1.259Zm-1.272,12.479c.967-.066,1.863-.08,2.744-.2a1.648,1.648,0,0,0,1.407-1.56,1.594,1.594,0,0,0-1.231-1.689c-.942-.174-1.916-.185-2.919-.273Zm-.06-8.908v3.2a22.952,22.952,0,0,0,2.4-.21,1.3,1.3,0,0,0,1.112-1.413,1.287,1.287,0,0,0-1.119-1.346C-1955.355-1342.382-1956.134-1342.39-1956.992-1342.467Z" transform="translate(1967.54 1349.726)"/>
    </g>
  </g>
</svg>
