<svg xmlns="http://www.w3.org/2000/svg" width="72.318" height="57.715" viewBox="0 0 72.318 57.715">
  <g id="CY1oyp.tif" transform="translate(2458.324 -865.748)">
    <g id="Group_63" data-name="Group 63" transform="translate(-2458.324 865.748)">
      <path id="Path_262" data-name="Path 262" d="M-2356.646,1087.606a100.443,100.443,0,0,1-21.828-2.2,2.576,2.576,0,0,1-2.239-2.615c-.012-3.052-.1-6.113.1-9.154.432-6.665,6.259-12.5,12.9-13.189a4.31,4.31,0,0,1,3.172.79,14.484,14.484,0,0,0,16.442-.434,2.343,2.343,0,0,1,1.42-.42,14.784,14.784,0,0,1,14.083,14.845c.008,2.3,0,4.593,0,6.889,0,2.115-.714,3-2.76,3.409A101.983,101.983,0,0,1-2356.646,1087.606Zm-.014-1.469c3.671-.206,7.355-.28,11.008-.655,3.467-.357,6.9-1.023,10.351-1.567a1.16,1.16,0,0,0,1.087-1.288c-.019-2.739.057-5.481-.035-8.218a13.087,13.087,0,0,0-12.163-12.391,1.687,1.687,0,0,0-1,.292,16.35,16.35,0,0,1-18.444.042,1.914,1.914,0,0,0-1.138-.327,13.1,13.1,0,0,0-12.106,12.855c-.031,2.478-.007,4.957,0,7.436,0,1.249.142,1.392,1.374,1.658A110.2,110.2,0,0,0-2356.66,1086.137Z" transform="translate(2392.893 -1029.891)" fill="#fff"/>
      <path id="Path_263" data-name="Path 263" d="M-2283.335,879.151a18.457,18.457,0,0,1-6.983,13.247c-3.939,3.1-8.171,3.061-12.029-.152a17.923,17.923,0,0,1-6.742-14.307,12.57,12.57,0,0,1,10.377-11.97,12.991,12.991,0,0,1,14.248,7.233A12.93,12.93,0,0,1-2283.335,879.151Zm-24.183.062a16.724,16.724,0,0,0,5.951,11.623c3.346,2.876,6.889,2.913,10.4.219a16.2,16.2,0,0,0,5.3-7.68,12.749,12.749,0,0,0,.646-7.446,11.232,11.232,0,0,0-12.666-8.446C-2303.46,868.3-2307.544,872.915-2307.518,879.213Z" transform="translate(2332.464 -865.748)" fill="#fff"/>
      <path id="Path_264" data-name="Path 264" d="M-2152.517,891.369c6.2.136,11.064,5,10.621,11.056a14.309,14.309,0,0,1-7,11.845c-3.034,1.819-6.12,1.025-8.725-1.019a.736.736,0,0,1-.169-1.1.75.75,0,0,1,1.1-.189c.159.089.306.2.458.3,2.692,1.807,5.2,1.828,7.71-.222a12.645,12.645,0,0,0,5.007-10.951,8.813,8.813,0,0,0-9.495-8.1c-.545.031-1.086.135-1.629.2-.449.052-.871-.007-.981-.532-.115-.548.214-.842.711-.929C-2154.113,891.585-2153.314,891.485-2152.517,891.369Z" transform="translate(2205.009 -887.356)" fill="#fff"/>
      <path id="Path_265" data-name="Path 265" d="M-2398.47,900.044a10.671,10.671,0,0,1,12.724-10.618c.6.118,1.206.306,1.031,1.07-.166.726-.8.61-1.353.514a9.163,9.163,0,0,0-9.633,4.188,8.762,8.762,0,0,0-.978,6.784,12.944,12.944,0,0,0,5.637,8.5,5.778,5.778,0,0,0,6.816-.265c.128-.089.251-.186.377-.279a.8.8,0,0,1,1.238.094c.326.434.135.826-.242,1.161a7.525,7.525,0,0,1-8.673.962,11.6,11.6,0,0,1-3.79-3.444A15.607,15.607,0,0,1-2398.47,900.044Z" transform="translate(2407.845 -885.549)" fill="#fff"/>
      <path id="Path_266" data-name="Path 266" d="M-2085.6,1064.7c0,1.149.012,2.3,0,3.445a2.27,2.27,0,0,1-1.993,2.42c-2.284.406-4.578.755-6.868,1.121-.58.092-1.2.074-1.267-.658-.067-.694.49-.855,1.088-.947,2.138-.33,4.268-.713,6.406-1.042.747-.115,1.069-.431,1.048-1.235-.054-2.113.019-4.229-.042-6.342a10.344,10.344,0,0,0-9.6-9.637,2.641,2.641,0,0,0-1.142.335c-.961.457-1.891.978-2.853,1.432a.823.823,0,0,1-1.238-.426c-.208-.568.16-.892.659-1.15,1.014-.525,1.993-1.115,3-1.653a1.911,1.911,0,0,1,.857-.264,12.094,12.094,0,0,1,11.927,11.546c.039,1.016.006,2.036.006,3.053Z" transform="translate(2157.913 -1021.229)" fill="#fff"/>
      <path id="Path_267" data-name="Path 267" d="M-2458.324,1064.652a41.207,41.207,0,0,1,.557-5.5,12.011,12.011,0,0,1,11.555-9.06,2.125,2.125,0,0,1,.942.269c.965.5,1.892,1.081,2.868,1.56.532.261.942.543.7,1.174s-.749.676-1.292.406c-.931-.462-1.837-.976-2.778-1.413a2.634,2.634,0,0,0-1.284-.318,10.383,10.383,0,0,0-9.507,10.477c-.01,1.879.024,3.759-.015,5.637a.972.972,0,0,0,.96,1.145c2.189.342,4.372.721,6.56,1.068.537.085,1.025.231.958.881-.07.675-.581.8-1.162.71-2.366-.384-4.737-.74-7.093-1.182a2.148,2.148,0,0,1-1.809-2.237c-.026-1.2-.006-2.4-.006-3.6Z" transform="translate(2458.324 -1021.216)" fill="#fff"/>
    </g>
  </g>
</svg>
