<svg height='300px' width='300px'  fill="#FFFFFF" xmlns="http://www.w3.org/2000/svg" xmlns:xlink="http://www.w3.org/1999/xlink" version="1.1" x="0px" y="0px" viewBox="0 0 512 512" style="enable-background:new 0 0 512 512;" xml:space="preserve"><g><g><g><g><g><path d="M160,494c-10.477,0-19-8.523-19-19v-35c0-2.209,1.791-4,4-4h30c2.209,0,4,1.791,4,4v35       C179,485.477,170.477,494,160,494z M149,444v31c0,6.065,4.935,11,11,11s11-4.935,11-11v-31H149z"></path></g><g><path d="M360,494c-10.477,0-19-8.523-19-19v-35c0-2.209,1.791-4,4-4h30c2.209,0,4,1.791,4,4v35       C379,485.477,370.477,494,360,494z M349,444v31c0,6.065,4.935,11,11,11s11-4.935,11-11v-31H349z"></path></g></g><g><path d="M450,84H80c-13.233,0-24-10.767-24-24s10.767-24,24-24h370c13.233,0,24,10.767,24,24S463.233,84,450,84z M80,44      c-8.822,0-16,7.178-16,16s7.178,16,16,16h370c8.822,0,16-7.178,16-16s-7.178-16-16-16H80z"></path></g><g><path d="M440,254c-2.209,0-4-1.791-4-4V84H104v166c0,2.209-1.791,4-4,4s-4-1.791-4-4V80c0-2.209,1.791-4,4-4h340      c2.209,0,4,1.791,4,4v170C444,252.209,442.209,254,440,254z"></path></g><g><path d="M460,444H60c-13.234,0-24-10.767-24-24s10.766-24,24-24h400c13.233,0,24,10.767,24,24S473.233,444,460,444z M60,404      c-8.822,0-16,7.178-16,16s7.178,16,16,16h400c8.822,0,16-7.178,16-16s-7.178-16-16-16H60z"></path></g><g><path d="M170,404h-70c-2.209,0-4-1.791-4-4v-20.667C96,366.467,106.467,356,119.333,356h31.333      C163.533,356,174,366.467,174,379.333V400C174,402.209,172.209,404,170,404z M104,396h62v-16.667      c0-8.455-6.878-15.333-15.333-15.333h-31.333c-8.455,0-15.333,6.878-15.333,15.333V396z"></path></g><g><path d="M135,364c-15.991,0-29-13.01-29-29s13.009-29,29-29s29,13.01,29,29S150.991,364,135,364z M135,314      c-11.58,0-21,9.421-21,21s9.42,21,21,21s21-9.421,21-21S146.58,314,135,314z"></path></g><g><path d="M300,404h-70c-2.209,0-4-1.791-4-4v-20.667C226,366.467,236.467,356,249.333,356h31.333      C293.533,356,304,366.467,304,379.333V400C304,402.209,302.209,404,300,404z M234,396h62v-16.667      c0-8.455-6.878-15.333-15.333-15.333h-31.333c-8.455,0-15.333,6.878-15.333,15.333V396z"></path></g><g><path d="M265,364c-15.991,0-29-13.01-29-29s13.009-29,29-29c15.99,0,29,13.01,29,29S280.99,364,265,364z M265,314      c-11.58,0-21,9.421-21,21s9.42,21,21,21c11.579,0,21-9.421,21-21S276.579,314,265,314z"></path></g><g><path d="M311.111,254H210c-2.209,0-4-1.791-4-4v-29.852c0-17.604,14.322-31.926,31.926-31.926h45.26      c17.604,0,31.926,14.322,31.926,31.926V250C315.111,252.209,313.32,254,311.111,254z M214,246h93.111v-25.852      c0-13.193-10.733-23.926-23.926-23.926h-45.26c-13.193,0-23.926,10.733-23.926,23.926V246z"></path></g><g><path d="M260.556,196.222c-22.118,0-40.111-17.994-40.111-40.111c0-22.118,17.994-40.111,40.111-40.111      c22.117,0,40.111,17.994,40.111,40.111C300.667,178.229,282.673,196.222,260.556,196.222z M260.556,124      c-17.706,0-32.111,14.405-32.111,32.111s14.405,32.111,32.111,32.111s32.111-14.405,32.111-32.111S278.262,124,260.556,124z"></path></g><g><path d="M430,404h-70c-2.209,0-4-1.791-4-4v-20.667C356,366.467,366.467,356,379.333,356h31.334      C423.533,356,434,366.467,434,379.333V400C434,402.209,432.209,404,430,404z M364,396h62v-16.667      c0-8.455-6.878-15.333-15.333-15.333h-31.334c-8.455,0-15.333,6.878-15.333,15.333V396z"></path></g><g><path d="M395,364c-15.99,0-29-13.01-29-29s13.01-29,29-29s29,13.01,29,29S410.99,364,395,364z M395,314      c-11.579,0-21,9.421-21,21s9.421,21,21,21s21-9.421,21-21S406.579,314,395,314z"></path></g><g><path d="M390,274c-2.209,0-4-1.791-4-4v-16H144v16c0,2.209-1.791,4-4,4s-4-1.791-4-4v-20c0-2.209,1.791-4,4-4h250      c2.209,0,4,1.791,4,4v20C394,272.209,392.209,274,390,274z"></path></g><g><path d="M430,494H90c-2.209,0-4-1.791-4-4s1.791-4,4-4h340c2.209,0,4,1.791,4,4S432.209,494,430,494z"></path></g><g><path d="M460,494c-1.05,0-2.08-0.431-2.83-1.17c-0.74-0.75-1.17-1.78-1.17-2.83s0.43-2.09,1.17-2.83      c0.75-0.74,1.78-1.17,2.83-1.17s2.08,0.43,2.83,1.17c0.739,0.75,1.17,1.78,1.17,2.83s-0.431,2.08-1.17,2.83      C462.08,493.569,461.05,494,460,494z"></path></g><g><path d="M60,494c-1.05,0-2.08-0.431-2.83-1.17C56.43,492.08,56,491.05,56,490s0.43-2.09,1.17-2.83      c0.75-0.74,1.78-1.17,2.83-1.17c1.05,0,2.08,0.43,2.83,1.17c0.74,0.74,1.17,1.78,1.17,2.83s-0.43,2.08-1.17,2.83      C62.08,493.569,61.05,494,60,494z"></path></g><g><path d="M280,254c-2.209,0-4-1.791-4-4v-20c0-2.209,1.791-4,4-4s4,1.791,4,4v20C284,252.209,282.209,254,280,254z"></path></g><g><path d="M240,254c-2.209,0-4-1.791-4-4v-20c0-2.209,1.791-4,4-4s4,1.791,4,4v20C244,252.209,242.209,254,240,254z"></path></g><g><path d="M170,124h-30c-2.209,0-4-1.791-4-4s1.791-4,4-4h30c2.209,0,4,1.791,4,4S172.209,124,170,124z"></path></g><g><path d="M190,154h-50c-2.209,0-4-1.791-4-4s1.791-4,4-4h50c2.209,0,4,1.791,4,4S192.209,154,190,154z"></path></g><g><path d="M400,124h-30c-2.209,0-4-1.791-4-4s1.791-4,4-4h30c2.209,0,4,1.791,4,4S402.209,124,400,124z"></path></g><g><path d="M400,154h-50c-2.209,0-4-1.791-4-4s1.791-4,4-4h50c2.209,0,4,1.791,4,4S402.209,154,400,154z"></path></g></g></g></g></svg>