<svg xmlns="http://www.w3.org/2000/svg" width="17.706" height="21.784" viewBox="0 0 17.706 21.784">
  <g id="upload-rounded-symbol_1_" data-name="upload-rounded-symbol (1)" transform="translate(-4.387 0.5)">
    <path id="Path_165" data-name="Path 165" d="M21.593,17.238a3.549,3.549,0,0,1-3.546,3.546H8.433a3.549,3.549,0,0,1-3.546-3.546,1.46,1.46,0,0,1,2.92,0,.626.626,0,0,0,.626.626h9.615a.626.626,0,0,0,.626-.626,1.46,1.46,0,1,1,2.92,0ZM9.963,6.8l1.818-1.818v8.291a1.46,1.46,0,0,0,2.92,0V4.985L16.518,6.8a1.46,1.46,0,0,0,2.065-2.065L14.273.428a1.46,1.46,0,0,0-2.065,0L7.9,4.738A1.46,1.46,0,0,0,9.963,6.8Z" fill="none" stroke="#8e8e8e" stroke-width="1"/>
  </g>
</svg>
