<svg xmlns="http://www.w3.org/2000/svg" width="13.145" height="13.144" viewBox="0 0 13.145 13.144">
  <g id="HJFKpc.tif" transform="translate(1909.677 1315.232)">
    <g id="Group_157" data-name="Group 157" transform="translate(-1909.677 -1315.232)">
      <path id="Path_59" data-name="Path 59" d="M-1897.483-1302.088h-11.247a.2.2,0,0,0-.045-.022,1.089,1.089,0,0,1-.9-1.116q0-4.814,0-9.626a1.093,1.093,0,0,1,1.144-1.147h1.732c0-.286,0-.551,0-.816a.407.407,0,0,1,.4-.416.411.411,0,0,1,.413.418c0,.055,0,.111,0,.167v.64h2.472c0-.28,0-.553,0-.826a.4.4,0,0,1,.4-.4.407.407,0,0,1,.407.4c.005.184,0,.368,0,.552v.275h2.472c0-.275,0-.539,0-.8a.407.407,0,0,1,.261-.391.405.405,0,0,1,.553.385c.005.268,0,.537,0,.818h.15c.543,0,1.087,0,1.63,0a1.09,1.09,0,0,1,1.059.814c.012.044.027.088.04.132v10.015c-.01.028-.021.055-.028.083a1.085,1.085,0,0,1-.789.827Zm-9.318-11.1h-1.725c-.238,0-.335.1-.335.334v9.616c0,.227.1.328.33.328h10.848c.234,0,.332-.1.332-.339v-9.6c0-.238-.1-.337-.333-.337-.534,0-1.069,0-1.6,0-.037,0-.073,0-.122.008,0,.276,0,.544,0,.813a.407.407,0,0,1-.406.411.408.408,0,0,1-.408-.409c0-.1,0-.2,0-.3v-.517h-2.472c0,.274,0,.539,0,.8a.406.406,0,0,1-.261.391.406.406,0,0,1-.552-.386c0-.268,0-.537,0-.811h-2.472c0,.259,0,.51,0,.761a.417.417,0,0,1-.406.464.417.417,0,0,1-.409-.46C-1906.8-1312.664-1906.8-1312.916-1906.8-1313.184Z" transform="translate(1909.677 1315.232)" fill="#8e8e8e"/>
      <path id="Path_60" data-name="Path 60" d="M-1907.01-1310.673h1.618v1.212h-1.618Z" transform="translate(1909.897 1315.608)" fill="#8e8e8e"/>
      <path id="Path_61" data-name="Path 61" d="M-1904.358-1309.462v-1.208h1.623v1.208Z" transform="translate(1910.115 1315.608)" fill="#8e8e8e"/>
      <path id="Path_62" data-name="Path 62" d="M-1901.7-1309.46v-1.211h1.624v1.211Z" transform="translate(1910.334 1315.608)" fill="#8e8e8e"/>
      <path id="Path_63" data-name="Path 63" d="M-1905.388-1308.769v1.207h-1.623v-1.207Z" transform="translate(1909.897 1315.765)" fill="#8e8e8e"/>
      <path id="Path_64" data-name="Path 64" d="M-1902.731-1308.77v1.208h-1.623v-1.208Z" transform="translate(1910.116 1315.764)" fill="#8e8e8e"/>
      <path id="Path_65" data-name="Path 65" d="M-1901.7-1307.564v-1.207h1.623v1.207Z" transform="translate(1910.334 1315.765)" fill="#8e8e8e"/>
      <path id="Path_66" data-name="Path 66" d="M-1907.012-1306.875h1.622v1.212h-1.622Z" transform="translate(1909.897 1315.921)" fill="#8e8e8e"/>
      <path id="Path_67" data-name="Path 67" d="M-1904.359-1305.663v-1.209h1.623v1.209Z" transform="translate(1910.115 1315.921)" fill="#8e8e8e"/>
      <path id="Path_68" data-name="Path 68" d="M-1900.08-1305.66h-1.618v-1.212h1.618Z" transform="translate(1910.334 1315.921)" fill="#8e8e8e"/>
    </g>
  </g>
</svg>
