<svg xmlns="http://www.w3.org/2000/svg" width="28.311" height="17.025" viewBox="0 0 28.311 17.025">
  <path id="Path_47" data-name="Path 47" d="M-2311.7-1404.051a8.708,8.708,0,0,1-4.089,2.009,8.505,8.505,0,0,1-9.92-6.95,8.438,8.438,0,0,1,6.719-9.714,8.11,8.11,0,0,1,6.939,1.7c.324.259.482.22.787-.014a8.14,8.14,0,0,1,8.485-1.212,8.07,8.07,0,0,1,5.206,6.817,8.47,8.47,0,0,1-9.125,9.486,8.342,8.342,0,0,1-4.625-1.869q-.145-.117-.292-.232A.386.386,0,0,0-2311.7-1404.051Zm1.046-11.63a8.591,8.591,0,0,1,0,10.583,7,7,0,0,0,9.653-.239,7.092,7.092,0,0,0,.007-10.1A7,7,0,0,0-2310.654-1415.681Zm-2.02.028a6.964,6.964,0,0,0-9.636.19,7.082,7.082,0,0,0,.348,10.465,6.919,6.919,0,0,0,9.28-.139A8.545,8.545,0,0,1-2312.673-1415.653Zm1.008,1.087a6.756,6.756,0,0,0,.018,8.334A6.831,6.831,0,0,0-2311.665-1414.567Z" transform="translate(2325.817 1418.912)" fill="#8e8e8e"/>
</svg>
