<svg xmlns="http://www.w3.org/2000/svg" width="62.946" height="44.964" viewBox="0 0 62.946 44.964">
  <path id="Path_268" data-name="Path 268" d="M-2635.34,660.348c8.648,0,17.3-.018,25.943.013a5.34,5.34,0,0,1,5.048,3.311,5.073,5.073,0,0,1,.471,2.231q-.008,16.858.009,33.715a5.633,5.633,0,0,1-3.819,5.39,5.621,5.621,0,0,1-1.727.285q-25.943.022-51.886,0a5.509,5.509,0,0,1-5.439-4.752,7.6,7.6,0,0,1-.072-1.037q-.005-16.839,0-33.679a5.565,5.565,0,0,1,4.466-5.356,7.449,7.449,0,0,1,1.283-.119Q-2648.2,660.342-2635.34,660.348Zm0,19.326q-14.393,0-28.786-.008c-.368,0-.463.106-.463.466.01,6.549,0,13.1.017,19.647a3.206,3.206,0,0,0,.235,1.15,3.343,3.343,0,0,0,3.23,2.142h51.527a3.413,3.413,0,0,0,3.494-3.5q0-9.679,0-19.359c0-.535,0-.535-.54-.535Zm-.04-2.234h28.751c.543,0,.543,0,.543-.557q0-2.627,0-5.254c0-.495-.006-.5-.5-.5q-28.787,0-57.574-.006c-.341,0-.427.107-.424.429.012,1.8.005,3.6.006,5.4,0,.491,0,.491.487.491Zm0-8.547h28.314c.216,0,.432-.008.648,0,.243.012.342-.079.338-.334-.011-.9.011-1.8-.008-2.7a3.38,3.38,0,0,0-3.342-3.273h-51.843a3.357,3.357,0,0,0-3.306,3.3c-.005.84,0,1.679,0,2.518,0,.487,0,.488.49.488Zm-24.459,25.631a1.112,1.112,0,0,0-1.2,1.074,1.113,1.113,0,0,0,1.155,1.157c.431.012.864,0,1.3,0q12.25,0,24.5-.007a1.779,1.779,0,0,0,.789-.181,1.072,1.072,0,0,0,.455-1.286,1.074,1.074,0,0,0-1.092-.76h-25.9Zm16.909-3.467a4.29,4.29,0,0,0,.538-.027,1.061,1.061,0,0,0,.935-.95,1.037,1.037,0,0,0-.574-1.1,2.477,2.477,0,0,0-.906-.152q-8.309-.013-16.618,0a4.58,4.58,0,0,0-.538.031,1.068,1.068,0,0,0-.937.983,1.115,1.115,0,0,0,.7,1.141,2.871,2.871,0,0,0,.783.076q4.154.007,8.309,0T-2642.931,691.058Z" transform="translate(2666.816 -660.342)" fill="#fff"/>
</svg>
