<svg xmlns="http://www.w3.org/2000/svg" width="18.069" height="23.014" viewBox="0 0 18.069 23.014">
  <g id="UD5KnW" transform="translate(2197.19 1543.786)">
    <g id="Group_190" data-name="Group 190" transform="translate(-2197.19 -1543.786)">
      <path id="Path_85" data-name="Path 85" d="M-2194.731-1534.76c0-.1,0-.185,0-.269.006-1.126-.036-2.255.029-3.378a5.664,5.664,0,0,1,4.19-5.152,6.583,6.583,0,0,1,1.5-.21,19.952,19.952,0,0,1,2.243.031,5.731,5.731,0,0,1,4.931,4,6.25,6.25,0,0,1,.263,1.812q0,1.475,0,2.951v.214c.189.029.358.047.524.083a2.424,2.424,0,0,1,1.929,2.357q.011,4.587,0,9.174a2.453,2.453,0,0,1-2.351,2.374c-.185.007-.371,0-.556,0q-6.319,0-12.638,0a2.451,2.451,0,0,1-2.439-1.859,2.717,2.717,0,0,1-.075-.655q-.007-4.448,0-8.9a2.447,2.447,0,0,1,2.3-2.552C-2194.846-1534.74-2194.8-1534.749-2194.731-1534.76Zm6.572,1.668h-6.456a.831.831,0,0,0-.933.918c0,2.936.006,5.872-.006,8.808a.889.889,0,0,0,.935.948q6.456-.015,12.912,0a.893.893,0,0,0,.95-.955c-.014-2.922-.007-5.843-.007-8.765a.841.841,0,0,0-.96-.954Zm4.916-1.662c0-.068.01-.11.01-.151,0-1.069.011-2.138,0-3.207a4.087,4.087,0,0,0-4.043-4.011c-.563,0-1.126,0-1.689,0a4.093,4.093,0,0,0-4.109,4.12c0,1.005,0,2.01,0,3.015v.235Z" transform="translate(2197.19 1543.786)"/>
      <path id="Path_86" data-name="Path 86" d="M-2023.58-1232.2c0-.278-.006-.556,0-.834a.3.3,0,0,0-.142-.282,1.616,1.616,0,0,1-.62-1.778,1.638,1.638,0,0,1,1.4-1.176,1.636,1.636,0,0,1,1.7,1,1.6,1.6,0,0,1-.469,1.873.557.557,0,0,0-.236.518c.015.491.007.984,0,1.475a.822.822,0,0,1-.823.873.825.825,0,0,1-.816-.881C-2023.582-1231.668-2023.58-1231.932-2023.58-1232.2Z" transform="translate(2031.793 1249.43)"/>
    </g>
  </g>
</svg>
