<svg id="withdraw_2_" data-name="withdraw (2)" xmlns="http://www.w3.org/2000/svg" width="27.498" height="27.498" viewBox="0 0 27.498 27.498">
  <g id="Group_187" data-name="Group 187">
    <g id="Group_186" data-name="Group 186">
      <path id="Path_36" data-name="Path 36" d="M174.838,265.064l-1.984,1.961v-9.951a1.074,1.074,0,1,0-2.148,0v9.845l-1.877-1.854a1.074,1.074,0,1,0-1.51,1.528l2.234,2.207a3.215,3.215,0,0,0,4.562,0l2.234-2.207a1.074,1.074,0,1,0-1.51-1.528Z" transform="translate(-158.031 -242.251)"/>
      <path id="Path_37" data-name="Path 37" d="M325.452,276a1.074,1.074,0,0,0-1.074,1.074,2.151,2.151,0,0,1-2.148,2.148h-5.156a1.074,1.074,0,0,0,0,2.148h5.156a4.3,4.3,0,0,0,4.3-4.3A1.074,1.074,0,0,0,325.452,276Z" transform="translate(-299.029 -261.177)"/>
      <path id="Path_38" data-name="Path 38" d="M163.388,88.273a1.074,1.074,0,0,0,1.485-.322,6.042,6.042,0,0,0,.977-3.273,5.437,5.437,0,1,0-10.849,0,5.9,5.9,0,0,0,.926,3.277,1.074,1.074,0,1,0,1.8-1.171,3.8,3.8,0,0,1-.578-2.106,3.3,3.3,0,1,1,6.552,0,3.9,3.9,0,0,1-.635,2.11A1.074,1.074,0,0,0,163.388,88.273Z" transform="translate(-146.675 -74.642)"/>
      <circle id="Ellipse_3" data-name="Ellipse 3" cx="1.214" cy="1.214" r="1.214" transform="translate(21.032 8.893)"/>
      <circle id="Ellipse_4" data-name="Ellipse 4" cx="1.214" cy="1.214" r="1.214" transform="translate(4.038 8.893)"/>
      <path id="Path_39" data-name="Path 39" d="M23.2,0H4.3A4.3,4.3,0,0,0,0,4.3V15.9a4.3,4.3,0,0,0,4.3,4.3H9.452a1.074,1.074,0,0,0,0-2.148H4.3A2.151,2.151,0,0,1,2.148,15.9V4.3A2.151,2.151,0,0,1,4.3,2.148H23.2A2.151,2.151,0,0,1,25.35,4.3v6.23a1.074,1.074,0,0,0,2.148,0V4.3A4.3,4.3,0,0,0,23.2,0Z"/>
    </g>
  </g>
</svg>
