<?xml version="1.0" encoding="utf-8"?>
<!-- Generator: Adobe Illustrator 24.3.0, SVG Export Plug-In . SVG Version: 6.00 Build 0)  -->
<svg version="1.1" id="Layer_1" xmlns="http://www.w3.org/2000/svg" xmlns:xlink="http://www.w3.org/1999/xlink" x="0px" y="0px"
	 viewBox="0 0 153.9 138.4" style="enable-background:new 0 0 153.9 138.4;" xml:space="preserve">
<style type="text/css">
	.st0{opacity:0.3;}
	.st1{opacity:0;fill:#053A58;}
	.st2{opacity:7.692308e-02;fill:#053A58;}
	.st3{opacity:0.1538;fill:#053A58;}
	.st4{opacity:0.2308;fill:#053A58;}
	.st5{opacity:0.3077;fill:#053A58;}
	.st6{opacity:0.3846;fill:#053A58;}
	.st7{opacity:0.4615;fill:#053A58;}
	.st8{opacity:0.5385;fill:#053A58;}
	.st9{opacity:0.6154;fill:#053A58;}
	.st10{opacity:0.6923;fill:#053A58;}
	.st11{opacity:0.7692;fill:#053A58;}
	.st12{opacity:0.8462;fill:#053A58;}
	.st13{opacity:0.9231;fill:#053A58;}
	.st14{fill:#053A58;}
	.st15{fill:#FFFFFF;}
	.st16{fill:#9F9F9F;}
	.st17{fill:url(#SVGID_1_);}
	.st18{fill:#E7515B;}
	.st19{filter:url(#Adobe_OpacityMaskFilter);}
	.st20{filter:url(#Adobe_OpacityMaskFilter_1_);}
	.st21{clip-path:url(#SVGID_3_);mask:url(#SVGID_4_);fill:url(#SVGID_5_);}
	.st22{clip-path:url(#SVGID_3_);fill:#ED2228;}
</style>
<g>
	<g class="st0">
		<path class="st1" d="M101.9,123c0,5.5-4.4,9.9-9.9,9.9H14.5c-5.5,0-9.9-4.4-9.9-9.9V45.6c0-5.5,4.4-9.9,9.9-9.9h77.4
			c5.5,0,9.9,4.4,9.9,9.9V123z"/>
		<path class="st2" d="M103.3,121.6c0,5.5-4.4,9.9-9.9,9.9H16c-5.5,0-9.9-4.4-9.9-9.9V44.2c0-5.5,4.4-9.9,9.9-9.9h77.4
			c5.5,0,9.9,4.4,9.9,9.9V121.6z"/>
		<path class="st3" d="M104.7,120.2c0,5.5-4.4,9.9-9.9,9.9H17.4c-5.5,0-9.9-4.4-9.9-9.9V42.8c0-5.5,4.4-9.9,9.9-9.9h77.4
			c5.5,0,9.9,4.4,9.9,9.9V120.2z"/>
		<path class="st4" d="M106.1,118.8c0,5.5-4.4,9.9-9.9,9.9H18.8c-5.5,0-9.9-4.4-9.9-9.9V41.4c0-5.5,4.4-9.9,9.9-9.9h77.4
			c5.5,0,9.9,4.4,9.9,9.9V118.8z"/>
		<path class="st5" d="M107.5,117.4c0,5.5-4.4,9.9-9.9,9.9H20.2c-5.5,0-9.9-4.4-9.9-9.9V40c0-5.5,4.4-9.9,9.9-9.9h77.4
			c5.5,0,9.9,4.4,9.9,9.9V117.4z"/>
		<path class="st6" d="M109,115.9c0,5.5-4.4,9.9-9.9,9.9H21.6c-5.5,0-9.9-4.4-9.9-9.9V38.5c0-5.5,4.4-9.9,9.9-9.9H99
			c5.5,0,9.9,4.4,9.9,9.9V115.9z"/>
		<path class="st7" d="M110.4,114.5c0,5.5-4.4,9.9-9.9,9.9H23c-5.5,0-9.9-4.4-9.9-9.9V37.1c0-5.5,4.4-9.9,9.9-9.9h77.4
			c5.5,0,9.9,4.4,9.9,9.9V114.5z"/>
		<path class="st8" d="M111.8,113.1c0,5.5-4.4,9.9-9.9,9.9H24.5c-5.5,0-9.9-4.4-9.9-9.9V35.7c0-5.5,4.4-9.9,9.9-9.9h77.4
			c5.5,0,9.9,4.4,9.9,9.9V113.1z"/>
		<path class="st9" d="M113.2,111.7c0,5.5-4.4,9.9-9.9,9.9H25.9c-5.5,0-9.9-4.4-9.9-9.9V34.3c0-5.5,4.4-9.9,9.9-9.9h77.4
			c5.5,0,9.9,4.4,9.9,9.9V111.7z"/>
		<path class="st10" d="M114.6,110.3c0,5.5-4.4,9.9-9.9,9.9H27.3c-5.5,0-9.9-4.4-9.9-9.9V32.9c0-5.5,4.4-9.9,9.9-9.9h77.4
			c5.5,0,9.9,4.4,9.9,9.9V110.3z"/>
		<path class="st11" d="M116.1,108.8c0,5.5-4.4,9.9-9.9,9.9H28.7c-5.5,0-9.9-4.4-9.9-9.9V31.4c0-5.5,4.4-9.9,9.9-9.9h77.4
			c5.5,0,9.9,4.4,9.9,9.9V108.8z"/>
		<path class="st12" d="M117.5,107.4c0,5.5-4.4,9.9-9.9,9.9H30.1c-5.5,0-9.9-4.4-9.9-9.9V30c0-5.5,4.4-9.9,9.9-9.9h77.4
			c5.5,0,9.9,4.4,9.9,9.9V107.4z"/>
		<path class="st13" d="M118.9,106c0,5.5-4.4,9.9-9.9,9.9H31.6c-5.5,0-9.9-4.4-9.9-9.9V28.6c0-5.5,4.4-9.9,9.9-9.9H109
			c5.5,0,9.9,4.4,9.9,9.9V106z"/>
		<path class="st14" d="M120.3,104.6c0,5.5-4.4,9.9-9.9,9.9H33c-5.5,0-9.9-4.4-9.9-9.9V27.2c0-5.5,4.4-9.9,9.9-9.9h77.4
			c5.5,0,9.9,4.4,9.9,9.9V104.6z"/>
	</g>
	<path class="st15" d="M121.9,103.4c0,5.5-4.4,9.9-9.9,9.9H34.5c-5.5,0-9.9-4.4-9.9-9.9V26c0-5.5,4.4-9.9,9.9-9.9h77.4
		c5.5,0,9.9,4.4,9.9,9.9V103.4z"/>
	<path class="st16" d="M120.3,104.6c0,5.5-4.4,9.9-9.9,9.9H33c-5.5,0-9.9-4.4-9.9-9.9V27.2c0-5.5,4.4-9.9,9.9-9.9h77.4
		c5.5,0,9.9,4.4,9.9,9.9V104.6z"/>
	<linearGradient id="SVGID_1_" gradientUnits="userSpaceOnUse" x1="45.2397" y1="104.4593" x2="107.2339" y2="14.3922">
		<stop  offset="0" style="stop-color:#FFFFFF"/>
		<stop  offset="0.2659" style="stop-color:#FBFBFB"/>
		<stop  offset="0.5347" style="stop-color:#EFEFEF"/>
		<stop  offset="0.804" style="stop-color:#DBDBDB"/>
		<stop  offset="1" style="stop-color:#C8C7C7"/>
	</linearGradient>
	<path class="st17" d="M121.1,102.8c0,5.4-4.4,9.7-9.9,9.7H33.8c-5.5,0-9.9-4.4-9.9-9.7V27c0-5.4,4.4-9.7,9.9-9.7h77.4
		c5.5,0,9.9,4.4,9.9,9.7V102.8z"/>
	<path class="st16" d="M74.1,53.9c-1.1,1.1-3,1.1-4.1,0L52,35.8c-4.6-4.6-10.6-5.9-13.5-3c-2.9,2.9-1.6,9,3,13.5l18.1,18.1
		c1.1,1.1,1.1,3,0,4.1L41.4,86.6c-4.6,4.6-5.9,10.6-3,13.5c2.9,2.9,9,1.6,13.5-3L70,79.1c1.1-1.1,3-1.1,4.1,0l18.1,18.1
		c4.6,4.6,10.6,5.9,13.5,3c2.9-2.9,1.6-9-3-13.5L84.7,68.5c-1.1-1.1-1.1-3,0-4.1l18.1-18.1c4.6-4.6,5.9-10.6,3-13.5
		c-2.9-2.9-9-1.6-13.5,3L74.1,53.9z"/>
	<path class="st15" d="M75.3,52.7c-1.1,1.1-3,1.1-4.1,0L53.1,34.6c-4.6-4.6-10.6-5.9-13.5-3c-2.9,2.9-1.6,9,3,13.5l18.1,18.1
		c1.1,1.1,1.1,3,0,4.1L42.5,85.4C38,90,36.6,96,39.5,98.9c2.9,2.9,9,1.6,13.5-3l18.1-18.1c1.1-1.1,3-1.1,4.1,0L93.3,96
		c4.6,4.6,10.6,5.9,13.5,3c2.9-2.9,1.6-9-3-13.5L85.8,67.4c-1.1-1.1-1.1-3,0-4.1l18.1-18.1c4.6-4.6,5.9-10.6,3-13.5
		c-2.9-2.9-9-1.6-13.5,3L75.3,52.7z"/>
	<path class="st18" d="M75.3,53.5c-1.1,1.1-3,1.1-4.1,0L53.1,35.4c-4.6-4.6-10.6-5.9-13.5-3c-2.9,2.9-1.6,9,3,13.5L60.6,64
		c1.1,1.1,1.1,3,0,4.1L42.5,86.2c-4.6,4.6-5.9,10.6-3,13.5c2.9,2.9,9,1.6,13.5-3l18.1-18.1c1.1-1.1,3-1.1,4.1,0l18.1,18.1
		c4.6,4.6,10.6,5.9,13.5,3c2.9-2.9,1.6-9-3-13.5L85.8,68.1c-1.1-1.1-1.1-3,0-4.1L103.9,46c4.6-4.6,5.9-10.6,3-13.5
		c-2.9-2.9-9-1.6-13.5,3L75.3,53.5z"/>
	<g>
		<defs>
			<path id="SVGID_2_" d="M74.5,53.5c-1.1,1.1-3,1.1-4.1,0L52.4,35.4c-4.6-4.6-10.6-5.9-13.5-3c-2.9,2.9-1.6,9,3,13.5L59.9,64
				c1.1,1.1,1.1,3,0,4.1L41.8,86.2c-4.6,4.6-5.9,10.6-3,13.5c2.9,2.9,9,1.6,13.5-3l18.1-18.1c1.1-1.1,3-1.1,4.1,0l18.1,18.1
				c4.6,4.6,10.6,5.9,13.5,3c2.9-2.9,1.6-9-3-13.5L85.1,68.1c-1.1-1.1-1.1-3,0-4.1L103.2,46c4.6-4.6,5.9-10.6,3-13.5
				c-2.9-2.9-9-1.6-13.5,3L74.5,53.5z"/>
		</defs>
		<clipPath id="SVGID_3_">
			<use xlink:href="#SVGID_2_"  style="overflow:visible;"/>
		</clipPath>
		<defs>
			<filter id="Adobe_OpacityMaskFilter" filterUnits="userSpaceOnUse" x="36" y="34.1" width="70.5" height="70.5">
				<feFlood  style="flood-color:white;flood-opacity:1" result="back"/>
				<feBlend  in="SourceGraphic" in2="back" mode="normal"/>
			</filter>
		</defs>
		<mask maskUnits="userSpaceOnUse" x="36" y="34.1" width="70.5" height="70.5" id="SVGID_4_">
			<g class="st19">
				<defs>
					<filter id="Adobe_OpacityMaskFilter_1_" filterUnits="userSpaceOnUse" x="36" y="34.1" width="70.5" height="70.5">
						<feFlood  style="flood-color:white;flood-opacity:1" result="back"/>
						<feBlend  in="SourceGraphic" in2="back" mode="normal"/>
					</filter>
				</defs>
				<mask maskUnits="userSpaceOnUse" x="36" y="34.1" width="70.5" height="70.5" id="SVGID_4_">
					<g class="st20">
					</g>
				</mask>
				<linearGradient id="SVGID_5_" gradientUnits="userSpaceOnUse" x1="40.9429" y1="100.3843" x2="104.8866" y2="34.881">
					<stop  offset="0" style="stop-color:#FFFFFF"/>
					<stop  offset="1" style="stop-color:#666666"/>
				</linearGradient>
				<path class="st21" d="M73.3,56.8c-1.1,1.1-3,1.1-4.1,0L51.1,38.7c-4.6-4.6-10.6-5.9-13.5-3c-2.9,2.9-1.6,9,3,13.5l18.1,18.1
					c1.1,1.1,1.1,3,0,4.1L40.5,89.5c-4.6,4.6-5.9,10.6-3,13.5c2.9,2.9,9,1.6,13.5-3L69.1,82c1.1-1.1,3-1.1,4.1,0l18.1,18.1
					c4.6,4.6,10.6,5.9,13.5,3c2.9-2.9,1.6-9-3-13.5L83.8,71.4c-1.1-1.1-1.1-3,0-4.1l18.1-18.1c4.6-4.6,5.9-10.6,3-13.5
					c-2.9-2.9-9-1.6-13.5,3L73.3,56.8z"/>
			</g>
		</mask>
		<path class="st22" d="M73.3,56.8c-1.1,1.1-3,1.1-4.1,0L51.1,38.7c-4.6-4.6-10.6-5.9-13.5-3c-2.9,2.9-1.6,9,3,13.5l18.1,18.1
			c1.1,1.1,1.1,3,0,4.1L40.5,89.5c-4.6,4.6-5.9,10.6-3,13.5c2.9,2.9,9,1.6,13.5-3L69.1,82c1.1-1.1,3-1.1,4.1,0l18.1,18.1
			c4.6,4.6,10.6,5.9,13.5,3c2.9-2.9,1.6-9-3-13.5L83.8,71.4c-1.1-1.1-1.1-3,0-4.1l18.1-18.1c4.6-4.6,5.9-10.6,3-13.5
			c-2.9-2.9-9-1.6-13.5,3L73.3,56.8z"/>
	</g>
</g>
</svg>
