<svg xmlns="http://www.w3.org/2000/svg" width="23.48" height="23.48" viewBox="0 0 23.48 23.48">
  <g id="Icon_feather-copy" data-name="Icon feather-copy" transform="translate(-2.25 -2.25)">
    <path id="Path_4572" data-name="Path 4572" d="M15.7,13.5h9.891a2.2,2.2,0,0,1,2.2,2.2v9.891a2.2,2.2,0,0,1-2.2,2.2H15.7a2.2,2.2,0,0,1-2.2-2.2V15.7A2.2,2.2,0,0,1,15.7,13.5Z" transform="translate(-2.807 -2.807)" fill="none" stroke="#000" stroke-linecap="round" stroke-linejoin="round" stroke-width="1.5"/>
    <path id="Path_4573" data-name="Path 4573" d="M6.3,17.287H5.2a2.2,2.2,0,0,1-2.2-2.2V5.2A2.2,2.2,0,0,1,5.2,3h9.891a2.2,2.2,0,0,1,2.2,2.2V6.3" fill="none" stroke="#000" stroke-linecap="round" stroke-linejoin="round" stroke-width="1.5"/>
  </g>
</svg>
