<svg xmlns="http://www.w3.org/2000/svg" width="22.323" height="20.089" viewBox="0 0 22.323 20.089">
  <path id="Path_55" data-name="Path 55" d="M-2382.363-1085.13v-5.332a3.118,3.118,0,0,1,2.555-3.072,3.125,3.125,0,0,1,2.373.542,5.152,5.152,0,0,1,.73.633c1.643,1.626,3.286,3.163,4.929,4.789.456.452,1,.9,1.551,1.446v-4.338a3.217,3.217,0,0,1,1.534-2.8,3.206,3.206,0,0,1,4.782,2.259,7.78,7.78,0,0,1,.09,1.446v4.067c0,2.44-.09,4.88-.09,7.32a3.164,3.164,0,0,1-4.422,2.711,5.509,5.509,0,0,1-1.444-1.084c-1.443-1.355-2.887-2.8-4.331-4.157-1.8-1.717-3.7-3.524-5.5-5.241l-.271-.271c-.993-.723-1.985-.361-2.346.9.181,0,.181.09,0,.181Z" transform="translate(2385.391 1094.491)" fill="none" stroke="#000" stroke-miterlimit="10" stroke-width="1.5"/>
</svg>
