<?xml version="1.0" encoding="utf-8"?>
<!-- Generator: Adobe Illustrator 24.3.0, SVG Export Plug-In . SVG Version: 6.00 Build 0)  -->
<svg version="1.1" id="Layer_1" xmlns="http://www.w3.org/2000/svg" xmlns:xlink="http://www.w3.org/1999/xlink" x="0px" y="0px"
	 viewBox="0 0 38.5 38.5" style="enable-background:new 0 0 38.5 38.5;" xml:space="preserve">
<style type="text/css">
	.st0{fill:#F7CAA5;}
	.st1{fill:#F2F2F2;}
	.st2{fill:#EDB288;}
	.st3{fill:#FFB09E;}
	.st4{fill:#5F99D7;}
	.st5{fill:#3C87D0;}
	.st6{fill:#FFCEBF;}
	.st7{fill:#FFB612;}
	.st8{fill:#FFAD36;}
	.st9{fill:#EA8E5C;}
	.st10{fill:#B3CEEC;}
	.st11{fill:#98BCE5;}
	.st12{fill:#0A0B0C;}
	.st13{fill:#DD774A;}
	.st14{fill:#0B0E0F;}
	.st15{fill:#FFA733;}
	.st16{fill:#FFFFFF;}
	.st17{fill:#FF9811;}
	.st18{fill:#F29010;}
	.st19{fill:#ACABB1;}
	.st20{fill:#898890;}
	.st21{fill:#57ABC1;stroke:#F2F2F2;stroke-miterlimit:10;}
	.st22{fill:#EBBA16;stroke:#F2F2F2;stroke-miterlimit:10;}
	.st23{fill:#366DB6;stroke:#F2F2F2;stroke-miterlimit:10;}
	.st24{fill:#DC691D;}
	.st25{fill:#EBBA16;}
	.st26{fill:#2D6D77;}
	.st27{fill:#408A9B;}
</style>
<path class="st0" d="M-79.7,61.2l4.8-2.3c1.1-0.5,2.4-0.1,3,0.9l-9.8,6.4c-1.3,0.6-2.8,0.8-4.2,0.5l-6.8-1.9
	c-0.6-0.2-1.3-0.1-1.9,0.2l-1.4,0.8l0.2-6.9h0.1c2-1.4,4.7-1.6,6.9-0.5l0.4,0.2c0.6,0.3,1.3,0.5,2.1,0.5l4,0.1
	C-81.2,59.2-80.1,60-79.7,61.2z"/>
<path d="M-78.3,49.1c0,4.1-3.3,7.5-7.5,7.5c-4.1,0-7.5-3.3-7.5-7.5s3.3-7.5,7.5-7.5C-81.7,41.6-78.3,44.9-78.3,49.1z"/>
<path class="st1" d="M-85.8,48.5c-0.7,0-1.3-0.6-1.3-1.3s0.6-1.3,1.3-1.3c0.7,0,1.3,0.6,1.3,1.3c0,0.3,0.2,0.6,0.6,0.6
	c0.3,0,0.6-0.2,0.6-0.6c0-1.1-0.8-2.1-1.9-2.3v-0.5c0-0.3-0.2-0.6-0.6-0.6c-0.3,0-0.6,0.2-0.6,0.6v0.5c-1.1,0.3-1.9,1.4-1.7,2.6
	c0.2,1.2,1.2,2,2.3,2c0.7,0,1.3,0.5,1.3,1.2S-85,52-85.7,52c-0.1,0-0.1,0-0.2,0c-0.6-0.1-1.1-0.6-1.1-1.2c0-0.3-0.2-0.6-0.6-0.6
	c-0.3,0-0.6,0.2-0.6,0.6c0,1.1,0.7,2,1.7,2.3v0.6c0,0.3,0.2,0.6,0.6,0.6c0.3,0,0.6-0.2,0.6-0.6v-0.5c1.2-0.2,2-1.3,1.9-2.6
	C-83.6,49.4-84.6,48.5-85.8,48.5z"/>
<path class="st2" d="M-79.5,62.8L-79.5,62.8l-6.6-0.2c-0.3,0-0.5-0.3-0.5-0.6s0.3-0.5,0.6-0.5l5.9,0.2c0-0.1,0-0.2-0.1-0.3
	c-0.3-1-1.2-1.6-2.2-1.7l-4-0.1c-0.8,0-1.6-0.2-2.3-0.6l-0.4-0.2c-2-1.1-4.5-0.9-6.3,0.4c-0.2,0.2-0.6,0.1-0.8-0.1
	c-0.2-0.2-0.1-0.6,0.1-0.8c2.2-1.6,5.1-1.8,7.5-0.5l0.4,0.2c0.6,0.3,1.2,0.5,1.8,0.5l4,0.1c0.9,0,1.8,0.4,2.5,1.1
	c0.6,0.7,1,1.6,1,2.5C-79,62.5-79.2,62.8-79.5,62.8L-79.5,62.8z"/>
<g>
	<path d="M-85.8,40.1c-0.3,0-0.6-0.2-0.6-0.6v-5.2c0-0.3,0.2-0.6,0.6-0.6c0.3,0,0.6,0.2,0.6,0.6v5.2C-85.2,39.8-85.5,40.1-85.8,40.1
		z"/>
	<path d="M-81.7,40.1c-0.3,0-0.6-0.2-0.6-0.6V37c0-0.3,0.2-0.6,0.6-0.6c0.3,0,0.6,0.2,0.6,0.6v2.5C-81.1,39.8-81.3,40.1-81.7,40.1z"
		/>
	<path d="M-89.9,40.1c-0.3,0-0.6-0.2-0.6-0.6V37c0-0.3,0.2-0.6,0.6-0.6c0.3,0,0.6,0.2,0.6,0.6v2.5C-89.4,39.8-89.6,40.1-89.9,40.1z"
		/>
</g>
<path d="M-96,65.7v0.8l-4.4-0.1l0.3-9.6l4.4,0.1l-0.1,1.9L-96,65.7z"/>
<g>
	<path class="st3" d="M-131.9-85.4h-2.1v-3.7h2.1c0.6,0,1.1,0.5,1.1,1.1v1.5C-130.8-85.9-131.3-85.4-131.9-85.4L-131.9-85.4z"/>
</g>
<g>
	<path class="st3" d="M-146.5-89.2h2v3.7h-2c-0.6,0-1.1-0.5-1.1-1.1v-1.5C-147.5-88.7-147.1-89.2-146.5-89.2L-146.5-89.2z"/>
</g>
<g>
	<path class="st4" d="M-151.6-69.9l6.4,2l2.6,2.9l6.1,2.7h9.5c0.4,0,0.7-0.3,0.7-0.7v-6.9c0-4.5-3.7-8.2-8.2-8.2h-8l-1.2,0.1
		C-148.3-78.1-151.6-74.5-151.6-69.9z"/>
</g>
<path class="st5" d="M-126.4-69.9c0-3.7-2.5-6.8-5.8-7.9c-0.3,1.4,0,2.9,0.8,4.2l1.8,3.1c-0.8,0.4-1.3,1.1-1.3,2
	c0,1.2,1,2.2,2.2,2.2h2.3L-126.4-69.9L-126.4-69.9z"/>
<g>
	<path class="st5" d="M-150.1-63.9v-6c0-4.5,3.7-8.2,8.2-8.2h-1.9c-4.5,0-8.2,3.7-8.2,8.2v6c0,0.4,0.3,0.7,0.7,0.7h1.9
		C-149.8-63.2-150.1-63.5-150.1-63.9z"/>
</g>
<g>
	<path class="st6" d="M-139.2-75.2h-0.2c-1.4,0-2.2-0.9-2.2-2.3l0.1-4.1h4.9v4.1c0,1.1-0.8,2.1-1.8,2.4
		C-138.6-75.1-138.9-75.2-139.2-75.2z"/>
</g>
<g>
	<path class="st3" d="M-140.3-77.6v-4h-1.5v4c0,1.4,1.2,2.6,2.6,2.6c0.3,0,0.5,0,0.8-0.1C-139.5-75.4-140.3-76.4-140.3-77.6z"/>
</g>
<g>
	<path class="st6" d="M-135.6-94.8h-7.3c-1.3,0-2,1.1-2,2.4l-0.1,7.5c0,3,2.1,5.4,5.1,5.4l1.1,0.1c3,0,5.5-2.4,5.5-5.5v-7.5
		C-133.2-93.8-134.3-94.8-135.6-94.8L-135.6-94.8z"/>
</g>
<g>
	<path class="st3" d="M-143.6-85v-7.5c0-1.3,1.1-2.4,2.4-2.4h-1.5c-1.3,0-2.4,1.1-2.4,2.4v7.5c0,3,2.4,5.5,5.5,5.5h1
		c0.1,0,0.2,0,0.2,0C-141.3-79.6-143.6-82-143.6-85L-143.6-85z"/>
</g>
<g>
	<path class="st7" d="M-139-91.3l1.2,0.8c1.2,0.8,2.6,1.3,4,1.3h1.2v-3.3c0-2.8-2.2-5-5-5h-1.7h-0.6l-1.1,0.1c-2.8,0-4.4,2.2-4.4,5
		l-0.2,2.8l0.9,0.4c0.1,0,0.1,0,0.2,0c1.4,0,2.7-0.5,3.8-1.3l1.2-0.8C-139.3-91.4-139.1-91.4-139-91.3L-139-91.3z"/>
</g>
<g>
	<path class="st8" d="M-144.4-92.5c0-2.8,2.2-5,5-5h-1.4c-2.8,0-5,2.2-5,5v3.3h1.2c0.1,0,0.1,0,0.2,0V-92.5z"/>
</g>
<g>
	<path class="st9" d="M-139.2-82.2c-0.5,0-1.1-0.1-1.5-0.4l-0.3-0.2c-0.3-0.1-0.3-0.5-0.2-0.7c0.1-0.3,0.5-0.3,0.7-0.2l0.3,0.2
		c0.6,0.4,1.4,0.4,2,0l0.3-0.2c0.3-0.1,0.6-0.1,0.7,0.2c0.1,0.3,0.1,0.6-0.2,0.7l-0.3,0.2C-138.1-82.3-138.7-82.2-139.2-82.2z"/>
</g>
<g>
	<path class="st10" d="M-136.5-62.4h-4.9l-1.2-2.2l1.2-0.7h4.2c0.4,0,0.7,0.3,0.7,0.7V-62.4z"/>
</g>
<g>
	<path class="st11" d="M-142.5-64.2l-0.3,1l1.4,0.8h1.3v-2.8h-1.3L-142.5-64.2z"/>
</g>
<g>
	<path d="M-141.4-62.4h-13.8l-0.5-0.3c-0.4,0-0.2,0-0.2-0.3l-0.3-8.5c0-0.4,0-0.5,0.4-0.5l1.3-0.2h12.6c0.4,0,0.7,0.3,0.7,0.7v9.1
		H-141.4z"/>
</g>
<g>
	<path class="st12" d="M-154.5-72.2h-1.5c-0.4,0-0.7,0.3-0.7,0.7v8.5c0,0.4,0.3,0.7,0.7,0.7h0.8v-9.2
		C-155.3-71.9-154.9-72.2-154.5-72.2L-154.5-72.2z"/>
</g>
<g>
	<path class="st4" d="M-149.1-66L-149.1-66c-0.8,0-1.3-0.6-1.3-1.3v-0.1c0-0.7,0.6-1.3,1.3-1.3h0.1c0.7,0,1.3,0.6,1.3,1.3v0.1
		C-147.8-66.6-148.4-66-149.1-66z"/>
</g>
<circle class="st13" cx="-141.8" cy="-86.4" r="0.5"/>
<circle class="st13" cx="-136.5" cy="-86.4" r="0.5"/>
<g id="Glyph">
	<path d="M-258.5,7.3h1.2v7.3h-1.2V7.3z"/>
	<path d="M-256,7.3h1.2v7.3h-1.2V7.3z"/>
	<path d="M-253.6,7.3h1.2v7.3h-1.2V7.3z"/>
	<path d="M-260.9,7.3h1.2v7.3h-1.2V7.3z"/>
	<path d="M-262.1,15.9h18.3v1.2h-18.3V15.9z"/>
	<path d="M-262.1,4.9h18.3v1.2h-18.3V4.9z"/>
	<path d="M-245.8,3.7l-7.2-3.6l-7.2,3.6H-245.8z"/>
	<path d="M-246.2,7.3h1.2v7.3h-1.2V7.3z"/>
	<path d="M-248.7,7.3h1.2v7.3h-1.2V7.3z"/>
	<path d="M-251.1,7.3h1.2v7.3h-1.2V7.3z"/>
	<path d="M-267,9.8v-8c0-0.3,0.3-0.6,0.6-0.6h0.4l-1.6-1.6l-1.6,1.6h0.4c0.3,0,0.6,0.3,0.6,0.6v9.8h3.7v-1.2h-1.8
		C-266.7,10.4-267,10.1-267,9.8z"/>
	<path d="M-238.3-0.4l-1.6,1.6h0.4c0.3,0,0.6,0.3,0.6,0.6v7.9c0,0.3-0.3,0.6-0.6,0.6h-1.8v1.2h3.7V1.8c0-0.3,0.3-0.6,0.6-0.6h0.4
		L-238.3-0.4z"/>
	<circle cx="-252.3" cy="-9.2" r="1.8"/>
	<path d="M-255.4-9.2c0-1.7,1.4-3.1,3.1-3.1h-7.4c-0.2,0.9-0.9,1.5-1.8,1.8v2.6c0.9,0.2,1.5,0.9,1.8,1.8h7.4
		C-254-6.1-255.4-7.5-255.4-9.2z M-258.5-7.3c-1,0-1.8-0.8-1.8-1.8s0.8-1.8,1.8-1.8s1.8,0.8,1.8,1.8S-257.4-7.3-258.5-7.3z"/>
	<circle cx="-258.5" cy="-9.2" r="0.6"/>
	<path d="M-265.2-15.9h23.2v-1.2h-24.4v12.2h1.2V-15.9z"/>
	<circle cx="-246.2" cy="-9.2" r="0.6"/>
	<path d="M-244.9-12.2h-7.4c1.7,0,3.1,1.4,3.1,3.1s-1.4,3.1-3.1,3.1h7.4c0.2-0.9,0.9-1.5,1.8-1.8v-2.6
		C-244-10.7-244.7-11.4-244.9-12.2z M-246.2-7.3c-1,0-1.8-0.8-1.8-1.8s0.8-1.8,1.8-1.8s1.8,0.8,1.8,1.8S-245.2-7.3-246.2-7.3z"/>
	<path d="M-240.7-14.7H-264v11h23.2v-11H-240.7z M-242-6.7h-0.6c-0.7,0-1.2,0.5-1.2,1.2v0.6h-17.1v-0.6c0-0.7-0.5-1.2-1.2-1.2h-0.6
		v-4.9h0.6c0.7,0,1.2-0.5,1.2-1.2v-0.6h17.1v0.6c0,0.7,0.5,1.2,1.2,1.2h0.6L-242-6.7L-242-6.7z"/>
</g>
<path d="M104.8-33.9h14.4c0.7,0,1.2,0.5,1.2,1.2v9.6c0,0.7-0.5,1.2-1.2,1.2h-14.4c-0.7,0-1.2-0.5-1.2-1.2v-9.6
	C103.6-33.4,104.2-33.9,104.8-33.9z"/>
<path class="st14" d="M120.4-32.7v9.6c0,0.7-0.5,1.2-1.2,1.2h-11.3c3.7-3.5,6.9-7.5,9.4-12h1.9C119.9-33.9,120.4-33.4,120.4-32.7z"
	/>
<path class="st15" d="M116.8-31.5c-0.3,0-0.7,0.2-0.9,0.4c0.4,0.4,0.4,1.1,0,1.6c0.2,0.3,0.6,0.4,0.9,0.4c0.7,0,1.2-0.5,1.2-1.2
	S117.5-31.5,116.8-31.5z"/>
<path class="st16" d="M106-31.5h3.6v2.4H106V-31.5z"/>
<path d="M106-18.3v3.5H85.7v-3.6l10.2-2.4L106-18.3z"/>
<path class="st16" d="M97-17.8c0,0.7-0.5,1.2-1.2,1.2c-0.7,0-1.2-0.5-1.2-1.2s0.5-1.2,1.2-1.2C96.5-18.9,97-18.4,97-17.8z"/>
<path class="st15" d="M87.5-14.8h2.4V-4h-2.4V-14.8z"/>
<path class="st15" d="M101.8-14.8h2.4V-4h-2.4V-14.8z"/>
<path class="st17" d="M104.8-4h-18v2.4h18V-4z"/>
<path d="M106-1.6H85.7v2.4h20.4L106-1.6L106-1.6z"/>
<path class="st15" d="M115.9-31.1c-0.3-0.4-0.9-0.5-1.3-0.3c-0.5,0.2-0.8,0.6-0.8,1.1s0.3,0.9,0.8,1.1c0.5,0.2,1,0,1.3-0.3
	C116.3-30,116.3-30.7,115.9-31.1z"/>
<path class="st18" d="M101.8-14.8h2.4v1.2h-2.4V-14.8z"/>
<path class="st18" d="M87.5-14.8h2.4v1.2h-2.4V-14.8z"/>
<path class="st15" d="M89.9-14.8h12v1.2h-12C89.9-13.6,89.9-14.8,89.9-14.8z"/>
<path class="st19" d="M106.6-27.3h1.2v1.2h-1.2V-27.3z"/>
<path class="st19" d="M109-27.3h1.2v1.2H109V-27.3z"/>
<path class="st19" d="M111.4-27.3h1.2v1.2h-1.2V-27.3z"/>
<path class="st19" d="M113.8-27.3h1.2v1.2h-1.2V-27.3z"/>
<path class="st19" d="M116.2-27.3h1.2v1.2h-1.2V-27.3z"/>
<path class="st20" d="M106.6-24.9h4.8v1.2h-4.8C106.6-23.7,106.6-24.9,106.6-24.9z"/>
<path class="st20" d="M112.6-24.9h4.8v1.2h-4.8C112.6-23.7,112.6-24.9,112.6-24.9z"/>
<g>
	<path d="M96.4-9.4h-1.2c-0.3,0-0.6-0.3-0.6-0.6s0.3-0.6,0.6-0.6h1.2c0.3,0,0.6,0.3,0.6,0.6h1.2c0-1-0.8-1.8-1.8-1.8v-0.6h-1.2v0.6
		c-1,0-1.8,0.8-1.8,1.8s0.8,1.8,1.8,1.8h1.2c0.3,0,0.6,0.3,0.6,0.6S96.7-7,96.4-7h-1.2c-0.3,0-0.6-0.3-0.6-0.6h-1.1
		c0,1,0.8,1.8,1.8,1.8v0.6h1.2v-0.6c1,0,1.8-0.8,1.8-1.8S97.4-9.4,96.4-9.4z"/>
	<path d="M107.8-8.2h1.2V-7h-1.2V-8.2z"/>
	<path d="M110.2-8.2h1.2V-7h-1.2V-8.2z"/>
	<path d="M112.6-8.2h1.2V-7h-1.2V-8.2z"/>
	<path d="M112.6-10.6h1.2v1.2h-1.2V-10.6z"/>
	<path d="M112.6-13h1.2v1.2h-1.2V-13z"/>
	<path d="M112.6-15.4h1.2v1.2h-1.2V-15.4z"/>
	<path d="M112.6-17.8h1.2v1.2h-1.2V-17.8z"/>
	<path d="M112.6-20.1h1.2v1.2h-1.2V-20.1z"/>
	<path d="M100.6-30.9h1.2v1.2h-1.2V-30.9z"/>
	<path d="M98.2-30.9h1.2v1.2h-1.2V-30.9z"/>
	<path d="M95.8-30.9H97v1.2h-1.2V-30.9z"/>
	<path d="M95.8-28.5H97v1.2h-1.2V-28.5z"/>
	<path d="M95.8-26.1H97v1.2h-1.2V-26.1z"/>
	<path d="M95.8-23.7H97v1.2h-1.2V-23.7z"/>
</g>
<circle class="st21" cx="27.9" cy="26.8" r="9.7"/>
<circle class="st22" cx="19.5" cy="11.4" r="9.7"/>
<circle class="st23" cx="10.6" cy="27.3" r="9.7"/>
<g>
	<path class="st24" d="M20.2,12.1h-3.4c-0.4,0-0.7-0.3-0.7-0.7v-4c0-0.4,0.3-0.7,0.7-0.7h3.4c1.5,0,2.7,1.2,2.7,2.7
		S21.6,12.1,20.2,12.1z M17.5,10.8h2.7c0.7,0,1.3-0.6,1.3-1.3c0-0.7-0.6-1.3-1.3-1.3h-2.7V10.8z"/>
	<path class="st24" d="M20.2,16.2h-3.4c-0.4,0-0.7-0.3-0.7-0.7v-4c0-0.4,0.3-0.7,0.7-0.7h3.4c1.5,0,2.7,1.2,2.7,2.7
		S21.6,16.2,20.2,16.2z M17.5,14.8h2.7c0.7,0,1.3-0.6,1.3-1.3s-0.6-1.3-1.3-1.3h-2.7V14.8z"/>
	<path class="st24" d="M17.5,8.1c-0.4,0-0.7-0.3-0.7-0.7V6c0-0.4,0.3-0.7,0.7-0.7s0.7,0.3,0.7,0.7v1.3C18.1,7.8,17.8,8.1,17.5,8.1z"
		/>
	<path class="st24" d="M20.2,8.1c-0.4,0-0.7-0.3-0.7-0.7V6c0-0.4,0.3-0.7,0.7-0.7s0.7,0.3,0.7,0.7v1.3C20.8,7.8,20.5,8.1,20.2,8.1z"
		/>
	<path class="st24" d="M17.5,17.5c-0.4,0-0.7-0.3-0.7-0.7v-1.3c0-0.4,0.3-0.7,0.7-0.7s0.7,0.3,0.7,0.7v1.3
		C18.1,17.2,17.8,17.5,17.5,17.5z"/>
	<path class="st24" d="M20.2,17.5c-0.4,0-0.7-0.3-0.7-0.7v-1.3c0-0.4,0.3-0.7,0.7-0.7s0.7,0.3,0.7,0.7v1.3
		C20.8,17.2,20.5,17.5,20.2,17.5z"/>
</g>
<circle class="st25" cx="10.6" cy="25" r="2.2"/>
<circle class="st25" cx="8.4" cy="29.5" r="2.2"/>
<circle class="st25" cx="12.9" cy="29.5" r="2.2"/>
<path class="st26" d="M31.4,28.2l-3.5-2.1l-3.5,2.1l3.5,4.2L31.4,28.2z"/>
<path class="st27" d="M31.4,28.2l-3.5-1.4l-3.5,1.4l3.5-7.1L31.4,28.2z"/>
</svg>
