<svg xmlns="http://www.w3.org/2000/svg" width="144.701" height="41.937" viewBox="0 0 144.701 41.937">
  <g id="dafribank-logo" transform="translate(-42.023 -44.713)">
    <path id="Path_1" data-name="Path 1" d="M80.784,44.713H46.909A4.888,4.888,0,0,0,42.023,49.6V81.764a4.887,4.887,0,0,0,4.886,4.886H80.784a4.888,4.888,0,0,0,4.887-4.886V49.6a4.888,4.888,0,0,0-4.887-4.885M75.432,62.889h0l-1.561,9.179a6.558,6.558,0,0,1-2.27,3.951,6.159,6.159,0,0,1-4.131,1.637h-15.9l2.535-14.767H75.432v0Zm.612-3.593-.271,1.6H54.447l1.235-7.183h15.9a4.343,4.343,0,0,1,3.256,1.316,4.552,4.552,0,0,1,1.283,3.313,6.112,6.112,0,0,1-.078.959" fill="#fff"/>
    <g id="Group_1" data-name="Group 1" transform="translate(89.542 57.466)">
      <path id="Path_2" data-name="Path 2" d="M114.253,68.385c.068,3.978-2.36,8-7.863,8h-6.18V60.656h6.18c5.391,0,7.793,3.844,7.863,7.729m-11.1,5.145h3.236c3.571,0,4.987-2.605,4.919-5.166-.068-2.45-1.506-4.9-4.919-4.9h-3.236Z" transform="translate(-100.211 -60.389)" fill="#fff"/>
      <path id="Path_3" data-name="Path 3" d="M127.1,66.291h2.627V77.367h-2.581l-.133-1.618a4.214,4.214,0,0,1-3.6,1.956c-3.278.021-5.706-2-5.706-5.886a5.393,5.393,0,0,1,5.772-5.8,4.062,4.062,0,0,1,3.527,1.8Zm-6.648,5.527a3.171,3.171,0,0,0,3.28,3.369c4.312,0,4.312-6.716,0-6.716a3.154,3.154,0,0,0-3.28,3.347" transform="translate(-103.419 -61.373)" fill="#fff"/>
      <path id="Path_4" data-name="Path 4" d="M134.516,76.323V67.809h-2.067v-2.4h2.067v-.742a4.009,4.009,0,0,1,4.222-4.335,5.345,5.345,0,0,1,2.876.9L140.6,63.271a3.046,3.046,0,0,0-1.686-.585c-.944,0-1.661.63-1.661,1.977v.742h3.256v2.4h-3.256v8.514Z" transform="translate(-106.122 -60.329)" fill="#fff"/>
      <path id="Path_5" data-name="Path 5" d="M145.854,66.287l.2,1.278a3.268,3.268,0,0,1,3.123-1.573,4.212,4.212,0,0,1,2.854,1.056L150.8,69.43a2.731,2.731,0,0,0-1.978-.719,2.555,2.555,0,0,0-2.763,2.808V77.36h-2.74V66.287Z" transform="translate(-108.115 -61.367)" fill="#fff"/>
      <path id="Path_6" data-name="Path 6" d="M156.811,62.169a1.617,1.617,0,0,1-3.234,0,1.617,1.617,0,0,1,3.234,0m-2.986,14.2h2.741V65.248h-2.741Z" transform="translate(-109.996 -60.373)" fill="#fff"/>
      <path id="Path_7" data-name="Path 7" d="M171.895,65.218a3.2,3.2,0,0,1-2.043,3.034,3.834,3.834,0,0,1,2.515,3.505c0,3.505-2.63,4.626-5.886,4.626h-7.459V60.656h7.459c3.1,0,5.414,1.395,5.414,4.562m-9.952,1.752h4.537c1.865,0,2.47-.786,2.47-1.686,0-.719-.583-1.932-2.47-1.932h-4.537Zm0,6.65h4.537c1.213,0,2.942-.4,2.942-1.887,0-1.416-1.73-2.158-2.942-2.158h-4.537Z" transform="translate(-110.994 -60.389)" fill="#fff"/>
      <path id="Path_8" data-name="Path 8" d="M184.945,66.291h2.627V77.367h-2.583l-.135-1.618a4.21,4.21,0,0,1-3.594,1.956c-3.28.021-5.708-2-5.708-5.886a5.393,5.393,0,0,1,5.773-5.8,4.063,4.063,0,0,1,3.527,1.8ZM178.3,71.819a3.172,3.172,0,0,0,3.28,3.369c4.313,0,4.313-6.716,0-6.716a3.154,3.154,0,0,0-3.28,3.347" transform="translate(-114.025 -61.373)" fill="#fff"/>
      <path id="Path_9" data-name="Path 9" d="M199.87,77.388v-5.8c0-1.686-.922-2.965-2.674-2.965a2.914,2.914,0,0,0-2.831,3.1v5.661h-2.718V66.29h2.45l.18,1.506a4.993,4.993,0,0,1,3.639-1.661c2.606,0,4.7,1.953,4.7,5.436v5.819H199.87Z" transform="translate(-116.976 -61.394)" fill="#fff"/>
      <path id="Path_10" data-name="Path 10" d="M209.244,60.686v9.076l3.729-4.449h3.28v.157l-4.515,5.055,5.144,5.661v.2h-3.3l-4.336-5.009v5.009H206.5v-15.7Z" transform="translate(-119.7 -60.395)" fill="#fff"/>
      <path id="Path_11" data-name="Path 11" d="M131.048,83.79a1.187,1.187,0,0,1-.362.926,1.344,1.344,0,0,1-.946.315,3.479,3.479,0,0,1-.6-.049v-2.26a3.394,3.394,0,0,1,.678-.061,1.326,1.326,0,0,1,.887.275,1.06,1.06,0,0,1,.346.853m-.443,0a.787.787,0,0,0-.2-.566.728.728,0,0,0-.551-.2,1.372,1.372,0,0,0-.3.031v1.588a1.2,1.2,0,0,0,.263.026.734.734,0,0,0,.59-.249.954.954,0,0,0,.2-.625" transform="translate(-105.515 -64.424)" fill="#fff"/>
      <rect id="Rectangle_1" data-name="Rectangle 1" width="0.415" height="2.296" transform="translate(27.579 18.277)" fill="#fff"/>
      <path id="Path_12" data-name="Path 12" d="M138.992,84.852a1.69,1.69,0,0,1-.757.182,1.24,1.24,0,0,1-.88-.32,1.122,1.122,0,0,1-.342-.86,1.165,1.165,0,0,1,.329-.883,1.233,1.233,0,0,1,.887-.305,1.784,1.784,0,0,1,.687.154l-.139.349a1.491,1.491,0,0,0-.583-.137.687.687,0,0,0-.538.212.8.8,0,0,0-.2.561.949.949,0,0,0,.189.614.716.716,0,0,0,.577.247.994.994,0,0,0,.365-.057.638.638,0,0,1-.011-.11v-.7h.412Z" transform="translate(-106.959 -64.425)" fill="#fff"/>
      <rect id="Rectangle_2" data-name="Rectangle 2" width="0.415" height="2.296" transform="translate(34.162 18.277)" fill="#fff"/>
      <path id="Path_13" data-name="Path 13" d="M146.707,83.069H146V85h-.415V83.069h-.667v-.362h1.794Z" transform="translate(-108.407 -64.432)" fill="#fff"/>
      <path id="Path_14" data-name="Path 14" d="M151.206,85.005h-.466l-.225-.583h-.875l-.227.581-.446,0,.94-2.3h.4Zm-.828-.948-.3-.773-.3.773Z" transform="translate(-109.15 -64.433)" fill="#fff"/>
      <path id="Path_15" data-name="Path 15" d="M155.425,85.005H154.07v-2.3h.416v1.934h.939Z" transform="translate(-110.086 -64.432)" fill="#fff"/>
      <path id="Path_16" data-name="Path 16" d="M162.686,84.359q0,.673-.963.671a2.832,2.832,0,0,1-.572-.061V82.726a3.211,3.211,0,0,1,.577-.068q.873,0,.874.648a.5.5,0,0,1-.094.3.574.574,0,0,1-.243.2v.007a.527.527,0,0,1,.309.194.593.593,0,0,1,.112.358m-.507-1.036a.263.263,0,0,0-.133-.253.74.74,0,0,0-.3-.048,1.1,1.1,0,0,0-.183.019v.59h.2c.274,0,.41-.1.41-.307m.079,1.008c0-.225-.16-.336-.479-.336h-.213v.648a1.206,1.206,0,0,0,.188.017c.336,0,.5-.109.5-.328" transform="translate(-111.385 -64.423)" fill="#fff"/>
      <path id="Path_17" data-name="Path 17" d="M167.491,85.005h-.466l-.225-.583h-.875L165.7,85l-.446,0,.94-2.3h.4Zm-.828-.948-.3-.773-.3.773Z" transform="translate(-112.136 -64.433)" fill="#fff"/>
      <path id="Path_18" data-name="Path 18" d="M172.377,84.976a.683.683,0,0,1-.247.051.512.512,0,0,1-.467-.292l-.843-1.473c-.018-.029-.033-.059-.044-.082h-.007V85h-.415v-2.3h.622l.929,1.7c.011.021.029.056.051.1h.006v-1.8h.415v2.269Z" transform="translate(-113.072 -64.432)" fill="#fff"/>
      <path id="Path_19" data-name="Path 19" d="M177.261,85.005h-.544l-.681-.817a.673.673,0,0,0-.156-.148h-.007v.969h-.415v-2.3h.415V83.6l.795-.889h.545l-1.019,1.122a.307.307,0,0,1,.14.1Z" transform="translate(-114.008 -64.433)" fill="#fff"/>
      <path id="Path_20" data-name="Path 20" d="M185.12,83.85a1.228,1.228,0,0,1-.278.839,1.1,1.1,0,0,1-1.589,0,1.245,1.245,0,0,1-.279-.844,1.263,1.263,0,0,1,.273-.846,1.109,1.109,0,0,1,1.6,0,1.274,1.274,0,0,1,.27.846m-.445,0a1.018,1.018,0,0,0-.143-.565.587.587,0,0,0-.974,0,1.053,1.053,0,0,0-.138.565,1.022,1.022,0,0,0,.142.56.55.55,0,0,0,.486.259.538.538,0,0,0,.484-.259,1.008,1.008,0,0,0,.143-.56" transform="translate(-115.386 -64.424)" fill="#fff"/>
      <path id="Path_21" data-name="Path 21" d="M189.431,83.069h-.911v.563h.762v.35h-.762V85h-.415v-2.3h1.326Z" transform="translate(-116.327 -64.432)" fill="#fff"/>
      <path id="Path_22" data-name="Path 22" d="M197.205,85.005h-.465l-.225-.583h-.875l-.227.581-.446,0,.94-2.3h.4Zm-.827-.948-.3-.773-.3.773Z" transform="translate(-117.584 -64.433)" fill="#fff"/>
      <path id="Path_23" data-name="Path 23" d="M201.394,83.069h-.911v.563h.762v.35h-.762V85h-.415v-2.3h1.326Z" transform="translate(-118.52 -64.432)" fill="#fff"/>
      <path id="Path_24" data-name="Path 24" d="M205.844,85h-.491l-.461-.768a.717.717,0,0,0-.113-.151h-.033a.3.3,0,0,1-.038,0c.007,0-.044,0-.149-.011V85h-.415V82.734a2.661,2.661,0,0,1,.59-.069c.6,0,.894.232.894.7a.636.636,0,0,1-.143.4.565.565,0,0,1-.345.216v.007c.049,0,.11.064.187.181Zm-.649-1.645c0-.221-.145-.33-.439-.33a1.014,1.014,0,0,0-.2.019v.692a1.266,1.266,0,0,0,.187.014.5.5,0,0,0,.316-.1.369.369,0,0,0,.131-.3" transform="translate(-119.267 -64.424)" fill="#fff"/>
      <rect id="Rectangle_3" data-name="Rectangle 3" width="0.415" height="2.296" transform="translate(88.5 18.277)" fill="#fff"/>
      <path id="Path_25" data-name="Path 25" d="M213.381,84.878a1.356,1.356,0,0,1-.608.152,1.124,1.124,0,0,1-.839-.329,1.164,1.164,0,0,1-.323-.849,1.231,1.231,0,0,1,.3-.852,1.026,1.026,0,0,1,.808-.334,1.6,1.6,0,0,1,.655.154l-.136.343a1.309,1.309,0,0,0-.525-.131.577.577,0,0,0-.491.239.857.857,0,0,0-.167.54.905.905,0,0,0,.193.609.719.719,0,0,0,.577.242,1.015,1.015,0,0,0,.448-.107Z" transform="translate(-120.636 -64.425)" fill="#fff"/>
      <path id="Path_26" data-name="Path 26" d="M218.234,85.005h-.466l-.225-.583h-.875l-.226.581-.446,0,.94-2.3h.394Zm-.826-.948-.3-.773-.3.773Z" transform="translate(-121.44 -64.433)" fill="#fff"/>
    </g>
  </g>
</svg>
