<svg xmlns="http://www.w3.org/2000/svg" width="199.027" height="54.866" viewBox="0 0 199.027 54.866">
  <g id="jVQie1" transform="translate(2254.674 957.028)">
    <g id="Group_81" data-name="Group 81" transform="translate(-2253.924 -956.278)">
      <path id="Path_275" data-name="Path 275" d="M-2207.349-956.278c1.3,2.05,2.564,4.131,3.921,6.146,2.907,4.313,5.862,8.593,8.8,12.883.277.4.61.772,1.1,1.392,1.126-1.567,2.142-2.934,3.109-4.337,1.33-1.932,2.61-3.9,3.95-5.826.232-.334.645-.76.985-.768,2.341-.058,4.687-.016,7.029,0,.077,0,.152.124.409.347-1.038,1.561-2.079,3.159-3.152,4.736-2.413,3.541-4.781,7.114-7.3,10.579a2.089,2.089,0,0,0,.032,2.841q4.616,6.669,9.14,13.4a2.338,2.338,0,0,1,.414,1.742c-.107.327-1,.544-1.548.557-5.5.14-5.487.115-8.6-4.544-1.381-2.066-2.83-4.086-4.386-6.326a17.759,17.759,0,0,0-1.2,1.38c-4.085,5.917-8.181,11.828-12.206,17.783a2.729,2.729,0,0,1-2.637,1.37c-2.032-.074-4.067-.019-6.437-.019,1.065-1.636,1.935-3.042,2.871-4.4q7.329-10.651,14.7-21.272a1.745,1.745,0,0,0-.165-2.323q-8.724-12.661-17.417-25.346Z" transform="translate(2276.889 956.278)" fill="none" stroke="#fff" stroke-miterlimit="10" stroke-width="1.5"/>
      <path id="Path_276" data-name="Path 276" d="M-2253.924-947.077c3.66.029,7.375-.329,10.969.178,5.31.749,8.324,5.548,7.833,11.539a9.811,9.811,0,0,1-9.795,9.26c-3,.088-6.005.111-9.007.162Zm4.045,17.135c1.794,0,3.472.1,5.134-.021,3.262-.241,5.336-2.5,5.723-6.068.34-3.127-1.42-6.356-4.2-6.989a46.583,46.583,0,0,0-6.655-.578Z" transform="translate(2253.924 961.781)" fill="none" stroke="#fff" stroke-miterlimit="10" stroke-width="1.5"/>
      <path id="Path_277" data-name="Path 277" d="M-2138.663-944.169l2.512,1.843a4.348,4.348,0,0,1-.486.818,1.9,1.9,0,0,0-.263,2.644c1.625,2.9.785,6.215-1.94,8.63.013.091-.007.237.048.271,2.444,1.579,3.049,3.844,2.36,6.525-.741,2.88-2.87,4.208-5.614,4.731-4.469.85-8.553-1.683-9.071-5.6a7.22,7.22,0,0,1,0-.841h3.379c1.243,2.71,2.874,3.6,5.379,2.923a3.062,3.062,0,0,0,2.474-3.068,2.974,2.974,0,0,0-2.622-2.764c-.8-.156-1.621-.17-2.431-.268a6.766,6.766,0,0,1-6.225-6.925c-.132-4.056,2.155-7.205,5.842-7.807a8.53,8.53,0,0,1,3.771.114c1.17.364,1.8.2,2.351-.792C-2139.112-943.893-2138.9-943.981-2138.663-944.169Zm-1.168,8.5c-.009-2.5-1.591-4.242-3.847-4.232a3.971,3.971,0,0,0-3.85,4.266,3.848,3.848,0,0,0,3.885,4.04A3.789,3.789,0,0,0-2139.831-935.674Z" transform="translate(2316.027 963.596)" fill="none" stroke="#fff" stroke-miterlimit="10" stroke-width="1.5"/>
      <path id="Path_278" data-name="Path 278" d="M-2228.269-928.423l-.24-1.707a6.769,6.769,0,0,1-5.8,2.248,6.931,6.931,0,0,1-5.393-3.047c-2.087-3.19-1.631-8.142.958-10.621,2.66-2.548,6.645-2.609,10.13-.08l.363-1.486h3.308v14.693Zm-.34-7.419a4.211,4.211,0,0,0-4.442-4.38,4.177,4.177,0,0,0-4.225,4.422,4.23,4.23,0,0,0,4.433,4.548A4.233,4.233,0,0,0-2228.608-935.841Z" transform="translate(2261.728 964.005)" fill="none" stroke="#fff" stroke-miterlimit="10" stroke-width="1.5"/>
      <path id="Path_279" data-name="Path 279" d="M-2161.355-941.551l.208-1.553h3.343v14.7h-3.242l-.334-1.681a6.8,6.8,0,0,1-6.307,2.129,6.871,6.871,0,0,1-4.447-2.447c-2.376-3-2.237-8.235.3-10.915C-2169.176-944.113-2164.992-944.246-2161.355-941.551Zm-.066,5.84a4.2,4.2,0,0,0-4.31-4.51,4.244,4.244,0,0,0-4.409,4.444,4.3,4.3,0,0,0,4.346,4.534A4.229,4.229,0,0,0-2161.421-935.711Z" transform="translate(2302.332 964.004)" fill="none" stroke="#fff" stroke-miterlimit="10" stroke-width="1.5"/>
      <path id="Path_280" data-name="Path 280" d="M-2169.84-926.2h-3.666c0-1.959,0-3.876,0-5.793,0-.714.018-1.43-.016-2.144-.109-2.253-1.263-3.552-3.159-3.589a3.573,3.573,0,0,0-3.832,3.531c-.115,2.087-.045,4.184-.056,6.276,0,.507,0,1.014,0,1.664h-3.687v-20.881h3.63v7.456a21.219,21.219,0,0,1,4.223-1.47c3.316-.425,5.7,1.5,6.326,4.818a9.539,9.539,0,0,1,.225,1.667C-2169.827-931.91-2169.84-929.157-2169.84-926.2Z" transform="translate(2296.031 961.806)" fill="none" stroke="#fff" stroke-miterlimit="10" stroke-width="1.5"/>
      <path id="Path_281" data-name="Path 281" d="M-2124.982-934.39h-11.744c.393,3.244,4.251,4.122,8.319,1.875l1.927,2.381c-2.061,2.28-6.519,3.011-9.942,1.532-3.023-1.306-4.587-4.329-4.25-8.219a7.244,7.244,0,0,1,5.463-6.442c3.929-1.012,7.723.279,9.073,3.411C-2125.448-938.249-2125.38-936.38-2124.982-934.39Zm-4-3.108c-.478-2.046-1.773-2.885-4.025-2.774-2.021.1-3.337,1.121-3.512,2.774Z" transform="translate(2322.344 963.94)" fill="none" stroke="#fff" stroke-miterlimit="10" stroke-width="1.5"/>
      <path id="Path_282" data-name="Path 282" d="M-2147.306-928.433h-3.589c0-2.681.058-5.312-.015-7.937-.086-3.071-3-4.7-5.511-3.1a3.938,3.938,0,0,0-1.824,3.5c-.011,2.487,0,4.974,0,7.547h-3.566v-14.755h3.129l.342,1.585a18.709,18.709,0,0,1,3.472-1.646,5.924,5.924,0,0,1,7.5,5.431A87.684,87.684,0,0,1-2147.306-928.433Z" transform="translate(2309.594 964.039)" fill="none" stroke="#fff" stroke-miterlimit="10" stroke-width="1.5"/>
      <path id="Path_283" data-name="Path 283" d="M-2227.243-937.268l-2.677-.168v-3.011l2.633-.183c.04-2.687.5-5.192,3.32-6.312a6.283,6.283,0,0,1,6.223.743l-1.231,2.553c-3.646-1.043-4.755-.3-4.431,3.1h4.141v3.129h-4.271v11.377h-3.706Z" transform="translate(2268.431 961.616)" fill="none" stroke="#fff" stroke-miterlimit="10" stroke-width="1.5"/>
      <path id="Path_284" data-name="Path 284" d="M-2182.576-932.5l2.233,2.116c-2.155,3.122-7.666,3.414-11.033.677-3.037-2.469-3.2-8.485-.446-11.539,2.6-2.874,9-3.26,11.2-.027-.451.478-.955.966-1.4,1.5a1.143,1.143,0,0,1-1.674.327c-2.241-1.144-4.253-.683-5.573,1.11a4.683,4.683,0,0,0,.26,5.668,4.635,4.635,0,0,0,5.757.571Z" transform="translate(2290.275 963.972)" fill="none" stroke="#fff" stroke-miterlimit="10" stroke-width="1.5"/>
      <path id="Path_285" data-name="Path 285" d="M-2217.929-928.36h-3.62V-942.9c2.283-.61,3.169-.377,3.77,1.02,1.9-1.887,4.1-2.023,6.483-1.15,1.168.428,1.524,1.056.74,2.164a12.9,12.9,0,0,0-.863,1.63,16.086,16.086,0,0,0-2.909-.544c-2.373,0-3.546,1.208-3.59,3.607C-2217.966-933.626-2217.929-931.078-2217.929-928.36Z" transform="translate(2273.491 963.974)" fill="none" stroke="#fff" stroke-miterlimit="10" stroke-width="1.5"/>
      <path id="Path_286" data-name="Path 286" d="M-2213.386-928.551v-14.728h3.488v14.728Z" transform="translate(2278.425 964.134)" fill="none" stroke="#fff" stroke-miterlimit="10" stroke-width="1.5"/>
      <path id="Path_287" data-name="Path 287" d="M-2209.331-945.153a2.015,2.015,0,0,1-2.05,2.174,2.056,2.056,0,0,1-2.25-1.993,2.168,2.168,0,0,1,2.151-2.291A2.079,2.079,0,0,1-2209.331-945.153Z" transform="translate(2278.274 961.727)" fill="none" stroke="#fff" stroke-miterlimit="10" stroke-width="1.5"/>
    </g>
  </g>
</svg>
