<?xml version="1.0" encoding="utf-8"?>
<!-- Generator: Adobe Illustrator 24.3.0, SVG Export Plug-In . SVG Version: 6.00 Build 0)  -->
<svg version="1.1" id="Layer_1" xmlns="http://www.w3.org/2000/svg" xmlns:xlink="http://www.w3.org/1999/xlink" x="0px" y="0px"
	 viewBox="0 0 50 50" style="enable-background:new 0 0 50 50;" xml:space="preserve">
<style type="text/css">
	.st0{stroke:#000000;stroke-width:1.5;stroke-miterlimit:10;}
</style>
<path id="Path_55" class="st0" d="M1.3,23.2V9.5c0-3.9,2.8-7.2,6.6-7.9C10,1.2,12.2,1.7,14,3c0.7,0.5,1.3,1,1.9,1.6
	c4.2,4.2,8.5,8.1,12.7,12.3c1.2,1.2,2.6,2.3,4,3.7V9.5c-0.1-2.9,1.4-5.7,3.9-7.2c3.9-2.3,9-1,11.3,3c0.5,0.9,0.9,1.8,1,2.8
	C49,9.4,49,10.6,49,11.9v10.5c0,6.3-0.2,12.6-0.2,18.8c-0.3,4.5-4.1,7.9-8.6,7.6c-1-0.1-1.9-0.3-2.8-0.7c-1.4-0.7-2.6-1.7-3.7-2.8
	c-3.7-3.5-7.4-7.2-11.1-10.7c-4.6-4.4-9.5-9.1-14.2-13.5l-0.7-0.7c-2.6-1.9-5.1-0.9-6,2.3c0.5,0,0.5,0.2,0,0.5L1.3,23.2z"/>
</svg>
