<?xml version="1.0" encoding="utf-8"?>
<!-- Generator: Adobe Illustrator 24.3.0, SVG Export Plug-In . SVG Version: 6.00 Build 0)  -->
<svg version="1.1" id="Layer_1" xmlns="http://www.w3.org/2000/svg" xmlns:xlink="http://www.w3.org/1999/xlink" x="0px" y="0px"
	 viewBox="0 0 22.3 20.1" style="enable-background:new 0 0 22.3 20.1;" xml:space="preserve">
<style type="text/css">
	.st0{fill:#FFFFFF;}
</style>
<path id="Path_55" class="st0" d="M3,9.4V4C3,2.5,4.1,1.2,5.6,1C6.4,0.8,7.3,1,8,1.5c0.3,0.2,0.5,0.4,0.7,0.6
	c1.6,1.6,3.3,3.2,4.9,4.8c0.5,0.5,1,0.9,1.6,1.4V4c0-1.1,0.6-2.2,1.5-2.8c1.5-0.9,3.5-0.4,4.4,1.2c0.2,0.3,0.3,0.7,0.4,1.1
	c0.1,0.5,0.1,1,0.1,1.4V9c0,2.4-0.1,4.9-0.1,7.3c-0.1,1.7-1.6,3.1-3.3,3c-0.4,0-0.7-0.1-1.1-0.3c-0.5-0.3-1-0.6-1.4-1.1
	c-1.4-1.4-2.9-2.8-4.3-4.2c-1.8-1.7-3.7-3.5-5.5-5.2L5.5,8.3c-1-0.7-2-0.4-2.3,0.9c0.2,0,0.2,0.1,0,0.2L3,9.4z"/>
</svg>
