<svg xmlns="http://www.w3.org/2000/svg" width="121.821" height="37.14" viewBox="0 0 121.821 37.14">
  <g id="Group_64" data-name="Group 64" transform="translate(2573.43 1130.624)">
    <path id="Path_270" data-name="Path 270" d="M-2570.533-1113.363v-10.226a5.979,5.979,0,0,1,4.9-5.892,6,6,0,0,1,4.551,1.039,9.983,9.983,0,0,1,1.4,1.214c3.151,3.119,6.3,6.066,9.452,9.185.875.867,1.926,1.733,2.976,2.773v-8.319a6.173,6.173,0,0,1,2.942-5.373,6.148,6.148,0,0,1,9.171,4.333,14.953,14.953,0,0,1,.173,2.773v7.8c0,4.68-.173,9.359-.173,14.039a6.067,6.067,0,0,1-8.479,5.2,10.551,10.551,0,0,1-2.769-2.08c-2.769-2.6-5.538-5.372-8.306-7.972-3.461-3.293-7.095-6.759-10.556-10.052l-.519-.52c-1.9-1.387-3.807-.693-4.5,1.733.346,0,.346.173,0,.347Z" fill="none" stroke="#fff" stroke-miterlimit="10" stroke-width="1.5"/>
    <path id="Path_271" data-name="Path 271" d="M-2483.5-1113.771a6.216,6.216,0,0,1,1.56.866,5.741,5.741,0,0,1,2.6,6.413,7.233,7.233,0,0,1-3.813,5.372,12.967,12.967,0,0,1-5.719,1.733c-3.639.174-7.279.174-10.918.174-1.04,0-1.04-.174-.867-1.213,1.213-6.413,2.253-12.826,3.466-19.411.347-1.907.693-3.987,1.04-5.893.173-1.213.347-1.213,1.387-1.213h8.319a10.069,10.069,0,0,1,3.292.52,6.109,6.109,0,0,1,2.947,10.225,6.849,6.849,0,0,1-2.6,1.733C-2482.8-1114.118-2483.152-1113.945-2483.5-1113.771Zm-11.612,9.973a.536.536,0,0,0,.347.174c2.079,0,4.159-.174,6.239-.174a5.487,5.487,0,0,0,2.6-1.04,4.175,4.175,0,0,0,1.56-4.159,3.623,3.623,0,0,0-2.946-2.426h-5.719c-.694,0-.867.173-1.04.866-.347,1.56-.52,2.946-.867,4.506A5.154,5.154,0,0,1-2495.11-1103.8Zm2.253-11.679c.351,0,.524.178.7.174l3.765-.042a6.749,6.749,0,0,0,2.641-.305,3.889,3.889,0,0,0,2.6-3.986,2.566,2.566,0,0,0-1.386-2.08,9.153,9.153,0,0,0-2.08-.52,30.63,30.63,0,0,0-3.986,0c-.867,0-1.04,0-1.04.867-.346,1.733-.693,3.466-.866,5.2C-2492.857-1116.17-2492.857-1115.823-2492.857-1115.477Z" fill="none" stroke="#fff" stroke-miterlimit="10" stroke-width="1.5"/>
    <path id="Path_272" data-name="Path 272" d="M-2523.951-1099.137h-4.9c-1.049-.175-1.049-.175-.875-1.224.7-3.848,1.4-7.87,2.1-11.717.874-4.547,1.574-9.094,2.448-13.641.175-1.224.35-1.224,1.574-1.224h8.4a16.8,16.8,0,0,1,5.771,1.049c4.372,1.749,6.645,5.072,7,9.793a15.388,15.388,0,0,1-4.022,11.543,15.8,15.8,0,0,1-5.247,3.672,20.4,20.4,0,0,1-7.869,1.574,38.014,38.014,0,0,1-4.373.175Zm-.1-4.735c.173,0,.346.173.52.173,2.079,0,4.333,0,6.412-.173,6.24-.867,9.879-6.066,9.013-12.305a6.279,6.279,0,0,0-2.254-4.16,8.908,8.908,0,0,0-5.8-2.123l-2.042.016c-2.574.124-2.511-.315-2.734,1.241-.866,5.372-1.906,10.572-2.773,15.944A3.276,3.276,0,0,0-2524.053-1103.872Z" fill="none" stroke="#fff" stroke-miterlimit="10" stroke-width="1.5"/>
    <path id="Path_273" data-name="Path 273" d="M-2452.616-1099.312c-.35.175-.35.175-.525.175H-2457a.873.873,0,0,1-.924-.924,40.8,40.8,0,0,0-.924-4.619c-.185-.924-.185-.924-1.108-.924h-9.611a1.346,1.346,0,0,0-1.437.9c-.9,1.616-1.976,3.053-2.874,4.67a1.571,1.571,0,0,1-1.617.9h-3.521a2.583,2.583,0,0,1-1.043-.174l.522-1.043c1.564-2.433,3.3-5.039,4.866-7.472,4-6.083,7.994-12.166,11.817-18.248a1.825,1.825,0,0,1,1.565-.869h2.2c1.049,0,1.049.175,1.224,1.224.525,2.8,1.049,5.6,1.749,8.394,1.049,5.6,2.273,11.193,3.323,16.789A2.59,2.59,0,0,0-2452.616-1099.312Zm-7.312-10.922c.174-.866-1.213-9.359-1.56-10.225-.519.52-6.065,9.359-6.239,10.225A58.673,58.673,0,0,0-2459.928-1110.234Z" fill="none" stroke="#fff" stroke-miterlimit="10" stroke-width="1.5"/>
  </g>
</svg>
