<svg xmlns="http://www.w3.org/2000/svg" width="33" height="33" viewBox="0 0 33 33">
  <g id="Group_179" data-name="Group 179" transform="translate(1702.532 1289.897)">
    <path id="Path_76" data-name="Path 76" d="M-1647.359-1243.734h-10.62v5.154q0,3.056,0,6.111a1.43,1.43,0,0,0,.182.728.3.3,0,0,0,.291.171q4.844-.008,9.689,0a.282.282,0,0,0,.271-.156,1.444,1.444,0,0,0,.19-.754q0-5.548,0-11.1Zm-8.039,9.992c-.211,0-.422,0-.634,0-.395,0-.548-.151-.548-.542q0-1.69,0-3.379t0-3.365c0-.4.149-.547.542-.547.221,0,.441,0,.662,0a.431.431,0,0,1,.47.475q0,3.436,0,6.871A.439.439,0,0,1-1655.4-1233.742Zm3.564-.485a.435.435,0,0,1-.477.484q-.359,0-.718,0a.436.436,0,0,1-.476-.486q0-1.718,0-3.435,0-1.7,0-3.393c0-.358.157-.517.513-.518.23,0,.46,0,.69,0a.431.431,0,0,1,.469.476Q-1651.831-1237.662-1651.833-1234.227Zm3.074.014a.431.431,0,0,1-.463.47c-.244,0-.488,0-.732,0a.439.439,0,0,1-.477-.486q0-1.725,0-3.45,0-1.682,0-3.365c0-.376.154-.531.528-.532.225,0,.451,0,.676,0a.43.43,0,0,1,.469.476Q-1648.757-1237.655-1648.759-1234.212Z" transform="translate(-33.489 -34.727)" fill="red"/>
    <path id="Path_77" data-name="Path 77" d="M-1642.158-1254.431q-.242-.593-.485-1.185a.227.227,0,0,0-.229-.152h-3.674a.23.23,0,0,0-.231.151q-.249.6-.5,1.194a.187.187,0,0,0-.006.05h5.136A.387.387,0,0,0-1642.158-1254.431Z" transform="translate(-41.443 -25.573)" fill="red"/>
    <path id="Path_78" data-name="Path 78" d="M-1686.032-1289.9a16.5,16.5,0,0,0-16.5,16.5,16.5,16.5,0,0,0,16.5,16.5,16.5,16.5,0,0,0,16.5-16.5A16.5,16.5,0,0,0-1686.032-1289.9Zm8.206,11.106a.428.428,0,0,1-.471.471c-.334,0-.669,0-1.028,0v.221q0,5.4,0,10.808a2.757,2.757,0,0,1-.667,1.889,1.711,1.711,0,0,1-1.354.618q-4.8-.008-9.61,0a1.78,1.78,0,0,1-1.456-.7,2.724,2.724,0,0,1-.581-1.795q0-5.424,0-10.849v-.193h-.657c-.142,0-.285.006-.427,0a.417.417,0,0,1-.416-.439c0-.243,0-.487,0-.73a.426.426,0,0,1,.471-.469c1.134,0,2.267,0,3.4,0a.2.2,0,0,0,.218-.149c.24-.59.475-1.183.74-1.763a1.744,1.744,0,0,1,1.645-1.093c1.234-.02,2.469-.006,3.7-.005a1.843,1.843,0,0,1,1.668,1.108c.249.592.5,1.183.742,1.777a.173.173,0,0,0,.193.124q1.687-.005,3.373,0c.358,0,.512.154.513.51C-1677.826-1279.232-1677.825-1279.012-1677.826-1278.791Z" fill="red"/>
  </g>
</svg>
