<?xml version="1.0" encoding="utf-8"?>
<!-- Generator: Adobe Illustrator 24.3.0, SVG Export Plug-In . SVG Version: 6.00 Build 0)  -->
<svg version="1.1" id="Layer_1" xmlns="http://www.w3.org/2000/svg" xmlns:xlink="http://www.w3.org/1999/xlink" x="0px" y="0px"
	 viewBox="0 0 25 25" style="enable-background:new 0 0 25 25;" xml:space="preserve">
<style type="text/css">
	.st0{fill:none;stroke:#000000;stroke-width:1.3;stroke-miterlimit:10;}
	.st1{fill:none;stroke:#000000;}
	.st2{stroke:#000000;stroke-width:0.3;}
</style>
<g id="customer-support" transform="translate(-48.348 0)">
	<g id="Group_229" transform="translate(48.348 0)">
		<path id="Path_159" d="M64.1,21.7c-0.2,0-0.3,0.2-0.3,0.3c0,0,0,0,0,0v0.3c0,0.7-0.5,1.2-1.2,1.2H61v-1.6c0-0.2-0.1-0.4-0.3-0.4
			c-0.2,0-0.4,0.1-0.4,0.3c0,0,0,0,0,0v1.6h-3.4L56,18.2l0.4-0.7c0.3,0.1,0.7,0,0.9-0.2l0,0l2.1-2.1c2.4,0.7,4.2,2.8,4.4,5.3
			c0,0.2,0.2,0.3,0.3,0.3h0c0.2,0,0.3-0.2,0.3-0.4c0,0,0,0,0,0c-0.2-2.8-2.2-5.2-5-5.9l-0.9-0.6c-0.3-0.2-0.7-0.2-1,0l0,0
			c-0.3-0.3-0.1-0.6-0.2-1c0.2-0.1,0.5-0.3,0.7-0.5c0.3-0.3,0.6-0.6,0.8-1h0.8c0.8,0,1.5-0.7,1.5-1.5V7.2c0-0.4-0.2-0.8-0.6-1V5.2
			c0-0.3-0.1-0.7-0.4-0.9l0,0l0,0c0-0.7-0.4-1.3-1.1-1.5c0,0,0,0-0.1-0.1c-0.2-0.6-0.7-0.9-1.2-1c0,0,0,0,0,0
			c-0.3-0.5-1-0.7-1.5-0.5c0,0-0.1,0-0.1,0c-0.3-0.3-0.7-0.4-1.2-0.4c-0.4,0-0.8,0.1-1.2,0.4c0,0-0.1,0-0.1,0
			c-0.6-0.2-1.2,0.1-1.5,0.5c0,0,0,0,0,0c-0.6,0-1.1,0.4-1.2,1c0,0,0,0-0.1,0.1c-0.6,0.2-1.1,0.8-1.1,1.5c0,0,0,0,0,0
			c-0.2,0.2-0.4,0.6-0.4,0.9v0.9c-0.4,0.2-0.6,0.6-0.6,1v1.4c0,0.7,0.5,1.2,1.2,1.2h0.5c0.1,1.1,0.6,2,1.4,2.7
			c0.2,0.2,0.4,0.3,0.6,0.5c0,0.4,0.1,0.7-0.2,1l0,0c-0.3-0.2-0.7-0.2-0.9,0l-0.9,0.6c-0.8,0.2-1.6,0.6-2.3,1.1
			c-0.2,0.1-0.2,0.3-0.1,0.5c0.1,0.2,0.3,0.2,0.5,0.1c0,0,0,0,0.1,0c0.6-0.4,1.2-0.7,1.9-0.9l2.1,2.1l0,0c0.2,0.2,0.6,0.3,0.9,0.2
			l0.4,0.7l-0.9,5.3h-3.4v-1.6c0-0.2-0.1-0.4-0.3-0.4c-0.2,0-0.4,0.1-0.4,0.3c0,0,0,0,0,0v1.6h-1.6c-0.7,0-1.2-0.5-1.2-1.2v0v-1.4
			c0-1.4,0.5-2.7,1.3-3.8c0.1-0.1,0.1-0.4,0-0.5c-0.1-0.1-0.4-0.1-0.5,0c0,0,0,0,0,0c-1,1.2-1.5,2.7-1.5,4.2v1.4
			c0,1,0.8,1.9,1.9,1.9h15.2c1,0,1.9-0.8,1.9-1.9V22C64.5,21.8,64.3,21.7,64.1,21.7C64.1,21.7,64.1,21.7,64.1,21.7L64.1,21.7z
			 M54.6,17.8l-0.4-0.7l0.9-0.7l0.9,0.7l-0.4,0.7H54.6L54.6,17.8z M58.2,14.5l0.6,0.4l-1.9,1.9c-0.1,0.1-0.2,0.1-0.3,0l0,0l0,0
			L55.6,16l2.4-1.5C58,14.5,58.1,14.5,58.2,14.5z M60.3,6.8c0.1,0.1,0.1,0.2,0.1,0.3v1.4c0,0.3-0.2,0.5-0.5,0.5l0,0h-0.5V7.3
			c0-0.1,0.1-0.2,0.2-0.2C59.9,7.1,60.1,7,60.3,6.8L60.3,6.8z M57.8,11.4h-0.9c-0.2,0-0.3-0.1-0.3-0.3c0-0.2,0.1-0.3,0.3-0.3
			c0,0,0,0,0,0h0.9c0.2,0,0.3,0.1,0.3,0.3C58.2,11.2,58,11.4,57.8,11.4C57.8,11.4,57.8,11.4,57.8,11.4L57.8,11.4z M59.6,10.8h-0.4
			c0.1-0.3,0.2-0.7,0.2-1h0.5c0.2,0,0.3,0,0.5-0.1V10C60.4,10.4,60.1,10.8,59.6,10.8L59.6,10.8z M50.2,5.2c0-0.2,0.1-0.3,0.2-0.4
			c0.1-0.1,0.2-0.3,0.2-0.5c0-0.4,0.3-0.7,0.6-0.8c0.2-0.1,0.4-0.3,0.5-0.5c0.1-0.3,0.3-0.5,0.6-0.5c0.2,0,0.4-0.1,0.5-0.3
			c0.2-0.2,0.5-0.3,0.8-0.3c0.3,0.1,0.5,0,0.7-0.2c0.2-0.2,0.4-0.2,0.7-0.2c0.2,0,0.5,0,0.7,0.2c0.2,0.2,0.5,0.3,0.7,0.2
			c0.3-0.1,0.6,0,0.8,0.3c0.1,0.2,0.3,0.3,0.5,0.3c0.3,0,0.5,0.2,0.6,0.5c0.1,0.2,0.2,0.4,0.5,0.5c0.4,0.1,0.6,0.5,0.6,0.8
			c0,0.2,0.1,0.4,0.2,0.5c0.1,0.1,0.2,0.3,0.2,0.4v1c0,0.1-0.1,0.2-0.2,0.2c-0.5,0-0.9,0.4-0.9,0.9v0.2h-0.2c-0.2,0-0.3-0.1-0.3-0.3
			c0,0,0,0,0,0V5.4c0-1.2-1-1.7-2.1-1.3c-0.7,0.2-1.5,0.2-2.3,0c-1.1-0.3-2.1,0.2-2.1,1.3v1.8c0,0.2-0.1,0.3-0.3,0.3c0,0,0,0,0,0
			h-0.2c0-0.2,0-0.2,0-0.3c0-0.5-0.4-0.8-0.9-0.8c-0.1,0-0.2-0.1-0.2-0.2L50.2,5.2L50.2,5.2z M49.6,8.6V7.2c0-0.1,0.1-0.3,0.1-0.3
			c0.2,0.2,0.4,0.3,0.6,0.3c0.1,0,0.2,0.1,0.2,0.2v1.8h-0.5C49.8,9.1,49.6,8.9,49.6,8.6z M51.2,9.3V8.2h0.2c0.6,0,1-0.5,1-1
			c0,0,0,0,0,0V5.4c0-0.7,0.5-0.9,1.2-0.7c0.9,0.2,1.8,0.2,2.7,0c0.7-0.2,1.2,0,1.2,0.7v1.8c0,0.6,0.5,1,1,1c0,0,0,0,0,0h0.2v1.2
			c0,0.3-0.1,0.7-0.2,1c-0.2-0.2-0.5-0.3-0.8-0.3h-0.9c-0.6,0-1,0.5-0.9,1.1c0,0.5,0.4,0.9,0.9,0.9h0.6c-1.5,1.2-3.6,1.2-5.1-0.1
			C51.7,11.3,51.2,10.3,51.2,9.3L51.2,9.3z M53.3,13.3c1.1,0.4,2.3,0.4,3.4,0c0,0.4,0.1,0.7,0.3,1l-2,1.2l-2-1.2
			C53.2,14,53.3,13.7,53.3,13.3L53.3,13.3z M53.2,16.8l-1.9-1.9l0.6-0.4c0.1,0,0.2,0,0.2,0l2.4,1.5l-0.9,0.8l0,0l0,0
			C53.4,16.9,53.2,16.9,53.2,16.8L53.2,16.8z M54.7,18.5h0.7l0.9,5h-2.5L54.7,18.5z"/>
		<path id="Path_160" d="M59,18c-0.5,0-1,0.4-1,1v0.4c0,0.5,0.4,1,1,1h1.8c0.5,0,1-0.4,1-1V19c0-0.5-0.4-1-1-1H59z M61.1,19v0.4
			c0,0.2-0.1,0.3-0.3,0.3H59c-0.2,0-0.3-0.1-0.3-0.3V19c0-0.2,0.1-0.3,0.3-0.3h1.8C61,18.7,61.1,18.9,61.1,19z"/>
	</g>
</g>
<path id="Path_41" class="st0" d="M-55-13.9v-5.3c0-1.5,1.1-2.8,2.6-3.1c0.8-0.1,1.7,0,2.4,0.5c0.3,0.2,0.5,0.4,0.7,0.6
	c1.6,1.6,3.3,3.2,4.9,4.8c0.5,0.5,1,0.9,1.6,1.4v-4.3c0-1.1,0.6-2.2,1.5-2.8c1.5-0.9,3.5-0.4,4.4,1.2c0.2,0.3,0.3,0.7,0.4,1.1
	c0.1,0.5,0.1,1,0.1,1.4v4.1c0,2.4-0.1,4.9-0.1,7.3c-0.1,1.7-1.6,3.1-3.3,3c-0.4,0-0.7-0.1-1.1-0.3c-0.5-0.3-1-0.6-1.4-1.1
	c-1.4-1.4-2.9-2.8-4.3-4.2c-1.8-1.7-3.7-3.5-5.5-5.2l-0.3-0.3c-1-0.7-2-0.4-2.3,0.9c0.2,0,0.2,0.1,0,0.2L-55-13.9z"/>
<g id="upload-rounded-symbol_1_" transform="translate(-4.387 0.5)">
	<path id="Path_165" class="st1" d="M55.6-20.2c0,2-1.6,3.5-3.5,3.5h-9.6c-2,0-3.5-1.6-3.5-3.5c0-0.8,0.7-1.5,1.5-1.5
		c0.8,0,1.5,0.7,1.5,1.5c0,0.3,0.3,0.6,0.6,0.6h9.6c0.3,0,0.6-0.3,0.6-0.6c0-0.8,0.7-1.5,1.5-1.5C55-21.6,55.6-21,55.6-20.2
		C55.6-20.2,55.6-20.2,55.6-20.2L55.6-20.2z M44-30.6l1.8-1.8v8.3c0,0.8,0.7,1.5,1.5,1.5c0.8,0,1.5-0.7,1.5-1.5v-8.3l1.8,1.8
		c0.6,0.6,1.5,0.6,2.1,0c0.6-0.6,0.6-1.5,0-2.1l0,0L48.3-37c-0.6-0.6-1.5-0.6-2.1,0c0,0,0,0,0,0l-4.3,4.3c-0.5,0.6-0.5,1.5,0.1,2.1
		C42.6-30.1,43.4-30.1,44-30.6z"/>
</g>
<g id="line_icons" transform="translate(-1.85 -4.36)">
	<path id="Path_111" class="st2" d="M13.7,26.7c-0.5,0-0.9-0.1-1.4-0.3l-4.6-2.1c-0.2-0.1-0.2-0.3-0.1-0.4c0.1-0.2,0.3-0.2,0.4-0.2
		l4.6,2.1c0.9,0.4,1.9,0.3,2.7-0.3l9.4-6.7c0.4-0.3,0.5-0.8,0.2-1.2c-0.2-0.3-0.6-0.4-1-0.3l-6.8,2.4c-0.2,0.1-0.4,0-0.4-0.2
		c-0.1-0.2,0-0.4,0.2-0.4c0,0,0,0,0,0l6.8-2.4c0.8-0.3,1.6,0.1,1.9,0.9c0.2,0.6,0,1.3-0.5,1.7l-9.4,6.7
		C15.1,26.5,14.4,26.8,13.7,26.7L13.7,26.7z"/>
	<path id="Path_112" class="st2" d="M12.5,21c-0.2,0-0.3-0.1-0.3-0.3c0-0.1,0.1-0.3,0.2-0.3l4-1c0.5-0.1,0.8-0.6,0.6-1.1
		c-0.1-0.4-0.5-0.6-0.9-0.7l-3.6,0.1c-0.1,0-0.1,0-0.2,0L11.1,17c-1-0.5-2-0.7-3.1-0.7H7.9c-0.2,0-0.3-0.1-0.3-0.3c0,0,0,0,0,0
		c0-0.2,0.1-0.3,0.3-0.3h0.1c1.2-0.1,2.4,0.2,3.4,0.7l1.2,0.6l3.5-0.1c0.9,0,1.6,0.7,1.6,1.5c0,0.7-0.5,1.3-1.1,1.5L12.5,21
		C12.6,21,12.6,21,12.5,21L12.5,21z"/>
	<path id="Path_113" class="st2" d="M7,25.2H4.2c-0.6,0-1.1-0.5-1.1-1.1v-8.4c0-0.6,0.5-1.1,1.1-1.1H7c0.6,0,1.1,0.5,1.1,1.1V24
		C8.2,24.6,7.7,25.2,7,25.2z M4.2,15.1c-0.3,0-0.5,0.2-0.5,0.5V24c0,0.3,0.2,0.5,0.5,0.5H7c0.3,0,0.5-0.2,0.5-0.5v-8.4
		c0-0.3-0.2-0.5-0.5-0.5H4.2z"/>
	<path id="Path_114" class="st2" d="M22.3,18c-0.2,0-0.3-0.1-0.3-0.3c0,0,0-0.1,0-0.1c0.6-1.4-1.2-4.6-3.2-7.1h-3.1
		c-1,1.3-3.5,4.8-3.3,6.7c0,0.2-0.1,0.3-0.3,0.3c-0.2,0-0.3-0.1-0.3-0.3c-0.2-2.2,2.4-5.8,3.6-7.3c0.1-0.1,0.2-0.1,0.4-0.1
		c0,0,0,0,0.1,0h3.1c0,0,0,0,0.1,0c0.1,0,0.3,0,0.4,0.1c1.3,1.7,4.3,5.9,3.4,7.9C22.6,17.9,22.4,18,22.3,18L22.3,18z"/>
	<path id="Path_115" class="st2" d="M18.9,9.3c0,0-0.1,0-0.1,0c0,0,0,0-0.1,0h-3.1c0,0,0,0,0,0c-0.1,0-0.3,0-0.4-0.2l-1-1.8
		c-0.2-0.3-0.1-0.7,0.1-1C14.6,6,14.9,5.9,15.3,6l0.2,0c0.2,0,0.3,0,0.5,0l0.8-0.2c0.3-0.1,0.7,0,1,0.1l0.5,0.2
		c0.2,0.1,0.5,0.1,0.8,0c0.5-0.2,1,0.1,1.2,0.6c0.1,0.2,0,0.5-0.1,0.7l0,0l-1,1.7C19.2,9.2,19,9.3,18.9,9.3z M15.7,8.6h3l0.9-1.5
		c0-0.1,0-0.2,0-0.3c-0.1-0.1-0.2-0.2-0.3-0.1c-0.4,0.1-0.8,0.1-1.2,0l-0.5-0.2c-0.2-0.1-0.4-0.1-0.7-0.1l-0.8,0.2
		c-0.3,0.1-0.5,0.1-0.8,0l-0.2,0c-0.2,0-0.3,0.1-0.4,0.2c0,0.1,0,0.1,0,0.2L15.7,8.6z"/>
	<path id="Path_116" class="st2" d="M17.3,17.2c-1.3,0-2.4-1.1-2.4-2.4s1.1-2.4,2.4-2.4c1.3,0,2.4,1.1,2.4,2.4
		C19.6,16.1,18.6,17.2,17.3,17.2L17.3,17.2z M17.3,13.1c-0.9,0-1.7,0.8-1.7,1.7c0,0.9,0.8,1.7,1.7,1.7c0.9,0,1.7-0.8,1.7-1.7
		c0,0,0,0,0,0C19,13.9,18.2,13.1,17.3,13.1L17.3,13.1z"/>
	<path id="Path_117" class="st2" d="M17.2,16v-0.2c-0.2,0-0.3,0-0.5-0.1l0.1-0.2c0.1,0.1,0.3,0.1,0.5,0.1c0.2,0,0.4-0.1,0.4-0.3
		c0-0.2-0.1-0.3-0.4-0.4c-0.3-0.1-0.5-0.3-0.5-0.5c0-0.3,0.2-0.5,0.5-0.5v-0.2h0.2v0.2c0.1,0,0.3,0,0.4,0.1l-0.1,0.2
		c-0.1-0.1-0.3-0.1-0.4-0.1c-0.2,0-0.3,0.1-0.3,0.3c0,0.2,0.1,0.2,0.4,0.4c0.3,0.1,0.5,0.3,0.5,0.6c0,0.3-0.2,0.5-0.5,0.5V16
		L17.2,16z"/>
	<path id="Path_118" class="st2" d="M17.4,16.1h-0.2c0,0-0.1,0-0.1-0.1c0,0,0,0,0,0v-0.1c-0.2,0-0.3-0.1-0.5-0.2c0,0,0-0.1,0-0.1
		l0.1-0.2c0,0,0,0,0.1,0c0,0,0,0,0.1,0c0.1,0.1,0.3,0.1,0.4,0.1c0.2,0,0.3-0.1,0.3-0.2c0-0.1,0-0.2-0.3-0.3
		c-0.3-0.1-0.6-0.3-0.6-0.6c0-0.3,0.2-0.5,0.5-0.6v-0.1c0,0,0-0.1,0.1-0.1c0,0,0,0,0,0h0.2c0,0,0.1,0,0.1,0.1c0,0,0,0,0,0v0.1
		c0.1,0,0.3,0.1,0.4,0.1c0,0,0,0.1,0,0.1l-0.1,0.2c0,0,0,0,0,0c0,0,0,0-0.1,0c-0.1-0.1-0.2-0.1-0.4-0.1c-0.2,0-0.3,0.1-0.3,0.2
		s0.1,0.2,0.3,0.3c0.3,0.1,0.5,0.3,0.5,0.7c0,0.3-0.2,0.5-0.5,0.6L17.4,16.1C17.4,16,17.4,16.1,17.4,16.1
		C17.4,16.1,17.4,16.1,17.4,16.1L17.4,16.1z M17.2,15.9L17.2,15.9L17.2,15.9c0-0.1,0.1-0.2,0.1-0.2c0.2,0,0.4-0.2,0.4-0.5
		c0-0.2-0.1-0.4-0.4-0.5c-0.3-0.1-0.4-0.2-0.4-0.4c0-0.2,0.2-0.4,0.4-0.4c0,0,0,0,0,0c0.1,0,0.2,0,0.4,0.1l0-0.1
		c-0.1,0-0.2-0.1-0.3-0.1c0,0-0.1,0-0.1-0.1v-0.1h0v0.1c0,0,0,0.1-0.1,0.1c-0.2,0-0.4,0.2-0.4,0.4c0,0.2,0.1,0.3,0.5,0.5
		c0.2,0.1,0.4,0.2,0.4,0.5c0,0.2-0.2,0.4-0.4,0.4c0,0,0,0,0,0c-0.1,0-0.3,0-0.4-0.1l0,0.1c0.1,0.1,0.3,0.1,0.4,0.1
		C17.2,15.7,17.2,15.8,17.2,15.9L17.2,15.9z"/>
	<path id="Path_119" class="st2" d="M18.8,10.4h-3.1c-0.1,0-0.2,0-0.3,0c-0.5-0.1-0.7-0.6-0.6-1.1c0.1-0.3,0.3-0.5,0.6-0.6
		c0.1,0,0.1,0,0.2,0h3.1c0.1,0,0.2,0,0.3,0c0.5,0.1,0.7,0.6,0.6,1.1c0,0.1-0.1,0.3-0.2,0.4c-0.1,0.1-0.2,0.2-0.4,0.2
		C18.9,10.4,18.9,10.4,18.8,10.4z M15.7,9.3C15.7,9.3,15.7,9.3,15.7,9.3c-0.1,0-0.1,0-0.2,0.1c0,0-0.1,0.1-0.1,0.2
		c0,0.1,0.1,0.2,0.2,0.2c0,0,0,0,0.1,0h3.1c0,0,0,0,0.1,0c0,0,0.1,0,0.1-0.1c0.1-0.1,0.1-0.2,0-0.3c0,0-0.1,0-0.1-0.1c0,0,0,0-0.1,0
		L15.7,9.3z"/>
</g>
</svg>
