<svg xmlns="http://www.w3.org/2000/svg" width="25.173" height="23.338" viewBox="0 0 25.173 23.338">
  <g id="line_icons" data-name="line icons" transform="translate(-1.85 -4.36)">
    <path id="Path_111" data-name="Path 111" d="M22.636,49.462a3.648,3.648,0,0,1-1.512-.327l-5.036-2.291a.355.355,0,0,1,.294-.646l5.037,2.292a2.955,2.955,0,0,0,2.93-.284l10.33-7.348a.929.929,0,0,0-.845-1.631l-7.485,2.584a.355.355,0,1,1-.232-.67L33.6,38.552a1.638,1.638,0,0,1,1.482,2.883L24.759,48.785a3.659,3.659,0,0,1-2.124.677Z" transform="translate(-8.959 -21.914)" fill="#8e8e8e" stroke="#8e8e8e" stroke-width="0.3"/>
    <path id="Path_112" data-name="Path 112" d="M21.371,40.958a.355.355,0,0,1-.084-.7L25.629,39.2a1,1,0,0,0-.27-1.959l-3.981.071a.384.384,0,0,1-.17-.04l-1.429-.745a6.627,6.627,0,0,0-3.421-.745l-.109,0a.351.351,0,0,1-.368-.34.355.355,0,0,1,.34-.369l.1,0a7.321,7.321,0,0,1,3.782.823l1.347.7,3.888-.071a1.708,1.708,0,0,1,.461,3.355l-4.348,1.062a.364.364,0,0,1-.084.01Z" transform="translate(-8.959 -19.72)" fill="#8e8e8e" stroke="#8e8e8e" stroke-width="0.3"/>
    <path id="Path_113" data-name="Path 113" d="M6.377,43.11H3.253A1.254,1.254,0,0,1,2,41.857V32.579a1.254,1.254,0,0,1,1.253-1.253H6.377A1.254,1.254,0,0,1,7.63,32.579v9.278A1.254,1.254,0,0,1,6.377,43.11ZM3.253,32.035a.544.544,0,0,0-.544.544v9.278a.545.545,0,0,0,.544.544H6.377a.545.545,0,0,0,.544-.544V32.579a.544.544,0,0,0-.544-.544Z" transform="translate(0 -17.307)" fill="#8e8e8e" stroke="#8e8e8e" stroke-width="0.3"/>
    <path id="Path_114" data-name="Path 114" d="M40.451,25.737a.355.355,0,0,1-.325-.5c.667-1.528-1.365-5.014-3.535-7.83H33.179c-1.058,1.379-3.856,5.247-3.652,7.352a.355.355,0,0,1-.706.068c-.232-2.388,2.667-6.4,3.924-8.018a.355.355,0,0,1,.39-.118.179.179,0,0,0,.056.007h3.375a.177.177,0,0,0,.059-.009.355.355,0,0,1,.4.117c1.456,1.868,4.738,6.458,3.753,8.715a.355.355,0,0,1-.325.213Z" transform="translate(-17.303 -7.85)" fill="#8e8e8e" stroke="#8e8e8e" stroke-width="0.3"/>
    <path id="Path_115" data-name="Path 115" d="M41.639,8.374a.359.359,0,0,1-.117-.02.182.182,0,0,0-.06-.009H38.089a.192.192,0,0,0-.052.005.355.355,0,0,1-.408-.165L36.513,6.223A1.044,1.044,0,0,1,36.6,5.11a1.032,1.032,0,0,1,1.024-.4l.209.04a1.216,1.216,0,0,0,.54,0l.892-.2a1.937,1.937,0,0,1,1.127.091l.579.224a1.237,1.237,0,0,0,.842.023,1.04,1.04,0,0,1,1.226,1.468l-.011.021L41.943,8.2A.355.355,0,0,1,41.639,8.374Zm-3.506-.737h3.322l.96-1.6a.319.319,0,0,0-.017-.313.333.333,0,0,0-.368-.148,1.934,1.934,0,0,1-1.315-.038l-.58-.225a1.228,1.228,0,0,0-.716-.058l-.889.2a1.9,1.9,0,0,1-.84,0l-.2-.039a.334.334,0,0,0-.355.48Z" transform="translate(-22.199)" fill="#8e8e8e" stroke="#8e8e8e" stroke-width="0.3"/>
    <path id="Path_116" data-name="Path 116" d="M41.306,30.417A2.592,2.592,0,1,1,43.9,27.825a2.592,2.592,0,0,1-2.591,2.592Zm0-4.474a1.883,1.883,0,1,0,1.882,1.882A1.883,1.883,0,0,0,41.306,25.942Z" transform="translate(-23.697 -13.374)" fill="#8e8e8e" stroke="#8e8e8e" stroke-width="0.3"/>
    <path id="Path_117" data-name="Path 117" d="M44.717,31.508v-.183a1.014,1.014,0,0,1-.534-.154l.084-.234a.929.929,0,0,0,.5.15c.248,0,.416-.142.416-.342s-.136-.311-.395-.416c-.355-.139-.577-.3-.577-.6a.573.573,0,0,1,.528-.563v-.183h.217v.169a.932.932,0,0,1,.454.122l-.087.23a.846.846,0,0,0-.44-.119c-.269,0-.371.161-.371.3,0,.182.129.272.433.4.36.147.542.328.542.638a.607.607,0,0,1-.552.594v.194Z" transform="translate(-27.227 -15.794)" fill="#8e8e8e" stroke="#8e8e8e" stroke-width="0.3"/>
    <path id="Path_118" data-name="Path 118" d="M44.778,31.434h-.22a.089.089,0,0,1-.089-.089v-.1a1.07,1.07,0,0,1-.5-.166.089.089,0,0,1-.032-.1l.084-.234a.088.088,0,0,1,.055-.054.089.089,0,0,1,.077.01.835.835,0,0,0,.454.135c.2,0,.327-.1.327-.254,0-.1-.041-.213-.339-.333s-.632-.3-.632-.687a.647.647,0,0,1,.528-.635v-.111a.088.088,0,0,1,.089-.089H44.8a.088.088,0,0,1,.089.089V28.9a.987.987,0,0,1,.41.129.089.089,0,0,1,.038.106l-.087.231a.09.09,0,0,1-.053.052.092.092,0,0,1-.074-.006.756.756,0,0,0-.4-.106c-.208,0-.282.11-.282.213s.055.183.378.317a.785.785,0,0,1,.6.721.687.687,0,0,1-.552.666v.121a.089.089,0,0,1-.09.088Zm-.132-.177h.043V31.15a.088.088,0,0,1,.074-.087.52.52,0,0,0,.478-.507c0-.255-.142-.416-.486-.557-.277-.114-.488-.222-.488-.48a.4.4,0,0,1,.459-.39.949.949,0,0,1,.393.083l.024-.064a.883.883,0,0,0-.346-.076.089.089,0,0,1-.085-.089V28.9h-.039V29a.089.089,0,0,1-.074.088.484.484,0,0,0-.453.475c0,.229.146.375.52.522.211.085.451.218.451.5a.456.456,0,0,1-.5.431,1.028,1.028,0,0,1-.456-.109l-.024.066a1.009,1.009,0,0,0,.428.1.089.089,0,0,1,.087.089Z" transform="translate(-27.067 -15.63)" fill="#8e8e8e" stroke="#8e8e8e" stroke-width="0.3"/>
    <path id="Path_119" data-name="Path 119" d="M42.8,15.25H39.423a.886.886,0,0,1-.281-.044.961.961,0,0,1,.048-1.851.851.851,0,0,1,.233-.029H42.8a.893.893,0,0,1,.294.048.959.959,0,0,1,.385,1.6.942.942,0,0,1-.4.238A.848.848,0,0,1,42.8,15.25Zm-3.374-1.216a.192.192,0,0,0-.052.005.279.279,0,0,0-.134.071.262.262,0,0,0-.068.177.25.25,0,0,0,.181.241.213.213,0,0,0,.071.012H42.8a.177.177,0,0,0,.059-.009.258.258,0,0,0,.118-.065.251.251,0,0,0-.1-.42.218.218,0,0,0-.075-.013Z" transform="translate(-23.533 -5.688)" fill="#8e8e8e" stroke="#8e8e8e" stroke-width="0.3"/>
  </g>
</svg>
