<svg xmlns="http://www.w3.org/2000/svg" width="33" height="33" viewBox="0 0 33 33">
  <g id="QkMz4j" transform="translate(1935.781 1437.115)">
    <g id="Group_177" data-name="Group 177" transform="translate(-1935.781 -1437.115)">
      <path id="Path_72" data-name="Path 72" d="M-1935.781-1420.667a16.4,16.4,0,0,1,16.448-16.448,16.485,16.485,0,0,1,16.552,16.468,16.575,16.575,0,0,1-16.533,16.532A16.484,16.484,0,0,1-1935.781-1420.667Zm17.75-4.466c-1.777,1.593-3.363,3.1-5.039,4.5a9.074,9.074,0,0,0-3.263,5.905c-.081.558-.234,1.105-.384,1.8.554-.179.916-.332,1.293-.411a10.823,10.823,0,0,0,6.4-3.93c1.313-1.615,2.863-3.037,4.1-4.334Zm.878-1.546.206-.122,3.244,3.719c.583-.523,1.056-.911,1.485-1.342a.81.81,0,0,0-.016-1.259c-.432-.437-.88-.859-1.33-1.278-1.848-1.718-1.543-2.017-3.562.205A.228.228,0,0,0-1917.153-1426.679Z" transform="translate(1935.781 1437.115)"/>
    </g>
  </g>
</svg>
