<?xml version="1.0" encoding="utf-8"?>
<!-- Generator: Adobe Illustrator 24.3.0, SVG Export Plug-In . SVG Version: 6.00 Build 0)  -->
<svg version="1.1" id="Layer_1" xmlns="http://www.w3.org/2000/svg" xmlns:xlink="http://www.w3.org/1999/xlink" x="0px" y="0px"
	 viewBox="0 0 21.9 21.9" style="enable-background:new 0 0 21.9 21.9;" xml:space="preserve">
<style type="text/css">
	.st0{fill:none;stroke:#000000;stroke-width:1.3;stroke-miterlimit:10;}
	.st1{fill:none;stroke:#000000;}
	.st2{stroke:#000000;stroke-width:0.3;}
	.st3{fill:#F2F2F2;stroke:#000000;stroke-width:0.5;stroke-miterlimit:10;}
	.st4{stroke:#000000;stroke-width:0.4;}
	.st5{stroke:#000000;stroke-width:0.2;}
	.st6{fill:#FFFFFF;stroke:#000000;stroke-width:0.5;stroke-linecap:round;stroke-linejoin:round;}
</style>
<g id="customer-support" transform="translate(-48.348 0)">
	<g id="Group_229" transform="translate(48.348 0)">
		<path id="Path_159" d="M62.6,20.1c-0.2,0-0.3,0.2-0.3,0.3c0,0,0,0,0,0v0.3c0,0.7-0.5,1.2-1.2,1.2h-1.6v-1.6c0-0.2-0.1-0.4-0.3-0.4
			c-0.2,0-0.4,0.1-0.4,0.3c0,0,0,0,0,0V22h-3.4l-0.9-5.3l0.4-0.7c0.3,0.1,0.7,0,0.9-0.2l0,0l2.1-2.1c2.4,0.7,4.2,2.8,4.4,5.3
			c0,0.2,0.2,0.3,0.3,0.3h0c0.2,0,0.3-0.2,0.3-0.4c0,0,0,0,0,0c-0.2-2.8-2.2-5.2-5-5.9L57,12.4c-0.3-0.2-0.7-0.2-1,0l0,0
			c-0.3-0.3-0.1-0.6-0.2-1c0.2-0.1,0.5-0.3,0.7-0.5c0.3-0.3,0.6-0.6,0.8-1h0.8c0.8,0,1.5-0.7,1.5-1.5V5.6c0-0.4-0.2-0.8-0.6-1V3.6
			c0-0.3-0.1-0.7-0.4-0.9l0,0l0,0c0-0.7-0.4-1.3-1.1-1.5c0,0,0,0-0.1-0.1c-0.2-0.6-0.7-0.9-1.2-1c0,0,0,0,0,0
			c-0.3-0.5-1-0.7-1.5-0.5c0,0-0.1,0-0.1,0c-0.3-0.3-0.7-0.4-1.2-0.4c-0.4,0-0.8,0.1-1.2,0.4c0,0-0.1,0-0.1,0
			c-0.6-0.2-1.2,0.1-1.5,0.5c0,0,0,0,0,0c-0.6,0-1.1,0.4-1.2,1c0,0,0,0-0.1,0.1c-0.6,0.2-1.1,0.8-1.1,1.5c0,0,0,0,0,0
			c-0.2,0.2-0.4,0.6-0.4,0.9v0.9c-0.4,0.2-0.6,0.6-0.6,1V7c0,0.7,0.5,1.2,1.2,1.2H49c0.1,1.1,0.6,2,1.4,2.7c0.2,0.2,0.4,0.3,0.6,0.5
			c0,0.4,0.1,0.7-0.2,1l0,0c-0.3-0.2-0.7-0.2-0.9,0L49,12.9c-0.8,0.2-1.6,0.6-2.3,1.1c-0.2,0.1-0.2,0.3-0.1,0.5s0.3,0.2,0.5,0.1
			c0,0,0,0,0.1,0c0.6-0.4,1.2-0.7,1.9-0.9l2.1,2.1l0,0c0.2,0.2,0.6,0.3,0.9,0.2l0.4,0.7L51.5,22h-3.4v-1.6c0-0.2-0.1-0.4-0.3-0.4
			c-0.2,0-0.4,0.1-0.4,0.3c0,0,0,0,0,0V22h-1.6c-0.7,0-1.2-0.5-1.2-1.2v0v-1.4c0-1.4,0.5-2.7,1.3-3.8c0.1-0.1,0.1-0.4,0-0.5
			c-0.1-0.1-0.4-0.1-0.5,0c0,0,0,0,0,0c-1,1.2-1.5,2.7-1.5,4.2v1.4c0,1,0.8,1.9,1.9,1.9H61c1,0,1.9-0.8,1.9-1.9v-0.3
			C62.9,20.3,62.8,20.1,62.6,20.1C62.6,20.1,62.6,20.1,62.6,20.1L62.6,20.1z M53,16.3l-0.4-0.7l0.9-0.7l0.9,0.7l-0.4,0.7H53L53,16.3
			z M56.6,12.9l0.6,0.4l-1.9,1.9c-0.1,0.1-0.2,0.1-0.3,0l0,0l0,0L54,14.4l2.4-1.5C56.5,12.9,56.5,12.9,56.6,12.9z M58.7,5.3
			c0.1,0.1,0.1,0.2,0.1,0.3V7c0,0.3-0.2,0.5-0.5,0.5l0,0h-0.5V5.8c0-0.1,0.1-0.2,0.2-0.2C58.3,5.6,58.6,5.4,58.7,5.3L58.7,5.3z
			 M56.3,9.8h-0.9c-0.2,0-0.3-0.1-0.3-0.3c0-0.2,0.1-0.3,0.3-0.3c0,0,0,0,0,0h0.9c0.2,0,0.3,0.1,0.3,0.3C56.6,9.7,56.5,9.8,56.3,9.8
			C56.3,9.8,56.3,9.8,56.3,9.8L56.3,9.8z M58.1,9.2h-0.4c0.1-0.3,0.2-0.7,0.2-1h0.5c0.2,0,0.3,0,0.5-0.1v0.3
			C58.9,8.9,58.5,9.2,58.1,9.2L58.1,9.2z M48.6,3.6c0-0.2,0.1-0.3,0.2-0.4C48.9,3.1,49,2.9,49,2.7c0-0.4,0.3-0.7,0.6-0.8
			c0.2-0.1,0.4-0.3,0.5-0.5c0.1-0.3,0.3-0.5,0.6-0.5c0.2,0,0.4-0.1,0.5-0.3c0.2-0.2,0.5-0.3,0.8-0.3c0.3,0.1,0.5,0,0.7-0.2
			c0.2-0.2,0.4-0.2,0.7-0.2c0.2,0,0.5,0,0.7,0.2c0.2,0.2,0.5,0.3,0.7,0.2c0.3-0.1,0.6,0,0.8,0.3c0.1,0.2,0.3,0.3,0.5,0.3
			c0.3,0,0.5,0.2,0.6,0.5c0.1,0.2,0.2,0.4,0.5,0.5c0.4,0.1,0.6,0.5,0.6,0.8c0,0.2,0.1,0.4,0.2,0.5c0.1,0.1,0.2,0.3,0.2,0.4v1
			c0,0.1-0.1,0.2-0.2,0.2c-0.5,0-0.9,0.4-0.9,0.9V6H57c-0.2,0-0.3-0.1-0.3-0.3c0,0,0,0,0,0V3.9c0-1.2-1-1.7-2.1-1.3
			c-0.7,0.2-1.5,0.2-2.3,0c-1.1-0.3-2.1,0.2-2.1,1.3v1.8C50.2,5.8,50,6,49.9,6c0,0,0,0,0,0h-0.2c0-0.2,0-0.2,0-0.3
			c0-0.5-0.4-0.8-0.9-0.8c-0.1,0-0.2-0.1-0.2-0.2L48.6,3.6L48.6,3.6z M48,7V5.6c0-0.1,0.1-0.3,0.1-0.3c0.2,0.2,0.4,0.3,0.6,0.3
			c0.1,0,0.2,0.1,0.2,0.2v1.8h-0.5C48.2,7.5,48,7.3,48,7z M49.7,7.8V6.7h0.2c0.6,0,1-0.5,1-1c0,0,0,0,0,0V3.9c0-0.7,0.5-0.9,1.2-0.7
			c0.9,0.2,1.8,0.2,2.7,0C55.4,3,56,3.2,56,3.9v1.8c0,0.6,0.5,1,1,1c0,0,0,0,0,0h0.2v1.2c0,0.3-0.1,0.7-0.2,1
			c-0.2-0.2-0.5-0.3-0.8-0.3h-0.9c-0.6,0-1,0.5-0.9,1.1c0,0.5,0.4,0.9,0.9,0.9h0.6c-1.5,1.2-3.6,1.2-5.1-0.1
			C50.1,9.7,49.7,8.8,49.7,7.8L49.7,7.8z M51.7,11.8c1.1,0.4,2.3,0.4,3.4,0c0,0.4,0.1,0.7,0.3,1l-2,1.2l-2-1.2
			C51.7,12.5,51.8,12.1,51.7,11.8L51.7,11.8z M51.6,15.2l-1.9-1.9l0.6-0.4c0.1,0,0.2,0,0.2,0l2.4,1.5l-0.9,0.8l0,0l0,0
			C51.8,15.3,51.7,15.3,51.6,15.2L51.6,15.2z M53.1,17h0.7l0.9,5h-2.5L53.1,17z"/>
		<path id="Path_160" d="M57.5,16.5c-0.5,0-1,0.4-1,1v0.4c0,0.5,0.4,1,1,1h1.8c0.5,0,1-0.4,1-1v-0.4c0-0.5-0.4-1-1-1H57.5z
			 M59.5,17.4v0.4c0,0.2-0.1,0.3-0.3,0.3h-1.8c-0.2,0-0.3-0.1-0.3-0.3v-0.4c0-0.2,0.1-0.3,0.3-0.3h1.8
			C59.4,17.2,59.5,17.3,59.5,17.4z"/>
	</g>
</g>
<path id="Path_41" class="st0" d="M-56.5-15.4v-5.3c0-1.5,1.1-2.8,2.6-3.1c0.8-0.1,1.7,0,2.4,0.5c0.3,0.2,0.5,0.4,0.7,0.6
	c1.6,1.6,3.3,3.2,4.9,4.8c0.5,0.5,1,0.9,1.6,1.4v-4.3c0-1.1,0.6-2.2,1.5-2.8c1.5-0.9,3.5-0.4,4.4,1.2c0.2,0.3,0.3,0.7,0.4,1.1
	c0.1,0.5,0.1,1,0.1,1.4v4.1c0,2.4-0.1,4.9-0.1,7.3c-0.1,1.7-1.6,3.1-3.3,3c-0.4,0-0.7-0.1-1.1-0.3c-0.5-0.3-1-0.6-1.4-1.1
	c-1.4-1.4-2.9-2.8-4.3-4.2c-1.8-1.7-3.7-3.5-5.5-5.2l-0.3-0.3c-1-0.7-2-0.4-2.3,0.9c0.2,0,0.2,0.1,0,0.2L-56.5-15.4z"/>
<g id="upload-rounded-symbol_1_" transform="translate(-4.387 0.5)">
	<path id="Path_165" class="st1" d="M54.1-21.7c0,2-1.6,3.5-3.5,3.5h-9.6c-2,0-3.5-1.6-3.5-3.5c0-0.8,0.7-1.5,1.5-1.5
		c0.8,0,1.5,0.7,1.5,1.5c0,0.3,0.3,0.6,0.6,0.6h9.6c0.3,0,0.6-0.3,0.6-0.6c0-0.8,0.7-1.5,1.5-1.5C53.4-23.2,54.1-22.5,54.1-21.7
		C54.1-21.7,54.1-21.7,54.1-21.7L54.1-21.7z M42.4-32.2l1.8-1.8v8.3c0,0.8,0.7,1.5,1.5,1.5c0.8,0,1.5-0.7,1.5-1.5V-34l1.8,1.8
		c0.6,0.6,1.5,0.6,2.1,0c0.6-0.6,0.6-1.5,0-2.1l0,0l-4.3-4.3c-0.6-0.6-1.5-0.6-2.1,0c0,0,0,0,0,0l-4.3,4.3c-0.5,0.6-0.5,1.5,0.1,2.1
		C41-31.6,41.9-31.6,42.4-32.2z"/>
</g>
<g id="line_icons" transform="translate(-1.85 -4.36)">
	<path id="Path_111" class="st2" d="M52.7,70.3c-0.5,0-0.9-0.1-1.4-0.3L46.7,68c-0.2-0.1-0.2-0.3-0.1-0.4c0.1-0.2,0.3-0.2,0.4-0.2
		l4.6,2.1c0.9,0.4,1.9,0.3,2.7-0.3l9.4-6.7c0.4-0.3,0.5-0.8,0.2-1.2c-0.2-0.3-0.6-0.4-1-0.3L56,63.4c-0.2,0.1-0.4,0-0.4-0.2
		c-0.1-0.2,0-0.4,0.2-0.4c0,0,0,0,0,0l6.8-2.4c0.8-0.3,1.6,0.1,1.9,0.9c0.2,0.6,0,1.3-0.5,1.7l-9.4,6.7C54,70.1,53.4,70.3,52.7,70.3
		L52.7,70.3z"/>
	<path id="Path_112" class="st2" d="M51.5,64.6c-0.2,0-0.3-0.1-0.3-0.3c0-0.1,0.1-0.3,0.2-0.3l4-1c0.5-0.1,0.8-0.6,0.6-1.1
		c-0.1-0.4-0.5-0.6-0.9-0.7l-3.6,0.1c-0.1,0-0.1,0-0.2,0l-1.3-0.7c-1-0.5-2-0.7-3.1-0.7h-0.1c-0.2,0-0.3-0.1-0.3-0.3c0,0,0,0,0,0
		c0-0.2,0.1-0.3,0.3-0.3h0.1c1.2-0.1,2.4,0.2,3.4,0.7l1.2,0.6l3.5-0.1c0.9,0,1.6,0.7,1.6,1.5c0,0.7-0.5,1.3-1.1,1.5L51.5,64.6
		C51.6,64.6,51.5,64.6,51.5,64.6L51.5,64.6z"/>
	<path id="Path_113" class="st2" d="M46,68.8h-2.8c-0.6,0-1.1-0.5-1.1-1.1v-8.4c0-0.6,0.5-1.1,1.1-1.1H46c0.6,0,1.1,0.5,1.1,1.1v8.4
		C47.2,68.2,46.6,68.8,46,68.8z M43.2,58.7c-0.3,0-0.5,0.2-0.5,0.5v8.4c0,0.3,0.2,0.5,0.5,0.5H46c0.3,0,0.5-0.2,0.5-0.5v-8.4
		c0-0.3-0.2-0.5-0.5-0.5H43.2z"/>
	<path id="Path_114" class="st2" d="M61.3,61.5c-0.2,0-0.3-0.1-0.3-0.3c0,0,0-0.1,0-0.1c0.6-1.4-1.2-4.6-3.2-7.1h-3.1
		c-1,1.3-3.5,4.8-3.3,6.7c0,0.2-0.1,0.3-0.3,0.3c-0.2,0-0.3-0.1-0.3-0.3c-0.2-2.2,2.4-5.8,3.6-7.3c0.1-0.1,0.2-0.1,0.4-0.1
		c0,0,0,0,0.1,0h3.1c0,0,0,0,0.1,0c0.1,0,0.3,0,0.4,0.1c1.3,1.7,4.3,5.9,3.4,7.9C61.5,61.5,61.4,61.5,61.3,61.5L61.3,61.5z"/>
	<path id="Path_115" class="st2" d="M57.9,52.9c0,0-0.1,0-0.1,0c0,0,0,0-0.1,0h-3.1c0,0,0,0,0,0c-0.1,0-0.3,0-0.4-0.2l-1-1.8
		c-0.2-0.3-0.1-0.7,0.1-1c0.2-0.3,0.6-0.4,0.9-0.4l0.2,0c0.2,0,0.3,0,0.5,0l0.8-0.2c0.3-0.1,0.7,0,1,0.1l0.5,0.2
		c0.2,0.1,0.5,0.1,0.8,0c0.5-0.2,1,0.1,1.2,0.6c0.1,0.2,0,0.5-0.1,0.7l0,0l-1,1.7C58.1,52.8,58,52.9,57.9,52.9z M54.7,52.2h3
		l0.9-1.5c0-0.1,0-0.2,0-0.3c-0.1-0.1-0.2-0.2-0.3-0.1c-0.4,0.1-0.8,0.1-1.2,0l-0.5-0.2C56.3,50,56.1,50,55.9,50l-0.8,0.2
		c-0.3,0.1-0.5,0.1-0.8,0l-0.2,0c-0.2,0-0.3,0.1-0.4,0.2c0,0.1,0,0.1,0,0.2L54.7,52.2z"/>
	<path id="Path_116" class="st2" d="M56.2,60.8c-1.3,0-2.4-1.1-2.4-2.4s1.1-2.4,2.4-2.4c1.3,0,2.4,1.1,2.4,2.4
		C58.6,59.7,57.5,60.8,56.2,60.8L56.2,60.8z M56.2,56.7c-0.9,0-1.7,0.8-1.7,1.7s0.8,1.7,1.7,1.7c0.9,0,1.7-0.8,1.7-1.7c0,0,0,0,0,0
		C58,57.5,57.2,56.7,56.2,56.7L56.2,56.7z"/>
	<path id="Path_117" class="st2" d="M56.1,59.6v-0.2c-0.2,0-0.3,0-0.5-0.1l0.1-0.2c0.1,0.1,0.3,0.1,0.5,0.1c0.2,0,0.4-0.1,0.4-0.3
		c0-0.2-0.1-0.3-0.4-0.4c-0.3-0.1-0.5-0.3-0.5-0.5c0-0.3,0.2-0.5,0.5-0.5v-0.2h0.2v0.2c0.1,0,0.3,0,0.4,0.1l-0.1,0.2
		c-0.1-0.1-0.3-0.1-0.4-0.1c-0.2,0-0.3,0.1-0.3,0.3c0,0.2,0.1,0.2,0.4,0.4c0.3,0.1,0.5,0.3,0.5,0.6c0,0.3-0.2,0.5-0.5,0.5v0.2
		L56.1,59.6z"/>
	<path id="Path_118" class="st2" d="M56.3,59.6h-0.2c0,0-0.1,0-0.1-0.1c0,0,0,0,0,0v-0.1c-0.2,0-0.3-0.1-0.5-0.2c0,0,0-0.1,0-0.1
		l0.1-0.2c0,0,0,0,0.1,0c0,0,0,0,0.1,0c0.1,0.1,0.3,0.1,0.4,0.1c0.2,0,0.3-0.1,0.3-0.2c0-0.1,0-0.2-0.3-0.3
		c-0.3-0.1-0.6-0.3-0.6-0.6c0-0.3,0.2-0.5,0.5-0.6v-0.1c0,0,0-0.1,0.1-0.1c0,0,0,0,0,0h0.2c0,0,0.1,0,0.1,0.1c0,0,0,0,0,0v0.1
		c0.1,0,0.3,0.1,0.4,0.1c0,0,0,0.1,0,0.1l-0.1,0.2c0,0,0,0,0,0c0,0,0,0-0.1,0c-0.1-0.1-0.2-0.1-0.4-0.1c-0.2,0-0.3,0.1-0.3,0.2
		s0.1,0.2,0.3,0.3c0.3,0.1,0.5,0.3,0.5,0.7c0,0.3-0.2,0.5-0.5,0.6L56.3,59.6C56.4,59.6,56.4,59.6,56.3,59.6
		C56.3,59.6,56.3,59.6,56.3,59.6L56.3,59.6z M56.2,59.5L56.2,59.5L56.2,59.5c0-0.1,0.1-0.2,0.1-0.2c0.2,0,0.4-0.2,0.4-0.5
		c0-0.2-0.1-0.4-0.4-0.5c-0.3-0.1-0.4-0.2-0.4-0.4c0-0.2,0.2-0.4,0.4-0.4c0,0,0,0,0,0c0.1,0,0.2,0,0.4,0.1l0-0.1
		c-0.1,0-0.2-0.1-0.3-0.1c0,0-0.1,0-0.1-0.1v-0.1h0v0.1c0,0,0,0.1-0.1,0.1c-0.2,0-0.4,0.2-0.4,0.4c0,0.2,0.1,0.3,0.5,0.5
		c0.2,0.1,0.4,0.2,0.4,0.5c0,0.2-0.2,0.4-0.4,0.4c0,0,0,0,0,0c-0.1,0-0.3,0-0.4-0.1l0,0.1c0.1,0.1,0.3,0.1,0.4,0.1
		C56.2,59.3,56.2,59.4,56.2,59.5L56.2,59.5z"/>
	<path id="Path_119" class="st2" d="M57.8,54h-3.1c-0.1,0-0.2,0-0.3,0c-0.5-0.1-0.7-0.6-0.6-1.1c0.1-0.3,0.3-0.5,0.6-0.6
		c0.1,0,0.1,0,0.2,0h3.1c0.1,0,0.2,0,0.3,0c0.5,0.1,0.7,0.6,0.6,1.1c0,0.1-0.1,0.3-0.2,0.4c-0.1,0.1-0.2,0.2-0.4,0.2
		C57.9,54,57.8,54,57.8,54z M54.7,52.9C54.7,52.9,54.6,52.9,54.7,52.9c-0.1,0-0.1,0-0.2,0.1c0,0-0.1,0.1-0.1,0.2
		c0,0.1,0.1,0.2,0.2,0.2c0,0,0,0,0.1,0h3.1c0,0,0,0,0.1,0c0,0,0.1,0,0.1-0.1c0.1-0.1,0.1-0.2,0-0.3c0,0-0.1,0-0.1-0.1c0,0,0,0-0.1,0
		L54.7,52.9z"/>
</g>
<g id="hBZnqI.tif" transform="translate(-862.775 -497)">
	<g id="Group_124" transform="translate(862.775 497)">
		<path id="Path_39" class="st3" d="M8.5,19.3c-0.4-0.4-0.8-0.8-1.2-1.2c-0.8-0.8-1.5-1.5-2.3-2.3c-0.4-0.3-0.4-0.9-0.1-1.2
			c0-0.1,0.1-0.1,0.1-0.1c1.1-1.1,2.2-2.2,3.4-3.4c0,0,0.1-0.1,0.1-0.1l1.2,1.3l-2,2l0,0.1c0.1,0,0.1,0,0.2,0c2.2,0,4.5,0,6.7,0
			c1.8,0,3.4-1.4,3.6-3.2c0.1-0.4,0.1-0.4,0.5-0.4c0.4,0,0.7,0,1.1,0c0.2,0,0.2,0.1,0.2,0.2c-0.1,1.1-0.5,2.2-1.1,3.1
			c-0.9,1.1-2.2,1.9-3.6,2.1c-0.6,0.1-1.2,0.1-1.8,0.1c-1.8,0-3.7,0-5.5,0H7.6c0.1,0.1,0.1,0.2,0.2,0.2c0.6,0.6,1.2,1.2,1.7,1.7
			c0.1,0.1,0.1,0.2,0,0.3c-0.3,0.3-0.6,0.6-1,0.9C8.6,19.2,8.5,19.2,8.5,19.3z"/>
		<path id="Path_40" class="st3" d="M14.2,5c-0.1-0.1-0.1-0.1-0.2-0.2c-0.6-0.6-1.1-1.1-1.7-1.7c-0.1-0.1-0.1-0.2,0-0.3
			c0.4-0.4,0.7-0.7,1.1-1.1c0.3,0.3,0.5,0.5,0.7,0.8C15.1,3.4,16,4.3,17,5.2c0.4,0.3,0.4,0.9,0.1,1.2c0,0.1-0.1,0.1-0.1,0.1
			c-1.1,1.1-2.3,2.3-3.4,3.4c0,0-0.1,0.1-0.1,0.1l-1.3-1.3l2.1-2.1c-0.1,0-0.2,0-0.3,0c-2.2,0-4.4,0-6.6,0C5.6,6.8,4,8,3.7,9.8
			c0,0.1-0.1,0.3-0.1,0.4c0,0.2-0.1,0.2-0.3,0.2c-0.4,0-0.8,0-1.2,0c-0.3,0-0.3,0-0.3-0.3C2,8.8,2.5,7.6,3.4,6.7
			c0.9-1,2.2-1.6,3.5-1.6c1.6-0.1,3.2,0,4.8,0c0.7,0,1.5,0,2.2,0L14.2,5L14.2,5z"/>
	</g>
</g>
<g id="money" transform="translate(0 -3)">
	<g id="Group_215" transform="translate(13.808 14.656)">
		<g id="Group_214">
			<path id="Path_120" d="M-29.9,29.4c-0.5-0.1-0.8-0.5-0.7-1c0.1-0.5,0.5-0.8,1-0.7c0.4,0.1,0.8,0.4,0.8,0.9c0,0.3,0.2,0.5,0.5,0.5
				c0.3,0,0.5-0.2,0.5-0.5c0-0.9-0.6-1.6-1.5-1.7v-0.2c0-0.3-0.2-0.5-0.5-0.5c-0.3,0-0.5,0.2-0.5,0.5v0.2c-0.8,0.2-1.4,0.9-1.5,1.7
				c0,1,0.9,1.8,1.9,1.8c0.5,0.1,0.8,0.5,0.7,1c-0.1,0.5-0.5,0.8-1,0.7c-0.4-0.1-0.8-0.4-0.8-0.9c0-0.3-0.2-0.5-0.5-0.5
				c-0.3,0-0.5,0.2-0.5,0.5c0,0.9,0.6,1.6,1.5,1.7v0.2c0,0.3,0.2,0.5,0.5,0.5c0.3,0,0.5-0.2,0.5-0.5v-0.2c0.8-0.2,1.4-0.9,1.5-1.7
				C-28,30.1-28.8,29.3-29.9,29.4z"/>
		</g>
	</g>
	<g id="Group_217" transform="translate(17.674 13.026)">
		<g id="Group_216">
			<path id="Path_121" d="M-28.7,28.3c-0.6-0.9-1.4-1.7-2.5-2.2c-0.2-0.1-0.5,0-0.6,0.2c-0.1,0.2,0,0.5,0.2,0.6
				c2.5,1.2,3.6,4.2,2.4,6.8c0,0.1-0.1,0.1-0.1,0.2c-0.1,0.2,0,0.5,0.2,0.6s0.5,0,0.6-0.2C-27.4,32.4-27.5,30.1-28.7,28.3
				L-28.7,28.3z"/>
		</g>
	</g>
	<g id="Group_219" transform="translate(15.974 12.483)">
		<g id="Group_218">
			<path id="Path_122" d="M-31.3,26.1L-31.3,26.1c-0.3,0-0.5,0.2-0.5,0.5c0,0.3,0.2,0.5,0.5,0.5h0c0.3,0,0.5-0.2,0.5-0.5
				C-30.8,26.3-31,26.1-31.3,26.1L-31.3,26.1z"/>
		</g>
	</g>
	<g id="Group_221" transform="translate(9.759 15.416)">
		<g id="Group_220">
			<path id="Path_123" d="M-28,33.7c-2.5-1.2-3.6-4.2-2.4-6.8c0-0.1,0.1-0.1,0.1-0.2c0.1-0.2,0-0.5-0.2-0.6c-0.2-0.1-0.5,0-0.6,0.2
				c-1.5,2.9-0.4,6.5,2.5,8.1c0.1,0,0.1,0.1,0.2,0.1c0.2,0.1,0.5,0,0.6-0.2S-27.8,33.8-28,33.7L-28,33.7z"/>
		</g>
	</g>
	<g id="Group_223" transform="translate(14.564 23.531)">
		<g id="Group_222">
			<path id="Path_124" d="M-31.3,26.1L-31.3,26.1c-0.3,0-0.5,0.2-0.5,0.5c0,0.3,0.2,0.5,0.5,0.5h0c0.3,0,0.5-0.2,0.5-0.5
				C-30.8,26.3-31,26.1-31.3,26.1L-31.3,26.1z"/>
		</g>
	</g>
	<g id="Group_225" transform="translate(0 3)">
		<g id="Group_224" transform="translate(0 0)">
			<path id="Path_125" d="M-14,34c-0.1-0.1-0.1-0.3-0.2-0.4h1.2c1.2,0,2.1-0.9,2.2-2.1c0-1.2-0.9-2.1-2.1-2.2c0,0-0.1,0-0.1,0h-3.7
				c0.7-1,0.4-2.3-0.5-2.9c-0.4-0.2-0.8-0.4-1.2-0.4h-11.3c-1.2,0-2.1,0.9-2.2,2.1c0,1.2,0.9,2.1,2.1,2.2c0,0,0.1,0,0.1,0h3.7
				c-0.5,0.7-0.5,1.7,0,2.4h-1.2c-1.2,0-2.1,1-2.1,2.1c0,0.6,0.3,1.2,0.8,1.6c-0.9,0.7-1.1,2.1-0.3,3c0.1,0.1,0.2,0.2,0.3,0.3
				c-0.9,0.7-1.1,2.1-0.3,3c0.1,0.1,0.2,0.2,0.3,0.3c-0.9,0.7-1.1,2.1-0.4,3c0.4,0.5,1,0.8,1.7,0.8h5.4c3,3.2,7.9,3.3,11.1,0.4
				c3.2-3,3.3-7.9,0.4-11.1C-11.3,35.1-12.6,34.4-14,34L-14,34z M-13,30.3c0.7,0,1.2,0.5,1.3,1.1c0,0.7-0.5,1.2-1.1,1.3
				c-0.1,0-0.1,0-0.2,0h-11.3c-0.7,0-1.2-0.6-1.1-1.3c0-0.6,0.5-1.1,1.1-1.1H-13z M-29.7,29.4c-0.7,0-1.2-0.5-1.3-1.1
				c0-0.7,0.5-1.2,1.1-1.3c0.1,0,0.1,0,0.2,0h11.3c0.7,0,1.2,0.6,1.1,1.3c0,0.6-0.5,1.1-1.1,1.1H-29.7z M-27.2,33.6h11.3
				c0.2,0,0.4,0,0.5,0.1c-0.2,0-0.4,0-0.7,0c-2.1,0-4.1,0.8-5.5,2.3h-5.6c-0.7,0-1.2-0.6-1.1-1.3C-28.3,34.1-27.8,33.6-27.2,33.6
				L-27.2,33.6z M-27.2,36.9h4.8c-0.5,0.7-0.9,1.5-1.2,2.4h-3.6c-0.7,0-1.2-0.5-1.3-1.1c0-0.7,0.5-1.2,1.1-1.3
				C-27.3,36.9-27.2,36.9-27.2,36.9z M-27.2,40.2h3.4c-0.1,0.8-0.1,1.6,0,2.4h-3.4c-0.7,0-1.2-0.5-1.3-1.1c0-0.7,0.5-1.2,1.1-1.3
				C-27.3,40.2-27.2,40.2-27.2,40.2z M-27.2,45.9c-0.7,0-1.2-0.5-1.3-1.1c0-0.7,0.5-1.2,1.1-1.3c0.1,0,0.1,0,0.2,0h3.6
				c0.2,0.9,0.6,1.7,1.1,2.4L-27.2,45.9z M-16,48.4c-3.8,0-6.9-3.1-6.9-6.9s3.1-6.9,6.9-6.9s6.9,3.1,6.9,6.9
				C-9.1,45.3-12.2,48.4-16,48.4L-16,48.4z"/>
		</g>
	</g>
</g>
<g id="dollar" transform="translate(-1.775 -1.798)">
	<path id="Path_141" class="st4" d="M112-16.7c-0.2,0-0.3-0.1-0.3-0.3c0-0.1,0-0.1,0-0.1c1.5-2.8,1.6-6.1,0.3-9
		c-0.1-0.2,0-0.3,0.2-0.4c0.2-0.1,0.3,0,0.4,0.2c1.4,3.1,1.3,6.6-0.3,9.6C112.2-16.7,112.1-16.6,112-16.7L112-16.7z"/>
	<path id="Path_142" class="st4" d="M107.5-12.1c-0.2,0-0.3-0.1-0.3-0.3c0-0.1,0.1-0.2,0.2-0.3c0.3-0.1,0.5-0.3,0.8-0.5
		c0.1-0.1,0.3-0.1,0.4,0.1s0.1,0.3-0.1,0.4c-0.3,0.2-0.5,0.3-0.8,0.5C107.6-12.2,107.5-12.1,107.5-12.1z"/>
	<path id="Path_143" class="st4" d="M102.5-10.9c-2.9,0-5.7-1.2-7.8-3.2c-0.1-0.1-0.1-0.3,0-0.4c0.1-0.1,0.3-0.1,0.4,0l0,0
		c2.7,2.7,6.5,3.7,10.2,2.7c0.2,0,0.3,0.1,0.4,0.2c0,0.2-0.1,0.3-0.2,0.4l0,0C104.5-11,103.5-10.9,102.5-10.9z"/>
	<path id="Path_144" class="st4" d="M110-14c-0.2,0-0.3-0.1-0.3-0.3c0-0.1,0-0.2,0.1-0.2c0,0,0,0,0,0c0.2-0.2,0.4-0.4,0.6-0.6
		c0.1-0.1,0.3-0.2,0.4,0c0.1,0.1,0.2,0.3,0,0.4c-0.2,0.2-0.4,0.5-0.6,0.7c0,0,0,0-0.1,0.1C110.1-14,110.1-14,110-14L110-14z"/>
	<path id="Path_145" class="st4" d="M92.8-17.1c-0.1,0-0.2-0.1-0.3-0.2c-2.6-5.5-0.1-12.1,5.4-14.6c4.2-1.9,9.1-1.1,12.4,2.2
		c0.1,0.1,0.1,0.3,0,0.4c-0.1,0.1-0.3,0.1-0.4,0l0,0c-4.1-4.1-10.6-4-14.7,0c-3.1,3.1-3.9,7.7-2.1,11.7c0.1,0.2,0,0.3-0.2,0.4
		C92.8-17.1,92.8-17.1,92.8-17.1L92.8-17.1z"/>
	<path id="Path_146" class="st4" d="M110-29.2h-2.3c-0.2,0-0.3-0.1-0.3-0.3s0.1-0.3,0.3-0.3l0,0h2v-2c0-0.2,0.1-0.3,0.3-0.3
		s0.3,0.1,0.3,0.3v2.3C110.4-29.3,110.2-29.2,110-29.2z"/>
	<path id="Path_147" class="st4" d="M94.9-11.7c-0.2,0-0.3-0.1-0.3-0.3v-2.3c0-0.2,0.1-0.3,0.3-0.3h2.3c0.2,0,0.3,0.1,0.3,0.3
		S97.4-14,97.3-14h-2v2C95.2-11.8,95.1-11.7,94.9-11.7C94.9-11.7,94.9-11.7,94.9-11.7z"/>
	<path id="Path_148" class="st4" d="M102.5-15c-3.8,0-6.9-3.1-6.9-6.9s3.1-6.9,6.9-6.9c3.8,0,6.9,3.1,6.9,6.9S106.3-15,102.5-15
		L102.5-15z M102.5-28.2c-3.5,0-6.3,2.8-6.3,6.3s2.8,6.3,6.3,6.3c3.5,0,6.3-2.8,6.3-6.3l0,0C108.8-25.4,105.9-28.2,102.5-28.2z"/>
	<path id="Path_149" class="st4" d="M102.5-21.6c-1.1,0-2-0.9-2-2s0.9-2,2-2c1.1,0,2,0.9,2,2l0,0c0,0.2-0.1,0.3-0.3,0.3
		c-0.2,0-0.3-0.1-0.3-0.3l0,0c0-0.8-0.6-1.4-1.4-1.4c-0.8,0-1.4,0.6-1.4,1.4c0,0.8,0.6,1.4,1.4,1.4l0,0c0.2,0,0.3,0.1,0.3,0.3
		S102.6-21.6,102.5-21.6z"/>
	<path id="Path_150" class="st4" d="M102.5-18.2c-1.1,0-2-0.9-2-2c0-0.2,0.1-0.3,0.3-0.3s0.3,0.1,0.3,0.3c0,0.8,0.6,1.4,1.4,1.4
		s1.4-0.6,1.4-1.4c0-0.8-0.6-1.4-1.4-1.4c-0.2,0-0.3-0.1-0.3-0.3s0.1-0.3,0.3-0.3c1.1,0,2,0.8,2.1,2
		C104.6-19.2,103.7-18.2,102.5-18.2C102.5-18.2,102.5-18.2,102.5-18.2L102.5-18.2z"/>
	<path id="Path_151" class="st4" d="M102.5-17.5c-0.2,0-0.3-0.1-0.3-0.3c0,0,0,0,0,0V-26c0-0.2,0.1-0.3,0.3-0.3
		c0.2,0,0.3,0.1,0.3,0.3v8.2C102.8-17.7,102.6-17.5,102.5-17.5C102.5-17.5,102.5-17.5,102.5-17.5z"/>
</g>
<g id="digitalization" transform="translate(-13.691 0)">
	<path id="Path_156" d="M96.4,18.1c-0.2,0-0.3,0.2-0.3,0.3c0,0,0,0,0,0c0,0.8-0.3,1.5-0.9,2c-0.1,0.1-0.1,0.2-0.1,0.3v1.5
		c0,0.2,0.2,0.3,0.3,0.3c0.2,0,0.3-0.2,0.3-0.3v-1.3c0.7-0.6,1.1-1.5,1.1-2.4C96.8,18.3,96.6,18.1,96.4,18.1z"/>
	<path id="Path_157" d="M95.2,15.6v-0.7c0.5,0,0.9,0.4,0.9,0.9l0,0.8c0,0.2,0.2,0.3,0.3,0.3c0.2,0,0.3-0.2,0.3-0.3l0-0.8
		c0-0.9-0.7-1.6-1.6-1.6l-2.8,0v-0.8c1.6-0.6,2.5-2.4,1.9-4.1s-2.4-2.5-4.1-1.9c-0.1,0.1-0.3,0.1-0.4,0.2c-0.2,0.1-0.2,0.3-0.1,0.5
		s0.3,0.2,0.5,0.1l0,0c1.2-0.7,2.7-0.3,3.4,0.9c0.7,1.2,0.3,2.7-0.9,3.4c-0.1,0-0.2,0.1-0.2,0.1V11c0-0.6-0.5-1.2-1.1-1.2
		c-0.6,0-1.2,0.5-1.2,1.1c0,0,0,0.1,0,0.1v1.7c-1.2-0.6-1.6-2.1-1-3.3c0.1-0.2,0-0.4-0.2-0.4c-0.2-0.1-0.4,0-0.4,0.2
		c-0.8,1.6-0.1,3.5,1.5,4.2c0,0,0.1,0,0.1,0.1v3.4l-0.9-1.1c-0.4-0.5-1.1-0.5-1.6-0.1C87,16,87,16.7,87.4,17.2l2.8,3.3v1.7
		c0,0.2,0.2,0.3,0.3,0.3c0.2,0,0.3-0.2,0.3-0.3v-1.8c0-0.1,0-0.2-0.1-0.2l-2.8-3.4c-0.2-0.2-0.1-0.5,0.1-0.7
		c0.2-0.2,0.5-0.1,0.7,0.1l1.5,1.8c0.1,0.1,0.3,0.2,0.5,0c0.1-0.1,0.1-0.2,0.1-0.3v-6.8c0-0.3,0.2-0.5,0.5-0.5c0,0,0,0,0,0
		c0.3,0,0.5,0.2,0.5,0.5v4.7c0,0.2,0.2,0.3,0.3,0.3c0.2,0,0.3-0.2,0.3-0.3v-0.8h0.8v0.8c0,0.2,0.2,0.3,0.3,0.3
		c0.2,0,0.3-0.2,0.3-0.3v-0.8h0.8v0.7c0,0.2,0.2,0.3,0.3,0.3C95.1,16,95.2,15.8,95.2,15.6L95.2,15.6z"/>
	<path id="Path_158" d="M101,9.3c-0.5,0-1,0.4-1.1,0.9h-3.6c-0.1-1-0.4-1.9-1-2.7l1.1-1.1H98c0.2,0.8,1,1.2,1.7,1s1.2-1,1-1.7
		c-0.2-0.8-1-1.2-1.7-1c-0.5,0.1-0.9,0.5-1,1h-1.5V3.7c0.6-0.2,1-0.9,0.8-1.5c-0.2-0.6-0.9-1-1.5-0.8s-1,0.9-0.8,1.5
		c0.1,0.4,0.4,0.7,0.8,0.8v2.1l-1.1,1.1c-0.8-0.8-1.9-1.3-3.1-1.4h0V2.2c0.8-0.2,1.2-1,1-1.7c-0.2-0.8-1-1.2-1.7-1s-1.2,1-1,1.7
		c0.1,0.5,0.5,0.9,1,1v3.3c-1.2,0.1-2.3,0.6-3.1,1.4l-1.1-1.1V3.7c0.6-0.2,1-0.9,0.8-1.5s-0.9-1-1.5-0.8c-0.6,0.2-1,0.9-0.8,1.5
		c0.1,0.4,0.4,0.7,0.8,0.8v1.9h-1.5c-0.2-0.8-1-1.2-1.7-1c-0.8,0.2-1.2,1-1,1.7c0.2,0.8,1,1.2,1.7,1c0.5-0.1,0.9-0.5,1-1h1.7
		l1.1,1.1c-0.6,0.8-1,1.7-1,2.7c0,0,0,0,0,0h-3.6c-0.2-0.6-0.9-1-1.5-0.8c-0.6,0.2-1,0.9-0.8,1.5c0.2,0.6,0.9,1,1.5,0.8
		c0.4-0.1,0.7-0.4,0.8-0.8h3.6c0.1,1.1,0.5,2.1,1.2,2.9c0.3,0.3,0.5,0.5,0.8,0.8c0.2,0.1,0.4,0.1,0.5-0.1s0.1-0.4-0.1-0.5
		c-1.9-1.4-2.4-4.1-1-6c1.4-1.9,4.1-2.4,6-1c1.2,0.9,1.9,2.3,1.8,3.8c-0.1,0.8-0.3,1.5-0.8,2.2c-0.1,0.2-0.1,0.4,0.1,0.5
		s0.4,0.1,0.5-0.1c0.5-0.7,0.8-1.6,0.9-2.5c0,0,0,0,0,0h3.6c0.2,0.6,0.9,1,1.5,0.8s1-0.9,0.8-1.5C102,9.6,101.5,9.3,101,9.3L101,9.3
		z M85.8,2.6c0-0.3,0.2-0.5,0.5-0.5c0.3,0,0.5,0.2,0.5,0.5c0,0.3-0.2,0.5-0.5,0.5c0,0,0,0,0,0C86.1,3.1,85.8,2.9,85.8,2.6L85.8,2.6z
		 M83.1,6.7c-0.4,0-0.7-0.3-0.7-0.7s0.3-0.7,0.7-0.7c0.4,0,0.7,0.3,0.7,0.7C83.8,6.4,83.5,6.7,83.1,6.7z M81.5,11
		c-0.3,0-0.5-0.2-0.5-0.5s0.2-0.5,0.5-0.5c0.3,0,0.5,0.2,0.5,0.5C82.1,10.7,81.8,11,81.5,11z M90.5,0.9c0-0.4,0.3-0.7,0.7-0.7
		c0.4,0,0.7,0.3,0.7,0.7s-0.3,0.7-0.7,0.7C90.8,1.6,90.5,1.3,90.5,0.9z M99.4,5.2c0.4,0,0.7,0.3,0.7,0.8c0,0.4-0.3,0.7-0.8,0.7
		c-0.4,0-0.7-0.3-0.7-0.7C98.7,5.5,99,5.2,99.4,5.2C99.4,5.2,99.4,5.2,99.4,5.2L99.4,5.2z M95.6,2.6c0-0.3,0.2-0.5,0.5-0.5
		c0.3,0,0.5,0.2,0.5,0.5s-0.2,0.5-0.5,0.5c0,0,0,0,0,0C95.9,3.1,95.6,2.9,95.6,2.6z M101,11c-0.3,0-0.5-0.2-0.5-0.5
		c0-0.3,0.2-0.5,0.5-0.5c0.3,0,0.5,0.2,0.5,0.5C101.5,10.7,101.3,11,101,11z"/>
</g>
<g id="bank" transform="translate(-1.9 -1.896)">
	<path id="Path_126" class="st5" d="M6.9-16.2H-14c-0.2,0-0.3-0.1-0.3-0.3l0,0v-2.3c0-0.1,0.1-0.2,0.1-0.3l10.4-6.3
		c0.1-0.1,0.2-0.1,0.3,0L7-19c0.1,0.1,0.1,0.2,0.1,0.3v2.3C7.2-16.3,7-16.2,6.9-16.2z M-13.7-16.8H6.6v-1.8l-10.1-6.1l-10.1,6.1
		V-16.8z"/>
	<path id="Path_127" class="st5" d="M-3.6-18.5c-1,0-1.8-0.8-1.8-1.8s0.8-1.8,1.8-1.8c1,0,1.8,0.8,1.8,1.8
		C-1.7-19.3-2.5-18.5-3.6-18.5L-3.6-18.5z M-3.6-21.6c-0.7,0-1.2,0.6-1.2,1.2c0,0.7,0.6,1.2,1.2,1.2c0.7,0,1.2-0.6,1.2-1.2
		C-2.3-21-2.9-21.6-3.6-21.6L-3.6-21.6z"/>
	<path id="Path_128" class="st5" d="M5.1-14.3H1.8c-0.4,0-0.7-0.3-0.7-0.7v-1.6c0-0.2,0.1-0.3,0.3-0.3h4c0.2,0,0.3,0.1,0.3,0.3v1.6
		C5.7-14.6,5.4-14.3,5.1-14.3z M1.7-16.2v1.3c0,0,0,0,0,0.1h3.3c0,0,0,0,0-0.1v-1.3H1.7z"/>
	<path id="Path_129" class="st5" d="M4.8-8H2.1C1.9-8,1.7-8.2,1.7-8.3v-6.2c0-0.2,0.1-0.3,0.3-0.3h2.7c0.2,0,0.3,0.1,0.3,0.3v6.2
		C5.1-8.2,5-8,4.8-8z M2.4-8.6h2.1v-5.6H2.4L2.4-8.6z"/>
	<path id="Path_130" class="st5" d="M5.4-6.1h-4c-0.2,0-0.3-0.1-0.3-0.3V-8c0-0.4,0.3-0.7,0.7-0.7h3.3c0.4,0,0.7,0.3,0.7,0.7v1.6
		C5.7-6.2,5.6-6.1,5.4-6.1z M1.7-6.7h3.4V-8c0,0,0,0,0-0.1H1.8c0,0,0,0,0,0.1V-6.7z"/>
	<path id="Path_131" class="st5" d="M-1.9-14.3h-3.3c-0.4,0-0.7-0.3-0.7-0.7v-1.6c0-0.2,0.1-0.3,0.3-0.3h4c0.2,0,0.3,0.1,0.3,0.3
		v1.6C-1.3-14.6-1.6-14.3-1.9-14.3z M-5.3-16.2v1.3c0,0,0,0,0,0.1h3.3c0,0,0,0,0-0.1v-1.3H-5.3z"/>
	<path id="Path_132" class="st5" d="M-2.2-8h-2.7c-0.2,0-0.3-0.1-0.3-0.3v-6.2c0-0.2,0.1-0.3,0.3-0.3h2.7c0.2,0,0.3,0.1,0.3,0.3v6.2
		C-1.9-8.2-2-8-2.2-8C-2.2-8-2.2-8-2.2-8z M-4.6-8.6h2.1v-5.6h-2.1V-8.6z"/>
	<path id="Path_133" class="st5" d="M-1.6-6.1h-4c-0.2,0-0.3-0.1-0.3-0.3V-8c0-0.4,0.3-0.7,0.7-0.7h3.3c0.4,0,0.7,0.3,0.7,0.7v1.6
		C-1.3-6.2-1.4-6.1-1.6-6.1z M-5.3-6.7h3.4V-8c0,0,0,0,0-0.1h-3.3c0,0,0,0,0,0.1L-5.3-6.7z"/>
	<path id="Path_134" class="st5" d="M-8.6-14.3h-3.3c-0.4,0-0.7-0.3-0.7-0.7v-1.6c0-0.2,0.1-0.3,0.3-0.3h4c0.2,0,0.3,0.1,0.3,0.3
		v1.6C-7.9-14.6-8.2-14.3-8.6-14.3L-8.6-14.3z M-11.9-16.2v1.3c0,0,0,0,0,0.1h3.3c0,0,0,0,0-0.1v-1.3H-11.9z"/>
	<path id="Path_135" class="st5" d="M-8.9-8h-2.7c-0.2,0-0.3-0.1-0.3-0.3v-6.2c0-0.2,0.1-0.3,0.3-0.3h2.7c0.2,0,0.3,0.1,0.3,0.3v6.2
		C-8.6-8.2-8.7-8-8.9-8z M-11.3-8.6h2.1v-5.6h-2.1V-8.6z"/>
	<path id="Path_136" class="st5" d="M-8.3-6.1h-4c-0.2,0-0.3-0.1-0.3-0.3V-8c0-0.4,0.3-0.7,0.7-0.7h3.3c0.4,0,0.7,0.3,0.7,0.7v1.6
		C-7.9-6.2-8.1-6.1-8.3-6.1z M-11.9-6.7h3.4V-8c0,0,0,0,0-0.1h-3.3c0,0,0,0,0,0.1L-11.9-6.7z"/>
	<path id="Path_137" class="st5" d="M6.9-3.8h-21c-0.2,0-0.3-0.1-0.3-0.3v-2.3c0-0.2,0.1-0.3,0.3-0.3h21c0.2,0,0.3,0.1,0.3,0.3v2.3
		C7.2-3.9,7.1-3.8,6.9-3.8C6.9-3.8,6.9-3.8,6.9-3.8z M-13.8-4.4H6.6v-1.7h-20.4V-4.4z"/>
</g>
<g id="Group_228" transform="translate(-60.5 -529.244)">
	<g id="bank_1_" transform="translate(60.5 529.235)">
		<g id="Group_227" transform="translate(0 0.008)">
			<g id="Group_226" transform="translate(0 0)">
				<path id="Path_152" d="M73.1-50.7c1.2-2.1,0.7-4.8-1.2-6.4v-3h0.5c0.3,0,0.5-0.2,0.5-0.5c0,0,0,0,0,0v-1.4h0.5
					c0.3,0,0.5-0.2,0.5-0.5c0-0.1-0.1-0.3-0.2-0.4L63-70.1c-0.2-0.1-0.4-0.1-0.5,0L52-62.7c-0.2,0.1-0.3,0.4-0.1,0.6
					c0.1,0.1,0.2,0.2,0.4,0.2h0.5v1.4c0,0.3,0.2,0.5,0.5,0.5h0.5v7.3h-0.5c-0.3,0-0.5,0.2-0.5,0.5v1.5c-0.5,0.2-0.9,0.7-0.9,1.3v0.9
					c0,0.3,0.2,0.5,0.5,0.5h21.1c0.3,0,0.5-0.2,0.5-0.5v-0.9C73.8-50,73.5-50.4,73.1-50.7z M71.9-61h-3.7v-0.9h3.7V-61z M71-60v2.4
					c-0.6-0.3-1.2-0.5-1.8-0.5V-60L71-60L71-60z M62.8-69.1l9.1,6.3H53.7L62.8-69.1z M57.7-52.7h-0.5V-60h0.5c0.3,0,0.5-0.2,0.5-0.5
					v-1.4H60v1.4c0,0.3,0.2,0.5,0.5,0.5h0.5v7.3h-0.5c-0.3,0-0.5,0.2-0.5,0.5v1.4h-1.8v-1.4C58.2-52.5,58-52.7,57.7-52.7
					C57.7-52.7,57.7-52.7,57.7-52.7z M60.9-51.8h3c0.1,0.3,0.2,0.6,0.4,0.9h-3.3V-51.8z M61.9-52.7V-60h1.8v7.3L61.9-52.7z M64.1-61
					h-3.2v-0.9h3.7v0.9C64.6-61,64.1-61,64.1-61z M64.6-60h0.5c0.3,0,0.5-0.2,0.5-0.5v-1.4h1.8v1.4c0,0.3,0.2,0.5,0.5,0.5h0.5v1.9
					c-1.5,0.1-2.8,0.9-3.7,2.1L64.6-60z M53.6-61.9h3.7v0.9h-3.7V-61.9z M56.3-60v7.3h-1.8V-60H56.3z M53.6-51.8h3.7v0.9h-3.7V-51.8
					z M52.7-49v-0.5c0-0.3,0.2-0.5,0.5-0.5h11.7c0.3,0.3,0.6,0.7,1,0.9L52.7-49L52.7-49z M72.9-49h-1.2c0.4-0.2,0.7-0.5,1-0.9
					c0.2,0.1,0.3,0.2,0.3,0.4V-49z M68.7-49c-2.3,0-4.1-1.8-4.1-4.1s1.8-4.1,4.1-4.1s4.1,1.8,4.1,4.1S71-49,68.7-49L68.7-49z"/>
				<path id="Path_153" d="M68.1-64.5l-5-3.7l-0.6,0.7l3.9,2.8h-8.2v0.9h9.6c0.3,0,0.5-0.2,0.5-0.4C68.3-64.3,68.2-64.5,68.1-64.5
					L68.1-64.5z"/>
			</g>
		</g>
	</g>
	<g id="Icon_feather-lock" transform="translate(70.646 540.384)">
		<path id="Path_154" class="st6" d="M56.8-64.8h3.7c0.3,0,0.5,0.2,0.5,0.5l0,0v1.8c0,0.3-0.2,0.5-0.5,0.5c0,0,0,0,0,0h-3.7
			c-0.3,0-0.5-0.2-0.5-0.5l0,0v-1.8C56.3-64.5,56.5-64.8,56.8-64.8L56.8-64.8z"/>
		<path id="Path_155" class="st6" d="M57.3-64.8v-1c0-0.7,0.6-1.3,1.3-1.3s1.3,0.6,1.3,1.3v1"/>
	</g>
</g>
<g id="Group_213">
	<g id="Group_212">
		<path id="Path_107" d="M16.1,69.8l-1.6,1.6v-8.2c0-0.5-0.4-0.9-0.9-0.9c-0.5,0-0.9,0.4-0.9,0.9l0,0v8.1l-1.5-1.5
			c-0.3-0.3-0.9-0.3-1.3,0c-0.3,0.3-0.3,0.9,0,1.3l1.8,1.8c1,1,2.7,1,3.8,0c0,0,0,0,0,0l1.8-1.8c0.3-0.3,0.4-0.9,0-1.3
			C17,69.5,16.5,69.5,16.1,69.8L16.1,69.8L16.1,69.8z"/>
		<path id="Path_108" d="M24.1,63.2c-0.5,0-0.9,0.4-0.9,0.9c0,0,0,0,0,0c0,1-0.8,1.8-1.8,1.8h-4.3c-0.5,0-0.9,0.4-0.9,0.9
			c0,0.5,0.4,0.9,0.9,0.9c0,0,0,0,0,0h4.3c2,0,3.5-1.6,3.5-3.5C24.9,63.6,24.5,63.2,24.1,63.2z"/>
		<path id="Path_109" d="M16,62.2c0.4,0.3,1,0.1,1.2-0.3c0.5-0.8,0.8-1.7,0.8-2.7c0.2-2.5-1.7-4.6-4.2-4.8c-2.5-0.2-4.6,1.7-4.8,4.2
			c0,0.2,0,0.4,0,0.6c0,1,0.2,1.9,0.8,2.7c0.3,0.4,0.8,0.5,1.2,0.2c0.4-0.3,0.5-0.8,0.3-1.2c-0.3-0.5-0.5-1.1-0.5-1.7
			c-0.2-1.5,0.9-2.8,2.4-3c1.5-0.2,2.8,0.9,3,2.4c0,0.2,0,0.4,0,0.6c0,0.6-0.2,1.2-0.5,1.7C15.5,61.4,15.6,62,16,62.2
			C16,62.2,16,62.2,16,62.2z"/>
		<ellipse id="Ellipse_20" cx="20.5" cy="59.3" rx="0.8" ry="1"/>
		<ellipse id="Ellipse_21" cx="6.7" cy="59.3" rx="0.8" ry="1"/>
		<path id="Path_110" d="M21.4,51H5.8c-2,0-3.5,1.6-3.5,3.5v9.6c0,2,1.6,3.5,3.5,3.5h4.3c0.5,0,0.9-0.4,0.9-0.9
			c0-0.5-0.4-0.9-0.9-0.9H5.8c-1,0-1.8-0.8-1.8-1.8v-9.6c0-1,0.8-1.8,1.8-1.8h15.6c1,0,1.8,0.8,1.8,1.8v5.1c0,0.5,0.4,0.9,0.9,0.9
			c0.5,0,0.9-0.4,0.9-0.9v-5.1C24.9,52.6,23.4,51,21.4,51z"/>
	</g>
</g>
</svg>
