<svg xmlns="http://www.w3.org/2000/svg" width="34.169" height="33.179" viewBox="0 0 34.169 33.179">
  <g id="hBZnqI.tif" transform="translate(0.001)">
    <g id="Group_124" data-name="Group 124" transform="translate(-0.001)">
      <path id="Path_39" data-name="Path 39" d="M875.5,531.224c-.771-.787-1.521-1.566-2.284-2.332-1.454-1.461-2.915-2.914-4.369-4.375a1.667,1.667,0,0,1,.02-2.6q3.179-3.181,6.359-6.359c.094-.093.193-.181.282-.263l2.323,2.387-3.795,3.748.047.111a3.543,3.543,0,0,0,.409.044c4.2,0,8.405.042,12.606-.013a6.864,6.864,0,0,0,6.776-6.034c.095-.84.11-.839.955-.84.669,0,1.339.015,2.007-.008.341-.013.444.106.423.436a10.18,10.18,0,0,1-2.155,5.805,9.978,9.978,0,0,1-6.786,3.873,27.558,27.558,0,0,1-3.406.1c-3.479.01-6.959,0-10.439,0h-.507c.175.194.273.31.379.417,1.088,1.09,2.17,2.183,3.269,3.26.23.225.226.363,0,.579-.608.584-1.2,1.189-1.793,1.784C875.742,531.028,875.648,531.1,875.5,531.224Z" transform="translate(-863.098 -498.045)"/>
      <path id="Path_40" data-name="Path 40" d="M885.976,503.269c-.122-.135-.239-.276-.367-.4-1.059-1.061-2.114-2.125-3.182-3.176-.209-.206-.226-.338-.007-.551.687-.674,1.354-1.367,2.112-2.138.5.526.941,1.02,1.409,1.491q2.617,2.634,5.247,5.256a1.664,1.664,0,0,1,.006,2.6q-3.191,3.2-6.388,6.387c-.092.093-.194.178-.282.258l-2.36-2.373,3.9-3.88c-.221-.02-.358-.043-.5-.043-4.148,0-8.3-.023-12.444.008a6.883,6.883,0,0,0-6.9,5.662,3.081,3.081,0,0,0-.1.792c.02.377-.146.438-.476.429-.749-.022-1.5-.007-2.248-.007-.647,0-.654,0-.6-.639a10.137,10.137,0,0,1,2.892-6.445,9.5,9.5,0,0,1,6.607-3.046c3.007-.1,6.019-.064,9.029-.081,1.391-.008,2.783,0,4.175,0h.434Z" transform="translate(-862.775 -497)"/>
    </g>
  </g>
</svg>
