<svg xmlns="http://www.w3.org/2000/svg" width="19.578" height="9.711" viewBox="0 0 19.578 9.711">
  <g id="PEafTk.tif" transform="translate(1000.577 214.207)">
    <g id="Group_2" data-name="Group 2">
      <path id="Path_27" data-name="Path 27" d="M-994.971-211.819a7.3,7.3,0,0,0-3.858,3.237.764.764,0,0,0,.043.67,19.579,19.579,0,0,0,1.583,1.842c.475.48.627.876.33,1.27-.312.411-.814.409-1.346-.024a6.923,6.923,0,0,1-2.282-3,1.41,1.41,0,0,1,0-.912,7.93,7.93,0,0,1,3.95-4.077,12.331,12.331,0,0,1,13.467,1.338,6.886,6.886,0,0,1,1.969,2.681c.241.613.1,1.057-.376,1.245-.447.175-.852-.049-1.091-.624a7.108,7.108,0,0,0-4.05-3.65c1,2.623.573,4.806-1.819,6.34a4.491,4.491,0,0,1-5.182-.314C-995.59-207.371-995.928-209.382-994.971-211.819Zm4.139,5.387a3.064,3.064,0,0,0,3.112-3.036,3.077,3.077,0,0,0-3.063-3.147,3.1,3.1,0,0,0-3.12,3.041A3.079,3.079,0,0,0-990.832-206.432Z" fill="#8e8e8e"/>
    </g>
  </g>
</svg>
