<svg id="F7a2Ub.tif" xmlns="http://www.w3.org/2000/svg" width="31.845" height="31.845" viewBox="0 0 31.845 31.845">
  <g id="Group_54" data-name="Group 54" transform="translate(0 0)">
    <path id="Path_248" data-name="Path 248" d="M-419.654,96.649v26.413a.629.629,0,0,0-.108.151,3.329,3.329,0,0,1-3.509,2.559q-3.171,0-6.343,0c-.207,0-.415-.019-.618-.028V113.179h3.4c1.241,0,1.252,0,1.422-1.207.127-.9.22-1.814.338-2.8h-5.2c0-.846,0-1.622,0-2.4a3.3,3.3,0,0,1,3.566-3.538c.572,0,1.143,0,1.688,0V99.244h-1.535a7.326,7.326,0,0,0-7.71,7.724c0,.726,0,1.451,0,2.252h-3.927v3.965h3.881v12.523a.727.727,0,0,1-.163.053c-4.617,0-9.233.032-13.849-.008a3.24,3.24,0,0,1-3.166-3.291q-.022-12.62,0-25.241a3.034,3.034,0,0,1,1.24-2.521,10.139,10.139,0,0,1,1.464-.771h26.414A3.859,3.859,0,0,1-419.654,96.649Zm-15.926,11.228c0-.5,0-.908,0-1.315a8.437,8.437,0,0,1,6.6-8.35,37.57,37.57,0,0,1,5.285-.387v6.726c-1.111,0-2.185-.015-3.258,0a1.952,1.952,0,0,0-1.971,1.705,13.1,13.1,0,0,0-.012,1.638h5.371l-.832,6.622h-4.524v9.9c.251.012.462.03.673.03q2.46,0,4.919,0a2.067,2.067,0,0,0,2.34-2.352q0-12.233,0-24.466a2.077,2.077,0,0,0-2.39-2.368q-12.2,0-24.4,0c-1.655,0-2.4.752-2.4,2.426q0,12.168,0,24.336c0,1.672.743,2.423,2.4,2.424q5.728,0,11.456,0h.7v-9.959h-3.9v-6.614Z" transform="translate(451.498 -93.93)"/>
  </g>
</svg>
