<svg xmlns="http://www.w3.org/2000/svg" width="21.566" height="21.565" viewBox="0 0 21.566 21.565">
  <g id="_7Or1Wf" data-name="7Or1Wf" transform="translate(2005.202 1062.969)">
    <g id="Group_193" data-name="Group 193" transform="translate(-2005.202 -1062.969)">
      <path id="Path_90" data-name="Path 90" d="M-2005.2-1051.529q0-4.685,0-9.369a1.952,1.952,0,0,1,2.076-2.07h17.406a1.96,1.96,0,0,1,2.083,2.088q0,6.243,0,12.485a1.963,1.963,0,0,1-2.083,2.09q-6.812,0-13.624,0a.575.575,0,0,0-.451.183q-2.211,2.225-4.434,4.44a1.9,1.9,0,0,1-.187.176.466.466,0,0,1-.506.054.458.458,0,0,1-.277-.4c-.005-.078,0-.157,0-.236Zm.983,8.434c.1-.093.151-.141.2-.19,1.231-1.23,2.466-2.457,3.688-3.7a.969.969,0,0,1,.758-.308q6.909.011,13.817,0a1.008,1.008,0,0,0,1.137-1.137c0-4.14-.007-8.28.008-12.42a1.073,1.073,0,0,0-1.155-1.151c-5.773.015-11.546.008-17.32.008a.992.992,0,0,0-1.132,1.131q0,8.735,0,17.47Z" transform="translate(2005.202 1062.969)"/>
      <path id="Path_91" data-name="Path 91" d="M-1990.279-1053.921h5.242a1.636,1.636,0,0,1,.236.008.476.476,0,0,1,.406.437.47.47,0,0,1-.319.5,1.019,1.019,0,0,1-.3.036q-5.264,0-10.528,0a1.066,1.066,0,0,1-.255-.026.475.475,0,0,1-.355-.519.476.476,0,0,1,.433-.433c.135-.011.272,0,.408,0Z" transform="translate(2001.052 1058.822)"/>
      <path id="Path_92" data-name="Path 92" d="M-1990.256-1047.569h-5.307c-.36,0-.57-.167-.586-.458a.476.476,0,0,1,.418-.511,1.847,1.847,0,0,1,.257-.009h10.4a2.27,2.27,0,0,1,.236.005.477.477,0,0,1,.447.487.475.475,0,0,1-.45.483c-.079.007-.158,0-.236,0Z" transform="translate(2001.052 1056.358)"/>
      <path id="Path_93" data-name="Path 93" d="M-1992.705-1043.058c.952,0,1.9,0,2.856,0a.509.509,0,0,1,.5.263.483.483,0,0,1-.33.7,1.166,1.166,0,0,1-.234.017h-5.606c-.05,0-.1,0-.15,0a.484.484,0,0,1-.481-.5.475.475,0,0,1,.5-.476c.573-.006,1.145,0,1.718,0Z" transform="translate(2001.052 1053.842)"/>
    </g>
  </g>
</svg>
