<svg xmlns="http://www.w3.org/2000/svg" width="23.57" height="23.294" viewBox="0 0 23.57 23.294">
  <g id="money" transform="translate(0 -3)">
    <g id="Group_215" data-name="Group 215" transform="translate(13.808 14.656)">
      <g id="Group_214" data-name="Group 214">
        <path id="Path_120" data-name="Path 120" d="M301.887,259.523a.886.886,0,1,1,1.013-.877.46.46,0,1,0,.921,0,1.832,1.832,0,0,0-1.473-1.745v-.239a.46.46,0,0,0-.921,0v.239a1.832,1.832,0,0,0-1.473,1.745,1.871,1.871,0,0,0,1.933,1.8.886.886,0,1,1-1.013.877.46.46,0,0,0-.921,0,1.832,1.832,0,0,0,1.473,1.745v.2a.46.46,0,0,0,.921,0v-.2a1.832,1.832,0,0,0,1.473-1.745A1.871,1.871,0,0,0,301.887,259.523Z" transform="translate(-299.954 -256.201)" fill="#8e8e8e"/>
      </g>
    </g>
    <g id="Group_217" data-name="Group 217" transform="translate(17.674 13.026)">
      <g id="Group_216" data-name="Group 216">
        <path id="Path_121" data-name="Path 121" d="M387.034,223a6,6,0,0,0-2.45-2.168.46.46,0,1,0-.4.83,5.068,5.068,0,0,1,2.283,6.942.46.46,0,1,0,.813.432,5.991,5.991,0,0,0-.246-6.036Z" transform="translate(-383.924 -220.785)" fill="#8e8e8e"/>
      </g>
    </g>
    <g id="Group_219" data-name="Group 219" transform="translate(15.974 12.483)">
      <g id="Group_218" data-name="Group 218">
        <path id="Path_122" data-name="Path 122" d="M347.491,209h-.031a.46.46,0,0,0,0,.921h.029a.46.46,0,0,0,0-.921Z" transform="translate(-347 -209.001)" fill="#8e8e8e"/>
      </g>
    </g>
    <g id="Group_221" data-name="Group 221" transform="translate(9.759 15.416)">
      <g id="Group_220" data-name="Group 220">
        <path id="Path_123" data-name="Path 123" d="M215.8,280.33a5.068,5.068,0,0,1-2.283-6.942.46.46,0,0,0-.813-.432,5.987,5.987,0,0,0,2.7,8.2.46.46,0,1,0,.4-.83Z" transform="translate(-212.002 -272.711)" fill="#8e8e8e"/>
      </g>
    </g>
    <g id="Group_223" data-name="Group 223" transform="translate(14.564 23.531)">
      <g id="Group_222" data-name="Group 222">
        <path id="Path_124" data-name="Path 124" d="M316.867,449h-.027a.46.46,0,0,0,0,.921h.031a.46.46,0,1,0,0-.921Z" transform="translate(-316.378 -448.999)" fill="#8e8e8e"/>
      </g>
    </g>
    <g id="Group_225" data-name="Group 225" transform="translate(0 3)">
      <g id="Group_224" data-name="Group 224" transform="translate(0 0)">
        <path id="Path_125" data-name="Path 125" d="M17.834,10.926a2.113,2.113,0,0,0-.2-.376h1.2a2.118,2.118,0,1,0,0-4.235H15.142A2.116,2.116,0,0,0,13.4,3H2.118a2.118,2.118,0,1,0,0,4.235H5.8a2.112,2.112,0,0,0,0,2.394H4.6A2.116,2.116,0,0,0,3.288,13.4a2.114,2.114,0,0,0,0,3.314,2.114,2.114,0,0,0,0,3.314A2.116,2.116,0,0,0,4.6,23.808h5.425a7.824,7.824,0,1,0,7.806-12.882Zm.994-3.691a1.2,1.2,0,1,1,0,2.394H7.55a1.2,1.2,0,0,1,0-2.394ZM2.118,6.314a1.2,1.2,0,1,1,0-2.394H13.4a1.2,1.2,0,0,1,0,2.394ZM4.6,10.55H15.882a1.2,1.2,0,0,1,.522.12c-.218-.018-.438-.028-.66-.028a7.8,7.8,0,0,0-5.538,2.3H4.6a1.2,1.2,0,0,1,0-2.394Zm0,3.314H9.419a7.8,7.8,0,0,0-1.183,2.394H4.6a1.2,1.2,0,1,1,0-2.394Zm0,3.314H8.025A7.832,7.832,0,0,0,8,19.572H4.6a1.2,1.2,0,1,1,0-2.394Zm0,5.708a1.2,1.2,0,1,1,0-2.394H8.184a7.8,7.8,0,0,0,1.1,2.394Zm11.14,2.486a6.905,6.905,0,1,1,6.905-6.905A6.913,6.913,0,0,1,15.744,25.373Z" transform="translate(0 -3)" fill="#8e8e8e"/>
      </g>
    </g>
  </g>
</svg>
