<?xml version="1.0" encoding="utf-8"?>
<!-- Generator: Adobe Illustrator 24.3.0, SVG Export Plug-In . SVG Version: 6.00 Build 0)  -->
<svg version="1.1" id="Layer_1" xmlns="http://www.w3.org/2000/svg" xmlns:xlink="http://www.w3.org/1999/xlink" x="0px" y="0px"
	 viewBox="0 0 25 25" style="enable-background:new 0 0 25 25;" xml:space="preserve">
<style type="text/css">
	.st0{fill:none;stroke:#000000;stroke-width:1.3;stroke-miterlimit:10;}
	.st1{fill:none;stroke:#000000;}
	.st2{stroke:#000000;stroke-width:0.3;}
	.st3{fill:#FFFFFF;stroke:#000000;stroke-width:0.5;stroke-miterlimit:10;}
</style>
<g id="customer-support" transform="translate(-48.348 0)">
	<g id="Group_229" transform="translate(48.348 0)">
		<path id="Path_159" d="M64.1,21.7c-0.2,0-0.3,0.2-0.3,0.3c0,0,0,0,0,0v0.3c0,0.7-0.5,1.2-1.2,1.2H61v-1.6c0-0.2-0.1-0.4-0.3-0.4
			c-0.2,0-0.4,0.1-0.4,0.3c0,0,0,0,0,0v1.6h-3.4L56,18.2l0.4-0.7c0.3,0.1,0.7,0,0.9-0.2l0,0l2.1-2.1c2.4,0.7,4.2,2.8,4.4,5.3
			c0,0.2,0.2,0.3,0.3,0.3h0c0.2,0,0.3-0.2,0.3-0.4c0,0,0,0,0,0c-0.2-2.8-2.2-5.2-5-5.9l-0.9-0.6c-0.3-0.2-0.7-0.2-1,0l0,0
			c-0.3-0.3-0.1-0.6-0.2-1c0.2-0.1,0.5-0.3,0.7-0.5c0.3-0.3,0.6-0.6,0.8-1h0.8c0.8,0,1.5-0.7,1.5-1.5V7.2c0-0.4-0.2-0.8-0.6-1V5.2
			c0-0.3-0.1-0.7-0.4-0.9l0,0l0,0c0-0.7-0.4-1.3-1.1-1.5c0,0,0,0-0.1-0.1c-0.2-0.6-0.7-0.9-1.2-1c0,0,0,0,0,0
			c-0.3-0.5-1-0.7-1.5-0.5c0,0-0.1,0-0.1,0c-0.3-0.3-0.7-0.4-1.2-0.4c-0.4,0-0.8,0.1-1.2,0.4c0,0-0.1,0-0.1,0
			c-0.6-0.2-1.2,0.1-1.5,0.5c0,0,0,0,0,0c-0.6,0-1.1,0.4-1.2,1c0,0,0,0-0.1,0.1c-0.6,0.2-1.1,0.8-1.1,1.5c0,0,0,0,0,0
			c-0.2,0.2-0.4,0.6-0.4,0.9v0.9c-0.4,0.2-0.6,0.6-0.6,1v1.4c0,0.7,0.5,1.2,1.2,1.2h0.5c0.1,1.1,0.6,2,1.4,2.7
			c0.2,0.2,0.4,0.3,0.6,0.5c0,0.4,0.1,0.7-0.2,1l0,0c-0.3-0.2-0.7-0.2-0.9,0l-0.9,0.6c-0.8,0.2-1.6,0.6-2.3,1.1
			c-0.2,0.1-0.2,0.3-0.1,0.5c0.1,0.2,0.3,0.2,0.5,0.1c0,0,0,0,0.1,0c0.6-0.4,1.2-0.7,1.9-0.9l2.1,2.1l0,0c0.2,0.2,0.6,0.3,0.9,0.2
			l0.4,0.7l-0.9,5.3h-3.4v-1.6c0-0.2-0.1-0.4-0.3-0.4c-0.2,0-0.4,0.1-0.4,0.3c0,0,0,0,0,0v1.6h-1.6c-0.7,0-1.2-0.5-1.2-1.2v0v-1.4
			c0-1.4,0.5-2.7,1.3-3.8c0.1-0.1,0.1-0.4,0-0.5c-0.1-0.1-0.4-0.1-0.5,0c0,0,0,0,0,0c-1,1.2-1.5,2.7-1.5,4.2v1.4
			c0,1,0.8,1.9,1.9,1.9h15.2c1,0,1.9-0.8,1.9-1.9V22C64.5,21.8,64.3,21.7,64.1,21.7C64.1,21.7,64.1,21.7,64.1,21.7L64.1,21.7z
			 M54.6,17.8l-0.4-0.7l0.9-0.7l0.9,0.7l-0.4,0.7H54.6L54.6,17.8z M58.2,14.5l0.6,0.4l-1.9,1.9c-0.1,0.1-0.2,0.1-0.3,0l0,0l0,0
			L55.6,16l2.4-1.5C58,14.5,58.1,14.5,58.2,14.5z M60.3,6.8c0.1,0.1,0.1,0.2,0.1,0.3v1.4c0,0.3-0.2,0.5-0.5,0.5l0,0h-0.5V7.3
			c0-0.1,0.1-0.2,0.2-0.2C59.9,7.1,60.1,7,60.3,6.8L60.3,6.8z M57.8,11.4h-0.9c-0.2,0-0.3-0.1-0.3-0.3c0-0.2,0.1-0.3,0.3-0.3
			c0,0,0,0,0,0h0.9c0.2,0,0.3,0.1,0.3,0.3C58.2,11.2,58,11.4,57.8,11.4C57.8,11.4,57.8,11.4,57.8,11.4L57.8,11.4z M59.6,10.8h-0.4
			c0.1-0.3,0.2-0.7,0.2-1h0.5c0.2,0,0.3,0,0.5-0.1V10C60.4,10.4,60.1,10.8,59.6,10.8L59.6,10.8z M50.2,5.2c0-0.2,0.1-0.3,0.2-0.4
			c0.1-0.1,0.2-0.3,0.2-0.5c0-0.4,0.3-0.7,0.6-0.8c0.2-0.1,0.4-0.3,0.5-0.5c0.1-0.3,0.3-0.5,0.6-0.5c0.2,0,0.4-0.1,0.5-0.3
			c0.2-0.2,0.5-0.3,0.8-0.3c0.3,0.1,0.5,0,0.7-0.2c0.2-0.2,0.4-0.2,0.7-0.2c0.2,0,0.5,0,0.7,0.2c0.2,0.2,0.5,0.3,0.7,0.2
			c0.3-0.1,0.6,0,0.8,0.3c0.1,0.2,0.3,0.3,0.5,0.3c0.3,0,0.5,0.2,0.6,0.5c0.1,0.2,0.2,0.4,0.5,0.5c0.4,0.1,0.6,0.5,0.6,0.8
			c0,0.2,0.1,0.4,0.2,0.5c0.1,0.1,0.2,0.3,0.2,0.4v1c0,0.1-0.1,0.2-0.2,0.2c-0.5,0-0.9,0.4-0.9,0.9v0.2h-0.2c-0.2,0-0.3-0.1-0.3-0.3
			c0,0,0,0,0,0V5.4c0-1.2-1-1.7-2.1-1.3c-0.7,0.2-1.5,0.2-2.3,0c-1.1-0.3-2.1,0.2-2.1,1.3v1.8c0,0.2-0.1,0.3-0.3,0.3c0,0,0,0,0,0
			h-0.2c0-0.2,0-0.2,0-0.3c0-0.5-0.4-0.8-0.9-0.8c-0.1,0-0.2-0.1-0.2-0.2L50.2,5.2L50.2,5.2z M49.6,8.6V7.2c0-0.1,0.1-0.3,0.1-0.3
			c0.2,0.2,0.4,0.3,0.6,0.3c0.1,0,0.2,0.1,0.2,0.2v1.8h-0.5C49.8,9.1,49.6,8.9,49.6,8.6z M51.2,9.3V8.2h0.2c0.6,0,1-0.5,1-1
			c0,0,0,0,0,0V5.4c0-0.7,0.5-0.9,1.2-0.7c0.9,0.2,1.8,0.2,2.7,0c0.7-0.2,1.2,0,1.2,0.7v1.8c0,0.6,0.5,1,1,1c0,0,0,0,0,0h0.2v1.2
			c0,0.3-0.1,0.7-0.2,1c-0.2-0.2-0.5-0.3-0.8-0.3h-0.9c-0.6,0-1,0.5-0.9,1.1c0,0.5,0.4,0.9,0.9,0.9h0.6c-1.5,1.2-3.6,1.2-5.1-0.1
			C51.7,11.3,51.2,10.3,51.2,9.3L51.2,9.3z M53.3,13.3c1.1,0.4,2.3,0.4,3.4,0c0,0.4,0.1,0.7,0.3,1l-2,1.2l-2-1.2
			C53.2,14,53.3,13.7,53.3,13.3L53.3,13.3z M53.2,16.8l-1.9-1.9l0.6-0.4c0.1,0,0.2,0,0.2,0l2.4,1.5l-0.9,0.8l0,0l0,0
			C53.4,16.9,53.2,16.9,53.2,16.8L53.2,16.8z M54.7,18.5h0.7l0.9,5h-2.5L54.7,18.5z"/>
		<path id="Path_160" d="M59,18c-0.5,0-1,0.4-1,1v0.4c0,0.5,0.4,1,1,1h1.8c0.5,0,1-0.4,1-1V19c0-0.5-0.4-1-1-1H59z M61.1,19v0.4
			c0,0.2-0.1,0.3-0.3,0.3H59c-0.2,0-0.3-0.1-0.3-0.3V19c0-0.2,0.1-0.3,0.3-0.3h1.8C61,18.7,61.1,18.9,61.1,19z"/>
	</g>
</g>
<path id="Path_41" class="st0" d="M-55-13.9v-5.3c0-1.5,1.1-2.8,2.6-3.1c0.8-0.1,1.7,0,2.4,0.5c0.3,0.2,0.5,0.4,0.7,0.6
	c1.6,1.6,3.3,3.2,4.9,4.8c0.5,0.5,1,0.9,1.6,1.4v-4.3c0-1.1,0.6-2.2,1.5-2.8c1.5-0.9,3.5-0.4,4.4,1.2c0.2,0.3,0.3,0.7,0.4,1.1
	c0.1,0.5,0.1,1,0.1,1.4v4.1c0,2.4-0.1,4.9-0.1,7.3c-0.1,1.7-1.6,3.1-3.3,3c-0.4,0-0.7-0.1-1.1-0.3c-0.5-0.3-1-0.6-1.4-1.1
	c-1.4-1.4-2.9-2.8-4.3-4.2c-1.8-1.7-3.7-3.5-5.5-5.2l-0.3-0.3c-1-0.7-2-0.4-2.3,0.9c0.2,0,0.2,0.1,0,0.2L-55-13.9z"/>
<g id="upload-rounded-symbol_1_" transform="translate(-4.387 0.5)">
	<path id="Path_165" class="st1" d="M55.6-20.2c0,2-1.6,3.5-3.5,3.5h-9.6c-2,0-3.5-1.6-3.5-3.5c0-0.8,0.7-1.5,1.5-1.5
		c0.8,0,1.5,0.7,1.5,1.5c0,0.3,0.3,0.6,0.6,0.6h9.6c0.3,0,0.6-0.3,0.6-0.6c0-0.8,0.7-1.5,1.5-1.5C55-21.6,55.6-21,55.6-20.2
		C55.6-20.2,55.6-20.2,55.6-20.2L55.6-20.2z M44-30.6l1.8-1.8v8.3c0,0.8,0.7,1.5,1.5,1.5c0.8,0,1.5-0.7,1.5-1.5v-8.3l1.8,1.8
		c0.6,0.6,1.5,0.6,2.1,0c0.6-0.6,0.6-1.5,0-2.1l0,0L48.3-37c-0.6-0.6-1.5-0.6-2.1,0c0,0,0,0,0,0l-4.3,4.3c-0.5,0.6-0.5,1.5,0.1,2.1
		C42.6-30.1,43.4-30.1,44-30.6z"/>
</g>
<g id="line_icons" transform="translate(-1.85 -4.36)">
	<path id="Path_111" class="st2" d="M54.2,71.9c-0.5,0-0.9-0.1-1.4-0.3l-4.6-2.1c-0.2-0.1-0.2-0.3-0.1-0.4c0.1-0.2,0.3-0.2,0.4-0.2
		l4.6,2.1c0.9,0.4,1.9,0.3,2.7-0.3l9.4-6.7c0.4-0.3,0.5-0.8,0.2-1.2c-0.2-0.3-0.6-0.4-1-0.3l-6.8,2.4c-0.2,0.1-0.4,0-0.4-0.2
		c-0.1-0.2,0-0.4,0.2-0.4c0,0,0,0,0,0l6.8-2.4c0.8-0.3,1.6,0.1,1.9,0.9c0.2,0.6,0,1.3-0.5,1.7l-9.4,6.7
		C55.6,71.7,54.9,71.9,54.2,71.9L54.2,71.9z"/>
	<path id="Path_112" class="st2" d="M53.1,66.2c-0.2,0-0.3-0.1-0.3-0.3c0-0.1,0.1-0.3,0.2-0.3l4-1c0.5-0.1,0.8-0.6,0.6-1.1
		c-0.1-0.4-0.5-0.6-0.9-0.7l-3.6,0.1c-0.1,0-0.1,0-0.2,0l-1.3-0.7c-1-0.5-2-0.7-3.1-0.7h-0.1c-0.2,0-0.3-0.1-0.3-0.3c0,0,0,0,0,0
		c0-0.2,0.1-0.3,0.3-0.3h0.1c1.2-0.1,2.4,0.2,3.4,0.7l1.2,0.6l3.5-0.1c0.9,0,1.6,0.7,1.6,1.5c0,0.7-0.5,1.3-1.1,1.5L53.1,66.2
		C53.1,66.1,53.1,66.2,53.1,66.2L53.1,66.2z"/>
	<path id="Path_113" class="st2" d="M47.6,70.3h-2.8c-0.6,0-1.1-0.5-1.1-1.1v-8.4c0-0.6,0.5-1.1,1.1-1.1h2.8c0.6,0,1.1,0.5,1.1,1.1
		v8.4C48.7,69.8,48.2,70.3,47.6,70.3z M44.7,60.2c-0.3,0-0.5,0.2-0.5,0.5v8.4c0,0.3,0.2,0.5,0.5,0.5h2.8c0.3,0,0.5-0.2,0.5-0.5v-8.4
		c0-0.3-0.2-0.5-0.5-0.5H44.7z"/>
	<path id="Path_114" class="st2" d="M62.8,63.1c-0.2,0-0.3-0.1-0.3-0.3c0,0,0-0.1,0-0.1c0.6-1.4-1.2-4.6-3.2-7.1h-3.1
		c-1,1.3-3.5,4.8-3.3,6.7c0,0.2-0.1,0.3-0.3,0.3c-0.2,0-0.3-0.1-0.3-0.3c-0.2-2.2,2.4-5.8,3.6-7.3c0.1-0.1,0.2-0.1,0.4-0.1
		c0,0,0,0,0.1,0h3.1c0,0,0,0,0.1,0c0.1,0,0.3,0,0.4,0.1c1.3,1.7,4.3,5.9,3.4,7.9C63.1,63,63,63.1,62.8,63.1L62.8,63.1z"/>
	<path id="Path_115" class="st2" d="M59.5,54.4c0,0-0.1,0-0.1,0c0,0,0,0-0.1,0h-3.1c0,0,0,0,0,0c-0.1,0-0.3,0-0.4-0.2l-1-1.8
		c-0.2-0.3-0.1-0.7,0.1-1c0.2-0.3,0.6-0.4,0.9-0.4l0.2,0c0.2,0,0.3,0,0.5,0l0.8-0.2c0.3-0.1,0.7,0,1,0.1l0.5,0.2
		c0.2,0.1,0.5,0.1,0.8,0c0.5-0.2,1,0.1,1.2,0.6c0.1,0.2,0,0.5-0.1,0.7l0,0l-1,1.7C59.7,54.4,59.6,54.4,59.5,54.4z M56.3,53.8h3
		l0.9-1.5c0-0.1,0-0.2,0-0.3c-0.1-0.1-0.2-0.2-0.3-0.1c-0.4,0.1-0.8,0.1-1.2,0l-0.5-0.2c-0.2-0.1-0.4-0.1-0.7-0.1l-0.8,0.2
		c-0.3,0.1-0.5,0.1-0.8,0l-0.2,0c-0.2,0-0.3,0.1-0.4,0.2c0,0.1,0,0.1,0,0.2L56.3,53.8z"/>
	<path id="Path_116" class="st2" d="M57.8,62.3c-1.3,0-2.4-1.1-2.4-2.4s1.1-2.4,2.4-2.4c1.3,0,2.4,1.1,2.4,2.4
		C60.2,61.3,59.1,62.3,57.8,62.3L57.8,62.3z M57.8,58.3c-0.9,0-1.7,0.8-1.7,1.7s0.8,1.7,1.7,1.7c0.9,0,1.7-0.8,1.7-1.7c0,0,0,0,0,0
		C59.5,59,58.7,58.3,57.8,58.3L57.8,58.3z"/>
	<path id="Path_117" class="st2" d="M57.7,61.1V61c-0.2,0-0.3,0-0.5-0.1l0.1-0.2c0.1,0.1,0.3,0.1,0.5,0.1c0.2,0,0.4-0.1,0.4-0.3
		s-0.1-0.3-0.4-0.4c-0.3-0.1-0.5-0.3-0.5-0.5c0-0.3,0.2-0.5,0.5-0.5v-0.2h0.2V59c0.1,0,0.3,0,0.4,0.1l-0.1,0.2
		c-0.1-0.1-0.3-0.1-0.4-0.1c-0.2,0-0.3,0.1-0.3,0.3c0,0.2,0.1,0.2,0.4,0.4c0.3,0.1,0.5,0.3,0.5,0.6c0,0.3-0.2,0.5-0.5,0.5v0.2
		L57.7,61.1z"/>
	<path id="Path_118" class="st2" d="M57.9,61.2h-0.2c0,0-0.1,0-0.1-0.1c0,0,0,0,0,0V61c-0.2,0-0.3-0.1-0.5-0.2c0,0,0-0.1,0-0.1
		l0.1-0.2c0,0,0,0,0.1,0c0,0,0,0,0.1,0c0.1,0.1,0.3,0.1,0.4,0.1c0.2,0,0.3-0.1,0.3-0.2c0-0.1,0-0.2-0.3-0.3
		c-0.3-0.1-0.6-0.3-0.6-0.6c0-0.3,0.2-0.5,0.5-0.6v-0.1c0,0,0-0.1,0.1-0.1c0,0,0,0,0,0h0.2c0,0,0.1,0,0.1,0.1c0,0,0,0,0,0v0.1
		c0.1,0,0.3,0.1,0.4,0.1c0,0,0,0.1,0,0.1l-0.1,0.2c0,0,0,0,0,0c0,0,0,0-0.1,0c-0.1-0.1-0.2-0.1-0.4-0.1c-0.2,0-0.3,0.1-0.3,0.2
		s0.1,0.2,0.3,0.3c0.3,0.1,0.5,0.3,0.5,0.7c0,0.3-0.2,0.5-0.5,0.6L57.9,61.2C58,61.2,57.9,61.2,57.9,61.2
		C57.9,61.2,57.9,61.2,57.9,61.2L57.9,61.2z M57.8,61L57.8,61L57.8,61c0-0.1,0.1-0.2,0.1-0.2c0.2,0,0.4-0.2,0.4-0.5
		c0-0.2-0.1-0.4-0.4-0.5c-0.3-0.1-0.4-0.2-0.4-0.4c0-0.2,0.2-0.4,0.4-0.4c0,0,0,0,0,0c0.1,0,0.2,0,0.4,0.1l0-0.1
		c-0.1,0-0.2-0.1-0.3-0.1c0,0-0.1,0-0.1-0.1v-0.1h0V59c0,0,0,0.1-0.1,0.1c-0.2,0-0.4,0.2-0.4,0.4c0,0.2,0.1,0.3,0.5,0.5
		c0.2,0.1,0.4,0.2,0.4,0.5c0,0.2-0.2,0.4-0.4,0.4c0,0,0,0,0,0c-0.1,0-0.3,0-0.4-0.1l0,0.1c0.1,0.1,0.3,0.1,0.4,0.1
		C57.7,60.9,57.8,60.9,57.8,61L57.8,61z"/>
	<path id="Path_119" class="st2" d="M59.3,55.5h-3.1c-0.1,0-0.2,0-0.3,0c-0.5-0.1-0.7-0.6-0.6-1.1c0.1-0.3,0.3-0.5,0.6-0.6
		c0.1,0,0.1,0,0.2,0h3.1c0.1,0,0.2,0,0.3,0c0.5,0.1,0.7,0.6,0.6,1.1c0,0.1-0.1,0.3-0.2,0.4c-0.1,0.1-0.2,0.2-0.4,0.2
		C59.5,55.5,59.4,55.5,59.3,55.5z M56.2,54.4C56.2,54.4,56.2,54.4,56.2,54.4c-0.1,0-0.1,0-0.2,0.1c0,0-0.1,0.1-0.1,0.2
		c0,0.1,0.1,0.2,0.2,0.2c0,0,0,0,0.1,0h3.1c0,0,0,0,0.1,0c0,0,0.1,0,0.1-0.1c0.1-0.1,0.1-0.2,0-0.3c0,0-0.1,0-0.1-0.1c0,0,0,0-0.1,0
		L56.2,54.4z"/>
</g>
<g id="hBZnqI.tif" transform="translate(-862.775 -497)">
	<g id="Group_124" transform="translate(862.775 497)">
		<path id="Path_39" class="st3" d="M-6.3-35.3c-0.4-0.4-0.9-0.9-1.3-1.3c-0.8-0.8-1.7-1.7-2.5-2.5c-0.4-0.3-0.5-0.9-0.1-1.3
			c0-0.1,0.1-0.1,0.1-0.1c1.2-1.2,2.4-2.4,3.6-3.6c0.1-0.1,0.1-0.1,0.2-0.1L-5-43l-2.2,2.1l0,0.1c0.1,0,0.2,0,0.2,0
			c2.4,0,4.8,0,7.2,0c2,0,3.6-1.5,3.8-3.4c0.1-0.5,0.1-0.5,0.5-0.5c0.4,0,0.8,0,1.1,0c0.2,0,0.3,0.1,0.2,0.2
			c-0.1,1.2-0.5,2.3-1.2,3.3c-0.9,1.2-2.3,2-3.9,2.2c-0.6,0.1-1.3,0.1-1.9,0.1c-2,0-3.9,0-5.9,0h-0.3c0.1,0.1,0.2,0.2,0.2,0.2
			c0.6,0.6,1.2,1.2,1.9,1.8c0.1,0.1,0.1,0.2,0,0.3c-0.3,0.3-0.7,0.7-1,1C-6.1-35.4-6.2-35.4-6.3-35.3z"/>
		<path id="Path_40" class="st3" d="M-0.1-50.6c-0.1-0.1-0.1-0.2-0.2-0.2C-1-51.4-1.6-52-2.2-52.6c-0.1-0.1-0.1-0.2,0-0.3
			c0.4-0.4,0.8-0.8,1.2-1.2c0.3,0.3,0.5,0.6,0.8,0.8c1,1,2,2,3,3C3.2-50,3.3-49.4,3-49c0,0.1-0.1,0.1-0.1,0.1
			c-1.2,1.2-2.4,2.4-3.6,3.6c-0.1,0.1-0.1,0.1-0.2,0.1l-1.3-1.3l2.2-2.2c-0.1,0-0.2,0-0.3,0c-2.4,0-4.7,0-7.1,0
			c-1.9,0-3.6,1.3-3.9,3.2c0,0.1-0.1,0.3-0.1,0.5c0,0.2-0.1,0.2-0.3,0.2c-0.4,0-0.8,0-1.3,0c-0.4,0-0.4,0-0.3-0.4
			c0.1-1.4,0.7-2.7,1.6-3.7c1-1.1,2.3-1.7,3.7-1.7c1.7-0.1,3.4,0,5.1,0c0.8,0,1.6,0,2.4,0L-0.1-50.6L-0.1-50.6z"/>
	</g>
</g>
<g id="money" transform="translate(0 -3)">
	<g id="Group_215" transform="translate(13.808 14.656)">
		<g id="Group_214">
			<path id="Path_120" d="M2.7,4.6c-0.5-0.1-0.8-0.5-0.7-1c0.1-0.5,0.5-0.8,1-0.7C3.4,3,3.7,3.3,3.7,3.8c0,0.3,0.2,0.5,0.5,0.5
				c0.3,0,0.5-0.2,0.5-0.5C4.6,2.9,4,2.2,3.1,2V1.8c0-0.3-0.2-0.5-0.5-0.5c-0.3,0-0.5,0.2-0.5,0.5V2C1.4,2.2,0.8,2.9,0.7,3.8
				c0,1,0.9,1.8,1.9,1.8c0.5,0.1,0.8,0.5,0.7,1c-0.1,0.5-0.5,0.8-1,0.7C2,7.3,1.7,6.9,1.7,6.4C1.7,6.2,1.5,6,1.2,6
				C0.9,6,0.7,6.2,0.7,6.4c0,0.9,0.6,1.6,1.5,1.7v0.2c0,0.3,0.2,0.5,0.5,0.5c0.3,0,0.5-0.2,0.5-0.5V8.2C4,8,4.6,7.3,4.6,6.4
				C4.6,5.4,3.7,4.6,2.7,4.6z"/>
		</g>
	</g>
	<g id="Group_217" transform="translate(17.674 13.026)">
		<g id="Group_216">
			<path id="Path_121" d="M3.9,3.5C3.3,2.6,2.4,1.9,1.4,1.4c-0.2-0.1-0.5,0-0.6,0.2C0.7,1.8,0.8,2.1,1,2.2C3.5,3.4,4.6,6.4,3.4,9
				c0,0.1-0.1,0.1-0.1,0.2c-0.1,0.2,0,0.5,0.2,0.6s0.5,0,0.6-0.2C5.1,7.7,5,5.4,3.9,3.5L3.9,3.5z"/>
		</g>
	</g>
	<g id="Group_219" transform="translate(15.974 12.483)">
		<g id="Group_218">
			<path id="Path_122" d="M1.2,1.3L1.2,1.3c-0.3,0-0.5,0.2-0.5,0.5c0,0.3,0.2,0.5,0.5,0.5h0c0.3,0,0.5-0.2,0.5-0.5
				C1.7,1.5,1.5,1.3,1.2,1.3L1.2,1.3z"/>
		</g>
	</g>
	<g id="Group_221" transform="translate(9.759 15.416)">
		<g id="Group_220">
			<path id="Path_123" d="M4.5,8.9C2,7.7,1,4.7,2.2,2.2c0-0.1,0.1-0.1,0.1-0.2c0.1-0.2,0-0.5-0.2-0.6c-0.2-0.1-0.5,0-0.6,0.2
				C-0.1,4.5,1,8.1,3.9,9.7c0.1,0,0.1,0.1,0.2,0.1c0.2,0.1,0.5,0,0.6-0.2S4.8,9,4.5,8.9L4.5,8.9z"/>
		</g>
	</g>
	<g id="Group_223" transform="translate(14.564 23.531)">
		<g id="Group_222">
			<path id="Path_124" d="M1.2,1.3L1.2,1.3c-0.3,0-0.5,0.2-0.5,0.5c0,0.3,0.2,0.5,0.5,0.5h0c0.3,0,0.5-0.2,0.5-0.5
				C1.7,1.5,1.5,1.3,1.2,1.3L1.2,1.3z"/>
		</g>
	</g>
	<g id="Group_225" transform="translate(0 3)">
		<g id="Group_224" transform="translate(0 0)">
			<path id="Path_125" d="M18.6,9.2c-0.1-0.1-0.1-0.3-0.2-0.4h1.2c1.2,0,2.1-0.9,2.2-2.1s-0.9-2.1-2.1-2.2c0,0-0.1,0-0.1,0h-3.7
				c0.7-1,0.4-2.3-0.5-2.9c-0.4-0.2-0.8-0.4-1.2-0.4H2.9c-1.2,0-2.1,0.9-2.2,2.1s0.9,2.1,2.1,2.2c0,0,0.1,0,0.1,0h3.7
				C6,6.3,6,7.2,6.5,8H5.3c-1.2,0-2.1,1-2.1,2.1c0,0.6,0.3,1.2,0.8,1.6c-0.9,0.7-1.1,2.1-0.3,3C3.8,14.8,3.9,14.9,4,15
				c-0.9,0.7-1.1,2.1-0.3,3c0.1,0.1,0.2,0.2,0.3,0.3c-0.9,0.7-1.1,2.1-0.4,3c0.4,0.5,1,0.8,1.7,0.8h5.4c3,3.2,7.9,3.3,11.1,0.4
				s3.3-7.9,0.4-11.1C21.2,10.4,20,9.6,18.6,9.2L18.6,9.2z M19.6,5.6c0.7,0,1.2,0.5,1.3,1.1c0,0.7-0.5,1.2-1.1,1.3
				c-0.1,0-0.1,0-0.2,0H8.3c-0.7,0-1.2-0.6-1.1-1.3c0-0.6,0.5-1.1,1.1-1.1H19.6z M2.9,4.6c-0.7,0-1.2-0.5-1.3-1.1S2,2.3,2.7,2.2
				c0.1,0,0.1,0,0.2,0h11.3c0.7,0,1.2,0.6,1.1,1.3c0,0.6-0.5,1.1-1.1,1.1H2.9z M5.3,8.9h11.3c0.2,0,0.4,0,0.5,0.1
				c-0.2,0-0.4,0-0.7,0c-2.1,0-4.1,0.8-5.5,2.3H5.3c-0.7,0-1.2-0.6-1.1-1.3C4.3,9.4,4.7,8.9,5.3,8.9L5.3,8.9z M5.3,12.2h4.8
				c-0.5,0.7-0.9,1.5-1.2,2.4H5.3c-0.7,0-1.2-0.5-1.3-1.1c0-0.7,0.5-1.2,1.1-1.3C5.2,12.2,5.3,12.2,5.3,12.2z M5.3,15.5h3.4
				c-0.1,0.8-0.1,1.6,0,2.4H5.3c-0.7,0-1.2-0.5-1.3-1.1c0-0.7,0.5-1.2,1.1-1.3C5.2,15.5,5.3,15.5,5.3,15.5z M5.3,21.2
				c-0.7,0-1.2-0.5-1.3-1.1c0-0.7,0.5-1.2,1.1-1.3c0.1,0,0.1,0,0.2,0h3.6c0.2,0.9,0.6,1.7,1.1,2.4L5.3,21.2z M16.5,23.7
				c-3.8,0-6.9-3.1-6.9-6.9s3.1-6.9,6.9-6.9s6.9,3.1,6.9,6.9C23.4,20.6,20.3,23.7,16.5,23.7L16.5,23.7z"/>
		</g>
	</g>
</g>
</svg>
