<svg xmlns="http://www.w3.org/2000/svg" width="430.892" height="74.192" viewBox="0 0 430.892 74.192">
  <g id="Group_147" data-name="Group 147" transform="translate(-140 -6644)">
    <g id="Group_47" data-name="Group 47" transform="translate(59 6578)">
      <g id="dafribank-logo" transform="translate(81 66)">
        <path id="Path_1" data-name="Path 1" d="M110.6,44.713H50.667a8.647,8.647,0,0,0-8.644,8.643v56.906a8.647,8.647,0,0,0,8.644,8.644H110.6a8.647,8.647,0,0,0,8.646-8.644V53.356a8.648,8.648,0,0,0-8.646-8.643M101.129,76.87h0L98.368,93.109a11.6,11.6,0,0,1-4.017,6.99,10.9,10.9,0,0,1-7.308,2.9H58.915L63.4,76.87h37.729v0Zm1.082-6.357-.48,2.823H64l2.185-12.708h28.13a7.684,7.684,0,0,1,5.76,2.328,8.054,8.054,0,0,1,2.27,5.861,10.814,10.814,0,0,1-.137,1.7" transform="translate(-42.023 -44.713)"/>
      </g>
    </g>
    <path id="Path_381" data-name="Path 381" d="M18.612-16.092H14.976a3.461,3.461,0,0,0-1.3-2.286,4.5,4.5,0,0,0-2.952-.918,4.861,4.861,0,0,0-3.06.918,2.992,2.992,0,0,0-1.188,2.5q0,1.944,2.376,2.592l3.636,1.044q4.644,1.368,4.644,5.292a6.549,6.549,0,0,1-2.412,5.31,8.844,8.844,0,0,1-5.832,2A9.217,9.217,0,0,1,3.114-1.368a6.611,6.611,0,0,1-2.5-5H4.284a3.735,3.735,0,0,0,1.53,2.664,5.208,5.208,0,0,0,3.078.9,5.425,5.425,0,0,0,3.33-.954A3.227,3.227,0,0,0,13.5-6.516q0-1.836-2.7-2.592L7.272-10.116q-4.428-1.26-4.428-5.256a6.573,6.573,0,0,1,2.214-5.076,8.1,8.1,0,0,1,5.67-2.016,8.494,8.494,0,0,1,5.634,1.71A6.421,6.421,0,0,1,18.612-16.092Zm13.752,1.908a6.082,6.082,0,0,1,4.752-2.16,4.468,4.468,0,0,1,3.492,1.314A4.827,4.827,0,0,1,41.8-11.664a7.66,7.66,0,0,1-.108,1.26L39.888,0h-3.6l1.656-9.576a6.964,6.964,0,0,0,.144-1.26q0-2.232-2.088-2.232a2.981,2.981,0,0,0-1.926.72,5.24,5.24,0,0,0-1.422,1.872L30.816,0h-3.6l1.656-9.576a6.963,6.963,0,0,0,.144-1.26q0-2.232-2.088-2.232a2.981,2.981,0,0,0-1.926.72,5.24,5.24,0,0,0-1.422,1.872L21.744,0h-3.6l2.808-15.984h3.6L24.264-14.4a5.465,5.465,0,0,1,4.248-1.944,4.441,4.441,0,0,1,2.34.63A3.925,3.925,0,0,1,32.364-14.184Zm24.588,3.708L55.116,0H51.66L51.8-.9A5.865,5.865,0,0,1,47.952.288a6.033,6.033,0,0,1-3.87-1.242A4.069,4.069,0,0,1,42.516-4.32,4.992,4.992,0,0,1,44.64-8.46a8.071,8.071,0,0,1,5.04-1.62,5.449,5.449,0,0,1,3.564.972l.252-1.3a5.867,5.867,0,0,0,.072-.756q0-2.124-2.448-2.124a3.506,3.506,0,0,0-3.168,1.728H44.46a6.994,6.994,0,0,1,2.664-3.456,7.542,7.542,0,0,1,4.428-1.332,5.8,5.8,0,0,1,4.032,1.332,4.439,4.439,0,0,1,1.476,3.456A5.5,5.5,0,0,1,56.952-10.476ZM52.38-4.248l.252-1.332a1.733,1.733,0,0,0-.99-1.17A4.116,4.116,0,0,0,49.68-7.2a4.954,4.954,0,0,0-2.61.684,2.182,2.182,0,0,0-1.134,1.98,1.55,1.55,0,0,0,.846,1.422,4.1,4.1,0,0,0,2.07.486,5.03,5.03,0,0,0,2.106-.45A3.067,3.067,0,0,0,52.38-4.248ZM69.7-16.056l-.648,3.708a3.205,3.205,0,0,0-2.016-.54,3.923,3.923,0,0,0-2.16.648,3.916,3.916,0,0,0-1.512,1.908L61.56,0h-3.6l2.808-15.984h3.6l-.288,1.656a4.485,4.485,0,0,1,1.692-1.458A4.805,4.805,0,0,1,68-16.344,3.367,3.367,0,0,1,69.7-16.056ZM70.344-4.32,71.964-13H69.372l.54-2.988H72.5l.792-4.284h3.6L76.1-15.984h3.528L79.092-13H75.564L74.052-4.932a5.868,5.868,0,0,0-.072.756q0,1.332,1.584,1.332a4.1,4.1,0,0,0,2.2-.648L77.184-.216A5.956,5.956,0,0,1,74.376.36a4.618,4.618,0,0,1-3.024-.918A3.272,3.272,0,0,1,70.236-3.24,5.877,5.877,0,0,1,70.344-4.32Zm6.768,8.388L80.388,0a2.063,2.063,0,0,1-1.206-.774,2.344,2.344,0,0,1-.45-1.458,2.311,2.311,0,0,1,.7-1.728,2.4,2.4,0,0,1,1.746-.684,2.37,2.37,0,0,1,1.746.7,2.554,2.554,0,0,1,.7,1.89,5.011,5.011,0,0,1-1.3,2.916L79.7,4.068Zm19.08-7.416h3.672A7.616,7.616,0,0,0,106-5.958a10.129,10.129,0,0,0,2.214-6.786,6.241,6.241,0,0,0-1.494-4.482,5.918,5.918,0,0,0-4.482-1.566H98.928ZM91.872,0,95.76-22.1h6.948q4.536,0,6.912,2.448A9.515,9.515,0,0,1,112-12.744a12.77,12.77,0,0,1-3.438,9.072A11.911,11.911,0,0,1,99.432,0Zm26.64-15.984L115.7,0h-3.6l2.808-15.984Zm.63-6.372a2.085,2.085,0,0,1,.666,1.548,2.085,2.085,0,0,1-.666,1.548,2.173,2.173,0,0,1-1.566.648,2.173,2.173,0,0,1-1.566-.648,2.085,2.085,0,0,1-.666-1.548,2.085,2.085,0,0,1,.666-1.548A2.173,2.173,0,0,1,117.576-23,2.173,2.173,0,0,1,119.142-22.356Zm10.1,21.312.18-1.008a5.356,5.356,0,0,1-4.356,1.908,5.467,5.467,0,0,1-4.482-1.908,7.578,7.578,0,0,1-1.566-4.968,9.535,9.535,0,0,1,2.466-6.552,7.843,7.843,0,0,1,6.1-2.772,5.782,5.782,0,0,1,2.5.5,3.6,3.6,0,0,1,1.53,1.224l.252-1.368h3.6L132.8-.9a9.073,9.073,0,0,1-2.79,5.454,8.034,8.034,0,0,1-5.526,1.926,7.16,7.16,0,0,1-4.806-1.548A5.083,5.083,0,0,1,117.864.864h3.492a2.469,2.469,0,0,0,.9,1.98,3.547,3.547,0,0,0,2.268.684Q128.448,3.528,129.24-1.044Zm.828-4.608.972-5.472a2.722,2.722,0,0,0-1.188-1.476,3.855,3.855,0,0,0-2.124-.576,4.442,4.442,0,0,0-3.708,1.836,6.908,6.908,0,0,0-1.4,4.32,3.919,3.919,0,0,0,.9,2.682,3.089,3.089,0,0,0,2.448,1.026A4.895,4.895,0,0,0,130.068-5.652Zm12.1-10.332L139.356,0h-3.6l2.808-15.984Zm.63-6.372a2.085,2.085,0,0,1,.666,1.548,2.085,2.085,0,0,1-.666,1.548,2.173,2.173,0,0,1-1.566.648,2.173,2.173,0,0,1-1.566-.648A2.085,2.085,0,0,1,139-20.808a2.085,2.085,0,0,1,.666-1.548A2.173,2.173,0,0,1,141.228-23,2.173,2.173,0,0,1,142.794-22.356ZM144-4.32,145.62-13h-2.592l.54-2.988h2.592l.792-4.284h3.6l-.792,4.284h3.528L152.748-13H149.22l-1.512,8.064a5.867,5.867,0,0,0-.072.756q0,1.332,1.584,1.332a4.1,4.1,0,0,0,2.2-.648L150.84-.216a5.956,5.956,0,0,1-2.808.576,4.618,4.618,0,0,1-3.024-.918,3.272,3.272,0,0,1-1.116-2.682A5.878,5.878,0,0,1,144-4.32Zm23.04-6.156L165.2,0h-3.456l.144-.9A5.865,5.865,0,0,1,158.04.288a6.033,6.033,0,0,1-3.87-1.242A4.069,4.069,0,0,1,152.6-4.32a4.992,4.992,0,0,1,2.124-4.14,8.071,8.071,0,0,1,5.04-1.62,5.449,5.449,0,0,1,3.564.972l.252-1.3a5.867,5.867,0,0,0,.072-.756q0-2.124-2.448-2.124a3.506,3.506,0,0,0-3.168,1.728h-3.492a6.994,6.994,0,0,1,2.664-3.456,7.542,7.542,0,0,1,4.428-1.332,5.8,5.8,0,0,1,4.032,1.332,4.439,4.439,0,0,1,1.476,3.456A5.5,5.5,0,0,1,167.04-10.476Zm-4.572,6.228.252-1.332a1.733,1.733,0,0,0-.99-1.17,4.116,4.116,0,0,0-1.962-.45,4.954,4.954,0,0,0-2.61.684,2.182,2.182,0,0,0-1.134,1.98,1.55,1.55,0,0,0,.846,1.422,4.1,4.1,0,0,0,2.07.486,5.03,5.03,0,0,0,2.106-.45A3.067,3.067,0,0,0,162.468-4.248ZM175.752-23.4,171.648,0h-3.6l4.1-23.4ZM172.476,4.068,175.752,0a2.063,2.063,0,0,1-1.206-.774,2.344,2.344,0,0,1-.45-1.458,2.311,2.311,0,0,1,.7-1.728,2.4,2.4,0,0,1,1.746-.684,2.37,2.37,0,0,1,1.746.7,2.554,2.554,0,0,1,.7,1.89A5.011,5.011,0,0,1,177.7.864l-2.628,3.2ZM201.564-11.3A3.968,3.968,0,0,1,203.6-9.7a4.807,4.807,0,0,1,.738,2.682,6.112,6.112,0,0,1-2.448,5.166A9.966,9.966,0,0,1,195.7,0h-8.46l3.888-22.1h7.74a7.422,7.422,0,0,1,4.806,1.368,4.7,4.7,0,0,1,1.674,3.852,5.845,5.845,0,0,1-1.1,3.528A5.471,5.471,0,0,1,201.564-11.3Zm-8.46-1.512h4.068q4.5,0,4.5-3.564,0-2.484-3.42-2.484h-4.068Zm-.54,3.1-1.152,6.48h4.752a4.935,4.935,0,0,0,3.276-1.026,3.409,3.409,0,0,0,1.224-2.754q0-2.7-3.348-2.7Zm19.908,6.984a4.018,4.018,0,0,0,3.384-1.854,7.852,7.852,0,0,0,1.332-4.7,4.414,4.414,0,0,0-.882-2.88,2.966,2.966,0,0,0-2.43-1.08,4.018,4.018,0,0,0-3.384,1.854,7.852,7.852,0,0,0-1.332,4.7,4.414,4.414,0,0,0,.882,2.88A2.966,2.966,0,0,0,212.472-2.736Zm-.036,3.1a6.586,6.586,0,0,1-5.058-1.944A7.182,7.182,0,0,1,205.56-6.7a10.012,10.012,0,0,1,2.448-6.876,7.605,7.605,0,0,1,5.9-2.772A6.586,6.586,0,0,1,218.97-14.4a7.182,7.182,0,0,1,1.818,5.112,10.012,10.012,0,0,1-2.448,6.876A7.605,7.605,0,0,1,212.436.36ZM233.1-16.056l-.648,3.708a3.205,3.205,0,0,0-2.016-.54,3.923,3.923,0,0,0-2.16.648,3.916,3.916,0,0,0-1.512,1.908L224.964,0h-3.6l2.808-15.984h3.6l-.288,1.656a4.485,4.485,0,0,1,1.692-1.458,4.805,4.805,0,0,1,2.232-.558A3.367,3.367,0,0,1,233.1-16.056Zm11.736,1.476,1.548-8.82h3.6L245.88,0h-3.6l.288-1.584A5.472,5.472,0,0,1,238.248.36a5.422,5.422,0,0,1-4.482-1.944A7.842,7.842,0,0,1,232.2-6.66a10.1,10.1,0,0,1,2.484-6.786,7.754,7.754,0,0,1,6.12-2.9,5.782,5.782,0,0,1,2.5.5A3.486,3.486,0,0,1,244.836-14.58Zm-1.62,9.324,1.008-5.76a2.752,2.752,0,0,0-1.152-1.548,3.744,3.744,0,0,0-2.124-.576,4.4,4.4,0,0,0-3.726,1.962A7.5,7.5,0,0,0,235.8-6.66a4.113,4.113,0,0,0,.9,2.754,3.041,3.041,0,0,0,2.448,1.062A4.838,4.838,0,0,0,243.216-5.256Zm16.7.288h3.6a7.1,7.1,0,0,1-2.646,3.87A7.714,7.714,0,0,1,256.14.36a6.6,6.6,0,0,1-5.04-1.944,7.241,7.241,0,0,1-1.836-5.184,10.136,10.136,0,0,1,2.412-6.678,7.73,7.73,0,0,1,6.228-2.9,5.95,5.95,0,0,1,4.59,1.728A6.666,6.666,0,0,1,264.1-9.9a15.252,15.252,0,0,1-.324,2.736h-10.98v.4a4.592,4.592,0,0,0,.9,3.024,3.27,3.27,0,0,0,2.664,1.08A3.473,3.473,0,0,0,259.92-4.968Zm-2.16-8.352q-3.168,0-4.464,3.528H260.6a2.849,2.849,0,0,0,.036-.468,3.167,3.167,0,0,0-.774-2.2A2.685,2.685,0,0,0,257.76-13.32Zm18.468-2.736-.648,3.708a3.205,3.205,0,0,0-2.016-.54,3.923,3.923,0,0,0-2.16.648,3.916,3.916,0,0,0-1.512,1.908L268.092,0h-3.6L267.3-15.984h3.6l-.288,1.656a4.485,4.485,0,0,1,1.692-1.458,4.805,4.805,0,0,1,2.232-.558A3.367,3.367,0,0,1,276.228-16.056ZM283-23.4,278.892,0h-3.6l4.1-23.4Zm9.792,18.432h3.6a7.1,7.1,0,0,1-2.646,3.87A7.714,7.714,0,0,1,289.008.36a6.6,6.6,0,0,1-5.04-1.944,7.241,7.241,0,0,1-1.836-5.184,10.136,10.136,0,0,1,2.412-6.678,7.73,7.73,0,0,1,6.228-2.9,5.95,5.95,0,0,1,4.59,1.728,6.666,6.666,0,0,1,1.6,4.716,15.252,15.252,0,0,1-.324,2.736H285.66v.4a4.592,4.592,0,0,0,.9,3.024,3.27,3.27,0,0,0,2.664,1.08A3.473,3.473,0,0,0,292.788-4.968Zm-2.16-8.352q-3.168,0-4.464,3.528h7.308a2.849,2.849,0,0,0,.036-.468,3.167,3.167,0,0,0-.774-2.2A2.685,2.685,0,0,0,290.628-13.32Zm6.408,8.6h3.528q.324,2.124,3.06,2.124a4.014,4.014,0,0,0,2.142-.5,1.6,1.6,0,0,0,.81-1.44,1.353,1.353,0,0,0-.342-.972,2.728,2.728,0,0,0-1.206-.612l-2.844-.792q-3.564-.972-3.564-4.14a4.753,4.753,0,0,1,1.8-3.762,6.654,6.654,0,0,1,4.464-1.53,6.582,6.582,0,0,1,4.41,1.314,5.09,5.09,0,0,1,1.746,3.51h-3.42q-.4-1.872-2.736-1.872a3.418,3.418,0,0,0-1.98.522,1.609,1.609,0,0,0-.756,1.386q0,1.008,1.3,1.4l2.916.864q3.708,1.08,3.708,4.14a4.8,4.8,0,0,1-1.854,3.96A7.194,7.194,0,0,1,303.588.36a7.147,7.147,0,0,1-4.644-1.4A5.053,5.053,0,0,1,297.036-4.716Zm13.824,0h3.528q.324,2.124,3.06,2.124a4.014,4.014,0,0,0,2.142-.5,1.6,1.6,0,0,0,.81-1.44,1.353,1.353,0,0,0-.342-.972,2.728,2.728,0,0,0-1.206-.612l-2.844-.792q-3.564-.972-3.564-4.14a4.753,4.753,0,0,1,1.8-3.762,6.654,6.654,0,0,1,4.464-1.53,6.582,6.582,0,0,1,4.41,1.314,5.09,5.09,0,0,1,1.746,3.51h-3.42q-.4-1.872-2.736-1.872a3.418,3.418,0,0,0-1.98.522,1.609,1.609,0,0,0-.756,1.386q0,1.008,1.3,1.4l2.916.864q3.708,1.08,3.708,4.14a4.8,4.8,0,0,1-1.854,3.96A7.194,7.194,0,0,1,317.412.36a7.147,7.147,0,0,1-4.644-1.4A5.053,5.053,0,0,1,310.86-4.716ZM326.7-6.948,328.572-22.1h4.32L329.22-6.948Zm-1.1,6.48a2.431,2.431,0,0,1-.7-1.764A2.431,2.431,0,0,1,325.6-4a2.34,2.34,0,0,1,1.746-.72,2.34,2.34,0,0,1,1.746.72,2.431,2.431,0,0,1,.7,1.764,2.431,2.431,0,0,1-.7,1.764,2.34,2.34,0,0,1-1.746.72A2.34,2.34,0,0,1,325.6-.468Z" transform="translate(238 6692)"/>
  </g>
</svg>
