<svg xmlns="http://www.w3.org/2000/svg" width="21" height="16.421" viewBox="0 0 21 16.421">
  <g id="anaLdr" transform="translate(1879.046 1256.149)">
    <g id="Group_138" data-name="Group 138" transform="translate(-1879.046 -1256.149)">
      <path id="Path_50" data-name="Path 50" d="M-1858.046-1249.974c-.284.3-.56.615-.853.909-1.481,1.487-2.971,2.966-4.448,4.457a.858.858,0,0,1-.99.317c-.391-.16-.453-.5-.445-.888.015-.664,0-1.329,0-2.056h-7.96c-.848,0-1.049-.2-1.051-1.037,0-.257,0-.514,0-.759l-3.3,3.3,3.3,3.28c0-.246,0-.561,0-.875.011-.623.259-.878.878-.88q2.869-.006,5.737,0c.555,0,.868.284.86.751-.007.449-.309.722-.847.725-1.571.007-3.141,0-4.711,0-.123,0-.247.011-.441.021,0,.671-.008,1.333,0,1.994.005.394-.034.746-.464.92s-.7-.055-.978-.333q-2.435-2.446-4.878-4.884c-.151-.151-.278-.325-.417-.49v-.466c.218-.238.428-.484.656-.712,1.548-1.553,3.1-3.1,4.646-4.656a.862.862,0,0,1,.994-.31c.387.16.448.511.44.895-.013.652,0,1.3,0,2.017.2.01.378.027.557.027q3.685,0,7.372,0c.9,0,1.082.192,1.083,1.1,0,.231,0,.463,0,.628l3.283-3.288-3.284-3.288c0,.332.01.667,0,1a.737.737,0,0,1-.816.807q-2.917.011-5.832,0a.727.727,0,0,1-.826-.742c0-.452.3-.729.84-.732,1.509-.008,3.017,0,4.526,0h.634c0-.753.005-1.477,0-2.2,0-.371.138-.683.5-.73a1.068,1.068,0,0,1,.788.208c1.747,1.7,3.466,3.439,5.191,5.168a3.227,3.227,0,0,1,.252.324Z" transform="translate(1879.046 1256.149)"/>
    </g>
  </g>
</svg>
