<svg xmlns="http://www.w3.org/2000/svg" width="19.391" height="18.829" viewBox="0 0 19.391 18.829">
  <g id="hBZnqI.tif" transform="translate(-862.775 -497)">
    <g id="Group_124" data-name="Group 124" transform="translate(862.775 497)">
      <path id="Path_39" data-name="Path 39" d="M872.36,524.071c-.437-.447-.863-.888-1.3-1.324-.825-.829-1.654-1.654-2.479-2.483a.946.946,0,0,1,.011-1.477q1.8-1.805,3.609-3.608c.053-.053.109-.1.16-.149l1.318,1.355-2.153,2.127.027.063a2.014,2.014,0,0,0,.232.025c2.385,0,4.77.024,7.154-.008a3.9,3.9,0,0,0,3.845-3.424c.054-.477.063-.476.542-.477.38,0,.76.009,1.139,0,.194-.007.252.06.24.247a5.777,5.777,0,0,1-1.223,3.294,5.662,5.662,0,0,1-3.851,2.2,15.647,15.647,0,0,1-1.933.059c-1.975.006-3.949,0-5.924,0h-.288c.1.11.155.176.215.237.617.618,1.231,1.239,1.855,1.85.13.128.128.206,0,.329-.345.332-.679.675-1.018,1.012C872.5,523.96,872.443,524,872.36,524.071Z" transform="translate(-865.32 -505.242)" fill="#8e8e8e"/>
      <path id="Path_40" data-name="Path 40" d="M875.942,500.558c-.069-.077-.136-.156-.208-.23-.6-.6-1.2-1.206-1.806-1.8-.119-.117-.128-.192,0-.313.39-.382.768-.776,1.2-1.213.281.3.534.579.8.846q1.485,1.495,2.977,2.983a.944.944,0,0,1,0,1.476q-1.811,1.814-3.625,3.625c-.052.053-.11.1-.16.146l-1.339-1.347,2.213-2.2c-.125-.011-.2-.025-.281-.025-2.354,0-4.708-.013-7.062,0a3.906,3.906,0,0,0-3.916,3.213,1.749,1.749,0,0,0-.059.45c.011.214-.083.249-.27.243-.425-.012-.85,0-1.276,0-.367,0-.371,0-.34-.363a5.753,5.753,0,0,1,1.641-3.658,5.394,5.394,0,0,1,3.749-1.728c1.707-.055,3.416-.036,5.124-.046.79,0,1.579,0,2.369,0h.246Z" transform="translate(-862.775 -497)" fill="#8e8e8e"/>
    </g>
  </g>
</svg>
