<svg xmlns="http://www.w3.org/2000/svg" width="18.476" height="18.416" viewBox="0 0 18.476 18.416">
  <g id="dollar" transform="translate(-1.775 -1.798)">
    <path id="Path_141" data-name="Path 141" d="M66.407,30.234a.257.257,0,0,1-.228-.377,8.567,8.567,0,0,0,.222-7.4.257.257,0,1,1,.47-.21,9.084,9.084,0,0,1-.236,7.852.257.257,0,0,1-.228.138Z" transform="translate(-47.649 -14.92)" fill="#8e8e8e" stroke="#8e8e8e" stroke-width="0.4"/>
    <path id="Path_142" data-name="Path 142" d="M52.128,65.485A.257.257,0,0,1,52.009,65c.224-.117.437-.241.633-.369a.257.257,0,0,1,.281.432c-.21.136-.437.269-.675.393A.257.257,0,0,1,52.128,65.485Z" transform="translate(-37.044 -46.481)" fill="#8e8e8e" stroke="#8e8e8e" stroke-width="0.4"/>
    <path id="Path_143" data-name="Path 143" d="M18.41,63.116a9.019,9.019,0,0,1-6.375-2.637.257.257,0,1,1,.364-.364,8.505,8.505,0,0,0,8.3,2.17.257.257,0,1,1,.139.5A9,9,0,0,1,18.41,63.116Z" transform="translate(-7.404 -43.103)" fill="#8e8e8e" stroke="#8e8e8e" stroke-width="0.4"/>
    <path id="Path_144" data-name="Path 144" d="M60.137,59.04a.257.257,0,0,1-.164-.456c.009-.007.016-.015.023-.022.166-.166.324-.339.47-.515a.257.257,0,1,1,.4.328c-.156.188-.325.373-.5.55a.764.764,0,0,1-.059.055.257.257,0,0,1-.164.059Z" transform="translate(-42.992 -41.55)" fill="#8e8e8e" stroke="#8e8e8e" stroke-width="0.4"/>
    <path id="Path_145" data-name="Path 145" d="M3.057,14.941a.257.257,0,0,1-.234-.149A9.009,9.009,0,0,1,17.369,4.639.257.257,0,1,1,17,5,8.494,8.494,0,0,0,3.291,14.576a.257.257,0,0,1-.233.365Z" transform="translate(0)" fill="#8e8e8e" stroke="#8e8e8e" stroke-width="0.4"/>
    <path id="Path_146" data-name="Path 146" d="M54.758,6.934h-1.92a.257.257,0,0,1,0-.515H54.5V4.757a.257.257,0,0,1,.515,0v1.92A.257.257,0,0,1,54.758,6.934Z" transform="translate(-37.571 -1.856)" fill="#8e8e8e" stroke="#8e8e8e" stroke-width="0.4"/>
    <path id="Path_147" data-name="Path 147" d="M12.215,62.476a.257.257,0,0,1-.257-.257V60.3a.257.257,0,0,1,.257-.257h1.92a.257.257,0,0,1,0,.515H12.473v1.662A.257.257,0,0,1,12.215,62.476Z" transform="translate(-7.403 -43.104)" fill="#8e8e8e" stroke="#8e8e8e" stroke-width="0.4"/>
    <path id="Path_148" data-name="Path 148" d="M20.662,26.323a5.662,5.662,0,1,1,5.662-5.662,5.662,5.662,0,0,1-5.662,5.662Zm0-10.809a5.147,5.147,0,1,0,5.147,5.147,5.147,5.147,0,0,0-5.147-5.147Z" transform="translate(-9.662 -9.654)" fill="#8e8e8e" stroke="#8e8e8e" stroke-width="0.4"/>
    <path id="Path_149" data-name="Path 149" d="M32.266,28.531a1.641,1.641,0,1,1,1.641-1.641.257.257,0,1,1-.515,0,1.126,1.126,0,1,0-1.126,1.126.257.257,0,1,1,0,.515Z" transform="translate(-21.266 -17.266)" fill="#8e8e8e" stroke="#8e8e8e" stroke-width="0.4"/>
    <path id="Path_150" data-name="Path 150" d="M32.266,39.281a1.642,1.642,0,0,1-1.641-1.641.257.257,0,0,1,.515,0,1.126,1.126,0,1,0,1.126-1.126.257.257,0,0,1,0-.515,1.641,1.641,0,1,1,0,3.281Z" transform="translate(-21.266 -25.249)" fill="#8e8e8e" stroke="#8e8e8e" stroke-width="0.4"/>
    <path id="Path_151" data-name="Path 151" d="M36.257,30.206A.257.257,0,0,1,36,29.948V23.257a.257.257,0,1,1,.515,0v6.691A.257.257,0,0,1,36.257,30.206Z" transform="translate(-25.257 -15.595)" fill="#8e8e8e" stroke="#8e8e8e" stroke-width="0.4"/>
  </g>
</svg>
