<svg xmlns="http://www.w3.org/2000/svg" width="94" height="36" viewBox="0 0 94 36">
  <g id="Group_152" data-name="Group 152" transform="translate(-468 -6163)">
    <path id="Union_3" data-name="Union 3" d="M1.437,15.4,8.41,8.35l2.19,2.234c-.034.021-.078.05-.124.076l-7.62,4.463a2.087,2.087,0,0,1-1.08.3A2.492,2.492,0,0,1,1.437,15.4ZM.046,13.962A2.14,2.14,0,0,1,0,13.507q0-5.8,0-11.6A1.867,1.867,0,0,1,.669.443L7.855,7.777.741,15.036A1.776,1.776,0,0,1,.046,13.962Zm11.121-3.875c-.768-.767-1.54-1.531-2.323-2.309.029-.033.049-.058.071-.081q1.117-1.141,2.234-2.283a.136.136,0,0,1,.2-.026c.41.257.823.507,1.236.759a1.934,1.934,0,0,1,.835,2.25,1.694,1.694,0,0,1-.769.933c-.432.261-.871.509-1.306.765a.2.2,0,0,1-.1.036A.121.121,0,0,1,11.167,10.086ZM1.317.1,1.679,0H2A6.657,6.657,0,0,1,3.971,1.019c2.178,1.263,4.343,2.551,6.513,3.83l.175.105L8.4,7.257Z" transform="translate(480.479 6172.964)" fill="#fff" stroke="rgba(0,0,0,0)" stroke-miterlimit="10" stroke-width="1"/>
    <path id="Path_401" data-name="Path 401" d="M2.216-4.938v-.99H3.649A1.461,1.461,0,0,0,4.4-6.1a1.182,1.182,0,0,0,.457-.481,1.472,1.472,0,0,0,.16-.693,1.493,1.493,0,0,0-.16-.7A1.151,1.151,0,0,0,4.4-8.453a1.494,1.494,0,0,0-.749-.17H2.216v-.99h1.3a3.376,3.376,0,0,1,1.447.278,2.026,2.026,0,0,1,.9.782,2.27,2.27,0,0,1,.306,1.2V-7.2A2.277,2.277,0,0,1,5.859-6a2.017,2.017,0,0,1-.9.787,3.376,3.376,0,0,1-1.447.278ZM1.274-2.685V-9.612H2.4v6.927Zm5.683,0v-6.88H8.069v6.88ZM6.288-8.717v-.848H8.069v.848Zm6.088,6.032V-4.2H12.2V-5.918a.971.971,0,0,0-.245-.716.984.984,0,0,0-.726-.245q-.264,0-.584.009t-.627.024q-.306.014-.542.033v-.952q.207-.019.457-.033t.518-.024q.269-.009.514-.009a3.567,3.567,0,0,1,1.282.2A1.453,1.453,0,0,1,13-7.006a2.267,2.267,0,0,1,.25,1.145v3.176Zm-1.649.132a2.278,2.278,0,0,1-.971-.193,1.442,1.442,0,0,1-.641-.565A1.683,1.683,0,0,1,8.889-4.2a1.5,1.5,0,0,1,.259-.9,1.552,1.552,0,0,1,.74-.537,3.3,3.3,0,0,1,1.15-.179H12.31V-5.1h-1.3a1.1,1.1,0,0,0-.763.24.808.808,0,0,0-.264.627.779.779,0,0,0,.264.617,1.126,1.126,0,0,0,.763.231,1.449,1.449,0,0,0,.556-.108A.975.975,0,0,0,12-3.854,1.359,1.359,0,0,0,12.2-4.57l.283.368a2.139,2.139,0,0,1-.259.9,1.423,1.423,0,0,1-.584.556A1.956,1.956,0,0,1,10.727-2.553ZM14.129-.7v-.971h.839a1.556,1.556,0,0,0,.5-.071.7.7,0,0,0,.339-.245,1.434,1.434,0,0,0,.217-.467L17.5-7.765h1.065l-1.6,5.579a2.378,2.378,0,0,1-.419.858,1.546,1.546,0,0,1-.679.481,2.86,2.86,0,0,1-.985.151Zm1.564-2.1v-.9h1.093v.9Zm-.273,0L13.7-7.765h1.122L16.466-2.8Zm7.926.283a3.545,3.545,0,0,1-1.5-.287,2.151,2.151,0,0,1-.938-.792,2.089,2.089,0,0,1-.32-1.145H21.7a1.154,1.154,0,0,0,.16.575,1.2,1.2,0,0,0,.518.467,2.145,2.145,0,0,0,.971.184,2.284,2.284,0,0,0,.919-.16A1.2,1.2,0,0,0,24.8-4.1a1.037,1.037,0,0,0,.174-.584.768.768,0,0,0-.339-.646,2,2,0,0,0-1.018-.306L22.932-5.7a2.475,2.475,0,0,1-1.517-.589,1.74,1.74,0,0,1-.565-1.352,2,2,0,0,1,.306-1.112,2.078,2.078,0,0,1,.862-.74,2.936,2.936,0,0,1,1.291-.269,2.982,2.982,0,0,1,1.31.269,2.043,2.043,0,0,1,.862.754,2.118,2.118,0,0,1,.306,1.155H24.675a1.176,1.176,0,0,0-.146-.57,1.114,1.114,0,0,0-.448-.438,1.564,1.564,0,0,0-.773-.17,1.566,1.566,0,0,0-.749.16,1.125,1.125,0,0,0-.448.415,1.054,1.054,0,0,0-.151.547.856.856,0,0,0,.264.617,1.25,1.25,0,0,0,.811.316l.679.057a3.61,3.61,0,0,1,1.258.306,2.077,2.077,0,0,1,.829.664,1.671,1.671,0,0,1,.3,1,1.919,1.919,0,0,1-.344,1.131,2.258,2.258,0,0,1-.961.763A3.548,3.548,0,0,1,23.346-2.515Zm5.73-.113a2.934,2.934,0,0,1-1.065-.17,1.229,1.229,0,0,1-.655-.584A2.394,2.394,0,0,1,27.135-4.5V-9.245h1.046V-4.41a.823.823,0,0,0,.212.608.809.809,0,0,0,.6.212h.848v.961ZM26.3-6.945v-.82H29.84v.82Zm6.72,4.43a2.93,2.93,0,0,1-1.178-.221,2.589,2.589,0,0,1-.858-.589,2.506,2.506,0,0,1-.528-.834,2.673,2.673,0,0,1-.179-.966v-.188a2.65,2.65,0,0,1,.184-.971,2.573,2.573,0,0,1,.537-.844,2.549,2.549,0,0,1,.862-.589,2.934,2.934,0,0,1,1.159-.217,2.9,2.9,0,0,1,1.155.217,2.613,2.613,0,0,1,.862.589,2.536,2.536,0,0,1,.542.844,2.65,2.65,0,0,1,.184.971v.188a2.673,2.673,0,0,1-.179.966,2.506,2.506,0,0,1-.528.834,2.589,2.589,0,0,1-.858.589A2.93,2.93,0,0,1,33.016-2.515Zm0-.961a1.632,1.632,0,0,0,.886-.231,1.5,1.5,0,0,0,.561-.627,1.993,1.993,0,0,0,.193-.886,1.975,1.975,0,0,0-.2-.9,1.536,1.536,0,0,0-.565-.627,1.614,1.614,0,0,0-.876-.231,1.614,1.614,0,0,0-.876.231,1.536,1.536,0,0,0-.565.627,1.975,1.975,0,0,0-.2.9,1.993,1.993,0,0,0,.193.886,1.5,1.5,0,0,0,.561.627A1.632,1.632,0,0,0,33.016-3.477Zm3.628.792v-5.08h.876v2.121h-.038a2.4,2.4,0,0,1,.481-1.635,1.8,1.8,0,0,1,1.423-.542h.179v.971h-.339a1.486,1.486,0,0,0-1.1.382,1.473,1.473,0,0,0-.382,1.089v2.7Zm5.692.17a2.721,2.721,0,0,1-1.15-.226,2.256,2.256,0,0,1-.8-.6,2.557,2.557,0,0,1-.467-.839,3.006,3.006,0,0,1-.156-.957v-.179a3.035,3.035,0,0,1,.156-.966,2.557,2.557,0,0,1,.467-.839,2.238,2.238,0,0,1,.787-.594,2.6,2.6,0,0,1,1.107-.221,2.444,2.444,0,0,1,1.367.358,2.265,2.265,0,0,1,.82.928,2.808,2.808,0,0,1,.273,1.23v.443h-4.5V-5.72H44l-.3.377a2.218,2.218,0,0,0-.16-.881,1.26,1.26,0,0,0-.471-.575A1.405,1.405,0,0,0,42.28-7a1.416,1.416,0,0,0-.82.226,1.345,1.345,0,0,0-.49.622,2.479,2.479,0,0,0-.16.933,2.432,2.432,0,0,0,.16.909,1.35,1.35,0,0,0,.5.631,1.509,1.509,0,0,0,.867.231,1.509,1.509,0,0,0,.867-.231.93.93,0,0,0,.415-.542h1.027a2.037,2.037,0,0,1-.419.9,2.068,2.068,0,0,1-.8.594A2.736,2.736,0,0,1,42.337-2.515Z" transform="translate(502.469 6186.709)" fill="#fff"/>
    <g id="Rectangle_107" data-name="Rectangle 107" transform="translate(468 6163)" fill="none" stroke="#838383" stroke-width="1">
      <rect width="94" height="36" rx="7" stroke="none"/>
      <rect x="0.5" y="0.5" width="93" height="35" rx="6.5" fill="none"/>
    </g>
  </g>
</svg>
