<svg xmlns="http://www.w3.org/2000/svg" width="19.346" height="23.449" viewBox="0 0 19.346 23.449">
  <g id="ZjPMOo" transform="translate(1912.005 1189.274)">
    <g id="Group_194" data-name="Group 194" transform="translate(-1912.005 -1189.274)">
      <path id="Path_94" data-name="Path 94" d="M-1894.111-1179.126c1.256.449,1.452.728,1.452,2.092v1.02c0,1.372-.208,1.669-1.34,2.054a13.38,13.38,0,0,1-.641,2.33,3.755,3.755,0,0,1-3.42,2.212c-.395.019-.792.005-1.189.006-.585,0-1.181-.12-1.543.6-.116.229-.566.348-.882.4a5.921,5.921,0,0,1-1.242.016,1.493,1.493,0,0,1-1.437-1.523,1.492,1.492,0,0,1,1.433-1.469,4.417,4.417,0,0,1,1.24.02,1.9,1.9,0,0,1,1.035.571.962.962,0,0,0,.941.424c.622-.029,1.251.019,1.864-.063a3.006,3.006,0,0,0,2.625-3.453,2.8,2.8,0,0,0-.4.482c-.19.409-.354.83-.519,1.251a2.074,2.074,0,0,1-1.661,1.166c.518-1.226.991-2.383,1.508-3.522.073-.158.362-.219.593-.348v-1.583l-.642.3c-.548.258-.877.066-.883-.544-.011-1.019-.016-2.038,0-3.057a.619.619,0,0,0-.438-.711,7.745,7.745,0,0,1-3.172-2.455c-2.169,1.854-4.789,2.442-7.609,2.76v1.528c0,.661.012,1.322,0,1.981-.014.537-.341.738-.824.522-.512-.23-1.015-.477-1.522-.716a1.388,1.388,0,0,0,.949,2.107.893.893,0,0,1,.506.482,20.242,20.242,0,0,0,3.008,5.536,4.614,4.614,0,0,0,3.123,1.859,3.741,3.741,0,0,0,3.265-1.369,1.756,1.756,0,0,1,1.818-.627c-1.7,2.877-5.019,4.091-7.809,1.88a11.806,11.806,0,0,1-3.043-4.1,13.939,13.939,0,0,1-.627-1.389,2.669,2.669,0,0,0-1.333-1.663,2.467,2.467,0,0,1-.792-3.253,2.184,2.184,0,0,0,.219-.842,41.608,41.608,0,0,1,.258-4.5,7.731,7.731,0,0,1,6.551-6.321c.428-.07.862-.094,1.288-.175a1.8,1.8,0,0,1,2.036.686.955.955,0,0,0,.623.279,8.163,8.163,0,0,1,3.441,1.008,6.526,6.526,0,0,1,3.016,5.116C-1894.162-1181.134-1894.166-1180.13-1894.111-1179.126Zm-15.338,1.718c0-1.005.006-2,0-3,0-.465.193-.678.667-.712a15.058,15.058,0,0,0,1.848-.232c2.121-.423,4.195-.957,5.761-2.613.308-.326.614-.246.846.1a7.311,7.311,0,0,0,3.647,2.736.669.669,0,0,1,.487.723c-.011.994,0,1.988,0,2.989.453-.039.561-.277.542-.656s-.106-.808.387-1.021c.069-.028.085-.229.086-.35.008-.585.028-1.171,0-1.755-.161-3.1-1.631-5.977-5.97-6.04a.935.935,0,0,1-.652-.333,1.628,1.628,0,0,0-1.892-.6c-.31.074-.633.093-.945.165-2.921.685-4.984,2.346-5.635,5.351a22.222,22.222,0,0,0-.243,3.938C-1910.558-1177.7-1910.521-1177.689-1909.45-1177.408Zm14.784-.587v2.95c.865.119,1.036-.026,1.039-.861q0-.619,0-1.239C-1893.631-1177.973-1893.807-1178.119-1894.666-1178Zm-7.7,8.633c.132,0,.263,0,.4,0,.352-.011.658-.119.662-.528s-.3-.528-.649-.54c-.244-.008-.49-.01-.735,0-.354.015-.7.156-.612.548.045.206.38.362.605.509C-1902.618-1169.319-1902.478-1169.362-1902.365-1169.362Z" transform="translate(1912.005 1189.274)"/>
    </g>
  </g>
</svg>
