<svg xmlns="http://www.w3.org/2000/svg" width="29.855" height="29.86" viewBox="0 0 29.855 29.86">
  <g id="vQqIKd.tif" transform="translate(0)">
    <g id="Group_57" data-name="Group 57" transform="translate(0 0)">
      <path id="Path_256" data-name="Path 256" d="M-274.572,517.987c0,3.05.082,6.1-.023,9.149a5.912,5.912,0,0,1-5.857,5.729q-9,.089-18.01,0a5.928,5.928,0,0,1-5.889-5.884q-.089-9,0-18.01a5.959,5.959,0,0,1,5.726-5.869c1.842-.088,3.69-.04,5.536-.041,4.041,0,8.082-.013,12.123,0a6.113,6.113,0,0,1,6.281,4.909,8.4,8.4,0,0,1,.137,1.679c.013,2.778.006,5.557.006,8.335Zm-1.176-.015q0-4.286,0-8.571a4.911,4.911,0,0,0-5.127-5.135q-8.6-.007-17.2,0a4.917,4.917,0,0,0-5.11,5.1q-.007,8.6,0,17.2a4.93,4.93,0,0,0,5.132,5.139q8.571,0,17.142,0a4.923,4.923,0,0,0,5.165-5.159Q-275.743,522.258-275.748,517.972Z" transform="translate(304.395 -503.049)"/>
      <path id="Path_257" data-name="Path 257" d="M-287.721,539.421q-4.2,0-8.394,0a3.869,3.869,0,0,1-4.2-4.218q0-5.392,0-10.784c0-.878.143-1.022,1.006-1.023q2.127,0,4.255,0c.993,0,1.2.309.8,1.207a7.151,7.151,0,0,0,5.081,9.985,6.794,6.794,0,0,0,7.031-2.49,6.9,6.9,0,0,0,1.061-7.333c-.065-.162-.148-.318-.205-.482-.166-.474.035-.864.528-.872,1.69-.027,3.381-.022,5.071,0,.418,0,.605.305.607.712,0,.68,0,1.36,0,2.041q0,4.575,0,9.152a3.856,3.856,0,0,1-4.077,4.107C-282.009,539.428-284.865,539.421-287.721,539.421Zm7.954-14.787c1.108,4.079.172,7.461-3.3,9.9a8.064,8.064,0,0,1-9.266-.011c-3.47-2.449-4.4-5.832-3.285-9.889H-299.1v.655q0,4.986,0,9.971a2.658,2.658,0,0,0,2.957,2.946q8.454,0,16.91,0a2.665,2.665,0,0,0,2.954-2.955q0-4.986,0-9.971c0-.207-.018-.414-.028-.65Z" transform="translate(302.625 -511.87)"/>
      <path id="Path_258" data-name="Path 258" d="M-282.322,532.041a5.541,5.541,0,0,1-5.49-5.567,5.557,5.557,0,0,1,5.583-5.479,5.543,5.543,0,0,1,5.485,5.573A5.531,5.531,0,0,1-282.322,532.041Zm.055-9.845a4.336,4.336,0,0,0-4.349,4.318,4.346,4.346,0,0,0,4.335,4.337,4.347,4.347,0,0,0,4.351-4.323A4.335,4.335,0,0,0-282.268,522.2Z" transform="translate(297.204 -510.831)"/>
      <path id="Path_259" data-name="Path 259" d="M-267,508.637a9.967,9.967,0,0,1,1.491.172,2.412,2.412,0,0,1,1.8,2.251c.03.62.03,1.243,0,1.863a2.516,2.516,0,0,1-2.407,2.4c-.6.029-1.2.027-1.8,0a2.508,2.508,0,0,1-2.419-2.5c-.01-.524-.006-1.048,0-1.572a2.5,2.5,0,0,1,2.579-2.565c.252,0,.5,0,.757,0Zm2.106,3.378c0-.194,0-.388,0-.583-.013-1.078-.5-1.559-1.576-1.564-.447,0-.894-.013-1.341,0a1.305,1.305,0,0,0-1.341,1.322c-.022.524-.019,1.049,0,1.574a1.3,1.3,0,0,0,1.309,1.352c.523.028,1.05.024,1.574,0a1.31,1.31,0,0,0,1.375-1.41C-264.883,512.483-264.89,512.249-264.89,512.015Z" transform="translate(289.627 -505.473)"/>
    </g>
  </g>
</svg>
