<svg xmlns="http://www.w3.org/2000/svg" width="16.312" height="11.293" viewBox="0 0 16.312 11.293">
  <g id="Icon_ionic-ios-mail" data-name="Icon ionic-ios-mail" transform="translate(-3.375 -7.875)">
    <path id="Path_129" data-name="Path 129" d="M19.553,10.338l-4.219,4.3a.076.076,0,0,0,0,.11l2.953,3.145a.509.509,0,0,1,0,.721.511.511,0,0,1-.721,0l-2.941-3.133a.08.08,0,0,0-.114,0l-.718.729a3.157,3.157,0,0,1-2.251.949,3.22,3.22,0,0,1-2.3-.976l-.69-.7a.08.08,0,0,0-.114,0L5.5,18.611a.511.511,0,0,1-.721,0,.509.509,0,0,1,0-.721l2.953-3.145a.083.083,0,0,0,0-.11l-4.223-4.3a.077.077,0,0,0-.133.055v8.6A1.258,1.258,0,0,0,4.63,20.246h13.8a1.258,1.258,0,0,0,1.255-1.255v-8.6A.078.078,0,0,0,19.553,10.338Z" transform="translate(0 -1.079)"/>
    <path id="Path_130" data-name="Path 130" d="M11.907,15.054a2.132,2.132,0,0,0,1.533-.643l6.152-6.262a1.232,1.232,0,0,0-.776-.274H5a1.224,1.224,0,0,0-.776.274l6.152,6.262A2.132,2.132,0,0,0,11.907,15.054Z" transform="translate(-0.376)"/>
  </g>
</svg>
