<svg xmlns="http://www.w3.org/2000/svg" width="15.824" height="23" viewBox="0 0 15.824 23">
  <g id="JhHD1j.tif" transform="translate(1923.318 1355.177)">
    <g id="Group_197" data-name="Group 197" transform="translate(-1923.318 -1355.177)">
      <path id="Path_97" data-name="Path 97" d="M-1915.916-1355.177v15.708l-.212-.107-6.819-3.635c-.411-.218-.476-.478-.22-.869q3.546-5.44,7.095-10.878C-1916.033-1355.019-1915.988-1355.077-1915.916-1355.177Z" transform="translate(1923.318 1355.177)"/>
      <path id="Path_98" data-name="Path 98" d="M-1916.052-1339.484v-15.693c.068.094.108.146.144.2q3.55,5.443,7.095,10.887a.709.709,0,0,1,.139.443.622.622,0,0,1-.279.389q-3.475,1.872-6.962,3.721A1.415,1.415,0,0,1-1916.052-1339.484Z" transform="translate(1924.481 1355.177)"/>
      <path id="Path_99" data-name="Path 99" d="M-1916.052-1334.04c-.006-.125-.013-.2-.013-.273q0-2.711,0-5.421a.311.311,0,0,1,.181-.327q3.209-1.7,6.41-3.415a.558.558,0,0,1,.59-.031.5.5,0,0,1,.08.781q-1.115,1.345-2.238,2.687l-4.863,5.835C-1915.94-1334.163-1915.978-1334.124-1916.052-1334.04Z" transform="translate(1924.478 1357.033)"/>
      <path id="Path_100" data-name="Path 100" d="M-1915.917-1334.033l-1.95-2.338q-2.631-3.158-5.263-6.316a.561.561,0,0,1-.173-.5.491.491,0,0,1,.745-.319c.567.3,1.13.6,1.695.9q2.387,1.276,4.777,2.546a.278.278,0,0,1,.189.275q-.009,2.781,0,5.56C-1915.9-1334.182-1915.909-1334.137-1915.917-1334.033Z" transform="translate(1923.318 1357.033)"/>
    </g>
  </g>
</svg>
