<svg xmlns="http://www.w3.org/2000/svg" width="58" height="58" viewBox="0 0 58 58">
  <g id="Group_66" data-name="Group 66" transform="translate(-964 -3470)">
    <g id="Group_148" data-name="Group 148">
      <g id="Ellipse_13" data-name="Ellipse 13" transform="translate(964 3470)" fill="none" stroke="#fff" stroke-width="2">
        <circle cx="29" cy="29" r="29" stroke="none"/>
        <circle cx="29" cy="29" r="28" fill="none"/>
      </g>
      <g id="_5HvJYk.tif" data-name="5HvJYk.tif" transform="translate(2313.28 4677.299)">
        <g id="Group_65" data-name="Group 65" transform="translate(-1327.281 -1190.299)">
          <path id="Path_274" data-name="Path 274" d="M-1312.626-1166.892a1.915,1.915,0,0,1-1.042,1.346,1.806,1.806,0,0,1-2.048-.455l-8.6-8.27q-1.155-1.111-2.31-2.221a1.757,1.757,0,0,1,.006-2.739c3.627-3.489,7.274-6.957,10.871-10.475a1.771,1.771,0,0,1,3.078.822c0,.021.03.04.046.059v.463a3.13,3.13,0,0,1-.984,1.432q-4.577,4.377-9.138,8.77a2.172,2.172,0,0,1-.392.235c.208.193.3.278.4.367q4.594,4.415,9.191,8.826a2.9,2.9,0,0,1,.927,1.377Z" transform="translate(1327.281 1190.299)" fill="#fff"/>
        </g>
      </g>
    </g>
  </g>
</svg>
