<svg xmlns="http://www.w3.org/2000/svg" width="31.87" height="31.805" viewBox="0 0 31.87 31.805">
  <g id="EygjQL.tif" transform="translate(0)">
    <g id="Group_56" data-name="Group 56" transform="translate(0 0)">
      <path id="Path_251" data-name="Path 251" d="M-352.657,469.78V441.818c.039-.156.072-.313.118-.467a2,2,0,0,1,2.093-1.421H-323c.088,0,.175,0,.263,0a1.981,1.981,0,0,1,1.855,1.488c.033.132.063.265.094.4V469.78a5.992,5.992,0,0,1-.243.812,2.12,2.12,0,0,1-1.561,1.142h-28.262a2.117,2.117,0,0,1-1.47-.981A6.373,6.373,0,0,1-352.657,469.78Zm15.918.6h13.677c.716,0,.919-.2.919-.91q0-13.658,0-27.317c0-.7-.21-.911-.923-.911h-27.317c-.712,0-.918.208-.918.915q0,13.659,0,27.317c0,.707.2.906.922.906Z" transform="translate(352.657 -439.93)"/>
      <path id="Path_252" data-name="Path 252" d="M-308.951,479a11.776,11.776,0,0,1,4.083-.867,5.986,5.986,0,0,1,6.369,4.963,6.631,6.631,0,0,1,.093,1.2q.011,4.4,0,8.792c0,.735-.207.943-.933.944h-4.734c-.771,0-.962-.187-.962-.945q0-3.72,0-7.439a2.013,2.013,0,0,0-1.351-2.04A1.977,1.977,0,0,0-309,485.507c-.015,1.691,0,3.382,0,5.072,0,.852,0,1.7,0,2.555,0,.66-.226.888-.874.889q-1.785,0-3.57,0c-.635,0-.865-.229-.865-.857q0-7.1,0-14.2c0-.6.235-.839.842-.841,1.14,0,2.28,0,3.419,0C-309.24,478.122-309.141,478.2-308.951,479Zm-1.383,13.672v-.422c0-2.242-.009-4.484.009-6.726a3.917,3.917,0,0,1,.193-1.213,3.284,3.284,0,0,1,3.728-2.151,3.293,3.293,0,0,1,2.688,3.215c.012,2.292,0,4.584,0,6.876v.411h3.957a1.163,1.163,0,0,0,.019-.137c0-2.881.021-5.762-.009-8.642a4.486,4.486,0,0,0-3.46-4.263,8.282,8.282,0,0,0-6,1.035.749.749,0,0,1-.774.09.678.678,0,0,1-.357-.691c.007-.194,0-.389,0-.573h-2.612v13.191Z" transform="translate(326.269 -466.211)"/>
      <path id="Path_253" data-name="Path 253" d="M-339.821,486.032q0-3.494,0-6.988c0-.707.211-.916.922-.916q2.4,0,4.809,0c.691,0,.9.206.9.9q0,7.063,0,14.126c0,.66-.221.878-.878.879q-2.442,0-4.884,0c-.631,0-.866-.231-.866-.859Q-339.823,489.6-339.821,486.032Zm1.345,6.628h3.947V479.479h-3.947Z" transform="translate(343.824 -466.216)"/>
      <path id="Path_254" data-name="Path 254" d="M-336.494,450.55a3.3,3.3,0,0,1,3.3,3.329,3.313,3.313,0,0,1-3.313,3.289,3.333,3.333,0,0,1-3.313-3.335A3.319,3.319,0,0,1-336.494,450.55Zm0,5.284a1.987,1.987,0,0,0,1.987-1.972,2,2,0,0,0-1.974-1.99,1.986,1.986,0,0,0-2,2A1.976,1.976,0,0,0-336.495,455.834Z" transform="translate(343.82 -447.239)"/>
    </g>
  </g>
</svg>
