<svg xmlns="http://www.w3.org/2000/svg" width="18.599" height="17.017" viewBox="0 0 18.599 17.017">
  <g id="xKS4p0" transform="translate(2439.116 1157.231)">
    <g id="Group_126" data-name="Group 126" transform="translate(-2439.116 -1157.231)">
      <path id="Path_42" data-name="Path 42" d="M-2433.451-1150.883h-1.371v-.318q0-1.845,0-3.691a2.2,2.2,0,0,1,2.349-2.339q3.761,0,7.522,0a2.2,2.2,0,0,1,2.284,2.266q0,6.218,0,12.435a2.2,2.2,0,0,1-2.321,2.315h-7.524a2.186,2.186,0,0,1-2.31-2.292c-.006-1.467,0-2.933,0-4.4,0-.083.008-.167.012-.267h1.357v4.549c0,.717.279,1.009.984,1.009q3.747,0,7.5,0a.834.834,0,0,0,.934-.949q0-5.309,0-10.618c0-.578,0-1.155,0-1.732a.829.829,0,0,0-.934-.921h-7.553a.825.825,0,0,0-.924.928q0,1.831,0,3.662Z" transform="translate(2441.261 1157.231)" fill="#8e8e8e"/>
      <path id="Path_43" data-name="Path 43" d="M-2436.637-1149.3c.511.489,1.028.972,1.532,1.468s1,1,1.5,1.513a.772.772,0,0,1,.138.894.722.722,0,0,1-.777.4.927.927,0,0,1-.442-.225q-2.108-2.108-4.195-4.234a.774.774,0,0,1,.066-1.159q1.692-1.739,3.387-3.475c.219-.224.435-.449.653-.67a.765.765,0,0,1,1.131-.068.774.774,0,0,1-.039,1.138q-1.282,1.325-2.572,2.644c-.059.059-.111.122-.218.24h.525q4.529,0,9.053,0a.716.716,0,0,1,.774.936.7.7,0,0,1-.713.5c-.766,0-1.533,0-2.3,0h-7.432Z" transform="translate(2439.117 1158.304)" fill="#8e8e8e"/>
    </g>
  </g>
</svg>
