<svg xmlns="http://www.w3.org/2000/svg" width="177.189" height="51.352" viewBox="0 0 177.189 51.352">
  <g id="dafribank-logo" transform="translate(-42.023 -44.713)">
    <path id="Path_1" data-name="Path 1" d="M89.487,44.713H48.006a5.985,5.985,0,0,0-5.983,5.982V90.082a5.985,5.985,0,0,0,5.983,5.983H89.487a5.985,5.985,0,0,0,5.984-5.983V50.695a5.985,5.985,0,0,0-5.984-5.982M82.933,66.97h0L81.022,78.21a8.031,8.031,0,0,1-2.78,4.838,7.542,7.542,0,0,1-5.058,2.005H53.715l3.1-18.083H82.933v0Zm.749-4.4-.332,1.954H57.237l1.512-8.8h19.47a5.318,5.318,0,0,1,3.987,1.611A5.574,5.574,0,0,1,83.777,61.4a7.484,7.484,0,0,1-.1,1.174" fill="#fff"/>
    <g id="Group_1" data-name="Group 1">
      <path id="Path_2" data-name="Path 2" d="M117.406,70.12c.083,4.871-2.89,9.794-9.628,9.794h-7.567V60.656h7.567c6.6,0,9.543,4.707,9.628,9.464m-13.593,6.3h3.962c4.373,0,6.107-3.19,6.023-6.326-.083-3-1.844-6-6.023-6h-3.962Z" fill="#fff"/>
      <path id="Path_3" data-name="Path 3" d="M129.2,66.352h3.217V79.914H129.26l-.163-1.981c-.772,1.6-2.89,2.366-4.4,2.4-4.014.026-6.987-2.449-6.987-7.208,0-4.677,3.11-7.126,7.068-7.1a4.974,4.974,0,0,1,4.319,2.2Zm-8.141,6.768a3.883,3.883,0,0,0,4.016,4.125c5.28,0,5.28-8.224,0-8.224a3.862,3.862,0,0,0-4.016,4.1" fill="#fff"/>
      <path id="Path_4" data-name="Path 4" d="M134.98,79.914V69.489h-2.531V66.545h2.531v-.908a4.909,4.909,0,0,1,5.17-5.308,6.545,6.545,0,0,1,3.522,1.1l-1.239,2.5a3.729,3.729,0,0,0-2.064-.716c-1.156,0-2.034.772-2.034,2.421v.908h3.987v2.944h-3.987V79.914Z" fill="#fff"/>
      <path id="Path_5" data-name="Path 5" d="M146.424,66.353l.248,1.565a4,4,0,0,1,3.824-1.926,5.157,5.157,0,0,1,3.495,1.293L152.477,70.2a3.344,3.344,0,0,0-2.422-.88,3.129,3.129,0,0,0-3.383,3.438v7.152h-3.355V66.353Z" fill="#fff"/>
      <path id="Path_6" data-name="Path 6" d="M157.537,62.528a1.98,1.98,0,0,1-3.96,0,1.98,1.98,0,0,1,3.96,0M153.88,79.915h3.357V66.3H153.88Z" fill="#fff"/>
      <path id="Path_7" data-name="Path 7" d="M174.785,66.242a3.919,3.919,0,0,1-2.5,3.715,4.7,4.7,0,0,1,3.08,4.292c0,4.292-3.22,5.665-7.208,5.665h-9.134V60.656h9.134c3.8,0,6.63,1.708,6.63,5.586M162.6,68.387h5.556c2.284,0,3.025-.962,3.025-2.064,0-.88-.714-2.366-3.025-2.366H162.6Zm0,8.143h5.556c1.485,0,3.6-.494,3.6-2.311,0-1.734-2.118-2.642-3.6-2.642H162.6Z" fill="#fff"/>
      <path id="Path_8" data-name="Path 8" d="M187.054,66.352h3.217V79.914h-3.163l-.165-1.981c-.77,1.6-2.889,2.366-4.4,2.4-4.016.026-6.989-2.449-6.989-7.208,0-4.677,3.11-7.126,7.069-7.1a4.975,4.975,0,0,1,4.319,2.2Zm-8.141,6.768a3.884,3.884,0,0,0,4.016,4.125c5.281,0,5.281-8.224,0-8.224a3.862,3.862,0,0,0-4.016,4.1" fill="#fff"/>
      <path id="Path_9" data-name="Path 9" d="M201.716,79.914v-7.1c0-2.065-1.129-3.631-3.274-3.631a3.568,3.568,0,0,0-3.467,3.8v6.932h-3.328V66.325h3l.22,1.844a6.115,6.115,0,0,1,4.456-2.034c3.191,0,5.75,2.392,5.75,6.656v7.125h-3.357Z" fill="#fff"/>
      <path id="Path_10" data-name="Path 10" d="M209.859,60.686V71.8l4.567-5.448h4.016v.193l-5.529,6.19,6.3,6.932v.247h-4.044l-5.309-6.134v6.134H206.5V60.686Z" fill="#fff"/>
      <path id="Path_11" data-name="Path 11" d="M131.477,84.043a1.454,1.454,0,0,1-.443,1.134,1.645,1.645,0,0,1-1.158.386,4.26,4.26,0,0,1-.739-.06V82.736a4.156,4.156,0,0,1,.83-.075,1.624,1.624,0,0,1,1.086.337,1.3,1.3,0,0,1,.424,1.045m-.542,0a.964.964,0,0,0-.239-.693.891.891,0,0,0-.675-.251,1.68,1.68,0,0,0-.373.038v1.944a1.474,1.474,0,0,0,.322.032.9.9,0,0,0,.723-.3,1.168,1.168,0,0,0,.242-.765" fill="#fff"/>
      <rect id="Rectangle_1" data-name="Rectangle 1" width="0.508" height="2.811" transform="translate(133.982 82.71)" fill="#fff"/>
      <path id="Path_12" data-name="Path 12" d="M139.436,85.343a2.07,2.07,0,0,1-.927.223,1.518,1.518,0,0,1-1.078-.392,1.374,1.374,0,0,1-.419-1.053,1.427,1.427,0,0,1,.4-1.081,1.51,1.51,0,0,1,1.086-.374,2.185,2.185,0,0,1,.841.189l-.17.427a1.826,1.826,0,0,0-.714-.168.841.841,0,0,0-.659.26.976.976,0,0,0-.239.687,1.162,1.162,0,0,0,.231.752.877.877,0,0,0,.706.3,1.217,1.217,0,0,0,.447-.07.781.781,0,0,1-.013-.135v-.863h.505Z" fill="#fff"/>
      <rect id="Rectangle_2" data-name="Rectangle 2" width="0.508" height="2.811" transform="translate(142.043 82.71)" fill="#fff"/>
      <path id="Path_13" data-name="Path 13" d="M147.109,83.15h-.871v2.368h-.508V83.15h-.817v-.443h2.2Z" fill="#fff"/>
      <path id="Path_14" data-name="Path 14" d="M151.709,85.52h-.571l-.276-.714H149.79l-.278.712-.546.006,1.151-2.812h.484ZM150.7,84.359l-.366-.947-.363.947Z" fill="#fff"/>
      <path id="Path_15" data-name="Path 15" d="M155.729,85.52H154.07V82.709h.509v2.368h1.15Z" fill="#fff"/>
      <path id="Path_16" data-name="Path 16" d="M163.031,84.741q0,.824-1.179.822a3.468,3.468,0,0,1-.7-.075V82.741a3.933,3.933,0,0,1,.707-.083q1.07,0,1.07.794a.618.618,0,0,1-.115.362.7.7,0,0,1-.3.243v.008a.646.646,0,0,1,.378.238.727.727,0,0,1,.137.438m-.621-1.268a.321.321,0,0,0-.163-.31.907.907,0,0,0-.363-.059,1.351,1.351,0,0,0-.224.023v.722h.248c.336,0,.5-.124.5-.376m.1,1.234c0-.275-.2-.412-.586-.412h-.261v.793a1.477,1.477,0,0,0,.23.021c.411,0,.617-.133.617-.4" fill="#fff"/>
      <path id="Path_17" data-name="Path 17" d="M167.994,85.52h-.571l-.276-.714h-1.072l-.278.712-.546.006,1.151-2.812h.484Zm-1.014-1.161-.366-.947-.363.947Z" fill="#fff"/>
      <path id="Path_18" data-name="Path 18" d="M172.831,85.486a.836.836,0,0,1-.3.062.627.627,0,0,1-.572-.358l-1.032-1.8c-.022-.036-.04-.072-.054-.1h-.008V85.52h-.508V82.709h.762l1.138,2.084c.014.026.036.069.063.123h.007V82.707h.508v2.779Z" fill="#fff"/>
      <path id="Path_19" data-name="Path 19" d="M177.666,85.52H177l-.834-1a.824.824,0,0,0-.191-.181h-.008v1.186h-.508V82.712h.508V83.8l.973-1.089h.667l-1.248,1.374a.376.376,0,0,1,.172.118Z" fill="#fff"/>
      <path id="Path_20" data-name="Path 20" d="M185.6,84.117a1.5,1.5,0,0,1-.34,1.027,1.344,1.344,0,0,1-1.946.006,1.524,1.524,0,0,1-.342-1.033,1.547,1.547,0,0,1,.334-1.036,1.358,1.358,0,0,1,1.964,0,1.561,1.561,0,0,1,.33,1.036m-.545,0a1.246,1.246,0,0,0-.175-.692.718.718,0,0,0-1.193,0,1.29,1.29,0,0,0-.169.692,1.251,1.251,0,0,0,.174.686.673.673,0,0,0,.6.317.659.659,0,0,0,.593-.317,1.234,1.234,0,0,0,.175-.686" fill="#fff"/>
      <path id="Path_21" data-name="Path 21" d="M189.729,83.15h-1.115v.69h.933v.428h-.933v1.25h-.508V82.708h1.623Z" fill="#fff"/>
      <path id="Path_22" data-name="Path 22" d="M197.708,85.52h-.57l-.276-.714H195.79l-.278.712-.546.006,1.151-2.812h.484ZM196.7,84.359l-.366-.947-.363.947Z" fill="#fff"/>
      <path id="Path_23" data-name="Path 23" d="M201.692,83.15h-1.115v.69h.932v.428h-.932v1.25h-.508V82.708h1.623Z" fill="#fff"/>
      <path id="Path_24" data-name="Path 24" d="M206.225,85.521h-.6l-.564-.941a.878.878,0,0,0-.138-.185h-.04a.362.362,0,0,1-.046.006c.008,0-.054-.006-.183-.014v1.134h-.508V82.75a3.259,3.259,0,0,1,.723-.085c.729,0,1.1.284,1.1.86a.778.778,0,0,1-.175.493.692.692,0,0,1-.423.264v.008c.06,0,.135.078.229.222Zm-.8-2.014c0-.271-.178-.4-.537-.4a1.242,1.242,0,0,0-.24.023v.847a1.552,1.552,0,0,0,.229.017.608.608,0,0,0,.387-.119.451.451,0,0,0,.161-.364" fill="#fff"/>
      <rect id="Rectangle_3" data-name="Rectangle 3" width="0.508" height="2.811" transform="translate(208.581 82.71)" fill="#fff"/>
      <path id="Path_25" data-name="Path 25" d="M213.778,85.375a1.66,1.66,0,0,1-.744.186,1.376,1.376,0,0,1-1.027-.4,1.425,1.425,0,0,1-.4-1.04,1.508,1.508,0,0,1,.369-1.043,1.256,1.256,0,0,1,.989-.409,1.964,1.964,0,0,1,.8.188l-.167.42a1.6,1.6,0,0,0-.643-.161.706.706,0,0,0-.6.293,1.049,1.049,0,0,0-.205.661,1.109,1.109,0,0,0,.236.746.881.881,0,0,0,.707.3,1.243,1.243,0,0,0,.549-.131Z" fill="#fff"/>
      <path id="Path_26" data-name="Path 26" d="M218.737,85.52h-.571l-.276-.714h-1.072l-.277.712-.546.006,1.151-2.812h.483Zm-1.011-1.161-.366-.947-.362.947Z" fill="#fff"/>
    </g>
  </g>
</svg>
