<svg xmlns="http://www.w3.org/2000/svg" width="90" height="60.752" viewBox="0 0 90 60.752">
  <path id="Icon_zocial-email" data-name="Icon zocial-email" d="M.072,59.439V9.449q0-.087.26-1.649L29.754,32.969.419,61.175a7.355,7.355,0,0,1-.347-1.736ZM3.977,4.328a3.74,3.74,0,0,1,1.475-.26H84.691a4.914,4.914,0,0,1,1.562.26L56.745,29.584,52.84,32.708l-7.724,6.336-7.724-6.336-3.905-3.124ZM4.064,64.56,33.659,36.18l11.456,9.286L56.572,36.18,86.166,64.56a4.167,4.167,0,0,1-1.475.26H5.453a3.931,3.931,0,0,1-1.389-.26ZM60.477,32.969,89.812,7.8a5.18,5.18,0,0,1,.26,1.649v49.99a6.652,6.652,0,0,1-.26,1.736Z" transform="translate(-0.072 -4.068)"/>
</svg>
