<svg xmlns="http://www.w3.org/2000/svg" width="49" height="46" viewBox="0 0 49 46">
  <g id="Group_150" data-name="Group 150" transform="translate(-1010 -2143)">
    <circle id="Ellipse_9" data-name="Ellipse 9" cx="13" cy="13" r="13" transform="translate(1033 2163)" fill="#bfbfbf"/>
    <g id="Group_26" data-name="Group 26" transform="translate(2601.493 2611.938)">
      <path id="Path_130" data-name="Path 130" d="M-1554.234-459.892l1.992-.289c.155-.022.309-.05.464-.071a.914.914,0,0,1,1.08.806c.23,1.529.454,3.059.681,4.588.12.808.245,1.615.357,2.424.021.155.078.2.23.2.67-.007,1.339,0,2.008,0a.912.912,0,0,1,1.008,1q0,9.819,0,19.637a.913.913,0,0,1-1.024.982q-4.968,0-9.936,0l-24.2,0c-.829,0-1.149-.317-1.15-1.149v-2.025a3.245,3.245,0,0,1-.488-.138.854.854,0,0,1-.507-.68c-.1-.636-.184-1.273-.293-1.907a.5.5,0,0,0-.192-.3,1.215,1.215,0,0,1-.457-.645q-1.09-2.972-2.188-5.94-2.271-6.159-4.541-12.318a.936.936,0,0,1,.627-1.377q10.555-3.864,21.112-7.727,5.456-2,10.91-4a.965.965,0,0,1,1.448.656q1.464,3.971,2.929,7.943C-1554.325-460.117-1554.282-460.013-1554.234-459.892Zm-26.655,9.488v17.933h32.655V-450.4Zm24.791-9.212-2.671-7.241-30.633,11.216,4.181,11.341a1.059,1.059,0,0,0,0-.408q-.692-4.678-1.386-9.357a.938.938,0,0,1,.855-1.183q6.391-.944,12.785-1.883,2.385-.351,4.77-.7,4.925-.725,9.848-1.453Zm3.712,1.3-32.287,4.757,1.906,12.846.045,0v-.352q0-3.285,0-6.571,0-1.812,0-3.625a.908.908,0,0,1,.67-.941,1.91,1.91,0,0,1,.491-.036q14.85,0,29.7,0h.377Z"/>
      <path id="Path_131" data-name="Path 131" d="M-1563.645-435.681c0,.311.005.606,0,.9a.919.919,0,0,1-.908.946.916.916,0,0,1-.93-.95c-.006-.3,0-.59,0-.8a12.066,12.066,0,0,1-1.349-.865,3.155,3.155,0,0,1-1.128-2.429.91.91,0,0,1,.882-.99.907.907,0,0,1,.947.926,1.566,1.566,0,0,0,2.352,1.332,1.553,1.553,0,0,0,.731-1.72,1.54,1.54,0,0,0-1.451-1.176,3.35,3.35,0,0,1-3.08-1.842,3.356,3.356,0,0,1,1.849-4.73.315.315,0,0,0,.252-.373,6.376,6.376,0,0,1,0-.678.9.9,0,0,1,.928-.891.91.91,0,0,1,.906.892,4.709,4.709,0,0,1,0,.651c-.022.228.055.329.277.409a3.352,3.352,0,0,1,2.2,3.2.9.9,0,0,1-.732.864.905.905,0,0,1-1.02-.539,1.265,1.265,0,0,1-.079-.4,1.569,1.569,0,0,0-1.533-1.509,1.565,1.565,0,0,0-1.594,1.47,1.568,1.568,0,0,0,1.4,1.634,6.876,6.876,0,0,1,1.35.239,3.313,3.313,0,0,1,2.211,3.161,3.365,3.365,0,0,1-2.209,3.171C-1563.459-435.754-1563.54-435.722-1563.645-435.681Z"/>
      <path id="Path_132" data-name="Path 132" d="M-1551.2-441.408a3.228,3.228,0,0,1-3.305,3.211,3.235,3.235,0,0,1-3.184-3.331,3.248,3.248,0,0,1,3.3-3.139A3.247,3.247,0,0,1-1551.2-441.408Zm-1.838-.037a1.414,1.414,0,0,0-1.423-1.391,1.422,1.422,0,0,0-1.4,1.422,1.417,1.417,0,0,0,1.428,1.389A1.407,1.407,0,0,0-1553.038-441.445Z"/>
      <path id="Path_133" data-name="Path 133" d="M-1573.246-444.262a3.121,3.121,0,0,1,.594.319,3.093,3.093,0,0,1,1.115,3.265,3.072,3.072,0,0,1-2.472,2.408,3.233,3.233,0,0,1-3.846-2.445,3.238,3.238,0,0,1,2.445-3.868,3.21,3.21,0,0,1,2.016.184C-1573.344-444.377-1573.308-444.32-1573.246-444.262Zm-.982,1.439a1.345,1.345,0,0,1-.3,0,1.439,1.439,0,0,0-1.535,1.084,1.451,1.451,0,0,0,.945,1.649,1.41,1.41,0,0,0,1.718-.76,1.4,1.4,0,0,0-.563-1.78C-1574.049-442.682-1574.122-442.746-1574.228-442.823Z"/>
    </g>
  </g>
</svg>
