<?xml version="1.0" encoding="utf-8"?>
<!-- Generator: Adobe Illustrator 24.3.0, SVG Export Plug-In . SVG Version: 6.00 Build 0)  -->
<svg version="1.1" id="Layer_1" xmlns="http://www.w3.org/2000/svg" xmlns:xlink="http://www.w3.org/1999/xlink" x="0px" y="0px"
	 viewBox="0 0 38.5 38.5" style="enable-background:new 0 0 38.5 38.5;" xml:space="preserve">
<style type="text/css">
	.st0{fill:#F7CAA5;}
	.st1{fill:#F2F2F2;}
	.st2{fill:#EDB288;}
</style>
<path class="st0" d="M25.7,29.5l4.8-2.3c1.1-0.5,2.4-0.1,3,0.9l-9.8,6.4c-1.3,0.6-2.8,0.8-4.2,0.5l-6.8-1.9
	c-0.6-0.2-1.3-0.1-1.9,0.2l-1.4,0.8l0.2-6.9h0.1c2-1.4,4.7-1.6,6.9-0.5l0.4,0.2c0.6,0.3,1.3,0.5,2.1,0.5l4,0.1
	C24.2,27.5,25.3,28.3,25.7,29.5z"/>
<path d="M27.1,17.4c0,4.1-3.3,7.5-7.5,7.5c-4.1,0-7.5-3.3-7.5-7.5s3.3-7.5,7.5-7.5C23.7,9.9,27.1,13.2,27.1,17.4z"/>
<path class="st1" d="M19.6,16.8c-0.7,0-1.3-0.6-1.3-1.3c0-0.7,0.6-1.3,1.3-1.3c0.7,0,1.3,0.6,1.3,1.3c0,0.3,0.2,0.6,0.6,0.6
	c0.3,0,0.6-0.2,0.6-0.6c0-1.1-0.8-2.1-1.9-2.3v-0.5c0-0.3-0.2-0.6-0.6-0.6c-0.3,0-0.6,0.2-0.6,0.6v0.5c-1.1,0.3-1.9,1.4-1.7,2.6
	c0.2,1.2,1.2,2,2.3,2c0.7,0,1.3,0.5,1.3,1.2s-0.5,1.3-1.2,1.3c-0.1,0-0.1,0-0.2,0c-0.6-0.1-1.1-0.6-1.1-1.2c0-0.3-0.2-0.6-0.6-0.6
	c-0.3,0-0.6,0.2-0.6,0.6c0,1.1,0.7,2,1.7,2.3V22c0,0.3,0.2,0.6,0.6,0.6c0.3,0,0.6-0.2,0.6-0.6v-0.5c1.2-0.2,2-1.3,1.9-2.6
	C21.8,17.7,20.8,16.8,19.6,16.8z"/>
<path class="st2" d="M25.9,31.1L25.9,31.1l-6.6-0.2c-0.3,0-0.5-0.3-0.5-0.6s0.3-0.5,0.6-0.5l5.9,0.2c0-0.1,0-0.2-0.1-0.3
	c-0.3-1-1.2-1.6-2.2-1.7l-4-0.1c-0.8,0-1.6-0.2-2.3-0.6l-0.4-0.2c-2-1.1-4.5-0.9-6.3,0.4c-0.2,0.2-0.6,0.1-0.8-0.1
	c-0.2-0.2-0.1-0.6,0.1-0.8c2.2-1.6,5.1-1.8,7.5-0.5l0.4,0.2c0.6,0.3,1.2,0.5,1.8,0.5l4,0.1c0.9,0,1.8,0.4,2.5,1.1
	c0.6,0.7,1,1.6,1,2.5C26.4,30.8,26.2,31.1,25.9,31.1L25.9,31.1z"/>
<g>
	<path d="M19.6,8.4c-0.3,0-0.6-0.2-0.6-0.6V2.6C19,2.3,19.2,2,19.6,2c0.3,0,0.6,0.2,0.6,0.6v5.2C20.2,8.1,19.9,8.4,19.6,8.4z"/>
	<path d="M23.7,8.4c-0.3,0-0.6-0.2-0.6-0.6V5.3c0-0.3,0.2-0.6,0.6-0.6c0.3,0,0.6,0.2,0.6,0.6v2.5C24.3,8.1,24.1,8.4,23.7,8.4z"/>
	<path d="M15.5,8.4c-0.3,0-0.6-0.2-0.6-0.6V5.3c0-0.3,0.2-0.6,0.6-0.6c0.3,0,0.6,0.2,0.6,0.6v2.5C16,8.1,15.8,8.4,15.5,8.4z"/>
</g>
<path d="M9.4,34v0.8L5,34.7l0.3-9.6l4.4,0.1l-0.1,1.9L9.4,34z"/>
</svg>
