<svg height='300px' width='300px'  fill="#FFFFFF" xmlns="http://www.w3.org/2000/svg" data-name="Layer 1" viewBox="0 0 96 96" x="0px" y="0px"><title>Artboard 152</title><path d="M92.86,34.74h0l-13-31.5A2,2,0,0,0,78,2H18a2,2,0,0,0-1.85,1.24l-13,31.5a10.71,10.71,0,0,0,.24,8.95A13,13,0,0,0,8,48.79V72a2,2,0,0,0,4,0V50.47a13,13,0,0,0,14-5.7,13,13,0,0,0,22,0,13,13,0,0,0,22,0,13,13,0,0,0,14,5.7V90H44V58a2,2,0,0,0-2-2H18a2,2,0,0,0-2,2V90H12V82a2,2,0,0,0-4,0V92a2,2,0,0,0,2,2H86a2,2,0,0,0,2-2V48.79a13,13,0,0,0,4.62-5.1A10.71,10.71,0,0,0,92.86,34.74ZM20,90V60H40V90ZM89.05,41.88a9,9,0,0,1-17-4,2,2,0,0,0-4,0,9,9,0,0,1-18,0,2,2,0,0,0-4,0,9,9,0,0,1-18,0,2,2,0,0,0-4,0,9,9,0,0,1-17,4,6.76,6.76,0,0,1-.12-5.61L19.34,6H76.66L89.17,36.27A6.76,6.76,0,0,1,89.05,41.88Z"></path><path d="M78,80a2,2,0,0,0,2-2V58a2,2,0,0,0-2-2H50a2,2,0,0,0-2,2V78a2,2,0,0,0,2,2ZM52,60H76V76H52Z"></path></svg>