<svg xmlns="http://www.w3.org/2000/svg" width="94" height="94.096" viewBox="0 0 94 94.096">
  <g id="Group_107" data-name="Group 107" transform="translate(1171.229 270.363)">
    <path id="Path_28" data-name="Path 28" d="M-1118.29-193.673c-.009.217-.026.4-.026.59,0,2.635.056,5.271-.027,7.9a8.382,8.382,0,0,1-.758,3.644,9.568,9.568,0,0,1-2.076,2.93,13.392,13.392,0,0,1-2.589,1.6,6.361,6.361,0,0,1-1.736.611,10.267,10.267,0,0,1-1.933.125q-12.076.011-24.152,0c-3.356,0-6.711.007-10.067,0a17.553,17.553,0,0,1-2.331-.122,4.9,4.9,0,0,1-1.5-.5,18.644,18.644,0,0,1-2.681-1.534,8.379,8.379,0,0,1-1.41-1.64,7.96,7.96,0,0,1-1.249-2.422,4.362,4.362,0,0,1-.216-.933,21.55,21.55,0,0,1-.178-2.274q-.014-37.795.009-75.591a8.316,8.316,0,0,1,.8-3.854,9.25,9.25,0,0,1,3.5-3.9,7.528,7.528,0,0,1,3.639-1.161c1.582-.05,3.164-.144,4.747-.146q15.587-.02,31.173.012a8.534,8.534,0,0,1,3.971.86c.511.267.956.658,1.458.946a7.639,7.639,0,0,1,2.5,2.908,7.527,7.527,0,0,1,.97,3.115c.272,2.069.065,4.139.142,6.206.006.157.018.315.03.529.43-.122.8-.251,1.188-.332.823-.176,1.654-.308,2.474-.493a19.486,19.486,0,0,1,4.141-.378c1.207-.009,2.415,0,3.559,0,0,.683.037,1.294-.008,1.9-.09,1.193-.217,2.384-.357,3.571-.011.093-.241.228-.371.229-1.148.018-2.3,0-3.444.012a16.386,16.386,0,0,0-3.761.507c-.859.209-1.749.315-2.582.6-1.145.388-2.262.868-3.364,1.368a23.761,23.761,0,0,0-2.545,1.341,22.849,22.849,0,0,0-2.274,1.6c-.91.72-1.812,1.458-2.646,2.262a19.079,19.079,0,0,0-1.863,2.136c-.7.905-1.32,1.865-1.977,2.8a20.109,20.109,0,0,0-2.312,4.766c-.364,1-.679,2.014-.956,3.039a10.458,10.458,0,0,0-.392,2.141c-.106,1.917-.214,3.839-.175,5.756a24.909,24.909,0,0,0,.493,3.626,15.526,15.526,0,0,0,.531,2.2c.33,1.01.711,2.006,1.115,2.989a27.331,27.331,0,0,0,1.156,2.492,12.423,12.423,0,0,0,1.111,1.667c.9,1.185,1.766,2.412,2.776,3.5a39.9,39.9,0,0,0,2.994,2.662,23.162,23.162,0,0,0,4.091,2.665,21.083,21.083,0,0,0,4.231,1.757c1.093.328,2.251.44,3.346.765,2.388.709,4.822.388,7.235.372a3.766,3.766,0,0,0,1.992-.353,3.57,3.57,0,0,1,1.058-.214c.611-.13,1.23-.235,1.826-.418.992-.3,1.98-.635,2.948-1.009a12.973,12.973,0,0,0,1.575-.8,26.791,26.791,0,0,0,3.086-1.774,31.2,31.2,0,0,0,3.562-2.938c.8-.8,1.458-1.7,2.212-2.526a25.2,25.2,0,0,0,2.378-3.519,22.363,22.363,0,0,0,1.949-4.346,20.05,20.05,0,0,0,.794-2.591c.2-.847.242-1.727.409-2.581a25.634,25.634,0,0,0,.149-5.053,19.4,19.4,0,0,0-.328-2.9c-.144-.917-.332-1.829-.547-2.732a10.292,10.292,0,0,0-.5-1.364c-.457-1.158-.91-2.318-1.392-3.467-.113-.271.022-.325.2-.415.585-.293,1.172-.581,1.747-.891.852-.459,1.7-.934,2.541-1.406.255-.143.4-.061.518.188.315.69.657,1.367.956,2.063.318.74.63,1.484.89,2.245.247.724.437,1.469.629,2.211.181.7.339,1.406.494,2.112.077.354.136.713.187,1.072a18.564,18.564,0,0,1,.278,2.187c.038,1.88.045,3.763-.007,5.643a14.423,14.423,0,0,1-.36,2.119c-.074.414-.17.826-.224,1.243a23.748,23.748,0,0,1-1.309,4.872c-.45,1.262-1.1,2.455-1.668,3.674a25.53,25.53,0,0,1-2.87,4.542c-.55.725-1.195,1.38-1.739,2.109a29.888,29.888,0,0,1-2.705,2.726,18.549,18.549,0,0,1-2.492,1.89c-.573.421-1.141.851-1.736,1.24-.471.308-.991.54-1.468.841a23.6,23.6,0,0,1-5.24,2.286c-1.216.406-2.446.767-3.681,1.113a11.325,11.325,0,0,1-1.378.21c-.705.1-1.41.213-2.114.318a2.019,2.019,0,0,1-.306.027c-1.957,0-3.915.026-5.872-.013a14.319,14.319,0,0,1-1.934-.295c-.431-.068-.864-.12-1.29-.209-.753-.156-1.5-.335-2.251-.5A2.971,2.971,0,0,0-1118.29-193.673Zm-19.066-47.318h-27.992v35.329h29.842a.694.694,0,0,0-.039-.2c-.415-.647-.837-1.291-1.253-1.937a15.91,15.91,0,0,1-.969-1.531c-.635-1.282-1.264-2.571-1.806-3.893a30.765,30.765,0,0,1-.941-2.947c-.16-.54-.269-1.1-.4-1.644-.183-.753-.386-1.5-.543-2.26a10.062,10.062,0,0,1-.177-1.43c-.073-1.229-.145-2.459-.172-3.69-.011-.493.145-.989.139-1.482a17.712,17.712,0,0,1,.484-3.872c.207-.994.427-1.987.7-2.965.276-1.006.575-2.009.941-2.986.277-.738.668-1.435,1.018-2.145C-1138.162-239.4-1137.781-240.145-1137.356-240.991Zm-28,41.208c-.014.151-.026.224-.026.3,0,5-.007,10.005.01,15.008a2.538,2.538,0,0,0,.93,1.774,2.589,2.589,0,0,0,1.889.674q17.766-.025,35.534-.02a4.18,4.18,0,0,0,1.2-.192,2.848,2.848,0,0,0,1.658-2.245q.016-5.606,0-11.212a.554.554,0,0,0-.142-.377,4.826,4.826,0,0,0-.635-.441c-1.327-.858-2.695-1.661-3.968-2.593a3.328,3.328,0,0,0-2.132-.691q-16.84.041-33.68.018Zm0-46.994h26.023c1.987,0,3.973.005,5.961-.009a.952.952,0,0,0,.589-.2c.984-.884,1.918-1.826,2.923-2.683a28.716,28.716,0,0,1,2.632-1.992c.853-.573,1.761-1.068,2.666-1.557a.694.694,0,0,0,.421-.718c-.013-2.6-.066-5.212.016-7.814a2.924,2.924,0,0,0-2.784-2.786q-17.838.047-35.675-.009a3.011,3.011,0,0,0-2.823,2.8c.069,4.811.026,9.624.027,14.438C-1165.388-247.146-1165.374-246.988-1165.365-246.778Z"/>
    <path id="Path_29" data-name="Path 29" d="M-1081.273-221.776c-.149.173-.276.344-.427.491-1.131,1.108-2.278,2.2-3.4,3.319-.965.962-1.894,1.96-2.852,2.929-.443.449-.933.851-1.377,1.3-1.02,1.031-2.019,2.084-3.039,3.116-.443.448-.933.851-1.376,1.3-1.02,1.031-2.019,2.085-3.04,3.116-.474.479-.989.919-1.471,1.391-.743.729-1.482,1.463-2.206,2.21-.262.271-.46.288-.729.009-.682-.707-1.378-1.4-2.08-2.086-1.151-1.13-2.321-2.24-3.462-3.381-1.171-1.171-2.312-2.374-3.475-3.553-.329-.334-.682-.646-1.038-.951-.329-.281-.292-.516.013-.793.568-.516,1.121-1.048,1.672-1.582s1.088-1.033,1.586-1.589c.307-.342.493-.274.773.015.879.9,1.774,1.794,2.673,2.679.94.926,1.893,1.837,2.833,2.761.209.2.389.438.583.658a.33.33,0,0,0,.558.009c.905-.938,1.809-1.878,2.727-2.8.433-.437.909-.833,1.343-1.271,1.081-1.1,2.137-2.217,3.225-3.3,1.224-1.224,2.483-2.411,3.708-3.633.965-.962,1.9-1.958,2.854-2.928.392-.4.825-.751,1.221-1.143.257-.254.415-.075.582.092.859.858,1.713,1.721,2.575,2.575.256.253.538.479.8.726A2.518,2.518,0,0,1-1081.273-221.776Z" transform="translate(-13.036 -9.761)"/>
    <path id="Path_30" data-name="Path 30" d="M-1082.469-246.175c.366-1.284.725-2.541,1.084-3.8.119-.417.231-.836.36-1.249a.376.376,0,0,1,.527-.253c.671.221,1.345.437,2,.694.822.321,1.629.679,2.439,1.029a5.74,5.74,0,0,1,.634.329c.22.131.27.286.127.543-.619,1.113-1.218,2.236-1.812,3.361-.222.42-.413.856-.635,1.321-.83-.414-1.569-.833-2.349-1.158S-1081.693-245.913-1082.469-246.175Z" transform="translate(-19.363 -4.114)"/>
    <path id="Path_31" data-name="Path 31" d="M-1062.63-239.553a5.545,5.545,0,0,1-.568.647c-.409.347-.857.648-1.274.987-.7.565-1.388,1.134-2.062,1.724-.31.271-.525.213-.746-.088a6.7,6.7,0,0,0-.693-.9c-.6-.579-1.237-1.114-1.849-1.679a2.594,2.594,0,0,1-.5-.586.476.476,0,0,1,.089-.414c.629-.774,1.282-1.53,1.917-2.3.39-.471.768-.952,1.139-1.439.183-.239.326-.273.564-.045.773.744,1.586,1.446,2.348,2.2.544.539,1.033,1.134,1.544,1.706A.99.99,0,0,1-1062.63-239.553Z" transform="translate(-22.008 -5.795)"/>
    <path id="Path_32" data-name="Path 32" d="M-1141.071-169.547c0-.823.009-1.646-.006-2.468-.005-.3.084-.418.4-.415q2.491.019,4.981,0c.291,0,.382.1.381.388q-.014,2.491,0,4.981c0,.28-.081.394-.376.392q-2.513-.014-5.026,0c-.271,0-.36-.1-.357-.364C-1141.064-167.872-1141.071-168.709-1141.071-169.547Z" transform="translate(-6.578 -21.365)"/>
    <path id="Path_33" data-name="Path 33" d="M-1132.279-255.335c2.765,0,5.529.006,8.295-.008.377,0,.512.09.507.49q-.032,2.448,0,4.9c0,.379-.127.468-.483.467q-8.317-.014-16.634,0c-.355,0-.489-.087-.485-.466q.028-2.471,0-4.941c0-.361.123-.446.461-.445C-1137.839-255.331-1135.059-255.335-1132.279-255.335Z" transform="translate(-6.577 -3.277)"/>
    <path id="Path_34" data-name="Path 34" d="M-1153.242-255.335c.823,0,1.646.01,2.469-.005.3-.005.414.089.412.4q-.018,2.536,0,5.069c0,.294-.109.379-.39.378q-2.534-.013-5.069,0c-.282,0-.391-.087-.389-.378q.014-2.557,0-5.114c0-.273.107-.357.367-.355C-1154.976-255.328-1154.109-255.335-1153.242-255.335Z" transform="translate(-3.276 -3.277)"/>
  </g>
</svg>
