<svg xmlns="http://www.w3.org/2000/svg" width="21.824" height="23.058" viewBox="0 0 21.824 23.058">
  <g id="digitalization" transform="translate(-13.691 0)">
    <path id="Path_156" data-name="Path 156" d="M340.84,414.753a.338.338,0,0,0-.334.342,2.5,2.5,0,0,1-.936,1.977.338.338,0,0,0-.127.264v1.454a.338.338,0,0,0,.676,0v-1.3a3.185,3.185,0,0,0,1.064-2.407A.338.338,0,0,0,340.84,414.753Z" transform="translate(-311.068 -396.057)" fill="#8e8e8e"/>
    <path id="Path_157" data-name="Path 157" d="M171.521,182.444V181.7a.943.943,0,0,1,.859.923l.012.83a.338.338,0,0,0,.676-.01l-.012-.83a1.621,1.621,0,0,0-1.611-1.593l-2.781-.005v-.781a3.173,3.173,0,1,0-2.594-5.775.338.338,0,0,0,.319.6,2.5,2.5,0,1,1,2.275,4.444v-1.745a1.151,1.151,0,1,0-2.3-.021v1.715a2.5,2.5,0,0,1-1.049-3.271.338.338,0,0,0-.609-.293,3.187,3.187,0,0,0,1.658,4.312v3.421l-.922-1.118a1.164,1.164,0,0,0-1.626-.134,1.152,1.152,0,0,0-.131,1.62l2.765,3.3v1.681a.338.338,0,0,0,.676,0v-1.8a.338.338,0,0,0-.079-.217l-2.845-3.4a.475.475,0,0,1,.721-.618l1.519,1.842a.341.341,0,0,0,.6-.215v-6.824a.479.479,0,0,1,.491-.475.49.49,0,0,1,.458.5v4.691a.338.338,0,0,0,.676,0v-.754h.752v.752a.338.338,0,0,0,.676,0v-.751h.752v.749a.338.338,0,0,0,.676,0Z" transform="translate(-142.971 -166.233)" fill="#8e8e8e"/>
    <path id="Path_158" data-name="Path 158" d="M34.317,9.826a1.2,1.2,0,0,0-1.149.86H29.557a4.959,4.959,0,0,0-1.036-2.711l1.111-1.111h1.737a1.425,1.425,0,1,0,0-.676H29.83V4.278a1.2,1.2,0,1,0-.676,0V6.385L28.07,7.47a4.953,4.953,0,0,0-3.126-1.408h-.013V2.8a1.425,1.425,0,1,0-.676,0V6.06a5,5,0,0,0-3.141,1.408L20.032,6.385V4.278a1.2,1.2,0,1,0-.676,0v1.91H17.821a1.425,1.425,0,1,0,0,.676h1.733l1.109,1.109a4.957,4.957,0,0,0-1.032,2.7s0,.009,0,.013h-3.6a1.2,1.2,0,1,0,0,.676h3.6a4.938,4.938,0,0,0,1.207,2.923,5.02,5.02,0,0,0,.846.775.338.338,0,0,0,.4-.548,4.3,4.3,0,1,1,6.8-3.186,4.293,4.293,0,0,1-.769,2.168.338.338,0,0,0,.553.389,4.969,4.969,0,0,0,.891-2.509s0-.009,0-.013h3.612a1.2,1.2,0,1,0,1.149-1.536Zm-15.145-6.7a.522.522,0,1,1,.521.522A.522.522,0,0,1,19.172,3.129ZM16.436,7.275a.749.749,0,1,1,.749-.749A.75.75,0,0,1,16.436,7.275Zm-1.554,4.271a.521.521,0,1,1,.521-.522A.522.522,0,0,1,14.882,11.546ZM23.844,1.418a.749.749,0,1,1,.749.749A.75.75,0,0,1,23.844,1.418Zm8.91,4.358A.749.749,0,1,1,32,6.525.75.75,0,0,1,32.753,5.776ZM28.971,3.129a.522.522,0,1,1,.521.522A.522.522,0,0,1,28.971,3.129Zm5.346,8.417a.521.521,0,1,1,.522-.522A.522.522,0,0,1,34.317,11.546Z" transform="translate(0 0)" fill="#8e8e8e"/>
  </g>
</svg>
