<svg xmlns="http://www.w3.org/2000/svg" width="19.659" height="19.302" viewBox="0 0 19.659 19.302">
  <g id="_97uKKx" data-name="97uKKx" transform="translate(-587.103 -259)">
    <g id="Group_122" data-name="Group 122" transform="translate(587.103 259)">
      <path id="Path_37" data-name="Path 37" d="M603.956,267.754v.154q0,4.79,0,9.58a1.346,1.346,0,0,1-.022.268.682.682,0,0,1-.61.539c-.061.005-.123.006-.184.006H590.731a1.325,1.325,0,0,1-.269-.018.693.693,0,0,1-.548-.695c0-.824,0-1.648,0-2.472q0-2.6,0-5.2a.7.7,0,0,1,1.4-.088c0,.057,0,.115,0,.172q0,3.363,0,6.727v.164h11.227c0-.04.007-.079.007-.118q0-5.19,0-10.379a.248.248,0,0,0-.073-.155q-2.223-2.229-4.451-4.453l-1.088-1.09c-.057.056-.109.106-.16.156q-4.209,4.208-8.415,8.418a.721.721,0,0,1-1.137-.052.7.7,0,0,1,.106-.909q.68-.685,1.365-1.366,3.84-3.839,7.679-7.68a.774.774,0,0,1,.511-.263.755.755,0,0,1,.6.256q1.293,1.3,2.59,2.592,3.208,3.208,6.418,6.415a.736.736,0,0,1,.258.669.673.673,0,0,1-.476.56.664.664,0,0,1-.713-.174c-.47-.463-.935-.932-1.4-1.4-.059-.06-.111-.127-.166-.191Z" transform="translate(-587.103 -259)" fill="#8e8e8e"/>
    </g>
  </g>
</svg>
