<?xml version="1.0" encoding="utf-8"?>
<!-- Generator: Adobe Illustrator 24.3.0, SVG Export Plug-In . SVG Version: 6.00 Build 0)  -->
<svg version="1.1" id="Layer_1" xmlns="http://www.w3.org/2000/svg" xmlns:xlink="http://www.w3.org/1999/xlink" x="0px" y="0px"
	 viewBox="0 0 130.9 34.5" style="enable-background:new 0 0 130.9 34.5;" xml:space="preserve">
<style type="text/css">
	.st0{fill-rule:evenodd;clip-rule:evenodd;fill:#009EE3;}
	.st1{fill-rule:evenodd;clip-rule:evenodd;fill:#113984;}
	.st2{fill-rule:evenodd;clip-rule:evenodd;fill:#172C70;}
</style>
<path class="st0" d="M16.2,9.6h8.1c4.4,0,6,2.2,5.8,5.5c-0.4,5.4-3.7,8.3-8,8.3H20c-0.6,0-1,0.4-1.1,1.5L17.9,31
	c-0.1,0.4-0.3,0.6-0.6,0.7h-5.1c-0.5,0-0.7-0.4-0.5-1.2l3.1-19.8C14.9,10,15.4,9.6,16.2,9.6z"/>
<path class="st1" d="M51.6,9.3c2.7,0,5.3,1.5,4.9,5.2c-0.4,4.4-2.8,6.9-6.5,6.9h-3.3c-0.5,0-0.7,0.4-0.8,1.2l-0.6,4
	c-0.1,0.6-0.4,0.9-0.9,0.9h-3c-0.5,0-0.7-0.3-0.5-1l2.5-16.1c0.1-0.8,0.4-1.1,1-1.1H51.6L51.6,9.3z M46.7,17.9h2.5
	c1.5-0.1,2.6-1.1,2.7-3.1c0.1-1.2-0.7-2-2-2l-2.3,0L46.7,17.9L46.7,17.9z M64.8,26.2c0.3-0.3,0.6-0.4,0.5-0.1l-0.1,0.7
	c-0.1,0.4,0.1,0.6,0.5,0.6h2.7c0.5,0,0.7-0.2,0.8-0.9l1.7-10.4c0.1-0.5,0-0.8-0.4-0.8h-3c-0.3,0-0.4,0.1-0.5,0.6l-0.1,0.6
	c-0.1,0.3-0.2,0.4-0.4,0.1c-0.5-1.2-1.8-1.7-3.6-1.7c-4.2,0.1-7,3.2-7.3,7.3c-0.2,3.1,2,5.6,5,5.6C62.8,27.8,63.7,27.2,64.8,26.2
	L64.8,26.2L64.8,26.2z M62.5,24.6c-1.8,0-3-1.4-2.8-3.2s1.9-3.2,3.7-3.2c1.8,0,3,1.4,2.8,3.2S64.3,24.6,62.5,24.6L62.5,24.6z
	 M76.1,15.3h-2.7c-0.6,0-0.8,0.4-0.6,0.9l3.4,9.9l-3.3,4.7c-0.3,0.4-0.1,0.8,0.3,0.8h3.1c0.4,0,0.7-0.1,0.9-0.4l10.4-15
	c0.3-0.5,0.2-0.9-0.4-0.9h-2.9c-0.5,0-0.7,0.2-1,0.6L79,22.2L77,15.9C76.9,15.5,76.6,15.3,76.1,15.3L76.1,15.3z"/>
<path class="st0" d="M98.4,9.3c2.7,0,5.3,1.5,4.9,5.2c-0.4,4.4-2.8,6.9-6.5,6.9h-3.3c-0.5,0-0.7,0.4-0.8,1.2l-0.6,4
	c-0.1,0.6-0.4,0.9-0.9,0.9h-3c-0.5,0-0.7-0.3-0.5-1l2.5-16.1c0.1-0.8,0.4-1.1,1-1.1L98.4,9.3L98.4,9.3z M93.5,17.9H96
	c1.5-0.1,2.6-1.1,2.7-3.1c0.1-1.2-0.7-2-2-2l-2.3,0L93.5,17.9L93.5,17.9z M111.6,26.2c0.3-0.3,0.6-0.4,0.5-0.1l-0.1,0.7
	c-0.1,0.4,0.1,0.6,0.5,0.6h2.7c0.5,0,0.7-0.2,0.8-0.9l1.7-10.4c0.1-0.5,0-0.8-0.4-0.8h-3c-0.3,0-0.4,0.1-0.5,0.6l-0.1,0.6
	c-0.1,0.3-0.2,0.4-0.4,0.1c-0.5-1.2-1.8-1.7-3.6-1.7c-4.2,0.1-7,3.2-7.3,7.3c-0.2,3.1,2,5.6,5,5.6C109.6,27.8,110.5,27.2,111.6,26.2
	L111.6,26.2L111.6,26.2z M109.4,24.6c-1.8,0-3-1.4-2.8-3.2c0.3-1.7,1.9-3.2,3.7-3.2c1.8,0,3,1.4,2.8,3.2S111.2,24.6,109.4,24.6
	L109.4,24.6z M121.8,27.5h-3.1c-0.2,0-0.4-0.1-0.4-0.4c0,0,0,0,0-0.1L121,9.7c0.1-0.2,0.3-0.4,0.5-0.4h3.1c0.2,0,0.4,0.1,0.4,0.4
	c0,0,0,0,0,0.1L122.3,27C122.3,27.3,122,27.5,121.8,27.5L121.8,27.5z"/>
<path class="st1" d="M11.1,2.8h8.2c2.3,0,5,0.1,6.8,1.7c1.2,1.1,1.9,2.8,1.7,4.6c-0.5,6.2-4.2,9.7-9.2,9.7h-4
	c-0.7,0-1.1,0.5-1.3,1.7l-1.1,7.1c-0.1,0.5-0.3,0.7-0.6,0.8h-5c-0.6,0-0.8-0.4-0.6-1.3L9.5,4.2C9.7,3.3,10.2,2.8,11.1,2.8z"/>
<path class="st2" d="M13.4,19.8l1.4-9c0.1-0.8,0.6-1.2,1.4-1.2h8.1c1.3,0,2.4,0.2,3.3,0.6c-0.8,5.5-4.4,8.6-9.1,8.6h-4
	C14,18.8,13.6,19.1,13.4,19.8z"/>
</svg>
