<svg xmlns="http://www.w3.org/2000/svg" width="17.089" height="21" viewBox="0 0 17.089 21">
  <g id="_3PVY1B" data-name="3PVY1B" transform="translate(1879.324 1215.418)">
    <g id="Group_155" data-name="Group 155" transform="translate(-1879.324 -1215.418)">
      <path id="Path_56" data-name="Path 56" d="M-1864.1-1194.418h-12.227c-1.667-.457-2.023-1.7-1.854-3.2-.854-.127-1.13-.378-1.133-1.024q-.009-2.659,0-5.318a.86.86,0,0,1,.837-.93c.087-.012.173-.031.282-.049v-.533q0-3.8,0-7.6a2.7,2.7,0,0,1,.058-.6,2.32,2.32,0,0,1,1.808-1.738h8.867a3.6,3.6,0,0,0,.277.353c1.552,1.55,3.112,3.092,4.652,4.653a1.075,1.075,0,0,1,.289.673q.025,6.486.01,12.973a2.742,2.742,0,0,1-.053.554A2.34,2.34,0,0,1-1864.1-1194.418Zm-12.722-3.252c-.013.194-.026.316-.027.439-.016,1.241.183,1.445,1.412,1.445h10.635c.956,0,1.217-.261,1.214-1.217q-.021-6.088-.047-12.175c0-.132-.021-.264-.034-.414-.926,0-1.81.006-2.694,0a1.513,1.513,0,0,1-1.666-1.68c0-.913,0-1.826,0-2.773-.2-.009-.349-.024-.5-.024q-3.592.01-7.183.023c-.855,0-1.136.292-1.136,1.16q0,3.732,0,7.463c0,.166.016.331.026.529h.6q4.968,0,9.936,0c.775,0,1.069.3,1.07,1.072q0,2.519,0,5.038c0,.829-.288,1.115-1.122,1.116h-10.484Zm3.134-1.528a16.613,16.613,0,0,0,2.181-.267,1.629,1.629,0,0,0,1.152-1.764,1.592,1.592,0,0,0-1.076-1.714,5.124,5.124,0,0,0-2.258-.093Zm-3.25-3.853v3.734h.847v-1.272c.31-.035.574-.048.83-.1a1.21,1.21,0,0,0,1.024-1.207,1.049,1.049,0,0,0-.943-1.141A12.772,12.772,0,0,0-1876.943-1203.051Zm7.189-.029v3.776h.831v-1.5h1.327v-.721h-1.288v-.843h1.385v-.711Z" transform="translate(1879.324 1215.418)"/>
      <path id="Path_57" data-name="Path 57" d="M-1870.975-1196.316v-2.465a1.185,1.185,0,0,1,1.272.339,1.405,1.405,0,0,1,.1,1.54C-1869.866-1196.372-1870.372-1196.278-1870.975-1196.316Z" transform="translate(1877.503 1211.799)"/>
      <path id="Path_58" data-name="Path 58" d="M-1875.175-1197.58v-1.4a4.132,4.132,0,0,1,.888.4.548.548,0,0,1,0,.536A4.284,4.284,0,0,1-1875.175-1197.58Z" transform="translate(1878.419 1211.831)"/>
    </g>
  </g>
</svg>
