<svg xmlns="http://www.w3.org/2000/svg" width="42.91" height="57.271" viewBox="0 0 42.91 57.271">
  <g id="Group_62" data-name="Group 62" transform="translate(2554.999 -614.563)">
    <path id="Path_260" data-name="Path 260" d="M-2533.56,747.243h-13.877a7.507,7.507,0,0,1-6.951-4.676,8.525,8.525,0,0,1-.563-4.129,23.038,23.038,0,0,1,2.3-8.054,21.9,21.9,0,0,1,3.53-5.123,19.956,19.956,0,0,1,3.89-3.327,6.742,6.742,0,0,1,5-1.03c1.24.231,2.457.582,3.683.884a11.1,11.1,0,0,0,4.7.232c1.443-.266,2.865-.651,4.293-1a7.138,7.138,0,0,1,5.978,1.093,21.606,21.606,0,0,1,6.838,7.7,22.248,22.248,0,0,1,2.111,5.636,18.264,18.264,0,0,1,.535,4.3,7.626,7.626,0,0,1-5.656,7.237,8.967,8.967,0,0,1-2.034.243C-2524.374,747.253-2528.967,747.243-2533.56,747.243Zm.045-2.033h13.68a5.4,5.4,0,0,0,2.173-.376,5.686,5.686,0,0,0,3.531-4.739,9.809,9.809,0,0,0-.248-3.116,20.583,20.583,0,0,0-1.8-5.5,19.953,19.953,0,0,0-6.659-7.745,5,5,0,0,0-3.929-.8c-1.226.243-2.423.624-3.64.915a13.917,13.917,0,0,1-3.961.329,26.7,26.7,0,0,1-5.394-1.117,5.185,5.185,0,0,0-4.3.567,18.753,18.753,0,0,0-4.9,4.663,19.168,19.168,0,0,0-3.226,6.584c-.309,1.175-.522,2.378-.722,3.578a5.732,5.732,0,0,0,.248,2.936,5.631,5.631,0,0,0,5.505,3.833C-2542.613,745.181-2538.064,745.21-2533.514,745.21Z" transform="translate(0 -75.411)" fill="#fff"/>
    <path id="Path_261" data-name="Path 261" d="M-2501.761,628.942a14.342,14.342,0,0,1-13.825,14.36,14.369,14.369,0,0,1-14.793-14.583,14.354,14.354,0,0,1,15-14.142A14.32,14.32,0,0,1-2501.761,628.942Zm-13.936-12.336a12.306,12.306,0,0,0-12.654,12.136,12.277,12.277,0,0,0,12.227,12.533,12.253,12.253,0,0,0,12.344-12.287A12.291,12.291,0,0,0-2515.7,616.607Z" transform="translate(-17.478 0)" fill="#fff"/>
  </g>
</svg>
