<svg height='300px' width='300px'  fill="#FFFFFF" xmlns="http://www.w3.org/2000/svg" data-name="Layer 3" viewBox="0 0 64 64" x="0px" y="0px"><path d="M62,19.585,60.414,18a3.5,3.5,0,0,0-4.829,0l-1.293,1.292-17,17a1,1,0,0,0-.2.3l-.005,0-.289.651L33,36.231V32.758l1.135-.967A10.981,10.981,0,0,0,38,23.415V23h1a3,3,0,0,0,0-6h-.268L40.1,14.6a6.775,6.775,0,0,0-.245-7.132,14.432,14.432,0,0,0-23.61-.658,6.223,6.223,0,0,0-.587,6.53L17.476,17H17a3,3,0,1,0,0,6h1v.4a10.984,10.984,0,0,0,3.841,8.352L23,32.745v3.486l-9.659,2.576A16.624,16.624,0,0,0,1,54.87V62a1,1,0,0,0,1,1H54a1,1,0,0,0,1-1V54.87a16.528,16.528,0,0,0-8.807-14.649L60.707,25.707,62,24.414a3.415,3.415,0,0,0,0-4.829Zm-7,1.829L56.085,22.5,40.5,38.085,39.414,37ZM38.322,38.736l2.941,2.941-1.5.668-2.106-2.106ZM37.8,43.215l-1.831.814.814-1.831ZM39,19a1,1,0,0,1,0,2H38V19ZM18,21H17a1,1,0,1,1,0-2h1Zm-.555-8.549a4.236,4.236,0,0,1,.4-4.443,12.433,12.433,0,0,1,20.342.568,4.784,4.784,0,0,1,.172,5.037l-.587,1.031A7.034,7.034,0,0,0,34.6,10.4L32.514,9.142a1,1,0,0,0-1.222.15l-.649.649A6.976,6.976,0,0,1,25.675,12a9.086,9.086,0,0,0-5.416,1.8L18.7,14.973ZM20,23.4V16.5l1.459-1.1A7.072,7.072,0,0,1,25.675,14a8.965,8.965,0,0,0,6.383-2.645l.1-.1,1.419.851A5.023,5.023,0,0,1,36,16.4l0,7.019a8.986,8.986,0,0,1-3.165,6.853L30.87,31.944a4.531,4.531,0,0,1-5.742-.009l-1.986-1.7A8.992,8.992,0,0,1,20,23.4ZM29.464,44H26.535l-1.473-2.211.57-2.855,1.92.96a1,1,0,0,0,.894,0l1.92-.961.572,2.857Zm.255,4H26.28l.5-2h2.439ZM28,37.881l-3-1.5V34.232a6.267,6.267,0,0,0,6,.005v2.144ZM11,61H3V54.87A14.625,14.625,0,0,1,13.856,40.739l9.9-2.641-.741,3.7a1.006,1.006,0,0,0,.148.751l1.755,2.632L24.219,48H14a3,3,0,0,0-3,3Zm14.184,0a2.982,2.982,0,0,1,5.631,0ZM43,61H32.9a5,5,0,0,0-9.8,0H13V51a1,1,0,0,1,1-1H42a1,1,0,0,1,1,1Zm6.382-15.76A14.624,14.624,0,0,1,53,54.87V61H45V51a3,3,0,0,0-3-3H31.78l-.7-2.814,1.755-2.631a1,1,0,0,0,.149-.751L32.239,38.1l3.735,1-2.888,6.5a1,1,0,0,0,1.32,1.32l9-4,0,0a1,1,0,0,0,.3-.2l1-1A14.7,14.7,0,0,1,49.381,45.24ZM43,40.585,41.914,39.5,57.5,23.914,58.585,25ZM60.585,23,60,23.585,56.414,20,57,19.414a1.448,1.448,0,0,1,2,0L60.585,21a1.412,1.412,0,0,1,0,2Z"></path></svg>