<svg xmlns="http://www.w3.org/2000/svg" width="96.961" height="88.026" viewBox="0 0 96.961 88.026">
  <g id="uqzg83" transform="translate(3323.785 1058.25)">
    <g id="Group_82" data-name="Group 82" transform="translate(-3323.785 -1058.25)">
      <path id="Path_294" data-name="Path 294" d="M-3323.655-920.414a3.207,3.207,0,0,1-.128-.637c0-3.744-.013-7.488.026-11.231a4.314,4.314,0,0,1,4.147-4.273c2.005-.061,4.014-.052,6.02-.033a.839.839,0,0,0,.9-.552,28.584,28.584,0,0,1,9.591-11.313,1.037,1.037,0,0,0,.493-1.044c-.164-2.02-.224-4.052-.462-6.062-.372-3.141-.853-6.269-1.3-9.4a1.5,1.5,0,0,1,1.841-1.8,22.464,22.464,0,0,1,10.772,6.04,16.67,16.67,0,0,1,3.336,4.854.877.877,0,0,0,1.221.6c1.022-.239,2.071-.358,3.107-.54a.786.786,0,0,1,.991.5c.333.736.745,1.436,1.14,2.184-1.466.23-2.9.439-4.337.687-.745.129-1.479.33-2.218.492a1.4,1.4,0,0,1-1.779-.9,16.52,16.52,0,0,0-5.793-7.775,18.088,18.088,0,0,0-4.974-2.56c.052.386.1.687.131.99.291,2.6.609,5.2.86,7.806.188,1.944.281,3.9.428,5.846a1.941,1.941,0,0,1-.955,1.919,26.013,26.013,0,0,0-9.989,11.956,1.445,1.445,0,0,1-1.465,1.009c-2.277-.012-4.555-.006-6.833,0-1.485.006-2,.537-2,2.016q0,5.543,0,11.085c0,1.567.484,2.071,2,2.073,2.645,0,5.291.019,7.935-.007a1.859,1.859,0,0,1,1.8,1.009,27.946,27.946,0,0,0,10.855,10.386c.492.277.985.551,1.482.817a1.41,1.41,0,0,1,.9,1.742c-.339,1.719-.751,3.424-1.123,5.137-.241,1.109-.5,2.216-.679,3.335a1.422,1.422,0,0,0,1.454,1.727c1.959.03,3.918.026,5.877,0,.873-.01,1.3-.417,1.524-1.416.413-1.807.8-3.62,1.193-5.432.251-1.157.761-1.52,1.937-1.388,1.9.213,3.788.468,5.688.613a42.92,42.92,0,0,0,13.4-1.221,1.487,1.487,0,0,1,2.024,1.315q.639,2.973,1.3,5.94c.292,1.295.667,1.6,1.973,1.609q2.64.016,5.28-.009a1.534,1.534,0,0,0,1.6-2.06q-1.022-4.6-2.044-9.2a1.714,1.714,0,0,1,.962-2.276,28.82,28.82,0,0,0,7.423-6.464,20.564,20.564,0,0,0,4.833-14.933,20.733,20.733,0,0,0-4.444-11.06,29.507,29.507,0,0,0-7.546-6.821c.758-.572,1.457-1.123,2.188-1.627a.654.654,0,0,1,.588.056c5.8,4.032,10.032,9.231,11.682,16.309.24,1.031.353,2.091.55,3.291l3.106-1.458c-.431-.684-.846-1.263-1.178-1.886a5.9,5.9,0,0,1-.657-5.185,4.247,4.247,0,0,1,3.8-2.818,4.342,4.342,0,0,1,4.055,1.8,5.49,5.49,0,0,1-.42,7.422c-.333.362-.675.716-1.113,1.18.928.81,1.829,1.628,2.764,2.4.775.643,1.6,1.231,2.388,1.854a1.45,1.45,0,0,1,.409,2.08,1.4,1.4,0,0,1-2.118.287c-1.025-.762-2.044-1.535-3.028-2.35s-1.917-1.685-2.785-2.453c-1.721.731-3.387,1.429-5.04,2.158a.7.7,0,0,0-.282.507,24.43,24.43,0,0,1-7.755,15.57,61.833,61.833,0,0,1-4.843,3.96.876.876,0,0,0-.394,1.045c.581,2.5,1.142,5.007,1.658,7.522a4.771,4.771,0,0,1-.547,4.117,4.745,4.745,0,0,1-3.812,2.033c-1.811.038-3.623.01-5.435,0a4.589,4.589,0,0,1-4.693-3.958c-.264-1.334-.608-2.653-.852-3.991-.106-.583-.313-.707-.878-.594a46.859,46.859,0,0,1-11.68.936c-1.779-.094-3.552-.31-5.46-.483-.236,1.086-.494,2.209-.722,3.339a6.239,6.239,0,0,1-1.474,3.408,4.493,4.493,0,0,1-3.244,1.339c-1.885.029-3.771.021-5.657,0a4.262,4.262,0,0,1-4.393-4.673,56.822,56.822,0,0,1,1.042-5.683c.126-.655.323-1.3.41-1.958a.824.824,0,0,0-.31-.67,33.882,33.882,0,0,1-9.639-7.9c-.738-.923-1.375-1.927-2.109-2.852a1.3,1.3,0,0,0-.869-.463c-2.032-.04-4.065-.016-6.1-.027a5.887,5.887,0,0,1-.852-.127Zm90.854-15.042a8.705,8.705,0,0,0-.539-1.233,1.756,1.756,0,0,0-2.187-.677,1.541,1.541,0,0,0-.777,1.88,22.688,22.688,0,0,0,1.342,2.841c.061.117.441.22.514.153A4.024,4.024,0,0,0-3232.8-935.456Z" transform="translate(3323.785 979.318)" fill="#fff"/>
      <path id="Path_295" data-name="Path 295" d="M-3039.232-1043.075a15.2,15.2,0,0,1,15.28-15.175,15.261,15.261,0,0,1,15.2,15.223,15.269,15.269,0,0,1-15.266,15.276A15.2,15.2,0,0,1-3039.232-1043.075Zm15.249-12.456a12.51,12.51,0,0,0-12.535,12.487,12.491,12.491,0,0,0,12.526,12.571,12.455,12.455,0,0,0,12.5-12.517A12.522,12.522,0,0,0-3023.983-1055.531Z" transform="translate(3082.531 1058.25)" fill="#fff"/>
      <path id="Path_296" data-name="Path 296" d="M-3016.413-626.011c-.389,0-.754.007-1.118,0a1.3,1.3,0,0,1-1.422-1.318,1.382,1.382,0,0,1,1.435-1.4c2.4-.2,4.824-.284,7.188-.7a27.657,27.657,0,0,0,11.91-4.978,38.034,38.034,0,0,0,3.269-2.887c.689-.651,1.459-.8,2.036-.27a1.362,1.362,0,0,1,0,2.061,24.1,24.1,0,0,1-5.753,4.673A36.157,36.157,0,0,1-3016.413-626.011Z" transform="translate(3065.031 700.389)" fill="#fff"/>
      <path id="Path_297" data-name="Path 297" d="M-3023.51-846.755a19.969,19.969,0,0,1-12.85-5.45c-.152-.137-.293-.286-.435-.433a1.379,1.379,0,0,1-.123-1.951,1.406,1.406,0,0,1,1.971-.033c.789.65,1.54,1.355,2.375,1.939a17.66,17.66,0,0,0,11.134,3.189,18.538,18.538,0,0,0,5.52-1.133,1.347,1.347,0,0,1,1.8.741,1.286,1.286,0,0,1-.746,1.74A21.864,21.864,0,0,1-3023.51-846.755Z" transform="translate(3080.388 885.107)" fill="#fff"/>
      <path id="Path_298" data-name="Path 298" d="M-3177.56-796.217a4.141,4.141,0,0,1-4.1-4.156,4.194,4.194,0,0,1,4.155-4.128,4.157,4.157,0,0,1,4.116,4.22A4.087,4.087,0,0,1-3177.56-796.217Zm1.459-4.124a1.368,1.368,0,0,0-1.45-1.385,1.35,1.35,0,0,0-1.375,1.387,1.43,1.43,0,0,0,1.449,1.4A1.409,1.409,0,0,0-3176.1-800.341Z" transform="translate(3202.692 842.081)" fill="#fff"/>
      <path id="Path_299" data-name="Path 299" d="M-2820.493-711.064a15.171,15.171,0,0,1-1.2,5.486,1.347,1.347,0,0,1-1.76.846,1.32,1.32,0,0,1-.774-1.793,14.826,14.826,0,0,0,1.056-5.174,1.3,1.3,0,0,1,1.31-1.225,1.351,1.351,0,0,1,1.362,1.179A5.458,5.458,0,0,1-2820.493-711.064Z" transform="translate(2897.959 764.066)" fill="#fff"/>
      <path id="Path_300" data-name="Path 300" d="M-3323.63-654.958l4.362,4.37a3.64,3.64,0,0,1-3.676-1.552A3.174,3.174,0,0,1-3323.63-654.958Z" transform="translate(3323.751 714.459)" fill="#fff"/>
      <path id="Path_301" data-name="Path 301" d="M-2963.584-1009.087a3,3,0,0,0-1.9,2.667,1.694,1.694,0,0,0,.9,1.7c1.368.719,2.759,1.4,4.112,2.142a9.342,9.342,0,0,1,2.026,1.364,4.926,4.926,0,0,1,.257,6.385,5.514,5.514,0,0,1-6.107,2.079,5.423,5.423,0,0,1-3.888-4.984c-.026-1.01.4-1.573,1.235-1.615.872-.045,1.4.49,1.478,1.493a2.736,2.736,0,0,0,2.917,2.619,2.823,2.823,0,0,0,2.677-2.893,1.932,1.932,0,0,0-1.3-1.748c-1.252-.65-2.526-1.256-3.775-1.911-1.413-.741-2.769-1.576-3.11-3.306a5.421,5.421,0,0,1,1.863-5.523,3.126,3.126,0,0,1,.764-.354Z" transform="translate(3020.963 1017.436)" fill="#fff"/>
      <path id="Path_302" data-name="Path 302" d="M-2946.131-1014.755l-1.854-1.885a2.478,2.478,0,0,1,.541-.439,5.509,5.509,0,0,1,7.722,4.866,1.369,1.369,0,0,1-1.217,1.536,1.368,1.368,0,0,1-1.466-1.131C-2942.85-1014.265-2943.567-1014.831-2946.131-1014.755Z" transform="translate(3003.596 1023.104)" fill="#fff"/>
    </g>
  </g>
</svg>
