<?xml version="1.0" encoding="utf-8"?>
<!-- Generator: Adobe Illustrator 24.3.0, SVG Export Plug-In . SVG Version: 6.00 Build 0)  -->
<svg version="1.1" xmlns="http://www.w3.org/2000/svg" xmlns:xlink="http://www.w3.org/1999/xlink" x="0px" y="0px"
	 viewBox="0 0 1122 481.9" style="enable-background:new 0 0 1122 481.9;" xml:space="preserve">
<style type="text/css">
	.st0{fill:#FFFFFF;}
</style>
<g id="BG">
</g>
<g id="Color">
	<g>
		<path class="st0" d="M705.2,249c-0.1-0.1-0.3-0.1-0.4-0.1c-0.4-1.4-0.9-2.8-1.3-4.2c15.6,5.2,30.1,12.7,44.8,19.9
			c3,1.5,6.1,3,9.2,4.4c-1.6,1.3-3.2,2.7-4.8,4c-7.7-5-15.9-8.8-24.2-12.6C720.6,256.8,713.1,252.5,705.2,249z"/>
		<path class="st0" d="M746.2,278.3c-1.6,1.3-3.2,2.6-4.8,3.8c-5.5-2.3-10.6-5.3-16.2-7.4c-4.8-1.8-9.5-4.9-14.6-5.6
			c-0.6-2.2-1.2-4.4-1.8-6.6c5.7,2.8,11.9,5.1,17.7,7.8C732.9,273.3,739.5,276,746.2,278.3z"/>
		<path class="st0" d="M637,146.3c14.5-6.3,29.9-9.3,45.4-12.4c16.5-3.3,32.7-8.2,48.8-12.9c32.8-9.6,65.5-19.5,98.6-28.2
			c12.2-3.2,24.4-6.4,36.6-9.5c4.8,2.7,9.7,5.1,14.7,6.8c1.2,0.4,2-1.5,0.8-2c-3.7-1.6-7-3.9-10.3-6.1c1.4-0.3,2.7-0.7,4.1-1
			c2.7,1.4,5.4,2.7,7.9,4.3c1.3,0.8,2.3-1.2,1.1-2c-1.6-1.1-3.3-2.2-4.9-3.4c16.6-4.2,33.2-8.4,49.7-12.8
			c15.9-4.1,31.7-8.7,47.3-13.7c14.3-4.6,29.2-11,44.3-12c-19.1,4.2-44.3,17.7-64,28.2c-23.8,12.6-47.8,24.9-71.9,36.9
			c-2.3-0.6-5.1-0.5-7.4-0.6c-0.9,0-1,1.3-0.1,1.4c1.3,0.1,2.7,0.3,4,0.5c0.2,0,0.4,0.1,0.6,0.1c-1.3,0.6-2.6,1.3-3.9,1.9
			c-2.8-0.2-5.5-0.6-8.2-1.4c-1-0.3-1.4,1.2-0.5,1.5c1.9,0.6,3.8,1,5.8,1.3c-1.1,0.6-2.2,1.1-3.4,1.7c-4.5-0.4-9-0.8-13.5-1.2
			c-0.7-0.1-0.8,1-0.1,1.1c3.5,0.5,7,1.1,10.5,1.5c-1.1,0.6-2.3,1.1-3.4,1.7c-0.6,0.3-1.2,0.6-1.8,0.9c-6.5-0.8-13-2-19.6-2.8
			c-0.7-0.1-0.8,1-0.1,1.1c5.6,0.9,11.2,2.4,16.8,3.1c-1.9,1-3.9,1.9-5.8,2.9c-6.7-1.5-13.7-2.1-20.4-3.2c-0.7-0.1-0.9,1-0.2,1.2
			c5.9,1.1,11.8,2.5,17.8,3.4c-1.5,0.7-3,1.5-4.5,2.2c-8.2-1.1-16.3-2.6-24.4-3.9c-0.9-0.2-0.9,1.3-0.1,1.4
			c7.2,1.3,14.4,2.8,21.7,3.9c-1.7,0.8-3.4,1.7-5.2,2.5c-9.3-1.5-18.7-2.5-27.9-5c-1-0.3-1.4,1.2-0.5,1.5c8.3,2.3,16.8,3.7,25.3,5
			c-2.1,1.1-4.3,2.1-6.4,3.2c-10.3-2.1-20.7-4.9-31.1-6.1c-0.7-0.1-0.8,1-0.1,1.1c9.5,1.5,18.7,4.5,28.1,6.5c-2.1,1-4.2,2.1-6.4,3.1
			c-0.1,0-0.1-0.1-0.2-0.1c-5.6-1.8-11.7-2.6-17.4-4c-5.4-1.3-10.8-2.4-16.4-2.5c-0.7,0-0.8,1.1-0.1,1.1c10.8,0.5,21,4.7,31.5,6.8
			c-1.8,0.9-3.7,1.8-5.5,2.7c-12.4-1.9-24.9-5.4-37.4-6.1c-0.3,0-0.4,0.4-0.1,0.5c10.9,3.4,22.7,5.8,34.2,7.2
			c-2.7,1.3-5.5,2.6-8.2,4c-12.5-2.4-25.1-3.9-37.5-6.5c-0.5-0.1-0.8,0.6-0.3,0.8c11,3.6,23,5.9,34.6,7.2c-2.5,1.2-5.1,2.4-7.6,3.7
			c-11.9-2-23.7-4.5-35.7-5.9c-0.3,0-0.4,0.5-0.1,0.6c10.9,2.1,21.8,4.7,32.7,6.8c-2.1,1-4.2,2-6.3,3c-5.5-1-11-2.4-16.6-3.2
			c-6.3-0.9-12.7-1.6-18.9-3.3c-0.5-0.1-0.7,0.5-0.2,0.7c6.2,2.1,12.5,3.3,19,4.4c4.6,0.7,9.1,1.9,13.7,2.8
			c-2.9,1.4-5.9,2.8-8.8,4.2c-10.5-1.8-21-3.4-31.4-5.4c-0.6-0.1-1,0.8-0.3,1c6.7,2.2,14,2.7,20.9,4c2.7,0.5,5.4,1.1,8.1,1.7
			c-28.9,13.5-58,26.3-87.8,38c-0.3,0.1-0.6,0.3-0.9,0.5c-12.5-19.7-32.6-34.3-42.1-55.9C636.2,146.5,636.6,146.5,637,146.3z
			 M702.8,188.4c-3.5-4.3-6.5-9-10.1-13.3c-0.5-0.6-1.6,0.3-1.1,0.9c2,2.6,3.8,5.3,5.7,7.9c1.5,1.9,2.5,4.2,4.1,6
			C702.2,190.8,703.6,189.3,702.8,188.4z M698.7,190.8c-2.2-4.8-6.7-8.9-10-13c-1-1.3-3.8-5.9-5.6-6.1c-0.1,0-0.2,0.1-0.2,0.2
			c3.3,7.4,10.4,12.8,14,20C697.5,193.2,699.2,192.1,698.7,190.8z M695.4,191.6c-2-4.2-6-7.8-9.2-11.2c-3.8-4.1-7.9-7.9-12.2-11.6
			c-0.7-0.6-1.7,0.4-1,1.1c4,3.9,8.1,7.8,11.7,12.1c2.9,3.4,6.5,6.9,8.7,10.8C694.2,194.1,696,192.9,695.4,191.6z M690.2,194.7
			c-4.4-6.1-8.7-12.1-13.8-17.7c-3-3.3-7.5-9.7-12-10.8c-0.3-0.1-0.6,0.3-0.3,0.5c9.7,7.6,16.9,19.4,24,29.3
			C689,197.2,691.1,196,690.2,194.7z M686,195.9c-7.7-12.5-18.7-23-29-33.1c-0.6-0.6-1.4,0.3-0.9,0.9c9.8,10.6,20.2,21.2,28,33.4
			C684.8,198.3,686.7,197.1,686,195.9z M648.3,160.3c3.8,6.6,9.9,11.7,14.9,17.5c5.7,6.6,11.6,14.1,16,21.7c0.8,1.3,2.8,0.1,2-1.2
			c-3.7-6.3-8.6-12.7-13.3-18.3c-5.9-6.9-13.5-12.8-18.5-20.3C649,159,647.9,159.6,648.3,160.3z"/>
		<path class="st0" d="M710.8,240.6c10.8-4.9,20.8-11.8,30.4-18.6c13.5-9.6,27.2-18.9,41.2-27.8c26.8-17,54.8-31.4,82.4-46.8
			c28.3-15.8,55.6-33.3,82.5-51.3c24.4-16.4,49.6-32.2,73.5-49.4c-13.7,20.5-29.1,39.8-42,60.9c-14.6,24-29.4,47.9-43.3,72.3
			c-13.1,23.1-26.6,46.3-38.1,70.2c-5.6,11.6-10,23.4-14.3,35.4c-3.9,10.8-6.5,22.2-12.3,32.2c-10.1-7.4-21.7-12.5-33-17.7
			c-14.8-6.8-29.4-13.9-44.1-20.9c-15.6-7.4-31.4-14.4-46.8-22.1C735,251,723.2,245.2,710.8,240.6z M955.4,97.9
			c18.1-9.6,33.4-23.2,50.6-34.3c1.9-1.2,0.1-4.3-1.9-3.1c-17.1,11.1-32,25.6-49.6,35.9C953.5,96.9,954.4,98.4,955.4,97.9z
			 M771.9,263.3c-9.4-4.7-19.1-8.9-28.5-13.7c-6.5-3.3-12.6-7.2-19.3-10c15.8-7.6,28.8-20.1,43.1-29.9c0.8-0.6,0.1-1.7-0.8-1.3
			c-16.9,8.2-30.1,23.2-47.8,30c-2,0.8-1,4,0.9,3.2c0.3-0.1,0.7-0.3,1-0.4c0.2,0.4,0.5,0.8,1.1,1c8.7,3.2,16.7,8.4,25.2,12.2
			c8.1,3.7,16.3,7,24.6,10.2C772.2,265,772.7,263.7,771.9,263.3z"/>
		<path class="st0" d="M740.1,283.2c-1.6,1.3-3.1,2.5-4.6,3.8c-0.1,0-0.1,0.1-0.2,0.2c-7.6-2.6-15.3-6.1-22.6-9.6
			c-0.3-1.6-0.7-3.1-1.1-4.7c5,1.3,10.2,3.8,15,5.5C731,279.9,735.5,281.8,740.1,283.2z"/>
		<path class="st0" d="M751.5,274c-1.4,1.2-2.8,2.3-4.3,3.5c-13.5-5.3-26.6-12.6-39.4-19.2c-0.1,0-0.2-0.1-0.2-0.1
			c-0.5-1.7-1-3.3-1.5-5c7.8,3.6,15.3,7.8,23.2,11C736.8,267.2,744.3,270.2,751.5,274z"/>
		<path class="st0" d="M680.7,208.3c31-10.3,60.9-24.7,90.3-38.8c30.2-14.6,60.3-29.5,90.3-44.5c30.9-15.5,61.5-31.5,91.8-48.2
			c11.3-6.2,24.2-10.9,35.2-17.3c8.7-5.1,16.4-10,25.9-13.8c-24,14-46.8,30.5-70,45.5c-26.5,17.1-53.1,34.1-80.6,49.4
			C836,155.9,807.9,170,781,186.9c-14,8.8-27.8,18-41.3,27.5c-11.6,8.1-24,17.1-37.4,21.8c-0.8,0.3-1.3,0.7-1.7,1.2
			c-2.5,0.7-3.1,5-0.1,6.1c1.9,10.1,3.6,20.2,5.2,30.3c-2.8-6-5.6-11.9-8.2-17.8c-6.8-15.6-13.2-31.2-18.1-47.4
			c0.1-0.1,0.1-0.2,0.2-0.3C680,208.5,680.3,208.4,680.7,208.3z"/>
		<path class="st0" d="M733.3,288.9c-1.5,1.4-2.9,2.9-4.3,4.4c-4.9-2.1-9.7-4.2-14.5-6.3c-0.3-1.8-0.6-3.5-1-5.3
			c3.2,1.3,6.5,2.3,9.7,3.6C726.5,286.7,729.8,288.1,733.3,288.9z"/>
		<path class="st0" d="M718,303.6c-0.6-1.9-1.3-3.7-2-5.6c1.9,1,4,1.8,6,2.5C720.8,301.6,719.5,302.6,718,303.6z"/>
		<path class="st0" d="M727.2,295.3c-1,1.1-2,2.2-3.1,3.3c-3.1-1.2-5.8-3-8.7-4.6c-0.1-1-0.2-1.9-0.4-2.9c1.8,0.7,3.7,1.2,5.5,1.9
			C722.8,293.7,725,294.6,727.2,295.3z"/>
	</g>
</g>
<g id="Stroke">
	<g>
		<path d="M713.4,309c-1.2,0.1-2.4-0.5-2.6-2c-0.3-2.2-0.7-4.3-1-6.5c-5.6-13.4-10.7-27.1-16.3-40.5c-6.8-16.2-13.1-32.8-16.8-50
			c-0.8-0.1-1.5-0.5-2-1.4c-13.3-23.4-37.2-39.7-45-66.4c-0.7-2.5,2.8-3.9,3.9-1.9c0.4-0.4,0.8-0.8,1.4-1c14.5-6.2,30-9.3,45.4-12.3
			c16.5-3.3,32.7-8.1,48.9-12.8c33.7-9.7,67.3-19.7,101.3-28.5c9.3-2.4,18.7-4.8,28-7.1c-0.5-0.3-1-0.6-1.4-0.9
			c-2.1-1.3-0.4-4.1,1.8-3.2c1.8,0.8,3.6,1.7,5.3,2.7c1-0.2,2-0.5,3-0.7c-2.1-1.2-4.1-2.5-6-4.1c-1.4-1.2,0.3-3.3,1.9-2.5
			c3.1,1.6,6.2,3.4,9.3,5.3c19.3-4.8,38.6-9.5,57.9-14.2c15.9-3.9,31.7-8.4,47.5-12.9c14.6-4.1,30.6-10.7,46-8.6
			c0.4,0,0.5,0.3,0.6,0.6c0.6,0,1.1,0.2,1.4,0.6c0.9,0.2,1.5,1.1,1,2.2c-10.8,23.3-28.9,42.8-42,64.8
			c-14.4,24.2-28.9,48.2-42.8,72.6c-13.2,23.1-26.3,46.6-38,70.4c-6.1,12.5-10.8,25.3-15.4,38.4c-3.9,11-6.5,22.4-12.5,32.5
			c0,0.1-0.1,0.1-0.1,0.2c1,1.7-1.4,3.9-3.2,2.4c-11.1-9-24.6-14.2-37.6-19.7c-14.2-6-28-12.9-42-19.3c-10.8-4.9-21.6-9.8-32.3-14.8
			c-6.1,7.8-14,13.8-21.3,20.3c-6.9,6.1-11.5,14.3-19.8,18.8c-0.4,0.2-0.7,0.3-1.1,0.4C717.2,311.4,714.4,311.3,713.4,309z
			 M697.5,256.2c2.6,5.9,5.4,11.8,8.2,17.8c-1.6-10.1-3.3-20.2-5.2-30.3c-3.1-1.1-2.5-5.5,0.1-6.1c0.4-0.5,1-1,1.7-1.2
			c13.4-4.8,25.8-13.7,37.4-21.8c13.5-9.5,27.3-18.7,41.3-27.5c26.8-16.9,55-31,82.7-46.4c27.6-15.3,54.2-32.3,80.6-49.4
			c23.2-15,46-31.6,70-45.5c-9.5,3.8-17.2,8.6-25.9,13.8c-11.1,6.5-24,11.2-35.2,17.3c-30.3,16.7-61,32.7-91.8,48.2
			c-30,15.1-60.1,29.9-90.3,44.5c-29.4,14.2-59.3,28.5-90.3,38.8c-0.4,0.1-0.8,0.2-1.1,0.2c-0.1,0.1-0.1,0.2-0.2,0.3
			C684.3,225,690.7,240.6,697.5,256.2z M976.7,53.4c-15.6,5-31.4,9.6-47.3,13.7c-16.6,4.3-33.1,8.5-49.7,12.8
			c1.7,1.1,3.3,2.2,4.9,3.4c1.2,0.8,0.2,2.8-1.1,2c-2.5-1.6-5.2-2.9-7.9-4.3c-1.4,0.3-2.7,0.7-4.1,1c3.3,2.3,6.7,4.5,10.3,6.1
			c1.1,0.5,0.4,2.4-0.8,2c-5-1.7-10-4.1-14.7-6.8c-12.2,3.1-24.4,6.3-36.6,9.5c-33.1,8.7-65.8,18.6-98.6,28.2
			c-16.1,4.7-32.3,9.6-48.8,12.9c-15.4,3.1-30.9,6.2-45.4,12.4c-0.4,0.2-0.7,0.2-1.1,0.3c9.4,21.5,29.6,36.1,42.1,55.9
			c0.3-0.2,0.5-0.4,0.9-0.5c29.7-11.6,58.9-24.5,87.8-38c-2.7-0.6-5.4-1.2-8.1-1.7c-6.9-1.3-14.2-1.8-20.9-4c-0.6-0.2-0.3-1.1,0.3-1
			c10.4,2,21,3.7,31.4,5.4c3-1.4,5.9-2.8,8.8-4.2c-4.6-0.9-9.1-2.1-13.7-2.8c-6.5-1-12.8-2.2-19-4.4c-0.4-0.2-0.2-0.8,0.2-0.7
			c6.2,1.8,12.5,2.4,18.9,3.3c5.6,0.8,11,2.2,16.6,3.2c2.1-1,4.2-2,6.3-3c-11-2-21.8-4.7-32.7-6.8c-0.3-0.1-0.2-0.6,0.1-0.6
			c12,1.4,23.8,3.9,35.7,5.9c2.5-1.2,5.1-2.4,7.6-3.7c-11.6-1.3-23.6-3.6-34.6-7.2c-0.5-0.2-0.3-0.9,0.3-0.8
			c12.5,2.5,25.1,4.1,37.5,6.5c2.7-1.3,5.5-2.6,8.2-4c-11.4-1.4-23.3-3.8-34.2-7.2c-0.3-0.1-0.2-0.5,0.1-0.5
			c12.5,0.7,25,4.2,37.4,6.1c1.8-0.9,3.7-1.8,5.5-2.7c-10.6-2-20.8-6.3-31.5-6.8c-0.7,0-0.7-1.1,0.1-1.1c5.6,0.1,11,1.2,16.4,2.5
			c5.8,1.4,11.8,2.2,17.4,4c0.1,0,0.2,0.1,0.2,0.1c2.1-1,4.2-2.1,6.4-3.1c-9.4-2-18.6-5-28.1-6.5c-0.7-0.1-0.7-1.2,0.1-1.1
			c10.5,1.2,20.8,4,31.1,6.1c2.1-1.1,4.3-2.1,6.4-3.2c-8.5-1.3-17-2.7-25.3-5c-1-0.3-0.5-1.7,0.5-1.5c9.2,2.5,18.5,3.5,27.9,5
			c1.7-0.8,3.4-1.7,5.2-2.5c-7.3-1.1-14.5-2.6-21.7-3.9c-0.9-0.2-0.8-1.6,0.1-1.4c8.1,1.4,16.2,2.8,24.4,3.9c1.5-0.7,3-1.5,4.5-2.2
			c-6-0.9-11.9-2.3-17.8-3.4c-0.7-0.1-0.4-1.3,0.2-1.2c6.7,1.1,13.7,1.7,20.4,3.2c1.9-1,3.9-1.9,5.8-2.9c-5.6-0.7-11.2-2.2-16.8-3.1
			c-0.7-0.1-0.7-1.2,0.1-1.1c6.5,0.9,13,2,19.6,2.8c0.6-0.3,1.2-0.6,1.8-0.9c1.1-0.6,2.3-1.1,3.4-1.7c-3.5-0.4-7-1.1-10.5-1.5
			c-0.7-0.1-0.7-1.2,0.1-1.1c4.5,0.3,9,0.7,13.5,1.2c1.1-0.6,2.2-1.1,3.4-1.7c-1.9-0.3-3.9-0.7-5.8-1.3c-1-0.3-0.5-1.8,0.5-1.5
			c2.7,0.8,5.4,1.1,8.2,1.4c1.3-0.6,2.6-1.3,3.9-1.9c-0.2,0-0.4-0.1-0.6-0.1c-1.3-0.2-2.7-0.4-4-0.5c-0.9-0.1-0.9-1.4,0.1-1.4
			c2.3,0.1,5.1-0.1,7.4,0.6c24.1-12,48.1-24.3,71.9-36.9c19.7-10.4,44.9-23.9,64-28.2C1005.9,42.4,991,48.8,976.7,53.4z
			 M793.6,279.1c14.7,6.9,29.4,14.1,44.1,20.9c11.4,5.2,22.9,10.3,33,17.7c5.8-10,8.5-21.4,12.3-32.2c4.3-12.1,8.8-23.9,14.3-35.4
			c11.5-23.9,24.9-47.2,38.1-70.2c13.9-24.4,28.7-48.3,43.3-72.3c12.8-21.1,28.2-40.4,42-60.9c-23.9,17.3-49,33.1-73.5,49.4
			c-26.9,18-54.2,35.5-82.5,51.3c-27.6,15.5-55.6,29.8-82.4,46.8c-14,8.9-27.7,18.2-41.2,27.8c-9.5,6.8-19.6,13.7-30.4,18.6
			c12.3,4.6,24.2,10.5,36,16.4C762.2,264.6,778,271.7,793.6,279.1z M757.5,269c-3.1-1.5-6.1-2.9-9.2-4.4
			c-14.7-7.2-29.3-14.7-44.8-19.9c0.4,1.4,0.9,2.8,1.3,4.2c0.1,0,0.3,0.1,0.4,0.1c7.9,3.5,15.4,7.8,23.2,11.4
			c8.3,3.8,16.6,7.6,24.2,12.6C754.3,271.7,755.9,270.4,757.5,269z M751.5,274c-7.2-3.8-14.7-6.8-22.2-9.8c-8-3.2-15.5-7.4-23.2-11
			c0.5,1.7,1,3.3,1.5,5c0.1,0,0.2,0.1,0.2,0.1c12.8,6.6,26,13.9,39.4,19.2C748.6,276.3,750.1,275.1,751.5,274z M746.2,278.3
			c-6.7-2.2-13.2-5-19.7-7.9c-5.8-2.7-11.9-5-17.7-7.8c0.6,2.2,1.2,4.4,1.8,6.6c5.1,0.7,9.8,3.8,14.6,5.6c5.6,2.1,10.7,5.1,16.2,7.4
			C743,280.8,744.6,279.5,746.2,278.3z M735.4,287c1.5-1.3,3.1-2.5,4.6-3.8c-4.6-1.4-9-3.3-13.6-4.8c-4.8-1.6-10-4.2-15-5.5
			c0.4,1.6,0.7,3.1,1.1,4.7c7.3,3.4,15,6.9,22.6,9.6C735.3,287.1,735.3,287,735.4,287z M718,303.6c1.4-1,2.8-2,4.1-3.1
			c-2.1-0.6-4.1-1.5-6-2.5C716.8,299.9,717.4,301.7,718,303.6z M715.4,294c2.9,1.6,5.6,3.4,8.7,4.6c1.1-1.1,2.1-2.2,3.1-3.3
			c-2.2-0.7-4.4-1.6-6.6-2.4c-1.8-0.7-3.7-1.2-5.5-1.9C715.2,292,715.3,293,715.4,294z M729,293.4c1.4-1.5,2.8-3,4.3-4.4
			c-3.4-0.8-6.7-2.2-10-3.5c-3.2-1.3-6.5-2.4-9.7-3.6c0.3,1.8,0.7,3.5,1,5.3C719.3,289.1,724.1,291.3,729,293.4z"/>
		<path d="M80.2,312.5c51.7-11.6,109.7-11.6,160.6,3.7c21.5,6.5,43.2,16.9,58.4,33.9c5-0.5,10-0.6,14.9-0.5
			c22.6,0.4,45.3,5.7,66.1,14.3c11.5,4.8,22.2,11.4,33.2,17.2c14.4,7.6,29,14.7,44.2,20.7c28.6,11.2,62.5,19.6,91.9,6.5
			c5.7-2.5,11.3-5.9,16.2-10.1c-25.5-10.1-47.9-30.8-51.5-58.9c-3.3-25.7,20-47.4,45.4-44.7c19.7,2.2,29.4,22,32.5,39.5
			c3.4,19.2,1.3,42.3-10.4,58.5c-0.7,0.9-1.4,1.9-2.1,2.7c1.6,0.5,3.3,0.9,4.9,1.3c26,6,56,1.3,79.4-11.4
			c23.9-12.9,40.2-35.6,48.3-61.1c0.8-2.6,4.9-1.6,4.1,1.1c-8.4,28.4-26.1,52.5-52.4,66.8c-26.5,14.4-60.2,17.7-89,9.4
			c-0.2-0.1-0.4-0.1-0.6-0.2c-17.6,17.1-43.7,23.2-67.8,21.3c-31.3-2.5-61.1-15.9-88.8-30c-22-11.2-42.3-23.5-66.4-29.6
			c-14.8-3.7-30.6-6-46.1-5.2c13.1,18.6,18.1,43.3,8.9,64.7c-10.8,25.2-44.1,26.2-63.7,10.9c-19.8-15.6-11.1-48.5,3.8-64.3
			c9.4-10,22.3-15.1,35.8-17.5c-0.6-0.6-1.2-1.2-1.8-1.7c-17-15.8-40-24.1-62.1-29.5c-46.1-11.1-97.5-10.6-143.7-0.1
			C77.5,321.1,75.3,313.6,80.2,312.5z M579,382.3c4.8-9.2,6.6-20.1,6.9-30.4c0.6-17.5-4.1-44-24-49.4c-9.5-2.6-20.4,1.6-28.3,6.8
			c-11.2,7.4-13.8,21.5-11.4,33.9c4.8,24.5,26.6,41.1,49.3,49.5C574.5,389.5,577,386,579,382.3z M281.6,361.6
			c-22.3,6.9-40.2,30.7-33.3,54.8c4.3,15.2,23.9,20.4,37.8,18.9c13.6-1.4,21.4-13.2,24.2-25.4c4.2-18.4-2.3-37-13.8-51.5
			C291.4,359.1,286.4,360.1,281.6,361.6z"/>
		<path d="M800.5,296.1c12.1,4.3,24.3,7.8,36.1,12.9c13.4,5.8,26.1,13.4,39,20c0.1,0.1,0.3,0.2,0.4,0.2c4.1-7.2,6.2-15.5,9.5-23.1
			c4.1-9.4,8.8-18.4,13.2-27.7c9-19.1,16.2-39,26.1-57.7c0.2-0.4,0.9-0.1,0.7,0.3c-6.3,19.3-14.6,38.1-23,56.5
			c-4.2,9.4-8.7,18.6-13,28c-3.9,8.5-6.1,18-11,26c-0.6,1-1.7,1-2.5,0.5c-0.6,0.6-1.5,0.9-2.4,0.5c-11.7-5.4-22.7-12.3-34.2-18.3
			c-12.6-6.6-26-12.3-39.2-17.4C799.9,296.7,800.1,296,800.5,296.1z"/>
		<path d="M809.1,305.4c12.6,2.8,23.7,10.2,35.3,15.6c12.4,5.7,24.6,11.9,36.5,18.6c0.2,0.1,0.3,0.2,0.4,0.3
			c3.2-5.1,4.5-11,6.1-16.9c1.8-6.6,5.1-12.5,8.2-18.5c7.6-14.8,14.3-29.6,20.2-45.1c0.2-0.4,0.8-0.3,0.7,0.2
			c-2.3,15.6-9.6,30.5-16.7,44.4c-3.7,7.2-7.3,14-9.5,21.9c-1.7,6.1-3.5,12-7.3,17.1c-0.6,0.8-1.5,0.6-2.2,0.1
			c-0.6,0.4-1.3,0.5-2.1,0.1c-11.1-6.2-22.5-12.1-34-17.6c-12-5.7-23.6-14-36.4-17.5C806.7,307.6,807.4,305,809.1,305.4z"/>
		<path d="M721.6,242.3c-0.6-0.2-0.9-0.6-1.1-1c-0.3,0.1-0.6,0.3-1,0.4c-2,0.8-2.9-2.4-0.9-3.2c17.8-6.9,31-21.9,47.8-30
			c0.9-0.4,1.6,0.7,0.8,1.3c-14.3,9.8-27.3,22.3-43.1,29.9c6.7,2.8,12.8,6.7,19.3,10c9.4,4.8,19,9,28.5,13.7
			c0.8,0.4,0.2,1.7-0.6,1.4c-8.3-3.2-16.5-6.6-24.6-10.2C738.3,250.7,730.3,245.5,721.6,242.3z"/>
		<path d="M954.5,96.4c17.6-10.2,32.5-24.7,49.6-35.9c1.9-1.3,3.8,1.8,1.9,3.1c-17.1,11.1-32.5,24.7-50.6,34.3
			C954.4,98.4,953.5,96.9,954.5,96.4z"/>
		<path d="M1018.5,61.9c5-8.5,10.6-16.9,14.9-25.7c0.3-0.6,1.1-0.2,1,0.4c-2.3,8.7-7.8,16.8-12.2,24.6c-5.1,9.1-11.4,17.4-15.9,26.8
			c-0.8,1.7-3.3,0.3-2.5-1.4C1007.6,77.7,1013.7,70.1,1018.5,61.9z"/>
		<path d="M1021,66.6c4.3-6.3,10.5-12.8,12.8-20.2c0.3-0.9,1.5-0.5,1.4,0.3c-0.9,6.3-5.5,11.9-8.9,17.1c-4.8,7.3-9.7,14.5-14.2,22
			c-1.1,1.8-3.9,0.2-2.8-1.6C1013.1,78.3,1017,72.5,1021,66.6z"/>
		<path d="M667.9,180c4.8,5.6,9.6,12,13.3,18.3c0.8,1.3-1.2,2.5-2,1.2c-4.4-7.6-10.4-15.1-16-21.7c-4.9-5.8-11.1-10.8-14.9-17.5
			c-0.4-0.7,0.6-1.4,1.1-0.7C654.4,167.2,662.1,173.1,667.9,180z"/>
		<path d="M686,195.9c0.8,1.3-1.2,2.4-2,1.2c-7.8-12.2-18.2-22.8-28-33.4c-0.6-0.6,0.3-1.5,0.9-0.9
			C667.3,172.9,678.3,183.4,686,195.9z"/>
		<path d="M690.2,194.7c0.9,1.3-1.2,2.5-2.1,1.3c-7-9.9-14.3-21.7-24-29.3c-0.3-0.2,0-0.6,0.3-0.5c4.5,1.1,9,7.5,12,10.8
			C681.5,182.6,685.8,188.6,690.2,194.7z"/>
		<path d="M695.4,191.6c0.6,1.3-1.2,2.4-1.9,1.2c-2.2-4-5.8-7.4-8.7-10.8c-3.7-4.3-7.7-8.2-11.7-12.1c-0.7-0.7,0.3-1.7,1-1.1
			c4.2,3.7,8.3,7.5,12.2,11.6C689.4,183.8,693.4,187.5,695.4,191.6z"/>
		<path d="M696.9,191.9c-3.6-7.2-10.7-12.6-14-20c-0.1-0.1,0-0.2,0.2-0.2c1.9,0.3,4.6,4.9,5.6,6.1c3.3,4,7.8,8.2,10,13
			C699.2,192.1,697.5,193.2,696.9,191.9z"/>
		<path d="M701.4,189.8c-1.6-1.8-2.7-4-4.1-6c-1.9-2.6-3.7-5.3-5.7-7.9c-0.5-0.6,0.6-1.5,1.1-0.9c3.6,4.3,6.6,9,10.1,13.3
			C703.6,189.3,702.2,190.8,701.4,189.8z"/>
		<path d="M647.4,179.3c4.8,4.9,9.1,10.4,13.7,15.5c4.4,4.8,9.2,10.2,12.3,16c0.1,0.3,0.1,0.5,0.1,0.7c1.9,6,3.6,12.1,5.4,18.1
			c1.4,4.9,3.4,9.6,3.8,14.7c0,0.4-0.7,0.6-0.8,0.1c-2.1-10.8-7-22.1-10.8-32.4c-0.1-0.2-0.1-0.5,0-0.7
			c-6.4-11.6-17.3-20.3-24.3-31.6C646.6,179.5,647.1,179,647.4,179.3z"/>
	</g>
</g>
</svg>
