<svg xmlns="http://www.w3.org/2000/svg" width="18.717" height="18.722" viewBox="0 0 18.717 18.722">
  <g id="bank" transform="translate(-1.9 -1.896)">
    <path id="Path_126" data-name="Path 126" d="M20.344,9.857H2.458a.265.265,0,0,1-.265-.265V7.663a.265.265,0,0,1,.128-.226l8.941-5.4a.265.265,0,0,1,.273,0l8.945,5.4a.265.265,0,0,1,.128.226v1.93A.265.265,0,0,1,20.344,9.857ZM2.722,9.328H20.079V7.812L11.4,2.574,2.722,7.812Z" transform="translate(-0.142)" fill="#8e8e8e" stroke="#707070" stroke-width="0.2"/>
    <path id="Path_127" data-name="Path 127" d="M32.6,15.515a1.582,1.582,0,1,1,1.582-1.582A1.582,1.582,0,0,1,32.6,15.515Zm0-2.636a1.053,1.053,0,1,0,1.053,1.053A1.053,1.053,0,0,0,32.6,12.88Z" transform="translate(-21.342 -7.613)" fill="#8e8e8e" stroke="#707070" stroke-width="0.2"/>
    <path id="Path_128" data-name="Path 128" d="M55.557,31.9H52.742a.572.572,0,0,1-.571-.572V29.965a.265.265,0,0,1,.265-.265h3.429a.265.265,0,0,1,.265.265v1.365A.572.572,0,0,1,55.557,31.9ZM52.7,30.228v1.1a.043.043,0,0,0,.042.043h2.815a.043.043,0,0,0,.042-.043v-1.1Z" transform="translate(-36.899 -20.372)" fill="#8e8e8e" stroke="#707070" stroke-width="0.2"/>
    <path id="Path_129" data-name="Path 129" d="M56.837,41.889H54.5a.265.265,0,0,1-.265-.265V36.281a.265.265,0,0,1,.265-.265h2.335a.265.265,0,0,1,.265.265v5.344A.265.265,0,0,1,56.837,41.889Zm-2.07-.529h1.806V36.545H54.767Z" transform="translate(-38.419 -25.017)" fill="#8e8e8e" stroke="#707070" stroke-width="0.2"/>
    <path id="Path_130" data-name="Path 130" d="M55.864,58.417H52.436a.265.265,0,0,1-.265-.265V56.788a.572.572,0,0,1,.571-.572h2.815a.572.572,0,0,1,.571.572v1.365A.265.265,0,0,1,55.864,58.417ZM52.7,57.888h2.9v-1.1a.043.043,0,0,0-.042-.043H52.742a.043.043,0,0,0-.042.043Z" transform="translate(-36.899 -39.874)" fill="#8e8e8e" stroke="#707070" stroke-width="0.2"/>
    <path id="Path_131" data-name="Path 131" d="M32.906,31.9H30.091a.572.572,0,0,1-.571-.572V29.965a.265.265,0,0,1,.265-.265h3.428a.265.265,0,0,1,.265.265v1.365A.572.572,0,0,1,32.906,31.9Zm-2.857-1.671v1.1a.043.043,0,0,0,.042.043h2.815a.043.043,0,0,0,.042-.043v-1.1Z" transform="translate(-20.24 -20.372)" fill="#8e8e8e" stroke="#707070" stroke-width="0.2"/>
    <path id="Path_132" data-name="Path 132" d="M34.192,41.889H31.865a.265.265,0,0,1-.265-.265V36.281a.265.265,0,0,1,.265-.265h2.328a.265.265,0,0,1,.265.265v5.344A.265.265,0,0,1,34.192,41.889Zm-2.063-.529h1.8V36.545h-1.8Z" transform="translate(-21.77 -25.017)" fill="#8e8e8e" stroke="#707070" stroke-width="0.2"/>
    <path id="Path_133" data-name="Path 133" d="M33.213,58.417H29.785a.265.265,0,0,1-.265-.265V56.788a.572.572,0,0,1,.571-.572h2.815a.572.572,0,0,1,.571.572v1.365A.265.265,0,0,1,33.213,58.417Zm-3.164-.529h2.9v-1.1a.043.043,0,0,0-.042-.043H30.091a.043.043,0,0,0-.042.043Z" transform="translate(-20.24 -39.874)" fill="#8e8e8e" stroke="#707070" stroke-width="0.2"/>
    <path id="Path_134" data-name="Path 134" d="M11.254,31.9H8.439a.572.572,0,0,1-.571-.572V29.965a.265.265,0,0,1,.265-.265h3.429a.265.265,0,0,1,.265.265v1.365a.572.572,0,0,1-.571.571ZM8.4,30.229v1.1a.043.043,0,0,0,.042.043h2.815a.043.043,0,0,0,.042-.043v-1.1Z" transform="translate(-4.316 -20.372)" fill="#8e8e8e" stroke="#707070" stroke-width="0.2"/>
    <path id="Path_135" data-name="Path 135" d="M12.519,41.889H10.165a.265.265,0,0,1-.265-.265V36.281a.265.265,0,0,1,.265-.265h2.354a.265.265,0,0,1,.265.265v5.344A.265.265,0,0,1,12.519,41.889Zm-2.09-.529h1.825V36.545H10.429Z" transform="translate(-5.81 -25.017)" fill="#8e8e8e" stroke="#707070" stroke-width="0.2"/>
    <path id="Path_136" data-name="Path 136" d="M11.561,58.417H8.133a.265.265,0,0,1-.265-.265V56.788a.572.572,0,0,1,.571-.572h2.815a.572.572,0,0,1,.571.572v1.365A.265.265,0,0,1,11.561,58.417ZM8.4,57.888h2.9v-1.1a.043.043,0,0,0-.042-.043H8.439a.043.043,0,0,0-.042.043Z" transform="translate(-4.316 -39.874)" fill="#8e8e8e" stroke="#707070" stroke-width="0.2"/>
    <path id="Path_137" data-name="Path 137" d="M20.253,65.04H2.265A.265.265,0,0,1,2,64.775V62.8a.265.265,0,0,1,.265-.265H20.253a.265.265,0,0,1,.265.265v1.974A.265.265,0,0,1,20.253,65.04ZM2.529,64.51H19.988V63.065H2.529Z" transform="translate(0 -44.522)" fill="#8e8e8e" stroke="#707070" stroke-width="0.2"/>
  </g>
</svg>
