<svg height='300px' width='300px'  fill="#FFFFFF" xmlns="http://www.w3.org/2000/svg" xmlns:xlink="http://www.w3.org/1999/xlink" version="1.1" x="0px" y="0px" viewBox="0 0 64 64" style="enable-background:new 0 0 64 64;" xml:space="preserve"><path d="M60,52h-3.026C57.609,51.162,58,50.13,58,49V34c0-0.009-0.005-0.016-0.005-0.025C58.618,33.141,59,32.118,59,31  c0-2.757-2.243-5-5-5s-5,2.243-5,5c0,1.596,0.765,3.003,1.933,3.919L47.532,39H43c-1.654,0-3,1.346-3,3s1.346,3,3,3h6  c0.265,0,0.52-0.105,0.707-0.293L50,44.414V47h-5c-1.654,0-3,1.346-3,3v9c0,1.654,1.346,3,3,3h3c0.552,0,1-0.447,1-1v-7h4  c0.066,0,0.128-0.017,0.194-0.02l1.83,8.236l1.952-0.434L55.247,54H61c0.552,0,1-0.447,1-1V37h-2V52z M54,28c1.654,0,3,1.346,3,3  c0,0.893-0.4,1.687-1.021,2.237c-0.005,0.004-0.011,0.005-0.016,0.01c-0.28,0.245-0.702,0.518-1.248,0.658  c-0.03,0.007-0.057,0.021-0.086,0.027C54.434,33.974,54.225,34,54,34c-0.207,0-0.409-0.021-0.604-0.061  c-0.193-0.039-0.382-0.099-0.565-0.176C51.756,33.306,51,32.24,51,31C51,29.346,52.346,28,54,28z M48,52c-0.552,0-1,0.447-1,1v7h-2  c-0.551,0-1-0.448-1-1v-9c0-0.552,0.449-1,1-1h6c0.552,0,1-0.447,1-1v-6c0-0.404-0.244-0.77-0.617-0.924  c-0.375-0.157-0.804-0.07-1.09,0.217L48.586,43H43c-0.551,0-1-0.448-1-1s0.449-1,1-1h5c0.297,0,0.578-0.132,0.768-0.359l3.996-4.795  c0.042,0.011,0.087,0.012,0.13,0.021c0.107,0.024,0.216,0.037,0.325,0.054c0.192,0.03,0.384,0.052,0.58,0.059  C53.867,35.982,53.931,36,54,36c0.071,0,0.137-0.018,0.207-0.021c0.163-0.007,0.323-0.026,0.484-0.049  c0.155-0.022,0.309-0.041,0.459-0.077c0.115-0.028,0.225-0.069,0.338-0.105c0.172-0.054,0.347-0.1,0.511-0.172V49  c0,1.654-1.346,3-3,3H48z"></path><path d="M3,54h5.753l-1.729,7.783l1.952,0.434l1.83-8.236C10.872,53.983,10.934,54,11,54h4v7c0,0.553,0.448,1,1,1h3  c1.654,0,3-1.346,3-3v-9c0-1.654-1.346-3-3-3h-5v-2.586l0.293,0.293C14.48,44.895,14.735,45,15,45h6c1.654,0,3-1.346,3-3  s-1.346-3-3-3h-4.532l-3.401-4.081C14.235,34.003,15,32.596,15,31c0-2.757-2.243-5-5-5s-5,2.243-5,5  c0,1.118,0.382,2.141,1.005,2.975C6.005,33.984,6,33.991,6,34v15c0,1.13,0.391,2.162,1.026,3H4V37H2v16C2,53.553,2.448,54,3,54z   M11.236,35.846l3.996,4.795C15.422,40.868,15.703,41,16,41h5c0.551,0,1,0.448,1,1s-0.449,1-1,1h-5.586l-1.707-1.707  c-0.287-0.287-0.717-0.374-1.09-0.217C12.244,41.23,12,41.596,12,42v6c0,0.553,0.448,1,1,1h6c0.551,0,1,0.448,1,1v9  c0,0.552-0.449,1-1,1h-2v-7c0-0.553-0.448-1-1-1h-5c-1.654,0-3-1.346-3-3V35.576c0.163,0.072,0.338,0.117,0.509,0.171  c0.114,0.036,0.225,0.078,0.341,0.106c0.148,0.035,0.301,0.054,0.454,0.076c0.164,0.024,0.327,0.042,0.492,0.05  C9.866,35.982,9.93,36,10,36c0.068,0,0.13-0.017,0.197-0.02c0.198-0.007,0.393-0.029,0.588-0.059  c0.108-0.017,0.216-0.029,0.321-0.053C11.149,35.858,11.193,35.857,11.236,35.846z M10,28c1.654,0,3,1.346,3,3  c0,1.24-0.756,2.306-1.831,2.763c-0.183,0.078-0.372,0.137-0.565,0.176C10.409,33.979,10.207,34,10,34  c-0.225,0-0.434-0.026-0.628-0.069c-0.03-0.006-0.057-0.02-0.087-0.027c-0.546-0.14-0.968-0.412-1.248-0.657  c-0.005-0.004-0.011-0.006-0.016-0.01C7.4,32.687,7,31.893,7,31C7,29.346,8.346,28,10,28z"></path><path d="M21.427,21.181c-0.358,0.25-0.512,0.704-0.38,1.12C21.177,22.717,21.563,23,22,23h20c0.437,0,0.823-0.283,0.954-0.699  c0.131-0.416-0.022-0.87-0.38-1.12L33,14.479v-1.664c1.161-0.414,2-1.514,2-2.816c0-0.266-0.105-0.52-0.293-0.707l-3.644-3.644  C31.206,5.271,31.572,5,32,5c0.551,0,1,0.448,1,1h2c0-1.302-0.839-2.402-2-2.816V2h-2v1.184C29.839,3.598,29,4.698,29,6  c0,0.266,0.105,0.52,0.293,0.707l3.644,3.644C32.794,10.729,32.428,11,32,11c-0.551,0-1-0.448-1-1h-2c0,1.302,0.839,2.402,2,2.816  v1.664L21.427,21.181z M25.172,21L32,16.221L38.828,21H25.172z"></path><rect x="38" y="24" width="4" height="2"></rect><rect x="39" y="27" width="2" height="4"></rect><rect x="38" y="32" width="4" height="2"></rect><rect x="22" y="24" width="4" height="2"></rect><rect x="23" y="27" width="2" height="4"></rect><rect x="22" y="32" width="4" height="2"></rect><rect x="30" y="24" width="4" height="2"></rect><rect x="31" y="27" width="2" height="4"></rect><rect x="30" y="32" width="4" height="2"></rect><rect x="19" y="35" width="26" height="2"></rect><path d="M37,8c8.822,0,16,7.178,16,16h2c0-9.925-8.075-18-18-18V8z"></path><path d="M27,6C17.075,6,9,14.075,9,24h2c0-8.822,7.178-16,16-16V6z"></path><path d="M30,60h4c0.552,0,1-0.447,1-1V43h3v-2h-4h-4h-4v2h3v16C29,59.553,29.448,60,30,60z M33,43v15h-2V43H33z"></path></svg>