<svg xmlns="http://www.w3.org/2000/svg" width="18.596" height="22.749" viewBox="0 0 18.596 22.749">
  <path id="Path_38" data-name="Path 38" d="M753.294,426.086a20.852,20.852,0,0,1-3.971-.365,10.59,10.59,0,0,1-3.484-1.237,3.977,3.977,0,0,1-1.486-1.457,2.905,2.905,0,0,1-.352-1.461,9.634,9.634,0,0,1,.929-4.1,9.41,9.41,0,0,1,3.595-4.067.753.753,0,0,1,.935.042,6.15,6.15,0,0,0,1.87,1.007,6.288,6.288,0,0,0,5.825-1.022.744.744,0,0,1,.909-.027,9.721,9.721,0,0,1,4.5,7.508,4.257,4.257,0,0,1-.064,1.483,3.289,3.289,0,0,1-1.166,1.674,7.769,7.769,0,0,1-2.693,1.317,14.2,14.2,0,0,1-2.789.549c-.85.079-1.7.128-2.553.19Zm.314-1.525c.32-.019.935-.046,1.548-.092a14.264,14.264,0,0,0,3.065-.556,6.3,6.3,0,0,0,2.117-1.014,1.636,1.636,0,0,0,.716-1.584c-.073-.532-.1-1.075-.228-1.595a7.982,7.982,0,0,0-3.067-4.679.155.155,0,0,0-.212-.018,7.669,7.669,0,0,1-4.9,1.239,7.579,7.579,0,0,1-3.552-1.2.228.228,0,0,0-.315.015,8.176,8.176,0,0,0-3.26,6.511,1.357,1.357,0,0,0,.294.878,2.972,2.972,0,0,0,.892.752,8.425,8.425,0,0,0,2.371.89A19.807,19.807,0,0,0,753.608,424.561Zm-5.413-16.093a5.1,5.1,0,1,1,5.1,5.1A5.107,5.107,0,0,1,748.195,408.467Zm8.668,0a3.569,3.569,0,1,0-3.565,3.576A3.583,3.583,0,0,0,756.863,408.468Z" transform="translate(-744 -403.374)" fill="#8e8e8e"/>
</svg>
