<svg xmlns="http://www.w3.org/2000/svg" width="19" height="19.008" viewBox="0 0 19 19.008">
  <g id="_9lvxXp.tif" data-name="9lvxXp.tif" transform="translate(2448.121 1030.384)">
    <g id="Group_127" data-name="Group 127" transform="translate(-2448.121 -1030.384)">
      <path id="Path_44" data-name="Path 44" d="M-2429.945-1011.376a5.109,5.109,0,0,1-.552-.413c-1.709-1.672-1.41-1.35-3.114-3.026-.036-.035-.074-.068-.076-.069-.59.347-1.142.717-1.732,1.011a8.566,8.566,0,0,1-4.438.866,8.669,8.669,0,0,1-5.885-2.736,8.342,8.342,0,0,1-2.312-4.9,8.329,8.329,0,0,1,1.66-6.2,8.666,8.666,0,0,1,5.551-3.394,8.545,8.545,0,0,1,4.558.381,8.628,8.628,0,0,1,5.321,5.277,8.177,8.177,0,0,1,.508,3.042,8.443,8.443,0,0,1-1.9,5.231c-.12.151-.246.3-.388.468.086.077.17.145.247.221,1.692,1.664,1.384,1.327,3.072,3a3.284,3.284,0,0,1,.308.42v.309a.847.847,0,0,1-.549.515Zm-9.448-2.926c.453-.035.827-.04,1.193-.1a7.361,7.361,0,0,0,4.822-2.782,7.019,7.019,0,0,0,1.472-5.6,7.05,7.05,0,0,0-2.539-4.493,7.371,7.371,0,0,0-6.37-1.606,7.363,7.363,0,0,0-3.686,1.926,7.246,7.246,0,0,0-1.64,8.2A7.383,7.383,0,0,0-2439.393-1014.3Z" transform="translate(2448.121 1030.384)"/>
    </g>
  </g>
</svg>
