<svg xmlns="http://www.w3.org/2000/svg" width="12.567" height="12.572" viewBox="0 0 12.567 12.572">
  <g id="_9lvxXp.tif" data-name="9lvxXp.tif" transform="translate(0)">
    <g id="Group_127" data-name="Group 127">
      <path id="Path_44" data-name="Path 44" d="M-2436.1-1017.812a3.377,3.377,0,0,1-.365-.273c-1.13-1.106-.933-.893-2.06-2-.024-.023-.049-.045-.05-.046-.39.23-.755.474-1.146.669a5.666,5.666,0,0,1-2.936.573,5.734,5.734,0,0,1-3.892-1.81,5.517,5.517,0,0,1-1.529-3.242,5.509,5.509,0,0,1,1.1-4.1,5.732,5.732,0,0,1,3.672-2.245,5.652,5.652,0,0,1,3.014.252,5.706,5.706,0,0,1,3.519,3.49,5.41,5.41,0,0,1,.336,2.012,5.585,5.585,0,0,1-1.259,3.459c-.08.1-.163.2-.257.31.057.051.112.1.163.146,1.119,1.1.916.878,2.032,1.981a2.168,2.168,0,0,1,.2.278v.2a.56.56,0,0,1-.363.341Zm-6.249-1.935c.3-.023.547-.027.789-.064a4.869,4.869,0,0,0,3.189-1.84,4.643,4.643,0,0,0,.973-3.7,4.663,4.663,0,0,0-1.679-2.971,4.876,4.876,0,0,0-4.213-1.062,4.871,4.871,0,0,0-2.438,1.274,4.792,4.792,0,0,0-1.084,5.422A4.883,4.883,0,0,0-2442.348-1019.747Z" transform="translate(2448.121 1030.384)" fill="#8e8e8e"/>
    </g>
  </g>
</svg>
