<svg id="tick" xmlns="http://www.w3.org/2000/svg" width="182.037" height="182.037" viewBox="0 0 182.037 182.037">
  <g id="Group_36" data-name="Group 36">
    <circle id="Ellipse_70" data-name="Ellipse 70" cx="83.968" cy="83.968" r="83.968" transform="translate(7.05 7.05)" fill="#51b11a"/>
    <path id="Path_780" data-name="Path 780" d="M91.018,182.037a91.018,91.018,0,1,1,91.018-91.018A91.122,91.122,0,0,1,91.018,182.037Zm0-167.936a76.918,76.918,0,1,0,76.918,76.918A77,77,0,0,0,91.018,14.1Z" fill="#51b11a"/>
  </g>
  <path id="Path_781" data-name="Path 781" d="M165.132,228.8a7.042,7.042,0,0,1-5.027-2.108L134.089,200.25a7.049,7.049,0,1,1,10.054-9.884l20.784,21.122,43-47.356a7.05,7.05,0,1,1,10.434,9.483l-48.012,52.876a7.051,7.051,0,0,1-5.076,2.312A.987.987,0,0,0,165.132,228.8Z" transform="translate(-85.112 -104.29)" fill="#fff"/>
</svg>
