<?xml version="1.0" encoding="utf-8"?>
<!-- Generator: Adobe Illustrator 24.3.0, SVG Export Plug-In . SVG Version: 6.00 Build 0)  -->
<svg version="1.1" id="Layer_1" xmlns="http://www.w3.org/2000/svg" xmlns:xlink="http://www.w3.org/1999/xlink" x="0px" y="0px"
	 viewBox="0 0 153.9 138.4" style="enable-background:new 0 0 153.9 138.4;" xml:space="preserve">
<style type="text/css">
	.st0{opacity:0.3;}
	.st1{opacity:0;fill:#053A58;}
	.st2{opacity:7.692308e-02;fill:#053A58;}
	.st3{opacity:0.1538;fill:#053A58;}
	.st4{opacity:0.2308;fill:#053A58;}
	.st5{opacity:0.3077;fill:#053A58;}
	.st6{opacity:0.3846;fill:#053A58;}
	.st7{opacity:0.4615;fill:#053A58;}
	.st8{opacity:0.5385;fill:#053A58;}
	.st9{opacity:0.6154;fill:#053A58;}
	.st10{opacity:0.6923;fill:#053A58;}
	.st11{opacity:0.7692;fill:#053A58;}
	.st12{opacity:0.8462;fill:#053A58;}
	.st13{opacity:0.9231;fill:#053A58;}
	.st14{fill:#053A58;}
	.st15{fill:#FFFFFF;}
	.st16{fill:#9F9F9F;}
	.st17{fill:url(#SVGID_1_);}
	.st18{fill:#3BB54A;}
	.st19{clip-path:url(#SVGID_3_);}
	.st20{filter:url(#Adobe_OpacityMaskFilter);}
	.st21{filter:url(#Adobe_OpacityMaskFilter_1_);}
	.st22{mask:url(#SVGID_4_);fill:url(#SVGID_5_);}
	.st23{fill:#338B42;}
</style>
<g>
	<g class="st0">
		<path class="st1" d="M108.3,117.9c0,5.4-4.4,9.8-9.8,9.8H22.1c-5.4,0-9.8-4.4-9.8-9.8V41.5c0-5.4,4.4-9.8,9.8-9.8h76.4
			c5.4,0,9.8,4.4,9.8,9.8V117.9z"/>
		<path class="st2" d="M109.7,116.5c0,5.4-4.4,9.8-9.8,9.8H23.5c-5.4,0-9.8-4.4-9.8-9.8V40.1c0-5.4,4.4-9.8,9.8-9.8h76.4
			c5.4,0,9.8,4.4,9.8,9.8V116.5z"/>
		<path class="st3" d="M111.1,115.1c0,5.4-4.4,9.8-9.8,9.8H24.9c-5.4,0-9.8-4.4-9.8-9.8V38.7c0-5.4,4.4-9.8,9.8-9.8h76.4
			c5.4,0,9.8,4.4,9.8,9.8V115.1z"/>
		<path class="st4" d="M112.5,113.7c0,5.4-4.4,9.8-9.8,9.8H26.3c-5.4,0-9.8-4.4-9.8-9.8V37.3c0-5.4,4.4-9.8,9.8-9.8h76.4
			c5.4,0,9.8,4.4,9.8,9.8V113.7z"/>
		<path class="st5" d="M113.9,112.3c0,5.4-4.4,9.8-9.8,9.8H27.7c-5.4,0-9.8-4.4-9.8-9.8V35.9c0-5.4,4.4-9.8,9.8-9.8h76.4
			c5.4,0,9.8,4.4,9.8,9.8V112.3z"/>
		<path class="st6" d="M115.3,110.9c0,5.4-4.4,9.8-9.8,9.8H29.1c-5.4,0-9.8-4.4-9.8-9.8V34.5c0-5.4,4.4-9.8,9.8-9.8h76.4
			c5.4,0,9.8,4.4,9.8,9.8V110.9z"/>
		<path class="st7" d="M116.7,109.5c0,5.4-4.4,9.8-9.8,9.8H30.5c-5.4,0-9.8-4.4-9.8-9.8V33.1c0-5.4,4.4-9.8,9.8-9.8h76.4
			c5.4,0,9.8,4.4,9.8,9.8V109.5z"/>
		<path class="st8" d="M118.1,108.1c0,5.4-4.4,9.8-9.8,9.8H31.9c-5.4,0-9.8-4.4-9.8-9.8V31.7c0-5.4,4.4-9.8,9.8-9.8h76.4
			c5.4,0,9.8,4.4,9.8,9.8V108.1z"/>
		<path class="st9" d="M119.5,106.7c0,5.4-4.4,9.8-9.8,9.8H33.3c-5.4,0-9.8-4.4-9.8-9.8V30.3c0-5.4,4.4-9.8,9.8-9.8h76.4
			c5.4,0,9.8,4.4,9.8,9.8V106.7z"/>
		<path class="st10" d="M120.9,105.3c0,5.4-4.4,9.8-9.8,9.8H34.7c-5.4,0-9.8-4.4-9.8-9.8V28.9c0-5.4,4.4-9.8,9.8-9.8h76.4
			c5.4,0,9.8,4.4,9.8,9.8V105.3z"/>
		<path class="st11" d="M122.4,103.9c0,5.4-4.4,9.8-9.8,9.8H36.1c-5.4,0-9.8-4.4-9.8-9.8V27.5c0-5.4,4.4-9.8,9.8-9.8h76.4
			c5.4,0,9.8,4.4,9.8,9.8V103.9z"/>
		<path class="st12" d="M123.8,102.5c0,5.4-4.4,9.8-9.8,9.8H37.5c-5.4,0-9.8-4.4-9.8-9.8V26.1c0-5.4,4.4-9.8,9.8-9.8h76.4
			c5.4,0,9.8,4.4,9.8,9.8V102.5z"/>
		<path class="st13" d="M125.2,101.1c0,5.4-4.4,9.8-9.8,9.8H38.9c-5.4,0-9.8-4.4-9.8-9.8V24.7c0-5.4,4.4-9.8,9.8-9.8h76.4
			c5.4,0,9.8,4.4,9.8,9.8V101.1z"/>
		<path class="st14" d="M126.6,99.7c0,5.4-4.4,9.8-9.8,9.8H40.4c-5.4,0-9.8-4.4-9.8-9.8V23.3c0-5.4,4.4-9.8,9.8-9.8h76.4
			c5.4,0,9.8,4.4,9.8,9.8V99.7z"/>
	</g>
	<path class="st15" d="M128.1,98.5c0,5.4-4.4,9.8-9.8,9.8H41.9c-5.4,0-9.8-4.4-9.8-9.8V22.1c0-5.4,4.4-9.8,9.8-9.8h76.4
		c5.4,0,9.8,4.4,9.8,9.8V98.5z"/>
	<path class="st16" d="M126.6,99.7c0,5.4-4.4,9.8-9.8,9.8H40.4c-5.4,0-9.8-4.4-9.8-9.8V23.3c0-5.4,4.4-9.8,9.8-9.8h76.4
		c5.4,0,9.8,4.4,9.8,9.8V99.7z"/>
	<linearGradient id="SVGID_1_" gradientUnits="userSpaceOnUse" x1="55.3951" y1="102.3312" x2="107.3495" y2="11.5072">
		<stop  offset="0" style="stop-color:#FFFFFF"/>
		<stop  offset="0.2659" style="stop-color:#FBFBFB"/>
		<stop  offset="0.5347" style="stop-color:#EFEFEF"/>
		<stop  offset="0.804" style="stop-color:#DBDBDB"/>
		<stop  offset="1" style="stop-color:#C8C7C7"/>
	</linearGradient>
	<path class="st17" d="M127.3,97.9c0,5.3-4.4,9.6-9.8,9.6H41.1c-5.4,0-9.8-4.3-9.8-9.6V23.1c0-5.3,4.4-9.6,9.8-9.6h76.4
		c5.4,0,9.8,4.3,9.8,9.6V97.9z"/>
	<path class="st16" d="M109.2,25.2c-3.7-1.7-8.5,0.9-10.8,5.8l-17.1,37c-2.3,4.9-7,5.5-10.4,1.4L59,55.5c-3.5-4.1-8.9-5.4-11.9-2.8
		c-3.1,2.6-2.8,8.1,0.7,12.2l26.7,31.7c3.5,4.1,8.2,3.5,10.4-1.4l26.8-58C114,32.3,112.9,26.9,109.2,25.2z"/>
	<g>
		<path class="st15" d="M110.3,24.1c-3.7-1.7-8.5,0.9-10.8,5.8l-17.1,37c-2.3,4.9-7,5.5-10.4,1.4l-11.8-14
			c-3.5-4.1-8.9-5.4-11.9-2.8c-3.1,2.6-2.8,8.1,0.7,12.2l26.7,31.7c3.5,4.1,8.2,3.5,10.4-1.4l26.8-58
			C115.2,31.2,114,25.8,110.3,24.1z"/>
	</g>
	<g>
		<path class="st18" d="M109.6,24.8c-3.7-1.7-8.5,0.9-10.8,5.8l-17.1,37c-2.3,4.9-7,5.5-10.4,1.4l-11.8-14
			c-3.5-4.1-8.9-5.4-11.9-2.8c-3.1,2.6-2.8,8.1,0.7,12.2l26.7,31.7c3.5,4.1,8.2,3.5,10.4-1.4l26.8-58
			C114.4,31.9,113.2,26.5,109.6,24.8z"/>
	</g>
	<g>
		<defs>
			<path id="SVGID_2_" d="M109.6,24.8c-3.7-1.7-8.5,0.9-10.8,5.8l-17.1,37c-2.3,4.9-7,5.5-10.4,1.4l-11.8-14
				c-3.5-4.1-8.9-5.4-11.9-2.8c-3.1,2.6-2.8,8.1,0.7,12.2l26.7,31.7c3.5,4.1,8.2,3.5,10.4-1.4l26.8-58
				C114.4,31.9,113.2,26.5,109.6,24.8z"/>
		</defs>
		<use xlink:href="#SVGID_2_"  style="overflow:visible;fill:#338B42;"/>
		<clipPath id="SVGID_3_">
			<use xlink:href="#SVGID_2_"  style="overflow:visible;"/>
		</clipPath>
		<g class="st19">
			<defs>
				<filter id="Adobe_OpacityMaskFilter" filterUnits="userSpaceOnUse" x="44.1" y="27.6" width="67.9" height="74.7">
					<feFlood  style="flood-color:white;flood-opacity:1" result="back"/>
					<feBlend  in="SourceGraphic" in2="back" mode="normal"/>
				</filter>
			</defs>
			<mask maskUnits="userSpaceOnUse" x="44.1" y="27.6" width="67.9" height="74.7" id="SVGID_4_">
				<g class="st20">
					<defs>
						<filter id="Adobe_OpacityMaskFilter_1_" filterUnits="userSpaceOnUse" x="44.1" y="27.6" width="67.9" height="74.7">
							<feFlood  style="flood-color:white;flood-opacity:1" result="back"/>
							<feBlend  in="SourceGraphic" in2="back" mode="normal"/>
						</filter>
					</defs>
					<mask maskUnits="userSpaceOnUse" x="44.1" y="27.6" width="67.9" height="74.7" id="SVGID_4_">
						<g class="st21">
						</g>
					</mask>
					<linearGradient id="SVGID_5_" gradientUnits="userSpaceOnUse" x1="60.1347" y1="90.1855" x2="89.768" y2="20.913">
						<stop  offset="0" style="stop-color:#FFFFFF"/>
						<stop  offset="1" style="stop-color:#666666"/>
					</linearGradient>
					<path class="st22" d="M108.3,28.1c-3.7-1.7-8.5,0.9-10.8,5.8l-17.1,37c-2.3,4.9-7,5.5-10.4,1.4l-11.8-14
						c-3.5-4.1-8.9-5.4-11.9-2.8c-3.1,2.6-2.8,8.1,0.7,12.2l26.7,31.7c3.5,4.1,8.2,3.5,10.4-1.4l26.8-58
						C113.2,35.2,112,29.8,108.3,28.1z"/>
				</g>
			</mask>
			<path class="st23" d="M108.3,28.1c-3.7-1.7-8.5,0.9-10.8,5.8l-17.1,37c-2.3,4.9-7,5.5-10.4,1.4l-11.8-14
				c-3.5-4.1-8.9-5.4-11.9-2.8c-3.1,2.6-2.8,8.1,0.7,12.2l26.7,31.7c3.5,4.1,8.2,3.5,10.4-1.4l26.8-58
				C113.2,35.2,112,29.8,108.3,28.1z"/>
		</g>
	</g>
</g>
</svg>
