<?xml version="1.0" encoding="utf-8"?>
<!-- Generator: Adobe Illustrator 24.3.0, SVG Export Plug-In . SVG Version: 6.00 Build 0)  -->
<svg version="1.1" id="Layer_1" xmlns="http://www.w3.org/2000/svg" xmlns:xlink="http://www.w3.org/1999/xlink" x="0px" y="0px"
	 viewBox="0 0 37.1 37.6" style="enable-background:new 0 0 37.1 37.6;" xml:space="preserve">
<style type="text/css">
	.st0{fill:#FFFFFF;}
</style>
<g>
	<path d="M18.6,35.9c-9.4,0-17-7.6-17.1-16.8C1.4,9.4,9.3,1.8,18.5,1.8c9.4,0,17,7.6,17.1,17C35.6,28.2,28,35.9,18.6,35.9z
		 M16.5,21.4c-0.1-0.1-0.2-0.2-0.2-0.3c-1.6-1.6-3.1-3.1-4.7-4.7c-0.8-0.8-1.5-0.8-2.3,0c-0.6,0.6-1.2,1.2-1.8,1.7
		c-0.7,0.7-0.7,1.5,0,2.2c2.6,2.6,5.2,5.2,7.9,7.9c0.6,0.6,1.5,0.6,2.1,0c4-4,7.9-7.9,11.9-11.9c0.7-0.7,0.7-1.5,0-2.2
		c-0.6-0.6-1.3-1.3-2-1.9c-0.6-0.6-1.4-0.6-2,0c-2,2-4,4-6.1,6C18.5,19.3,17.6,20.3,16.5,21.4z"/>
	<path class="st0" d="M16.5,21.4c1-1.1,2-2.1,3-3c2-2,4-4,6.1-6c0.6-0.6,1.4-0.6,2,0c0.7,0.6,1.3,1.3,2,1.9c0.7,0.7,0.6,1.5,0,2.2
		c-4,4-7.9,7.9-11.9,11.9c-0.6,0.6-1.5,0.6-2.1,0c-2.6-2.6-5.2-5.2-7.9-7.9c-0.7-0.7-0.7-1.5,0-2.2c0.6-0.6,1.2-1.2,1.8-1.7
		c0.8-0.7,1.5-0.8,2.3,0c1.6,1.6,3.1,3.1,4.7,4.7C16.4,21.1,16.4,21.2,16.5,21.4z"/>
</g>
</svg>
