<svg xmlns="http://www.w3.org/2000/svg" width="132.501" height="132.5" viewBox="0 0 132.501 132.5">
  <path id="Path_104" data-name="Path 104" d="M-1979.927-1172.859a4.836,4.836,0,0,1-3-1.036l-21.393-16.808a4.853,4.853,0,0,1-.818-6.813,4.854,4.854,0,0,1,6.814-.819l17.733,13.934,33.139-38.74a4.852,4.852,0,0,1,6.84-.533,4.852,4.852,0,0,1,.534,6.841l-36.164,42.276A4.843,4.843,0,0,1-1979.927-1172.859Zm73.384-25.735a66.325,66.325,0,0,0-66.25-66.249,66.325,66.325,0,0,0-66.25,66.249,66.325,66.325,0,0,0,66.25,66.251A66.325,66.325,0,0,0-1906.543-1198.595Zm-10.472,0a55.841,55.841,0,0,1-55.778,55.778,55.841,55.841,0,0,1-55.778-55.778,55.841,55.841,0,0,1,55.778-55.777A55.841,55.841,0,0,1-1917.015-1198.595Z" transform="translate(2039.044 1264.844)" fill="#00d621"/>
</svg>
