<svg xmlns="http://www.w3.org/2000/svg" width="22.701" height="22.701" viewBox="0 0 22.701 22.701">
  <g id="TJKY3A" transform="translate(1996.902 1083.915)">
    <g id="Group_192" data-name="Group 192">
      <path id="Path_88" data-name="Path 88" d="M-1992.645-1065.669c0-.62-.006-1.24,0-1.86a.692.692,0,0,1,.821-.742.694.694,0,0,1,.578.749c.007.656,0,1.313,0,1.969,0,.48,0,.959,0,1.438a.707.707,0,0,1-.779.776q-1.691,0-3.381,0a.7.7,0,0,1-.763-.528.693.693,0,0,1,.71-.87c.443-.009.887,0,1.331,0h.324c-.1-.118-.157-.189-.218-.258a11.361,11.361,0,0,1,5.157-18.418,11.364,11.364,0,0,1,14.443,8.66,11.33,11.33,0,0,1-8.419,13.2,18.707,18.707,0,0,1-2.606.335.688.688,0,0,1-.809-.682.717.717,0,0,1,.792-.712,9.658,9.658,0,0,0,6.464-2.48,9.642,9.642,0,0,0,3.367-8.029,9.935,9.935,0,0,0-10.693-9.356,9.95,9.95,0,0,0-9.094,8.634,9.792,9.792,0,0,0,2.515,7.99c.064.071.12.15.18.225Z"/>
      <path id="Path_89" data-name="Path 89" d="M-1986.255-1075.776c0-1.038-.005-2.075,0-3.112a.7.7,0,0,1,.949-.708.7.7,0,0,1,.451.714c0,.382,0,.763,0,1.144,0,1.5,0,3,0,4.5a.428.428,0,0,0,.248.437c.98.571,1.948,1.162,2.917,1.752a.7.7,0,0,1,.282.982.7.7,0,0,1-1,.216c-1.158-.688-2.31-1.383-3.467-2.072a.782.782,0,0,1-.385-.737q0-1.556,0-3.112Z"/>
    </g>
  </g>
</svg>
