<svg xmlns="http://www.w3.org/2000/svg" width="32.679" height="32.691" viewBox="0 0 32.679 32.691">
  <g id="wXIMac.tif" transform="translate(0)">
    <g id="Group_55" data-name="Group 55" transform="translate(0 0)">
      <path id="Path_249" data-name="Path 249" d="M-408.872,121.355c-.014.208-.03.415-.043.623a15.676,15.676,0,0,1-.46,2.93,16.15,16.15,0,0,1-3.257,6.4,16.27,16.27,0,0,1-5.731,4.419,16.145,16.145,0,0,1-4.419,1.327,16.067,16.067,0,0,1-3.311.158,16.206,16.206,0,0,1-6.067-1.528,16.269,16.269,0,0,1-5.028-3.68A16.226,16.226,0,0,1-440.8,125.8a15.979,15.979,0,0,1-.652-3.119,16.507,16.507,0,0,1-.023-3.326,16.13,16.13,0,0,1,2.008-6.429,16.222,16.222,0,0,1,2.944-3.8,16.282,16.282,0,0,1,5.53-3.5,16.169,16.169,0,0,1,3.551-.9,15.657,15.657,0,0,1,2.039-.149c.059,0,.118-.009.177-.014h.045c.044,0,.088.013.132.014a16.281,16.281,0,0,1,2.843.276,16.1,16.1,0,0,1,4.158,1.376,16.312,16.312,0,0,1,3.993,2.755,16.341,16.341,0,0,1,2.835,3.5,16.131,16.131,0,0,1,1.779,4.16,15.82,15.82,0,0,1,.528,3.188c.012.207.029.415.044.622Zm-1.427-.463a14.9,14.9,0,0,0-14.691-14.908,14.9,14.9,0,0,0-15.141,14.671,14.905,14.905,0,0,0,14.921,15.161A14.9,14.9,0,0,0-410.3,120.893Z" transform="translate(441.552 -104.55)"/>
      <path id="Path_250" data-name="Path 250" d="M-392.826,176.9c-.3-.2-.618-.379-.9-.6a4.45,4.45,0,0,1-1.5-2.03.772.772,0,0,1,.133-.853c-.156-.165-.315-.32-.459-.489a4.4,4.4,0,0,1-1.123-2.905.707.707,0,0,1,.513-.76.376.376,0,0,0,.042-.023,4.835,4.835,0,0,1-.427-1.186,4.49,4.49,0,0,1,.535-3.23.714.714,0,0,1,1.183-.066c.282.322.568.644.878.938a10.072,10.072,0,0,0,4.238,2.411c.5.142,1.016.225,1.525.334a.449.449,0,0,0,.071,0c.019-.23.029-.457.059-.681a4.5,4.5,0,0,1,1.176-2.5,4.558,4.558,0,0,1,2.788-1.47,4.354,4.354,0,0,1,3.351.925c.266.2.262.206.585.116a7.585,7.585,0,0,0,1.71-.7.7.7,0,0,1,1.055.483.789.789,0,0,1-.115.557c-.081.146-.169.288-.259.442a.715.715,0,0,1,.788.283.679.679,0,0,1,.007.8,7.246,7.246,0,0,1-1.233,1.4c-.177.159-.363.309-.541.468a.18.18,0,0,0-.054.121,11.882,11.882,0,0,1-.74,4.266,12.163,12.163,0,0,1-2.232,3.815,11.3,11.3,0,0,1-4.308,3.11,11.672,11.672,0,0,1-3.181.8,12.509,12.509,0,0,1-2.734.008,11.8,11.8,0,0,1-5.084-1.783.708.708,0,0,1-.129-1.156.744.744,0,0,1,.615-.17,6.4,6.4,0,0,0,3.1-.4c.212-.081.419-.174.628-.261A.307.307,0,0,0-392.826,176.9Zm12.634-10.594a.357.357,0,0,0-.059.022.714.714,0,0,1-.914-.19.724.724,0,0,0-.054-.057,3.135,3.135,0,0,0-2.789-.85,3.108,3.108,0,0,0-2.5,2.11,3.216,3.216,0,0,0-.092,1.828.68.68,0,0,1-.588.825,3.555,3.555,0,0,1-.723-.029,11.355,11.355,0,0,1-2.8-.646,12.04,12.04,0,0,1-4.049-2.5l-.309-.287a3.055,3.055,0,0,0-.149.6,3.053,3.053,0,0,0,.626,1.961,3.575,3.575,0,0,0,.806.768.705.705,0,0,1-.063,1.2.867.867,0,0,1-.735.013l-.507-.175a.819.819,0,0,0,.016.081,3.241,3.241,0,0,0,.962,1.467,3.231,3.231,0,0,0,1.455.719.7.7,0,0,1,.525.881.744.744,0,0,1-.677.53l-.465.051c.171.181.311.346.469.493a2.837,2.837,0,0,0,1.924.825.69.69,0,0,1,.634.484.689.689,0,0,1-.215.767c-.115.095-.237.181-.36.265a8.383,8.383,0,0,1-2.6,1.141c-.1.026-.2.048-.293.072l-.295.073a.457.457,0,0,0,.047.025,10.271,10.271,0,0,0,2.626.546,10.854,10.854,0,0,0,3.5-.338,9.759,9.759,0,0,0,4.784-2.9,10.719,10.719,0,0,0,2.114-3.443,10.93,10.93,0,0,0,.634-2.481,10.17,10.17,0,0,0,.079-1.729.741.741,0,0,1,.283-.648,1.319,1.319,0,0,0,.123-.13.713.713,0,0,1-.672-.512A.724.724,0,0,1-380.192,166.306Z" transform="translate(403.842 -155.181)"/>
    </g>
  </g>
</svg>
