<svg xmlns="http://www.w3.org/2000/svg" width="21.946" height="20.251" viewBox="0 0 21.946 20.251">
  <g id="nLnkT9" transform="translate(1026.509 313.086)">
    <g id="Group_117" data-name="Group 117" transform="translate(-1026.509 -313.086)">
      <path id="Path_35" data-name="Path 35" d="M-1027-302.417a4.81,4.81,0,0,1,1.307-2.708,1.879,1.879,0,0,0,.657-1.576,3.364,3.364,0,0,1,3.587-3.24.832.832,0,0,0,.817-.4,6.04,6.04,0,0,1,6.176-2.648,6.091,6.091,0,0,1,5.205,4.806.624.624,0,0,0,.427.509,5.473,5.473,0,0,1,3.688,4.5,2.331,2.331,0,0,0,.083.277v1.073c-.1.406-.169.821-.3,1.217a5.46,5.46,0,0,1-5.229,3.787c-.941-.037-1.885,0-2.828-.008-.481,0-.724-.214-.72-.6s.251-.59.733-.594c.992-.007,1.983,0,2.975,0a4.36,4.36,0,0,0,4.139-4.66,4.317,4.317,0,0,0-3.46-4.01.743.743,0,0,1-.583-.733,5.079,5.079,0,0,0-4.074-4.355,5.154,5.154,0,0,0-5.556,2.6c-.332.616-.416.654-1.072.49a2.241,2.241,0,0,0-2.755,2.716.911.911,0,0,1-.42,1.14,3.433,3.433,0,0,0-1.488,3.785,3.641,3.641,0,0,0,2.885,2.966,8.845,8.845,0,0,0,1.8.056c.715.007,1.43,0,2.146,0,.657,0,.924.169.938.59s-.259.607-.906.608c-1.073,0-2.148-.044-3.218.009a4.955,4.955,0,0,1-4.854-4.106c-.026-.14-.063-.278-.095-.417Z" transform="translate(1027 313.086)"/>
      <path id="Path_36" data-name="Path 36" d="M-950.742-233.83l-1.755,1.8c-.1.1-.2.214-.312.308a.575.575,0,0,1-.834,0,.538.538,0,0,1-.021-.825q1.621-1.653,3.271-3.276a.553.553,0,0,1,.83.045q1.592,1.578,3.168,3.173a.561.561,0,0,1,.039.863.578.578,0,0,1-.9-.038,27.164,27.164,0,0,0-2.139-2.011v.493q0,4.533,0,9.065a2.49,2.49,0,0,1-.04.531.482.482,0,0,1-.6.421,1.086,1.086,0,0,1-.531-.459c-.084-.129-.038-.347-.038-.525q0-4.459,0-8.919v-.581Z" transform="translate(960.981 243.503)"/>
    </g>
  </g>
</svg>
