<svg xmlns="http://www.w3.org/2000/svg" width="13.818" height="16.904" viewBox="0 0 13.818 16.904">
  <path id="Path_70" data-name="Path 70" d="M750.905,420.25a15.492,15.492,0,0,1-2.951-.272,7.869,7.869,0,0,1-2.589-.92,2.955,2.955,0,0,1-1.1-1.082,2.158,2.158,0,0,1-.262-1.085,7.159,7.159,0,0,1,.69-3.044,6.992,6.992,0,0,1,2.671-3.022.56.56,0,0,1,.694.031,4.57,4.57,0,0,0,1.389.748,4.672,4.672,0,0,0,4.328-.76.553.553,0,0,1,.676-.02,7.223,7.223,0,0,1,3.344,5.579,3.163,3.163,0,0,1-.048,1.1,2.444,2.444,0,0,1-.866,1.244,5.773,5.773,0,0,1-2,.978,10.55,10.55,0,0,1-2.073.408c-.632.059-1.265.1-1.9.141Zm.234-1.134c.238-.014.694-.034,1.15-.068a10.6,10.6,0,0,0,2.278-.413,4.684,4.684,0,0,0,1.573-.753,1.216,1.216,0,0,0,.532-1.177c-.054-.4-.077-.8-.169-1.185a5.931,5.931,0,0,0-2.279-3.477.116.116,0,0,0-.158-.014,5.7,5.7,0,0,1-3.64.921,5.631,5.631,0,0,1-2.639-.895.169.169,0,0,0-.234.011,6.075,6.075,0,0,0-2.423,4.838,1.008,1.008,0,0,0,.219.653,2.209,2.209,0,0,0,.663.559,6.261,6.261,0,0,0,1.762.662A14.718,14.718,0,0,0,751.139,419.117Zm-4.022-11.958a3.788,3.788,0,1,1,3.788,3.792A3.8,3.8,0,0,1,747.117,407.159Zm6.44,0a2.652,2.652,0,1,0-2.649,2.657A2.663,2.663,0,0,0,753.557,407.159Z" transform="translate(-744 -403.374)"/>
</svg>
