<svg xmlns="http://www.w3.org/2000/svg" width="751.712" height="158" viewBox="0 0 751.712 158">
  <g id="Group_20894" data-name="Group 20894" transform="translate(13981.667 4844)">
    <path id="Path_27896" data-name="Path 27896" d="M214,119a79,79,0,1,1-79-79A79,79,0,0,1,214,119Z" transform="translate(-13932.334 -4884)" fill="#ffa000"/>
    <path id="Path_27897" data-name="Path 27897" d="M182,119a79,79,0,1,1-79-79A79,79,0,0,1,182,119Z" transform="translate(-14005.667 -4884)" fill="#d32f2f"/>
    <g id="形状_1_3_" transform="translate(-13716.009 -5025.864)">
      <g id="形状_1">
        <g id="Group_20892" data-name="Group 20892">
          <path id="Path_27898" data-name="Path 27898" d="M211.328,184.445,187.863,328.653H225.4l23.468-144.208H211.328Zm-55.052,0L120.482,283.63l-4.234-21.358,0,.007-.933-4.787a119.588,119.588,0,0,0-33.31-42.223A150.189,150.189,0,0,0,65.3,203.71L97.834,328.653H136.95l59.733-144.208H156.276ZM302.8,224.48c0-16.3,36.563-14.209,52.629-5.356l5.357-30.972s-16.534-6.288-33.768-6.288c-18.632,0-62.875,8.148-62.875,47.739,0,37.26,51.928,37.723,51.928,57.285s-46.574,16.066-61.944,3.726l-5.586,32.373s16.763,8.148,42.382,8.148,64.272-13.271,64.272-49.37C355.192,244.272,302.8,240.78,302.8,224.48ZM456,184.445H425.812c-13.938,0-17.332,10.747-17.332,10.747L352.492,328.653h39.131l7.828-21.419h47.728l4.4,21.419h34.472Zm-45.727,93.2L430,223.675l11.1,53.966Z" fill="#fff" fill-rule="evenodd"/>
        </g>
      </g>
    </g>
    <g id="形状_1_2_" transform="translate(-13716.009 -5025.864)">
      <g id="形状_1_1_">
        <g id="Group_20893" data-name="Group 20893">
          <path id="Path_27899" data-name="Path 27899" d="M104.132,198.022s-1.554-13.015-18.144-13.015H25.715l-.706,2.446s28.972,5.906,56.767,28.033C108.338,236.634,117,263,117,263Z" fill="#f6ac1d" fill-rule="evenodd"/>
        </g>
      </g>
    </g>
  </g>
</svg>
