<?xml version="1.0" encoding="utf-8"?>
<!-- Generator: Adobe Illustrator 24.3.0, SVG Export Plug-In . SVG Version: 6.00 Build 0)  -->
<svg version="1.1" id="Capa_1" xmlns="http://www.w3.org/2000/svg" xmlns:xlink="http://www.w3.org/1999/xlink" x="0px" y="0px"
	 viewBox="0 0 123.6 123.6" style="enable-background:new 0 0 123.6 123.6;" xml:space="preserve">
<style type="text/css">
	.st0{fill:#FF971F;}
</style>
<path class="st0" d="M65.4,35.3c-19.6,0-35.6,16-35.6,35.6s16,35.6,35.6,35.6s35.6-16,35.6-35.6S85.1,35.3,65.4,35.3z M68.2,82.8
	v3.7h-4.7V83c-3.3-0.2-6.5-1.1-8.5-2.3l2.5-5.7c2.2,1.3,5.1,2.1,7.6,2.1c2.2,0,3-0.5,3-1.3c0-2.9-12.8-0.6-12.8-9.2
	c0-3.7,2.7-6.9,8.1-7.6v-3.6h4.7V59c2.4,0.2,4.8,0.9,6.7,1.9l-2.3,5.6c-2.3-1.2-4.4-1.7-6.4-1.7c-2.3,0-3,0.7-3,1.5
	c0,2.8,12.8,0.5,12.8,9C75.9,78.8,73.3,81.9,68.2,82.8L68.2,82.8z"/>
<path d="M20.1,42.7c6.5-10.6,16.6-18.6,28.4-22.5c11.5-3.8,23.6-3.7,35,0.4c8.9,3.2,16.8,8.7,22.8,15.9l-6.8,0l0,7.1l19.2,0v-19
	h-7.1v7.2c-6.8-8-15.8-14.3-25.8-17.9c-12.9-4.6-26.6-4.8-39.6-0.4C32.9,18,21.4,27,14,39C6.7,50.8,3.7,64.8,5.4,78.5l7-0.9
	C10.9,65.5,13.6,53.1,20.1,42.7L20.1,42.7z"/>
</svg>
