<?xml version="1.0" encoding="utf-8"?>
<!-- Generator: Adobe Illustrator 24.3.0, SVG Export Plug-In . SVG Version: 6.00 Build 0)  -->
<svg version="1.1" id="withdraw" xmlns="http://www.w3.org/2000/svg" xmlns:xlink="http://www.w3.org/1999/xlink" x="0px" y="0px"
	 viewBox="0 0 24.5 24.5" style="enable-background:new 0 0 24.5 24.5;" xml:space="preserve">
<style type="text/css">
	.st0{fill:#8E8E8E;}
</style>
<g id="wPjEya.tif" transform="translate(1841.587 1236.365)">
	<g id="Group_139" transform="translate(-1841.587 -1236.365)">
		<path id="Path_51" class="st0" d="M0.5,14.3V2.5C1,1.2,2.3,0.4,3.6,0.6c5.8,0,11.7,0,17.5,0c1.4-0.2,2.6,0.8,2.8,2.2
			c0,0.2,0,0.4,0,0.7c0,3.3,0,6.7,0,10c0.2,1.4-0.8,2.6-2.1,2.8c-0.2,0-0.4,0-0.7,0c-2.5,0-5,0-7.5,0c-0.4,0-0.5,0.1-0.5,0.5
			c0,1.2,0,2.3,0,3.5c0,0.2,0,0.3,0.1,0.4c0.5-0.5,0.8-0.9,1.2-1.3c0.4-0.4,1-0.4,1.3,0c0.4,0.3,0.4,0.9,0.1,1.3
			c-1.1,1.1-2.2,2.2-3.3,3.3h-0.7c-1-1-2.1-2.1-3.1-3.1c-0.5-0.3-0.6-1-0.2-1.4c0,0,0,0,0.1-0.1c0.4-0.5,1-0.4,1.5,0.1
			c0.3,0.3,0.6,0.7,0.9,1.1l0.2-0.1c0-1.2,0-2.4,0-3.7c0-0.5-0.1-0.7-0.6-0.7c-2.4,0-4.7,0-7.1,0C2.2,16.4,0.9,15.6,0.5,14.3z
			 M12.2,14.3c3,0,6,0,9,0c0.7,0,0.8-0.1,0.8-0.8c0-3.4,0-6.7,0-10.1c0-0.8-0.1-0.8-0.8-0.8H3.3c-0.8,0-0.9,0.1-0.9,0.8
			c0,3.3,0,6.7,0,10c0,0.8,0.1,0.9,0.9,0.9C6.3,14.3,9.3,14.3,12.2,14.3L12.2,14.3z"/>
		<path id="Path_52" class="st0" d="M11.3,10.4V9.4c-0.9,0.1-1.8-0.2-2.3-1C8.7,8,8.5,7.5,8.4,6.9c0-1.4,1-2.3,2.9-2.4l0.1-0.9h1.9
			l0.1,0.9c0.3,0,0.7,0,1,0c0.5-0.1,1,0.3,1.1,0.9c0,0,0,0.1,0,0.1c0,0.5-0.4,1-1,1c0,0-0.1,0-0.1,0c-0.3,0-0.7,0-1,0v0.9
			c0.9-0.1,1.8,0.3,2.3,1c0.4,0.5,0.5,1.1,0.5,1.7c-0.1,1.3-1.1,2.1-2.8,2.2l-0.1,0.9h-1.9l0-0.9c-0.3,0-0.7,0-1,0
			c-0.5,0.1-1-0.3-1.1-0.9c0,0,0-0.1,0-0.1c0-0.5,0.4-1,1-1c0,0,0.1,0,0.1,0C10.6,10.4,10.9,10.4,11.3,10.4z M11.3,6.3
			c-0.3,0.1-0.6,0.3-0.9,0.4c-0.1,0.1-0.1,0.3,0,0.4c0.3,0.1,0.6,0.3,0.8,0.4V6.3z M13.3,10.4c0.4,0,0.9,0.1,0.8-0.5
			c0-0.5-0.4-0.5-0.8-0.5V10.4z"/>
		<path id="Path_53" class="st0" d="M5.4,8.4c0,0.5-0.4,1-0.9,1c-0.5,0-1-0.4-1-1c0,0,0,0,0,0c0-0.5,0.4-1,1-1
			C4.9,7.5,5.4,7.9,5.4,8.4z"/>
		<path id="Path_54" class="st0" d="M21.1,8.4c0,0.5-0.4,1-1,1c-0.5,0-1-0.4-1-1c0,0,0,0,0,0c0-0.5,0.5-0.9,1-1
			C20.6,7.5,21,7.9,21.1,8.4z"/>
	</g>
</g>
</svg>
