<svg xmlns="http://www.w3.org/2000/svg" width="18.309" height="18.324" viewBox="0 0 18.309 18.324">
  <g id="wPjEya.tif" transform="translate(1841.587 1236.365)">
    <g id="Group_139" data-name="Group 139" transform="translate(-1841.587 -1236.365)">
      <path id="Path_51" data-name="Path 51" d="M-1841.587-1225.639v-9.246a2.26,2.26,0,0,1,2.438-1.48c4.562.038,9.124.015,13.685.016a1.949,1.949,0,0,1,2.185,2.2q0,3.914,0,7.827a1.932,1.932,0,0,1-2.173,2.166c-1.937,0-3.875.006-5.812-.006-.315,0-.427.089-.42.414.019.915.006,1.831.009,2.746a2.428,2.428,0,0,0,.07.349c.358-.38.633-.707.944-1a.733.733,0,0,1,1.035,0,.732.732,0,0,1,.063,1.033c-.85.872-1.728,1.718-2.594,2.574h-.55c-.814-.8-1.631-1.6-2.441-2.4a.8.8,0,0,1-.127-1.17c.334-.356.784-.334,1.2.089.26.267.485.568.725.854l.162-.115c0-.954-.019-1.908.009-2.861.012-.4-.093-.522-.506-.517-1.844.022-3.69-.028-5.532.023A2.16,2.16,0,0,1-1841.587-1225.639Zm9.13-.024q3.5,0,7,0c.56,0,.641-.082.641-.633q0-3.936,0-7.872c0-.6-.051-.647-.663-.647h-13.913c-.613,0-.664.05-.665.646q0,3.913,0,7.826c0,.614.067.68.687.68Q-1835.913-1225.662-1832.457-1225.663Z" transform="translate(1841.587 1236.365)"/>
      <path id="Path_52" data-name="Path 52" d="M-1827.169-1226.454v-.739a1.972,1.972,0,0,1-1.823-.753,2.454,2.454,0,0,1-.418-1.22c-.025-1.1.793-1.766,2.238-1.892l.041-.694h1.494l.051.72c.261,0,.529-.009.8,0a.769.769,0,0,1,.843.767.757.757,0,0,1-.84.764c-.257.007-.513,0-.8,0v.736a2.156,2.156,0,0,1,1.809.781,1.873,1.873,0,0,1,.379,1.33c-.078,1.025-.865,1.668-2.19,1.748l-.044.7h-1.5l-.037-.716c-.267,0-.535.006-.8,0a.763.763,0,0,1-.845-.76.774.774,0,0,1,.842-.77C-1827.716-1226.463-1827.46-1226.454-1827.169-1226.454Zm0-3.151a4.741,4.741,0,0,0-.675.339.343.343,0,0,0,.014.319,4.341,4.341,0,0,0,.661.275Zm1.584,3.136c.328.02.67.043.663-.366-.007-.391-.332-.4-.663-.353Z" transform="translate(1835.584 1234.091)"/>
      <path id="Path_53" data-name="Path 53" d="M-1835.546-1225.056a.783.783,0,0,1-.739.777.768.768,0,0,1-.787-.768.767.767,0,0,1,.756-.755A.778.778,0,0,1-1835.546-1225.056Z" transform="translate(1839.361 1231.157)"/>
      <path id="Path_54" data-name="Path 54" d="M-1811.479-1225.048a.772.772,0,0,1-.748.764.776.776,0,0,1-.779-.781.787.787,0,0,1,.772-.747A.787.787,0,0,1-1811.479-1225.048Z" transform="translate(1827.497 1231.163)"/>
    </g>
  </g>
</svg>
