<svg id="withdraw" xmlns="http://www.w3.org/2000/svg" width="24.527" height="24.527" viewBox="0 0 24.527 24.527">
  <g id="Group_213" data-name="Group 213">
    <g id="Group_212" data-name="Group 212">
      <path id="Path_107" data-name="Path 107" d="M173.991,264.085l-1.77,1.749v-8.876a.958.958,0,0,0-1.916,0v8.781l-1.674-1.654a.958.958,0,1,0-1.347,1.363l1.992,1.969a2.867,2.867,0,0,0,4.069,0l1.992-1.969a.958.958,0,1,0-1.347-1.363Z" transform="translate(-159 -243.737)" fill="#8e8e8e"/>
      <path id="Path_108" data-name="Path 108" d="M324.431,276a.958.958,0,0,0-.958.958,1.918,1.918,0,0,1-1.916,1.916h-4.6a.958.958,0,1,0,0,1.916h4.6a3.837,3.837,0,0,0,3.832-3.832A.958.958,0,0,0,324.431,276Z" transform="translate(-300.862 -262.779)" fill="#8e8e8e"/>
      <path id="Path_109" data-name="Path 109" d="M162.481,87.258a.958.958,0,0,0,1.324-.287,5.389,5.389,0,0,0,.871-2.92,4.849,4.849,0,1,0-9.677,0,5.266,5.266,0,0,0,.826,2.923.958.958,0,0,0,1.606-1.044,3.385,3.385,0,0,1-.516-1.879,2.939,2.939,0,1,1,5.844,0,3.477,3.477,0,0,1-.566,1.882A.958.958,0,0,0,162.481,87.258Z" transform="translate(-147.575 -75.099)" fill="#8e8e8e"/>
      <ellipse id="Ellipse_20" data-name="Ellipse 20" cx="0.883" cy="1.103" rx="0.883" ry="1.103" transform="translate(18.883 7.85)" fill="#8e8e8e"/>
      <ellipse id="Ellipse_21" data-name="Ellipse 21" cx="0.883" cy="1.103" rx="0.883" ry="1.103" transform="translate(3.879 7.85)" fill="#8e8e8e"/>
      <path id="Path_110" data-name="Path 110" d="M20.694,0H3.832A3.837,3.837,0,0,0,0,3.832V14.18a3.837,3.837,0,0,0,3.832,3.832h4.6a.958.958,0,0,0,0-1.916h-4.6A1.918,1.918,0,0,1,1.916,14.18V3.832A1.918,1.918,0,0,1,3.832,1.916H20.694a1.918,1.918,0,0,1,1.916,1.916V9.389a.958.958,0,1,0,1.916,0V3.832A3.837,3.837,0,0,0,20.694,0Z" fill="#8e8e8e"/>
    </g>
  </g>
</svg>
