<svg xmlns="http://www.w3.org/2000/svg" width="34" height="34" viewBox="0 0 34 34">
  <g id="Group_262" data-name="Group 262" transform="translate(-768 -612)">
    <rect id="Rectangle_324" data-name="Rectangle 324" width="34" height="34" transform="translate(768 612)" fill="#fff"/>
    <g id="Group_259" data-name="Group 259" transform="translate(-817.273 547.117)">
      <path id="Path_133" data-name="Path 133" d="M1614.141,108.855c-.385,2.452-.969,4.86-1.576,7.264-.087.344-.3.332-.559.333-3.206.017-6.412.044-9.618.061q-5.434.03-10.868.05a8.4,8.4,0,0,1-1.263.03c-.1,0-.171-.033-.151-.153l16.445-13.353q3.331-2.705,6.662-5.411c.115-.093.2-.264.518-.207l-10.28,12.555c.137.166.291.088.42.088,2.319,0,4.641-.088,6.955.013a3.318,3.318,0,0,0,3.192-1.62C1614.283,108.542,1614.141,108.724,1614.141,108.855Z" transform="translate(-0.739 -23.685)" fill="#e2000f"/>
      <path id="Path_134" data-name="Path 134" d="M1611.052,77.619c-.668,0-1.336.006-2-.006a2.713,2.713,0,0,0-2.138.865c-.058.063-.111.146-.232.1.629-2.286,1.254-4.574,1.892-6.859.05-.181-.006-.47.32-.482a1.869,1.869,0,0,0,.645.037q10,0,20.008.012c.173,0,.44-.174.542.148l-22.92,18.711-.128-.129,10.125-12.269c.02-.164-.1-.169-.205-.168C1614.988,77.6,1613.019,77.525,1611.052,77.619Z" transform="translate(-15.512 -0.316)" fill="#858685"/>
      <path id="Path_135" data-name="Path 135" d="M1648.214,71.119c-.184-.178-.414-.093-.621-.093q-9.972-.014-19.943-.021c-.211,0-.437.068-.63-.083,1.048-.007,2.1-.021,3.144-.021q8.84.006,17.679.026C1647.965,70.927,1648.256,70.745,1648.214,71.119Z" transform="translate(-33.641)" fill="#b0b0b0"/>
      <path id="Path_136" data-name="Path 136" d="M1646.892,128.927a1.96,1.96,0,0,1,.364-.07c1.824-.007,3.648-.012,5.473,0,.079,0,.435-.2.273.2-.177-.188-.407-.1-.612-.1C1650.557,128.939,1648.724,128.935,1646.892,128.927Z" transform="translate(-51.352 -51.625)" fill="#d7d8d7"/>
      <path id="Path_137" data-name="Path 137" d="M1589.367,271.994c.456.222.95,0,1.414.123a5.015,5.015,0,0,1-1.384.07C1589.248,272.192,1589.229,272.083,1589.367,271.994Z" transform="translate(0 -179.237)" fill="#f2949a"/>
      <path id="Path_138" data-name="Path 138" d="M1810.1,196c-.055-.112.025-.271-.124-.35a.578.578,0,0,1,.287-.413A2.188,2.188,0,0,1,1810.1,196Z" transform="translate(-196.7 -110.83)" fill="#e93f4a"/>
    </g>
  </g>
</svg>
