<svg xmlns="http://www.w3.org/2000/svg" width="112.003" height="32.464" viewBox="0 0 112.003 32.464">
  <g id="dafribank-logo" transform="translate(-105.518 -69.959)">
    <path id="Path_1" data-name="Path 1" d="M135.522,69.959H109.3a3.783,3.783,0,0,0-3.782,3.782v24.9a3.783,3.783,0,0,0,3.782,3.782h26.22a3.783,3.783,0,0,0,3.782-3.782v-24.9a3.783,3.783,0,0,0-3.782-3.781m-4.14,14.067h0l-1.208,7.1a5.079,5.079,0,0,1-1.757,3.058,4.767,4.767,0,0,1-3.2,1.267H112.91l1.962-11.43Zm.474-2.781-.21,1.238H115.137l.956-5.56H128.4a3.361,3.361,0,0,1,2.52,1.019,3.522,3.522,0,0,1,.993,2.564,4.693,4.693,0,0,1-.06.743"/>
    <g id="Group_1" data-name="Group 1" transform="translate(142.3 79.827)">
      <path id="Path_2" data-name="Path 2" d="M180.911,93.619a5.766,5.766,0,0,1-6.086,6.192h-4.784V87.637h4.784a5.751,5.751,0,0,1,6.086,5.983M172.32,97.6h2.5a3.9,3.9,0,0,0,0-7.791h-2.5Z" transform="translate(-170.042 -87.428)"/>
      <path id="Path_3" data-name="Path 3" d="M196.7,93.786h2.033v8.573h-2l-.1-1.252a3.261,3.261,0,0,1-2.786,1.514c-2.537.016-4.417-1.548-4.417-4.556a4.175,4.175,0,0,1,4.468-4.49,3.145,3.145,0,0,1,2.73,1.393Zm-5.146,4.278a2.455,2.455,0,0,0,2.295,2.6,1.806,1.806,0,0,0,.244,0c3.338,0,3.338-5.2,0-5.2a2.441,2.441,0,0,0-2.541,2.337,2.509,2.509,0,0,0,0,.254" transform="translate(-178.374 -89.976)"/>
      <path id="Path_4" data-name="Path 4" d="M207.391,99.652v-6.59h-1.6V91.205h1.6V90.63a3.1,3.1,0,0,1,3.267-3.355,4.14,4.14,0,0,1,2.227.7L212.1,89.55a2.359,2.359,0,0,0-1.3-.453c-.73,0-1.285.488-1.285,1.531V91.2h2.52v1.858h-2.52v6.59Z" transform="translate(-185.413 -87.27)"/>
      <path id="Path_5" data-name="Path 5" d="M219.807,93.774l.154.99a2.53,2.53,0,0,1,2.418-1.218,3.26,3.26,0,0,1,2.209.817l-.953,1.844a2.112,2.112,0,0,0-1.531-.556,1.978,1.978,0,0,0-2.139,2.174v4.521h-2.121V93.774Z" transform="translate(-190.595 -89.963)"/>
      <path id="Path_6" data-name="Path 6" d="M231.722,88.772a1.252,1.252,0,1,1-1.249-1.25,1.252,1.252,0,0,1,1.249,1.25m-2.311,10.991h2.122V91.154h-2.122Z" transform="translate(-195.486 -87.379)"/>
      <path id="Path_7" data-name="Path 7" d="M245.221,91.168a2.477,2.477,0,0,1-1.581,2.348,2.969,2.969,0,0,1,1.947,2.713c0,2.713-2.036,3.58-4.556,3.58h-5.773V87.637h5.773c2.4,0,4.191,1.08,4.191,3.531m-7.7,1.356h3.511c1.443,0,1.912-.609,1.912-1.305,0-.556-.451-1.5-1.912-1.5h-3.511Zm0,5.147h3.511c.939,0,2.277-.31,2.277-1.46,0-1.1-1.339-1.67-2.277-1.67h-3.511Z" transform="translate(-198.082 -87.428)"/>
      <path id="Path_8" data-name="Path 8" d="M260.847,93.786h2.033v8.573h-2l-.1-1.252A3.258,3.258,0,0,1,258,102.621c-2.539.016-4.418-1.548-4.418-4.556a4.175,4.175,0,0,1,4.468-4.49,3.144,3.144,0,0,1,2.73,1.393ZM255.7,98.064a2.456,2.456,0,0,0,2.3,2.6,1.794,1.794,0,0,0,.243,0c3.338,0,3.338-5.2,0-5.2A2.441,2.441,0,0,0,255.7,97.8a2.536,2.536,0,0,0,0,.254" transform="translate(-205.954 -89.976)"/>
      <path id="Path_9" data-name="Path 9" d="M277.8,102.422V97.933a2.045,2.045,0,0,0-2.069-2.295,2.255,2.255,0,0,0-2.2,2.314v4.467h-2.1V93.832h1.9L273.47,95a3.866,3.866,0,0,1,2.816-1.286c2.017,0,3.638,1.512,3.638,4.207v4.5H277.8Z" transform="translate(-213.637 -90.04)"/>
      <path id="Path_10" data-name="Path 10" d="M290.027,87.67V94.7l2.886-3.444h2.539v.121l-3.495,3.913,3.982,4.381v.155h-2.554l-3.356-3.877v3.877H287.9V87.67Z" transform="translate(-220.718 -87.442)"/>
      <path id="Path_11" data-name="Path 11" d="M203.6,112.911a.919.919,0,0,1-.28.717,1.04,1.04,0,0,1-.732.244,2.7,2.7,0,0,1-.465-.038v-1.749a2.621,2.621,0,0,1,.525-.047,1.024,1.024,0,0,1,.686.213.82.82,0,0,1,.268.66m-.343,0a.608.608,0,0,0-.154-.438.563.563,0,0,0-.426-.155,1.062,1.062,0,0,0-.233.024v1.229a.946.946,0,0,0,.2.021.569.569,0,0,0,.457-.193.738.738,0,0,0,.154-.484" transform="translate(-183.835 -97.918)"/>
      <rect id="Rectangle_1" data-name="Rectangle 1" width="0.321" height="1.777" transform="translate(21.347 14.149)"/>
      <path id="Path_12" data-name="Path 12" d="M212.382,113.734a1.309,1.309,0,0,1-.586.141.96.96,0,0,1-.681-.247.866.866,0,0,1-.264-.666.9.9,0,0,1,.254-.683.956.956,0,0,1,.687-.236,1.38,1.38,0,0,1,.532.119l-.108.27a1.156,1.156,0,0,0-.451-.106.531.531,0,0,0-.416.164.619.619,0,0,0-.155.434.733.733,0,0,0,.146.475.554.554,0,0,0,.446.192.769.769,0,0,0,.283-.044.526.526,0,0,1-.009-.085v-.542h.319Z" transform="translate(-187.588 -97.921)"/>
      <rect id="Rectangle_2" data-name="Rectangle 2" width="0.321" height="1.777" transform="translate(26.443 14.149)"/>
      <path id="Path_13" data-name="Path 13" d="M221,112.369h-.547v1.5h-.321v-1.5h-.516v-.28h1.389Z" transform="translate(-191.358 -97.942)"/>
      <path id="Path_14" data-name="Path 14" d="M225.841,113.864h-.36l-.174-.451h-.677l-.176.449h-.345l.727-1.78h.31Zm-.641-.734-.232-.6-.233.6Z" transform="translate(-193.289 -97.939)"/>
      <path id="Path_15" data-name="Path 15" d="M230.815,113.866h-1.049v-1.78h.322v1.5h.727Z" transform="translate(-195.721 -97.94)"/>
      <path id="Path_16" data-name="Path 16" d="M238.8,113.352q0,.521-.745.519a2.228,2.228,0,0,1-.443-.047v-1.736a2.5,2.5,0,0,1,.447-.052q.676,0,.676.5a.384.384,0,0,1-.072.232.445.445,0,0,1-.188.155v0a.407.407,0,0,1,.239.15.455.455,0,0,1,.087.277m-.392-.8a.2.2,0,0,0-.1-.2.584.584,0,0,0-.232-.037.907.907,0,0,0-.141.015v.457h.154c.212,0,.318-.078.318-.238m.061.78c0-.174-.124-.26-.371-.26h-.165v.5a.954.954,0,0,0,.145.013c.26,0,.387-.084.387-.254" transform="translate(-199.097 -97.918)"/>
      <path id="Path_17" data-name="Path 17" d="M243.9,113.862h-.361l-.174-.451h-.677l-.174.447h-.345l.727-1.78h.31Zm-.641-.734-.233-.6-.232.6Z" transform="translate(-201.054 -97.937)"/>
      <path id="Path_18" data-name="Path 18" d="M249.389,113.841a.528.528,0,0,1-.192.039.4.4,0,0,1-.361-.226l-.653-1.14a.7.7,0,0,1-.034-.064h-.006v1.409h-.321v-1.78h.481l.719,1.316.039.078h0V112.08h.321v1.761Z" transform="translate(-203.485 -97.938)"/>
      <path id="Path_19" data-name="Path 19" d="M254.877,113.868h-.421l-.527-.632a.524.524,0,0,0-.121-.115H253.8v.75h-.322v-1.78h.322v.689l.615-.688h.422l-.789.869a.234.234,0,0,1,.108.078Z" transform="translate(-205.918 -97.942)"/>
      <path id="Path_20" data-name="Path 20" d="M263.476,112.956a.949.949,0,0,1-.215.649.851.851,0,0,1-1.2.026l-.026-.026a.963.963,0,0,1-.216-.653.977.977,0,0,1,.211-.654.858.858,0,0,1,1.214-.025l.025.025a.983.983,0,0,1,.209.654m-.344,0a.789.789,0,0,0-.111-.437.455.455,0,0,0-.754,0,.815.815,0,0,0-.107.437.793.793,0,0,0,.11.434.425.425,0,0,0,.376.2.417.417,0,0,0,.374-.2.783.783,0,0,0,.111-.434" transform="translate(-209.501 -97.918)"/>
      <path id="Path_21" data-name="Path 21" d="M268.532,112.366h-.7v.436h.59v.271h-.59v.788h-.321v-1.78h1.026Z" transform="translate(-211.948 -97.938)"/>
      <path id="Path_22" data-name="Path 22" d="M276.848,113.864h-.36l-.174-.451h-.677l-.176.449h-.345l.728-1.78h.31Zm-.64-.734-.232-.6-.232.6Z" transform="translate(-215.22 -97.939)"/>
      <path id="Path_23" data-name="Path 23" d="M281.8,112.366h-.7v.436h.59v.271h-.59v.788h-.321v-1.78H281.8Z" transform="translate(-217.652 -97.938)"/>
      <path id="Path_24" data-name="Path 24" d="M286.608,113.851h-.38l-.357-.6a.551.551,0,0,0-.088-.117h-.055c.005,0-.034,0-.116-.009v.72h-.321V112.1a2.052,2.052,0,0,1,.457-.054c.465,0,.692.18.692.542a.5.5,0,0,1-.111.31.44.44,0,0,1-.267.167v.005c.038,0,.086.05.145.14Zm-.5-1.273c0-.171-.112-.255-.34-.255a.749.749,0,0,0-.155.015v.535a.946.946,0,0,0,.145.011.384.384,0,0,0,.245-.078.283.283,0,0,0,.1-.232" transform="translate(-219.596 -97.922)"/>
      <rect id="Rectangle_3" data-name="Rectangle 3" width="0.321" height="1.777" transform="translate(68.501 14.149)"/>
      <path id="Path_25" data-name="Path 25" d="M294.941,113.755a1.048,1.048,0,0,1-.47.117.868.868,0,0,1-.649-.255.9.9,0,0,1-.25-.657.952.952,0,0,1,.232-.659.793.793,0,0,1,.625-.259,1.242,1.242,0,0,1,.507.119l-.105.266a1.016,1.016,0,0,0-.406-.1.445.445,0,0,0-.38.185.658.658,0,0,0-.129.418.7.7,0,0,0,.149.471.556.556,0,0,0,.446.187.787.787,0,0,0,.347-.083Z" transform="translate(-223.155 -97.921)"/>
      <path id="Path_26" data-name="Path 26" d="M300.166,113.864H299.8l-.174-.451h-.677l-.175.449h-.345l.728-1.78h.3Zm-.639-.734-.233-.6-.232.6Z" transform="translate(-225.246 -97.939)"/>
    </g>
  </g>
</svg>
