<?xml version="1.0" encoding="utf-8"?>
<!-- Generator: Adobe Illustrator 23.0.1, SVG Export Plug-In . SVG Version: 6.00 Build 0)  -->
<svg version="1.1" id="Layer_1" xmlns="http://www.w3.org/2000/svg" xmlns:xlink="http://www.w3.org/1999/xlink" x="0px" y="0px"
	 viewBox="0 0 841.89 595.28" style="enable-background:new 0 0 841.89 595.28;" xml:space="preserve">
<style type="text/css">
	.st0{fill:#0A0A0A;}
	.st1{fill:#FFFFFF;}
</style>
<path class="st0" d="M264.44,405.52H96.85c-13.35,0-24.17-10.82-24.17-24.17V222.23c0-13.35,10.82-24.17,24.17-24.17h167.59
	c13.35,0,24.17,10.82,24.17,24.17v159.12C288.61,394.7,277.79,405.52,264.44,405.52z"/>
<g>
	<path class="st1" d="M237.96,287.97l-7.72,45.42c-1.28,7.64-5.02,14.15-11.22,19.55c-6.21,5.4-13.02,8.1-20.43,8.1h-78.67
		l12.54-73.06h34.3h36.54H237.96z M241.37,265.45c0,1.58-0.13,3.16-0.38,4.74l-1.34,7.9H134.15l6.1-35.55h78.67
		c6.52,0,11.9,2.17,16.12,6.52C239.26,253.41,241.37,258.87,241.37,265.45z"/>
</g>
<g>
	<path class="st0" d="M377.23,300.71c0.33,19.67-11.67,39.57-38.9,39.57c-9.56,0-21.01,0-30.56,0v-77.8c9.56,0,21.01,0,30.56,0
		C365,262.47,376.89,281.48,377.23,300.71z M322.32,326.16h16c17.67,0,24.67-12.89,24.34-25.56c-0.33-12.11-7.45-24.23-24.34-24.23
		h-16V326.16z"/>
	<path class="st0" d="M424.91,285.48h13v54.79h-12.78l-0.67-8c-3.11,6.45-11.67,9.56-17.78,9.67c-16.23,0.11-28.23-9.89-28.23-29.12
		c0-18.89,12.56-28.79,28.56-28.67c7.34,0,14.34,3.45,17.45,8.89L424.91,285.48z M392.01,312.82c0,10.45,7.22,16.67,16.23,16.67
		c21.34,0,21.34-33.23,0-33.23C399.23,296.26,392.01,302.37,392.01,312.82z"/>
	<path class="st0" d="M448.24,340.27v-42.12h-10.23v-11.89h10.23v-3.67c0-14.67,9.89-21.45,20.89-21.45c4.78,0,9.78,1.56,14.23,4.45
		l-5,10.11c-2.89-1.89-5.56-2.89-8.33-2.89c-4.67,0-8.23,3.11-8.23,9.78v3.67h16.12v11.89H461.8v42.12H448.24z"/>
	<path class="st0" d="M494.48,285.48l1,6.34c4.22-6.78,9.89-7.78,15.45-7.78c5.67,0,11.11,2.22,14.11,5.22l-6.11,11.78
		c-2.78-2.33-5.33-3.56-9.78-3.56c-7.11,0-13.67,3.78-13.67,13.89v28.9h-13.56v-54.79H494.48z"/>
	<path class="st0" d="M539.38,270.03c0,10.56-16,10.56-16,0C523.37,259.47,539.38,259.47,539.38,270.03z M524.6,285.26v55.01h13.56
		v-55.01H524.6z"/>
	<path class="st0" d="M609.06,285.03c0,6-2.89,11.78-10.11,15c9.11,2.78,12.45,12.45,12.45,17.34c0,17.34-13,22.89-29.12,22.89
		c-12.34,0-24.56,0-36.9,0v-77.8c12.22,0,24.56,0,36.9,0C597.62,262.47,609.06,269.36,609.06,285.03z M559.83,293.7h22.45
		c9.23,0,12.23-3.89,12.23-8.34c0-3.56-2.89-9.56-12.23-9.56h-22.45V293.7z M559.83,326.6h22.45c6,0,14.56-2,14.56-9.34
		c0-7-8.56-10.67-14.56-10.67h-22.45V326.6z"/>
	<path class="st0" d="M658.63,285.48h13v54.79h-12.78l-0.67-8c-3.11,6.45-11.67,9.56-17.78,9.67c-16.23,0.11-28.23-9.89-28.23-29.12
		c0-18.89,12.56-28.79,28.56-28.67c7.34,0,14.34,3.45,17.45,8.89L658.63,285.48z M625.73,312.82c0,10.45,7.22,16.67,16.23,16.67
		c21.34,0,21.34-33.23,0-33.23C632.96,296.26,625.73,302.37,625.73,312.82z"/>
	<path class="st0" d="M717.87,340.27V311.6c0-8.34-4.56-14.67-13.22-14.67c-8.34,0-14,7-14,15.34v28.01h-13.45v-54.9h12.11
		l0.89,7.45c5.56-5.45,11.11-8.22,18-8.22c12.89,0,23.23,9.67,23.23,26.9v28.79H717.87z"/>
	<path class="st0" d="M750.77,262.58v44.9l18.45-22.01h16.23v0.78l-22.34,25.01l25.45,28.01v1h-16.34l-21.45-24.78v24.78h-13.56
		v-77.69H750.77z"/>
</g>
<g>
	<path class="st0" d="M434.09,356.95c0,1.97-0.6,3.5-1.79,4.58c-1.14,1.04-2.7,1.56-4.68,1.56c-1.1,0-2.09-0.08-2.99-0.25v-11.18
		c0.94-0.2,2.06-0.3,3.35-0.3c1.86,0,3.32,0.45,4.39,1.36C433.52,353.71,434.09,355.12,434.09,356.95z M431.89,356.97
		c0-1.2-0.32-2.13-0.97-2.8c-0.65-0.67-1.55-1-2.73-1c-0.58,0-1.08,0.05-1.51,0.15v7.85c0.38,0.09,0.82,0.13,1.3,0.13
		c1.25,0,2.22-0.41,2.92-1.23C431.56,359.29,431.89,358.25,431.89,356.97z"/>
	<path class="st0" d="M446.27,362.92h-2.05v-11.36h2.05V362.92z"/>
	<path class="st0" d="M466.24,362.2c-1.22,0.6-2.46,0.9-3.75,0.9c-1.77,0-3.23-0.53-4.35-1.59c-1.13-1.06-1.69-2.48-1.69-4.26
		c0-1.87,0.54-3.33,1.63-4.37c1.06-1.01,2.52-1.51,4.39-1.51c1.04,0,2.17,0.25,3.4,0.76l-0.69,1.73c-1.05-0.45-2.02-0.68-2.89-0.68
		c-1.13,0-2.01,0.35-2.66,1.06c-0.65,0.7-0.97,1.63-0.97,2.78c0,1.26,0.31,2.28,0.94,3.04c0.68,0.81,1.63,1.21,2.86,1.21
		c0.74,0,1.35-0.09,1.81-0.28c-0.03-0.19-0.05-0.37-0.05-0.55v-3.49h2.04V362.2z"/>
	<path class="st0" d="M478.83,362.92h-2.05v-11.36h2.05V362.92z"/>
	<path class="st0" d="M497.24,353.35h-3.52v9.57h-2.05v-9.57h-3.3v-1.8h8.87V353.35z"/>
	<path class="st0" d="M515.82,362.92h-2.3l-1.12-2.89h-4.34l-1.12,2.87l-2.2,0.02l4.65-11.36h1.96L515.82,362.92z M511.73,358.23
		l-1.48-3.84l-1.46,3.84H511.73z"/>
	<path class="st0" d="M532.07,362.92h-6.7v-11.36h2.05v9.57h4.65V362.92z"/>
	<path class="st0" d="M561.57,359.78c0,2.21-1.59,3.32-4.77,3.32c-0.86,0-1.81-0.1-2.83-0.3v-11.09c1.14-0.22,2.09-0.33,2.86-0.33
		c2.88,0,4.32,1.07,4.32,3.21c0,0.53-0.16,1.02-0.47,1.46c-0.31,0.44-0.72,0.77-1.21,0.98v0.03c0.65,0.16,1.15,0.48,1.53,0.97
		C561.39,358.52,561.57,359.1,561.57,359.78z M559.06,354.65c0-0.6-0.22-1.01-0.66-1.25c-0.32-0.16-0.8-0.23-1.46-0.23
		c-0.27,0-0.58,0.03-0.9,0.08v2.92h1C558.39,356.17,559.06,355.66,559.06,354.65z M559.45,359.63c0-1.11-0.79-1.66-2.37-1.66h-1.05
		v3.21c0.33,0.06,0.64,0.08,0.92,0.08C558.62,361.26,559.45,360.71,559.45,359.63z"/>
	<path class="st0" d="M581.62,362.92h-2.3l-1.12-2.89h-4.34l-1.12,2.87l-2.2,0.02l4.65-11.36h1.96L581.62,362.92z M577.53,358.23
		l-1.48-3.84l-1.46,3.84H577.53z"/>
	<path class="st0" d="M601.16,362.78c-0.42,0.17-0.82,0.25-1.22,0.25c-1,0-1.77-0.48-2.32-1.45l-4.17-7.29
		c-0.09-0.16-0.16-0.29-0.21-0.42h-0.03v9.04h-2.05v-11.36h3.07l4.6,8.42c0.05,0.11,0.14,0.28,0.25,0.5h0.03v-8.92h2.05V362.78z"/>
	<path class="st0" d="M620.7,362.92H618l-3.37-4.05c-0.3-0.36-0.55-0.6-0.77-0.73h-0.03v4.78h-2.05v-11.36h2.05v4.4l3.93-4.4h2.69
		l-5.04,5.55c0.25,0.08,0.48,0.24,0.69,0.48L620.7,362.92z"/>
	<path class="st0" d="M652.76,357.25c0,1.71-0.46,3.09-1.38,4.15c-0.96,1.13-2.28,1.69-3.94,1.69c-1.66,0-2.97-0.56-3.93-1.68
		c-0.92-1.07-1.38-2.46-1.38-4.17c0-1.73,0.45-3.12,1.35-4.19c0.96-1.13,2.28-1.69,3.96-1.69c1.69,0,3.01,0.56,3.98,1.69
		C652.31,354.13,652.76,355.53,652.76,357.25z M650.56,357.25c0-1.14-0.24-2.08-0.71-2.81c-0.55-0.85-1.35-1.28-2.42-1.28
		c-1.06,0-1.87,0.43-2.41,1.28c-0.46,0.73-0.69,1.67-0.69,2.81c0,1.12,0.24,2.04,0.71,2.77c0.56,0.85,1.36,1.28,2.4,1.28
		c1.05,0,1.85-0.43,2.4-1.28C650.32,359.3,650.56,358.37,650.56,357.25z"/>
	<path class="st0" d="M669.44,353.35h-4.5v2.79h3.76v1.73h-3.76v5.05h-2.05v-11.36h6.55V353.35z"/>
	<path class="st0" d="M701.67,362.92h-2.3l-1.12-2.89h-4.34l-1.12,2.87l-2.2,0.02l4.65-11.36h1.96L701.67,362.92z M697.58,358.23
		l-1.48-3.84l-1.46,3.84H697.58z"/>
	<path class="st0" d="M717.77,353.35h-4.5v2.79h3.76v1.73h-3.76v5.05h-2.05v-11.36h6.55V353.35z"/>
	<path class="st0" d="M736.09,362.92h-2.43l-2.28-3.8c-0.21-0.34-0.39-0.59-0.56-0.75c-0.03,0-0.09,0-0.16,0
		c-0.08,0.01-0.14,0.02-0.18,0.02c0.03,0-0.21-0.02-0.74-0.05v4.59h-2.05v-11.19c1.06-0.23,2.04-0.35,2.92-0.35
		c2.95,0,4.42,1.16,4.42,3.47c0,0.74-0.24,1.41-0.71,1.99c-0.47,0.58-1.04,0.94-1.71,1.06v0.03c0.24,0.01,0.55,0.31,0.92,0.9
		L736.09,362.92z M732.87,354.79c0-1.09-0.72-1.64-2.17-1.64c-0.32,0-0.64,0.03-0.97,0.1v3.42c0.3,0.04,0.6,0.07,0.92,0.07
		c0.65,0,1.17-0.16,1.56-0.48C732.65,355.9,732.87,355.41,732.87,354.79z"/>
	<path class="st0" d="M747.65,362.92h-2.05v-11.36h2.05V362.92z"/>
	<path class="st0" d="M766.59,362.34c-1.01,0.5-2.01,0.75-3.01,0.75c-1.7,0-3.08-0.54-4.15-1.63c-1.07-1.09-1.6-2.49-1.6-4.2
		c0-1.71,0.49-3.11,1.49-4.21c0.99-1.1,2.32-1.65,4-1.65c1.03,0,2.11,0.25,3.24,0.76l-0.67,1.69c-0.97-0.43-1.84-0.65-2.6-0.65
		c-1.03,0-1.84,0.39-2.43,1.18c-0.55,0.71-0.82,1.6-0.82,2.67c0,1.26,0.32,2.27,0.95,3.02c0.68,0.8,1.63,1.2,2.86,1.2
		c0.74,0,1.48-0.18,2.22-0.53L766.59,362.34z"/>
	<path class="st0" d="M786.63,362.92h-2.3l-1.12-2.89h-4.34l-1.12,2.87l-2.2,0.02l4.65-11.36h1.96L786.63,362.92z M782.54,358.23
		l-1.48-3.84l-1.46,3.84H782.54z"/>
</g>
</svg>
