<svg width="145" height="42" viewBox="0 0 145 42" fill="none" xmlns="http://www.w3.org/2000/svg">
<g clip-path="url(#clip0_62_194)">
<path d="M65.8182 2.80652C62.7759 2.80652 59.942 3.56306 57.4832 4.86869V2.80652H47.7592V40.6334H57.4832V31.2499C59.942 32.5555 62.7759 33.312 65.8182 33.312C75.0283 33.312 82.488 26.4788 82.488 18.0593C82.488 9.63976 75.0283 2.80652 65.8182 2.80652V2.80652ZM66.5127 24.7705C61.6507 24.7705 58.8724 21.4881 58.8724 17.4492C58.8724 13.4102 62.2897 10.1278 66.5127 10.1278C70.7358 10.1278 74.1531 13.4102 74.1531 17.4492C74.1531 21.4881 70.7358 24.7705 66.5127 24.7705Z" fill="white"/>
<path d="M104.715 2.80652V5.4422C102.506 3.7827 99.7136 2.80652 96.449 2.80652C85.697 2.80652 81.0989 9.3591 81.0989 17.4492C81.0989 25.5392 87.2389 32.0918 96.449 32.0918C99.7136 32.0918 102.506 31.1156 104.715 29.4561V32.0918H114.439V2.80652H104.715ZM97.5604 24.7217C92.6983 24.7217 89.92 21.4393 89.92 17.4004C89.92 13.3614 93.3373 10.079 97.5604 10.079C101.783 10.079 105.201 13.3614 105.201 17.4004C105.201 21.4393 101.783 24.7217 97.5604 24.7217Z" fill="white"/>
<path d="M114.439 2.80652V10.921L122.774 29.6514L117.217 40.6334H128.136L145 2.80652H134.692L128.33 18.6694L121.704 2.80652H114.439Z" fill="white"/>
<path d="M68.364 37.7746H69.36C69.5413 37.7746 69.6907 37.7999 69.808 37.8506C69.9253 37.8986 70.0173 37.9612 70.084 38.0386C70.1533 38.1132 70.2013 38.1986 70.228 38.2946C70.2547 38.3879 70.268 38.4786 70.268 38.5666C70.268 38.6546 70.2547 38.7466 70.228 38.8426C70.2013 38.9359 70.1533 39.0212 70.084 39.0986C70.0173 39.1732 69.9253 39.2359 69.808 39.2866C69.6907 39.3346 69.5413 39.3586 69.36 39.3586H68.748V40.6066H68.364V37.7746ZM68.748 39.0226H69.252C69.3267 39.0226 69.4 39.0172 69.472 39.0066C69.5467 38.9932 69.612 38.9706 69.668 38.9386C69.7267 38.9066 69.7733 38.8612 69.808 38.8026C69.8427 38.7412 69.86 38.6626 69.86 38.5666C69.86 38.4706 69.8427 38.3932 69.808 38.3346C69.7733 38.2732 69.7267 38.2266 69.668 38.1946C69.612 38.1626 69.5467 38.1412 69.472 38.1306C69.4 38.1172 69.3267 38.1106 69.252 38.1106H68.748V39.0226ZM70.9351 39.6586C70.9351 39.7546 70.9498 39.8439 70.9791 39.9266C71.0084 40.0066 71.0498 40.0759 71.1031 40.1346C71.1564 40.1906 71.2218 40.2359 71.2991 40.2706C71.3764 40.3026 71.4631 40.3186 71.5591 40.3186C71.6551 40.3186 71.7418 40.3026 71.8191 40.2706C71.8964 40.2359 71.9618 40.1906 72.0151 40.1346C72.0684 40.0759 72.1098 40.0066 72.1391 39.9266C72.1684 39.8439 72.1831 39.7546 72.1831 39.6586C72.1831 39.5626 72.1684 39.4746 72.1391 39.3946C72.1098 39.3119 72.0684 39.2426 72.0151 39.1866C71.9618 39.1279 71.8964 39.0826 71.8191 39.0506C71.7418 39.0159 71.6551 38.9986 71.5591 38.9986C71.4631 38.9986 71.3764 39.0159 71.2991 39.0506C71.2218 39.0826 71.1564 39.1279 71.1031 39.1866C71.0498 39.2426 71.0084 39.3119 70.9791 39.3946C70.9498 39.4746 70.9351 39.5626 70.9351 39.6586ZM70.5511 39.6586C70.5511 39.5199 70.5764 39.3906 70.6271 39.2706C70.6804 39.1506 70.7524 39.0452 70.8431 38.9546C70.9338 38.8639 71.0404 38.7932 71.1631 38.7426C71.2858 38.6892 71.4178 38.6626 71.5591 38.6626C71.7004 38.6626 71.8324 38.6892 71.9551 38.7426C72.0778 38.7932 72.1844 38.8639 72.2751 38.9546C72.3658 39.0452 72.4364 39.1506 72.4871 39.2706C72.5404 39.3906 72.5671 39.5199 72.5671 39.6586C72.5671 39.7972 72.5404 39.9279 72.4871 40.0506C72.4364 40.1706 72.3658 40.2759 72.2751 40.3666C72.1844 40.4546 72.0778 40.5252 71.9551 40.5786C71.8324 40.6292 71.7004 40.6546 71.5591 40.6546C71.4178 40.6546 71.2858 40.6292 71.1631 40.5786C71.0404 40.5252 70.9338 40.4546 70.8431 40.3666C70.7524 40.2759 70.6804 40.1706 70.6271 40.0506C70.5764 39.9279 70.5511 39.7972 70.5511 39.6586ZM72.7901 38.7106H73.1941L73.6221 40.1266H73.6301L74.0821 38.7106H74.4621L74.9421 40.1266H74.9501L75.3581 38.7106H75.7381L75.1261 40.6066H74.7621L74.2621 39.1906H74.2541L73.8021 40.6066H73.4141L72.7901 38.7106ZM76.3253 39.7906C76.3253 39.8732 76.3426 39.9492 76.3773 40.0186C76.4146 40.0852 76.4626 40.1426 76.5213 40.1906C76.5799 40.2386 76.6479 40.2759 76.7253 40.3026C76.8026 40.3292 76.8826 40.3426 76.9653 40.3426C77.0773 40.3426 77.1746 40.3172 77.2573 40.2666C77.3399 40.2132 77.4159 40.1439 77.4853 40.0586L77.7573 40.2666C77.5573 40.5252 77.2773 40.6546 76.9173 40.6546C76.7679 40.6546 76.6319 40.6292 76.5093 40.5786C76.3893 40.5279 76.2866 40.4586 76.2013 40.3706C76.1186 40.2799 76.0546 40.1746 76.0093 40.0546C75.9639 39.9319 75.9413 39.7999 75.9413 39.6586C75.9413 39.5172 75.9653 39.3866 76.0133 39.2666C76.0639 39.1439 76.1319 39.0386 76.2173 38.9506C76.3053 38.8599 76.4093 38.7892 76.5293 38.7386C76.6493 38.6879 76.7799 38.6626 76.9213 38.6626C77.0893 38.6626 77.2306 38.6919 77.3453 38.7506C77.4626 38.8092 77.5586 38.8866 77.6333 38.9826C77.7079 39.0759 77.7613 39.1826 77.7933 39.3026C77.8279 39.4199 77.8453 39.5399 77.8453 39.6626V39.7906H76.3253ZM77.4613 39.5026C77.4586 39.4226 77.4453 39.3492 77.4213 39.2826C77.3999 39.2159 77.3666 39.1586 77.3213 39.1106C77.2759 39.0599 77.2186 39.0212 77.1493 38.9946C77.0826 38.9652 77.0039 38.9506 76.9133 38.9506C76.8253 38.9506 76.7439 38.9679 76.6693 39.0026C76.5973 39.0346 76.5359 39.0772 76.4853 39.1306C76.4346 39.1839 76.3946 39.2439 76.3653 39.3106C76.3386 39.3746 76.3253 39.4386 76.3253 39.5026H77.4613ZM78.2759 38.7106H78.6359V39.0026H78.6439C78.6679 38.9519 78.6999 38.9066 78.7399 38.8666C78.7799 38.8239 78.8239 38.7879 78.8719 38.7586C78.9226 38.7292 78.9772 38.7066 79.0359 38.6906C79.0946 38.6719 79.1532 38.6626 79.2119 38.6626C79.2706 38.6626 79.3239 38.6706 79.3719 38.6866L79.3559 39.0746C79.3266 39.0666 79.2972 39.0599 79.2679 39.0546C79.2386 39.0492 79.2092 39.0466 79.1799 39.0466C79.0039 39.0466 78.8692 39.0959 78.7759 39.1946C78.6826 39.2932 78.6359 39.4466 78.6359 39.6546V40.6066H78.2759V38.7106ZM79.9581 39.7906C79.9581 39.8732 79.9754 39.9492 80.0101 40.0186C80.0474 40.0852 80.0954 40.1426 80.1541 40.1906C80.2127 40.2386 80.2807 40.2759 80.3581 40.3026C80.4354 40.3292 80.5154 40.3426 80.5981 40.3426C80.7101 40.3426 80.8074 40.3172 80.8901 40.2666C80.9727 40.2132 81.0487 40.1439 81.1181 40.0586L81.3901 40.2666C81.1901 40.5252 80.9101 40.6546 80.5501 40.6546C80.4007 40.6546 80.2647 40.6292 80.1421 40.5786C80.0221 40.5279 79.9194 40.4586 79.8341 40.3706C79.7514 40.2799 79.6874 40.1746 79.6421 40.0546C79.5967 39.9319 79.5741 39.7999 79.5741 39.6586C79.5741 39.5172 79.5981 39.3866 79.6461 39.2666C79.6967 39.1439 79.7647 39.0386 79.8501 38.9506C79.9381 38.8599 80.0421 38.7892 80.1621 38.7386C80.2821 38.6879 80.4127 38.6626 80.5541 38.6626C80.7221 38.6626 80.8634 38.6919 80.9781 38.7506C81.0954 38.8092 81.1914 38.8866 81.2661 38.9826C81.3407 39.0759 81.3941 39.1826 81.4261 39.3026C81.4607 39.4199 81.4781 39.5399 81.4781 39.6626V39.7906H79.9581ZM81.0941 39.5026C81.0914 39.4226 81.0781 39.3492 81.0541 39.2826C81.0327 39.2159 80.9994 39.1586 80.9541 39.1106C80.9087 39.0599 80.8514 39.0212 80.7821 38.9946C80.7154 38.9652 80.6367 38.9506 80.5461 38.9506C80.4581 38.9506 80.3767 38.9679 80.3021 39.0026C80.2301 39.0346 80.1687 39.0772 80.1181 39.1306C80.0674 39.1839 80.0274 39.2439 79.9981 39.3106C79.9714 39.3746 79.9581 39.4386 79.9581 39.5026H81.0941ZM83.8087 40.6066H83.4487V40.3346H83.4407C83.3714 40.4359 83.2754 40.5146 83.1527 40.5706C83.0327 40.6266 82.9087 40.6546 82.7807 40.6546C82.6341 40.6546 82.5007 40.6292 82.3807 40.5786C82.2634 40.5279 82.1621 40.4572 82.0767 40.3666C81.9941 40.2759 81.9301 40.1706 81.8847 40.0506C81.8394 39.9306 81.8167 39.7999 81.8167 39.6586C81.8167 39.5172 81.8394 39.3866 81.8847 39.2666C81.9301 39.1439 81.9941 39.0386 82.0767 38.9506C82.1621 38.8599 82.2634 38.7892 82.3807 38.7386C82.5007 38.6879 82.6341 38.6626 82.7807 38.6626C82.9167 38.6626 83.0447 38.6919 83.1647 38.7506C83.2847 38.8066 83.3767 38.8839 83.4407 38.9826H83.4487V37.5826H83.8087V40.6066ZM82.8247 40.3186C82.9207 40.3186 83.0074 40.3026 83.0847 40.2706C83.1621 40.2359 83.2274 40.1906 83.2807 40.1346C83.3341 40.0759 83.3754 40.0066 83.4047 39.9266C83.4341 39.8439 83.4487 39.7546 83.4487 39.6586C83.4487 39.5626 83.4341 39.4746 83.4047 39.3946C83.3754 39.3119 83.3341 39.2426 83.2807 39.1866C83.2274 39.1279 83.1621 39.0826 83.0847 39.0506C83.0074 39.0159 82.9207 38.9986 82.8247 38.9986C82.7287 38.9986 82.6421 39.0159 82.5647 39.0506C82.4874 39.0826 82.4221 39.1279 82.3687 39.1866C82.3154 39.2426 82.2741 39.3119 82.2447 39.3946C82.2154 39.4746 82.2007 39.5626 82.2007 39.6586C82.2007 39.7546 82.2154 39.8439 82.2447 39.9266C82.2741 40.0066 82.3154 40.0759 82.3687 40.1346C82.4221 40.1906 82.4874 40.2359 82.5647 40.2706C82.6421 40.3026 82.7287 40.3186 82.8247 40.3186ZM85.4673 37.5826H85.8273V38.9826H85.8353C85.8993 38.8839 85.9913 38.8066 86.1113 38.7506C86.2313 38.6919 86.3593 38.6626 86.4953 38.6626C86.642 38.6626 86.774 38.6879 86.8913 38.7386C87.0113 38.7892 87.1126 38.8599 87.1953 38.9506C87.2806 39.0386 87.346 39.1439 87.3913 39.2666C87.4366 39.3866 87.4593 39.5172 87.4593 39.6586C87.4593 39.7999 87.4366 39.9306 87.3913 40.0506C87.346 40.1706 87.2806 40.2759 87.1953 40.3666C87.1126 40.4572 87.0113 40.5279 86.8913 40.5786C86.774 40.6292 86.642 40.6546 86.4953 40.6546C86.3673 40.6546 86.242 40.6266 86.1193 40.5706C85.9993 40.5146 85.9046 40.4359 85.8353 40.3346H85.8273V40.6066H85.4673V37.5826ZM86.4513 40.3186C86.5473 40.3186 86.634 40.3026 86.7113 40.2706C86.7886 40.2359 86.854 40.1906 86.9073 40.1346C86.9606 40.0759 87.002 40.0066 87.0313 39.9266C87.0606 39.8439 87.0753 39.7546 87.0753 39.6586C87.0753 39.5626 87.0606 39.4746 87.0313 39.3946C87.002 39.3119 86.9606 39.2426 86.9073 39.1866C86.854 39.1279 86.7886 39.0826 86.7113 39.0506C86.634 39.0159 86.5473 38.9986 86.4513 38.9986C86.3553 38.9986 86.2686 39.0159 86.1913 39.0506C86.114 39.0826 86.0486 39.1279 85.9953 39.1866C85.942 39.2426 85.9006 39.3119 85.8713 39.3946C85.842 39.4746 85.8273 39.5626 85.8273 39.6586C85.8273 39.7546 85.842 39.8439 85.8713 39.9266C85.9006 40.0066 85.942 40.0759 85.9953 40.1346C86.0486 40.1906 86.114 40.2359 86.1913 40.2706C86.2686 40.3026 86.3553 40.3186 86.4513 40.3186ZM87.6846 38.7106H88.1006L88.6646 40.1906H88.6726L89.2086 38.7106H89.5966L88.6966 41.0146C88.6646 41.0972 88.6313 41.1719 88.5966 41.2386C88.562 41.3079 88.5206 41.3666 88.4726 41.4146C88.4246 41.4626 88.366 41.4999 88.2966 41.5266C88.23 41.5532 88.1473 41.5666 88.0486 41.5666C87.9953 41.5666 87.9406 41.5626 87.8846 41.5546C87.8313 41.5492 87.7793 41.5359 87.7286 41.5146L87.7726 41.1866C87.8446 41.2159 87.9166 41.2306 87.9886 41.2306C88.0446 41.2306 88.0913 41.2226 88.1286 41.2066C88.1686 41.1932 88.202 41.1719 88.2286 41.1426C88.258 41.1159 88.282 41.0839 88.3006 41.0466C88.3193 41.0092 88.338 40.9666 88.3566 40.9186L88.4726 40.6186L87.6846 38.7106ZM91.0539 37.7746H92.0419C92.2419 37.7746 92.4166 37.7972 92.5659 37.8426C92.7179 37.8879 92.8486 37.9492 92.9579 38.0266C93.0699 38.1012 93.1619 38.1879 93.2339 38.2866C93.3086 38.3852 93.3672 38.4866 93.4099 38.5906C93.4526 38.6946 93.4832 38.7986 93.5019 38.9026C93.5206 39.0066 93.5299 39.1026 93.5299 39.1906C93.5299 39.3719 93.4966 39.5479 93.4299 39.7186C93.3632 39.8866 93.2646 40.0372 93.1339 40.1706C93.0032 40.3012 92.8406 40.4066 92.6459 40.4866C92.4539 40.5666 92.2312 40.6066 91.9779 40.6066H91.0539V37.7746ZM91.4379 40.2466H91.9219C92.0846 40.2466 92.2379 40.2252 92.3819 40.1826C92.5286 40.1372 92.6566 40.0706 92.7659 39.9826C92.8752 39.8946 92.9619 39.7852 93.0259 39.6546C93.0899 39.5212 93.1219 39.3666 93.1219 39.1906C93.1219 39.0999 93.1072 38.9946 93.0779 38.8746C93.0486 38.7519 92.9926 38.6359 92.9099 38.5266C92.8299 38.4172 92.7179 38.3252 92.5739 38.2506C92.4299 38.1732 92.2432 38.1346 92.0139 38.1346H91.4379V40.2466ZM93.9988 38.9426C94.1001 38.8492 94.2174 38.7799 94.3508 38.7346C94.4841 38.6866 94.6174 38.6626 94.7508 38.6626C94.8894 38.6626 95.0081 38.6799 95.1068 38.7146C95.2081 38.7492 95.2908 38.7959 95.3548 38.8546C95.4188 38.9132 95.4654 38.9812 95.4948 39.0586C95.5268 39.1332 95.5428 39.2119 95.5428 39.2946V40.2626C95.5428 40.3292 95.5441 40.3906 95.5468 40.4466C95.5494 40.5026 95.5534 40.5559 95.5588 40.6066H95.2388C95.2308 40.5106 95.2268 40.4146 95.2268 40.3186H95.2188C95.1388 40.4412 95.0441 40.5279 94.9348 40.5786C94.8254 40.6292 94.6988 40.6546 94.5548 40.6546C94.4668 40.6546 94.3828 40.6426 94.3028 40.6186C94.2228 40.5946 94.1521 40.5586 94.0908 40.5106C94.0321 40.4626 93.9854 40.4039 93.9508 40.3346C93.9161 40.2626 93.8988 40.1799 93.8988 40.0866C93.8988 39.9639 93.9254 39.8612 93.9788 39.7786C94.0348 39.6959 94.1094 39.6292 94.2028 39.5786C94.2988 39.5252 94.4094 39.4879 94.5348 39.4666C94.6628 39.4426 94.7988 39.4306 94.9428 39.4306H95.2068V39.3506C95.2068 39.3026 95.1974 39.2546 95.1788 39.2066C95.1601 39.1586 95.1321 39.1159 95.0948 39.0786C95.0574 39.0386 95.0108 39.0079 94.9548 38.9866C94.8988 38.9626 94.8321 38.9506 94.7548 38.9506C94.6854 38.9506 94.6241 38.9572 94.5708 38.9706C94.5201 38.9839 94.4734 39.0012 94.4308 39.0226C94.3881 39.0412 94.3494 39.0639 94.3148 39.0906C94.2801 39.1172 94.2468 39.1426 94.2148 39.1666L93.9988 38.9426ZM95.0148 39.6946C94.9294 39.6946 94.8414 39.6999 94.7508 39.7106C94.6628 39.7186 94.5814 39.7359 94.5068 39.7626C94.4348 39.7892 94.3748 39.8266 94.3268 39.8746C94.2814 39.9226 94.2588 39.9839 94.2588 40.0586C94.2588 40.1679 94.2948 40.2466 94.3668 40.2946C94.4414 40.3426 94.5414 40.3666 94.6668 40.3666C94.7654 40.3666 94.8494 40.3506 94.9188 40.3186C94.9881 40.2839 95.0441 40.2399 95.0868 40.1866C95.1294 40.1332 95.1601 40.0746 95.1788 40.0106C95.1974 39.9439 95.2068 39.8786 95.2068 39.8146V39.6946H95.0148ZM96.205 39.0226H95.797V38.7106H96.205V38.2866C96.205 38.0332 96.253 37.8452 96.349 37.7226C96.4476 37.5972 96.6156 37.5346 96.853 37.5346C96.893 37.5346 96.9343 37.5359 96.977 37.5386C97.0223 37.5412 97.0703 37.5492 97.121 37.5626L97.081 37.8826C97.0463 37.8692 97.013 37.8599 96.981 37.8546C96.949 37.8492 96.9143 37.8466 96.877 37.8466C96.8103 37.8466 96.757 37.8572 96.717 37.8786C96.677 37.8972 96.645 37.9252 96.621 37.9626C96.5996 37.9999 96.585 38.0452 96.577 38.0986C96.5716 38.1492 96.569 38.2079 96.569 38.2746V38.7106H96.997V39.0226H96.565V40.6066H96.205V39.0226ZM97.397 38.7106H97.757V39.0026H97.765C97.789 38.9519 97.821 38.9066 97.861 38.8666C97.901 38.8239 97.945 38.7879 97.993 38.7586C98.0437 38.7292 98.0983 38.7066 98.157 38.6906C98.2157 38.6719 98.2743 38.6626 98.333 38.6626C98.3917 38.6626 98.445 38.6706 98.493 38.6866L98.477 39.0746C98.4477 39.0666 98.4183 39.0599 98.389 39.0546C98.3597 39.0492 98.3303 39.0466 98.301 39.0466C98.125 39.0466 97.9903 39.0959 97.897 39.1946C97.8037 39.2932 97.757 39.4466 97.757 39.6546V40.6066H97.397V38.7106ZM98.9055 38.7106H99.2655V40.6066H98.9055V38.7106ZM98.8215 38.0306C98.8215 37.9586 98.8468 37.8972 98.8975 37.8466C98.9508 37.7932 99.0135 37.7666 99.0855 37.7666C99.1575 37.7666 99.2188 37.7932 99.2695 37.8466C99.3228 37.8972 99.3495 37.9586 99.3495 38.0306C99.3495 38.1026 99.3228 38.1652 99.2695 38.2186C99.2188 38.2692 99.1575 38.2946 99.0855 38.2946C99.0135 38.2946 98.9508 38.2692 98.8975 38.2186C98.8468 38.1652 98.8215 38.1026 98.8215 38.0306ZM99.9304 37.7746H100.914C101.037 37.7746 101.15 37.7892 101.254 37.8186C101.361 37.8479 101.452 37.8919 101.526 37.9506C101.604 38.0066 101.664 38.0799 101.706 38.1706C101.752 38.2586 101.774 38.3626 101.774 38.4826C101.774 38.6452 101.729 38.7786 101.638 38.8826C101.548 38.9839 101.43 39.0586 101.286 39.1066V39.1146C101.372 39.1199 101.452 39.1426 101.526 39.1826C101.601 39.2199 101.665 39.2706 101.718 39.3346C101.774 39.3959 101.818 39.4679 101.85 39.5506C101.882 39.6332 101.898 39.7226 101.898 39.8186C101.898 39.9466 101.872 40.0599 101.818 40.1586C101.768 40.2546 101.697 40.3359 101.606 40.4026C101.516 40.4692 101.41 40.5199 101.29 40.5546C101.17 40.5892 101.041 40.6066 100.902 40.6066H99.9304V37.7746ZM100.314 38.9506H100.838C100.91 38.9506 100.978 38.9439 101.042 38.9306C101.106 38.9146 101.162 38.8892 101.21 38.8546C101.258 38.8199 101.296 38.7759 101.322 38.7226C101.352 38.6692 101.366 38.6039 101.366 38.5266C101.366 38.4146 101.33 38.3172 101.258 38.2346C101.186 38.1519 101.073 38.1106 100.918 38.1106H100.314V38.9506ZM100.314 40.2706H100.878C100.937 40.2706 101.001 40.2652 101.07 40.2546C101.142 40.2412 101.209 40.2172 101.27 40.1826C101.332 40.1452 101.384 40.0959 101.426 40.0346C101.469 39.9732 101.49 39.8919 101.49 39.7906C101.49 39.6226 101.436 39.4972 101.326 39.4146C101.217 39.3292 101.069 39.2866 100.882 39.2866H100.314V40.2706ZM102.366 38.9426C102.467 38.8492 102.585 38.7799 102.718 38.7346C102.851 38.6866 102.985 38.6626 103.118 38.6626C103.257 38.6626 103.375 38.6799 103.474 38.7146C103.575 38.7492 103.658 38.7959 103.722 38.8546C103.786 38.9132 103.833 38.9812 103.862 39.0586C103.894 39.1332 103.91 39.2119 103.91 39.2946V40.2626C103.91 40.3292 103.911 40.3906 103.914 40.4466C103.917 40.5026 103.921 40.5559 103.926 40.6066H103.606C103.598 40.5106 103.594 40.4146 103.594 40.3186H103.586C103.506 40.4412 103.411 40.5279 103.302 40.5786C103.193 40.6292 103.066 40.6546 102.922 40.6546C102.834 40.6546 102.75 40.6426 102.67 40.6186C102.59 40.5946 102.519 40.5586 102.458 40.5106C102.399 40.4626 102.353 40.4039 102.318 40.3346C102.283 40.2626 102.266 40.1799 102.266 40.0866C102.266 39.9639 102.293 39.8612 102.346 39.7786C102.402 39.6959 102.477 39.6292 102.57 39.5786C102.666 39.5252 102.777 39.4879 102.902 39.4666C103.03 39.4426 103.166 39.4306 103.31 39.4306H103.574V39.3506C103.574 39.3026 103.565 39.2546 103.546 39.2066C103.527 39.1586 103.499 39.1159 103.462 39.0786C103.425 39.0386 103.378 39.0079 103.322 38.9866C103.266 38.9626 103.199 38.9506 103.122 38.9506C103.053 38.9506 102.991 38.9572 102.938 38.9706C102.887 38.9839 102.841 39.0012 102.798 39.0226C102.755 39.0412 102.717 39.0639 102.682 39.0906C102.647 39.1172 102.614 39.1426 102.582 39.1666L102.366 38.9426ZM103.382 39.6946C103.297 39.6946 103.209 39.6999 103.118 39.7106C103.03 39.7186 102.949 39.7359 102.874 39.7626C102.802 39.7892 102.742 39.8266 102.694 39.8746C102.649 39.9226 102.626 39.9839 102.626 40.0586C102.626 40.1679 102.662 40.2466 102.734 40.2946C102.809 40.3426 102.909 40.3666 103.034 40.3666C103.133 40.3666 103.217 40.3506 103.286 40.3186C103.355 40.2839 103.411 40.2399 103.454 40.1866C103.497 40.1332 103.527 40.0746 103.546 40.0106C103.565 39.9439 103.574 39.8786 103.574 39.8146V39.6946H103.382ZM104.432 38.7106H104.792V39.0026H104.8C104.845 38.9012 104.924 38.8199 105.036 38.7586C105.148 38.6946 105.277 38.6626 105.424 38.6626C105.515 38.6626 105.601 38.6772 105.684 38.7066C105.769 38.7332 105.843 38.7759 105.904 38.8346C105.968 38.8932 106.019 38.9692 106.056 39.0626C106.093 39.1532 106.112 39.2612 106.112 39.3866V40.6066H105.752V39.4866C105.752 39.3986 105.74 39.3239 105.716 39.2626C105.692 39.1986 105.66 39.1479 105.62 39.1106C105.58 39.0706 105.533 39.0426 105.48 39.0266C105.429 39.0079 105.376 38.9986 105.32 38.9986C105.245 38.9986 105.176 39.0106 105.112 39.0346C105.048 39.0586 104.992 39.0972 104.944 39.1506C104.896 39.2012 104.859 39.2666 104.832 39.3466C104.805 39.4266 104.792 39.5212 104.792 39.6306V40.6066H104.432V38.7106ZM106.655 37.5826H107.015V39.5346L107.831 38.7146H108.331L107.447 39.5746L108.407 40.6066H107.895L107.015 39.6226V40.6066H106.655V37.5826Z" fill="white"/>
<path d="M41.0356 6.7234C41.0356 6.7234 53.927 28.6874 12.6413 27.3329C12.6413 27.3329 18.9342 39.2545 36.8126 29.5659L42.7165 35.8745C42.7165 35.8745 19.7121 52.0302 3.55624 31.8355C2.25044 30.2127 1.69478 28.2603 0.889066 26.4056C-0.861269 22.33 -0.861269 11.348 8.94617 4.57581C22.4626 -4.75888 37.4933 2.00114 32.4785 8.79777C31.8533 9.65193 30.6726 10.0668 29.5334 9.88377C25.1993 9.15164 13.4887 8.18766 10.7937 18.3399C10.7937 18.3399 37.0904 21.6223 41.0356 6.7234Z" fill="url(#paint0_linear_62_194)"/>
</g>
<defs>
<linearGradient id="paint0_linear_62_194" x1="7.28553e-06" y1="21" x2="36.0069" y2="21" gradientUnits="userSpaceOnUse">
<stop stop-color="#26AADF"/>
<stop offset="1" stop-color="#04A7A3"/>
</linearGradient>
<clipPath id="clip0_62_194">
<rect width="145" height="42" fill="white"/>
</clipPath>
</defs>
</svg>
