<svg width="38" height="48" viewBox="0 0 38 48" fill="none" xmlns="http://www.w3.org/2000/svg">
<path fill-rule="evenodd" clip-rule="evenodd" d="M2.59009 11.4864C2.59009 11.8564 2.89008 12.1664 3.27008 12.1664H13.2201C13.5901 12.1664 13.9001 11.8664 13.9001 11.4864V1.49641C13.9001 1.12641 13.6001 0.816406 13.2201 0.816406H3.27008C2.90008 0.816406 2.59009 1.11641 2.59009 1.49641V11.4864Z" fill="#464E41"/>
<path fill-rule="evenodd" clip-rule="evenodd" d="M13.21 23.2366C13.21 23.6066 13.51 23.9166 13.89 23.9166H25C25.37 23.9166 25.68 23.6166 25.68 23.2366V12.1566C25.68 11.7866 25.38 11.4766 25 11.4766H13.89C13.52 11.4766 13.21 11.7766 13.21 12.1566V23.2366Z" fill="#464E41"/>
<path fill-rule="evenodd" clip-rule="evenodd" d="M24.9404 34.958C24.9404 35.328 25.2404 35.638 25.6204 35.638H36.7304C37.1004 35.638 37.4104 35.338 37.4104 34.958V23.848C37.4104 23.478 37.1104 23.168 36.7304 23.168H25.6204C25.2504 23.168 24.9404 23.468 24.9404 23.848V34.958Z" fill="#464E41"/>
<path fill-rule="evenodd" clip-rule="evenodd" d="M13.21 46.5049C13.21 46.8749 13.51 47.1848 13.89 47.1848H25C25.37 47.1848 25.68 46.8849 25.68 46.5049V35.3948C25.68 35.0248 25.38 34.7148 25 34.7148H13.89C13.52 34.7148 13.21 35.0148 13.21 35.3948V46.5049Z" fill="#464E41"/>
<path fill-rule="evenodd" clip-rule="evenodd" d="M4.44995 33.5858C4.44995 33.9558 4.74997 34.2658 5.12997 34.2658H11.86C12.23 34.2658 12.54 33.9658 12.54 33.5858V26.8558C12.54 26.4858 12.24 26.1758 11.86 26.1758H5.12997C4.75997 26.1758 4.44995 26.4758 4.44995 26.8558V33.5858Z" fill="#464E41"/>
<path fill-rule="evenodd" clip-rule="evenodd" d="M0 38.0356C0 38.4056 0.299993 38.7156 0.679993 38.7156H3.76999C4.13999 38.7156 4.44998 38.4156 4.44998 38.0356V34.9456C4.44998 34.5756 4.14999 34.2656 3.76999 34.2656H0.679993C0.309993 34.2656 0 34.5656 0 34.9456V38.0356Z" fill="#464E41"/>
</svg>
