<?xml version="1.0" encoding="utf-8"?>
<!-- Generator: Adobe Illustrator 24.3.0, SVG Export Plug-In . SVG Version: 6.00 Build 0)  -->
<svg version="1.1" id="Layer_1" xmlns="http://www.w3.org/2000/svg" xmlns:xlink="http://www.w3.org/1999/xlink" x="0px" y="0px"
	 viewBox="0 0 113 36" style="enable-background:new 0 0 113 36;" xml:space="preserve">
<style type="text/css">
	.st0{fill:#5F6368;}
	.st1{fill:#4285F4;}
	.st2{fill:#34A853;}
	.st3{fill:#FBBC04;}
	.st4{fill:#EA4335;}
</style>
<path d="M12.9,10.6c-0.6,0.7-1.6,1.3-2.5,1.2c-0.1-1,0.4-2,0.9-2.6c0.6-0.7,1.7-1.3,2.5-1.3C13.9,8.9,13.5,9.9,12.9,10.6 M13.8,12
	c-1.4-0.1-2.6,0.8-3.3,0.8c-0.7,0-1.7-0.8-2.8-0.7c-1.4,0-2.8,0.8-3.5,2.1c-1.5,2.6-0.4,6.4,1.1,8.5c0.7,1,1.6,2.2,2.7,2.2
	c1.1,0,1.5-0.7,2.8-0.7c1.3,0,1.7,0.7,2.8,0.7c1.2,0,1.9-1,2.6-2.1c0.8-1.2,1.1-2.3,1.2-2.4c0,0-2.3-0.9-2.3-3.4
	c0-2.2,1.8-3.2,1.8-3.2C15.9,12.2,14.3,12,13.8,12 M21.9,9.1v15.7h2.4v-5.4h3.4c3.1,0,5.2-2.1,5.2-5.2s-2.1-5.1-5.2-5.1L21.9,9.1z
	 M24.3,11.1h2.8c2.1,0,3.3,1.1,3.3,3.1s-1.2,3.1-3.3,3.1h-2.8V11.1z M37.4,24.9c1.5,0,2.9-0.8,3.6-2H41v1.9h2.3v-7.8
	c0-2.3-1.8-3.7-4.6-3.7c-2.6,0-4.5,1.5-4.6,3.5h2.2c0.2-1,1.1-1.6,2.3-1.6c1.5,0,2.3,0.7,2.3,2V18l-3,0.2c-2.8,0.2-4.4,1.3-4.4,3.3
	C33.5,23.5,35.1,24.9,37.4,24.9z M38,23c-1.3,0-2.1-0.6-2.1-1.6c0-1,0.8-1.6,2.3-1.6l2.7-0.2v0.9C40.9,22,39.7,23,38,23z M46.3,29
	c2.4,0,3.5-0.9,4.5-3.6l4.3-12h-2.5l-2.9,9.3h-0.1l-2.9-9.3h-2.5l4.1,11.4l-0.2,0.7c-0.4,1.2-1,1.6-2.1,1.6c-0.2,0-0.6,0-0.7,0v1.9
	C45.5,29,46.1,29,46.3,29L46.3,29z"/>
<g>
	<path class="st0" d="M84.7,18v6h-1.9V9.1h5.1c1.2,0,2.4,0.4,3.3,1.3c0.9,0.8,1.4,1.9,1.4,3.1c0,1.2-0.5,2.4-1.4,3.2
		c-0.9,0.8-2,1.3-3.3,1.3H84.7z M84.7,11v5.2h3.2c0.7,0,1.4-0.3,1.9-0.8c1-1,1-2.6,0-3.6l0,0c-0.5-0.5-1.2-0.8-1.9-0.8
		C87.9,11,84.7,11,84.7,11z M96.9,13.5c1.4,0,2.5,0.4,3.4,1.1c0.8,0.8,1.2,1.8,1.2,3.1V24h-1.8v-1.4h-0.1c-0.8,1.2-1.8,1.7-3.2,1.7
		c-1.1,0-2.1-0.3-2.8-1c-0.7-0.6-1.2-1.5-1.1-2.5c0-1.1,0.4-1.9,1.2-2.5s1.9-0.9,3.2-0.9c1.1,0,2.1,0.2,2.8,0.6v-0.4
		c0-0.7-0.3-1.3-0.8-1.7c-0.5-0.5-1.2-0.7-1.8-0.7c-1.1,0-1.9,0.5-2.5,1.4l-1.7-1.1C93.7,14.2,95.1,13.5,96.9,13.5L96.9,13.5z
		 M94.4,20.9c0,0.5,0.2,1,0.6,1.2c0.4,0.3,1,0.5,1.5,0.5c0.8,0,1.6-0.3,2.2-0.9c0.6-0.6,1-1.3,1-2.1c-0.6-0.5-1.4-0.7-2.5-0.7
		c-0.8,0-1.4,0.2-1.9,0.6C94.7,19.9,94.4,20.3,94.4,20.9z M112,13.8l-6.4,14.7h-2l2.4-5.1l-4.2-9.5h2.1l3,7.3h0l3-7.3L112,13.8z"/>
	<path class="st1" d="M77,16.7c0-0.6,0-1.2-0.1-1.7h-8.1v3.3h4.6c-0.2,1.1-0.8,2-1.7,2.6V23h2.8C76,21.5,77,19.3,77,16.7L77,16.7z"
		/>
	<path class="st2" d="M68.7,25c2.3,0,4.3-0.8,5.7-2.1l-2.8-2.1c-0.8,0.5-1.8,0.8-2.9,0.8c-2.2,0-4.1-1.5-4.8-3.5h-2.8v2.2
		C62.6,23.2,65.5,25,68.7,25z"/>
	<path class="st3" d="M63.9,18.1c-0.4-1.1-0.4-2.2,0-3.3v-2.2h-2.8c-1.2,2.4-1.2,5.3,0,7.7L63.9,18.1z"/>
	<path class="st4" d="M68.7,11.3c1.2,0,2.4,0.4,3.3,1.3l2.4-2.4c-1.5-1.5-3.6-2.3-5.7-2.2c-3.2,0-6.2,1.8-7.6,4.7l2.8,2.2
		C64.6,12.8,66.5,11.3,68.7,11.3z"/>
</g>
</svg>
