<svg xmlns="http://www.w3.org/2000/svg"  viewBox="0 0 24 24" width="96px" height="96px"><circle cx="12" cy="12" r="10" opacity=".3"/><path d="M12,23C5.935,23,1,18.065,1,12S5.935,1,12,1s11,4.935,11,11S18.065,23,12,23z M12,3c-4.962,0-9,4.038-9,9 c0,4.963,4.038,9,9,9c4.963,0,9-4.037,9-9C21,7.038,16.963,3,12,3z"/><rect width="10" height="2" x="7" y="7"/><path d="M12,14c-2.229,0-6-0.421-6-2c0-1.579,3.771-2,6-2s6,0.421,6,2C18,13.579,14.229,14,12,14z M12,11 c-3.022,0-4.863,0.665-5.003,1.021C7.137,12.335,8.978,13,12,13c3.021,0,4.863-0.665,5.003-1.021C16.863,11.665,15.021,11,12,11z"/><rect width="2" height="4" x="11" y="8"/><rect width="2" height="4.5" x="11" y="13.5"/></svg>