<?xml version="1.0" encoding="utf-8"?>
<!-- Generator: Adobe Illustrator 24.3.0, SVG Export Plug-In . SVG Version: 6.00 Build 0)  -->
<svg version="1.1" id="Layer_1" xmlns="http://www.w3.org/2000/svg" xmlns:xlink="http://www.w3.org/1999/xlink" x="0px" y="0px"
	 viewBox="0 0 38.5 38.5" style="enable-background:new 0 0 38.5 38.5;" xml:space="preserve">
<style type="text/css">
	.st0{fill:#F7CAA5;}
	.st1{fill:#F2F2F2;}
	.st2{fill:#EDB288;}
</style>
<path class="st0" d="M26.4,30.2l4.8-2.3c1.1-0.5,2.4-0.1,3,0.9l-9.8,6.4c-1.3,0.6-2.8,0.8-4.2,0.5l-6.8-1.9
	c-0.6-0.2-1.3-0.1-1.9,0.2l-1.4,0.8l0.2-6.9l0.1,0c2-1.4,4.7-1.6,6.9-0.5l0.4,0.2c0.6,0.3,1.3,0.5,2.1,0.5l4,0.1
	C25,28.2,26.1,29,26.4,30.2z"/>
<path d="M27.8,18.1c0,4.1-3.3,7.5-7.5,7.5s-7.5-3.3-7.5-7.5s3.3-7.5,7.5-7.5S27.8,13.9,27.8,18.1z"/>
<path class="st1" d="M20.3,17.5c-0.7,0-1.3-0.6-1.3-1.3c0-0.7,0.6-1.3,1.3-1.3c0.7,0,1.3,0.6,1.3,1.3c0,0.3,0.2,0.6,0.6,0.6
	c0.3,0,0.6-0.2,0.6-0.6c0-1.1-0.8-2.1-1.9-2.3v-0.5c0-0.3-0.2-0.6-0.6-0.6c-0.3,0-0.6,0.2-0.6,0.6v0.5c-1.1,0.3-1.9,1.4-1.7,2.6
	c0.2,1.2,1.2,2,2.3,2c0.7,0,1.3,0.5,1.3,1.2c0,0.7-0.5,1.3-1.2,1.3c-0.1,0-0.1,0-0.2,0c-0.6-0.1-1.1-0.6-1.1-1.2
	c0-0.3-0.2-0.6-0.6-0.6c-0.3,0-0.6,0.2-0.6,0.6c0,1.1,0.7,2,1.7,2.3v0.6c0,0.3,0.2,0.6,0.6,0.6c0.3,0,0.6-0.2,0.6-0.6v-0.5
	c1.2-0.2,2-1.3,1.9-2.6C22.5,18.4,21.5,17.5,20.3,17.5z"/>
<path class="st2" d="M26.6,31.8L26.6,31.8L20,31.6c-0.3,0-0.5-0.3-0.5-0.6c0-0.3,0.3-0.5,0.6-0.5l5.9,0.2c0-0.1,0-0.2-0.1-0.3
	c-0.3-1-1.2-1.6-2.2-1.7l-4-0.1c-0.8,0-1.6-0.2-2.3-0.6L17,27.8c-2-1.1-4.5-0.9-6.3,0.4c-0.2,0.2-0.6,0.1-0.8-0.1
	c-0.2-0.2-0.1-0.6,0.1-0.8c2.2-1.6,5.1-1.8,7.5-0.5l0.4,0.2c0.6,0.3,1.2,0.5,1.8,0.5l4,0.1c0.9,0,1.8,0.4,2.5,1.1
	c0.6,0.7,1,1.6,1,2.5C27.1,31.5,26.9,31.8,26.6,31.8L26.6,31.8z"/>
<g>
	<path d="M20.3,9.1c-0.3,0-0.6-0.2-0.6-0.6V3.3c0-0.3,0.2-0.6,0.6-0.6c0.3,0,0.6,0.2,0.6,0.6v5.2C20.9,8.8,20.6,9.1,20.3,9.1z"/>
	<path d="M24.5,9.1c-0.3,0-0.6-0.2-0.6-0.6V6c0-0.3,0.2-0.6,0.6-0.6C24.8,5.5,25,5.7,25,6v2.5C25,8.8,24.8,9.1,24.5,9.1z"/>
	<path d="M16.2,9.1c-0.3,0-0.6-0.2-0.6-0.6V6c0-0.3,0.2-0.6,0.6-0.6c0.3,0,0.6,0.2,0.6,0.6v2.5C16.7,8.8,16.5,9.1,16.2,9.1z"/>
</g>
<path d="M10.1,34.7l0,0.8l-4.4-0.1L6,25.8l4.4,0.1l-0.1,1.9L10.1,34.7z"/>
</svg>
