<svg width="244" height="68" viewBox="0 0 244 68" fill="none" xmlns="http://www.w3.org/2000/svg">
<g clip-path="url(#clip0_37_137)">
<path d="M0 36.61C0.67 35.22 1.74 34.15 2.82 33.07C7.52 28.38 12.22 23.7 16.87 18.96C20.52 15.24 24.8 12.74 29.95 11.77C30.44 11.68 30.93 11.62 31.43 11.66C31.79 11.53 32.15 11.53 32.73 11.71C30.93 12.86 29.58 14.27 28.11 15.54C24.75 18.43 21.49 21.45 18.11 24.33C14.23 27.64 10.54 31.17 6.52 34.31C4.82 35.64 3.29 37.16 1.61 38.52C1.15 38.89 0.74 39.48 0 39.09V36.6L0 36.61Z" fill="#00D692"/>
<path d="M-9.76585e-06 39.1C1.18999 38.97 1.85999 37.98 2.61999 37.29C6.48999 33.78 10.64 30.62 14.49 27.09C18.94 23.01 23.59 19.14 28.14 15.16C29.17 14.26 30.21 13.36 31.13 12.36C31.49 11.96 31.94 12.05 32.41 11.73L31.44 11.66C32.71 11.25 34 11.42 35.29 11.47C35.72 11.68 36.2 11.46 36.63 11.65L38.77 11.96C37.98 12.82 37.01 13.49 36.16 14.29C35.45 14.97 34.68 15.59 33.93 16.3C34.29 16.46 34.8 16.3 35.09 16.95C33.6 17.07 32.14 16.99 30.77 17.42C27.36 18.24 24.36 19.82 21.79 22.21C21.1 22.49 20.65 23.02 20.3 23.65C19.28 24.74 18.29 25.86 17.24 26.92C12.59 31.56 7.92999 36.19 3.26999 40.82C2.61999 41.46 1.95999 42.04 1.00999 41.32C0.92999 41 0.63999 40.84 0.46999 40.58C0.10999 40.34 0.44999 39.77 -0.0100098 39.58V39.08L-9.76585e-06 39.1Z" fill="#00D494"/>
<path d="M35.01 61.25C37.97 60.97 40.87 60.44 43.72 59.56C44.19 59.41 44.45 58.85 45.02 59.01C45.54 59.81 44.89 60.25 44.43 60.65C42.85 62.04 41.28 63.43 39.69 64.81C39 65.41 38.36 66.03 37.77 66.73L37.52 67.02H35.27C34.35 66.82 33.44 66.82 32.52 67.02H30.27C29.88 66.54 29.2 66.89 28.77 66.51C28.59 66.02 28.94 65.76 29.22 65.46C30.47 64.15 32.02 63.14 33.19 61.74C33.7 61.13 34.48 61.68 35.02 61.25H35.01Z" fill="#00BEA6"/>
<path d="M216.99 30.51C215.08 36.13 213.26 41.5 211.44 46.87C211.37 47.07 211.31 47.26 211.24 47.46C210.81 48.57 210.84 50.14 209.93 50.7C209.08 51.23 207.67 50.86 206.51 50.87C205.3 50.88 204.09 50.82 202.89 50.89C202 50.95 201.62 50.66 201.33 49.78C197.97 39.59 194.55 29.42 191.15 19.24C190.86 18.38 190.6 17.5 190.28 16.65C190.1 16.18 190.26 16.03 190.69 16.04C192.73 16.08 194.79 15.82 196.8 16.18C198.67 16.52 199.85 17.75 200.43 19.57C202.23 25.13 204.04 30.68 205.86 36.23C205.95 36.5 206.06 36.76 206.24 37.25C207.5 33.49 208.7 29.94 209.89 26.4C210.94 23.26 212.02 20.13 213.02 16.97C213.25 16.23 213.59 16 214.34 16.02C216.09 16.07 217.84 16.09 219.59 16.02C220.43 15.99 220.71 16.33 220.95 17.06C223.06 23.47 225.21 29.87 227.36 36.27C227.45 36.54 227.56 36.8 227.76 37.34C228.78 34.21 229.72 31.34 230.65 28.46C231.58 25.58 232.5 22.7 233.43 19.83C234.27 17.23 235.84 16.09 238.62 16.04C239.99 16.02 241.37 16.08 242.74 16.02C243.67 15.98 243.86 16.19 243.55 17.11C241.87 22.01 240.25 26.92 238.62 31.83C236.63 37.8 234.62 43.77 232.66 49.75C232.39 50.57 232.07 50.95 231.12 50.9C229.21 50.81 227.28 50.8 225.37 50.9C224.24 50.96 223.73 50.65 223.36 49.5C221.45 43.55 219.41 37.63 217.42 31.7C217.31 31.39 217.2 31.08 217 30.51H216.99Z" fill="white"/>
<path d="M131.49 43.12C131.88 43.39 132.31 43.25 132.71 43.25C137.34 43.26 141.96 43.25 146.59 43.25C149.37 43.25 150.75 44.59 150.76 47.37C150.76 48.48 151.23 49.9 150.55 50.62C149.92 51.29 148.5 50.82 147.43 50.82C138.59 50.84 129.75 50.82 120.92 50.85C119.97 50.85 119.77 50.61 119.64 49.65C119.16 46.2 120.45 43.67 122.81 41.16C128.11 35.53 133.11 29.62 138.24 23.82C137.95 23.39 137.53 23.59 137.2 23.59C132.7 23.57 128.2 23.59 123.69 23.58C121.17 23.58 119.71 22.16 119.7 19.66C119.7 18.51 119.22 17.03 119.89 16.28C120.58 15.51 122.09 16.04 123.24 16.04C131.99 16.02 140.75 16.04 149.5 16C150.57 16 150.68 16.35 150.82 17.32C151.31 20.78 150.02 23.28 147.57 25.74C142.31 31.01 137.37 36.59 132.31 42.06C132.01 42.38 131.6 42.62 131.49 43.12V43.12Z" fill="white"/>
<path d="M37.7699 66.72C37.6799 66.08 38.1299 65.73 38.5299 65.39C40.2699 63.88 42.0399 62.4 43.7599 60.87C44.3199 60.37 45.1099 59.97 45.0099 59.01C49.2199 56.99 52.8999 54.3 55.8699 50.66C56.8799 49.42 58.7299 49.42 59.9099 50.44C61.1299 51.5 61.2699 53.2 60.1499 54.56C55.1099 60.67 48.7199 64.59 40.9599 66.26C39.9099 66.49 38.8599 66.76 37.7599 66.72H37.7699Z" fill="#00BCA9"/>
<path d="M56.04 35.36C55.87 43.12 49.9 51.07 41.95 54.08C40.2 54.74 38.42 55.31 36.52 55.31C36.49 55.29 36.45 55.24 36.42 55.24C35.84 55.19 35.03 55.63 34.74 54.93C34.44 54.2 35.21 53.77 35.7 53.37C37.66 51.79 39.39 49.94 41.37 48.39C41.46 48.32 41.46 48.17 41.44 48.04C43.55 46.85 45.38 45.32 46.97 43.49C48.57 42.94 49.45 41.49 50.74 40.55C52.14 39.53 53.24 38.14 54.72 37.22C55.14 36.96 55.33 36.58 55.45 36.12C55.53 35.81 55.45 35.32 56.03 35.36H56.04Z" fill="#00C1A4"/>
<path d="M6.97011 53.32C6.91011 53.27 6.82011 53.23 6.78011 53.17C4.05011 49.38 3.66011 48.59 7.26011 45.23C9.48011 43.16 11.5701 40.95 13.7401 38.82C15.6401 36.95 17.8601 37.38 18.9501 39.79C19.2201 40.39 19.4901 41 19.7601 41.6C19.6601 42.6 18.6801 42.88 18.1201 43.48C17.3601 44.3 16.5701 45.14 15.4901 45.59C14.2201 46.17 13.5401 47.4 12.5101 48.25C12.1001 48.59 11.7401 48.97 11.3501 49.34C9.95011 50.73 8.45011 52.01 6.97011 53.32V53.32Z" fill="#00CF98"/>
<path d="M44.0701 30.03C45.6201 33.86 44.4101 38.49 41.1001 41.43C37.9701 44.22 33.1501 44.93 29.7001 43.12C29.4301 42.35 29.8701 41.86 30.4001 41.43C31.0101 40.94 31.6001 40.42 32.1701 39.89C33.5601 38.6 33.5701 38.61 35.5401 38.5C35.2901 38.4 34.9701 38.59 34.7701 38.3C34.7701 37.91 35.0901 37.87 35.3501 37.76C37.3001 36.94 38.5701 35.64 38.4701 33.37C38.4601 33.12 38.5201 32.88 38.6701 32.67C39.6001 32.69 39.2101 33.36 39.2401 33.86C40.9401 32.68 42.4501 31.29 44.0701 30.03V30.03Z" fill="#00C79F"/>
<path d="M10.4599 14.2C8.98994 12.97 8.75994 11.29 10.0399 9.99003C14.5399 5.42003 19.8799 2.31003 26.1999 0.950026C26.7299 0.770026 26.9699 0.920026 26.6999 1.46003C26.4599 1.95003 26.0399 2.31003 25.6299 2.66003C21.6599 6.04003 17.8199 9.57003 13.8499 12.96C13.5999 13.18 13.3599 13.41 13.1499 13.66C12.1299 14.9 12.0099 14.92 10.4599 14.21V14.2Z" fill="#00DC8D"/>
<path d="M10.46 14.2C11.52 14.58 12.16 14.29 13.03 13.41C15.37 11.04 17.98 8.93998 20.48 6.72998C22.4 5.03998 24.31 3.34998 26.21 1.63998C26.37 1.49998 27.1 1.15998 26.19 0.959978C27.66 0.479978 29.16 0.209978 30.71 0.219978C31.29 -0.030022 31.92 0.249978 32.51 0.039978H34.52C34.84 0.689978 34.29 1.00998 33.94 1.35998C32.37 2.92998 30.56 4.23998 28.99 5.81998C28.3 6.50998 27.13 6.28998 26.28 6.77998C21.68 8.26998 17.6 10.61 14.16 14.04C13.04 15.16 11.81 15.13 10.46 14.21V14.2Z" fill="#00DA8F"/>
<path d="M24.1899 37.63C23.8699 37.12 23.6599 36.57 23.7299 35.95C23.5499 35.48 23.6599 34.97 23.5399 34.48C23.4199 34.01 23.6099 33.62 24.0199 33.29C27.7699 30.29 31.2499 26.98 34.8799 23.85C35.3899 23.41 35.8899 23.21 36.5099 23.17C38.0399 23.44 39.3799 24.09 40.5099 25.17C40.5899 25.88 39.9799 26.12 39.5999 26.51C38.7199 27.4 37.3499 27.89 37.1899 29.39C37.1699 29.57 36.8499 29.57 36.6399 29.57C35.8899 29.48 35.2499 29.05 34.4999 28.96C32.9799 28.77 31.7699 29.47 30.5699 30.22C29.9599 30.57 29.6399 31.12 29.4799 31.78C29.4499 31.89 29.4099 32 29.3699 32.1C29.2899 32.34 29.1199 32.58 29.1599 32.81C29.4699 34.75 28.1699 35.83 26.9599 36.96C26.5799 37.31 26.2299 37.7 25.8099 38.01C25.0699 38.71 24.6099 38.24 24.1899 37.62V37.63Z" fill="#00CE9A"/>
<path d="M41.45 48.04C42.09 48.12 41.86 48.38 41.56 48.63C39.64 50.3 37.72 51.98 35.8 53.65C35.68 53.76 35.56 53.87 35.45 54C35.24 54.24 34.81 54.44 34.9 54.77C35.03 55.25 35.53 54.99 35.87 55.04C36.12 55.08 36.37 55.07 36.53 55.31C32.98 55.9 29.55 55.41 26.23 54.07C25.97 53.47 26.23 53.02 26.66 52.63C27.81 51.56 28.99 50.54 29.96 49.72C29.72 49.82 29.36 49.77 29.29 49.13C32.6 49.97 35.9 49.88 39.19 49.05C39.38 49 39.55 48.88 39.73 48.79C40.17 48.64 40.63 48.54 41.04 48.31L41.46 48.04H41.45Z" fill="#00C4A1"/>
<path d="M56.04 35.36C55.83 37.61 53.63 38.19 52.37 39.54C51.17 40.83 49.67 41.85 48.38 43.08C48.02 43.43 47.65 44.08 46.97 43.49C48.44 41.33 49.64 39.06 50.1 36.44C50.37 34.92 50.37 33.41 50.34 31.88C51.02 32.69 50.5 33.58 50.62 34.43C50.62 34.43 50.69 34.38 50.67 34.31C50.21 32.49 51.39 31.49 52.61 30.52C53.68 29.68 54.73 28.82 55.32 27.54C56.13 30.09 56.47 32.68 56.05 35.34L56.04 35.36Z" fill="#00C4A2"/>
<path d="M36.52 23.17C34.66 24.1 33.35 25.72 31.79 27.01C29.22 29.14 26.87 31.5 24.21 33.52C23.33 34.18 23.98 35.15 23.74 35.94C23.38 35.66 23.5 35.27 23.5 34.91C23.33 33.96 23.34 33 23.5 32.05C23.71 27.44 28.26 23.11 33.2 22.86C34.32 22.8 35.44 22.77 36.52 23.18V23.17Z" fill="#00D098"/>
<path d="M61.8 30.38C61.36 28.02 60.83 25.68 60.04 23.4C61.65 22.22 63.15 20.91 64.52 19.46C64.92 20.02 65.18 20.64 65.31 21.31C66.06 23.73 66.96 26.11 67.13 28.68C67.15 29.02 67.24 29.35 66.98 29.61C66.09 30.48 65.16 31.3 64.11 31.96C63.6 32.28 63.16 31.96 62.74 31.68C62.27 31.37 62.1 30.83 61.8 30.39V30.38Z" fill="#00C4A1"/>
<path d="M26.28 6.76002C26.4 6.66002 26.51 6.51002 26.65 6.46002C30.01 5.40002 31.87 2.43002 34.43 0.360016C34.51 0.300016 34.5 0.130016 34.53 0.0100163C37.36 -0.109984 40.09 0.430016 42.78 1.24002C42.94 1.73002 42.61 2.00002 42.32 2.30002C41.23 3.44002 39.98 4.41002 38.83 5.48002C38.03 6.22002 36.94 5.78002 35.98 5.70002C35.66 5.67002 35.36 5.47002 35.04 5.68002C32.08 5.69002 29.17 6.07002 26.3 6.75002L26.28 6.76002Z" fill="#00D791"/>
<path d="M35.03 5.69C35.83 5.14 36.6 5.88 37.42 5.74C37.97 5.65 38.37 5.56 38.8 5.12C39.83 4.05 40.96 3.08 42.08 2.1C42.37 1.85 42.61 1.59 42.77 1.25C45.29 1.7 47.6 2.67 49.77 4C49.55 5.01 48.53 5.33 47.96 6.05C47.43 6.73 46.64 7.14 46.01 7.73C45.75 7.97 45.43 8.22 45.03 7.95C41.81 6.71 38.47 5.97 35.02 5.69H35.03Z" fill="#00D395"/>
<path d="M55.3099 27.56C55.5399 29.18 54.0699 29.67 53.1999 30.46C52.5099 31.09 51.8299 31.77 51.0899 32.37C50.3699 32.95 51.0299 33.88 50.6399 34.63C50.2799 33.71 50.7999 32.74 50.3299 31.89C50.1299 30.16 49.6099 28.52 49.0399 26.88C49.0499 26.84 49.0899 26.8 49.0799 26.76C48.4299 24.82 48.4499 24.85 50.0399 23.49C50.8699 22.78 51.7899 22.13 52.2899 21.1C53.7699 23.03 54.7799 25.18 55.3099 27.55V27.56Z" fill="#00C89F"/>
<path d="M52.3 21.11C52.37 21.52 52.34 21.84 51.94 22.16C51.11 22.83 50.43 23.69 49.52 24.29C48.8 24.77 48.41 25.39 49.06 26.23C49.21 26.42 49.32 26.67 49.04 26.88C48.02 24.98 46.83 23.21 45.29 21.67C44.09 20.47 44.18 18.66 45.34 17.56C46.49 16.46 48.23 16.49 49.48 17.68C50.55 18.71 51.6 19.77 52.3 21.11V21.11Z" fill="#00CB9C"/>
<path d="M29.28 49.13C29.48 49.59 29.97 49.5 30.38 49.69C29.24 50.7 28.15 51.7 27.02 52.66C26.57 53.05 26.33 53.51 26.23 54.07C23.78 53.31 21.64 52.04 19.75 50.32C20.61 48.79 22.19 48 23.4 46.82C23.58 46.65 23.7 46.5 23.78 46.29C25.49 47.48 27.32 48.43 29.28 49.14V49.13Z" fill="#00C89E"/>
<path d="M16.65 62.07C14.53 60.94 12.65 59.5 10.97 57.8C12.31 56.44 13.71 55.15 15.26 54.03C16.94 55.37 18.69 56.62 20.51 57.76C21 58.1 21.02 58.52 20.61 58.89C19.37 59.97 18.21 61.13 16.88 62.1C16.82 62.14 16.72 62.1 16.65 62.07V62.07Z" fill="#00C89E"/>
<path d="M64.53 19.46C64.53 19.58 64.58 19.76 64.52 19.82C63.14 21.15 62.02 22.8 60.05 23.4C59.16 21.43 58.12 19.54 56.99 17.69C57.74 16.3 59.21 15.64 60.24 14.53C60.51 14.24 60.86 14.01 61.05 13.65C62.52 15.4 63.68 17.35 64.53 19.47V19.46Z" fill="#00C89E"/>
<path d="M35.01 61.25C32.41 62.39 30.66 64.54 28.77 66.5C26.51 66.26 24.33 65.7 22.25 64.77C23.51 63.42 24.98 62.3 26.35 61.07C26.69 60.76 26.57 60.53 26.53 60.23C29.32 60.88 32.15 61.21 35.02 61.25H35.01Z" fill="#01C2A4"/>
<path d="M26.5199 60.23C26.7199 60.52 27.0699 60.86 26.6699 61.17C25.1499 62.32 24.0099 63.92 22.2499 64.78C20.2399 64.18 18.3899 63.25 16.6499 62.08C17.7699 60.94 18.9599 59.89 20.2299 58.92C20.6499 58.6 20.8199 58.26 20.5199 57.77C22.4699 58.71 24.4799 59.52 26.5299 60.23H26.5199Z" fill="#00C4A1"/>
<path d="M23.77 46.28C23.87 47.15 23.04 47.36 22.61 47.8C21.73 48.71 20.71 49.48 19.75 50.32C18.01 49.03 16.65 47.4 15.48 45.59L19.75 41.6C20.88 43.34 22.24 44.88 23.77 46.27V46.28Z" fill="#00CB9C"/>
<path d="M15.27 54.04C14.04 55.52 12.65 56.82 10.98 57.81C9.43998 56.5 8.08998 55.02 6.97998 53.33C8.09998 51.63 9.64998 50.4 11.36 49.35C12.27 51.24 13.95 52.5 15.28 54.04H15.27Z" fill="#00CB9C"/>
<path d="M25.7699 37.85C26.0099 37.42 26.3399 37.09 26.7699 36.85C27.2099 36.59 27.5799 36.25 27.8799 35.86C28.5599 34.99 29.2199 35.02 29.9199 35.82C30.9399 36.71 31.8999 37.67 33.2199 38.13C33.6599 38.33 34.1399 38.3 34.5999 38.3C34.6499 38.3 34.6999 38.32 34.7599 38.32L35.4899 38.36C33.3999 38.56 32.4099 40.37 30.8999 41.4C30.2799 41.82 29.8699 42.37 29.7199 43.11C27.7799 42.42 26.3299 41.14 25.2499 39.42C24.7099 38.65 25.1799 38.23 25.7799 37.84L25.7699 37.85Z" fill="#00CB9C"/>
<path d="M36.77 29.38C36.92 27.87 38.31 27.35 39.2 26.46C39.63 26.03 40.15 25.69 40.51 25.18C42.32 26.34 43.45 28 44.06 30.04C44.02 30.24 44.06 30.56 43.94 30.63C42.23 31.67 40.94 33.28 39.14 34.23C38.85 33.69 39.2 33.1 38.84 32.63C38.15 31.55 37.29 30.57 36.76 29.39L36.77 29.38Z" fill="#00CB9C"/>
<path d="M45.03 7.95C46.01 7.66 46.57 6.8 47.35 6.22C48.23 5.57 48.97 4.75 49.77 4C51.79 4.76 53.43 6.08 55.02 7.48C53.93 8.82 52.61 9.9 51.24 10.93C50.77 11.28 50.39 10.89 49.99 10.71L45.03 7.95V7.95Z" fill="#00D097"/>
<path d="M61.0501 13.64C61.0501 13.88 61.1501 14.26 61.0501 14.33C59.5501 15.28 58.4601 16.71 56.9901 17.69L53.5301 13.69C53.3701 13.26 53.6001 12.96 53.8901 12.72C54.7401 12 55.5201 11.19 56.3701 10.47C57.1401 9.81002 57.7001 9.79002 58.3101 10.59C58.4401 10.76 58.6401 10.84 58.8201 10.94C59.7101 11.72 60.4501 12.63 61.0501 13.65V13.64Z" fill="#00CB9C"/>
<path d="M30.77 17.44C32.02 16.73 33.41 16.99 34.83 16.89C34.4 16.47 33.89 16.82 33.32 16.48C35.09 14.86 36.58 13.02 38.77 11.96C40.38 12.5 41.22 13.79 40.92 15.23C40.59 16.79 39.16 17.89 37.6 17.56C35.32 17.08 33.06 17.17 30.78 17.43L30.77 17.44Z" fill="#00D296"/>
<path d="M58.82 10.93C58.74 10.93 58.62 10.95 58.58 10.9C57.61 9.72998 56.76 10.4 56.02 11.13C55.18 11.96 54.16 12.64 53.54 13.68C52.36 12.69 51.18 11.69 50 10.7C51.32 11.18 51.88 9.98998 52.65 9.39998C53.45 8.77998 54.12 7.97998 55.03 7.47998C56.56 8.33998 57.69 9.62998 58.82 10.93Z" fill="#02CE9A"/>
<path d="M61.8 30.38C62.14 30.51 62.22 30.88 62.44 31.11C63.06 31.78 63.73 32.24 64.5 31.29C64.58 31.19 64.67 31.09 64.78 31.04C67.05 29.92 67.16 28.14 66.59 25.95C66.18 24.4 65.4401 22.94 65.3301 21.31C66.5401 23.88 67.11 26.62 67.45 29.41C67.63 30.89 66.56 32.17 65.1 32.46C63.57 32.76 62.35 32 61.8 30.39V30.38Z" fill="#03C3A5"/>
<path d="M25.77 37.85C25.45 38.33 24.94 38.75 25.24 39.43C24.72 38.93 24.43 38.29 24.2 37.62C24.68 38.02 25.19 38.2 25.77 37.85V37.85Z" fill="#01CE9A"/>
<path d="M20.3101 23.67C20.4701 22.84 20.9101 22.31 21.8001 22.23C21.3701 22.78 20.8801 23.27 20.3101 23.67Z" fill="#00D692"/>
<path d="M23.4899 32.05C23.4899 33 23.4899 33.96 23.4899 34.91C23.1799 33.96 23.1699 33 23.4899 32.05Z" fill="#01CE9A"/>
<path d="M32.51 0.0299875C31.94 0.409988 31.31 0.159988 30.71 0.209988C31.29 -0.0500125 31.9 -1.24555e-05 32.51 0.0299875Z" fill="#00D791"/>
<path d="M0.47998 40.6C0.69998 40.81 1.26998 40.78 1.01998 41.34C0.64998 41.23 0.47998 40.98 0.47998 40.6Z" fill="#00D692"/>
<path d="M41.03 48.31C40.69 48.73 40.24 48.84 39.72 48.79C40.12 48.53 40.53 48.3 41.03 48.31Z" fill="#00C1A4"/>
<path d="M36.62 11.66C36.17 11.64 35.68 11.84 35.28 11.48C35.74 11.43 36.2 11.41 36.62 11.66Z" fill="#00D296"/>
<path d="M171.13 15.17C160.99 15.17 152.73 23.38 152.7 33.44C152.67 43.5 160.94 51.71 171.1 51.72C181.29 51.73 189.45 43.62 189.46 33.47C189.46 23.34 181.27 15.16 171.13 15.16V15.17ZM171.13 43.84C165.38 43.85 160.6 39.07 160.66 33.36C160.72 27.67 165.44 23.08 171.21 23.1C176.87 23.13 181.52 27.77 181.56 33.43C181.6 39.08 176.84 43.82 171.14 43.83L171.13 43.84Z" fill="white"/>
<path d="M98.5599 15.17C88.4599 15.1 80.1599 23.32 80.1399 33.4C80.1199 43.54 88.2799 51.7 98.4399 51.72C108.61 51.74 116.84 43.62 116.88 33.52C116.92 23.45 108.72 15.25 98.5499 15.17H98.5599ZM98.5099 43.84C92.7999 43.86 88.0899 39.18 88.0899 33.47C88.0899 27.74 92.7399 23.1 98.4899 23.11C104.24 23.11 108.94 27.77 108.93 33.46C108.93 39.15 104.22 43.83 98.4999 43.85L98.5099 43.84Z" fill="white"/>
<path d="M29.31 31.88C29.01 33.34 29.13 34.75 29.82 36.09C29.09 35.3 28.43 35.29 27.77 36.2C27.54 36.52 27.24 36.86 26.76 36.85C27 36.57 27.21 36.25 27.49 36.01C28.35 35.26 29.1 34.52 28.79 33.2C28.69 32.76 28.88 32.22 29.3 31.87L29.31 31.88Z" fill="#01CE9A"/>
<path d="M30.28 30.13C29.95 30.72 29.62 31.32 29.29 31.91C29.24 31.11 29.58 30.52 30.28 30.13Z" fill="#01CE9A"/>
<path d="M33.27 38.34C33.77 38.34 34.27 38.34 34.77 38.33C34.27 38.75 33.77 38.73 33.27 38.34Z" fill="#00C79F"/>
</g>
<defs>
<clipPath id="clip0_37_137">
<rect width="243.69" height="67.01" fill="white"/>
</clipPath>
</defs>
</svg>
