<svg xmlns="http://www.w3.org/2000/svg" width="44" height="44" viewBox="0 0 44 44">
  <g id="Group_3337" data-name="Group 3337" transform="translate(-19 -21)">
    <rect id="Rectangle_449" data-name="Rectangle 449" width="44" height="44" transform="translate(19 21)" fill="#fff"/>
    <path id="Icon_awesome-user-tie" data-name="Icon awesome-user-tie" d="M15.75,18a9,9,0,1,0-9-9A9,9,0,0,0,15.75,18Zm6.736,2.292L19.125,33.75l-2.25-9.562,2.25-3.937h-6.75l2.25,3.938-2.25,9.563L9.014,20.292A9.434,9.434,0,0,0,0,29.7v2.925A3.376,3.376,0,0,0,3.375,36h24.75A3.376,3.376,0,0,0,31.5,32.625V29.7a9.434,9.434,0,0,0-9.014-9.408Z" transform="translate(25 25)"/>
  </g>
</svg>
