<svg width="96" height="96" viewBox="0 0 96 96" fill="none" xmlns="http://www.w3.org/2000/svg">
<g clip-path="url(#clip0_46_115)">
<path fill-rule="evenodd" clip-rule="evenodd" d="M28 36V28H68V36H52V40.2C60.8 40.6 72 42.5 72 48C72 53.5 60.8 55.4 52 55.8V72H44V55.8C35.2 55.4 24 53.5 24 48C24 42.5 35.2 40.6 44 40.2V36H28ZM44 47.9V44C34.3 44.5 28.5 46.7 28 48C28.5 49.2 35.9 51.9 48 51.9C60.1 51.9 67.4 49.2 68 47.8C67.5 46.7 61.7 44.5 52 44V47.9H44Z" fill="#27A17C"/>
<path d="M48 4.90002C23.7 4.90002 4 24.6 4 48.9C4 73.2 23.7 92.9 48 92.9C72.3 92.9 92 73.2 92 48.9C92 24.6 72.3 4.90002 48 4.90002ZM48 84.9C28.1 84.9 12 68.8 12 48.9C12 29 28.1 12.9 48 12.9C67.9 12.9 84 29 84 48.9C84 68.8 67.9 84.9 48 84.9Z" fill="white"/>
</g>
<defs>
<clipPath id="clip0_46_115">
<rect width="96" height="96" fill="white"/>
</clipPath>
</defs>
</svg>
