<svg width="96" height="96" viewBox="0 0 96 96" fill="none" xmlns="http://www.w3.org/2000/svg">
<g clip-path="url(#clip0_45_110)">
<path d="M28 28V36H44V40.2C35.2 40.6 24 42.5 24 48C24 53.5 35.2 55.4 44 55.8V72H52V55.8C60.8 55.4 72 53.5 72 48C72 42.5 60.8 40.6 52 40.2V36H68V28H28Z" fill="#27A17C"/>
<path d="M44 44.1V48H52V44.1C61.7 44.6 67.5 46.8 68 47.9C67.4 49.3 60.1 52 48 52C35.9 52 28.5 49.3 28 48.1C28.5 46.8 34.3 44.6 44 44.1Z" fill="white"/>
<path d="M48 4.90002C23.7 4.90002 4 24.6 4 48.9C4 73.2 23.7 92.9 48 92.9C72.3 92.9 92 73.2 92 48.9C92 24.6 72.3 4.90002 48 4.90002ZM48 84.9C28.1 84.9 12 68.8 12 48.9C12 29 28.1 12.9 48 12.9C67.9 12.9 84 29 84 48.9C84 68.8 67.9 84.9 48 84.9Z" fill="white"/>
</g>
<defs>
<clipPath id="clip0_45_110">
<rect width="96" height="96" fill="white"/>
</clipPath>
</defs>
</svg>
