<svg xmlns="http://www.w3.org/2000/svg" width="44" height="44" viewBox="0 0 44 44">
  <g id="Group_3336" data-name="Group 3336" transform="translate(-19 -23)">
    <rect id="Rectangle_449" data-name="Rectangle 449" width="44" height="44" transform="translate(19 23)" fill="#fff"/>
    <path id="Icon_awesome-upload" data-name="Icon awesome-upload" d="M21.165,27.458h-5.72a1.712,1.712,0,0,1-1.716-1.716V13.729H7.458A1.427,1.427,0,0,1,6.45,11.29L17.326.407a1.385,1.385,0,0,1,1.952,0L30.161,11.29a1.427,1.427,0,0,1-1.008,2.438H22.881V25.742A1.712,1.712,0,0,1,21.165,27.458Zm15.445-.572v8.009a1.712,1.712,0,0,1-1.716,1.716H1.716A1.712,1.712,0,0,1,0,34.894V26.886a1.712,1.712,0,0,1,1.716-1.716h9.725v.572a4.007,4.007,0,0,0,4,4h5.72a4.007,4.007,0,0,0,4-4v-.572h9.725A1.712,1.712,0,0,1,36.61,26.886Zm-8.867,6.292a1.43,1.43,0,1,0-1.43,1.43A1.434,1.434,0,0,0,27.744,33.178Zm4.576,0a1.43,1.43,0,1,0-1.43,1.43A1.434,1.434,0,0,0,32.32,33.178Z" transform="translate(23 26.995)"/>
  </g>
</svg>
