<svg id="dKWY9A" xmlns="http://www.w3.org/2000/svg" width="98.731" height="58.408" viewBox="0 0 98.731 58.408">
  <g id="Group_120" data-name="Group 120">
    <path id="Path_329" data-name="Path 329" d="M-823.095-2206.636l-7.281-.552c-.239-1.535-.415-3.026-.733-4.486-.09-.41-.577-1.016-.918-1.042a16.008,16.008,0,0,0-4.178.041c-2.793.541-4.24,2.585-4.919,5.185a19.028,19.028,0,0,0,.034,9.78c1.1,4.157,4.081,5.893,8.511,5.223,1.139-.173,1.756-.516,1.821-1.785a36.157,36.157,0,0,1,.612-3.9h7.018c.029.314.081.613.082.912.006,2.844-.026,5.687.022,8.53a1.246,1.246,0,0,1-.875,1.343,27.618,27.618,0,0,1-13.13,2.207,27.056,27.056,0,0,1-5.066-.812,12.63,12.63,0,0,1-9.15-8.9,23.578,23.578,0,0,1-.195-14.189,14.614,14.614,0,0,1,9.853-10.133,23.7,23.7,0,0,1,16.939.787,2.159,2.159,0,0,1,1.59,2.41c-.124,2.7-.036,5.4-.035,8.107Z" transform="translate(852.441 2223.56)" fill="#a2a2a2"/>
    <path id="Path_330" data-name="Path 330" d="M-737.931-2191.626l3.553-8.817-2.876-.478c.234-1.69.458-3.308.691-5h12.027c0,1.535.038,3.068-.041,4.595-.012.228-.57.6-.884.61a2.252,2.252,0,0,0-2.159,1.763c-2.786,7.1-5.624,14.178-8.44,21.264-.112.283-.179.586-.279.922,1.506.176,2.926.363,4.351.5.5.046.771.167.76.737-.026,1.4-.008,2.8-.008,4.3h-18.556v-4.974c1.169-.16,2.3-.366,3.443-.457a2.29,2.29,0,0,0,1.855-1.3,4.185,4.185,0,0,0,.036-4.705c-2.792-5.368-5.4-10.833-8.016-16.293a2.548,2.548,0,0,0-2.149-1.694,9.131,9.131,0,0,1-1.142-.277c.316-1.7.616-3.316.928-5h15.065v5.017l-2.7.439,4.109,8.9Z" transform="translate(823.258 2219.185)" fill="#a2a2a2"/>
    <path id="Path_331" data-name="Path 331" d="M-785.543-2209.009c5.2-.477,6.875-3.959,7.353-8.469h6.128v2.279c0,1.616.031,3.231-.012,4.845-.02.707.241.914.915.9,1.893-.031,3.786-.01,5.769-.01v6.235h-6.672c0,2.9-.007,5.667,0,8.432a9.865,9.865,0,0,0,.121,1.675c.258,1.441.781,1.963,2.263,1.944a37.922,37.922,0,0,0,3.861-.437c.223.782.478,1.678.738,2.574.253.872.512,1.742.794,2.7a19.215,19.215,0,0,1-9.078,2.25,18.9,18.9,0,0,1-3.031-.27,6.182,6.182,0,0,1-5.388-5.52A19.027,19.027,0,0,1-782-2192.7c-.027-3.16-.033-6.321,0-9.48.01-.774-.2-1.086-1-1.031-.829.057-1.666.012-2.544.012Z" transform="translate(832.246 2222.672)" fill="#a2a2a2"/>
    <path id="Path_332" data-name="Path 332" d="M-807.57-2201.08l.648-5.043c.392-.026.765-.071,1.137-.071,3.336-.006,6.671.032,10-.027,1-.018,1.22.321,1.213,1.26-.041,5.582.014,11.164-.051,16.745-.013,1.141.3,1.727,1.445,1.726.834,0,1.065.392,1.028,1.182-.058,1.257-.015,2.52-.015,3.86h-14.826c0-1.475-.032-2.968.038-4.458.009-.2.515-.47.828-.54,1.518-.335,1.522-.315,1.522-1.9,0-3.4-.037-6.811.024-10.215.018-1.038-.265-1.648-1.31-1.892A13.585,13.585,0,0,1-807.57-2201.08Z" transform="translate(838.896 2219.274)" fill="#a2a2a2"/>
    <path id="Path_333" data-name="Path 333" d="M-832.949-2148.437v-2.18l1.632-.3c0-3.4.009-6.728-.022-10.056,0-.216-.337-.629-.473-.612-1.392.177-1.224-.756-1.2-1.6.008-.238.031-.476.042-.645,3.359,0,6.644-.108,9.918.042a3.515,3.515,0,0,1,3.315,3.162,4.323,4.323,0,0,1-1.927,4.834c-.109.071-.223.131-.16.094a22.509,22.509,0,0,1,1.138,2.836c.331,1.3.768,2.34,2.417,2.138v2.373c-1.829,0-3.608.028-5.384-.032-.246-.009-.6-.412-.694-.7-.469-1.426-.848-2.883-1.3-4.314a6.215,6.215,0,0,0-.616-1.108l-.32.091a24.19,24.19,0,0,0,.048,3.07c.041.32.646.567,1.129.958v1.949Zm6.431-12.263v3.179c1.539.036,2.018-.464,1.939-1.945C-824.635-2160.534-825.134-2160.857-826.518-2160.7Z" transform="translate(846.581 2206.488)" fill="#a2a2a2"/>
    <path id="Path_334" data-name="Path 334" d="M-799.192-2163.964v5.033c-.994,0-1.962.028-2.925-.025-.182-.01-.424-.315-.5-.532a8.965,8.965,0,0,1-.267-1.28h-1.964v2.841h4.266v3.358h-4.252v2.978c.724,0,1.619.259,2.122-.074.482-.319.555-1.253.832-1.98h3.154v5.184h-12.515v-2.141c1.612-.321,1.611-.321,1.611-2.051,0-2.7.018-5.4-.026-8.106,0-.3-.374-.862-.543-.85-1.08.073-1.228-.512-1.132-1.362.034-.307.036-.618.055-.995Z" transform="translate(840.039 2206.518)" fill="#a2a2a2"/>
    <path id="Path_335" data-name="Path 335" d="M-852.365-2164.042c3.172,0,6.152-.072,9.127.023a4.032,4.032,0,0,1,4.057,4.105c.2,3.665-1.594,5.656-5.272,5.85-.452.024-.9.041-1.434.065v3.05l3.262.254v2.213H-852.3v-2.113c.061-.052.109-.126.165-.132,1.77-.2,1.467-.117,1.475-1.691.015-2.735-.017-5.469.018-8.2.009-.719-.1-1.165-.949-1.077-.575.06-.825-.217-.777-.81C-852.334-2162.985-852.365-2163.469-852.365-2164.042Zm6.454,6.841c1.758.077,2-1.283,1.821-2.488-.144-.942-.719-1.253-1.821-1.01Z" transform="translate(852.422 2206.549)" fill="#a2a2a2"/>
    <path id="Path_336" data-name="Path 336" d="M-773.043-2154.183c1.025,0,1.93.015,2.833,0,.8-.017.623.636.727,1.051.385,1.521,1.268,2,2.71,1.349a1.321,1.321,0,0,0,.716-.886,1.411,1.411,0,0,0-.533-1.112,14.518,14.518,0,0,0-1.965-.694,10.788,10.788,0,0,1-2.752-1.22c-2.3-1.81-2-6.06.532-7.686,2.707-1.738,5.558-1.268,8.386-.276a.721.721,0,0,1,.38.535c.031,1.43.017,2.862.017,4.4l-3.329-.258a8.071,8.071,0,0,0-.209-.986c-.135-.391-.294-1.064-.5-1.086a3.561,3.561,0,0,0-1.9.25c-.7.359-.529,1.369.311,1.736.989.432,2.057.681,3.061,1.084a4.9,4.9,0,0,1,1.945,7.748,4.882,4.882,0,0,1-3.771,1.833,55.666,55.666,0,0,1-5.825-.533c-.637-.066-.868-.429-.85-1.076C-773.015-2151.374-773.043-2152.735-773.043-2154.183Z" transform="translate(828.477 2206.694)" fill="#a2a2a2"/>
    <path id="Path_337" data-name="Path 337" d="M-791.456-2154.111a23.7,23.7,0,0,1,2.9.046c.255.032.547.592.638.956.392,1.555,1.09,2,2.591,1.422a1.487,1.487,0,0,0,.852-.987,1.4,1.4,0,0,0-.668-1.115,24.747,24.747,0,0,0-2.687-.858c-2.193-.708-3.268-1.98-3.348-3.93-.145-3.519,1.6-5.606,5.165-5.763a24.322,24.322,0,0,1,4.946.646.964.964,0,0,1,.648.644c.06,1.426.03,2.857.03,4.386l-3.339-.259a7.954,7.954,0,0,0-.207-.986c-.135-.39-.3-1.061-.5-1.083a3.828,3.828,0,0,0-1.9.246.92.92,0,0,0,.045,1.576,6.3,6.3,0,0,0,1.334.594c.424.157.873.25,1.3.394,2.934.977,3.949,2.5,3.69,5.51a4.992,4.992,0,0,1-4.695,4.35,14.723,14.723,0,0,1-6.028-.558.912.912,0,0,1-.774-1.038C-791.433-2151.278-791.456-2152.639-791.456-2154.111Z" transform="translate(834.035 2206.633)" fill="#a2a2a2"/>
    <path id="Path_338" data-name="Path 338" d="M-793.893-2219.38c-.048,3.465-2.079,5.43-5.568,5.388-3.47-.042-5.5-2.159-5.446-5.669.054-3.317,2.205-5.329,5.621-5.255C-795.726-2224.838-793.845-2222.907-793.893-2219.38Z" transform="translate(838.092 2224.918)" fill="#a2a2a2"/>
  </g>
</svg>
