<svg id="zYaTsm.tif" xmlns="http://www.w3.org/2000/svg" width="153.299" height="39.757" viewBox="0 0 153.299 39.757">
  <g id="Group_119" data-name="Group 119" transform="translate(0 0)">
    <path id="Path_323" data-name="Path 323" d="M-1005.676-2171.8c-1.141-.131-2.288-.225-3.422-.4-1.481-.229-2.95-.533-4.428-.782-.438-.073-.406-.346-.4-.665.053-5.547.129-11.094.138-16.641.008-4.481-.055-8.963-.115-13.444a10.475,10.475,0,0,0-.277-2.127,2.956,2.956,0,0,0-2.5-2.5,1.011,1.011,0,0,1-.436-.116,5.623,5.623,0,0,1-.554-.576c.19-.159.359-.42.572-.462,2.024-.4,4.055-.773,6.084-1.15,1.578-.293,3.158-.584,4.835-.894v12.933c.6-.247,1.062-.449,1.535-.633,3.276-1.27,6.518-1.468,9.66.389a10.517,10.517,0,0,1,4.652,5.782,17.035,17.035,0,0,1-1.722,15.487c-2.328,3.583-5.886,5.21-10.043,5.672-.279.031-.555.084-.832.128Zm7.957-14.734c0-.739.044-1.481-.008-2.217a12.572,12.572,0,0,0-1.725-5.883c-1.486-2.377-3.266-2.989-5.9-2.314a.68.68,0,0,0-.616.792c.034,6.414.044,12.83.07,19.244a21.673,21.673,0,0,0,.115,2.344c.026.231.279.6.468.625a4.263,4.263,0,0,0,4.143-1.165,12.839,12.839,0,0,0,2-3.092A18.451,18.451,0,0,0-997.719-2186.537Z" transform="translate(1093.2 2211.56)" fill="#a2a2a2"/>
    <path id="Path_324" data-name="Path 324" d="M-960.713-2167.031c-.9-.149-1.812-.23-2.688-.457a12.394,12.394,0,0,1-9.541-9.983,16.42,16.42,0,0,1,.806-10.307c2.192-4.986,6-7.785,11.521-7.967a14.522,14.522,0,0,1,4.118.463,8.849,8.849,0,0,1,5.616,4.646,17.69,17.69,0,0,1,1.805,7.781h-.8q-7.377.019-14.753.04c-.971,0-.957.031-.877,1.009a18.755,18.755,0,0,0,.973,5.235,8.785,8.785,0,0,0,9.032,5.7,8.946,8.946,0,0,0,4.656-1.487.781.781,0,0,1,.344-.179c.228-.017.6-.058.661.054a.8.8,0,0,1,.019.732,16.881,16.881,0,0,1-2.051,1.995,12.608,12.608,0,0,1-6.775,2.622,4.156,4.156,0,0,0-.5.1Zm3.341-18.009a15.2,15.2,0,0,0-.474-5.541,8.92,8.92,0,0,0-1.046-2.36,2,2,0,0,0-3.018-.544,4.62,4.62,0,0,0-1.525,1.729,33.752,33.752,0,0,0-1.44,4.3,19.736,19.736,0,0,0-.391,2.416Z" transform="translate(1079.837 2206.788)" fill="#a2a2a2"/>
    <path id="Path_325" data-name="Path 325" d="M-927.346-2167.033c-1.355-.172-2.719-.295-4.062-.534-1.152-.205-2.279-.545-3.417-.824a.865.865,0,0,1-.718-.941c0-2.392,0-4.784,0-7.233.758-.41.779-.352,1.232.512a29.531,29.531,0,0,0,2.4,4.159,6.017,6.017,0,0,0,6.116,2.376,4.054,4.054,0,0,0,3.393-3.293,3.746,3.746,0,0,0-1.871-4.344c-1.382-.766-2.874-1.33-4.293-2.033a23.583,23.583,0,0,1-3.933-2.124c-3.9-2.988-3.222-9.247.183-11.976a10.666,10.666,0,0,1,6.53-2.451,22,22,0,0,1,8.3,1.029,1.065,1.065,0,0,1,.873,1.185c-.037,1.847.01,3.7.084,5.545.024.584-.3.695-.711.8-.469.126-.447-.278-.573-.528a34.882,34.882,0,0,0-2.023-3.924,5.178,5.178,0,0,0-5.19-2.339,3.644,3.644,0,0,0-3.238,3.53,3.788,3.788,0,0,0,1.869,3.878c1.315.8,2.715,1.452,4.091,2.145.989.5,2.008.936,3,1.431,3.81,1.905,4.753,5.16,3.921,8.851-.823,3.65-3.343,5.625-6.8,6.546a33.676,33.676,0,0,1-3.331.552Z" transform="translate(1068.407 2206.79)" fill="#a2a2a2"/>
    <path id="Path_326" data-name="Path 326" d="M-1111.7-2207.926c-.04.461-.1.912-.113,1.363-.094,4.5-.168,9.007-.281,13.509-.017.672.193.881.85.829,1.343-.108,2.691-.156,4.037-.234a3.16,3.16,0,0,0,2.691-1.706,10.422,10.422,0,0,0,1.1-2.7c.165-.738.459-.94,1.121-.845.125.018.252.024.42.039v12.735h-1.3a12.183,12.183,0,0,0-.454-1.567,13.85,13.85,0,0,0-1.176-2.305,3.06,3.06,0,0,0-2.543-1.37c-1.347-.042-2.695-.11-4.042-.184-.477-.026-.72.092-.695.642.177,3.8.328,7.6.5,11.4a6.94,6.94,0,0,0,.158.965c.374,1.994,1.38,3.353,3.556,3.551.3.027.594.125.893.183,1.019.2,1.019.2.866,1.293h-19.609c-.271-1.053-.2-1.169.834-1.361,2.926-.542,3.7-1.275,4.178-4.218a25.059,25.059,0,0,0,.343-3.9q.056-9.659.009-19.318a25.725,25.725,0,0,0-.407-4.15c-.415-2.443-1.437-3.365-3.9-3.728-1.215-.179-1.215-.179-1.11-1.486h30.869c0,1.016-.012,2.01,0,3,.034,2.328.056,4.656.131,6.983.031.96-.768.7-1.223.912-.478.223-.465-.263-.6-.532-.741-1.518-1.393-3.091-2.265-4.531a7.576,7.576,0,0,0-4.527-3.215,1.4,1.4,0,0,0-.384-.056q-3.787-.042-7.573-.073A2.277,2.277,0,0,0-1111.7-2207.926Z" transform="translate(1125.857 2211.233)" fill="#a2a2a2"/>
    <path id="Path_327" data-name="Path 327" d="M-1073.44-2167.167c-7.415.3-11.913-4.705-12.848-10.86a17.285,17.285,0,0,1,1.315-10.637,12.358,12.358,0,0,1,10.983-7.111,14.656,14.656,0,0,1,5.923.7,11.6,11.6,0,0,1,7.406,7.941,17.749,17.749,0,0,1-.3,11.78,12.448,12.448,0,0,1-11.633,8.189C-1072.875-2167.162-1073.158-2167.167-1073.44-2167.167Zm-4.764-14.522a26.236,26.236,0,0,0,.672,7.135,9.653,9.653,0,0,0,2.16,4.534,3.15,3.15,0,0,0,4.65.064,6.485,6.485,0,0,0,1.793-3.485,36.837,36.837,0,0,0,.044-14.89,8.552,8.552,0,0,0-2.348-4.642,3.074,3.074,0,0,0-4.821.358,9.964,9.964,0,0,0-1.325,2.8A26.243,26.243,0,0,0-1078.2-2181.689Z" transform="translate(1113.998 2206.808)" fill="#a2a2a2"/>
    <path id="Path_328" data-name="Path 328" d="M-1031.622-2167.917h-16.072c-.217-1.009-.158-1.1.816-1.3,1.878-.387,2.606-1.141,2.743-3.076a134.339,134.339,0,0,0,.1-16.632,7.1,7.1,0,0,0-.164-1.1,2.589,2.589,0,0,0-2.545-2.437,1.443,1.443,0,0,1-.506-.106,3.885,3.885,0,0,1-.544-.494c.175-.179.325-.474.53-.519,1.909-.422,3.827-.8,5.744-1.193,1.745-.355,3.49-.7,5.3-1.07v5.969l.145.051c.222-.362.454-.718.664-1.088a10.838,10.838,0,0,1,3.161-3.684,6.642,6.642,0,0,1,6.371-.938c.471.169.643.375.433.911-.848,2.161-1.648,4.341-2.5,6.592l-.981-.411a7.488,7.488,0,0,0-6.189-.239,1.8,1.8,0,0,0-1.264,1.919c.119,4.436.117,8.875.2,13.313a11.129,11.129,0,0,0,.336,2.25,2.3,2.3,0,0,0,2.148,1.877c.388.046.776.1,1.166.133C-1031.42-2169.11-1031.416-2169.11-1031.622-2167.917Z" transform="translate(1102.293 2206.851)" fill="#a2a2a2"/>
  </g>
</svg>
