<svg id="p5Ik9m.tif" xmlns="http://www.w3.org/2000/svg" width="54.385" height="54.362" viewBox="0 0 54.385 54.362">
  <g id="Group_117" data-name="Group 117">
    <path id="Path_319" data-name="Path 319" d="M-1390.159-2222.02h54.363c.008.125.021.244.021.362q0,26.818,0,53.636c0,.363,0,.364-.384.364h-53.578c-.422,0-.422,0-.422-.409q0-26.775,0-53.551Zm5.982,8.63c.17.013.331.019.489.04.4.053.794.09,1.182.177a1.437,1.437,0,0,1,1.173,1.148,6.1,6.1,0,0,1,.163,1.267q.016,8.717,0,17.432a5.721,5.721,0,0,1-.066.853,1.65,1.65,0,0,1-1.009,1.471,3.838,3.838,0,0,1-.771.193c-.4.06-.808.089-1.22.131v.888h11.581v-.9c-.115-.008-.21-.009-.3-.022-.668-.088-1.341-.144-2-.279a1.384,1.384,0,0,1-1.128-1.156,9.043,9.043,0,0,1-.161-1.612c-.017-2.529-.008-5.059-.008-7.589,0-.047,0-.095,0-.142-.012-.145.05-.21.2-.2,1.215.052,2.437.036,3.641.17a3.253,3.253,0,0,1,2.939,2.6c.025.092.048.183.07.276.143.583.143.569.737.586.268.008.332-.081.332-.338-.008-2.672,0-5.345-.006-8.017,0-.1-.01-.2-.017-.3h-.916c-.028.116-.05.217-.077.317-.082.3-.151.609-.251.906a2.6,2.6,0,0,1-2.415,1.834c-1.293.119-2.6.115-3.9.18-.281.014-.345-.083-.344-.352.01-2.425,0-4.85.008-7.275a5.063,5.063,0,0,1,.051-.71.7.7,0,0,1,.577-.627,2.25,2.25,0,0,1,.478-.063c1.664,0,3.329-.021,4.992.016a17.048,17.048,0,0,1,2.351.234,3.525,3.525,0,0,1,2.9,2.362c.1.267.191.537.3.8.028.07.095.172.149.175.3.017.6.008.92.008l-.144-5.394h-20.5Zm21.7,4.489c.386,0,.708-.009,1.03,0,.168.007.228-.068.276-.214.114-.342.237-.682.377-1.014a3.609,3.609,0,0,1,3.449-2.365c1.14-.039,2.282-.027,3.423-.036a2.307,2.307,0,0,1,.252.028v.376q0,9.116,0,18.232c0,.351-.016.7-.043,1.054a1.865,1.865,0,0,1-1.909,2.023c-.047.006-.1.01-.142.014l-1.373.125c0,.25,0,.478,0,.7a1.66,1.66,0,0,0,.02.172h11.808v-.889c-.111-.007-.2-.008-.3-.02-.629-.087-1.264-.145-1.884-.275a1.355,1.355,0,0,1-1.092-1.12,8.421,8.421,0,0,1-.167-1.581q-.017-9.259-.006-18.518c0-.1.01-.2.015-.294a.61.61,0,0,1,.112-.028c1.245.011,2.493-.02,3.736.047a3.476,3.476,0,0,1,3.146,2.11c.188.4.328.83.5,1.24.036.084.113.208.177.212.358.021.717.01,1.086.01,0-.153.01-.275,0-.4-.146-1.581-.3-3.16-.437-4.742-.021-.245-.118-.288-.337-.287q-10.457.007-20.915,0c-.1,0-.2.012-.309.018Z" transform="translate(1390.159 2222.02)" fill="#a2a2a2"/>
  </g>
</svg>
