<svg id="PlRP5d.tif" xmlns="http://www.w3.org/2000/svg" width="78.211" height="39.125" viewBox="0 0 78.211 39.125">
  <g id="Group_121" data-name="Group 121" transform="translate(0)">
    <path id="Path_339" data-name="Path 339" d="M-634.038-2171.963H-647.08c.006-.1.017-.195.017-.292q0-12.732,0-25.463c0-.1-.011-.21-.019-.355h-13v-12.969h39.069v.449q0,6.064,0,12.129c0,.141.008.282.012.423l.009-.009c-.054,0-.108-.011-.162-.011h-12.614c-.084,0-.168.01-.287.017v.433q0,12.631,0,25.26C-634.054-2172.223-634.044-2172.093-634.038-2171.963Z" transform="translate(660.083 2211.088)" fill="#a2a2a2"/>
    <path id="Path_340" data-name="Path 340" d="M-564.973-2179.387v13.042H-604.1c.006-.119.016-.238.016-.357q0-12.687,0-25.373c0-.119-.008-.238-.012-.358l-.009.009c1.79,0,3.58.012,5.37.012q3.84,0,7.681-.008l-.009-.013c0,.055-.012.108-.012.163q0,6.306,0,12.613c0,.084.01.168.017.288h25.693C-565.232-2179.37-565.1-2179.382-564.973-2179.387Z" transform="translate(643.184 2205.47)" fill="#a2a2a2"/>
    <path id="Path_341" data-name="Path 341" d="M-585.412-2198.057c0-.141.012-.282.012-.423q0-6.1,0-12.191v-.419h25.611c.151,0,.3-.011.455-.016v13.042c-.119-.006-.238-.017-.357-.017h-25.373c-.119,0-.238.008-.357.012Z" transform="translate(637.545 2211.107)" fill="#a2a2a2"/>
  </g>
</svg>
