<svg id="awIhEe.tif" xmlns="http://www.w3.org/2000/svg" width="100.006" height="49.63" viewBox="0 0 100.006 49.63">
  <g id="Group_118" data-name="Group 118" transform="translate(0)">
    <path id="Path_320" data-name="Path 320" d="M-1274.041-2202.125c-.278,1.04-.533,1.977-.778,2.917q-3.527,13.528-7.05,27.056c-.224.86-.467,1.716-.67,2.583-.066.287-.149.435-.476.44-.349.006-.438-.151-.516-.459q-2.022-8.049-4.071-16.091-2.706-10.653-5.42-21.3c-.633-2.481-1.287-4.957-1.935-7.434a3.411,3.411,0,0,0-2.908-2.7c-.21-.036-.41-.14-.619-.162-.557-.057-.739-.33-.54-.883h14.3l.031.7c-.444.11-.89.2-1.323.334a7.66,7.66,0,0,0-1.294.485,1.729,1.729,0,0,0-.952,1.512,11.86,11.86,0,0,0,.607,3.781q3.514,13.393,7.043,26.784a1.389,1.389,0,0,0,.27.566c.179-.668.359-1.336.535-2.005q2.465-9.421,4.924-18.843a1.2,1.2,0,0,0,.038-.574q-1.208-4.649-2.448-9.288a8.774,8.774,0,0,0-.421-1.1,2.485,2.485,0,0,0-2.22-1.514c-.246-.029-.489-.081-.753-.126v-.7h14.322v.691c-.524.1-1.074.221-1.627.315-1.884.322-2.47,1.551-2.141,3.29.376,1.99.879,3.958,1.378,5.923q2.912,11.455,5.858,22.9c.084.326.17.652.292,1.121.106-.319.185-.515.237-.719q3.418-13.365,6.819-26.733a13.149,13.149,0,0,0,.378-2.742,2.627,2.627,0,0,0-2.282-2.9c-.619-.151-1.241-.292-1.87-.44v-.708h10.4c.163.487.075.782-.494.857a4.523,4.523,0,0,0-3.91,3.724q-1.049,3.833-2.038,7.683-2.9,11.349-5.763,22.7c-1.151,4.534-2.312,9.067-3.452,13.6-.08.318-.179.449-.521.449s-.4-.186-.471-.449q-2.785-10.8-5.581-21.6-1.355-5.242-2.709-10.485C-1273.9-2201.781-1273.956-2201.895-1274.041-2202.125Z" transform="translate(1299.104 2218.489)" fill="#a2a2a2"/>
    <path id="Path_321" data-name="Path 321" d="M-1207.877-2218.312h.7v16.138c-.8.15-.78.142-.884-.513a30.054,30.054,0,0,0-2.7-9.075,11.186,11.186,0,0,0-3.853-4.578,6.424,6.424,0,0,0-6.881.076,5.294,5.294,0,0,0-2.034,3.525c-.556,3.056.5,5.647,2.348,8a43.026,43.026,0,0,0,5.276,5.327,60,60,0,0,1,7.3,7.248,16.886,16.886,0,0,1,3.7,7.787c.7,4.34,0,8.362-3.02,11.75a10.644,10.644,0,0,1-6.178,3.375,12.454,12.454,0,0,1-9.287-1.721,3.322,3.322,0,0,0-2.258-.833,1.788,1.788,0,0,0-1.078.542,5.716,5.716,0,0,0-.8,1.615.463.463,0,0,1-.649.342c-.123-.039-.246-.307-.246-.471-.013-5.082,0-10.165-.022-15.247,0-.657.38-.491.81-.485.112.728.211,1.462.339,2.189a20.482,20.482,0,0,0,3.967,9.464,9.262,9.262,0,0,0,4.866,3.427,6.568,6.568,0,0,0,8.24-4.885,11.218,11.218,0,0,0-2.148-10.323,52.347,52.347,0,0,0-6.623-6.782,52.254,52.254,0,0,1-6.811-6.972,13.889,13.889,0,0,1-2.819-6.047c-.672-4.016.611-9.1,4.6-11.562a11.758,11.758,0,0,1,7.4-1.571,11.429,11.429,0,0,1,4.949,1.725,7.84,7.84,0,0,0,1.706.737,1.217,1.217,0,0,0,1.551-.72C-1208.2-2217.294-1208.06-2217.794-1207.877-2218.312Z" transform="translate(1277.875 2218.631)" fill="#a2a2a2"/>
    <path id="Path_322" data-name="Path 322" d="M-1181.569-2217.447v-.711h15.032c.166.693.165.69-.5.85-.449.109-.9.212-1.343.35a2.638,2.638,0,0,0-2.05,2.569c-.057.748-.094,1.5-.094,2.248q-.009,15.786,0,31.572a13.5,13.5,0,0,1-1.526,6.651,9.432,9.432,0,0,1-7.47,4.925,10.43,10.43,0,0,1-6.555-.984,8.95,8.95,0,0,1-4.763-6.905,6.7,6.7,0,0,1,.652-4.312,4.2,4.2,0,0,1,4.763-2.2,3.191,3.191,0,0,1,2.411,3.417,3.912,3.912,0,0,1-1.784,3.3c-.545.373-1.105.729-1.62,1.14a1.9,1.9,0,0,0-.59,2.569,4.982,4.982,0,0,0,3.84,2.684,4.9,4.9,0,0,0,3.61-.593,4.8,4.8,0,0,0,2.126-3.51,27.221,27.221,0,0,0,.368-4.257q.043-17.074.01-34.149a13.977,13.977,0,0,0-.132-1.758,2.7,2.7,0,0,0-2.32-2.453C-1180.193-2217.155-1180.884-2217.3-1181.569-2217.447Z" transform="translate(1266.45 2218.488)" fill="#a2a2a2"/>
  </g>
</svg>
