<svg width="150" height="52" viewBox="0 0 150 52" fill="none" xmlns="http://www.w3.org/2000/svg">
<g clip-path="url(#clip0_62_201)">
<path d="M68.0877 3.47473C64.9406 3.47473 62.009 4.4114 59.4654 6.0279V3.47473H49.406V50.308H59.4654V38.6903C62.009 40.3068 64.9406 41.2435 68.0877 41.2435C77.6154 41.2435 85.3324 32.7833 85.3324 22.3591C85.3324 11.9349 77.6154 3.47473 68.0877 3.47473V3.47473ZM68.8063 30.6682C63.7766 30.6682 60.9025 26.6043 60.9025 21.6037C60.9025 16.6031 64.4376 12.5392 68.8063 12.5392C73.1749 12.5392 76.7101 16.6031 76.7101 21.6037C76.7101 26.6043 73.1749 30.6682 68.8063 30.6682Z" fill="black"/>
<path d="M108.325 3.47473V6.73795C106.04 4.68333 103.152 3.47473 99.7749 3.47473C88.652 3.47473 83.8954 11.5875 83.8954 21.6037C83.8954 31.62 90.2472 39.7327 99.7749 39.7327C103.152 39.7327 106.04 38.5241 108.325 36.4695V39.7327H118.385V3.47473H108.325ZM100.925 30.6078C95.8948 30.6078 93.0207 26.5439 93.0207 21.5433C93.0207 16.5427 96.5559 12.4788 100.925 12.4788C105.293 12.4788 108.828 16.5427 108.828 21.5433C108.828 26.5439 105.293 30.6078 100.925 30.6078Z" fill="black"/>
<path d="M118.385 3.47473V13.5212L127.007 36.7112L121.259 50.308H132.554L150 3.47473H139.337L132.755 23.1145L125.901 3.47473H118.385Z" fill="black"/>
<path d="M70.7088 46.4904H71.7048C71.8862 46.4904 72.0355 46.5157 72.1528 46.5664C72.2702 46.6144 72.3622 46.6771 72.4288 46.7544C72.4982 46.8291 72.5462 46.9144 72.5728 47.0104C72.5995 47.1037 72.6128 47.1944 72.6128 47.2824C72.6128 47.3704 72.5995 47.4624 72.5728 47.5584C72.5462 47.6517 72.4982 47.7371 72.4288 47.8144C72.3622 47.8891 72.2702 47.9517 72.1528 48.0024C72.0355 48.0504 71.8862 48.0744 71.7048 48.0744H71.0928V49.3224H70.7088V46.4904ZM71.0928 47.7384H71.5968C71.6715 47.7384 71.7448 47.7331 71.8168 47.7224C71.8915 47.7091 71.9568 47.6864 72.0128 47.6544C72.0715 47.6224 72.1182 47.5771 72.1528 47.5184C72.1875 47.4571 72.2048 47.3784 72.2048 47.2824C72.2048 47.1864 72.1875 47.1091 72.1528 47.0504C72.1182 46.9891 72.0715 46.9424 72.0128 46.9104C71.9568 46.8784 71.8915 46.8571 71.8168 46.8464C71.7448 46.8331 71.6715 46.8264 71.5968 46.8264H71.0928V47.7384ZM73.2799 48.3744C73.2799 48.4704 73.2946 48.5597 73.3239 48.6424C73.3533 48.7224 73.3946 48.7917 73.4479 48.8504C73.5013 48.9064 73.5666 48.9517 73.6439 48.9864C73.7213 49.0184 73.8079 49.0344 73.9039 49.0344C73.9999 49.0344 74.0866 49.0184 74.1639 48.9864C74.2413 48.9517 74.3066 48.9064 74.3599 48.8504C74.4133 48.7917 74.4546 48.7224 74.4839 48.6424C74.5133 48.5597 74.5279 48.4704 74.5279 48.3744C74.5279 48.2784 74.5133 48.1904 74.4839 48.1104C74.4546 48.0277 74.4133 47.9584 74.3599 47.9024C74.3066 47.8437 74.2413 47.7984 74.1639 47.7664C74.0866 47.7317 73.9999 47.7144 73.9039 47.7144C73.8079 47.7144 73.7213 47.7317 73.6439 47.7664C73.5666 47.7984 73.5013 47.8437 73.4479 47.9024C73.3946 47.9584 73.3533 48.0277 73.3239 48.1104C73.2946 48.1904 73.2799 48.2784 73.2799 48.3744ZM72.8959 48.3744C72.8959 48.2357 72.9213 48.1064 72.9719 47.9864C73.0253 47.8664 73.0973 47.7611 73.1879 47.6704C73.2786 47.5797 73.3853 47.5091 73.5079 47.4584C73.6306 47.4051 73.7626 47.3784 73.9039 47.3784C74.0453 47.3784 74.1773 47.4051 74.2999 47.4584C74.4226 47.5091 74.5293 47.5797 74.6199 47.6704C74.7106 47.7611 74.7813 47.8664 74.8319 47.9864C74.8853 48.1064 74.9119 48.2357 74.9119 48.3744C74.9119 48.5131 74.8853 48.6437 74.8319 48.7664C74.7813 48.8864 74.7106 48.9917 74.6199 49.0824C74.5293 49.1704 74.4226 49.2411 74.2999 49.2944C74.1773 49.3451 74.0453 49.3704 73.9039 49.3704C73.7626 49.3704 73.6306 49.3451 73.5079 49.2944C73.3853 49.2411 73.2786 49.1704 73.1879 49.0824C73.0973 48.9917 73.0253 48.8864 72.9719 48.7664C72.9213 48.6437 72.8959 48.5131 72.8959 48.3744ZM75.1349 47.4264H75.5389L75.9669 48.8424H75.9749L76.4269 47.4264H76.8069L77.2869 48.8424H77.2949L77.7029 47.4264H78.0829L77.4709 49.3224H77.1069L76.6069 47.9064H76.5989L76.1469 49.3224H75.7589L75.1349 47.4264ZM78.6701 48.5064C78.6701 48.5891 78.6874 48.6651 78.7221 48.7344C78.7594 48.8011 78.8074 48.8584 78.8661 48.9064C78.9248 48.9544 78.9928 48.9917 79.0701 49.0184C79.1474 49.0451 79.2274 49.0584 79.3101 49.0584C79.4221 49.0584 79.5194 49.0331 79.6021 48.9824C79.6848 48.9291 79.7608 48.8597 79.8301 48.7744L80.1021 48.9824C79.9021 49.2411 79.6221 49.3704 79.2621 49.3704C79.1128 49.3704 78.9768 49.3451 78.8541 49.2944C78.7341 49.2437 78.6314 49.1744 78.5461 49.0864C78.4634 48.9957 78.3994 48.8904 78.3541 48.7704C78.3088 48.6477 78.2861 48.5157 78.2861 48.3744C78.2861 48.2331 78.3101 48.1024 78.3581 47.9824C78.4088 47.8597 78.4768 47.7544 78.5621 47.6664C78.6501 47.5757 78.7541 47.5051 78.8741 47.4544C78.9941 47.4037 79.1248 47.3784 79.2661 47.3784C79.4341 47.3784 79.5754 47.4077 79.6901 47.4664C79.8074 47.5251 79.9034 47.6024 79.9781 47.6984C80.0528 47.7917 80.1061 47.8984 80.1381 48.0184C80.1728 48.1357 80.1901 48.2557 80.1901 48.3784V48.5064H78.6701ZM79.8061 48.2184C79.8034 48.1384 79.7901 48.0651 79.7661 47.9984C79.7448 47.9317 79.7114 47.8744 79.6661 47.8264C79.6208 47.7757 79.5634 47.7371 79.4941 47.7104C79.4274 47.6811 79.3488 47.6664 79.2581 47.6664C79.1701 47.6664 79.0888 47.6837 79.0141 47.7184C78.9421 47.7504 78.8808 47.7931 78.8301 47.8464C78.7794 47.8997 78.7394 47.9597 78.7101 48.0264C78.6834 48.0904 78.6701 48.1544 78.6701 48.2184H79.8061ZM80.6208 47.4264H80.9808V47.7184H80.9888C81.0128 47.6677 81.0448 47.6224 81.0848 47.5824C81.1248 47.5397 81.1688 47.5037 81.2168 47.4744C81.2674 47.4451 81.3221 47.4224 81.3808 47.4064C81.4394 47.3877 81.4981 47.3784 81.5568 47.3784C81.6154 47.3784 81.6688 47.3864 81.7168 47.4024L81.7008 47.7904C81.6714 47.7824 81.6421 47.7757 81.6128 47.7704C81.5834 47.7651 81.5541 47.7624 81.5248 47.7624C81.3488 47.7624 81.2141 47.8117 81.1208 47.9104C81.0274 48.0091 80.9808 48.1624 80.9808 48.3704V49.3224H80.6208V47.4264ZM82.3029 48.5064C82.3029 48.5891 82.3202 48.6651 82.3549 48.7344C82.3922 48.8011 82.4402 48.8584 82.4989 48.9064C82.5576 48.9544 82.6256 48.9917 82.7029 49.0184C82.7802 49.0451 82.8602 49.0584 82.9429 49.0584C83.0549 49.0584 83.1522 49.0331 83.2349 48.9824C83.3176 48.9291 83.3936 48.8597 83.4629 48.7744L83.7349 48.9824C83.5349 49.2411 83.2549 49.3704 82.8949 49.3704C82.7456 49.3704 82.6096 49.3451 82.4869 49.2944C82.3669 49.2437 82.2642 49.1744 82.1789 49.0864C82.0962 48.9957 82.0322 48.8904 81.9869 48.7704C81.9416 48.6477 81.9189 48.5157 81.9189 48.3744C81.9189 48.2331 81.9429 48.1024 81.9909 47.9824C82.0416 47.8597 82.1096 47.7544 82.1949 47.6664C82.2829 47.5757 82.3869 47.5051 82.5069 47.4544C82.6269 47.4037 82.7576 47.3784 82.8989 47.3784C83.0669 47.3784 83.2082 47.4077 83.3229 47.4664C83.4402 47.5251 83.5362 47.6024 83.6109 47.6984C83.6856 47.7917 83.7389 47.8984 83.7709 48.0184C83.8056 48.1357 83.8229 48.2557 83.8229 48.3784V48.5064H82.3029ZM83.4389 48.2184C83.4362 48.1384 83.4229 48.0651 83.3989 47.9984C83.3776 47.9317 83.3442 47.8744 83.2989 47.8264C83.2536 47.7757 83.1962 47.7371 83.1269 47.7104C83.0602 47.6811 82.9816 47.6664 82.8909 47.6664C82.8029 47.6664 82.7216 47.6837 82.6469 47.7184C82.5749 47.7504 82.5136 47.7931 82.4629 47.8464C82.4122 47.8997 82.3722 47.9597 82.3429 48.0264C82.3162 48.0904 82.3029 48.1544 82.3029 48.2184H83.4389ZM86.1536 49.3224H85.7936V49.0504H85.7856C85.7162 49.1517 85.6202 49.2304 85.4976 49.2864C85.3776 49.3424 85.2536 49.3704 85.1256 49.3704C84.9789 49.3704 84.8456 49.3451 84.7256 49.2944C84.6082 49.2437 84.5069 49.1731 84.4216 49.0824C84.3389 48.9917 84.2749 48.8864 84.2296 48.7664C84.1842 48.6464 84.1616 48.5157 84.1616 48.3744C84.1616 48.2331 84.1842 48.1024 84.2296 47.9824C84.2749 47.8597 84.3389 47.7544 84.4216 47.6664C84.5069 47.5757 84.6082 47.5051 84.7256 47.4544C84.8456 47.4037 84.9789 47.3784 85.1256 47.3784C85.2616 47.3784 85.3896 47.4077 85.5096 47.4664C85.6296 47.5224 85.7216 47.5997 85.7856 47.6984H85.7936V46.2984H86.1536V49.3224ZM85.1696 49.0344C85.2656 49.0344 85.3522 49.0184 85.4296 48.9864C85.5069 48.9517 85.5722 48.9064 85.6256 48.8504C85.6789 48.7917 85.7202 48.7224 85.7496 48.6424C85.7789 48.5597 85.7936 48.4704 85.7936 48.3744C85.7936 48.2784 85.7789 48.1904 85.7496 48.1104C85.7202 48.0277 85.6789 47.9584 85.6256 47.9024C85.5722 47.8437 85.5069 47.7984 85.4296 47.7664C85.3522 47.7317 85.2656 47.7144 85.1696 47.7144C85.0736 47.7144 84.9869 47.7317 84.9096 47.7664C84.8322 47.7984 84.7669 47.8437 84.7136 47.9024C84.6602 47.9584 84.6189 48.0277 84.5896 48.1104C84.5602 48.1904 84.5456 48.2784 84.5456 48.3744C84.5456 48.4704 84.5602 48.5597 84.5896 48.6424C84.6189 48.7224 84.6602 48.7917 84.7136 48.8504C84.7669 48.9064 84.8322 48.9517 84.9096 48.9864C84.9869 49.0184 85.0736 49.0344 85.1696 49.0344ZM87.8122 46.2984H88.1722V47.6984H88.1802C88.2442 47.5997 88.3362 47.5224 88.4562 47.4664C88.5762 47.4077 88.7042 47.3784 88.8402 47.3784C88.9868 47.3784 89.1188 47.4037 89.2362 47.4544C89.3562 47.5051 89.4575 47.5757 89.5402 47.6664C89.6255 47.7544 89.6908 47.8597 89.7362 47.9824C89.7815 48.1024 89.8042 48.2331 89.8042 48.3744C89.8042 48.5157 89.7815 48.6464 89.7362 48.7664C89.6908 48.8864 89.6255 48.9917 89.5402 49.0824C89.4575 49.1731 89.3562 49.2437 89.2362 49.2944C89.1188 49.3451 88.9868 49.3704 88.8402 49.3704C88.7122 49.3704 88.5868 49.3424 88.4642 49.2864C88.3442 49.2304 88.2495 49.1517 88.1802 49.0504H88.1722V49.3224H87.8122V46.2984ZM88.7962 49.0344C88.8922 49.0344 88.9788 49.0184 89.0562 48.9864C89.1335 48.9517 89.1988 48.9064 89.2522 48.8504C89.3055 48.7917 89.3468 48.7224 89.3762 48.6424C89.4055 48.5597 89.4202 48.4704 89.4202 48.3744C89.4202 48.2784 89.4055 48.1904 89.3762 48.1104C89.3468 48.0277 89.3055 47.9584 89.2522 47.9024C89.1988 47.8437 89.1335 47.7984 89.0562 47.7664C88.9788 47.7317 88.8922 47.7144 88.7962 47.7144C88.7002 47.7144 88.6135 47.7317 88.5362 47.7664C88.4588 47.7984 88.3935 47.8437 88.3402 47.9024C88.2868 47.9584 88.2455 48.0277 88.2162 48.1104C88.1868 48.1904 88.1722 48.2784 88.1722 48.3744C88.1722 48.4704 88.1868 48.5597 88.2162 48.6424C88.2455 48.7224 88.2868 48.7917 88.3402 48.8504C88.3935 48.9064 88.4588 48.9517 88.5362 48.9864C88.6135 49.0184 88.7002 49.0344 88.7962 49.0344ZM90.0295 47.4264H90.4455L91.0095 48.9064H91.0175L91.5535 47.4264H91.9415L91.0415 49.7304C91.0095 49.8131 90.9761 49.8877 90.9415 49.9544C90.9068 50.0237 90.8655 50.0824 90.8175 50.1304C90.7695 50.1784 90.7108 50.2157 90.6415 50.2424C90.5748 50.2691 90.4921 50.2824 90.3935 50.2824C90.3401 50.2824 90.2855 50.2784 90.2295 50.2704C90.1761 50.2651 90.1241 50.2517 90.0735 50.2304L90.1175 49.9024C90.1895 49.9317 90.2615 49.9464 90.3335 49.9464C90.3895 49.9464 90.4361 49.9384 90.4735 49.9224C90.5135 49.9091 90.5468 49.8877 90.5735 49.8584C90.6028 49.8317 90.6268 49.7997 90.6455 49.7624C90.6641 49.7251 90.6828 49.6824 90.7015 49.6344L90.8175 49.3344L90.0295 47.4264ZM93.3988 46.4904H94.3868C94.5868 46.4904 94.7614 46.5131 94.9108 46.5584C95.0628 46.6037 95.1934 46.6651 95.3028 46.7424C95.4148 46.8171 95.5068 46.9037 95.5788 47.0024C95.6534 47.1011 95.7121 47.2024 95.7548 47.3064C95.7974 47.4104 95.8281 47.5144 95.8468 47.6184C95.8654 47.7224 95.8748 47.8184 95.8748 47.9064C95.8748 48.0877 95.8414 48.2637 95.7748 48.4344C95.7081 48.6024 95.6094 48.7531 95.4788 48.8864C95.3481 49.0171 95.1854 49.1224 94.9908 49.2024C94.7988 49.2824 94.5761 49.3224 94.3228 49.3224H93.3988V46.4904ZM93.7828 48.9624H94.2668C94.4294 48.9624 94.5828 48.9411 94.7268 48.8984C94.8734 48.8531 95.0014 48.7864 95.1108 48.6984C95.2201 48.6104 95.3068 48.5011 95.3708 48.3704C95.4348 48.2371 95.4668 48.0824 95.4668 47.9064C95.4668 47.8157 95.4521 47.7104 95.4228 47.5904C95.3934 47.4677 95.3374 47.3517 95.2548 47.2424C95.1748 47.1331 95.0628 47.0411 94.9188 46.9664C94.7748 46.8891 94.5881 46.8504 94.3588 46.8504H93.7828V48.9624ZM96.3436 47.6584C96.4449 47.5651 96.5623 47.4957 96.6956 47.4504C96.8289 47.4024 96.9623 47.3784 97.0956 47.3784C97.2343 47.3784 97.3529 47.3957 97.4516 47.4304C97.5529 47.4651 97.6356 47.5117 97.6996 47.5704C97.7636 47.6291 97.8103 47.6971 97.8396 47.7744C97.8716 47.8491 97.8876 47.9277 97.8876 48.0104V48.9784C97.8876 49.0451 97.8889 49.1064 97.8916 49.1624C97.8943 49.2184 97.8983 49.2717 97.9036 49.3224H97.5836C97.5756 49.2264 97.5716 49.1304 97.5716 49.0344H97.5636C97.4836 49.1571 97.3889 49.2437 97.2796 49.2944C97.1703 49.3451 97.0436 49.3704 96.8996 49.3704C96.8116 49.3704 96.7276 49.3584 96.6476 49.3344C96.5676 49.3104 96.4969 49.2744 96.4356 49.2264C96.3769 49.1784 96.3303 49.1197 96.2956 49.0504C96.2609 48.9784 96.2436 48.8957 96.2436 48.8024C96.2436 48.6797 96.2703 48.5771 96.3236 48.4944C96.3796 48.4117 96.4543 48.3451 96.5476 48.2944C96.6436 48.2411 96.7543 48.2037 96.8796 48.1824C97.0076 48.1584 97.1436 48.1464 97.2876 48.1464H97.5516V48.0664C97.5516 48.0184 97.5423 47.9704 97.5236 47.9224C97.5049 47.8744 97.4769 47.8317 97.4396 47.7944C97.4023 47.7544 97.3556 47.7237 97.2996 47.7024C97.2436 47.6784 97.1769 47.6664 97.0996 47.6664C97.0303 47.6664 96.9689 47.6731 96.9156 47.6864C96.8649 47.6997 96.8183 47.7171 96.7756 47.7384C96.7329 47.7571 96.6943 47.7797 96.6596 47.8064C96.6249 47.8331 96.5916 47.8584 96.5596 47.8824L96.3436 47.6584ZM97.3596 48.4104C97.2743 48.4104 97.1863 48.4157 97.0956 48.4264C97.0076 48.4344 96.9263 48.4517 96.8516 48.4784C96.7796 48.5051 96.7196 48.5424 96.6716 48.5904C96.6263 48.6384 96.6036 48.6997 96.6036 48.7744C96.6036 48.8837 96.6396 48.9624 96.7116 49.0104C96.7863 49.0584 96.8863 49.0824 97.0116 49.0824C97.1103 49.0824 97.1943 49.0664 97.2636 49.0344C97.3329 48.9997 97.3889 48.9557 97.4316 48.9024C97.4743 48.8491 97.5049 48.7904 97.5236 48.7264C97.5423 48.6597 97.5516 48.5944 97.5516 48.5304V48.4104H97.3596ZM98.5498 47.7384H98.1418V47.4264H98.5498V47.0024C98.5498 46.7491 98.5978 46.5611 98.6938 46.4384C98.7925 46.3131 98.9605 46.2504 99.1978 46.2504C99.2378 46.2504 99.2792 46.2517 99.3218 46.2544C99.3672 46.2571 99.4152 46.2651 99.4658 46.2784L99.4258 46.5984C99.3912 46.5851 99.3578 46.5757 99.3258 46.5704C99.2938 46.5651 99.2592 46.5624 99.2218 46.5624C99.1552 46.5624 99.1018 46.5731 99.0618 46.5944C99.0218 46.6131 98.9898 46.6411 98.9658 46.6784C98.9445 46.7157 98.9298 46.7611 98.9218 46.8144C98.9165 46.8651 98.9138 46.9237 98.9138 46.9904V47.4264H99.3418V47.7384H98.9098V49.3224H98.5498V47.7384ZM99.7418 47.4264H100.102V47.7184H100.11C100.134 47.6677 100.166 47.6224 100.206 47.5824C100.246 47.5397 100.29 47.5037 100.338 47.4744C100.389 47.4451 100.443 47.4224 100.502 47.4064C100.561 47.3877 100.619 47.3784 100.678 47.3784C100.737 47.3784 100.79 47.3864 100.838 47.4024L100.822 47.7904C100.793 47.7824 100.763 47.7757 100.734 47.7704C100.705 47.7651 100.675 47.7624 100.646 47.7624C100.47 47.7624 100.335 47.8117 100.242 47.9104C100.149 48.0091 100.102 48.1624 100.102 48.3704V49.3224H99.7418V47.4264ZM101.25 47.4264H101.61V49.3224H101.25V47.4264ZM101.166 46.7464C101.166 46.6744 101.192 46.6131 101.242 46.5624C101.296 46.5091 101.358 46.4824 101.43 46.4824C101.502 46.4824 101.564 46.5091 101.614 46.5624C101.668 46.6131 101.694 46.6744 101.694 46.7464C101.694 46.8184 101.668 46.8811 101.614 46.9344C101.564 46.9851 101.502 47.0104 101.43 47.0104C101.358 47.0104 101.296 46.9851 101.242 46.9344C101.192 46.8811 101.166 46.8184 101.166 46.7464ZM102.275 46.4904H103.259C103.382 46.4904 103.495 46.5051 103.599 46.5344C103.706 46.5637 103.797 46.6077 103.871 46.6664C103.949 46.7224 104.009 46.7957 104.051 46.8864C104.097 46.9744 104.119 47.0784 104.119 47.1984C104.119 47.3611 104.074 47.4944 103.983 47.5984C103.893 47.6997 103.775 47.7744 103.631 47.8224V47.8304C103.717 47.8357 103.797 47.8584 103.871 47.8984C103.946 47.9357 104.01 47.9864 104.063 48.0504C104.119 48.1117 104.163 48.1837 104.195 48.2664C104.227 48.3491 104.243 48.4384 104.243 48.5344C104.243 48.6624 104.217 48.7757 104.163 48.8744C104.113 48.9704 104.042 49.0517 103.951 49.1184C103.861 49.1851 103.755 49.2357 103.635 49.2704C103.515 49.3051 103.386 49.3224 103.247 49.3224H102.275V46.4904ZM102.659 47.6664H103.183C103.255 47.6664 103.323 47.6597 103.387 47.6464C103.451 47.6304 103.507 47.6051 103.555 47.5704C103.603 47.5357 103.641 47.4917 103.667 47.4384C103.697 47.3851 103.711 47.3197 103.711 47.2424C103.711 47.1304 103.675 47.0331 103.603 46.9504C103.531 46.8677 103.418 46.8264 103.263 46.8264H102.659V47.6664ZM102.659 48.9864H103.223C103.282 48.9864 103.346 48.9811 103.415 48.9704C103.487 48.9571 103.554 48.9331 103.615 48.8984C103.677 48.8611 103.729 48.8117 103.771 48.7504C103.814 48.6891 103.835 48.6077 103.835 48.5064C103.835 48.3384 103.781 48.2131 103.671 48.1304C103.562 48.0451 103.414 48.0024 103.227 48.0024H102.659V48.9864ZM104.711 47.6584C104.812 47.5651 104.929 47.4957 105.063 47.4504C105.196 47.4024 105.329 47.3784 105.463 47.3784C105.601 47.3784 105.72 47.3957 105.819 47.4304C105.92 47.4651 106.003 47.5117 106.067 47.5704C106.131 47.6291 106.177 47.6971 106.207 47.7744C106.239 47.8491 106.255 47.9277 106.255 48.0104V48.9784C106.255 49.0451 106.256 49.1064 106.259 49.1624C106.261 49.2184 106.265 49.2717 106.271 49.3224H105.951C105.943 49.2264 105.939 49.1304 105.939 49.0344H105.931C105.851 49.1571 105.756 49.2437 105.647 49.2944C105.537 49.3451 105.411 49.3704 105.267 49.3704C105.179 49.3704 105.095 49.3584 105.015 49.3344C104.935 49.3104 104.864 49.2744 104.803 49.2264C104.744 49.1784 104.697 49.1197 104.663 49.0504C104.628 48.9784 104.611 48.8957 104.611 48.8024C104.611 48.6797 104.637 48.5771 104.691 48.4944C104.747 48.4117 104.821 48.3451 104.915 48.2944C105.011 48.2411 105.121 48.2037 105.247 48.1824C105.375 48.1584 105.511 48.1464 105.655 48.1464H105.919V48.0664C105.919 48.0184 105.909 47.9704 105.891 47.9224C105.872 47.8744 105.844 47.8317 105.807 47.7944C105.769 47.7544 105.723 47.7237 105.667 47.7024C105.611 47.6784 105.544 47.6664 105.467 47.6664C105.397 47.6664 105.336 47.6731 105.283 47.6864C105.232 47.6997 105.185 47.7171 105.143 47.7384C105.1 47.7571 105.061 47.7797 105.027 47.8064C104.992 47.8331 104.959 47.8584 104.927 47.8824L104.711 47.6584ZM105.727 48.4104C105.641 48.4104 105.553 48.4157 105.463 48.4264C105.375 48.4344 105.293 48.4517 105.219 48.4784C105.147 48.5051 105.087 48.5424 105.039 48.5904C104.993 48.6384 104.971 48.6997 104.971 48.7744C104.971 48.8837 105.007 48.9624 105.079 49.0104C105.153 49.0584 105.253 49.0824 105.379 49.0824C105.477 49.0824 105.561 49.0664 105.631 49.0344C105.7 48.9997 105.756 48.9557 105.799 48.9024C105.841 48.8491 105.872 48.7904 105.891 48.7264C105.909 48.6597 105.919 48.5944 105.919 48.5304V48.4104H105.727ZM106.777 47.4264H107.137V47.7184H107.145C107.19 47.6171 107.269 47.5357 107.381 47.4744C107.493 47.4104 107.622 47.3784 107.769 47.3784C107.86 47.3784 107.946 47.3931 108.029 47.4224C108.114 47.4491 108.188 47.4917 108.249 47.5504C108.313 47.6091 108.364 47.6851 108.401 47.7784C108.438 47.8691 108.457 47.9771 108.457 48.1024V49.3224H108.097V48.2024C108.097 48.1144 108.085 48.0397 108.061 47.9784C108.037 47.9144 108.005 47.8637 107.965 47.8264C107.925 47.7864 107.878 47.7584 107.825 47.7424C107.774 47.7237 107.721 47.7144 107.665 47.7144C107.59 47.7144 107.521 47.7264 107.457 47.7504C107.393 47.7744 107.337 47.8131 107.289 47.8664C107.241 47.9171 107.204 47.9824 107.177 48.0624C107.15 48.1424 107.137 48.2371 107.137 48.3464V49.3224H106.777V47.4264ZM109 46.2984H109.36V48.2504L110.176 47.4304H110.676L109.792 48.2904L110.752 49.3224H110.24L109.36 48.3384V49.3224H109V46.2984Z" fill="black"/>
<path d="M42.4507 8.32418C42.4507 8.32418 55.7865 35.5177 13.0772 33.8407C13.0772 33.8407 19.5871 48.6008 38.082 36.6054L44.1895 44.416C44.1895 44.416 20.3918 64.4183 3.67886 39.4154C2.32803 37.4061 1.75321 34.9889 0.919715 32.6926C-0.890976 27.6467 -0.890976 14.0499 9.25465 5.66526C23.2372 -5.89197 38.7862 2.47758 33.5984 10.8925C32.9517 11.95 31.7302 12.4636 30.5518 12.237C26.0682 11.3306 13.9538 10.1371 11.1659 22.7065C11.1659 22.7065 38.3694 26.7704 42.4507 8.32418Z" fill="url(#paint0_linear_62_201)"/>
</g>
<defs>
<linearGradient id="paint0_linear_62_201" x1="-8.82034e-07" y1="26" x2="37.2485" y2="26" gradientUnits="userSpaceOnUse">
<stop stop-color="#26AADF"/>
<stop offset="1" stop-color="#04A7A3"/>
</linearGradient>
<clipPath id="clip0_62_201">
<rect width="150" height="52" fill="white"/>
</clipPath>
</defs>
</svg>
