<?xml version="1.0" encoding="utf-8"?>
<!-- Generator: Adobe Illustrator 25.2.0, SVG Export Plug-In . SVG Version: 6.00 Build 0)  -->
<svg version="1.1" id="Layer_1" xmlns="http://www.w3.org/2000/svg" xmlns:xlink="http://www.w3.org/1999/xlink" x="0px" y="0px"
	 viewBox="0 0 177.2 51.4" style="enable-background:new 0 0 177.2 51.4;" xml:space="preserve">
<style type="text/css">
	.st0{fill:#FFFFFF;}
</style>
<g id="dafribank-logo" transform="translate(-42.023 -44.713)">
	<path id="Path_1" class="st0" d="M89.5,44.7H48c-3.3,0-6,2.7-6,6v39.4c0,3.3,2.7,6,6,6h41.5c3.3,0,6-2.7,6-6V50.7
		C95.5,47.4,92.8,44.7,89.5,44.7 M82.9,67L82.9,67L81,78.2c-0.3,1.9-1.3,3.6-2.8,4.8c-1.4,1.3-3.2,2-5.1,2H53.7L56.8,67L82.9,67
		C82.9,67,82.9,67,82.9,67z M83.7,62.6l-0.3,2H57.2l1.5-8.8h19.5c1.5,0,2.9,0.5,4,1.6c1.1,1.1,1.6,2.6,1.6,4.1
		C83.8,61.8,83.7,62.2,83.7,62.6"/>
	<g id="Group_1">
		<path id="Path_2" class="st0" d="M117.4,70.1c0.1,4.9-2.9,9.8-9.6,9.8h-7.6V60.7h7.6C114.4,60.7,117.3,65.4,117.4,70.1
			 M103.8,76.4h4c4.4,0,6.1-3.2,6-6.3c-0.1-3-1.8-6-6-6h-4V76.4z"/>
		<path id="Path_3" class="st0" d="M129.2,66.4h3.2v13.6h-3.2l-0.2-2c-0.8,1.6-2.9,2.4-4.4,2.4c-4,0-7-2.4-7-7.2
			c0-4.7,3.1-7.1,7.1-7.1c1.7-0.1,3.4,0.8,4.3,2.2L129.2,66.4z M121.1,73.1c-0.1,2.1,1.5,4,3.6,4.1c0.1,0,0.3,0,0.4,0
			c5.3,0,5.3-8.2,0-8.2c-2.1-0.1-3.9,1.6-4,3.7C121,72.9,121.1,73,121.1,73.1"/>
		<path id="Path_4" class="st0" d="M135,79.9V69.5h-2.5v-2.9h2.5v-0.9c-0.2-2.7,1.8-5.1,4.5-5.3c0.2,0,0.5,0,0.7,0
			c1.3,0,2.5,0.4,3.5,1.1l-1.2,2.5c-0.6-0.4-1.3-0.7-2.1-0.7c-1.2,0-2,0.8-2,2.4v0.9h4v2.9h-4v10.4H135z"/>
		<path id="Path_5" class="st0" d="M146.4,66.4l0.2,1.6c0.8-1.3,2.3-2.1,3.8-1.9c1.3,0,2.5,0.4,3.5,1.3l-1.5,2.9
			c-0.7-0.6-1.5-0.9-2.4-0.9c-1.7-0.1-3.2,1.1-3.4,2.8c0,0.2,0,0.4,0,0.6v7.2h-3.4V66.4H146.4z"/>
		<path id="Path_6" class="st0" d="M157.5,62.5c0,1.1-0.9,2-2,2c-1.1,0-2-0.9-2-2l0,0c0-1.1,0.9-2,2-2
			C156.7,60.5,157.5,61.4,157.5,62.5 M153.9,79.9h3.4V66.3h-3.4V79.9z"/>
		<path id="Path_7" class="st0" d="M174.8,66.2c0,1.6-1,3.1-2.5,3.7c1.8,0.7,3,2.4,3.1,4.3c0,4.3-3.2,5.7-7.2,5.7H159V60.7h9.1
			C172,60.7,174.8,62.4,174.8,66.2 M162.6,68.4h5.6c2.3,0,3-1,3-2.1c0-0.9-0.7-2.4-3-2.4h-5.6V68.4z M162.6,76.5h5.6
			c1.5,0,3.6-0.5,3.6-2.3c0-1.7-2.1-2.6-3.6-2.6h-5.6V76.5z"/>
		<path id="Path_8" class="st0" d="M187.1,66.4h3.2v13.6h-3.2l-0.2-2c-0.8,1.6-2.9,2.4-4.4,2.4c-4,0-7-2.4-7-7.2
			c0-4.7,3.1-7.1,7.1-7.1c1.7-0.1,3.4,0.8,4.3,2.2L187.1,66.4z M178.9,73.1c-0.1,2.1,1.5,4,3.6,4.1c0.1,0,0.3,0,0.4,0
			c5.3,0,5.3-8.2,0-8.2c-2.1-0.1-3.9,1.6-4,3.7C178.9,72.9,178.9,73,178.9,73.1"/>
		<path id="Path_9" class="st0" d="M201.7,79.9v-7.1c0-2.1-1.1-3.6-3.3-3.6c-2,0.1-3.5,1.7-3.5,3.7c0,0,0,0.1,0,0.1v6.9h-3.3V66.3h3
			l0.2,1.8c1.1-1.3,2.8-2,4.5-2c3.2,0,5.8,2.4,5.8,6.7v7.1L201.7,79.9L201.7,79.9z"/>
		<path id="Path_10" class="st0" d="M209.9,60.7v11.1l4.6-5.4h4v0.2l-5.5,6.2l6.3,6.9v0.2h-4l-5.3-6.1v6.1h-3.4V60.7H209.9z"/>
		<path id="Path_11" class="st0" d="M131.5,84c0,0.4-0.1,0.8-0.4,1.1c-0.3,0.3-0.7,0.4-1.2,0.4c-0.2,0-0.5,0-0.7-0.1v-2.8
			c0.3-0.1,0.6-0.1,0.8-0.1c0.4,0,0.8,0.1,1.1,0.3C131.3,83.3,131.5,83.6,131.5,84 M130.9,84c0-0.3-0.1-0.5-0.2-0.7
			c-0.2-0.2-0.4-0.3-0.7-0.3c-0.1,0-0.3,0-0.4,0v1.9c0.1,0,0.2,0,0.3,0c0.3,0,0.5-0.1,0.7-0.3C130.9,84.6,130.9,84.3,130.9,84"/>
		<rect id="Rectangle_1" x="134" y="82.7" class="st0" width="0.5" height="2.8"/>
		<path id="Path_12" class="st0" d="M139.4,85.3c-0.3,0.1-0.6,0.2-0.9,0.2c-0.4,0-0.8-0.1-1.1-0.4c-0.3-0.3-0.4-0.7-0.4-1.1
			c0-0.4,0.1-0.8,0.4-1.1c0.3-0.3,0.7-0.4,1.1-0.4c0.3,0,0.6,0.1,0.8,0.2l-0.2,0.4c-0.2-0.1-0.5-0.2-0.7-0.2c-0.2,0-0.5,0.1-0.7,0.3
			c-0.2,0.2-0.3,0.4-0.2,0.7c0,0.3,0.1,0.5,0.2,0.8c0.2,0.2,0.4,0.3,0.7,0.3c0.2,0,0.3,0,0.4-0.1c0,0,0-0.1,0-0.1V84h0.5L139.4,85.3
			z"/>
		<rect id="Rectangle_2" x="142" y="82.7" class="st0" width="0.5" height="2.8"/>
		<path id="Path_13" class="st0" d="M147.1,83.2h-0.9v2.4h-0.5v-2.4h-0.8v-0.4h2.2L147.1,83.2z"/>
		<path id="Path_14" class="st0" d="M151.7,85.5h-0.6l-0.3-0.7h-1.1l-0.3,0.7l-0.5,0l1.2-2.8h0.5L151.7,85.5z M150.7,84.4l-0.4-0.9
			l-0.4,0.9H150.7z"/>
		<path id="Path_15" class="st0" d="M155.7,85.5h-1.7v-2.8h0.5v2.4h1.1V85.5z"/>
		<path id="Path_16" class="st0" d="M163,84.7c0,0.5-0.4,0.8-1.2,0.8c-0.2,0-0.5,0-0.7-0.1v-2.7c0.2,0,0.5-0.1,0.7-0.1
			c0.7,0,1.1,0.3,1.1,0.8c0,0.1,0,0.3-0.1,0.4c-0.1,0.1-0.2,0.2-0.3,0.2v0c0.2,0,0.3,0.1,0.4,0.2C163,84.4,163,84.6,163,84.7
			 M162.4,83.5c0-0.1-0.1-0.2-0.2-0.3c-0.1,0-0.2-0.1-0.4-0.1c-0.1,0-0.2,0-0.2,0v0.7h0.2C162.2,83.8,162.4,83.7,162.4,83.5
			 M162.5,84.7c0-0.3-0.2-0.4-0.6-0.4h-0.3v0.8c0.1,0,0.2,0,0.2,0C162.3,85.1,162.5,85,162.5,84.7"/>
		<path id="Path_17" class="st0" d="M168,85.5h-0.6l-0.3-0.7h-1.1l-0.3,0.7l-0.5,0l1.2-2.8h0.5L168,85.5z M167,84.4l-0.4-0.9
			l-0.4,0.9H167z"/>
		<path id="Path_18" class="st0" d="M172.8,85.5c-0.1,0-0.2,0.1-0.3,0.1c-0.2,0-0.5-0.1-0.6-0.4l-1-1.8c0,0,0-0.1-0.1-0.1h0v2.2
			h-0.5v-2.8h0.8l1.1,2.1c0,0,0,0.1,0.1,0.1h0v-2.2h0.5L172.8,85.5L172.8,85.5z"/>
		<path id="Path_19" class="st0" d="M177.7,85.5H177l-0.8-1c-0.1-0.1-0.1-0.1-0.2-0.2h0v1.2h-0.5v-2.8h0.5v1.1l1-1.1h0.7l-1.2,1.4
			c0.1,0,0.1,0.1,0.2,0.1L177.7,85.5z"/>
		<path id="Path_20" class="st0" d="M185.6,84.1c0,0.4-0.1,0.7-0.3,1c-0.5,0.5-1.4,0.6-1.9,0.1c0,0,0,0,0,0c-0.2-0.3-0.4-0.7-0.3-1
			c0-0.4,0.1-0.7,0.3-1c0.5-0.5,1.4-0.6,1.9,0c0,0,0,0,0,0C185.5,83.4,185.6,83.7,185.6,84.1 M185.1,84.1c0-0.2-0.1-0.5-0.2-0.7
			c-0.2-0.3-0.7-0.4-1-0.2c-0.1,0.1-0.1,0.1-0.2,0.2c-0.1,0.2-0.2,0.5-0.2,0.7c0,0.2,0.1,0.5,0.2,0.7c0.1,0.2,0.4,0.3,0.6,0.3
			c0.2,0,0.5-0.1,0.6-0.3C185,84.6,185.1,84.4,185.1,84.1"/>
		<path id="Path_21" class="st0" d="M189.7,83.2h-1.1v0.7h0.9v0.4h-0.9v1.2h-0.5v-2.8h1.6V83.2z"/>
		<path id="Path_22" class="st0" d="M197.7,85.5h-0.6l-0.3-0.7h-1.1l-0.3,0.7l-0.5,0l1.2-2.8h0.5L197.7,85.5z M196.7,84.4l-0.4-0.9
			l-0.4,0.9H196.7z"/>
		<path id="Path_23" class="st0" d="M201.7,83.2h-1.1v0.7h0.9v0.4h-0.9v1.2h-0.5v-2.8h1.6V83.2z"/>
		<path id="Path_24" class="st0" d="M206.2,85.5h-0.6l-0.6-0.9c0-0.1-0.1-0.1-0.1-0.2h0c0,0,0,0,0,0c0,0-0.1,0-0.2,0v1.1h-0.5v-2.8
			c0.2-0.1,0.5-0.1,0.7-0.1c0.7,0,1.1,0.3,1.1,0.9c0,0.2-0.1,0.4-0.2,0.5c-0.1,0.1-0.3,0.2-0.4,0.3v0c0.1,0,0.1,0.1,0.2,0.2
			L206.2,85.5z M205.4,83.5c0-0.3-0.2-0.4-0.5-0.4c-0.1,0-0.2,0-0.2,0V84c0.1,0,0.2,0,0.2,0c0.1,0,0.3,0,0.4-0.1
			C205.4,83.8,205.4,83.7,205.4,83.5"/>
		<rect id="Rectangle_3" x="208.6" y="82.7" class="st0" width="0.5" height="2.8"/>
		<path id="Path_25" class="st0" d="M213.8,85.4c-0.2,0.1-0.5,0.2-0.7,0.2c-0.4,0-0.8-0.1-1-0.4c-0.3-0.3-0.4-0.7-0.4-1
			c0-0.4,0.1-0.8,0.4-1c0.3-0.3,0.6-0.4,1-0.4c0.3,0,0.5,0.1,0.8,0.2l-0.2,0.4c-0.2-0.1-0.4-0.2-0.6-0.2c-0.2,0-0.5,0.1-0.6,0.3
			c-0.1,0.2-0.2,0.4-0.2,0.7c0,0.3,0.1,0.5,0.2,0.7c0.2,0.2,0.4,0.3,0.7,0.3c0.2,0,0.4,0,0.5-0.1L213.8,85.4z"/>
		<path id="Path_26" class="st0" d="M218.7,85.5h-0.6l-0.3-0.7h-1.1l-0.3,0.7l-0.5,0l1.2-2.8h0.5L218.7,85.5z M217.7,84.4l-0.4-0.9
			l-0.4,0.9H217.7z"/>
	</g>
</g>
</svg>
